<?xml version="1.0" standalone="yes"?>

<svg version="1.1" viewBox="0.0 0.0 1128.9265091863517 276.21522309711287" fill="none" stroke="none" stroke-linecap="square" stroke-miterlimit="10" xmlns="http://www.w3.org/2000/svg" xmlns:xlink="http://www.w3.org/1999/xlink"><clipPath id="p.0"><path d="m0 0l1128.9265 0l0 276.2152l-1128.9265 0l0 -276.2152z" clip-rule="nonzero"></path></clipPath><g clip-path="url(#p.0)"><path fill="#000000" fill-opacity="0.0" d="m0 0l1128.9265 0l0 276.2152l-1128.9265 0z" fill-rule="nonzero"></path><path fill="#cfe2f3" d="m183.28075 96.29396l0.007873535 -12.874016l-31.196854 0l0.01574707 -25.748028l31.196854 0l0.007873535 -12.874016l25.732285 25.748028z" fill-rule="nonzero"></path><path stroke="#999999" stroke-width="1.0" stroke-linejoin="round" stroke-linecap="butt" d="m183.28075 96.29396l0.007873535 -12.874016l-31.196854 0l0.01574707 -25.748028l31.196854 0l0.007873535 -12.874016l25.732285 25.748028z" fill-rule="nonzero"></path><path fill="#cfe2f3" d="m211.64305 141.70604l0 0c0 -6.7404785 5.4642334 -12.204727 12.204712 -12.204727l138.14174 0c3.236908 0 6.341217 1.2858582 8.630035 3.5746765c2.2888489 2.2888336 3.5746765 5.393158 3.5746765 8.630051l0 48.818893c0 6.7404785 -5.4642334 12.204727 -12.204712 12.204727l-138.14174 0l0 0c-6.7404785 0 -12.204712 -5.4642487 -12.204712 -12.204727z" fill-rule="nonzero"></path><path stroke="#000000" stroke-width="2.0" stroke-linejoin="round" stroke-linecap="butt" d="m211.64305 141.70604l0 0c0 -6.7404785 5.4642334 -12.204727 12.204712 -12.204727l138.14174 0c3.236908 0 6.341217 1.2858582 8.630035 3.5746765c2.2888489 2.2888336 3.5746765 5.393158 3.5746765 8.630051l0 48.818893c0 6.7404785 -5.4642334 12.204727 -12.204712 12.204727l-138.14174 0l0 0c-6.7404785 0 -12.204712 -5.4642487 -12.204712 -12.204727z" fill-rule="nonzero"></path><path fill="#000000" d="m271.31366 173.03548l0 -12.0l-4.46875 0l0 -1.59375l10.765625 0l0 1.59375l-4.5 0l0 12.0l-1.796875 0zm14.474091 -3.171875l1.71875 0.21875q-0.40625 1.5 -1.515625 2.34375q-1.09375 0.828125 -2.8125 0.828125q-2.15625 0 -3.421875 -1.328125q-1.265625 -1.328125 -1.265625 -3.734375q0 -2.484375 1.265625 -3.859375q1.28125 -1.375 3.328125 -1.375q1.984375 0 3.234375 1.34375q1.25 1.34375 1.25 3.796875q0 0.140625 -0.015625 0.4375l-7.34375 0q0.09375 1.625 0.921875 2.484375q0.828125 0.859375 2.0625 0.859375q0.90625 0 1.546875 -0.46875q0.65625 -0.484375 1.046875 -1.546875zm-5.484375 -2.703125l5.5 0q-0.109375 -1.234375 -0.625 -1.859375q-0.796875 -0.96875 -2.078125 -0.96875q-1.140625 0 -1.9375 0.78125q-0.78125 0.765625 -0.859375 2.046875zm15.547607 2.265625l1.640625 0.21875q-0.265625 1.6875 -1.375 2.65625q-1.109375 0.953125 -2.734375 0.953125q-2.015625 0 -3.25 -1.3125q-1.21875 -1.328125 -1.21875 -3.796875q0 -1.59375 0.515625 -2.78125q0.53125 -1.203125 1.609375 -1.796875q1.09375 -0.609375 2.359375 -0.609375q1.609375 0 2.625 0.8125q1.015625 0.8125 1.3125 2.3125l-1.625 0.25q-0.234375 -1.0 -0.828125 -1.5q-0.59375 -0.5 -1.421875 -0.5q-1.265625 0 -2.0625 0.90625q-0.78125 0.90625 -0.78125 2.859375q0 1.984375 0.765625 2.890625q0.765625 0.890625 1.984375 0.890625q0.984375 0 1.640625 -0.59375q0.65625 -0.609375 0.84375 -1.859375zm2.0 -6.25l8.0 0l0 1.390625l-3.171875 0l0 8.46875l-1.65625 0l0 -8.46875l-3.171875 0l0 -1.390625zm18.810333 0l1.671875 0l0 9.859375l-1.671875 0l0 -9.859375zm-9.328125 0l1.65625 0l0 3.859375l2.125 0q2.0625 0 3.171875 0.8125q1.125 0.796875 1.125 2.203125q0 1.234375 -0.9375 2.109375q-0.921875 0.875 -2.96875 0.875l-4.171875 0l0 -9.859375zm1.65625 8.484375l1.765625 0q1.578125 0 2.25 -0.390625q0.6875 -0.390625 0.6875 -1.21875q0 -0.640625 -0.5 -1.140625q-0.5 -0.5 -2.21875 -0.5l-1.984375 0l0 3.25z" fill-rule="nonzero"></path><path fill="#cfe2f3" d="m10.043385 46.136482l0 0c0 -6.7404823 5.464241 -12.204723 12.204725 -12.204723l113.22835 0c3.2368927 0 6.341217 1.2858505 8.630051 3.5746803c2.2888184 2.2888298 3.5746765 5.3931503 3.5746765 8.630043l0 48.8189c0 6.7404785 -5.4642487 12.20472 -12.204727 12.20472l-113.22835 0c-6.740484 0 -12.204725 -5.464241 -12.204725 -12.20472z" fill-rule="nonzero"></path><path stroke="#000000" stroke-width="2.0" stroke-linejoin="round" stroke-linecap="butt" d="m10.043385 46.136482l0 0c0 -6.7404823 5.464241 -12.204723 12.204725 -12.204723l113.22835 0c3.2368927 0 6.341217 1.2858505 8.630051 3.5746803c2.2888184 2.2888298 3.5746765 5.3931503 3.5746765 8.630043l0 48.8189c0 6.7404785 -5.4642487 12.20472 -12.204727 12.20472l-113.22835 0c-6.740484 0 -12.204725 -5.464241 -12.204725 -12.20472z" fill-rule="nonzero"></path><path fill="#000000" d="m26.452911 63.87218l1.8125 0l0 11.984371l7.078125 0l0 -11.984371l1.8125 0l0 11.984371l1.25 0l0 5.390625l-1.609375 0l0 -3.78125l-10.34375 0l0 -13.593746zm20.332138 10.421871l1.71875 0.21875q-0.40625 1.5 -1.515625 2.34375q-1.09375 0.828125 -2.8125 0.828125q-2.15625 0 -3.421875 -1.328125q-1.265625 -1.328125 -1.265625 -3.734375q0 -2.484375 1.265625 -3.859375q1.28125 -1.375 3.328125 -1.375q1.984375 0 3.234375 1.34375q1.25 1.34375 1.25 3.796875q0 0.140625 -0.015625 0.4375l-7.34375 0q0.09375 1.625 0.921875 2.484375q0.828125 0.859375 2.0625 0.859375q0.90625 0 1.546875 -0.46875q0.65625 -0.484375 1.046875 -1.546875zm-5.484375 -2.703125l5.5 0q-0.109375 -1.234375 -0.625 -1.859375q-0.796875 -0.96875 -2.078125 -0.96875q-1.140625 0 -1.9375 0.78125q-0.78125 0.765625 -0.859375 2.046875zm9.922592 -3.984375l7.765625 0l0 9.859375l-1.65625 0l0 -8.46875l-4.4375 0l0 4.90625q0 1.71875 -0.109375 2.265625q-0.109375 0.546875 -0.609375 0.953125q-0.5 0.40625 -1.453125 0.40625q-0.578125 0 -1.34375 -0.078125l0 -1.390625l0.734375 0q0.515625 0 0.734375 -0.09375q0.234375 -0.109375 0.296875 -0.34375q0.078125 -0.234375 0.078125 -1.515625l0 -6.5zm16.823349 6.6875l1.71875 0.21875q-0.40625 1.5 -1.515625 2.34375q-1.09375 0.828125 -2.8125 0.828125q-2.15625 0 -3.421875 -1.328125q-1.265625 -1.328125 -1.265625 -3.734375q0 -2.484375 1.265625 -3.859375q1.28125 -1.375 3.328125 -1.375q1.984375 0 3.234375 1.34375q1.25 1.34375 1.25 3.796875q0 0.140625 -0.015625 0.4375l-7.34375 0q0.09375 1.625 0.921875 2.484375q0.828125 0.859375 2.0625 0.859375q0.90625 0 1.546875 -0.46875q0.65625 -0.484375 1.046875 -1.546875zm-5.484375 -2.703125l5.5 0q-0.109375 -1.234375 -0.625 -1.859375q-0.796875 -0.96875 -2.078125 -0.96875q-1.140625 0 -1.9375 0.78125q-0.78125 0.765625 -0.859375 2.046875zm9.125717 -3.984375l3.84375 0q1.421875 0 2.109375 0.25q0.6875 0.234375 1.1875 0.859375q0.5 0.625 0.5 1.515625q0 0.703125 -0.296875 1.234375q-0.28125 0.515625 -0.875 0.875q0.703125 0.21875 1.15625 0.859375q0.46875 0.640625 0.46875 1.515625q-0.09375 1.390625 -1.015625 2.078125q-0.90625 0.671875 -2.640625 0.671875l-4.4375 0l0 -9.859375zm1.671875 4.15625l1.78125 0q1.0625 0 1.453125 -0.109375q0.40625 -0.109375 0.71875 -0.453125q0.3125 -0.34375 0.3125 -0.8125q0 -0.78125 -0.546875 -1.078125q-0.546875 -0.3125 -1.890625 -0.3125l-1.828125 0l0 2.765625zm0 4.328125l2.1875 0q1.421875 0 1.953125 -0.328125q0.53125 -0.328125 0.5625 -1.140625q0 -0.46875 -0.3125 -0.875q-0.3125 -0.40625 -0.796875 -0.5q-0.484375 -0.109375 -1.578125 -0.109375l-2.015625 0l0 2.953125zm7.598633 -3.546875q0 -2.734375 1.53125 -4.0625q1.265625 -1.09375 3.09375 -1.09375q2.03125 0 3.3125 1.34375q1.296875 1.328125 1.296875 3.671875q0 1.90625 -0.578125 3.0q-0.5625 1.078125 -1.65625 1.6875q-1.078125 0.59375 -2.375 0.59375q-2.0625 0 -3.34375 -1.328125q-1.28125 -1.328125 -1.28125 -3.8125zm1.71875 0q0 1.890625 0.828125 2.828125q0.828125 0.9375 2.078125 0.9375q1.25 0 2.0625 -0.9375q0.828125 -0.953125 0.828125 -2.890625q0 -1.828125 -0.828125 -2.765625q-0.828125 -0.9375 -2.0625 -0.9375q-1.25 0 -2.078125 0.9375q-0.828125 0.9375 -0.828125 2.828125zm9.281967 -4.9375l1.671875 0l0 7.515625l4.625 -7.515625l1.8125 0l0 9.859375l-1.671875 0l0 -7.46875l-4.640625 7.46875l-1.796875 0l0 -9.859375zm5.515625 -3.7187462l1.140625 0q-0.140625 1.1562462 -0.859375 1.7812462q-0.703125 0.625 -1.875 0.625q-1.1875 0 -1.90625 -0.609375q-0.703125 -0.625 -0.84375 -1.7968712l1.140625 0q0.140625 0.6249962 0.515625 0.9374962q0.390625 0.3125 1.046875 0.3125q0.75 0 1.125 -0.296875q0.390625 -0.3125 0.515625 -0.9531212zm15.2295685 1.6093712l0 -1.7499962l1.6875 0l0 1.7499962q2.59375 0.140625 4.09375 1.5625q1.5 1.421875 1.5 3.546875q0 2.0625 -1.453125 3.515625q-1.453125 1.4375 -4.140625 1.59375l0 1.75l-1.6875 0l0 -1.75q-2.421875 -0.09375 -4.03125 -1.46875q-1.59375 -1.390625 -1.59375 -3.640625q0 -2.28125 1.59375 -3.640625q1.609375 -1.359375 4.03125 -1.46875zm1.6875 1.546875l0 7.125q1.734375 -0.09375 2.734375 -1.015625q1.0 -0.921875 1.0 -2.546875q0 -1.609375 -0.984375 -2.53125q-0.96875 -0.9375 -2.75 -1.03125zm-1.6875 0q-1.6875 0.078125 -2.734375 1.0q-1.03125 0.921875 -1.03125 2.5625q0 1.625 1.015625 2.546875q1.03125 0.921875 2.75 1.0l0 -7.109375zm9.339737 -3.1718712l8.828125 0l0 1.5937462l-7.03125 0l0 4.203125l3.25 0q1.796875 0 2.859375 0.34375q1.0625 0.34375 1.703125 1.296875q0.640625 0.9375 0.640625 2.203125q0 1.03125 -0.46875 1.9375q-0.453125 0.890625 -1.359375 1.453125q-0.90625 0.5625 -3.09375 0.5625l-5.328125 0l0 -13.593746zm1.796875 12.062496l3.609375 0q1.453125 0 2.171875 -0.59375q0.734375 -0.59375 0.734375 -1.78125q0 -0.84375 -0.421875 -1.40625q-0.40625 -0.5625 -1.15625 -0.75q-0.734375 -0.1875 -2.53125 -0.1875l-2.40625 0l0 4.71875z" fill-rule="nonzero"></path><path fill="#000000" fill-opacity="0.0" d="m149.7454 129.50131l0 -137.5433l25.417328 0l0 137.5433z" fill-rule="nonzero"></path><path fill="#000000" d="m176.6654 116.02674l-13.59375 0l0 -5.125q0 -1.359375 0.125 -2.078125q0.171875 -1.0 0.640625 -1.671875q0.46875 -0.671875 1.3125 -1.078125q0.84375 -0.421875 1.84375 -0.421875q1.734375 0 2.9375 1.109375q1.203125 1.09375 1.203125 3.984375l0 3.484375l5.53125 0l0 1.796875zm-7.140625 -1.796875l0 -3.515625q0 -1.75 -0.640625 -2.46875q-0.65625 -0.734375 -1.828125 -0.734375q-0.859375 0 -1.46875 0.4375q-0.609375 0.421875 -0.796875 1.125q-0.125 0.453125 -0.125 1.671875l0 3.484375l4.859375 0zm3.96875 -17.177948l0.21875 -1.71875q1.5 0.40625 2.34375 1.515625q0.828125 1.09375 0.828125 2.8125q0 2.15625 -1.328125 3.421875q-1.328125 1.265625 -3.734375 1.265625q-2.484375 0 -3.859375 -1.265625q-1.375 -1.28125 -1.375 -3.328125q0 -1.984375 1.34375 -3.234375q1.34375 -1.25 3.796875 -1.25q0.140625 0 0.4375 0.015625l0 7.34375q1.625 -0.09375 2.484375 -0.921875q0.859375 -0.828125 0.859375 -2.0625q0 -0.90625 -0.46875 -1.546875q-0.484375 -0.65625 -1.546875 -1.046875zm-2.703125 5.484375l0 -5.5q-1.234375 0.109375 -1.859375 0.625q-0.96875 0.796875 -0.96875 2.078125q0 1.140625 0.78125 1.9375q0.765625 0.78125 2.046875 0.859375zm-7.71875 -14.844467l0 -1.671875l4.703125 0q-0.59375 -0.515625 -0.890625 -1.140625q-0.296875 -0.625 -0.296875 -1.34375q0 -1.75 1.46875 -2.765625q1.453125 -1.03125 3.671875 -1.03125q2.3125 0 3.734375 1.109375q1.421875 1.09375 1.421875 2.734375q0 0.546875 -0.171875 1.109375q-0.15625 0.546875 -0.90625 1.328125l4.640625 0l0 1.671875l-4.640625 0q0.546875 0.5 0.8125 1.109375q0.265625 0.609375 0.265625 1.3125q0 1.546875 -1.359375 2.703125q-1.359375 1.15625 -3.890625 1.15625q-2.140625 0 -3.59375 -1.046875q-1.453125 -1.046875 -1.453125 -2.8125q0 -0.75 0.296875 -1.34375q0.296875 -0.609375 0.890625 -1.078125l-4.703125 0zm8.703125 -1.65625q2.234375 0 3.0 -0.609375q0.765625 -0.625 0.765625 -1.546875q0 -1.015625 -0.9375 -1.734375q-0.953125 -0.71875 -2.9375 -0.71875q-1.875 0 -2.796875 0.671875q-0.921875 0.65625 -0.921875 1.703125q0 1.109375 0.96875 1.671875q0.953125 0.5625 2.859375 0.5625zm-0.1875 6.25q2.09375 0 3.015625 -0.703125q0.90625 -0.703125 0.90625 -1.734375q0 -1.09375 -0.90625 -1.625q-0.921875 -0.546875 -2.75 -0.546875q-1.9375 0 -2.90625 0.578125q-0.984375 0.5625 -0.984375 1.703125q0 1.03125 0.953125 1.6875q0.953125 0.640625 2.671875 0.640625zm3.859375 -20.646378q0.796875 0.9375 1.125 1.796875q0.3125 0.859375 0.3125 1.84375q0 1.609375 -0.78125 2.484375q-0.796875 0.875 -2.03125 0.875q-0.734375 0 -1.328125 -0.328125q-0.59375 -0.328125 -0.953125 -0.859375q-0.359375 -0.53125 -0.546875 -1.203125q-0.140625 -0.5 -0.25 -1.484375q-0.25 -2.03125 -0.578125 -2.984375q-0.34375 0 -0.4375 0q-1.015625 0 -1.4375 0.46875q-0.5625 0.640625 -0.5625 1.90625q0 1.171875 0.40625 1.734375q0.40625 0.5625 1.46875 0.828125l-0.234375 1.640625q-1.046875 -0.234375 -1.6875 -0.734375q-0.640625 -0.515625 -0.984375 -1.46875q-0.359375 -0.96875 -0.359375 -2.25q0 -1.265625 0.296875 -2.046875q0.296875 -0.78125 0.75 -1.15625q0.453125 -0.375 1.140625 -0.515625q0.421875 -0.09375 1.53125 -0.09375l2.234375 0q2.328125 0 2.953125 -0.09375q0.609375 -0.109375 1.171875 -0.4375l0 1.75q-0.515625 0.265625 -1.21875 0.328125zm-3.71875 0.140625q0.359375 0.90625 0.625 2.734375q0.140625 1.03125 0.328125 1.453125q0.1875 0.421875 0.546875 0.65625q0.359375 0.234375 0.796875 0.234375q0.671875 0 1.125 -0.5q0.4375 -0.515625 0.4375 -1.484375q0 -0.96875 -0.421875 -1.71875q-0.4375 -0.75 -1.15625 -1.109375q-0.578125 -0.265625 -1.671875 -0.265625l-0.609375 0zm-4.921875 -4.078842l0 -1.65625l4.265625 0q0 -0.8125 -0.296875 -1.125q-0.3125 -0.3125 -1.796875 -0.9375q-1.15625 -0.5 -1.53125 -0.796875q-0.375 -0.3125 -0.5 -0.703125q-0.140625 -0.40625 -0.140625 -1.28125l0 -0.34375l1.390625 0l-0.015625 0.46875q0 0.65625 0.203125 0.84375q0.203125 0.1875 1.21875 0.59375q0.953125 0.375 1.328125 0.703125q0.375 0.3125 0.671875 0.96875q0.296875 -1.078125 2.015625 -2.125l3.046875 -1.828125l0 1.84375l-3.046875 1.78125q-0.921875 0.546875 -1.21875 0.953125q-0.296875 0.40625 -0.296875 0.984375l4.5625 0l0 1.65625l-9.859375 0zm0 -7.2714844l0 -8.0l1.390625 0l0 3.171875l8.46875 0l0 1.65625l-8.46875 0l0 3.171875l-1.390625 0zm4.9375 -8.810333q-2.734375 0 -4.0625 -1.53125q-1.09375 -1.265625 -1.09375 -3.09375q0 -2.03125 1.34375 -3.3125q1.328125 -1.296875 3.671875 -1.296875q1.90625 0 3.0 0.578125q1.078125 0.5625 1.6875 1.65625q0.59375 1.078125 0.59375 2.375q0 2.0625 -1.328125 3.34375q-1.328125 1.28125 -3.8125 1.28125zm0 -1.71875q1.890625 0 2.828125 -0.828125q0.9375 -0.828125 0.9375 -2.078125q0 -1.25 -0.9375 -2.0625q-0.953125 -0.828125 -2.890625 -0.828125q-1.828125 0 -2.765625 0.828125q-0.9375 0.828125 -0.9375 2.0625q0 1.25 0.9375 2.078125q0.9375 0.828125 2.828125 0.828125zm8.703125 -9.281967l-13.640625 0l0 -1.53125l1.28125 0q-0.75 -0.53125 -1.125 -1.203125q-0.375 -0.6875 -0.375 -1.640625q0 -1.265625 0.65625 -2.234375q0.640625 -0.96875 1.828125 -1.453125q1.1875 -0.5 2.59375 -0.5q1.515625 0 2.734375 0.546875q1.203125 0.546875 1.84375 1.578125q0.640625 1.03125 0.640625 2.171875q0 0.84375 -0.34375 1.515625q-0.359375 0.65625 -0.890625 1.078125l4.796875 0l0 1.671875zm-8.65625 -1.515625q1.90625 0 2.8125 -0.765625q0.90625 -0.78125 0.90625 -1.875q0 -1.109375 -0.9375 -1.890625q-0.9375 -0.796875 -2.921875 -0.796875q-1.875 0 -2.8125 0.78125q-0.9375 0.765625 -0.9375 1.84375q0 1.0625 1.0 1.890625q1.0 0.8125 2.890625 0.8125zm-4.984375 -8.860092l0 -1.671875l7.515625 0l-7.515625 -4.625l0 -1.8125l9.859375 0l0 1.671875l-7.46875 0l7.46875 4.640625l0 1.796875l-9.859375 0zm0 -10.43689l0 -1.671875l4.109375 0l0 -4.625l-4.109375 0l0 -1.671875l9.859375 0l0 1.671875l-4.375 0l0 4.625l4.375 0l0 1.671875l-9.859375 0zm0 -10.302841l0 -5.671875l1.390625 0l0 4.0l8.46875 0l0 1.671875l-9.859375 0z" fill-rule="nonzero"></path><path fill="#cfe2f3" d="m211.64568 36.43832l0 0c0 -9.236637 7.4877625 -16.72441 16.724396 -16.72441l129.10237 0c4.4355774 0 8.689514 1.7620316 11.825928 4.898466c3.136444 3.1364346 4.898468 7.390354 4.898468 11.825943l0 66.897644c0 9.236633 -7.4877625 16.724403 -16.724396 16.724403l-129.10237 0c-9.236633 0 -16.724396 -7.48777 -16.724396 -16.724403z" fill-rule="nonzero"></path><path stroke="#000000" stroke-width="2.0" stroke-linejoin="round" stroke-linecap="butt" d="m211.64568 36.43832l0 0c0 -9.236637 7.4877625 -16.72441 16.724396 -16.72441l129.10237 0c4.4355774 0 8.689514 1.7620316 11.825928 4.898466c3.136444 3.1364346 4.898468 7.390354 4.898468 11.825943l0 66.897644c0 9.236633 -7.4877625 16.724403 -16.724396 16.724403l-129.10237 0c-9.236633 0 -16.724396 -7.48777 -16.724396 -16.724403z" fill-rule="nonzero"></path><path fill="#000000" d="m232.70961 30.213388l1.8125 0l0 11.984373l7.078125 0l0 -11.984373l1.8125 0l0 11.984373l1.25 0l0 5.390625l-1.609375 0l0 -3.78125l-10.34375 0l0 -13.593748zm20.332138 10.421873l1.71875 0.21875q-0.40625 1.5 -1.515625 2.34375q-1.09375 0.828125 -2.8125 0.828125q-2.15625 0 -3.421875 -1.328125q-1.265625 -1.328125 -1.265625 -3.734375q0 -2.484375 1.265625 -3.859375q1.28125 -1.375 3.328125 -1.375q1.984375 0 3.234375 1.34375q1.25 1.34375 1.25 3.796875q0 0.140625 -0.015625 0.4375l-7.34375 0q0.09375 1.625 0.921875 2.484375q0.828125 0.859375 2.0625 0.859375q0.90625 0 1.546875 -0.46875q0.65625 -0.484375 1.046875 -1.546875zm-5.484375 -2.703125l5.5 0q-0.109375 -1.234375 -0.625 -1.859375q-0.796875 -0.96875 -2.078125 -0.96875q-1.140625 0 -1.9375 0.78125q-0.78125 0.765625 -0.859375 2.046875zm9.922577 -3.984375l7.765625 0l0 9.859375l-1.65625 0l0 -8.46875l-4.4375 0l0 4.90625q0 1.71875 -0.109375 2.265625q-0.109375 0.546875 -0.609375 0.953125q-0.5 0.40625 -1.453125 0.40625q-0.578125 0 -1.3437347 -0.078125l0 -1.390625l0.73435974 0q0.515625 0 0.734375 -0.09375q0.234375 -0.109375 0.296875 -0.34375q0.078125 -0.234375 0.078125 -1.515625l0 -6.5zm16.823364 6.6875l1.71875 0.21875q-0.40625 1.5 -1.515625 2.34375q-1.09375 0.828125 -2.8125 0.828125q-2.15625 0 -3.421875 -1.328125q-1.265625 -1.328125 -1.265625 -3.734375q0 -2.484375 1.265625 -3.859375q1.28125 -1.375 3.328125 -1.375q1.984375 0 3.234375 1.34375q1.25 1.34375 1.25 3.796875q0 0.140625 -0.015625 0.4375l-7.34375 0q0.09375 1.625 0.921875 2.484375q0.828125 0.859375 2.0625 0.859375q0.90625 0 1.546875 -0.46875q0.65625 -0.484375 1.046875 -1.546875zm-5.484375 -2.703125l5.5 0q-0.109375 -1.234375 -0.625 -1.859375q-0.796875 -0.96875 -2.078125 -0.96875q-1.140625 0 -1.9375 0.78125q-0.78125 0.765625 -0.859375 2.046875zm9.125702 -3.984375l3.84375 0q1.421875 0 2.109375 0.25q0.6875 0.234375 1.1875 0.859375q0.5 0.625 0.5 1.515625q0 0.703125 -0.296875 1.234375q-0.28125 0.515625 -0.875 0.875q0.703125 0.21875 1.15625 0.859375q0.46875 0.640625 0.46875 1.515625q-0.09375 1.390625 -1.015625 2.078125q-0.90625 0.671875 -2.640625 0.671875l-4.4375 0l0 -9.859375zm1.671875 4.15625l1.78125 0q1.0625 0 1.453125 -0.109375q0.40625 -0.109375 0.71875 -0.453125q0.3125 -0.34375 0.3125 -0.8125q0 -0.78125 -0.546875 -1.078125q-0.546875 -0.3125 -1.890625 -0.3125l-1.828125 0l0 2.765625zm0 4.328125l2.1875 0q1.421875 0 1.953125 -0.328125q0.53125 -0.328125 0.5625 -1.140625q0 -0.46875 -0.3125 -0.875q-0.3125 -0.40625 -0.796875 -0.5q-0.484375 -0.109375 -1.578125 -0.109375l-2.015625 0l0 2.953125zm7.598633 -3.546875q0 -2.734375 1.53125 -4.0625q1.265625 -1.09375 3.09375 -1.09375q2.03125 0 3.3125 1.34375q1.296875 1.328125 1.296875 3.671875q0 1.90625 -0.578125 3.0q-0.5625 1.078125 -1.65625 1.6875q-1.078125 0.59375 -2.375 0.59375q-2.0625 0 -3.34375 -1.328125q-1.28125 -1.328125 -1.28125 -3.8125zm1.71875 0q0 1.890625 0.828125 2.828125q0.828125 0.9375 2.078125 0.9375q1.25 0 2.0625 -0.9375q0.828125 -0.953125 0.828125 -2.890625q0 -1.828125 -0.828125 -2.765625q-0.828125 -0.9375 -2.0625 -0.9375q-1.25 0 -2.078125 0.9375q-0.828125 0.9375 -0.828125 2.828125zm9.281982 -4.9375l1.671875 0l0 7.515625l4.625 -7.515625l1.8125 0l0 9.859375l-1.671875 0l0 -7.46875l-4.640625 7.46875l-1.796875 0l0 -9.859375zm5.515625 -3.718748l1.140625 0q-0.140625 1.15625 -0.859375 1.7812481q-0.703125 0.625 -1.875 0.625q-1.1875 0 -1.90625 -0.609375q-0.703125 -0.6249981 -0.84375 -1.7968731l1.140625 0q0.140625 0.625 0.515625 0.9375q0.390625 0.3125 1.046875 0.3125q0.75 0 1.125 -0.296875q0.390625 -0.3125 0.515625 -0.953125zm15.229553 1.609375l0 -1.75l1.6875 0l0 1.75q2.59375 0.140625 4.09375 1.5624981q1.5 1.421875 1.5 3.546875q0 2.0625 -1.453125 3.515625q-1.453125 1.4375 -4.140625 1.59375l0 1.75l-1.6875 0l0 -1.75q-2.421875 -0.09375 -4.03125 -1.46875q-1.59375 -1.390625 -1.59375 -3.640625q0 -2.28125 1.59375 -3.640625q1.609375 -1.3593731 4.03125 -1.4687481zm1.6875 1.5468731l0 7.125q1.734375 -0.09375 2.734375 -1.015625q1.0 -0.921875 1.0 -2.546875q0 -1.609375 -0.984375 -2.53125q-0.96875 -0.9375 -2.75 -1.03125zm-1.6875 0q-1.6875 0.078125 -2.734375 1.0q-1.03125 0.921875 -1.03125 2.5625q0 1.625 1.015625 2.546875q1.03125 0.921875 2.75 1.0l0 -7.109375zm9.339752 -3.171873l8.828125 0l0 1.59375l-7.03125 0l0 4.203123l3.25 0q1.796875 0 2.859375 0.34375q1.0625 0.34375 1.703125 1.296875q0.640625 0.9375 0.640625 2.203125q0 1.03125 -0.46875 1.9375q-0.453125 0.890625 -1.359375 1.453125q-0.90625 0.5625 -3.09375 0.5625l-5.328125 0l0 -13.593748zm1.796875 12.062498l3.609375 0q1.453125 0 2.171875 -0.59375q0.734375 -0.59375 0.734375 -1.78125q0 -0.84375 -0.421875 -1.40625q-0.40625 -0.5625 -1.15625 -0.75q-0.734375 -0.1875 -2.53125 -0.1875l-2.40625 0l0 4.71875zm15.332703 -8.328125l1.671875 0l0 7.515625l4.625 -7.515625l1.8125 0l0 9.859375l-1.671875 0l0 -7.46875l-4.640625 7.46875l-1.796875 0l0 -9.859375z" fill-rule="nonzero"></path><path fill="#000000" d="m267.56985 53.83839l0 -1.75l1.6875 0l0 1.75q2.59375 0.140625 4.09375 1.5625q1.5 1.421875 1.5 3.546875q0 2.0625 -1.453125 3.515625q-1.453125 1.4375 -4.140625 1.5937462l0 1.75l-1.6875 0l0 -1.75q-2.421875 -0.093746185 -4.03125 -1.4687462q-1.59375 -1.390625 -1.59375 -3.640625q0 -2.28125 1.59375 -3.640625q1.609375 -1.359375 4.03125 -1.46875zm1.6875 1.546875l0 7.125q1.734375 -0.09375 2.734375 -1.015625q1.0 -0.921875 1.0 -2.546875q0 -1.609375 -0.984375 -2.53125q-0.96875 -0.9375 -2.75 -1.03125zm-1.6875 0q-1.6875 0.078125 -2.734375 1.0q-1.03125 0.921875 -1.03125 2.5625q0 1.625 1.015625 2.546875q1.03125 0.921875 2.75 1.0l0 -7.109375zm9.339722 -3.171875l8.828125 0l0 1.59375l-7.03125 0l0 4.203125l3.25 0q1.796875 0 2.859375 0.34375q1.0625 0.34375 1.703125 1.296875q0.640625 0.9375 0.640625 2.203125q0 1.03125 -0.46875 1.9375q-0.453125 0.8906212 -1.359375 1.4531212q-0.90625 0.5625 -3.09375 0.5625l-5.328125 0l0 -13.593746zm1.796875 12.062496l3.609375 0q1.453125 0 2.171875 -0.5937462q0.734375 -0.59375 0.734375 -1.78125q0 -0.84375 -0.421875 -1.40625q-0.40625 -0.5625 -1.15625 -0.75q-0.734375 -0.1875 -2.53125 -0.1875l-2.40625 0l0 4.718746zm16.645233 -8.328121l6.875 0l0 8.484371l1.0625 0l0 4.171875l-1.375 0l0 -2.796875l-7.75 0l0 2.796875l-1.375 0l0 -4.171875l0.875 0q1.765625 -2.3906212 1.6875 -8.484371zm1.40625 1.390625q-0.1875 4.796875 -1.484375 7.093746l5.296875 0l0 -7.093746l-3.8125 0zm8.979584 -1.390625l7.765625 0l0 9.859371l-1.65625 0l0 -8.468746l-4.4375 0l0 4.90625q0 1.71875 -0.109375 2.2656212q-0.109375 0.546875 -0.609375 0.953125q-0.5 0.40625 -1.453125 0.40625q-0.578125 0 -1.34375 -0.078125l0 -1.390625l0.734375 0q0.515625 0 0.734375 -0.09375q0.234375 -0.109375 0.296875 -0.3437462q0.078125 -0.234375 0.078125 -1.515625l0 -6.5zm17.83899 0l0 9.859371l-1.671875 0l0 -3.8437462l-0.953125 0q-0.890625 0 -1.328125 0.234375q-0.421875 0.21875 -1.25 1.453125l-1.453125 2.1562462l-2.078125 0l1.8125 -2.6562462q0.8125 -1.21875 1.640625 -1.375q-1.4375 -0.1875 -2.125 -1.015625q-0.6875 -0.84375 -0.6875 -1.9375q0 -1.265625 0.90625 -2.0625q0.90625 -0.8125 2.609375 -0.8125l4.578125 0zm-1.671875 1.390625l-2.375 0q-1.484375 0 -1.921875 0.46875q-0.4375 0.453125 -0.4375 1.078125q0 0.875 0.640625 1.296875q0.640625 0.40625 2.25 0.40625l1.84375 0l0 -3.25z" fill-rule="nonzero"></path><path fill="#000000" d="m234.29904 74.21339l1.671875 0l0 4.703125q0.515625 -0.59375 1.140625 -0.890625q0.625 -0.296875 1.34375 -0.296875q1.75 0 2.765625 1.46875q1.03125 1.453125 1.03125 3.671875q0 2.3125 -1.109375 3.734375q-1.09375 1.421875 -2.734375 1.421875q-0.546875 0 -1.109375 -0.171875q-0.546875 -0.15625 -1.328125 -0.90625l0 4.640625l-1.671875 0l0 -4.640625q-0.5 0.546875 -1.109375 0.8125q-0.609375 0.265625 -1.3125 0.265625q-1.546875 0 -2.703125 -1.359375q-1.15625 -1.359375 -1.15625 -3.890625q0 -2.140625 1.046875 -3.59375q1.046875 -1.453125 2.8125 -1.453125q0.75 0 1.34375 0.296875q0.609375 0.296875 1.078125 0.890625l0 -4.703125zm1.65625 8.703125q0 2.234375 0.609375 3.0q0.625 0.765625 1.546875 0.765625q1.015625 0 1.734375 -0.9375q0.71875 -0.953125 0.71875 -2.9375q0 -1.875 -0.671875 -2.796875q-0.65625 -0.921875 -1.703125 -0.921875q-1.109375 0 -1.671875 0.96875q-0.5625 0.953125 -0.5625 2.859375zm-6.25 -0.1875q0 2.09375 0.703125 3.015625q0.703125 0.90625 1.734375 0.90625q1.09375 0 1.625 -0.90625q0.546875 -0.921875 0.546875 -2.75q0 -1.9375 -0.578125 -2.90625q-0.5625 -0.984375 -1.703125 -0.984375q-1.03125 0 -1.6875 0.953125q-0.640625 0.953125 -0.640625 2.671875zm13.583878 0.15625q0 -2.734375 1.53125 -4.0625q1.265625 -1.09375 3.09375 -1.09375q2.03125 0 3.3125 1.34375q1.296875 1.328125 1.296875 3.671875q0 1.90625 -0.578125 3.0q-0.5625 1.078125 -1.65625 1.6875q-1.078125 0.59375 -2.375 0.59375q-2.0625 0 -3.34375 -1.328125q-1.28125 -1.328125 -1.28125 -3.8125zm1.71875 0q0 1.890625 0.828125 2.828125q0.828125 0.9375 2.078125 0.9375q1.25 0 2.0625 -0.9375q0.828125 -0.953125 0.828125 -2.890625q0 -1.828125 -0.828125 -2.765625q-0.828125 -0.9375 -2.0625 -0.9375q-1.25 0 -2.078125 0.9375q-0.828125 0.9375 -0.828125 2.828125zm9.281967 8.703125l0 -13.640625l1.53125 0l0 1.28125q0.53125 -0.75 1.203125 -1.125q0.6875 -0.375 1.640625 -0.375q1.265625 0 2.234375 0.65625q0.96875 0.640625 1.453125 1.828125q0.5 1.1875 0.5 2.59375q0 1.515625 -0.546875 2.734375q-0.546875 1.203125 -1.578125 1.84375q-1.03125 0.640625 -2.171875 0.640625q-0.84375 0 -1.515625 -0.34375q-0.65625 -0.359375 -1.078125 -0.890625l0 4.796875l-1.671875 0zm1.515625 -8.65625q0 1.90625 0.765625 2.8125q0.78125 0.90625 1.875 0.90625q1.109375 0 1.890625 -0.9375q0.796875 -0.9375 0.796875 -2.921875q0 -1.875 -0.78125 -2.8125q-0.765625 -0.9375 -1.84375 -0.9375q-1.0625 0 -1.890625 1.0q-0.8125 1.0 -0.8125 2.890625zm8.906952 -4.984375l2.59375 0l2.59375 7.890625l2.875 -7.890625l2.40625 0l0 9.859375l-1.671875 0l0 -7.9375l-2.90625 7.9375l-1.5 0l-2.75 -8.3125l0 8.3125l-1.640625 0l0 -9.859375zm12.779297 0l1.671875 0l0 7.515625l4.625 -7.515625l1.8125 0l0 9.859375l-1.671875 0l0 -7.46875l-4.640625 7.46875l-1.796875 0l0 -9.859375zm10.421265 13.640625l0 -13.640625l1.53125 0l0 1.28125q0.53125 -0.75 1.203125 -1.125q0.6875 -0.375 1.640625 -0.375q1.265625 0 2.234375 0.65625q0.96875 0.640625 1.453125 1.828125q0.5 1.1875 0.5 2.59375q0 1.515625 -0.546875 2.734375q-0.546875 1.203125 -1.578125 1.84375q-1.03125 0.640625 -2.171875 0.640625q-0.84375 0 -1.515625 -0.34375q-0.65625 -0.359375 -1.078125 -0.890625l0 4.796875l-1.671875 0zm1.515625 -8.65625q0 1.90625 0.765625 2.8125q0.78125 0.90625 1.875 0.90625q1.109375 0 1.890625 -0.9375q0.796875 -0.9375 0.796875 -2.921875q0 -1.875 -0.78125 -2.8125q-0.765625 -0.9375 -1.84375 -0.9375q-1.0625 0 -1.890625 1.0q-0.8125 1.0 -0.8125 2.890625zm8.235107 -0.046875q0 -2.734375 1.53125 -4.0625q1.265625 -1.09375 3.09375 -1.09375q2.03125 0 3.3125 1.34375q1.296875 1.328125 1.296875 3.671875q0 1.90625 -0.578125 3.0q-0.5625 1.078125 -1.65625 1.6875q-1.078125 0.59375 -2.375 0.59375q-2.0625 0 -3.34375 -1.328125q-1.28125 -1.328125 -1.28125 -3.8125zm1.71875 0q0 1.890625 0.828125 2.828125q0.828125 0.9375 2.078125 0.9375q1.25 0 2.0625 -0.9375q0.828125 -0.953125 0.828125 -2.890625q0 -1.828125 -0.828125 -2.765625q-0.828125 -0.9375 -2.0625 -0.9375q-1.25 0 -2.078125 0.9375q-0.828125 0.9375 -0.828125 2.828125zm9.297577 -4.9375l3.84375 0q1.421875 0 2.109375 0.25q0.6875 0.234375 1.1875 0.859375q0.5 0.625 0.5 1.515625q0 0.703125 -0.296875 1.234375q-0.28125 0.515625 -0.875 0.875q0.703125 0.21875 1.15625 0.859375q0.46875 0.640625 0.46875 1.515625q-0.09375 1.390625 -1.015625 2.078125q-0.90625 0.671875 -2.640625 0.671875l-4.4375 0l0 -9.859375zm1.671875 4.15625l1.78125 0q1.0625 0 1.453125 -0.109375q0.40625 -0.109375 0.71875 -0.453125q0.3125 -0.34375 0.3125 -0.8125q0 -0.78125 -0.546875 -1.078125q-0.546875 -0.3125 -1.890625 -0.3125l-1.828125 0l0 2.765625zm0 4.328125l2.1875 0q1.421875 0 1.953125 -0.328125q0.53125 -0.328125 0.5625 -1.140625q0 -0.46875 -0.3125 -0.875q-0.3125 -0.40625 -0.796875 -0.5q-0.484375 -0.109375 -1.578125 -0.109375l-2.015625 0l0 2.953125zm14.661133 0.15625q-0.9375 0.796875 -1.796875 1.125q-0.859375 0.3125 -1.84375 0.3125q-1.609375 0 -2.484375 -0.78125q-0.875 -0.796875 -0.875 -2.03125q0 -0.734375 0.328125 -1.328125q0.328125 -0.59375 0.859375 -0.953125q0.53125 -0.359375 1.203125 -0.546875q0.5 -0.140625 1.484375 -0.25q2.03125 -0.25 2.984375 -0.578125q0 -0.34375 0 -0.4375q0 -1.015625 -0.46875 -1.4375q-0.640625 -0.5625 -1.90625 -0.5625q-1.171875 0 -1.734375 0.40625q-0.5625 0.40625 -0.828125 1.46875l-1.640625 -0.234375q0.234375 -1.046875 0.734375 -1.6875q0.515625 -0.640625 1.46875 -0.984375q0.96875 -0.359375 2.25 -0.359375q1.265625 0 2.046875 0.296875q0.78125 0.296875 1.15625 0.75q0.375 0.453125 0.515625 1.140625q0.09375 0.421875 0.09375 1.53125l0 2.234375q0 2.328125 0.09375 2.953125q0.109375 0.609375 0.4375 1.171875l-1.75 0q-0.265625 -0.515625 -0.328125 -1.21875zm-0.140625 -3.71875q-0.90625 0.359375 -2.734375 0.625q-1.03125 0.140625 -1.453125 0.328125q-0.421875 0.1875 -0.65625 0.546875q-0.234375 0.359375 -0.234375 0.796875q0 0.671875 0.5 1.125q0.515625 0.4375 1.484375 0.4375q0.96875 0 1.71875 -0.421875q0.75 -0.4375 1.109375 -1.15625q0.265625 -0.578125 0.265625 -1.671875l0 -0.609375zm4.0944824 -4.921875l1.671875 0l0 4.109375l4.625 0l0 -4.109375l1.671875 0l0 9.859375l-1.671875 0l0 -4.375l-4.625 0l0 4.375l-1.671875 0l0 -9.859375zm10.287201 0l1.671875 0l0 7.515625l4.625 -7.515625l1.8125 0l0 9.859375l-1.671875 0l0 -7.46875l-4.640625 7.46875l-1.796875 0l0 -9.859375zm18.18689 0l0 9.859375l-1.671875 0l0 -3.84375l-0.953125 0q-0.890625 0 -1.328125 0.234375q-0.421875 0.21875 -1.25 1.453125l-1.453125 2.15625l-2.078125 0l1.8125 -2.65625q0.8125 -1.21875 1.640625 -1.375q-1.4375 -0.1875 -2.125 -1.015625q-0.6875 -0.84375 -0.6875 -1.9375q0 -1.265625 0.90625 -2.0625q0.90625 -0.8125 2.609375 -0.8125l4.578125 0zm-1.671875 1.390625l-2.375 0q-1.484375 0 -1.921875 0.46875q-0.4375 0.453125 -0.4375 1.078125q0 0.875 0.640625 1.296875q0.640625 0.40625 2.25 0.40625l1.84375 0l0 -3.25z" fill-rule="nonzero"></path><path fill="#000000" d="m254.53293 106.19776l1.640625 0.21875q-0.265625 1.6875 -1.375 2.65625q-1.109375 0.953125 -2.734375 0.953125q-2.015625 0 -3.25 -1.3125q-1.21875 -1.328125 -1.21875 -3.796875q0 -1.59375 0.515625 -2.78125q0.53125 -1.203125 1.609375 -1.796875q1.09375 -0.609375 2.359375 -0.609375q1.609375 0 2.625 0.8125q1.015625 0.8125 1.3125 2.3125l-1.625 0.25q-0.234375 -1.0 -0.828125 -1.5q-0.59375 -0.5 -1.421875 -0.5q-1.265625 0 -2.0625 0.90625q-0.78125 0.90625 -0.78125 2.859375q0 1.984375 0.765625 2.890625q0.765625 0.890625 1.984375 0.890625q0.984375 0 1.640625 -0.59375q0.65625 -0.609375 0.84375 -1.859375zm2.921875 -6.25l1.671875 0l0 8.484375l4.625 0l0 -8.484375l1.65625 0l0 8.484375l1.078125 0l0 4.171875l-1.375 0l0 -2.796875l-7.65625 0l0 -9.859375zm17.404175 6.6875l1.71875 0.21875q-0.40625 1.5 -1.515625 2.34375q-1.09375 0.828125 -2.8125 0.828125q-2.15625 0 -3.421875 -1.328125q-1.265625 -1.328125 -1.265625 -3.734375q0 -2.484375 1.265625 -3.859375q1.28125 -1.375 3.328125 -1.375q1.984375 0 3.234375 1.34375q1.25 1.34375 1.25 3.796875q0 0.140625 -0.015625 0.4375l-7.34375 0q0.09375 1.625 0.921875 2.484375q0.828125 0.859375 2.0625 0.859375q0.90625 0 1.546875 -0.46875q0.65625 -0.484375 1.046875 -1.546875zm-5.484375 -2.703125l5.5 0q-0.109375 -1.234375 -0.625 -1.859375q-0.796875 -0.96875 -2.078125 -0.96875q-1.140625 0 -1.9375 0.78125q-0.78125 0.765625 -0.859375 2.046875zm9.125732 -3.984375l1.671875 0l0 4.109375l4.625 0l0 -4.109375l1.671875 0l0 9.859375l-1.671875 0l0 -4.375l-4.625 0l0 4.375l-1.671875 0l0 -9.859375zm16.7247 8.640625q-0.9375 0.796875 -1.796875 1.125q-0.859375 0.3125 -1.84375 0.3125q-1.609375 0 -2.484375 -0.78125q-0.875 -0.796875 -0.875 -2.03125q0 -0.734375 0.328125 -1.328125q0.328125 -0.59375 0.859375 -0.953125q0.53125 -0.359375 1.203125 -0.546875q0.5 -0.140625 1.484375 -0.25q2.03125 -0.25 2.984375 -0.578125q0 -0.34375 0 -0.4375q0 -1.015625 -0.46875 -1.4375q-0.640625 -0.5625 -1.90625 -0.5625q-1.171875 0 -1.734375 0.40625q-0.5625 0.40625 -0.828125 1.46875l-1.640625 -0.234375q0.234375 -1.046875 0.734375 -1.6875q0.515625 -0.640625 1.46875 -0.984375q0.96875 -0.359375 2.25 -0.359375q1.265625 0 2.046875 0.296875q0.78125 0.296875 1.15625 0.75q0.375 0.453125 0.515625 1.140625q0.09375 0.421875 0.09375 1.53125l0 2.234375q0 2.328125 0.09375 2.953125q0.109375 0.609375 0.4375 1.171875l-1.75 0q-0.265625 -0.515625 -0.328125 -1.21875zm-0.140625 -3.71875q-0.90625 0.359375 -2.734375 0.625q-1.03125 0.140625 -1.453125 0.328125q-0.421875 0.1875 -0.65625 0.546875q-0.234375 0.359375 -0.234375 0.796875q0 0.671875 0.5 1.125q0.515625 0.4375 1.484375 0.4375q0.96875 0 1.71875 -0.421875q0.75 -0.4375 1.109375 -1.15625q0.265625 -0.578125 0.265625 -1.671875l0 -0.609375zm4.0788574 8.71875l0 -13.640625l1.53125 0l0 1.28125q0.53125 -0.75 1.203125 -1.125q0.6875 -0.375 1.640625 -0.375q1.265625 0 2.234375 0.65625q0.96875 0.640625 1.453125 1.828125q0.5 1.1875 0.5 2.59375q0 1.515625 -0.546875 2.734375q-0.546875 1.203125 -1.578125 1.84375q-1.03125 0.640625 -2.171875 0.640625q-0.84375 0 -1.515625 -0.34375q-0.65625 -0.359375 -1.078125 -0.890625l0 4.796875l-1.671875 0zm1.515625 -8.65625q0 1.90625 0.765625 2.8125q0.78125 0.90625 1.875 0.90625q1.109375 0 1.890625 -0.9375q0.796875 -0.9375 0.796875 -2.921875q0 -1.875 -0.78125 -2.8125q-0.765625 -0.9375 -1.84375 -0.9375q-1.0625 0 -1.890625 1.0q-0.8125 1.0 -0.8125 2.890625zm8.860077 -4.984375l1.671875 0l0 7.515625l4.625 -7.515625l1.8125 0l0 9.859375l-1.671875 0l0 -7.46875l-4.640625 7.46875l-1.796875 0l0 -9.859375zm17.171265 6.6875l1.71875 0.21875q-0.40625 1.5 -1.515625 2.34375q-1.09375 0.828125 -2.8125 0.828125q-2.15625 0 -3.421875 -1.328125q-1.265625 -1.328125 -1.265625 -3.734375q0 -2.484375 1.265625 -3.859375q1.28125 -1.375 3.328125 -1.375q1.984375 0 3.234375 1.34375q1.25 1.34375 1.25 3.796875q0 0.140625 -0.015625 0.4375l-7.34375 0q0.09375 1.625 0.921875 2.484375q0.828125 0.859375 2.0625 0.859375q0.90625 0 1.546875 -0.46875q0.65625 -0.484375 1.046875 -1.546875zm-5.484375 -2.703125l5.5 0q-0.109375 -1.234375 -0.625 -1.859375q-0.796875 -0.96875 -2.078125 -0.96875q-1.140625 0 -1.9375 0.78125q-0.78125 0.765625 -0.859375 2.046875zm9.125732 -3.984375l3.84375 0q1.421875 0 2.109375 0.25q0.6875 0.234375 1.1875 0.859375q0.5 0.625 0.5 1.515625q0 0.703125 -0.296875 1.234375q-0.28125 0.515625 -0.875 0.875q0.703125 0.21875 1.15625 0.859375q0.46875 0.640625 0.46875 1.515625q-0.09375 1.390625 -1.015625 2.078125q-0.90625 0.671875 -2.640625 0.671875l-4.4375 0l0 -9.859375zm1.671875 4.15625l1.78125 0q1.0625 0 1.453125 -0.109375q0.40625 -0.109375 0.71875 -0.453125q0.3125 -0.34375 0.3125 -0.8125q0 -0.78125 -0.546875 -1.078125q-0.546875 -0.3125 -1.890625 -0.3125l-1.828125 0l0 2.765625zm0 4.328125l2.1875 0q1.421875 0 1.953125 -0.328125q0.53125 -0.328125 0.5625 -1.140625q0 -0.46875 -0.3125 -0.875q-0.3125 -0.40625 -0.796875 -0.5q-0.484375 -0.109375 -1.578125 -0.109375l-2.015625 0l0 2.953125z" fill-rule="nonzero"></path><path fill="#cfe2f3" d="m572.44006 96.10761l0 0c0 -6.740486 5.4642334 -12.204727 12.204712 -12.204727l113.22839 0c3.2368774 0 6.3411865 1.2858505 8.630005 3.5746841c2.2888184 2.288826 3.574707 5.3931503 3.574707 8.630043l0 48.8189c0 6.7404785 -5.4642334 12.204727 -12.204712 12.204727l-113.22839 0c-6.7404785 0 -12.204712 -5.4642487 -12.204712 -12.204727z" fill-rule="nonzero"></path><path stroke="#000000" stroke-width="2.0" stroke-linejoin="round" stroke-linecap="butt" d="m572.44006 96.10761l0 0c0 -6.740486 5.4642334 -12.204727 12.204712 -12.204727l113.22839 0c3.2368774 0 6.3411865 1.2858505 8.630005 3.5746841c2.2888184 2.288826 3.574707 5.3931503 3.574707 8.630043l0 48.8189c0 6.7404785 -5.4642334 12.204727 -12.204712 12.204727l-113.22839 0c-6.7404785 0 -12.204712 -5.4642487 -12.204712 -12.204727z" fill-rule="nonzero"></path><path fill="#000000" d="m609.2154 111.67143l1.796875 0.453125q-0.5625 2.21875 -2.03125 3.390625q-1.46875 1.15625 -3.59375 1.15625q-2.203125 0 -3.578125 -0.890625q-1.375 -0.90625 -2.09375 -2.59375q-0.71875 -1.703125 -0.71875 -3.65625q0 -2.125 0.796875 -3.703125q0.8125 -1.578125 2.3125 -2.390625q1.5 -0.828125 3.296875 -0.828125q2.046875 0 3.4375 1.046875q1.390625 1.03125 1.9375 2.90625l-1.765625 0.421875q-0.46875 -1.484375 -1.375 -2.15625q-0.90625 -0.6875 -2.265625 -0.6875q-1.5625 0 -2.625 0.75q-1.046875 0.75 -1.484375 2.03125q-0.421875 1.265625 -0.421875 2.609375q0 1.734375 0.5 3.03125q0.515625 1.28125 1.578125 1.921875q1.078125 0.640625 2.3125 0.640625q1.515625 0 2.5625 -0.859375q1.046875 -0.875 1.421875 -2.59375zm3.5823364 -5.09375l1.671875 0l0 8.484375l4.625 0l0 -8.484375l1.65625 0l0 8.484375l1.078125 0l0 4.171875l-1.375 0l0 -2.796875l-7.65625 0l0 -9.859375zm17.404175 6.6875l1.71875 0.21875q-0.40625 1.5 -1.515625 2.34375q-1.09375 0.828125 -2.8125 0.828125q-2.15625 0 -3.421875 -1.328125q-1.265625 -1.328125 -1.265625 -3.734375q0 -2.484375 1.265625 -3.859375q1.28125 -1.375 3.328125 -1.375q1.984375 0 3.234375 1.34375q1.25 1.34375 1.25 3.796875q0 0.140625 -0.015625 0.4375l-7.34375 0q0.09375 1.625 0.921875 2.484375q0.828125 0.859375 2.0625 0.859375q0.90625 0 1.546875 -0.46875q0.65625 -0.484375 1.046875 -1.546875zm-5.484375 -2.703125l5.5 0q-0.109375 -1.234375 -0.625 -1.859375q-0.796875 -0.96875 -2.078125 -0.96875q-1.140625 0 -1.9375 0.78125q-0.78125 0.765625 -0.859375 2.046875zm9.125732 -3.984375l1.671875 0l0 4.109375l4.625 0l0 -4.109375l1.671875 0l0 9.859375l-1.671875 0l0 -4.375l-4.625 0l0 4.375l-1.671875 0l0 -9.859375zm16.72467 8.640625q-0.9375 0.796875 -1.796875 1.125q-0.859375 0.3125 -1.84375 0.3125q-1.609375 0 -2.484375 -0.78125q-0.875 -0.796875 -0.875 -2.03125q0 -0.734375 0.328125 -1.328125q0.328125 -0.59375 0.859375 -0.953125q0.53125 -0.359375 1.203125 -0.546875q0.5 -0.140625 1.484375 -0.25q2.03125 -0.25 2.984375 -0.578125q0 -0.34375 0 -0.4375q0 -1.015625 -0.46875 -1.4375q-0.640625 -0.5625 -1.90625 -0.5625q-1.171875 0 -1.734375 0.40625q-0.5625 0.40625 -0.828125 1.46875l-1.640625 -0.234375q0.234375 -1.046875 0.734375 -1.6875q0.515625 -0.640625 1.46875 -0.984375q0.96875 -0.359375 2.25 -0.359375q1.265625 0 2.046875 0.296875q0.78125 0.296875 1.15625 0.75q0.375 0.453125 0.515625 1.140625q0.09375 0.421875 0.09375 1.53125l0 2.234375q0 2.328125 0.09375 2.953125q0.109375 0.609375 0.4375 1.171875l-1.75 0q-0.265625 -0.515625 -0.328125 -1.21875zm-0.140625 -3.71875q-0.90625 0.359375 -2.734375 0.625q-1.03125 0.140625 -1.453125 0.328125q-0.421875 0.1875 -0.65625 0.546875q-0.234375 0.359375 -0.234375 0.796875q0 0.671875 0.5 1.125q0.515625 0.4375 1.484375 0.4375q0.96875 0 1.71875 -0.421875q0.75 -0.4375 1.109375 -1.15625q0.265625 -0.578125 0.265625 -1.671875l0 -0.609375zm4.0788574 8.71875l0 -13.640625l1.53125 0l0 1.28125q0.53125 -0.75 1.203125 -1.125q0.6875 -0.375 1.640625 -0.375q1.265625 0 2.234375 0.65625q0.96875 0.640625 1.453125 1.828125q0.5 1.1875 0.5 2.59375q0 1.515625 -0.546875 2.734375q-0.546875 1.203125 -1.578125 1.84375q-1.03125 0.640625 -2.171875 0.640625q-0.84375 0 -1.515625 -0.34375q-0.65625 -0.359375 -1.078125 -0.890625l0 4.796875l-1.671875 0zm1.515625 -8.65625q0 1.90625 0.765625 2.8125q0.78125 0.90625 1.875 0.90625q1.109375 0 1.890625 -0.9375q0.796875 -0.9375 0.796875 -2.921875q0 -1.875 -0.78125 -2.8125q-0.765625 -0.9375 -1.84375 -0.9375q-1.0625 0 -1.890625 1.0q-0.8125 1.0 -0.8125 2.890625zm8.860107 -4.984375l1.671875 0l0 7.515625l4.625 -7.515625l1.8125 0l0 9.859375l-1.671875 0l0 -7.46875l-4.640625 7.46875l-1.796875 0l0 -9.859375zm10.421265 0l1.671875 0l0 7.515625l4.625 -7.515625l1.8125 0l0 9.859375l-1.671875 0l0 -7.46875l-4.640625 7.46875l-1.796875 0l0 -9.859375z" fill-rule="nonzero"></path><path fill="#000000" d="m610.62573 142.2183l0 -13.640625l1.53125 0l0 1.28125q0.53125 -0.75 1.203125 -1.125q0.6875 -0.375 1.640625 -0.375q1.265625 0 2.234375 0.65625q0.96875 0.640625 1.453125 1.828125q0.5 1.1875 0.5 2.59375q0 1.515625 -0.546875 2.734375q-0.546875 1.203125 -1.578125 1.84375q-1.03125 0.640625 -2.171875 0.640625q-0.84375 0 -1.515625 -0.34375q-0.65625 -0.359375 -1.078125 -0.890625l0 4.796875l-1.671875 0zm1.515625 -8.65625q0 1.90625 0.765625 2.8125q0.78125 0.90625 1.875 0.90625q1.109375 0 1.890625 -0.9375q0.796875 -0.9375 0.796875 -2.921875q0 -1.875 -0.78125 -2.8125q-0.765625 -0.9375 -1.84375 -0.9375q-1.0625 0 -1.890625 1.0q-0.8125 1.0 -0.8125 2.890625zm15.297607 3.65625q-0.9375 0.796875 -1.796875 1.125q-0.859375 0.3125 -1.84375 0.3125q-1.609375 0 -2.484375 -0.78125q-0.875 -0.796875 -0.875 -2.03125q0 -0.734375 0.328125 -1.328125q0.328125 -0.59375 0.859375 -0.953125q0.53125 -0.359375 1.203125 -0.546875q0.5 -0.140625 1.484375 -0.25q2.03125 -0.25 2.984375 -0.578125q0 -0.34375 0 -0.4375q0 -1.015625 -0.46875 -1.4375q-0.640625 -0.5625 -1.90625 -0.5625q-1.171875 0 -1.734375 0.40625q-0.5625 0.40625 -0.828125 1.46875l-1.640625 -0.234375q0.234375 -1.046875 0.734375 -1.6875q0.515625 -0.640625 1.46875 -0.984375q0.96875 -0.359375 2.25 -0.359375q1.265625 0 2.046875 0.296875q0.78125 0.296875 1.15625 0.75q0.375 0.453125 0.515625 1.140625q0.09375 0.421875 0.09375 1.53125l0 2.234375q0 2.328125 0.09375 2.953125q0.109375 0.609375 0.4375 1.171875l-1.75 0q-0.265625 -0.515625 -0.328125 -1.21875zm-0.140625 -3.71875q-0.90625 0.359375 -2.734375 0.625q-1.03125 0.140625 -1.453125 0.328125q-0.421875 0.1875 -0.65625 0.546875q-0.234375 0.359375 -0.234375 0.796875q0 0.671875 0.5 1.125q0.515625 0.4375 1.484375 0.4375q0.96875 0 1.71875 -0.421875q0.75 -0.4375 1.109375 -1.15625q0.265625 -0.578125 0.265625 -1.671875l0 -0.609375zm11.297546 -8.984375l1.484375 0.015625q-0.109375 0.984375 -0.453125 1.375q-0.328125 0.390625 -0.875 0.515625q-0.53125 0.109375 -2.078125 0.109375q-2.078125 0 -2.828125 0.40625q-0.75 0.390625 -1.078125 1.265625q-0.328125 0.875 -0.375 2.25q0.640625 -0.9375 1.484375 -1.40625q0.84375 -0.46875 1.90625 -0.46875q1.9375 0 3.203125 1.34375q1.265625 1.328125 1.265625 3.59375q0 1.734375 -0.640625 2.84375q-0.640625 1.09375 -1.515625 1.703125q-0.875 0.59375 -2.390625 0.59375q-1.75 0 -2.71875 -0.796875q-0.96875 -0.796875 -1.5 -2.046875q-0.515625 -1.265625 -0.515625 -4.375q0 -3.90625 1.3125 -5.25q1.328125 -1.359375 4.078125 -1.359375q1.703125 0 1.9375 -0.046875q0.234375 -0.0625 0.296875 -0.265625zm-0.078125 8.953125q0 -1.53125 -0.734375 -2.515625q-0.71875 -0.984375 -2.046875 -0.984375q-1.390625 0 -2.140625 1.046875q-0.75 1.03125 -0.75 2.765625q0 1.71875 0.828125 2.625q0.828125 0.90625 2.046875 0.90625q1.25 0 2.015625 -1.046875q0.78125 -1.0625 0.78125 -2.796875zm2.9198608 0.046875q0 -2.734375 1.53125 -4.0625q1.265625 -1.09375 3.09375 -1.09375q2.03125 0 3.3125 1.34375q1.296875 1.328125 1.296875 3.671875q0 1.90625 -0.578125 3.0q-0.5625 1.078125 -1.65625 1.6875q-1.078125 0.59375 -2.375 0.59375q-2.0625 0 -3.34375 -1.328125q-1.28125 -1.328125 -1.28125 -3.8125zm1.71875 0q0 1.890625 0.828125 2.828125q0.828125 0.9375 2.078125 0.9375q1.25 0 2.0625 -0.9375q0.828125 -0.953125 0.828125 -2.890625q0 -1.828125 -0.828125 -2.765625q-0.828125 -0.9375 -2.0625 -0.9375q-1.25 0 -2.078125 0.9375q-0.828125 0.9375 -0.828125 2.828125zm8.391296 -4.9375l8.0 0l0 1.390625l-3.171875 0l0 8.46875l-1.65625 0l0 -8.46875l-3.171875 0l0 -1.390625zm18.810364 0l1.671875 0l0 9.859375l-1.671875 0l0 -9.859375zm-9.328125 0l1.65625 0l0 3.859375l2.125 0q2.0625 0 3.171875 0.8125q1.125 0.796875 1.125 2.203125q0 1.234375 -0.9375 2.109375q-0.921875 0.875 -2.96875 0.875l-4.171875 0l0 -9.859375zm1.65625 8.484375l1.765625 0q1.578125 0 2.25 -0.390625q0.6875 -0.390625 0.6875 -1.21875q0 -0.640625 -0.5 -1.140625q-0.5 -0.5 -2.21875 -0.5l-1.984375 0l0 3.25z" fill-rule="nonzero"></path><path fill="#cfe2f3" d="m980.05994 94.073494l0 0c0 -6.740486 5.4642334 -12.204727 12.204712 -12.204727l113.22839 0c3.2368164 0 6.3411865 1.2858505 8.630005 3.5746841c2.2888184 2.288826 3.574707 5.3931427 3.574707 8.630043l0 48.8189c0 6.7404785 -5.4642334 12.204712 -12.204712 12.204712l-113.22839 0c-6.7404785 0 -12.204712 -5.4642334 -12.204712 -12.204712z" fill-rule="nonzero"></path><path stroke="#000000" stroke-width="2.0" stroke-linejoin="round" stroke-linecap="butt" d="m980.05994 94.073494l0 0c0 -6.740486 5.4642334 -12.204727 12.204712 -12.204727l113.22839 0c3.2368164 0 6.3411865 1.2858505 8.630005 3.5746841c2.2888184 2.288826 3.574707 5.3931427 3.574707 8.630043l0 48.8189c0 6.7404785 -5.4642334 12.204712 -12.204712 12.204712l-113.22839 0c-6.7404785 0 -12.204712 -5.4642334 -12.204712 -12.204712z" fill-rule="nonzero"></path><path fill="#000000" d="m1033.1171 111.80919l8.265625 0l0 11.984375l1.234375 0l0 4.78125l-1.609375 0l0 -3.171875l-8.984375 0l0 3.171875l-1.609375 0l0 -4.78125l1.0625 0q1.640625 -2.46875 1.640625 -10.0l0 -1.984375zm6.46875 1.59375l-4.734375 0l0 0.703125q0 1.734375 -0.3125 4.75q-0.3125 3.0 -1.21875 4.9375l6.265625 0l0 -10.390625zm3.5566406 -1.59375l1.8125 0l4.4375 8.328125l3.875 -8.328125l1.796875 0l-5.109375 10.5625q-0.953125 1.984375 -1.5625 2.609375q-0.609375 0.609375 -1.75 0.609375q-0.703125 0 -1.703125 -0.328125l0 -1.53125q0.71875 0.40625 1.53125 0.40625q0.65625 0 1.125 -0.421875q0.484375 -0.421875 1.0625 -1.921875l-5.515625 -9.984375zm13.1484375 13.59375l0 -13.59375l5.109375 0q1.546875 0 2.484375 0.40625q0.953125 0.40625 1.484375 1.265625q0.53125 0.859375 0.53125 1.796875q0 0.875 -0.46875 1.65625q-0.46875 0.765625 -1.4375 1.234375q1.234375 0.359375 1.890625 1.234375q0.671875 0.875 0.671875 2.0625q0 0.953125 -0.40625 1.78125q-0.390625 0.8125 -0.984375 1.265625q-0.59375 0.4375 -1.5 0.671875q-0.890625 0.21875 -2.1875 0.21875l-5.1875 0zm1.796875 -7.890625l2.9375 0q1.203125 0 1.71875 -0.15625q0.6875 -0.203125 1.03125 -0.671875q0.359375 -0.46875 0.359375 -1.1875q0 -0.671875 -0.328125 -1.1875q-0.328125 -0.515625 -0.9375 -0.703125q-0.59375 -0.203125 -2.0625 -0.203125l-2.71875 0l0 4.109375zm0 6.28125l3.390625 0q0.875 0 1.21875 -0.0625q0.625 -0.109375 1.046875 -0.359375q0.421875 -0.265625 0.6875 -0.765625q0.265625 -0.5 0.265625 -1.140625q0 -0.765625 -0.390625 -1.328125q-0.390625 -0.5625 -1.078125 -0.78125q-0.6875 -0.234375 -1.984375 -0.234375l-3.15625 0l0 4.671875z" fill-rule="nonzero"></path><path fill="#cfe2f3" d="m10.043385 141.70604l0 0c0 -6.7404785 5.464241 -12.204727 12.204725 -12.204727l113.22835 0c3.2368927 0 6.341217 1.2858582 8.630051 3.5746765c2.2888184 2.2888336 3.5746765 5.393158 3.5746765 8.630051l0 48.818893c0 6.7404785 -5.4642487 12.204727 -12.204727 12.204727l-113.22835 0c-6.740484 0 -12.204725 -5.4642487 -12.204725 -12.204727z" fill-rule="nonzero"></path><path stroke="#000000" stroke-width="2.0" stroke-linejoin="round" stroke-linecap="butt" d="m10.043385 141.70604l0 0c0 -6.7404785 5.464241 -12.204727 12.204725 -12.204727l113.22835 0c3.2368927 0 6.341217 1.2858582 8.630051 3.5746765c2.2888184 2.2888336 3.5746765 5.393158 3.5746765 8.630051l0 48.818893c0 6.7404785 -5.4642487 12.204727 -12.204727 12.204727l-113.22835 0c-6.740484 0 -12.204725 -5.4642487 -12.204725 -12.204727z" fill-rule="nonzero"></path><path fill="#000000" d="m49.525787 165.20735l0 1.609375l5.0625 0q-0.109375 2.296875 -1.28125 3.625q-1.15625 1.3125 -2.984375 1.3125q-3.25 0 -4.078125 -3.453125l-1.734375 0.453125q1.171875 4.515625 5.671875 4.515625q3.21875 0 4.796875 -2.078125q1.578125 -2.078125 1.46875 -5.109375q0 -1.84375 -0.703125 -3.375q-0.703125 -1.53125 -2.15625 -2.515625q-1.4375 -0.984375 -3.4375 -0.984375q-2.109375 0 -3.546875 1.046875q-1.421875 1.046875 -1.921875 2.90625l1.765625 0.46875q0.765625 -2.84375 3.71875 -2.84375q1.984375 0 3.109375 1.203125q1.125 1.1875 1.234375 3.21875l-4.984375 0zm8.84668 -2.03125l1.65625 0l0 4.265625q0.8125 0 1.125 -0.296875q0.3125 -0.3125 0.9375 -1.796875q0.5 -1.15625 0.796875 -1.53125q0.3125 -0.375 0.703125 -0.5q0.40625 -0.140625 1.28125 -0.140625l0.34375 0l0 1.390625l-0.46875 -0.015625q-0.65625 0 -0.84375 0.203125q-0.1875 0.203125 -0.59375 1.21875q-0.375 0.953125 -0.703125 1.328125q-0.3125 0.375 -0.96875 0.671875q1.078125 0.296875 2.125 2.015625l1.828125 3.046875l-1.84375 0l-1.78125 -3.046875q-0.546875 -0.921875 -0.953125 -1.21875q-0.40625 -0.296875 -0.984375 -0.296875l0 4.5625l-1.65625 0l0 -9.859375zm14.599609 6.25l1.640625 0.21875q-0.265625 1.6875 -1.375 2.65625q-1.109375 0.953125 -2.734375 0.953125q-2.015625 0 -3.25 -1.3125q-1.21875 -1.328125 -1.21875 -3.796875q0 -1.59375 0.515625 -2.78125q0.53125 -1.203125 1.609375 -1.796875q1.09375 -0.609375 2.359375 -0.609375q1.609375 0 2.625 0.8125q1.015625 0.8125 1.3125 2.3125l-1.625 0.25q-0.234375 -1.0 -0.828125 -1.5q-0.59375 -0.5 -1.421875 -0.5q-1.265625 0 -2.0625 0.90625q-0.78125 0.90625 -0.78125 2.859375q0 1.984375 0.765625 2.890625q0.765625 0.890625 1.984375 0.890625q0.984375 0 1.640625 -0.59375q0.65625 -0.609375 0.84375 -1.859375zm2.90625 -6.25l7.765625 0l0 9.859375l-1.671875 0l0 -8.46875l-4.421875 0l0 8.46875l-1.671875 0l0 -9.859375zm16.836807 6.6875l1.71875 0.21875q-0.40625 1.5 -1.515625 2.34375q-1.09375 0.828125 -2.8125 0.828125q-2.15625 0 -3.421875 -1.328125q-1.265625 -1.328125 -1.265625 -3.734375q0 -2.484375 1.265625 -3.859375q1.28125 -1.375 3.328125 -1.375q1.984375 0 3.234375 1.34375q1.25 1.34375 1.25 3.796875q0 0.140625 -0.015625 0.4375l-7.34375 0q0.09375 1.625 0.921875 2.484375q0.828125 0.859375 2.0625 0.859375q0.90625 0 1.546875 -0.46875q0.65625 -0.484375 1.046875 -1.546875zm-5.484375 -2.703125l5.5 0q-0.109375 -1.234375 -0.625 -1.859375q-0.796875 -0.96875 -2.078125 -0.96875q-1.140625 0 -1.9375 0.78125q-0.78125 0.765625 -0.859375 2.046875zm9.110092 9.65625l0 -13.640625l1.53125 0l0 1.28125q0.53125 -0.75 1.203125 -1.125q0.6875 -0.375 1.640625 -0.375q1.265625 0 2.234375 0.65625q0.96875 0.640625 1.453125 1.828125q0.5 1.1875 0.5 2.59375q0 1.515625 -0.546875 2.734375q-0.546875 1.203125 -1.578125 1.84375q-1.03125 0.640625 -2.171875 0.640625q-0.84375 0 -1.515625 -0.34375q-0.65625 -0.359375 -1.078125 -0.890625l0 4.796875l-1.671875 0zm1.515625 -8.65625q0 1.90625 0.765625 2.8125q0.78125 0.90625 1.875 0.90625q1.109375 0 1.890625 -0.9375q0.796875 -0.9375 0.796875 -2.921875q0 -1.875 -0.78125 -2.8125q-0.765625 -0.9375 -1.84375 -0.9375q-1.0625 0 -1.890625 1.0q-0.8125 1.0 -0.8125 2.890625zm7.969467 -4.984375l8.0 0l0 1.390625l-3.171875 0l0 8.46875l-1.65625 0l0 -8.46875l-3.171875 0l0 -1.390625z" fill-rule="nonzero"></path><path fill="#cfe2f3" d="m441.95645 203.01837l0 -169.07086l64.72443 0l0 169.07086z" fill-rule="nonzero"></path><path stroke="#000000" stroke-width="2.0" stroke-linejoin="round" stroke-linecap="butt" d="m441.95645 203.01837l0 -169.07086l64.72443 0l0 169.07086z" fill-rule="nonzero"></path><path fill="#000000" d="m470.23865 187.38835l-13.59375 0l0 -2.71875l9.625 -3.21875q1.34375 -0.4375 2.015625 -0.640625q-0.75 -0.234375 -2.1875 -0.734375l-9.453125 -3.25l0 -2.421875l13.59375 0l0 1.734375l-11.390625 0l11.390625 3.953125l0 1.625l-11.578125 3.9375l11.578125 0l0 1.734375zm-4.921875 -14.759552q-2.734375 0 -4.0625 -1.53125q-1.09375 -1.265625 -1.09375 -3.09375q0 -2.03125 1.34375 -3.3125q1.328125 -1.296875 3.671875 -1.296875q1.90625 0 3.0 0.578125q1.078125 0.5625 1.6875 1.65625q0.59375 1.078125 0.59375 2.375q0 2.0625 -1.328125 3.34375q-1.328125 1.28125 -3.8125 1.28125zm0 -1.71875q1.890625 0 2.828125 -0.828125q0.9375 -0.828125 0.9375 -2.078125q0 -1.25 -0.9375 -2.0625q-0.953125 -0.828125 -2.890625 -0.828125q-1.828125 0 -2.765625 0.828125q-0.9375 0.828125 -0.9375 2.0625q0 1.25 0.9375 2.078125q0.9375 0.828125 2.828125 0.828125zm-4.9375 -10.594467l0 -6.875l8.484375 0l0 -1.0625l4.171875 0l0 1.375l-2.796875 0l0 7.75l2.796875 0l0 1.375l-4.171875 0l0 -0.875q-2.390625 -1.765625 -8.484375 -1.6875zm1.390625 -1.40625q4.796875 0.1875 7.09375 1.484375l0 -5.296875l-7.09375 0l0 3.8125zm5.296875 -14.917099l0.21875 -1.71875q1.5 0.40625 2.34375 1.515625q0.828125 1.09375 0.828125 2.8125q0 2.15625 -1.328125 3.421875q-1.328125 1.265625 -3.734375 1.265625q-2.484375 0 -3.859375 -1.265625q-1.375 -1.28125 -1.375 -3.328125q0 -1.984375 1.34375 -3.234375q1.34375 -1.25 3.796875 -1.25q0.140625 0 0.4375 0.015625l0 7.34375q1.625 -0.09375 2.484375 -0.921875q0.859375 -0.828125 0.859375 -2.0625q0 -0.90625 -0.46875 -1.546875q-0.484375 -0.65625 -1.546875 -1.046875zm-2.703125 5.484375l0 -5.5q-1.234375 0.109375 -1.859375 0.625q-0.96875 0.796875 -0.96875 2.078125q0 1.140625 0.78125 1.9375q0.765625 0.78125 2.046875 0.859375zm-3.984375 -9.922592l0 -7.765625l9.859375 0l0 1.65625l-8.46875 0l0 4.4375l4.90625 0q1.71875 0 2.265625 0.109375q0.546875 0.109375 0.953125 0.609375q0.40625 0.5 0.40625 1.453125q0 0.578125 -0.078125 1.34375l-1.390625 0l0 -0.734375q0 -0.515625 -0.09375 -0.734375q-0.109375 -0.234375 -0.34375 -0.296875q-0.234375 -0.078125 -1.515625 -0.078125l-6.5 0zm0 -10.073349l0 -1.6718826l7.515625 0l-7.515625 -4.625l0 -1.8125l9.859375 0l0 1.671875l-7.46875 0l7.46875 4.640625l0 1.7968826l-9.859375 0zm13.640625 -10.421272l-13.640625 0l0 -1.53125l1.28125 0q-0.75 -0.53125 -1.125 -1.203125q-0.375 -0.6875 -0.375 -1.640625q0 -1.265625 0.65625 -2.234375q0.640625 -0.96875 1.828125 -1.453125q1.1875 -0.5 2.59375 -0.5q1.515625 0 2.734375 0.546875q1.203125 0.546875 1.84375 1.578125q0.640625 1.03125 0.640625 2.171875q0 0.84375 -0.34375 1.515625q-0.359375 0.65625 -0.890625 1.078125l4.796875 0l0 1.671875zm-8.65625 -1.515625q1.90625 0 2.8125 -0.765625q0.90625 -0.78125 0.90625 -1.875q0 -1.109375 -0.9375 -1.890625q-0.9375 -0.796875 -2.921875 -0.796875q-1.875 0 -2.8125 0.78125q-0.9375 0.765625 -0.9375 1.84375q0 1.0625 1.0 1.890625q1.0 0.8125 2.890625 0.8125zm-0.046875 -8.235092q-2.734375 0 -4.0625 -1.53125q-1.09375 -1.265625 -1.09375 -3.09375q0 -2.03125 1.34375 -3.3125q1.328125 -1.296875 3.671875 -1.296875q1.90625 0 3.0 0.578125q1.078125 0.5625 1.6875 1.65625q0.59375 1.078125 0.59375 2.375q0 2.0625 -1.328125 3.34375q-1.328125 1.28125 -3.8125 1.28125zm0 -1.71875q1.890625 0 2.828125 -0.828125q0.9375 -0.828125 0.9375 -2.078125q0 -1.25 -0.9375 -2.0625q-0.953125 -0.828125 -2.890625 -0.828125q-1.828125 0 -2.765625 0.828125q-0.9375 0.828125 -0.9375 2.0625q0 1.25 0.9375 2.078125q0.9375 0.828125 2.828125 0.828125zm-4.9375 -9.297592l0 -3.84375q0 -1.421875 0.25 -2.109375q0.234375 -0.6875 0.859375 -1.1875q0.625 -0.5 1.515625 -0.5q0.703125 0 1.234375 0.296875q0.515625 0.28125 0.875 0.875q0.21875 -0.703125 0.859375 -1.15625q0.640625 -0.46875 1.515625 -0.46875q1.390625 0.09375 2.078125 1.015625q0.671875 0.90625 0.671875 2.640625l0 4.4375l-9.859375 0zm4.15625 -1.671875l0 -1.78125q0 -1.0625 -0.109375 -1.453125q-0.109375 -0.40625 -0.453125 -0.71875q-0.34375 -0.3125 -0.8125 -0.3125q-0.78125 0 -1.078125 0.546875q-0.3125 0.546875 -0.3125 1.890625l0 1.828125l2.765625 0zm4.328125 0l0 -2.1875q0 -1.421875 -0.328125 -1.953125q-0.328125 -0.53125 -1.140625 -0.5625q-0.46875 0 -0.875 0.3125q-0.40625 0.3125 -0.5 0.796875q-0.109375 0.484375 -0.109375 1.578125l0 2.015625l2.953125 0zm0.15625 -14.661133q0.796875 0.9375 1.125 1.796875q0.3125 0.859375 0.3125 1.84375q0 1.609375 -0.78125 2.484375q-0.796875 0.875 -2.03125 0.875q-0.734375 0 -1.328125 -0.328125q-0.59375 -0.328125 -0.953125 -0.859375q-0.359375 -0.53125 -0.546875 -1.203125q-0.140625 -0.5 -0.25 -1.484375q-0.25 -2.03125 -0.578125 -2.984375q-0.34375 0 -0.4375 0q-1.015625 0 -1.4375 0.46875q-0.5625 0.640625 -0.5625 1.90625q0 1.171875 0.40625 1.734375q0.40625 0.5625 1.46875 0.828125l-0.234375 1.640625q-1.046875 -0.234375 -1.6875 -0.734375q-0.640625 -0.515625 -0.984375 -1.46875q-0.359375 -0.96875 -0.359375 -2.25q0 -1.265625 0.296875 -2.046875q0.296875 -0.78125 0.75 -1.15625q0.453125 -0.375 1.140625 -0.515625q0.421875 -0.09375 1.53125 -0.09375l2.234375 0q2.328125 0 2.953125 -0.09375q0.609375 -0.109375 1.171875 -0.4375l0 1.75q-0.515625 0.265625 -1.21875 0.328125zm-3.71875 0.140625q0.359375 0.90625 0.625 2.734375q0.140625 1.03125 0.328125 1.453125q0.1875 0.421875 0.546875 0.65625q0.359375 0.234375 0.796875 0.234375q0.671875 0 1.125 -0.5q0.4375 -0.515625 0.4375 -1.484375q0 -0.96875 -0.421875 -1.71875q-0.4375 -0.75 -1.15625 -1.109375q-0.578125 -0.265625 -1.671875 -0.265625l-0.609375 0zm-4.921875 -4.094467l0 -1.671875l4.109375 0l0 -4.6249924l-4.109375 0l0 -1.671875l9.859375 0l0 1.671875l-4.375 0l0 4.6249924l4.375 0l0 1.671875l-9.859375 0zm0 -10.287224l0 -1.671875l7.515625 0l-7.515625 -4.625l0 -1.8125l9.859375 0l0 1.671875l-7.46875 0l7.46875 4.640625l0 1.796875l-9.859375 0zm6.6875 -17.171265l0.21875 -1.71875q1.5 0.40625 2.34375 1.515625q0.828125 1.09375 0.828125 2.8125q0 2.15625 -1.328125 3.421875q-1.328125 1.265625 -3.734375 1.265625q-2.484375 0 -3.859375 -1.265625q-1.375 -1.28125 -1.375 -3.328125q0 -1.984375 1.34375 -3.234375q1.34375 -1.25 3.796875 -1.25q0.140625 0 0.4375 0.015625l0 7.34375q1.625 -0.09375 2.484375 -0.921875q0.859375 -0.828125 0.859375 -2.0625q0 -0.90625 -0.46875 -1.546875q-0.484375 -0.65625 -1.546875 -1.046875zm-2.703125 5.484375l0 -5.5q-1.234375 0.109375 -1.859375 0.625q-0.96875 0.796875 -0.96875 2.078125q0 1.140625 0.78125 1.9375q0.765625 0.78125 2.046875 0.859375z" fill-rule="nonzero"></path><path fill="#000000" d="m482.37927 149.64258l0 -3.84375q0 -1.421875 0.25 -2.109375q0.234375 -0.6875 0.859375 -1.1875q0.625 -0.5 1.515625 -0.5q0.703125 0 1.234375 0.296875q0.515625 0.28125 0.875 0.875q0.21875 -0.703125 0.859375 -1.15625q0.640625 -0.46875 1.515625 -0.46875q1.390625 0.09375 2.078125 1.015625q0.671875 0.90625 0.671875 2.640625l0 4.4375l-9.859375 0zm4.15625 -1.671875l0 -1.78125q0 -1.0625 -0.109375 -1.453125q-0.109375 -0.40625 -0.453125 -0.71875q-0.34375 -0.3125 -0.8125 -0.3125q-0.78125 0 -1.078125 0.546875q-0.3125 0.546875 -0.3125 1.890625l0 1.828125l2.765625 0zm4.328125 0l0 -2.1875q0 -1.421875 -0.328125 -1.953125q-0.328125 -0.53125 -1.140625 -0.5625q-0.46875 0 -0.875 0.3125q-0.40625 0.3125 -0.5 0.796875q-0.109375 0.484375 -0.109375 1.578125l0 2.015625l2.953125 0z" fill-rule="nonzero"></path><path fill="#000000" d="m492.23865 134.95439l-13.59375 -2.84375l0 -8.843758l1.546875 0.328125l0 7.0156326l4.328125 0.90625l0 -7.1562576l1.546875 0.328125l0 7.1562576l6.171875 1.28125l0 1.828125zm0 -11.364738l-13.59375 -2.84375l0 -4.21875q0 -1.140625 0.078125 -1.703125q0.171875 -0.90625 0.5625 -1.53125q0.390625 -0.625 1.078125 -0.96875q0.671875 -0.34375 1.5 -0.34375q1.125 0 1.984375 0.625q0.84375 0.609375 1.296875 1.875q0.359375 -1.109375 1.09375 -1.65625q0.71875 -0.546875 1.6875 -0.546875q1.125 0 2.15625 0.65625q1.03125 0.640625 1.59375 1.703125q0.5625 1.0625 0.5625 2.375l0 6.578125zm-7.796875 -3.453125l0 -2.75q0 -1.984375 -0.625 -2.84375q-0.640625 -0.875 -1.84375 -0.875q-0.578125 0 -0.984375 0.28125q-0.421875 0.265625 -0.609375 0.71875q-0.1875 0.4375 -0.1875 1.6875l0 2.890625l4.25 0.890625zm6.25 1.3125l0 -3.09375q0 -1.234375 -0.078125 -1.671875q-0.140625 -0.859375 -0.5 -1.390625q-0.359375 -0.546875 -0.9375 -0.84375q-0.59375 -0.3125 -1.234375 -0.3125q-0.953125 0 -1.453125 0.609375q-0.5 0.59375 -0.5 2.265625l0 3.453125l4.703125 0.984375zm1.546875 -10.318573l-13.59375 -2.84375l0 -4.09375q0 -1.484375 0.203125 -2.25q0.296875 -1.125 1.03125 -1.90625q0.734375 -0.796875 1.84375 -1.1875q1.09375 -0.40625 2.46875 -0.40625q1.640625 0 3.0 0.5q1.34375 0.5 2.375 1.3125q1.015625 0.796875 1.609375 1.671875q0.578125 0.875 0.84375 2.0625q0.21875 0.921875 0.21875 2.234375l0 4.90625zm-1.546875 -2.140625l0 -2.15625q0 -1.453125 -0.265625 -2.59375q-0.15625 -0.703125 -0.484375 -1.203125q-0.421875 -0.65625 -1.109375 -1.1875q-0.90625 -0.71875 -2.0625 -1.140625q-1.171875 -0.421875 -2.65625 -0.421875q-1.65625 0 -2.53125 0.578125q-0.890625 0.578125 -1.1875 1.46875q-0.203125 0.65625 -0.203125 2.046875l0 2.40625l10.5 2.203125zm1.546875 -11.332321l-13.59375 -2.84375l0 -1.8125l6.546875 1.359375l-6.546875 -7.375l0 -2.5625l5.53125 6.3125l8.0625 -4.625l0 2.03125l-6.890625 3.921875l2.46875 2.84375l4.421875 0.9375l0 1.8125z" fill-rule="nonzero"></path><path fill="#cfe2f3" d="m183.28075 191.86351l0.007873535 -12.874008l-31.196854 0l0.01574707 -25.748032l31.196854 0l0.007873535 -12.874008l25.732285 25.748032z" fill-rule="nonzero"></path><path stroke="#999999" stroke-width="1.0" stroke-linejoin="round" stroke-linecap="butt" d="m183.28075 191.86351l0.007873535 -12.874008l-31.196854 0l0.01574707 -25.748032l31.196854 0l0.007873535 -12.874008l25.732285 25.748032z" fill-rule="nonzero"></path><path fill="#cfe2f3" d="m413.81314 96.4462l0.007873535 -12.874016l-31.196838 0l0.01574707 -25.748035l31.196838 0l0.007873535 -12.874016l25.7323 25.748035z" fill-rule="nonzero"></path><path stroke="#999999" stroke-width="1.0" stroke-linejoin="round" stroke-linecap="butt" d="m413.81314 96.4462l0.007873535 -12.874016l-31.196838 0l0.01574707 -25.748035l31.196838 0l0.007873535 -12.874016l25.7323 25.748035z" fill-rule="nonzero"></path><path fill="#cfe2f3" d="m413.81445 191.86351l0.007873535 -12.874008l-31.196838 0l0.01574707 -25.748032l31.196838 0l0.007873535 -12.874023l25.7323 25.748032z" fill-rule="nonzero"></path><path stroke="#999999" stroke-width="1.0" stroke-linejoin="round" stroke-linecap="butt" d="m413.81445 191.86351l0.007873535 -12.874008l-31.196838 0l0.01574707 -25.748032l31.196838 0l0.007873535 -12.874023l25.7323 25.748032z" fill-rule="nonzero"></path><path fill="#cfe2f3" d="m543.5203 146.26509l0.007873535 -12.874008l-31.196838 0l0.01574707 -25.74804l31.196838 0l0.007873535 -12.874016l25.7323 25.748032z" fill-rule="nonzero"></path><path stroke="#999999" stroke-width="1.0" stroke-linejoin="round" stroke-linecap="butt" d="m543.5203 146.26509l0.007873535 -12.874008l-31.196838 0l0.01574707 -25.74804l31.196838 0l0.007873535 -12.874016l25.7323 25.748032z" fill-rule="nonzero"></path><path fill="#cfe2f3" d="m744.83826 144.23097l0.007873535 -12.874023l-31.196838 0l0.01574707 -25.748024l31.196838 0l0.007873535 -12.874016l25.7323 25.748032z" fill-rule="nonzero"></path><path stroke="#999999" stroke-width="1.0" stroke-linejoin="round" stroke-linecap="butt" d="m744.83826 144.23097l0.007873535 -12.874023l-31.196838 0l0.01574707 -25.748024l31.196838 0l0.007873535 -12.874016l25.7323 25.748032z" fill-rule="nonzero"></path><path fill="#cfe2f3" d="m847.77795 144.23097l0.007873535 -12.874023l-31.196838 0l0.01574707 -25.748024l31.196838 0l0.007873535 -12.874016l25.7323 25.748032z" fill-rule="nonzero"></path><path stroke="#999999" stroke-width="1.0" stroke-linejoin="round" stroke-linecap="butt" d="m847.77795 144.23097l0.007873535 -12.874023l-31.196838 0l0.01574707 -25.748024l31.196838 0l0.007873535 -12.874016l25.7323 25.748032z" fill-rule="nonzero"></path><path fill="#cfe2f3" d="m877.1226 203.01837l0 -169.07086l38.834656 0l0 169.07086z" fill-rule="nonzero"></path><path stroke="#000000" stroke-width="2.0" stroke-linejoin="round" stroke-linecap="butt" d="m877.1226 203.01837l0 -169.07086l38.834656 0l0 169.07086z" fill-rule="nonzero"></path><path fill="#000000" d="m889.8662 189.21098l0 -1.8125l8.328125 -4.4375l-8.328125 -3.875l0 -1.796875l10.5625 5.109375q1.984375 0.953125 2.609375 1.5625q0.609375 0.609375 0.609375 1.75q0 0.703125 -0.328125 1.703125l-1.53125 0q0.40625 -0.71875 0.40625 -1.53125q0 -0.65625 -0.421875 -1.125q-0.421875 -0.484375 -1.921875 -1.0625l-9.984375 5.515625zm3.734375 -13.023331l0 -7.765625l9.859375 0l0 1.671875l-8.46875 0l0 4.421875l8.46875 0l0 1.671875l-9.859375 0zm13.640625 -10.086807l-13.640625 0l0 -1.53125l1.28125 0q-0.75 -0.53125 -1.125 -1.203125q-0.375 -0.6875 -0.375 -1.640625q0 -1.265625 0.65625 -2.234375q0.640625 -0.96875 1.828125 -1.453125q1.1875 -0.5 2.59375 -0.5q1.515625 0 2.734375 0.546875q1.203125 0.546875 1.84375 1.578125q0.640625 1.03125 0.640625 2.171875q0 0.84375 -0.34375 1.515625q-0.359375 0.65625 -0.890625 1.078125l4.796875 0l0 1.671875zm-8.65625 -1.515625q1.90625 0 2.8125 -0.765625q0.90625 -0.78125 0.90625 -1.875q0 -1.109375 -0.9375 -1.890625q-0.9375 -0.796875 -2.921875 -0.796875q-1.875 0 -2.8125 0.78125q-0.9375 0.765625 -0.9375 1.84375q0 1.0625 1.0 1.890625q1.0 0.8125 2.890625 0.8125zm-0.046875 -8.235092q-2.734375 0 -4.0625 -1.53125q-1.09375 -1.265625 -1.09375 -3.09375q0 -2.03125 1.34375 -3.3125q1.328125 -1.296875 3.671875 -1.296875q1.90625 0 3.0 0.578125q1.078125 0.5625 1.6875 1.65625q0.59375 1.078125 0.59375 2.375q0 2.0625 -1.328125 3.34375q-1.328125 1.28125 -3.8125 1.28125zm0 -1.71875q1.890625 0 2.828125 -0.828125q0.9375 -0.828125 0.9375 -2.078125q0 -1.25 -0.9375 -2.0625q-0.953125 -0.828125 -2.890625 -0.828125q-1.828125 0 -2.765625 0.828125q-0.9375 0.828125 -0.9375 2.0625q0 1.25 0.9375 2.078125q0.9375 0.828125 2.828125 0.828125zm-4.9375 -9.344467l0 -1.671875l8.484375 0l0 -3.796875l-8.484375 0l0 -1.671875l8.484375 0l0 -3.8125l-8.484375 0l0 -1.65625l8.484375 0l0 -1.109375l4.171875 0l0 1.390625l-2.796875 0l0 12.328125l-9.859375 0zm6.6875 -22.03701l0.21875 -1.71875q1.5 0.40625 2.34375 1.515625q0.828125 1.09375 0.828125 2.8125q0 2.1562576 -1.328125 3.4218826q-1.328125 1.265625 -3.734375 1.265625q-2.484375 0 -3.859375 -1.265625q-1.375 -1.2812576 -1.375 -3.3281326q0 -1.984375 1.34375 -3.234375q1.34375 -1.25 3.796875 -1.25q0.140625 0 0.4375 0.015625l0 7.3437576q1.625 -0.09375 2.484375 -0.9218826q0.859375 -0.828125 0.859375 -2.0625q0 -0.90625 -0.46875 -1.546875q-0.484375 -0.65625 -1.546875 -1.046875zm-2.703125 5.4843826l0 -5.5000076q-1.234375 0.109375 -1.859375 0.625q-0.96875 0.796875 -0.96875 2.078125q0 1.140625 0.78125 1.9375q0.765625 0.7812576 2.046875 0.8593826zm-3.984375 -9.125725l0 -1.671875l4.109375 0l0 -4.625l-4.109375 0l0 -1.671875l9.859375 0l0 1.671875l-4.375 0l0 4.625l4.375 0l0 1.671875l-9.859375 0zm0 -10.287216l0 -1.671875l7.515625 0l-7.515625 -4.625l0 -1.8125l9.859375 0l0 1.671875l-7.46875 0l7.46875 4.640625l0 1.796875l-9.859375 0zm6.6875 -17.171265l0.21875 -1.71875q1.5 0.40625 2.34375 1.515625q0.828125 1.09375 0.828125 2.8125q0 2.15625 -1.328125 3.421875q-1.328125 1.265625 -3.734375 1.265625q-2.484375 0 -3.859375 -1.265625q-1.375 -1.28125 -1.375 -3.328125q0 -1.984375 1.34375 -3.234375q1.34375 -1.25 3.796875 -1.25q0.140625 0 0.4375 0.015625l0 7.34375q1.625 -0.09375 2.484375 -0.921875q0.859375 -0.828125 0.859375 -2.0625q0 -0.90625 -0.46875 -1.546875q-0.484375 -0.65625 -1.546875 -1.046875zm-2.703125 5.484375l0 -5.5q-1.234375 0.109375 -1.859375 0.625q-0.96875 0.796875 -0.96875 2.078125q0 1.140625 0.78125 1.9375q0.765625 0.78125 2.046875 0.859375zm-7.71875 -15.746521l0 -8.265617l11.984375 0l0 -1.234375l4.78125 0l0 1.609375l-3.171875 0l0 8.984367l3.171875 0l0 1.609375l-4.78125 0l0 -1.0625q-2.46875 -1.640625 -10.0 -1.640625l-1.984375 0zm1.59375 -6.46875l0 4.734375l0.703125 0q1.734375 0 4.75 0.3125q3.0 0.3125 4.9375 1.21875l0 -6.265625l-10.390625 0zm-1.59375 -3.556755l0 -1.8125l8.328125 -4.4375l-8.328125 -3.875l0 -1.796875l10.5625 5.109375q1.984375 0.953125 2.609375 1.5625q0.609375 0.609375 0.609375 1.75q0 0.703125 -0.328125 1.703125l-1.53125 0q0.40625 -0.71875 0.40625 -1.53125q0 -0.65625 -0.421875 -1.125q-0.421875 -0.484375 -1.921875 -1.0625l-9.984375 5.515625zm13.59375 -13.148315l-13.59375 0l0 -5.109375q0 -1.546875 0.40625 -2.484375q0.40625 -0.953125 1.265625 -1.484375q0.859375 -0.53125 1.796875 -0.53125q0.875 0 1.65625 0.46875q0.765625 0.46875 1.234375 1.4375q0.359375 -1.234375 1.234375 -1.890625q0.875 -0.671875 2.0625 -0.671875q0.953125 0 1.78125 0.40625q0.8125 0.390625 1.265625 0.984375q0.4375 0.59375 0.671875 1.5q0.21875 0.890625 0.21875 2.1875l0 5.1875zm-7.890625 -1.796875l0 -2.9375q0 -1.203125 -0.15625 -1.71875q-0.203125 -0.6875 -0.671875 -1.03125q-0.46875 -0.359375 -1.1875 -0.359375q-0.671875 0 -1.1875 0.328125q-0.515625 0.328125 -0.703125 0.9375q-0.203125 0.59375 -0.203125 2.0625l0 2.71875l4.109375 0zm6.28125 0l0 -3.390625q0 -0.875 -0.0625 -1.21875q-0.109375 -0.625 -0.359375 -1.046875q-0.265625 -0.421875 -0.765625 -0.6875q-0.5 -0.265625 -1.140625 -0.265625q-0.765625 0 -1.328125 0.390625q-0.5625 0.390625 -0.78125 1.078125q-0.234375 0.6875 -0.234375 1.984375l0 3.15625l4.671875 0z" fill-rule="nonzero"></path><path fill="#cfe2f3" d="m950.7176 144.23097l0.007873535 -12.874023l-31.196838 0l0.01574707 -25.748024l31.196838 0l0.007873535 -12.874016l25.7323 25.748032z" fill-rule="nonzero"></path><path stroke="#999999" stroke-width="1.0" stroke-linejoin="round" stroke-linecap="butt" d="m950.7176 144.23097l0.007873535 -12.874023l-31.196838 0l0.01574707 -25.748024l31.196838 0l0.007873535 -12.874016l25.7323 25.748032z" fill-rule="nonzero"></path><path fill="#cfe2f3" d="m773.48425 203.01837l0 -169.07086l38.834656 0l0 169.07086z" fill-rule="nonzero"></path><path stroke="#000000" stroke-width="2.0" stroke-linejoin="round" stroke-linecap="butt" d="m773.48425 203.01837l0 -169.07086l38.834656 0l0 169.07086z" fill-rule="nonzero"></path><path fill="#000000" d="m786.2278 184.59819l0 -8.78125l1.59375 0l0 6.984375l12.0 0l0 1.796875l-13.59375 0zm10.421875 -16.602432l0.21875 -1.71875q1.5 0.40625 2.34375 1.515625q0.828125 1.09375 0.828125 2.8125q0 2.15625 -1.328125 3.421875q-1.328125 1.265625 -3.734375 1.265625q-2.484375 0 -3.859375 -1.265625q-1.375 -1.28125 -1.375 -3.328125q0 -1.984375 1.34375 -3.234375q1.34375 -1.25 3.796875 -1.25q0.140625 0 0.4375 0.015625l0 7.34375q1.625 -0.09375 2.484375 -0.921875q0.859375 -0.828125 0.859375 -2.0625q0 -0.90625 -0.46875 -1.546875q-0.484375 -0.65625 -1.546875 -1.046875zm-2.703125 5.484375l0 -5.5q-1.234375 0.109375 -1.859375 0.625q-0.96875 0.796875 -0.96875 2.078125q0 1.140625 0.78125 1.9375q0.765625 0.78125 2.046875 0.859375zm-3.984375 -9.125717l0 -1.671875l4.109375 0l0 -4.625l-4.109375 0l0 -1.671875l9.859375 0l0 1.671875l-4.375 0l0 4.625l4.375 0l0 1.671875l-9.859375 0zm6.6875 -17.037216l0.21875 -1.71875q1.5 0.40625 2.34375 1.515625q0.828125 1.09375 0.828125 2.8125q0 2.15625 -1.328125 3.421875q-1.328125 1.265625 -3.734375 1.265625q-2.484375 0 -3.859375 -1.265625q-1.375 -1.28125 -1.375 -3.328125q0 -1.984375 1.34375 -3.234375q1.34375 -1.25 3.796875 -1.25q0.140625 0 0.4375 0.015625l0 7.34375q1.625 -0.09375 2.484375 -0.921875q0.859375 -0.828125 0.859375 -2.0625q0 -0.90625 -0.46875 -1.546875q-0.484375 -0.65625 -1.546875 -1.046875zm-2.703125 5.484375l0 -5.5q-1.234375 0.109375 -1.859375 0.625q-0.96875 0.796875 -0.96875 2.078125q0 1.140625 0.78125 1.9375q0.765625 0.78125 2.046875 0.859375zm9.65625 -9.110092l-13.640625 0l0 -1.53125l1.28125 0q-0.75 -0.53125 -1.125 -1.203125q-0.375 -0.6875 -0.375 -1.640625q0 -1.265625 0.65625 -2.234375q0.640625 -0.96875 1.828125 -1.453125q1.1875 -0.5 2.59375 -0.5q1.515625 0 2.734375 0.546875q1.203125 0.546875 1.84375 1.578125q0.640625 1.03125 0.640625 2.171875q0 0.84375 -0.34375 1.515625q-0.359375 0.65625 -0.890625 1.078125l4.796875 0l0 1.671875zm-8.65625 -1.515625q1.90625 0 2.8125 -0.765625q0.90625 -0.78125 0.90625 -1.875q0 -1.109375 -0.9375 -1.890625q-0.9375 -0.796875 -2.921875 -0.796875q-1.875 0 -2.8125 0.78125q-0.9375 0.765625 -0.9375 1.84375q0 1.0625 1.0 1.890625q1.0 0.8125 2.890625 0.8125zm3.65625 -15.2976q0.796875 0.9375 1.125 1.7968826q0.3125 0.859375 0.3125 1.84375q0 1.609375 -0.78125 2.484375q-0.796875 0.875 -2.03125 0.875q-0.734375 0 -1.328125 -0.328125q-0.59375 -0.328125 -0.953125 -0.859375q-0.359375 -0.53125 -0.546875 -1.203125q-0.140625 -0.5 -0.25 -1.484375q-0.25 -2.0312576 -0.578125 -2.9843826q-0.34375 0 -0.4375 0q-1.015625 0 -1.4375 0.46875q-0.5625 0.6406326 -0.5625 1.9062576q0 1.171875 0.40625 1.734375q0.40625 0.5625 1.46875 0.828125l-0.234375 1.640625q-1.046875 -0.234375 -1.6875 -0.734375q-0.640625 -0.515625 -0.984375 -1.46875q-0.359375 -0.96875 -0.359375 -2.25q0 -1.2656326 0.296875 -2.0468826q0.296875 -0.78125 0.75 -1.15625q0.453125 -0.375 1.140625 -0.515625q0.421875 -0.09375 1.53125 -0.09375l2.234375 0q2.328125 0 2.953125 -0.09375q0.609375 -0.109375 1.171875 -0.4375l0 1.75q-0.515625 0.265625 -1.21875 0.328125zm-3.71875 0.140625q0.359375 0.90625 0.625 2.7343826q0.140625 1.03125 0.328125 1.453125q0.1875 0.421875 0.546875 0.65625q0.359375 0.234375 0.796875 0.234375q0.671875 0 1.125 -0.5q0.4375 -0.515625 0.4375 -1.484375q0 -0.96875 -0.421875 -1.71875q-0.4375 -0.7500076 -1.15625 -1.1093826q-0.578125 -0.265625 -1.671875 -0.265625l-0.609375 0zm-4.921875 -4.110092l0 -1.671875l8.484375 0l0 -4.625l-8.484375 0l0 -1.65625l8.484375 0l0 -1.078125l4.171875 0l0 1.375l-2.796875 0l0 7.65625l-9.859375 0zm0 -10.65419l0 -1.671875l7.515625 0l-7.515625 -4.625l0 -1.8125l9.859375 0l0 1.671875l-7.46875 0l7.46875 4.640625l0 1.796875l-9.859375 0zm0 -18.18689l9.859375 0l0 1.671875l-3.84375 0l0 0.953125q0 0.890625 0.234375 1.328125q0.21875 0.421875 1.453125 1.25l2.15625 1.453125l0 2.078125l-2.65625 -1.8125q-1.21875 -0.8125 -1.375 -1.640625q-0.1875 1.4375 -1.015625 2.125q-0.84375 0.6875 -1.9375 0.6875q-1.265625 0 -2.0625 -0.90625q-0.8125 -0.90625 -0.8125 -2.609375l0 -4.578125zm1.390625 1.671875l0 2.375q0 1.484375 0.46875 1.921875q0.453125 0.4375 1.078125 0.4375q0.875 0 1.296875 -0.640625q0.40625 -0.640625 0.40625 -2.25l0 -1.84375l-3.25 0zm-5.125 -10.645111l0 -8.265625l11.984375 0l0 -1.234375l4.78125 0l0 1.609375l-3.171875 0l0 8.984375l3.171875 0l0 1.609375l-4.78125 0l0 -1.0625q-2.46875 -1.640625 -10.0 -1.640625l-1.984375 0zm1.59375 -6.46875l0 4.734375l0.703125 0q1.734375 0 4.75 0.3125q3.0 0.3125 4.9375 1.21875l0 -6.265625l-10.390625 0zm-1.59375 -3.5567474l0 -1.8125076l8.328125 -4.4375l-8.328125 -3.875l0 -1.796875l10.5625 5.109375q1.984375 0.953125 2.609375 1.5625q0.609375 0.609375 0.609375 1.75q0 0.703125 -0.328125 1.703125l-1.53125 0q0.40625 -0.71875 0.40625 -1.53125q0 -0.65625 -0.421875 -1.125q-0.421875 -0.484375 -1.921875 -1.0625l-9.984375 5.5156326zm13.59375 -13.148323l-13.59375 0l0 -5.109375q0 -1.546875 0.40625 -2.484375q0.40625 -0.953125 1.265625 -1.484375q0.859375 -0.53125 1.796875 -0.53125q0.875 0 1.65625 0.46875q0.765625 0.46875 1.234375 1.4375q0.359375 -1.234375 1.234375 -1.890625q0.875 -0.671875 2.0625 -0.671875q0.953125 0 1.78125 0.40625q0.8125 0.390625 1.265625 0.984375q0.4375 0.59375 0.671875 1.5q0.21875 0.890625 0.21875 2.1875l0 5.1875zm-7.890625 -1.796875l0 -2.9375q0 -1.203125 -0.15625 -1.71875q-0.203125 -0.6875 -0.671875 -1.03125q-0.46875 -0.359375 -1.1875 -0.359375q-0.671875 0 -1.1875 0.328125q-0.515625 0.328125 -0.703125 0.9375q-0.203125 0.59375 -0.203125 2.0625l0 2.71875l4.109375 0zm6.28125 0l0 -3.390625q0 -0.875 -0.0625 -1.21875q-0.109375 -0.625 -0.359375 -1.046875q-0.265625 -0.421875 -0.765625 -0.6875q-0.5 -0.265625 -1.140625 -0.265625q-0.765625 0 -1.328125 0.390625q-0.5625 0.390625 -0.78125 1.078125q-0.234375 0.6875 -0.234375 1.984375l0 3.15625l4.671875 0z" fill-rule="nonzero"></path><path fill="#000000" fill-opacity="0.0" d="m5.414698 228.3727l504.56693 0.59843445" fill-rule="nonzero"></path><path stroke="#000000" stroke-width="1.0" stroke-linejoin="round" stroke-linecap="butt" d="m5.414698 228.3727l504.56693 0.59843445" fill-rule="nonzero"></path><path fill="#000000" fill-opacity="0.0" d="m5.9043665 228.29134l0 -6.173233" fill-rule="nonzero"></path><path stroke="#000000" stroke-width="1.0" stroke-linejoin="round" stroke-linecap="butt" d="m5.9043665 228.29134l0 -6.173233" fill-rule="nonzero"></path><path fill="#000000" fill-opacity="0.0" d="m509.63934 228.29134l0 -6.173233" fill-rule="nonzero"></path><path stroke="#000000" stroke-width="1.0" stroke-linejoin="round" stroke-linecap="butt" d="m509.63934 228.29134l0 -6.173233" fill-rule="nonzero"></path><path fill="#000000" fill-opacity="0.0" d="m757.99554 231.67717l367.93707 0" fill-rule="nonzero"></path><path stroke="#000000" stroke-width="1.0" stroke-linejoin="round" stroke-linecap="butt" d="m757.99554 231.67717l367.93707 0" fill-rule="nonzero"></path><path fill="#000000" fill-opacity="0.0" d="m758.636 231.47769l0 -6.173233" fill-rule="nonzero"></path><path stroke="#000000" stroke-width="1.0" stroke-linejoin="round" stroke-linecap="butt" d="m758.636 231.47769l0 -6.173233" fill-rule="nonzero"></path><path fill="#000000" fill-opacity="0.0" d="m1125.601 231.47769l0 -6.173233" fill-rule="nonzero"></path><path stroke="#000000" stroke-width="1.0" stroke-linejoin="round" stroke-linecap="butt" d="m1125.601 231.47769l0 -6.173233" fill-rule="nonzero"></path><path fill="#000000" fill-opacity="0.0" d="m154.46194 235.6588l263.62204 0l0 33.448807l-263.62204 0z" fill-rule="nonzero"></path><path fill="#000000" d="m164.72757 252.71942l7.765625 0l0 9.859375l-1.671875 0l0 -8.46875l-4.421875 0l0 8.46875l-1.671875 0l0 -9.859375zm9.461807 4.9375q0 -2.734375 1.53125 -4.0625q1.265625 -1.09375 3.09375 -1.09375q2.03125 0 3.3125 1.34375q1.296875 1.328125 1.296875 3.671875q0 1.90625 -0.578125 3.0q-0.5625 1.078125 -1.65625 1.6875q-1.078125 0.59375 -2.375 0.59375q-2.0625 0 -3.34375 -1.328125q-1.28125 -1.328125 -1.28125 -3.8125zm1.71875 0q0 1.890625 0.828125 2.828125q0.828125 0.9375 2.078125 0.9375q1.25 0 2.0625 -0.9375q0.828125 -0.953125 0.828125 -2.890625q0 -1.828125 -0.828125 -2.765625q-0.828125 -0.9375 -2.0625 -0.9375q-1.25 0 -2.078125 0.9375q-0.828125 0.9375 -0.828125 2.828125zm10.594467 -4.9375l6.875 0l0 8.484375l1.0625 0l0 4.171875l-1.375 0l0 -2.796875l-7.75 0l0 2.796875l-1.375 0l0 -4.171875l0.875 0q1.765625 -2.390625 1.6875 -8.484375zm1.40625 1.390625q-0.1875 4.796875 -1.484375 7.09375l5.296875 0l0 -7.09375l-3.8125 0zm8.182724 -1.390625l5.671875 0l0 1.390625l-4.0 0l0 8.46875l-1.671875 0l0 -9.859375zm6.1641693 4.9375q0 -2.734375 1.53125 -4.0625q1.265625 -1.09375 3.09375 -1.09375q2.03125 0 3.3125 1.34375q1.296875 1.328125 1.296875 3.671875q0 1.90625 -0.578125 3.0q-0.5625 1.078125 -1.65625 1.6875q-1.078125 0.59375 -2.375 0.59375q-2.0625 0 -3.34375 -1.328125q-1.28125 -1.328125 -1.28125 -3.8125zm1.71875 0q0 1.890625 0.828125 2.828125q0.828125 0.9375 2.078125 0.9375q1.25 0 2.0625 -0.9375q0.828125 -0.953125 0.828125 -2.890625q0 -1.828125 -0.828125 -2.765625q-0.828125 -0.9375 -2.0625 -0.9375q-1.25 0 -2.078125 0.9375q-0.828125 0.9375 -0.828125 2.828125zm8.391342 -4.9375l8.0 0l0 1.390625l-3.171875 0l0 8.46875l-1.65625 0l0 -8.46875l-3.171875 0l0 -1.390625zm8.810333 4.9375q0 -2.734375 1.53125 -4.0625q1.265625 -1.09375 3.09375 -1.09375q2.03125 0 3.3125 1.34375q1.296875 1.328125 1.296875 3.671875q0 1.90625 -0.578125 3.0q-0.5625 1.078125 -1.65625 1.6875q-1.078125 0.59375 -2.375 0.59375q-2.0625 0 -3.34375 -1.328125q-1.28125 -1.328125 -1.28125 -3.8125zm1.71875 0q0 1.890625 0.828125 2.828125q0.828125 0.9375 2.078125 0.9375q1.25 0 2.0625 -0.9375q0.828125 -0.953125 0.828125 -2.890625q0 -1.828125 -0.828125 -2.765625q-0.828125 -0.9375 -2.0625 -0.9375q-1.25 0 -2.078125 0.9375q-0.828125 0.9375 -0.828125 2.828125zm9.297592 -4.9375l3.84375 0q1.421875 0 2.109375 0.25q0.6875 0.234375 1.1875 0.859375q0.5 0.625 0.5 1.515625q0 0.703125 -0.296875 1.234375q-0.28125 0.515625 -0.875 0.875q0.703125 0.21875 1.15625 0.859375q0.46875 0.640625 0.46875 1.515625q-0.09375 1.390625 -1.015625 2.078125q-0.90625 0.671875 -2.640625 0.671875l-4.4375 0l0 -9.859375zm1.671875 4.15625l1.78125 0q1.0625 0 1.453125 -0.109375q0.40625 -0.109375 0.71875 -0.453125q0.3125 -0.34375 0.3125 -0.8125q0 -0.78125 -0.546875 -1.078125q-0.546875 -0.3125 -1.890625 -0.3125l-1.828125 0l0 2.765625zm0 4.328125l2.1875 0q1.421875 0 1.953125 -0.328125q0.53125 -0.328125 0.5625 -1.140625q0 -0.46875 -0.3125 -0.875q-0.3125 -0.40625 -0.796875 -0.5q-0.484375 -0.109375 -1.578125 -0.109375l-2.015625 0l0 2.953125zm8.223633 -8.484375l1.671875 0l0 7.515625l4.625 -7.515625l1.8125 0l0 9.859375l-1.671875 0l0 -7.46875l-4.640625 7.46875l-1.796875 0l0 -9.859375zm9.53064 0l8.0 0l0 1.390625l-3.171875 0l0 8.46875l-1.65625 0l0 -8.46875l-3.171875 0l0 -1.390625zm16.185333 6.6875l1.71875 0.21875q-0.40625 1.5 -1.515625 2.34375q-1.09375 0.828125 -2.8125 0.828125q-2.15625 0 -3.421875 -1.328125q-1.265625 -1.328125 -1.265625 -3.734375q0 -2.484375 1.265625 -3.859375q1.28125 -1.375 3.328125 -1.375q1.984375 0 3.234375 1.34375q1.25 1.34375 1.25 3.796875q0 0.140625 -0.015625 0.4375l-7.34375 0q0.09375 1.625 0.921875 2.484375q0.828125 0.859375 2.0625 0.859375q0.90625 0 1.546875 -0.46875q0.65625 -0.484375 1.046875 -1.546875zm-5.484375 -2.703125l5.5 0q-0.109375 -1.234375 -0.625 -1.859375q-0.796875 -0.96875 -2.078125 -0.96875q-1.140625 0 -1.9375 0.78125q-0.78125 0.765625 -0.859375 2.046875zm9.922577 -3.984375l7.765625 0l0 9.859375l-1.65625 0l0 -8.46875l-4.4375 0l0 4.90625q0 1.71875 -0.109375 2.265625q-0.109375 0.546875 -0.609375 0.953125q-0.5 0.40625 -1.453125 0.40625q-0.578125 0 -1.34375 -0.078125l0 -1.390625l0.734375 0q0.515625 0 0.734375 -0.09375q0.234375 -0.109375 0.296875 -0.34375q0.078125 -0.234375 0.078125 -1.515625l0 -6.5zm10.042114 0l1.671875 0l0 3.859375l2.125 0q2.0625 0 3.171875 0.8125q1.125 0.796875 1.125 2.203125q0 1.234375 -0.9375 2.109375q-0.921875 0.875 -2.96875 0.875l-4.1875 0l0 -9.859375zm1.671875 8.484375l1.75 0q1.59375 0 2.265625 -0.390625q0.6875 -0.390625 0.6875 -1.21875q0 -0.640625 -0.5 -1.140625q-0.5 -0.5 -2.21875 -0.5l-1.984375 0l0 3.25zm8.094818 -8.484375l1.671875 0l0 4.109375l4.625 0l0 -4.109375l1.671875 0l0 9.859375l-1.671875 0l0 -4.375l-4.625 0l0 4.375l-1.671875 0l0 -9.859375zm16.724731 8.640625q-0.9375 0.796875 -1.796875 1.125q-0.859375 0.3125 -1.84375 0.3125q-1.609375 0 -2.484375 -0.78125q-0.875 -0.796875 -0.875 -2.03125q0 -0.734375 0.328125 -1.328125q0.328125 -0.59375 0.859375 -0.953125q0.53125 -0.359375 1.203125 -0.546875q0.5 -0.140625 1.484375 -0.25q2.03125 -0.25 2.984375 -0.578125q0 -0.34375 0 -0.4375q0 -1.015625 -0.46875 -1.4375q-0.640625 -0.5625 -1.90625 -0.5625q-1.171875 0 -1.734375 0.40625q-0.5625 0.40625 -0.828125 1.46875l-1.640625 -0.234375q0.234375 -1.046875 0.734375 -1.6875q0.515625 -0.640625 1.46875 -0.984375q0.96875 -0.359375 2.25 -0.359375q1.265625 0 2.046875 0.296875q0.78125 0.296875 1.15625 0.75q0.375 0.453125 0.515625 1.140625q0.09375 0.421875 0.09375 1.53125l0 2.234375q0 2.328125 0.09375 2.953125q0.109375 0.609375 0.4375 1.171875l-1.75 0q-0.265625 -0.515625 -0.328125 -1.21875zm-0.140625 -3.71875q-0.90625 0.359375 -2.734375 0.625q-1.03125 0.140625 -1.453125 0.328125q-0.421875 0.1875 -0.65625 0.546875q-0.234375 0.359375 -0.234375 0.796875q0 0.671875 0.5 1.125q0.515625 0.4375 1.484375 0.4375q0.96875 0 1.71875 -0.421875q0.75 -0.4375 1.109375 -1.15625q0.265625 -0.578125 0.265625 -1.671875l0 -0.609375zm11.844452 -4.921875l0 9.859375l-1.671875 0l0 -3.84375l-0.953125 0q-0.890625 0 -1.328125 0.234375q-0.421875 0.21875 -1.25 1.453125l-1.453125 2.15625l-2.078125 0l1.8125 -2.65625q0.8125 -1.21875 1.640625 -1.375q-1.4375 -0.1875 -2.125 -1.015625q-0.6875 -0.84375 -0.6875 -1.9375q0 -1.265625 0.90625 -2.0625q0.90625 -0.8125 2.609375 -0.8125l4.578125 0zm-1.671875 1.390625l-2.375 0q-1.484375 0 -1.921875 0.46875q-0.4375 0.453125 -0.4375 1.078125q0 0.875 0.640625 1.296875q0.640625 0.40625 2.25 0.40625l1.84375 0l0 -3.25zm8.582611 -1.390625l1.671875 0l0 1.875q0 1.203125 0.140625 1.75q0.140625 0.53125 0.6875 0.9375q0.546875 0.40625 1.375 0.40625q0.953125 0 2.453125 -0.5l0 -4.46875l1.671875 0l0 9.859375l-1.671875 0l0 -3.96875q-1.546875 0.484375 -2.875 0.484375q-1.125 0 -1.984375 -0.5625q-0.859375 -0.578125 -1.171875 -1.40625q-0.296875 -0.828125 -0.296875 -1.828125l0 -2.578125zm16.766724 8.640625q-0.9375 0.796875 -1.796875 1.125q-0.859375 0.3125 -1.84375 0.3125q-1.609375 0 -2.484375 -0.78125q-0.875 -0.796875 -0.875 -2.03125q0 -0.734375 0.328125 -1.328125q0.328125 -0.59375 0.859375 -0.953125q0.53125 -0.359375 1.203125 -0.546875q0.5 -0.140625 1.484375 -0.25q2.03125 -0.25 2.984375 -0.578125q0 -0.34375 0 -0.4375q0 -1.015625 -0.46875 -1.4375q-0.640625 -0.5625 -1.90625 -0.5625q-1.171875 0 -1.734375 0.40625q-0.5625 0.40625 -0.828125 1.46875l-1.640625 -0.234375q0.234375 -1.046875 0.734375 -1.6875q0.515625 -0.640625 1.46875 -0.984375q0.96875 -0.359375 2.25 -0.359375q1.265625 0 2.046875 0.296875q0.78125 0.296875 1.15625 0.75q0.375 0.453125 0.515625 1.140625q0.09375 0.421875 0.09375 1.53125l0 2.234375q0 2.328125 0.09375 2.953125q0.109375 0.609375 0.4375 1.171875l-1.75 0q-0.265625 -0.515625 -0.328125 -1.21875zm-0.140625 -3.71875q-0.90625 0.359375 -2.734375 0.625q-1.03125 0.140625 -1.453125 0.328125q-0.421875 0.1875 -0.65625 0.546875q-0.234375 0.359375 -0.234375 0.796875q0 0.671875 0.5 1.125q0.515625 0.4375 1.484375 0.4375q0.96875 0 1.71875 -0.421875q0.75 -0.4375 1.109375 -1.15625q0.265625 -0.578125 0.265625 -1.671875l0 -0.609375zm10.516327 1.328125l1.640625 0.21875q-0.265625 1.6875 -1.375 2.65625q-1.109375 0.953125 -2.734375 0.953125q-2.015625 0 -3.25 -1.3125q-1.21875 -1.328125 -1.21875 -3.796875q0 -1.59375 0.515625 -2.78125q0.53125 -1.203125 1.609375 -1.796875q1.09375 -0.609375 2.359375 -0.609375q1.609375 0 2.625 0.8125q1.015625 0.8125 1.3125 2.3125l-1.625 0.25q-0.234375 -1.0 -0.828125 -1.5q-0.59375 -0.5 -1.421875 -0.5q-1.265625 0 -2.0625 0.90625q-0.78125 0.90625 -0.78125 2.859375q0 1.984375 0.765625 2.890625q0.765625 0.890625 1.984375 0.890625q0.984375 0 1.640625 -0.59375q0.65625 -0.609375 0.84375 -1.859375zm2.0 -6.25l8.0 0l0 1.390625l-3.171875 0l0 8.46875l-1.65625 0l0 -8.46875l-3.171875 0l0 -1.390625zm9.404083 0l1.671875 0l0 3.859375l2.125 0q2.0625 0 3.171875 0.8125q1.125 0.796875 1.125 2.203125q0 1.234375 -0.9375 2.109375q-0.921875 0.875 -2.96875 0.875l-4.1875 0l0 -9.859375zm1.671875 8.484375l1.75 0q1.59375 0 2.265625 -0.390625q0.6875 -0.390625 0.6875 -1.21875q0 -0.640625 -0.5 -1.140625q-0.5 -0.5 -2.21875 -0.5l-1.984375 0l0 3.25z" fill-rule="nonzero"></path><path fill="#000000" fill-opacity="0.0" d="m877.7987 235.6588l263.62207 0l0 33.448807l-263.62207 0z" fill-rule="nonzero"></path><path fill="#000000" d="m888.06433 252.71942l5.671875 0l0 1.390625l-4.0 0l0 8.46875l-1.671875 0l0 -9.859375zm13.539185 6.6875l1.71875 0.21875q-0.40625 1.5 -1.515625 2.34375q-1.09375 0.828125 -2.8125 0.828125q-2.15625 0 -3.421875 -1.328125q-1.265625 -1.328125 -1.265625 -3.734375q0 -2.484375 1.265625 -3.859375q1.28125 -1.375 3.328125 -1.375q1.984375 0 3.234375 1.34375q1.25 1.34375 1.25 3.796875q0 0.140625 -0.015625 0.4375l-7.34375 0q0.09375 1.625 0.921875 2.484375q0.828125 0.859375 2.0625 0.859375q0.90625 0 1.546875 -0.46875q0.65625 -0.484375 1.046875 -1.546875zm-5.484375 -2.703125l5.5 0q-0.109375 -1.234375 -0.625 -1.859375q-0.796875 -0.96875 -2.078125 -0.96875q-1.140625 0 -1.9375 0.78125q-0.78125 0.765625 -0.859375 2.046875zm9.125732 -3.984375l1.671875 0l0 4.109375l4.625 0l0 -4.109375l1.671875 0l0 9.859375l-1.671875 0l0 -4.375l-4.625 0l0 4.375l-1.671875 0l0 -9.859375zm17.03717 6.6875l1.71875 0.21875q-0.40625 1.5 -1.515625 2.34375q-1.09375 0.828125 -2.8125 0.828125q-2.15625 0 -3.421875 -1.328125q-1.265625 -1.328125 -1.265625 -3.734375q0 -2.484375 1.265625 -3.859375q1.28125 -1.375 3.328125 -1.375q1.984375 0 3.234375 1.34375q1.25 1.34375 1.25 3.796875q0 0.140625 -0.015625 0.4375l-7.34375 0q0.09375 1.625 0.921875 2.484375q0.828125 0.859375 2.0625 0.859375q0.90625 0 1.546875 -0.46875q0.65625 -0.484375 1.046875 -1.546875zm-5.484375 -2.703125l5.5 0q-0.109375 -1.234375 -0.625 -1.859375q-0.796875 -0.96875 -2.078125 -0.96875q-1.140625 0 -1.9375 0.78125q-0.78125 0.765625 -0.859375 2.046875zm9.110107 9.65625l0 -13.640625l1.53125 0l0 1.28125q0.53125 -0.75 1.203125 -1.125q0.6875 -0.375 1.640625 -0.375q1.265625 0 2.234375 0.65625q0.96875 0.640625 1.453125 1.828125q0.5 1.1875 0.5 2.59375q0 1.515625 -0.546875 2.734375q-0.546875 1.203125 -1.578125 1.84375q-1.03125 0.640625 -2.171875 0.640625q-0.84375 0 -1.515625 -0.34375q-0.65625 -0.359375 -1.078125 -0.890625l0 4.796875l-1.671875 0zm1.515625 -8.65625q0 1.90625 0.765625 2.8125q0.78125 0.90625 1.875 0.90625q1.109375 0 1.890625 -0.9375q0.796875 -0.9375 0.796875 -2.921875q0 -1.875 -0.78125 -2.8125q-0.765625 -0.9375 -1.84375 -0.9375q-1.0625 0 -1.890625 1.0q-0.8125 1.0 -0.8125 2.890625zm15.297607 3.65625q-0.9375 0.796875 -1.796875 1.125q-0.859375 0.3125 -1.84375 0.3125q-1.609375 0 -2.484375 -0.78125q-0.875 -0.796875 -0.875 -2.03125q0 -0.734375 0.328125 -1.328125q0.328125 -0.59375 0.859375 -0.953125q0.53125 -0.359375 1.203125 -0.546875q0.5 -0.140625 1.484375 -0.25q2.03125 -0.25 2.984375 -0.578125q0 -0.34375 0 -0.4375q0 -1.015625 -0.46875 -1.4375q-0.640625 -0.5625 -1.90625 -0.5625q-1.171875 0 -1.734375 0.40625q-0.5625 0.40625 -0.828125 1.46875l-1.640625 -0.234375q0.234375 -1.046875 0.734375 -1.6875q0.515625 -0.640625 1.46875 -0.984375q0.96875 -0.359375 2.25 -0.359375q1.265625 0 2.046875 0.296875q0.78125 0.296875 1.15625 0.75q0.375 0.453125 0.515625 1.140625q0.09375 0.421875 0.09375 1.53125l0 2.234375q0 2.328125 0.09375 2.953125q0.109375 0.609375 0.4375 1.171875l-1.75 0q-0.265625 -0.515625 -0.328125 -1.21875zm-0.140625 -3.71875q-0.90625 0.359375 -2.734375 0.625q-1.03125 0.140625 -1.453125 0.328125q-0.421875 0.1875 -0.65625 0.546875q-0.234375 0.359375 -0.234375 0.796875q0 0.671875 0.5 1.125q0.515625 0.4375 1.484375 0.4375q0.96875 0 1.71875 -0.421875q0.75 -0.4375 1.109375 -1.15625q0.265625 -0.578125 0.265625 -1.671875l0 -0.609375zm4.1101074 -4.921875l1.671875 0l0 8.484375l4.625 0l0 -8.484375l1.65625 0l0 8.484375l1.078125 0l0 4.171875l-1.375 0l0 -2.796875l-7.65625 0l0 -9.859375zm10.654175 0l1.671875 0l0 7.515625l4.625 -7.515625l1.8125 0l0 9.859375l-1.671875 0l0 -7.46875l-4.640625 7.46875l-1.796875 0l0 -9.859375zm18.18689 0l0 9.859375l-1.671875 0l0 -3.84375l-0.953125 0q-0.890625 0 -1.328125 0.234375q-0.421875 0.21875 -1.25 1.453125l-1.453125 2.15625l-2.078125 0l1.8125 -2.65625q0.8125 -1.21875 1.640625 -1.375q-1.4375 -0.1875 -2.125 -1.015625q-0.6875 -0.84375 -0.6875 -1.9375q0 -1.265625 0.90625 -2.0625q0.90625 -0.8125 2.609375 -0.8125l4.578125 0zm-1.671875 1.390625l-2.375 0q-1.484375 0 -1.921875 0.46875q-0.4375 0.453125 -0.4375 1.078125q0 0.875 0.640625 1.296875q0.640625 0.40625 2.25 0.40625l1.84375 0l0 -3.25zm10.645081 -5.125l8.265625 0l0 11.984375l1.234375 0l0 4.78125l-1.609375 0l0 -3.171875l-8.984375 0l0 3.171875l-1.609375 0l0 -4.78125l1.0625 0q1.640625 -2.46875 1.640625 -10.0l0 -1.984375zm6.46875 1.59375l-4.734375 0l0 0.703125q0 1.734375 -0.3125 4.75q-0.3125 3.0 -1.21875 4.9375l6.265625 0l0 -10.390625zm3.5567627 -1.59375l1.8125 0l4.4375 8.328125l3.875 -8.328125l1.796875 0l-5.109375 10.5625q-0.953125 1.984375 -1.5625 2.609375q-0.609375 0.609375 -1.75 0.609375q-0.703125 0 -1.703125 -0.328125l0 -1.53125q0.71875 0.40625 1.53125 0.40625q0.65625 0 1.125 -0.421875q0.484375 -0.421875 1.0625 -1.921875l-5.515625 -9.984375zm13.148315 13.59375l0 -13.59375l5.109375 0q1.546875 0 2.484375 0.40625q0.953125 0.40625 1.484375 1.265625q0.53125 0.859375 0.53125 1.796875q0 0.875 -0.46875 1.65625q-0.46875 0.765625 -1.4375 1.234375q1.234375 0.359375 1.890625 1.234375q0.671875 0.875 0.671875 2.0625q0 0.953125 -0.40625 1.78125q-0.390625 0.8125 -0.984375 1.265625q-0.59375 0.4375 -1.5 0.671875q-0.890625 0.21875 -2.1875 0.21875l-5.1875 0zm1.796875 -7.890625l2.9375 0q1.203125 0 1.71875 -0.15625q0.6875 -0.203125 1.03125 -0.671875q0.359375 -0.46875 0.359375 -1.1875q0 -0.671875 -0.328125 -1.1875q-0.328125 -0.515625 -0.9375 -0.703125q-0.59375 -0.203125 -2.0625 -0.203125l-2.71875 0l0 4.109375zm0 6.28125l3.390625 0q0.875 0 1.21875 -0.0625q0.625 -0.109375 1.046875 -0.359375q0.421875 -0.265625 0.6875 -0.765625q0.265625 -0.5 0.265625 -1.140625q0 -0.765625 -0.390625 -1.328125q-0.390625 -0.5625 -1.078125 -0.78125q-0.6875 -0.234375 -1.984375 -0.234375l-3.15625 0l0 4.671875z" fill-rule="nonzero"></path></g></svg>

