<?xml version="1.0" standalone="yes"?>

<svg version="1.1" viewBox="0.0 0.0 685.4803149606299 315.6509186351706" fill="none" stroke="none" stroke-linecap="square" stroke-miterlimit="10" xmlns="http://www.w3.org/2000/svg" xmlns:xlink="http://www.w3.org/1999/xlink"><clipPath id="p.0"><path d="m0 0l685.4803 0l0 315.6509l-685.4803 0l0 -315.6509z" clip-rule="nonzero"></path></clipPath><g clip-path="url(#p.0)"><path fill="#000000" fill-opacity="0.0" d="m0 0l685.4803 0l0 315.6509l-685.4803 0z" fill-rule="nonzero"></path><path fill="#cfe2f3" d="m313.25916 38.652187l63.93701 0l0 57.574802l-63.93701 0z" fill-rule="nonzero"></path><path stroke="#000000" stroke-width="2.0" stroke-linejoin="round" stroke-linecap="butt" d="m313.25916 38.652187l63.93701 0l0 57.574802l-63.93701 0z" fill-rule="nonzero"></path><path fill="#000000" d="m335.77844 71.72959l2.125 -0.140625q0 0.921875 0.28125 1.5625q0.28125 0.640625 1.03125 1.0625q0.75 0.40625 1.765625 0.40625q1.40625 0 2.109375 -0.5625q0.703125 -0.5625 0.703125 -1.328125q0 -0.546875 -0.421875 -1.046875q-0.4375 -0.484375 -2.125 -1.203125q-1.671875 -0.71875 -2.140625 -1.015625q-0.78125 -0.484375 -1.1875 -1.125q-0.390625 -0.65625 -0.390625 -1.5q0 -1.484375 1.171875 -2.53125q1.171875 -1.0625038 3.28125 -1.0625038q2.34375 0 3.5625 1.0937538q1.21875 1.078125 1.265625 2.84375l-2.0625 0.140625q-0.046875 -1.125 -0.796875 -1.78125q-0.75 -0.65625 -2.125 -0.65625q-1.109375 0 -1.71875 0.515625q-0.609375 0.5 -0.609375 1.078125q0 0.59375 0.53125 1.03125q0.359375 0.3125 1.8125 0.9375q2.4375 1.0625 3.078125 1.671875q1.0 0.96875 1.0 2.359375q0 0.9375 -0.5625 1.828125q-0.5625 0.890625 -1.734375 1.421875q-1.171875 0.53125 -2.75 0.53125q-2.15625 0 -3.671875 -1.0625q-1.5 -1.078125 -1.421875 -3.46875z" fill-rule="nonzero"></path><path fill="#000000" d="m347.45032 79.32334q0 -2.03125 0.40625 -3.265625q0.421875 -1.234375 1.25 -1.90625q0.828125 -0.671875 2.078125 -0.671875q0.921875 0 1.609375 0.375q0.703125 0.359375 1.15625 1.0625q0.453125 0.703125 0.703125 1.703125q0.265625 1.0 0.265625 2.703125q0 2.015625 -0.421875 3.265625q-0.40625 1.234375 -1.234375 1.921875q-0.828125 0.671875 -2.078125 0.671875q-1.65625 0 -2.609375 -1.203125q-1.125 -1.421875 -1.125 -4.65625zm1.4375 0q0 2.828125 0.65625 3.765625q0.671875 0.921875 1.640625 0.921875q0.96875 0 1.625 -0.9375q0.65625 -0.9375 0.65625 -3.75q0 -2.828125 -0.65625 -3.75q-0.65625 -0.9375 -1.640625 -0.9375q-0.96875 0 -1.546875 0.828125q-0.734375 1.046875 -0.734375 3.859375z" fill-rule="nonzero"></path><path fill="#cfe2f3" d="m377.1825 38.652187l63.93701 0l0 57.574802l-63.93701 0z" fill-rule="nonzero"></path><path stroke="#000000" stroke-width="2.0" stroke-linejoin="round" stroke-linecap="butt" d="m377.1825 38.652187l63.93701 0l0 57.574802l-63.93701 0z" fill-rule="nonzero"></path><path fill="#000000" d="m399.70178 71.72959l2.125 -0.140625q0 0.921875 0.28125 1.5625q0.28125 0.640625 1.03125 1.0625q0.75 0.40625 1.765625 0.40625q1.40625 0 2.109375 -0.5625q0.703125 -0.5625 0.703125 -1.328125q0 -0.546875 -0.421875 -1.046875q-0.4375 -0.484375 -2.125 -1.203125q-1.671875 -0.71875 -2.140625 -1.015625q-0.78125 -0.484375 -1.1875 -1.125q-0.390625 -0.65625 -0.390625 -1.5q0 -1.484375 1.171875 -2.53125q1.171875 -1.0625038 3.28125 -1.0625038q2.34375 0 3.5625 1.0937538q1.21875 1.078125 1.265625 2.84375l-2.0625 0.140625q-0.046875 -1.125 -0.796875 -1.78125q-0.75 -0.65625 -2.125 -0.65625q-1.109375 0 -1.71875 0.515625q-0.609375 0.5 -0.609375 1.078125q0 0.59375 0.53125 1.03125q0.359375 0.3125 1.8125 0.9375q2.4375 1.0625 3.078125 1.671875q1.0 0.96875 1.0 2.359375q0 0.9375 -0.5625 1.828125q-0.5625 0.890625 -1.734375 1.421875q-1.171875 0.53125 -2.75 0.53125q-2.15625 0 -3.671875 -1.0625q-1.5 -1.078125 -1.421875 -3.46875z" fill-rule="nonzero"></path><path fill="#000000" d="m416.67053 84.97959l-1.40625 0l0 -8.96875q-0.515625 0.484375 -1.34375 0.96875q-0.8125 0.484375 -1.46875 0.734375l0 -1.359375q1.171875 -0.5625 2.046875 -1.34375q0.890625 -0.796875 1.265625 -1.53125l0.90625 0l0 11.5z" fill-rule="nonzero"></path><path fill="#cfe2f3" d="m441.10587 38.652187l63.93701 0l0 57.574802l-63.93701 0z" fill-rule="nonzero"></path><path stroke="#000000" stroke-width="2.0" stroke-linejoin="round" stroke-linecap="butt" d="m441.10587 38.652187l63.93701 0l0 57.574802l-63.93701 0z" fill-rule="nonzero"></path><path fill="#000000" d="m463.62515 71.72959l2.125 -0.140625q0 0.921875 0.28125 1.5625q0.28125 0.640625 1.03125 1.0625q0.75 0.40625 1.765625 0.40625q1.40625 0 2.109375 -0.5625q0.703125 -0.5625 0.703125 -1.328125q0 -0.546875 -0.421875 -1.046875q-0.4375 -0.484375 -2.125 -1.203125q-1.671875 -0.71875 -2.140625 -1.015625q-0.78125 -0.484375 -1.1875 -1.125q-0.390625 -0.65625 -0.390625 -1.5q0 -1.484375 1.171875 -2.53125q1.171875 -1.0625038 3.28125 -1.0625038q2.34375 0 3.5625 1.0937538q1.21875 1.078125 1.265625 2.84375l-2.0625 0.140625q-0.046875 -1.125 -0.796875 -1.78125q-0.75 -0.65625 -2.125 -0.65625q-1.109375 0 -1.71875 0.515625q-0.609375 0.5 -0.609375 1.078125q0 0.59375 0.53125 1.03125q0.359375 0.3125 1.8125 0.9375q2.4375 1.0625 3.078125 1.671875q1.0 0.96875 1.0 2.359375q0 0.9375 -0.5625 1.828125q-0.5625 0.890625 -1.734375 1.421875q-1.171875 0.53125 -2.75 0.53125q-2.15625 0 -3.671875 -1.0625q-1.5 -1.078125 -1.421875 -3.46875z" fill-rule="nonzero"></path><path fill="#000000" d="m482.68765 83.62022l0 1.359375l-7.578125 0q-0.015625 -0.515625 0.171875 -0.984375q0.28125 -0.765625 0.921875 -1.515625q0.640625 -0.75 1.84375 -1.734375q1.859375 -1.53125 2.515625 -2.421875q0.65625 -0.90625 0.65625 -1.703125q0 -0.828125 -0.59375 -1.40625q-0.59375 -0.578125 -1.5625 -0.578125q-1.015625 0 -1.625 0.609375q-0.609375 0.609375 -0.609375 1.6875l-1.453125 -0.140625q0.15625 -1.625 1.125 -2.46875q0.96875 -0.84375 2.59375 -0.84375q1.65625 0 2.609375 0.921875q0.96875 0.90625 0.96875 2.25q0 0.6875 -0.28125 1.359375q-0.28125 0.65625 -0.9375 1.390625q-0.65625 0.734375 -2.171875 2.015625q-1.265625 1.0625 -1.625 1.453125q-0.359375 0.375 -0.59375 0.75l5.625 0z" fill-rule="nonzero"></path><path fill="#cfe2f3" d="m505.0292 38.652187l63.937042 0l0 57.574802l-63.937042 0z" fill-rule="nonzero"></path><path stroke="#000000" stroke-width="2.0" stroke-linejoin="round" stroke-linecap="butt" d="m505.0292 38.652187l63.937042 0l0 57.574802l-63.937042 0z" fill-rule="nonzero"></path><path fill="#000000" d="m527.5485 71.72959l2.125 -0.140625q0 0.921875 0.28125 1.5625q0.28125 0.640625 1.03125 1.0625q0.75 0.40625 1.765625 0.40625q1.40625 0 2.109375 -0.5625q0.703125 -0.5625 0.703125 -1.328125q0 -0.546875 -0.421875 -1.046875q-0.4375 -0.484375 -2.125 -1.203125q-1.671875 -0.71875 -2.140625 -1.015625q-0.78125 -0.484375 -1.1875 -1.125q-0.390625 -0.65625 -0.390625 -1.5q0 -1.484375 1.171875 -2.53125q1.171875 -1.0625038 3.28125 -1.0625038q2.34375 0 3.5625 1.0937538q1.21875 1.078125 1.265625 2.84375l-2.0625 0.140625q-0.046875 -1.125 -0.796875 -1.78125q-0.75 -0.65625 -2.125 -0.65625q-1.109375 0 -1.71875 0.515625q-0.609375 0.5 -0.609375 1.078125q0 0.59375 0.53125 1.03125q0.359375 0.3125 1.8125 0.9375q2.4375 1.0625 3.078125 1.671875q1.0 0.96875 1.0 2.359375q0 0.9375 -0.5625 1.828125q-0.5625 0.890625 -1.734375 1.421875q-1.171875 0.53125 -2.75 0.53125q-2.15625 0 -3.671875 -1.0625q-1.5 -1.078125 -1.421875 -3.46875z" fill-rule="nonzero"></path><path fill="#000000" d="m539.2204 81.94834l1.40625 -0.1875q0.25 1.203125 0.828125 1.734375q0.578125 0.515625 1.421875 0.515625q0.984375 0 1.671875 -0.6875q0.6875 -0.6875 0.6875 -1.703125q0 -0.96875 -0.640625 -1.59375q-0.625 -0.625 -1.609375 -0.625q-0.390625 0 -0.984375 0.15625l0.15625 -1.234375q0.140625 0.015625 0.21875 0.015625q0.90625 0 1.625 -0.46875q0.71875 -0.46875 0.71875 -1.453125q0 -0.765625 -0.53125 -1.265625q-0.515625 -0.515625 -1.34375 -0.515625q-0.828125 0 -1.375 0.515625q-0.546875 0.515625 -0.703125 1.546875l-1.40625 -0.25q0.265625 -1.421875 1.171875 -2.1875q0.921875 -0.78125 2.28125 -0.78125q0.9375 0 1.71875 0.40625q0.796875 0.390625 1.203125 1.09375q0.421875 0.6875 0.421875 1.46875q0 0.75 -0.40625 1.359375q-0.390625 0.609375 -1.171875 0.96875q1.015625 0.234375 1.578125 0.96875q0.5625 0.734375 0.5625 1.84375q0 1.5 -1.09375 2.546875q-1.09375 1.046875 -2.765625 1.046875q-1.5 0 -2.5 -0.890625q-1.0 -0.90625 -1.140625 -2.34375z" fill-rule="nonzero"></path><path fill="#cfe2f3" d="m568.9526 38.652187l63.93701 0l0 57.574802l-63.93701 0z" fill-rule="nonzero"></path><path stroke="#000000" stroke-width="2.0" stroke-linejoin="round" stroke-linecap="butt" d="m568.9526 38.652187l63.93701 0l0 57.574802l-63.93701 0z" fill-rule="nonzero"></path><path fill="#000000" d="m591.47186 71.72959l2.125 -0.140625q0 0.921875 0.28125 1.5625q0.28125 0.640625 1.03125 1.0625q0.75 0.40625 1.765625 0.40625q1.40625 0 2.109375 -0.5625q0.703125 -0.5625 0.703125 -1.328125q0 -0.546875 -0.421875 -1.046875q-0.4375 -0.484375 -2.125 -1.203125q-1.671875 -0.71875 -2.140625 -1.015625q-0.78125 -0.484375 -1.1875 -1.125q-0.390625 -0.65625 -0.390625 -1.5q0 -1.484375 1.171875 -2.53125q1.171875 -1.0625038 3.28125 -1.0625038q2.34375 0 3.5625 1.0937538q1.21875 1.078125 1.265625 2.84375l-2.0625 0.140625q-0.046875 -1.125 -0.796875 -1.78125q-0.75 -0.65625 -2.125 -0.65625q-1.109375 0 -1.71875 0.515625q-0.609375 0.5 -0.609375 1.078125q0 0.59375 0.53125 1.03125q0.359375 0.3125 1.8125 0.9375q2.4375 1.0625 3.078125 1.671875q1.0 0.96875 1.0 2.359375q0 0.9375 -0.5625 1.828125q-0.5625 0.890625 -1.734375 1.421875q-1.171875 0.53125 -2.75 0.53125q-2.15625 0 -3.671875 -1.0625q-1.5 -1.078125 -1.421875 -3.46875z" fill-rule="nonzero"></path><path fill="#000000" d="m607.64374 84.97959l0 -2.75l-4.96875 0l0 -1.28125l5.234375 -7.421875l1.140625 0l0 7.421875l1.546875 0l0 1.28125l-1.546875 0l0 2.75l-1.40625 0zm0 -4.03125l0 -5.171875l-3.578125 5.171875l3.578125 0z" fill-rule="nonzero"></path><path stroke="#9e9e9e" stroke-width="1.0" stroke-linecap="butt" d="m3.6829183 182.02226l0 127.79002" fill-rule="nonzero"></path><path stroke="#9e9e9e" stroke-width="1.0" stroke-linecap="butt" d="m172.09499 182.02226l0 127.79002" fill-rule="nonzero"></path><path stroke="#9e9e9e" stroke-width="1.0" stroke-linecap="butt" d="m340.50708 182.02226l0 127.79002" fill-rule="nonzero"></path><path stroke="#9e9e9e" stroke-width="1.0" stroke-linecap="butt" d="m512.7249 182.02226l0 127.79002" fill-rule="nonzero"></path><path stroke="#9e9e9e" stroke-width="1.0" stroke-linecap="butt" d="m677.33124 182.02226l0 127.79002" fill-rule="nonzero"></path><path stroke="#9e9e9e" stroke-width="1.0" stroke-linecap="butt" d="m3.1842308 182.52095l674.6457 0" fill-rule="nonzero"></path><path stroke="#9e9e9e" stroke-width="1.0" stroke-linecap="butt" d="m3.1842308 267.7178l674.6457 0" fill-rule="nonzero"></path><path stroke="#9e9e9e" stroke-width="1.0" stroke-linecap="butt" d="m3.1842308 309.3136l674.6457 0" fill-rule="nonzero"></path><path fill="#000000" d="m52.235813 209.44095l0 -13.59375l5.109375 0q1.546875 0 2.484375 0.40625q0.953125 0.40625 1.484375 1.265625q0.53125 0.859375 0.53125 1.796875q0 0.875 -0.46875 1.65625q-0.46875 0.765625 -1.4375 1.234375q1.234375 0.359375 1.890625 1.234375q0.671875 0.875 0.671875 2.0625q0 0.953125 -0.40625 1.78125q-0.390625 0.8125 -0.984375 1.265625q-0.59375 0.4375 -1.5 0.671875q-0.890625 0.21875 -2.1875 0.21875l-5.1875 0zm1.796875 -7.890625l2.9375 0q1.203125 0 1.71875 -0.15625q0.6875 -0.203125 1.03125 -0.671875q0.359375 -0.46875 0.359375 -1.1875q0 -0.671875 -0.328125 -1.1875q-0.328125 -0.515625 -0.9375 -0.703125q-0.59375 -0.203125 -2.0625 -0.203125l-2.71875 0l0 4.109375zm0 6.28125l3.390625 0q0.875 0 1.21875 -0.0625q0.625 -0.109375 1.046875 -0.359375q0.421875 -0.265625 0.6875 -0.765625q0.265625 -0.5 0.265625 -1.140625q0 -0.765625 -0.390625 -1.328125q-0.390625 -0.5625 -1.078125 -0.78125q-0.6875 -0.234375 -1.984375 -0.234375l-3.15625 0l0 4.671875zm9.396698 1.609375l3.5937462 -5.125l-3.3281212 -4.734375l2.0937462 0l1.515625 2.3125q0.421875 0.65625 0.671875 1.109375q0.421875 -0.609375 0.765625 -1.09375l1.65625 -2.328125l1.984375 0l-3.390625 4.640625l3.65625 5.21875l-2.046875 0l-2.03125 -3.0625l-0.53125 -0.828125l-2.59375 3.890625l-2.0156212 0zm9.812496 -4.921875q0 -2.734375 1.53125 -4.0625q1.265625 -1.09375 3.09375 -1.09375q2.03125 0 3.3125 1.34375q1.296875 1.328125 1.296875 3.671875q0 1.90625 -0.578125 3.0q-0.5625 1.078125 -1.65625 1.6875q-1.078125 0.59375 -2.375 0.59375q-2.0625 0 -3.34375 -1.328125q-1.28125 -1.328125 -1.28125 -3.8125zm1.71875 0q0 1.890625 0.828125 2.828125q0.828125 0.9375 2.078125 0.9375q1.25 0 2.0625 -0.9375q0.828125 -0.953125 0.828125 -2.890625q0 -1.828125 -0.828125 -2.765625q-0.828125 -0.9375 -2.0625 -0.9375q-1.25 0 -2.078125 0.9375q-0.828125 0.9375 -0.828125 2.828125zm10.594467 -4.9375l6.875 0l0 8.484375l1.0625 0l0 4.171875l-1.375 0l0 -2.796875l-7.75 0l0 2.796875l-1.375 0l0 -4.171875l0.875 0q1.765625 -2.390625 1.6875 -8.484375zm1.40625 1.390625q-0.1875 4.796875 -1.484375 7.09375l5.296875 0l0 -7.09375l-3.8125 0zm8.182724 -1.390625l1.671875 0l0 4.109375l4.625 0l0 -4.109375l1.671875 0l0 9.859375l-1.671875 0l0 -4.375l-4.625 0l0 4.375l-1.671875 0l0 -9.859375zm9.662216 4.9375q0 -2.734375 1.53125 -4.0625q1.265625 -1.09375 3.09375 -1.09375q2.03125 0 3.3125 1.34375q1.296875 1.328125 1.296875 3.671875q0 1.90625 -0.578125 3.0q-0.5625 1.078125 -1.65625 1.6875q-1.078125 0.59375 -2.375 0.59375q-2.0625 0 -3.34375 -1.328125q-1.28125 -1.328125 -1.28125 -3.8125zm1.71875 0q0 1.890625 0.828125 2.828125q0.828125 0.9375 2.078125 0.9375q1.25 0 2.0625 -0.9375q0.828125 -0.953125 0.828125 -2.890625q0 -1.828125 -0.828125 -2.765625q-0.828125 -0.9375 -2.0625 -0.9375q-1.25 0 -2.078125 0.9375q-0.828125 0.9375 -0.828125 2.828125zm16.031967 1.75l1.71875 0.21875q-0.40625 1.5 -1.515625 2.34375q-1.09375 0.828125 -2.8125 0.828125q-2.15625 0 -3.421875 -1.328125q-1.265625 -1.328125 -1.265625 -3.734375q0 -2.484375 1.265625 -3.859375q1.28125 -1.375 3.328125 -1.375q1.984375 0 3.234375 1.34375q1.25 1.34375 1.25 3.796875q0 0.140625 -0.015625 0.4375l-7.34375 0q0.09375 1.625 0.921875 2.484375q0.828125 0.859375 2.0625 0.859375q0.90625 0 1.546875 -0.46875q0.65625 -0.484375 1.046875 -1.546875zm-5.484375 -2.703125l5.5 0q-0.109375 -1.234375 -0.625 -1.859375q-0.796875 -0.96875 -2.078125 -0.96875q-1.140625 0 -1.9375 0.78125q-0.78125 0.765625 -0.859375 2.046875z" fill-rule="nonzero"></path><path fill="#000000" d="m59.006382 227.83157l1.640625 0.21875q-0.265625 1.6875 -1.375 2.65625q-1.109375 0.953125 -2.734375 0.953125q-2.015625 0 -3.25 -1.3125q-1.21875 -1.328125 -1.21875 -3.796875q0 -1.59375 0.515625 -2.78125q0.53125 -1.203125 1.609375 -1.796875q1.09375 -0.609375 2.359375 -0.609375q1.609375 0 2.625 0.8125q1.015625 0.8125 1.3125 2.3125l-1.625 0.25q-0.234375 -1.0 -0.828125 -1.5q-0.59375 -0.5 -1.421875 -0.5q-1.265625 0 -2.0625 0.90625q-0.78125 0.90625 -0.78125 2.859375q0 1.984375 0.765625 2.890625q0.765625 0.890625 1.984375 0.890625q0.984375 0 1.640625 -0.59375q0.65625 -0.609375 0.84375 -1.859375zm2.265625 -1.3125q0 -2.734375 1.53125 -4.0625q1.2656212 -1.09375 3.0937462 -1.09375q2.03125 0 3.3125 1.34375q1.296875 1.328125 1.296875 3.671875q0 1.90625 -0.578125 3.0q-0.5625 1.078125 -1.65625 1.6875q-1.078125 0.59375 -2.375 0.59375q-2.0624962 0 -3.3437462 -1.328125q-1.28125 -1.328125 -1.28125 -3.8125zm1.71875 0q0 1.890625 0.828125 2.828125q0.8281212 0.9375 2.0781212 0.9375q1.25 0 2.0625 -0.9375q0.828125 -0.953125 0.828125 -2.890625q0 -1.828125 -0.828125 -2.765625q-0.828125 -0.9375 -2.0625 -0.9375q-1.25 0 -2.0781212 0.9375q-0.828125 0.9375 -0.828125 2.828125zm16.500713 -9.0l1.484375 0.015625q-0.109375 0.984375 -0.453125 1.375q-0.328125 0.390625 -0.875 0.515625q-0.53125 0.109375 -2.078125 0.109375q-2.078125 0 -2.828125 0.40625q-0.75 0.390625 -1.078125 1.265625q-0.328125 0.875 -0.375 2.25q0.640625 -0.9375 1.484375 -1.40625q0.84375 -0.46875 1.90625 -0.46875q1.9375 0 3.203125 1.34375q1.265625 1.328125 1.265625 3.59375q0 1.734375 -0.640625 2.84375q-0.640625 1.09375 -1.515625 1.703125q-0.875 0.59375 -2.390625 0.59375q-1.75 0 -2.71875 -0.796875q-0.96875 -0.796875 -1.5 -2.046875q-0.515625 -1.265625 -0.515625 -4.375q0 -3.90625 1.3125 -5.25q1.328125 -1.359375 4.078125 -1.359375q1.703125 0 1.9375 -0.046875q0.234375 -0.0625 0.296875 -0.265625zm-0.078125 8.953125q0 -1.53125 -0.734375 -2.515625q-0.71875 -0.984375 -2.046875 -0.984375q-1.390625 0 -2.140625 1.046875q-0.75 1.03125 -0.75 2.765625q0 1.71875 0.828125 2.625q0.828125 0.90625 2.046875 0.90625q1.25 0 2.015625 -1.046875q0.78125 -1.0625 0.78125 -2.796875zm12.919815 -4.890625l1.671875 0l0 9.859375l-1.671875 0l0 -9.859375zm-9.328125 0l1.65625 0l0 3.859375l2.125 0q2.0625 0 3.171875 0.8125q1.125 0.796875 1.125 2.203125q0 1.234375 -0.9375 2.109375q-0.921875 0.875 -2.96875 0.875l-4.171875 0l0 -9.859375zm1.65625 8.484375l1.765625 0q1.578125 0 2.25 -0.390625q0.6875 -0.390625 0.6875 -1.21875q0 -0.640625 -0.5 -1.140625q-0.5 -0.5 -2.21875 -0.5l-1.984375 0l0 3.25zm10.81543 -8.484375l8.0 0l0 1.390625l-3.171875 0l0 8.46875l-1.65625 0l0 -8.46875l-3.171875 0l0 -1.390625zm9.435333 0l1.671875 0l0 7.515625l4.625 -7.515625l1.8125 0l0 9.859375l-1.671875 0l0 -7.46875l-4.640625 7.46875l-1.796875 0l0 -9.859375zm17.171265 6.6875l1.71875 0.21875q-0.40625 1.5 -1.515625 2.34375q-1.09375 0.828125 -2.8125 0.828125q-2.15625 0 -3.421875 -1.328125q-1.265625 -1.328125 -1.265625 -3.734375q0 -2.484375 1.265625 -3.859375q1.28125 -1.375 3.328125 -1.375q1.984375 0 3.234375 1.34375q1.25 1.34375 1.25 3.796875q0 0.140625 -0.015625 0.4375l-7.34375 0q0.09375 1.625 0.921875 2.484375q0.828125 0.859375 2.0625 0.859375q0.90625 0 1.546875 -0.46875q0.65625 -0.484375 1.046875 -1.546875zm-5.484375 -2.703125l5.5 0q-0.109375 -1.234375 -0.625 -1.859375q-0.796875 -0.96875 -2.078125 -0.96875q-1.140625 0 -1.9375 0.78125q-0.78125 0.765625 -0.859375 2.046875z" fill-rule="nonzero"></path><path fill="#000000" d="m215.58524 205.5972l1.71875 -0.4375q0.203125 0.984375 1.046875 1.984375q0.84375 0.984375 2.25 0.984375q1.421875 0 2.25 -0.734375q0.828125 -0.734375 0.828125 -1.765625q0 -1.125 -0.875 -1.78125q-0.875 -0.671875 -2.375 -0.671875l-0.859375 0l0 -1.5625q1.25 0 1.90625 -0.140625q0.65625 -0.15625 1.15625 -0.734375q0.515625 -0.59375 0.515625 -1.34375q0 -0.890625 -0.703125 -1.546875q-0.6875 -0.65625 -1.859375 -0.65625q-1.03125 0 -1.765625 0.515625q-0.71875 0.515625 -1.0 1.359375q-0.28125 0.84375 -0.28125 1.265625l-1.71875 -0.390625q0.640625 -4.328125 4.78125 -4.328125q2.0 0 3.15625 1.109375q1.171875 1.109375 1.171875 2.59375q0 1.890625 -1.796875 2.9375q1.046875 0.296875 1.734375 1.1875q0.703125 0.875 0.703125 2.109375q0 1.75 -1.359375 2.9375q-1.359375 1.1875 -3.59375 1.1875q-3.859375 0 -5.03125 -4.078125zm11.815323 -6.015625l1.671875 0l0 4.109375l4.625 0l0 -4.109375l1.671875 0l0 9.859375l-1.671875 0l0 -4.375l-4.625 0l0 4.375l-1.671875 0l0 -9.859375zm16.724716 8.640625q-0.9375 0.796875 -1.796875 1.125q-0.859375 0.3125 -1.84375 0.3125q-1.609375 0 -2.484375 -0.78125q-0.875 -0.796875 -0.875 -2.03125q0 -0.734375 0.328125 -1.328125q0.328125 -0.59375 0.859375 -0.953125q0.53125 -0.359375 1.203125 -0.546875q0.5 -0.140625 1.484375 -0.25q2.03125 -0.25 2.984375 -0.578125q0 -0.34375 0 -0.4375q0 -1.015625 -0.46875 -1.4375q-0.640625 -0.5625 -1.90625 -0.5625q-1.171875 0 -1.734375 0.40625q-0.5625 0.40625 -0.828125 1.46875l-1.640625 -0.234375q0.234375 -1.046875 0.734375 -1.6875q0.515625 -0.640625 1.46875 -0.984375q0.96875 -0.359375 2.25 -0.359375q1.265625 0 2.046875 0.296875q0.78125 0.296875 1.15625 0.75q0.375 0.453125 0.515625 1.140625q0.09375 0.421875 0.09375 1.53125l0 2.234375q0 2.328125 0.09375 2.953125q0.109375 0.609375 0.4375 1.171875l-1.75 0q-0.265625 -0.515625 -0.328125 -1.21875zm-0.140625 -3.71875q-0.90625 0.359375 -2.734375 0.625q-1.03125 0.140625 -1.453125 0.328125q-0.421875 0.1875 -0.65625 0.546875q-0.234375 0.359375 -0.234375 0.796875q0 0.671875 0.5 1.125q0.515625 0.4375 1.484375 0.4375q0.96875 0 1.71875 -0.421875q0.75 -0.4375 1.109375 -1.15625q0.265625 -0.578125 0.265625 -1.671875l0 -0.609375zm3.4694672 -4.921875l1.671875 0l0 1.875q0 1.203125 0.140625 1.75q0.140625 0.53125 0.6875 0.9375q0.546875 0.40625 1.375 0.40625q0.953125 0 2.453125 -0.5l0 -4.46875l1.671875 0l0 9.859375l-1.671875 0l0 -3.96875q-1.546875 0.484375 -2.875 0.484375q-1.125 0 -1.984375 -0.5625q-0.859375 -0.578125 -1.171875 -1.40625q-0.296875 -0.828125 -0.296875 -1.828125l0 -2.578125zm17.079208 6.6875l1.71875 0.21875q-0.40625 1.5 -1.515625 2.34375q-1.09375 0.828125 -2.8125 0.828125q-2.15625 0 -3.421875 -1.328125q-1.265625 -1.328125 -1.265625 -3.734375q0 -2.484375 1.265625 -3.859375q1.28125 -1.375 3.328125 -1.375q1.984375 0 3.234375 1.34375q1.25 1.34375 1.25 3.796875q0 0.140625 -0.015625 0.4375l-7.34375 0q0.09375 1.625 0.921875 2.484375q0.828125 0.859375 2.0625 0.859375q0.90625 0 1.546875 -0.46875q0.65625 -0.484375 1.046875 -1.546875zm-5.484375 -2.703125l5.5 0q-0.109375 -1.234375 -0.625 -1.859375q-0.796875 -0.96875 -2.078125 -0.96875q-1.140625 0 -1.9375 0.78125q-0.78125 0.765625 -0.859375 2.046875zm9.125702 -3.984375l1.671875 0l0 4.109375l4.625 0l0 -4.109375l1.671875 0l0 9.859375l-1.671875 0l0 -4.375l-4.625 0l0 4.375l-1.671875 0l0 -9.859375zm10.287231 0l1.671875 0l0 7.515625l4.625 -7.515625l1.8125 0l0 9.859375l-1.671875 0l0 -7.46875l-4.640625 7.46875l-1.796875 0l0 -9.859375zm18.18689 0l0 9.859375l-1.671875 0l0 -3.84375l-0.953125 0q-0.890625 0 -1.328125 0.234375q-0.421875 0.21875 -1.25 1.453125l-1.453125 2.15625l-2.078125 0l1.8125 -2.65625q0.8125 -1.21875 1.640625 -1.375q-1.4375 -0.1875 -2.125 -1.015625q-0.6875 -0.84375 -0.6875 -1.9375q0 -1.265625 0.90625 -2.0625q0.90625 -0.8125 2.609375 -0.8125l4.578125 0zm-1.671875 1.390625l-2.375 0q-1.484375 0 -1.921875 0.46875q-0.4375 0.453125 -0.4375 1.078125q0 0.875 0.640625 1.296875q0.640625 0.40625 2.25 0.40625l1.84375 0l0 -3.25z" fill-rule="nonzero"></path><path fill="#000000" d="m220.79617 221.58157l3.84375 0q1.421875 0 2.109375 0.25q0.6875 0.234375 1.1875 0.859375q0.5 0.625 0.5 1.515625q0 0.703125 -0.296875 1.234375q-0.28125 0.515625 -0.875 0.875q0.703125 0.21875 1.15625 0.859375q0.46875 0.640625 0.46875 1.515625q-0.09375 1.390625 -1.015625 2.078125q-0.90625 0.671875 -2.640625 0.671875l-4.4375 0l0 -9.859375zm1.671875 4.15625l1.78125 0q1.0625 0 1.453125 -0.109375q0.40625 -0.109375 0.71875 -0.453125q0.3125 -0.34375 0.3125 -0.8125q0 -0.78125 -0.546875 -1.078125q-0.546875 -0.3125 -1.890625 -0.3125l-1.828125 0l0 2.765625zm0 4.328125l2.1875 0q1.421875 0 1.953125 -0.328125q0.53125 -0.328125 0.5625 -1.140625q0 -0.46875 -0.3125 -0.875q-0.3125 -0.40625 -0.796875 -0.5q-0.484375 -0.109375 -1.578125 -0.109375l-2.015625 0l0 2.953125zm7.114258 1.375l3.59375 -5.125l-3.328125 -4.734375l2.09375 0l1.515625 2.3125q0.421875 0.65625 0.671875 1.109375q0.421875 -0.609375 0.765625 -1.09375l1.65625 -2.328125l1.984375 0l-3.390625 4.640625l3.65625 5.21875l-2.046875 0l-2.03125 -3.0625l-0.53125 -0.828125l-2.59375 3.890625l-2.015625 0zm9.8125 -4.921875q0 -2.734375 1.53125 -4.0625q1.265625 -1.09375 3.09375 -1.09375q2.03125 0 3.3125 1.34375q1.296875 1.328125 1.296875 3.671875q0 1.90625 -0.578125 3.0q-0.5625 1.078125 -1.65625 1.6875q-1.078125 0.59375 -2.375 0.59375q-2.0625 0 -3.34375 -1.328125q-1.28125 -1.328125 -1.28125 -3.8125zm1.71875 0q0 1.890625 0.828125 2.828125q0.828125 0.9375 2.078125 0.9375q1.25 0 2.0625 -0.9375q0.828125 -0.953125 0.828125 -2.890625q0 -1.828125 -0.828125 -2.765625q-0.828125 -0.9375 -2.0625 -0.9375q-1.25 0 -2.078125 0.9375q-0.828125 0.9375 -0.828125 2.828125zm10.594467 -4.9375l6.8749847 0l0 8.484375l1.0625 0l0 4.171875l-1.375 0l0 -2.796875l-7.7499847 0l0 2.796875l-1.375 0l0 -4.171875l0.875 0q1.765625 -2.390625 1.6875 -8.484375zm1.40625 1.390625q-0.1875 4.796875 -1.484375 7.09375l5.2968597 0l0 -7.09375l-3.8124847 0zm8.182724 -1.390625l1.671875 0l0 4.109375l4.625 0l0 -4.109375l1.671875 0l0 9.859375l-1.671875 0l0 -4.375l-4.625 0l0 4.375l-1.671875 0l0 -9.859375zm19.6622 0l1.671875 0l0 9.859375l-1.671875 0l0 -9.859375zm-9.328125 0l1.65625 0l0 3.859375l2.125 0q2.0625 0 3.171875 0.8125q1.125 0.796875 1.125 2.203125q0 1.234375 -0.9375 2.109375q-0.921875 0.875 -2.96875 0.875l-4.171875 0l0 -9.859375zm1.65625 8.484375l1.765625 0q1.578125 0 2.25 -0.390625q0.6875 -0.390625 0.6875 -1.21875q0 -0.640625 -0.5 -1.140625q-0.5 -0.5 -2.21875 -0.5l-1.984375 0l0 3.25zm10.59668 1.375l3.59375 -5.125l-3.328125 -4.734375l2.09375 0l1.515625 2.3125q0.421875 0.65625 0.671875 1.109375q0.421875 -0.609375 0.765625 -1.09375l1.65625 -2.328125l1.984375 0l-3.390625 4.640625l3.65625 5.21875l-2.046875 0l-2.03125 -3.0625l-0.53125 -0.828125l-2.59375 3.890625l-2.015625 0z" fill-rule="nonzero"></path><path fill="#000000" d="m203.67943 243.58157l7.765625 0l0 9.859375l-1.671875 0l0 -8.46875l-4.421875 0l0 8.46875l-1.671875 0l0 -9.859375zm16.836807 6.6875l1.71875 0.21875q-0.40625 1.5 -1.515625 2.34375q-1.09375 0.828125 -2.8125 0.828125q-2.15625 0 -3.421875 -1.328125q-1.265625 -1.328125 -1.265625 -3.734375q0 -2.484375 1.265625 -3.859375q1.28125 -1.375 3.328125 -1.375q1.984375 0 3.234375 1.34375q1.25 1.34375 1.25 3.796875q0 0.140625 -0.015625 0.4375l-7.34375 0q0.09375 1.625 0.921875 2.484375q0.828125 0.859375 2.0625 0.859375q0.90625 0 1.546875 -0.46875q0.65625 -0.484375 1.046875 -1.546875zm-5.484375 -2.703125l5.5 0q-0.109375 -1.234375 -0.625 -1.859375q-0.796875 -0.96875 -2.078125 -0.96875q-1.140625 0 -1.9375 0.78125q-0.78125 0.765625 -0.859375 2.046875zm9.110092 9.65625l0 -13.640625l1.53125 0l0 1.28125q0.53125 -0.75 1.203125 -1.125q0.6875 -0.375 1.640625 -0.375q1.265625 0 2.234375 0.65625q0.96875 0.640625 1.453125 1.828125q0.5 1.1875 0.5 2.59375q0 1.515625 -0.546875 2.734375q-0.546875 1.203125 -1.578125 1.84375q-1.03125 0.640625 -2.171875 0.640625q-0.84375 0 -1.515625 -0.34375q-0.65625 -0.359375 -1.078125 -0.890625l0 4.796875l-1.671875 0zm1.515625 -8.65625q0 1.90625 0.765625 2.8125q0.78125 0.90625 1.875 0.90625q1.109375 0 1.890625 -0.9375q0.796875 -0.9375 0.796875 -2.921875q0 -1.875 -0.78125 -2.8125q-0.765625 -0.9375 -1.84375 -0.9375q-1.0625 0 -1.890625 1.0q-0.8125 1.0 -0.8125 2.890625zm15.610092 1.703125l1.71875 0.21875q-0.40625 1.5 -1.515625 2.34375q-1.09375 0.828125 -2.8125 0.828125q-2.15625 0 -3.421875 -1.328125q-1.265625 -1.328125 -1.265625 -3.734375q0 -2.484375 1.265625 -3.859375q1.28125 -1.375 3.328125 -1.375q1.984375 0 3.234375 1.34375q1.25 1.34375 1.25 3.796875q0 0.140625 -0.015625 0.4375l-7.34375 0q0.09375 1.625 0.921875 2.484375q0.828125 0.859375 2.0625 0.859375q0.90625 0 1.546875 -0.46875q0.65625 -0.484375 1.046875 -1.546875zm-5.484375 -2.703125l5.5 0q-0.109375 -1.234375 -0.625 -1.859375q-0.796875 -0.96875 -2.078125 -0.96875q-1.140625 0 -1.9375 0.78125q-0.78125 0.765625 -0.859375 2.046875zm9.156967 -3.984375l2.59375 0l2.59375 7.890625l2.875 -7.890625l2.40625 0l0 9.859375l-1.671875 0l0 -7.9375l-2.90625 7.9375l-1.5 0l-2.75 -8.3125l0 8.3125l-1.640625 0l0 -9.859375zm19.529282 6.6875l1.71875 0.21875q-0.40625 1.5 -1.515625 2.34375q-1.09375 0.828125 -2.8125 0.828125q-2.15625 0 -3.421875 -1.328125q-1.265625 -1.328125 -1.265625 -3.734375q0 -2.484375 1.265625 -3.859375q1.28125 -1.375 3.328125 -1.375q1.984375 0 3.234375 1.34375q1.25 1.34375 1.25 3.796875q0 0.140625 -0.015625 0.4375l-7.34375 0q0.09375 1.625 0.921875 2.484375q0.828125 0.859375 2.0625 0.859375q0.90625 0 1.546875 -0.46875q0.65625 -0.484375 1.046875 -1.546875zm-5.484375 -2.703125l5.5 0q-0.109375 -1.234375 -0.625 -1.859375q-0.796875 -0.96875 -2.078125 -0.96875q-1.140625 0 -1.9375 0.78125q-0.78125 0.765625 -0.859375 2.046875zm9.125732 -3.984375l1.671875 0l0 4.109375l4.625 0l0 -4.109375l1.671875 0l0 9.859375l-1.671875 0l0 -4.375l-4.625 0l0 4.375l-1.671875 0l0 -9.859375zm10.302826 0l1.671875 0l0 4.109375l4.625 0l0 -4.109375l1.671875 0l0 9.859375l-1.671875 0l0 -4.375l-4.625 0l0 4.375l-1.671875 0l0 -9.859375zm19.662231 0l1.671875 0l0 9.859375l-1.671875 0l0 -9.859375zm-9.328125 0l1.65625 0l0 3.859375l2.125 0q2.0625 0 3.171875 0.8125q1.125 0.796875 1.125 2.203125q0 1.234375 -0.9375 2.109375q-0.921875 0.875 -2.96875 0.875l-4.171875 0l0 -9.859375zm1.65625 8.484375l1.765625 0q1.578125 0 2.25 -0.390625q0.6875 -0.390625 0.6875 -1.21875q0 -0.640625 -0.5 -1.140625q-0.5 -0.5 -2.21875 -0.5l-1.984375 0l0 3.25zm10.59668 1.375l3.59375 -5.125l-3.328125 -4.734375l2.09375 0l1.515625 2.3125q0.421875 0.65625 0.671875 1.109375q0.421875 -0.609375 0.765625 -1.09375l1.65625 -2.328125l1.984375 0l-3.390625 4.640625l3.65625 5.21875l-2.046875 0l-2.03125 -3.0625l-0.53125 -0.828125l-2.59375 3.890625l-2.015625 0z" fill-rule="nonzero"></path><path fill="#000000" d="m385.9002 205.5972l1.71875 -0.4375q0.203125 0.984375 1.046875 1.984375q0.84375 0.984375 2.25 0.984375q1.421875 0 2.25 -0.734375q0.828125 -0.734375 0.828125 -1.765625q0 -1.125 -0.875 -1.78125q-0.875 -0.671875 -2.375 -0.671875l-0.859375 0l0 -1.5625q1.25 0 1.90625 -0.140625q0.65625 -0.15625 1.15625 -0.734375q0.515625 -0.59375 0.515625 -1.34375q0 -0.890625 -0.703125 -1.546875q-0.6875 -0.65625 -1.859375 -0.65625q-1.03125 0 -1.765625 0.515625q-0.71875 0.515625 -1.0 1.359375q-0.28125 0.84375 -0.28125 1.265625l-1.71875 -0.390625q0.640625 -4.328125 4.78125 -4.328125q2.0 0 3.15625 1.109375q1.171875 1.109375 1.171875 2.59375q0 1.890625 -1.796875 2.9375q1.046875 0.296875 1.734375 1.1875q0.703125 0.875 0.703125 2.109375q0 1.75 -1.359375 2.9375q-1.359375 1.1875 -3.59375 1.1875q-3.859375 0 -5.03125 -4.078125zm11.815308 -6.015625l1.671875 0l0 4.109375l4.625 0l0 -4.109375l1.671875 0l0 9.859375l-1.671875 0l0 -4.375l-4.625 0l0 4.375l-1.671875 0l0 -9.859375zm16.724731 8.640625q-0.9375 0.796875 -1.796875 1.125q-0.859375 0.3125 -1.84375 0.3125q-1.609375 0 -2.484375 -0.78125q-0.875 -0.796875 -0.875 -2.03125q0 -0.734375 0.328125 -1.328125q0.328125 -0.59375 0.859375 -0.953125q0.53125 -0.359375 1.203125 -0.546875q0.5 -0.140625 1.484375 -0.25q2.03125 -0.25 2.984375 -0.578125q0 -0.34375 0 -0.4375q0 -1.015625 -0.46875 -1.4375q-0.640625 -0.5625 -1.90625 -0.5625q-1.171875 0 -1.734375 0.40625q-0.5625 0.40625 -0.828125 1.46875l-1.640625 -0.234375q0.234375 -1.046875 0.734375 -1.6875q0.515625 -0.640625 1.46875 -0.984375q0.96875 -0.359375 2.25 -0.359375q1.265625 0 2.046875 0.296875q0.78125 0.296875 1.15625 0.75q0.375 0.453125 0.515625 1.140625q0.09375 0.421875 0.09375 1.53125l0 2.234375q0 2.328125 0.09375 2.953125q0.109375 0.609375 0.4375 1.171875l-1.75 0q-0.265625 -0.515625 -0.328125 -1.21875zm-0.140625 -3.71875q-0.90625 0.359375 -2.734375 0.625q-1.03125 0.140625 -1.453125 0.328125q-0.421875 0.1875 -0.65625 0.546875q-0.234375 0.359375 -0.234375 0.796875q0 0.671875 0.5 1.125q0.515625 0.4375 1.484375 0.4375q0.96875 0 1.71875 -0.421875q0.75 -0.4375 1.109375 -1.15625q0.265625 -0.578125 0.265625 -1.671875l0 -0.609375zm3.469452 -4.921875l1.671875 0l0 1.875q0 1.203125 0.140625 1.75q0.140625 0.53125 0.6875 0.9375q0.546875 0.40625 1.375 0.40625q0.953125 0 2.453125 -0.5l0 -4.46875l1.671875 0l0 9.859375l-1.671875 0l0 -3.96875q-1.546875 0.484375 -2.875 0.484375q-1.125 0 -1.984375 -0.5625q-0.859375 -0.578125 -1.171875 -1.40625q-0.296875 -0.828125 -0.296875 -1.828125l0 -2.578125zm17.079224 6.6875l1.71875 0.21875q-0.40625 1.5 -1.515625 2.34375q-1.09375 0.828125 -2.8125 0.828125q-2.15625 0 -3.421875 -1.328125q-1.265625 -1.328125 -1.265625 -3.734375q0 -2.484375 1.265625 -3.859375q1.28125 -1.375 3.328125 -1.375q1.984375 0 3.234375 1.34375q1.25 1.34375 1.25 3.796875q0 0.140625 -0.015625 0.4375l-7.34375 0q0.09375 1.625 0.921875 2.484375q0.828125 0.859375 2.0625 0.859375q0.90625 0 1.546875 -0.46875q0.65625 -0.484375 1.046875 -1.546875zm-5.484375 -2.703125l5.5 0q-0.109375 -1.234375 -0.625 -1.859375q-0.796875 -0.96875 -2.078125 -0.96875q-1.140625 0 -1.9375 0.78125q-0.78125 0.765625 -0.859375 2.046875zm9.125702 -3.984375l1.671875 0l0 4.109375l4.625 0l0 -4.109375l1.671875 0l0 9.859375l-1.671875 0l0 -4.375l-4.625 0l0 4.375l-1.671875 0l0 -9.859375zm10.287231 0l1.671875 0l0 7.515625l4.625 -7.515625l1.8125 0l0 9.859375l-1.671875 0l0 -7.46875l-4.640625 7.46875l-1.796875 0l0 -9.859375zm18.18689 0l0 9.859375l-1.671875 0l0 -3.84375l-0.953125 0q-0.890625 0 -1.328125 0.234375q-0.421875 0.21875 -1.25 1.453125l-1.453125 2.15625l-2.078125 0l1.8125 -2.65625q0.8125 -1.21875 1.640625 -1.375q-1.4375 -0.1875 -2.125 -1.015625q-0.6875 -0.84375 -0.6875 -1.9375q0 -1.265625 0.90625 -2.0625q0.90625 -0.8125 2.609375 -0.8125l4.578125 0zm-1.671875 1.390625l-2.375 0q-1.484375 0 -1.921875 0.46875q-0.4375 0.453125 -0.4375 1.078125q0 0.875 0.640625 1.296875q0.640625 0.40625 2.25 0.40625l1.84375 0l0 -3.25z" fill-rule="nonzero"></path><path fill="#000000" d="m384.40656 221.58157l3.84375 0q1.421875 0 2.109375 0.25q0.6875 0.234375 1.1875 0.859375q0.5 0.625 0.5 1.515625q0 0.703125 -0.296875 1.234375q-0.28125 0.515625 -0.875 0.875q0.703125 0.21875 1.15625 0.859375q0.46875 0.640625 0.46875 1.515625q-0.09375 1.390625 -1.015625 2.078125q-0.90625 0.671875 -2.640625 0.671875l-4.4375 0l0 -9.859375zm1.671875 4.15625l1.78125 0q1.0625 0 1.453125 -0.109375q0.40625 -0.109375 0.71875 -0.453125q0.3125 -0.34375 0.3125 -0.8125q0 -0.78125 -0.546875 -1.078125q-0.546875 -0.3125 -1.890625 -0.3125l-1.828125 0l0 2.765625zm0 4.328125l2.1875 0q1.421875 0 1.953125 -0.328125q0.53125 -0.328125 0.5625 -1.140625q0 -0.46875 -0.3125 -0.875q-0.3125 -0.40625 -0.796875 -0.5q-0.484375 -0.109375 -1.578125 -0.109375l-2.015625 0l0 2.953125zm17.598633 -8.484375l1.671875 0l0 9.859375l-1.671875 0l0 -9.859375zm-9.328125 0l1.65625 0l0 3.859375l2.125 0q2.0625 0 3.171875 0.8125q1.125 0.796875 1.125 2.203125q0 1.234375 -0.9375 2.109375q-0.921875 0.875 -2.96875 0.875l-4.171875 0l0 -9.859375zm1.65625 8.484375l1.765625 0q1.578125 0 2.25 -0.390625q0.6875 -0.390625 0.6875 -1.21875q0 -0.640625 -0.5 -1.140625q-0.5 -0.5 -2.21875 -0.5l-1.984375 0l0 3.25zm10.59668 1.375l3.59375 -5.125l-3.328125 -4.734375l2.09375 0l1.515625 2.3125q0.421875 0.65625 0.671875 1.109375q0.421875 -0.609375 0.765625 -1.09375l1.65625 -2.328125l1.984375 0l-3.390625 4.640625l3.65625 5.21875l-2.046875 0l-2.03125 -3.0625l-0.53125 -0.828125l-2.59375 3.890625l-2.015625 0zm9.8125 -4.921875q0 -2.734375 1.53125 -4.0625q1.265625 -1.09375 3.09375 -1.09375q2.03125 0 3.3125 1.34375q1.296875 1.328125 1.296875 3.671875q0 1.90625 -0.578125 3.0q-0.5625 1.078125 -1.65625 1.6875q-1.078125 0.59375 -2.375 0.59375q-2.0625 0 -3.34375 -1.328125q-1.28125 -1.328125 -1.28125 -3.8125zm1.71875 0q0 1.890625 0.828125 2.828125q0.828125 0.9375 2.078125 0.9375q1.25 0 2.0625 -0.9375q0.828125 -0.953125 0.828125 -2.890625q0 -1.828125 -0.828125 -2.765625q-0.828125 -0.9375 -2.0625 -0.9375q-1.25 0 -2.078125 0.9375q-0.828125 0.9375 -0.828125 2.828125zm10.594452 -4.9375l6.875 0l0 8.484375l1.0625 0l0 4.171875l-1.375 0l0 -2.796875l-7.75 0l0 2.796875l-1.375 0l0 -4.171875l0.875 0q1.765625 -2.390625 1.6875 -8.484375zm1.40625 1.390625q-0.1875 4.796875 -1.484375 7.09375l5.296875 0l0 -7.09375l-3.8125 0zm8.182739 -1.390625l1.671875 0l0 4.109375l4.625 0l0 -4.109375l1.671875 0l0 9.859375l-1.671875 0l0 -4.375l-4.625 0l0 4.375l-1.671875 0l0 -9.859375zm19.6622 0l1.671875 0l0 9.859375l-1.671875 0l0 -9.859375zm-9.328125 0l1.65625 0l0 3.859375l2.125 0q2.0625 0 3.171875 0.8125q1.125 0.796875 1.125 2.203125q0 1.234375 -0.9375 2.109375q-0.921875 0.875 -2.96875 0.875l-4.171875 0l0 -9.859375zm1.65625 8.484375l1.765625 0q1.578125 0 2.25 -0.390625q0.6875 -0.390625 0.6875 -1.21875q0 -0.640625 -0.5 -1.140625q-0.5 -0.5 -2.21875 -0.5l-1.984375 0l0 3.25zm10.59668 1.375l3.59375 -5.125l-3.328125 -4.734375l2.09375 0l1.515625 2.3125q0.421875 0.65625 0.671875 1.109375q0.421875 -0.609375 0.765625 -1.09375l1.65625 -2.328125l1.984375 0l-3.390625 4.640625l3.65625 5.21875l-2.046875 0l-2.03125 -3.0625l-0.53125 -0.828125l-2.59375 3.890625l-2.015625 0z" fill-rule="nonzero"></path><path fill="#000000" d="m373.9944 243.58157l7.765625 0l0 9.859375l-1.671875 0l0 -8.46875l-4.421875 0l0 8.46875l-1.671875 0l0 -9.859375zm16.836823 6.6875l1.71875 0.21875q-0.40625 1.5 -1.515625 2.34375q-1.09375 0.828125 -2.8125 0.828125q-2.15625 0 -3.421875 -1.328125q-1.265625 -1.328125 -1.265625 -3.734375q0 -2.484375 1.265625 -3.859375q1.28125 -1.375 3.328125 -1.375q1.984375 0 3.234375 1.34375q1.25 1.34375 1.25 3.796875q0 0.140625 -0.015625 0.4375l-7.34375 0q0.09375 1.625 0.921875 2.484375q0.828125 0.859375 2.0625 0.859375q0.90625 0 1.546875 -0.46875q0.65625 -0.484375 1.046875 -1.546875zm-5.484375 -2.703125l5.5 0q-0.109375 -1.234375 -0.625 -1.859375q-0.796875 -0.96875 -2.078125 -0.96875q-1.140625 0 -1.9375 0.78125q-0.78125 0.765625 -0.859375 2.046875zm9.110077 9.65625l0 -13.640625l1.53125 0l0 1.28125q0.53125 -0.75 1.203125 -1.125q0.6875 -0.375 1.640625 -0.375q1.265625 0 2.234375 0.65625q0.96875 0.640625 1.453125 1.828125q0.5 1.1875 0.5 2.59375q0 1.515625 -0.546875 2.734375q-0.546875 1.203125 -1.578125 1.84375q-1.03125 0.640625 -2.171875 0.640625q-0.84375 0 -1.515625 -0.34375q-0.65625 -0.359375 -1.078125 -0.890625l0 4.796875l-1.671875 0zm1.515625 -8.65625q0 1.90625 0.765625 2.8125q0.78125 0.90625 1.875 0.90625q1.109375 0 1.890625 -0.9375q0.796875 -0.9375 0.796875 -2.921875q0 -1.875 -0.78125 -2.8125q-0.765625 -0.9375 -1.84375 -0.9375q-1.0625 0 -1.890625 1.0q-0.8125 1.0 -0.8125 2.890625zm15.610107 1.703125l1.71875 0.21875q-0.40625 1.5 -1.515625 2.34375q-1.09375 0.828125 -2.8125 0.828125q-2.15625 0 -3.421875 -1.328125q-1.265625 -1.328125 -1.265625 -3.734375q0 -2.484375 1.265625 -3.859375q1.28125 -1.375 3.328125 -1.375q1.984375 0 3.234375 1.34375q1.25 1.34375 1.25 3.796875q0 0.140625 -0.015625 0.4375l-7.34375 0q0.09375 1.625 0.921875 2.484375q0.828125 0.859375 2.0625 0.859375q0.90625 0 1.546875 -0.46875q0.65625 -0.484375 1.046875 -1.546875zm-5.484375 -2.703125l5.5 0q-0.109375 -1.234375 -0.625 -1.859375q-0.796875 -0.96875 -2.078125 -0.96875q-1.140625 0 -1.9375 0.78125q-0.78125 0.765625 -0.859375 2.046875zm9.156952 -3.984375l2.59375 0l2.59375 7.890625l2.875 -7.890625l2.40625 0l0 9.859375l-1.671875 0l0 -7.9375l-2.90625 7.9375l-1.5 0l-2.75 -8.3125l0 8.3125l-1.640625 0l0 -9.859375zm19.529297 6.6875l1.71875 0.21875q-0.40625 1.5 -1.515625 2.34375q-1.09375 0.828125 -2.8125 0.828125q-2.15625 0 -3.421875 -1.328125q-1.265625 -1.328125 -1.265625 -3.734375q0 -2.484375 1.265625 -3.859375q1.28125 -1.375 3.328125 -1.375q1.984375 0 3.234375 1.34375q1.25 1.34375 1.25 3.796875q0 0.140625 -0.015625 0.4375l-7.34375 0q0.09375 1.625 0.921875 2.484375q0.828125 0.859375 2.0625 0.859375q0.90625 0 1.546875 -0.46875q0.65625 -0.484375 1.046875 -1.546875zm-5.484375 -2.703125l5.5 0q-0.109375 -1.234375 -0.625 -1.859375q-0.796875 -0.96875 -2.078125 -0.96875q-1.140625 0 -1.9375 0.78125q-0.78125 0.765625 -0.859375 2.046875zm9.125732 -3.984375l1.671875 0l0 4.109375l4.625 0l0 -4.109375l1.671875 0l0 9.859375l-1.671875 0l0 -4.375l-4.625 0l0 4.375l-1.671875 0l0 -9.859375zm10.302826 0l1.671875 0l0 4.109375l4.625 0l0 -4.109375l1.671875 0l0 9.859375l-1.671875 0l0 -4.375l-4.625 0l0 4.375l-1.671875 0l0 -9.859375zm19.662231 0l1.671875 0l0 9.859375l-1.671875 0l0 -9.859375zm-9.328125 0l1.65625 0l0 3.859375l2.125 0q2.0625 0 3.171875 0.8125q1.125 0.796875 1.125 2.203125q0 1.234375 -0.9375 2.109375q-0.921875 0.875 -2.96875 0.875l-4.171875 0l0 -9.859375zm1.65625 8.484375l1.765625 0q1.578125 0 2.25 -0.390625q0.6875 -0.390625 0.6875 -1.21875q0 -0.640625 -0.5 -1.140625q-0.5 -0.5 -2.21875 -0.5l-1.984375 0l0 3.25zm10.59668 1.375l3.59375 -5.125l-3.328125 -4.734375l2.09375 0l1.515625 2.3125q0.421875 0.65625 0.671875 1.109375q0.421875 -0.609375 0.765625 -1.09375l1.65625 -2.328125l1.984375 0l-3.390625 4.640625l3.65625 5.21875l-2.046875 0l-2.03125 -3.0625l-0.53125 -0.828125l-2.59375 3.890625l-2.015625 0z" fill-rule="nonzero"></path><path fill="#000000" d="m552.67035 209.44095l0 -13.59375l5.109375 0q1.546875 0 2.484375 0.40625q0.953125 0.40625 1.484375 1.265625q0.53125 0.859375 0.53125 1.796875q0 0.875 -0.46875 1.65625q-0.46875 0.765625 -1.4375 1.234375q1.234375 0.359375 1.890625 1.234375q0.671875 0.875 0.671875 2.0625q0 0.953125 -0.40625 1.78125q-0.390625 0.8125 -0.984375 1.265625q-0.59375 0.4375 -1.5 0.671875q-0.890625 0.21875 -2.1875 0.21875l-5.1875 0zm1.796875 -7.890625l2.9375 0q1.203125 0 1.71875 -0.15625q0.6875 -0.203125 1.03125 -0.671875q0.359375 -0.46875 0.359375 -1.1875q0 -0.671875 -0.328125 -1.1875q-0.328125 -0.515625 -0.9375 -0.703125q-0.59375 -0.203125 -2.0625 -0.203125l-2.71875 0l0 4.109375zm0 6.28125l3.390625 0q0.875 0 1.21875 -0.0625q0.625 -0.109375 1.046875 -0.359375q0.421875 -0.265625 0.6875 -0.765625q0.265625 -0.5 0.265625 -1.140625q0 -0.765625 -0.390625 -1.328125q-0.390625 -0.5625 -1.078125 -0.78125q-0.6875 -0.234375 -1.984375 -0.234375l-3.15625 0l0 4.671875zm19.881042 -8.25l1.671875 0l0 9.859375l-1.671875 0l0 -9.859375zm-9.328125 0l1.65625 0l0 3.859375l2.125 0q2.0625 0 3.171875 0.8125q1.125 0.796875 1.125 2.203125q0 1.234375 -0.9375 2.109375q-0.921875 0.875 -2.96875 0.875l-4.171875 0l0 -9.859375zm1.65625 8.484375l1.765625 0q1.578125 0 2.25 -0.390625q0.6875 -0.390625 0.6875 -1.21875q0 -0.640625 -0.5 -1.140625q-0.5 -0.5 -2.21875 -0.5l-1.984375 0l0 3.25zm10.59668 1.375l3.59375 -5.125l-3.328125 -4.734375l2.09375 0l1.515625 2.3125q0.421875 0.65625 0.671875 1.109375q0.421875 -0.609375 0.765625 -1.09375l1.65625 -2.328125l1.984375 0l-3.390625 4.640625l3.65625 5.21875l-2.046875 0l-2.03125 -3.0625l-0.53125 -0.828125l-2.59375 3.890625l-2.015625 0zm9.8125 -4.921875q0 -2.734375 1.53125 -4.0625q1.265625 -1.09375 3.09375 -1.09375q2.03125 0 3.3125 1.34375q1.296875 1.328125 1.296875 3.671875q0 1.90625 -0.578125 3.0q-0.5625 1.078125 -1.65625 1.6875q-1.078125 0.59375 -2.375 0.59375q-2.0625 0 -3.34375 -1.328125q-1.28125 -1.328125 -1.28125 -3.8125zm1.71875 0q0 1.890625 0.828125 2.828125q0.828125 0.9375 2.078125 0.9375q1.25 0 2.0625 -0.9375q0.828125 -0.953125 0.828125 -2.890625q0 -1.828125 -0.828125 -2.765625q-0.828125 -0.9375 -2.0625 -0.9375q-1.25 0 -2.078125 0.9375q-0.828125 0.9375 -0.828125 2.828125zm10.594482 -4.9375l6.875 0l0 8.484375l1.0625 0l0 4.171875l-1.375 0l0 -2.796875l-7.75 0l0 2.796875l-1.375 0l0 -4.171875l0.875 0q1.765625 -2.390625 1.6875 -8.484375zm1.40625 1.390625q-0.1875 4.796875 -1.484375 7.09375l5.296875 0l0 -7.09375l-3.8125 0zm8.182739 -1.390625l1.671875 0l0 4.109375l4.625 0l0 -4.109375l1.671875 0l0 9.859375l-1.671875 0l0 -4.375l-4.625 0l0 4.375l-1.671875 0l0 -9.859375zm9.66217 4.9375q0 -2.734375 1.53125 -4.0625q1.265625 -1.09375 3.09375 -1.09375q2.03125 0 3.3125 1.34375q1.296875 1.328125 1.296875 3.671875q0 1.90625 -0.578125 3.0q-0.5625 1.078125 -1.65625 1.6875q-1.078125 0.59375 -2.375 0.59375q-2.0625 0 -3.34375 -1.328125q-1.28125 -1.328125 -1.28125 -3.8125zm1.71875 0q0 1.890625 0.828125 2.828125q0.828125 0.9375 2.078125 0.9375q1.25 0 2.0625 -0.9375q0.828125 -0.953125 0.828125 -2.890625q0 -1.828125 -0.828125 -2.765625q-0.828125 -0.9375 -2.0625 -0.9375q-1.25 0 -2.078125 0.9375q-0.828125 0.9375 -0.828125 2.828125zm16.031982 1.75l1.71875 0.21875q-0.40625 1.5 -1.515625 2.34375q-1.09375 0.828125 -2.8125 0.828125q-2.15625 0 -3.421875 -1.328125q-1.265625 -1.328125 -1.265625 -3.734375q0 -2.484375 1.265625 -3.859375q1.28125 -1.375 3.328125 -1.375q1.984375 0 3.234375 1.34375q1.25 1.34375 1.25 3.796875q0 0.140625 -0.015625 0.4375l-7.34375 0q0.09375 1.625 0.921875 2.484375q0.828125 0.859375 2.0625 0.859375q0.90625 0 1.546875 -0.46875q0.65625 -0.484375 1.046875 -1.546875zm-5.484375 -2.703125l5.5 0q-0.109375 -1.234375 -0.625 -1.859375q-0.796875 -0.96875 -2.078125 -0.96875q-1.140625 0 -1.9375 0.78125q-0.78125 0.765625 -0.859375 2.046875z" fill-rule="nonzero"></path><path fill="#000000" d="m566.1455 227.83157l1.640625 0.21875q-0.265625 1.6875 -1.375 2.65625q-1.109375 0.953125 -2.734375 0.953125q-2.015625 0 -3.25 -1.3125q-1.21875 -1.328125 -1.21875 -3.796875q0 -1.59375 0.515625 -2.78125q0.53125 -1.203125 1.609375 -1.796875q1.09375 -0.609375 2.359375 -0.609375q1.609375 0 2.625 0.8125q1.015625 0.8125 1.3125 2.3125l-1.625 0.25q-0.234375 -1.0 -0.828125 -1.5q-0.59375 -0.5 -1.421875 -0.5q-1.265625 0 -2.0625 0.90625q-0.78125 0.90625 -0.78125 2.859375q0 1.984375 0.765625 2.890625q0.765625 0.890625 1.984375 0.890625q0.984375 0 1.640625 -0.59375q0.65625 -0.609375 0.84375 -1.859375zm2.265625 -1.3125q0 -2.734375 1.53125 -4.0625q1.265625 -1.09375 3.09375 -1.09375q2.03125 0 3.3125 1.34375q1.296875 1.328125 1.296875 3.671875q0 1.90625 -0.578125 3.0q-0.5625 1.078125 -1.65625 1.6875q-1.078125 0.59375 -2.375 0.59375q-2.0625 0 -3.34375 -1.328125q-1.28125 -1.328125 -1.28125 -3.8125zm1.71875 0q0 1.890625 0.828125 2.828125q0.828125 0.9375 2.078125 0.9375q1.25 0 2.0625 -0.9375q0.828125 -0.953125 0.828125 -2.890625q0 -1.828125 -0.828125 -2.765625q-0.828125 -0.9375 -2.0625 -0.9375q-1.25 0 -2.078125 0.9375q-0.828125 0.9375 -0.828125 2.828125zm16.500671 -9.0l1.484375 0.015625q-0.109375 0.984375 -0.453125 1.375q-0.328125 0.390625 -0.875 0.515625q-0.53125 0.109375 -2.078125 0.109375q-2.078125 0 -2.828125 0.40625q-0.75 0.390625 -1.078125 1.265625q-0.328125 0.875 -0.375 2.25q0.640625 -0.9375 1.484375 -1.40625q0.84375 -0.46875 1.90625 -0.46875q1.9375 0 3.203125 1.34375q1.265625 1.328125 1.265625 3.59375q0 1.734375 -0.640625 2.84375q-0.640625 1.09375 -1.515625 1.703125q-0.875 0.59375 -2.390625 0.59375q-1.75 0 -2.71875 -0.796875q-0.96875 -0.796875 -1.5 -2.046875q-0.515625 -1.265625 -0.515625 -4.375q0 -3.90625 1.3125 -5.25q1.328125 -1.359375 4.078125 -1.359375q1.703125 0 1.9375 -0.046875q0.234375 -0.0625 0.296875 -0.265625zm-0.078125 8.953125q0 -1.53125 -0.734375 -2.515625q-0.71875 -0.984375 -2.046875 -0.984375q-1.390625 0 -2.140625 1.046875q-0.75 1.03125 -0.75 2.765625q0 1.71875 0.828125 2.625q0.828125 0.90625 2.046875 0.90625q1.25 0 2.015625 -1.046875q0.78125 -1.0625 0.78125 -2.796875zm12.919861 -4.890625l1.671875 0l0 9.859375l-1.671875 0l0 -9.859375zm-9.328125 0l1.65625 0l0 3.859375l2.125 0q2.0625 0 3.171875 0.8125q1.125 0.796875 1.125 2.203125q0 1.234375 -0.9375 2.109375q-0.921875 0.875 -2.96875 0.875l-4.171875 0l0 -9.859375zm1.65625 8.484375l1.765625 0q1.578125 0 2.25 -0.390625q0.6875 -0.390625 0.6875 -1.21875q0 -0.640625 -0.5 -1.140625q-0.5 -0.5 -2.21875 -0.5l-1.984375 0l0 3.25zm10.81543 -8.484375l8.0 0l0 1.390625l-3.171875 0l0 8.46875l-1.65625 0l0 -8.46875l-3.171875 0l0 -1.390625zm9.435303 0l1.671875 0l0 7.515625l4.625 -7.515625l1.8125 0l0 9.859375l-1.671875 0l0 -7.46875l-4.640625 7.46875l-1.796875 0l0 -9.859375zm17.171265 6.6875l1.71875 0.21875q-0.40625 1.5 -1.515625 2.34375q-1.09375 0.828125 -2.8125 0.828125q-2.15625 0 -3.421875 -1.328125q-1.265625 -1.328125 -1.265625 -3.734375q0 -2.484375 1.265625 -3.859375q1.28125 -1.375 3.328125 -1.375q1.984375 0 3.234375 1.34375q1.25 1.34375 1.25 3.796875q0 0.140625 -0.015625 0.4375l-7.34375 0q0.09375 1.625 0.921875 2.484375q0.828125 0.859375 2.0625 0.859375q0.90625 0 1.546875 -0.46875q0.65625 -0.484375 1.046875 -1.546875zm-5.484375 -2.703125l5.5 0q-0.109375 -1.234375 -0.625 -1.859375q-0.796875 -0.96875 -2.078125 -0.96875q-1.140625 0 -1.9375 0.78125q-0.78125 0.765625 -0.859375 2.046875z" fill-rule="nonzero"></path><path fill="#000000" d="m69.17498 294.63782l0 -13.59375l6.03125 0q1.8125 0 2.75 0.359375q0.953125 0.359375 1.515625 1.296875q0.5625 0.921875 0.5625 2.046875q0 1.453125 -0.9375 2.453125q-0.921875 0.984375 -2.890625 1.25q0.71875 0.34375 1.09375 0.671875q0.78125 0.734375 1.484375 1.8125l2.375 3.703125l-2.265625 0l-1.796875 -2.828125q-0.796875 -1.21875 -1.3125 -1.875q-0.5 -0.65625 -0.90625 -0.90625q-0.40625 -0.265625 -0.8125 -0.359375q-0.3125 -0.078125 -1.015625 -0.078125l-2.078125 0l0 6.046875l-1.796875 0zm1.796875 -7.59375l3.859375 0q1.234375 0 1.921875 -0.25q0.703125 -0.265625 1.0625 -0.828125q0.375 -0.5625 0.375 -1.21875q0 -0.96875 -0.703125 -1.578125q-0.703125 -0.625 -2.21875 -0.625l-4.296875 0l0 4.5zm11.676071 7.59375l0 -13.59375l9.84375 0l0 1.59375l-8.046875 0l0 4.171875l7.53125 0l0 1.59375l-7.53125 0l0 4.625l8.359375 0l0 1.609375l-10.15625 0zm22.709198 -1.453125q1.265625 0.859375 2.3125 1.265625l-0.53125 1.25q-1.453125 -0.53125 -2.921875 -1.671875q-1.5 0.84375 -3.328125 0.84375q-1.84375 0 -3.359375 -0.890625q-1.5 -0.890625 -2.3125 -2.5q-0.8125 -1.625 -0.8125 -3.640625q0 -2.015625 0.8125 -3.65625q0.828125 -1.65625 2.328125 -2.515625q1.515625 -0.875 3.375 -0.875q1.890625 0 3.390625 0.90625q1.515625 0.890625 2.3125 2.5q0.796875 1.609375 0.796875 3.625q0 1.6875 -0.515625 3.03125q-0.515625 1.328125 -1.546875 2.328125zm-3.953125 -2.296875q1.5625 0.421875 2.5625 1.296875q1.59375 -1.453125 1.59375 -4.359375q0 -1.65625 -0.5625 -2.875q-0.5625 -1.234375 -1.640625 -1.921875q-1.078125 -0.6875 -2.421875 -0.6875q-2.015625 0 -3.34375 1.390625q-1.328125 1.375 -1.328125 4.109375q0 2.65625 1.3125 4.078125q1.3125 1.40625 3.359375 1.40625q0.953125 0 1.8125 -0.359375q-0.84375 -0.546875 -1.78125 -0.78125l0.4375 -1.296875z" fill-rule="nonzero"></path><path fill="#000000" d="m215.5794 287.9347q0 -2.421875 0.5 -3.890625q0.5 -1.46875 1.46875 -2.265625q0.984375 -0.796875 2.46875 -0.796875q1.09375 0 1.921875 0.4375q0.828125 0.4375 1.359375 1.28125q0.546875 0.828125 0.84375 2.015625q0.3125 1.1875 0.3125 3.21875q0 2.390625 -0.5 3.859375q-0.484375 1.46875 -1.46875 2.28125q-0.96875 0.796875 -2.46875 0.796875q-1.96875 0 -3.078125 -1.40625q-1.359375 -1.703125 -1.359375 -5.53125zm1.71875 0q0 3.34375 0.78125 4.453125q0.796875 1.109375 1.9375 1.109375q1.15625 0 1.9375 -1.109375q0.78125 -1.125 0.78125 -4.453125q0 -3.359375 -0.78125 -4.46875q-0.78125 -1.109375 -1.953125 -1.109375q-1.15625 0 -1.828125 0.984375q-0.875 1.234375 -0.875 4.59375zm14.953842 6.703125l-1.671875 0l0 -10.640625q-0.59375 0.578125 -1.578125 1.15625q-0.984375 0.5625 -1.765625 0.859375l0 -1.625q1.40625 -0.65625 2.453125 -1.59375q1.046875 -0.9375 1.484375 -1.8125l1.078125 0l0 13.65625zm4.078842 -6.703125q0 -2.421875 0.5 -3.890625q0.5 -1.46875 1.46875 -2.265625q0.984375 -0.796875 2.46875 -0.796875q1.09375 0 1.921875 0.4375q0.828125 0.4375 1.359375 1.28125q0.546875 0.828125 0.84375 2.015625q0.3125 1.1875 0.3125 3.21875q0 2.390625 -0.5 3.859375q-0.484375 1.46875 -1.46875 2.28125q-0.96875 0.796875 -2.46875 0.796875q-1.96875 0 -3.078125 -1.40625q-1.359375 -1.703125 -1.359375 -5.53125zm1.71875 0q0 3.34375 0.78125 4.453125q0.796875 1.109375 1.9375 1.109375q1.15625 0 1.9375 -1.109375q0.78125 -1.125 0.78125 -4.453125q0 -3.359375 -0.78125 -4.46875q-0.78125 -1.109375 -1.953125 -1.109375q-1.15625 0 -1.828125 0.984375q-0.875 1.234375 -0.875 4.59375zm14.953842 6.703125l-1.671875 0l0 -10.640625q-0.59375 0.578125 -1.578125 1.15625q-0.984375 0.5625 -1.765625 0.859375l0 -1.625q1.40625 -0.65625 2.453125 -1.59375q1.046875 -0.9375 1.484375 -1.8125l1.078125 0l0 13.65625zm10.375717 0l-1.671875 0l0 -10.640625q-0.59375 0.578125 -1.578125 1.15625q-0.984375 0.5625 -1.765625 0.859375l0 -1.625q1.40625 -0.65625 2.453125 -1.59375q1.046875 -0.9375 1.484375 -1.8125l1.078125 0l0 13.65625zm4.0788574 -6.703125q0 -2.421875 0.5 -3.890625q0.5 -1.46875 1.46875 -2.265625q0.984375 -0.796875 2.46875 -0.796875q1.09375 0 1.921875 0.4375q0.828125 0.4375 1.359375 1.28125q0.546875 0.828125 0.84375 2.015625q0.3125 1.1875 0.3125 3.21875q0 2.390625 -0.5 3.859375q-0.484375 1.46875 -1.46875 2.28125q-0.96875 0.796875 -2.46875 0.796875q-1.96875 0 -3.078125 -1.40625q-1.359375 -1.703125 -1.359375 -5.53125zm1.71875 0q0 3.34375 0.78125 4.453125q0.796875 1.109375 1.9375 1.109375q1.15625 0 1.9375 -1.109375q0.78125 -1.125 0.78125 -4.453125q0 -3.359375 -0.78125 -4.46875q-0.78125 -1.109375 -1.953125 -1.109375q-1.15625 0 -1.828125 0.984375q-0.875 1.234375 -0.875 4.59375zm14.953827 6.703125l-1.671875 0l0 -10.640625q-0.59375 0.578125 -1.578125 1.15625q-0.984375 0.5625 -1.765625 0.859375l0 -1.625q1.40625 -0.65625 2.453125 -1.59375q1.046875 -0.9375 1.484375 -1.8125l1.078125 0l0 13.65625zm4.0788574 -6.703125q0 -2.421875 0.5 -3.890625q0.5 -1.46875 1.46875 -2.265625q0.984375 -0.796875 2.46875 -0.796875q1.09375 0 1.921875 0.4375q0.828125 0.4375 1.359375 1.28125q0.546875 0.828125 0.84375 2.015625q0.3125 1.1875 0.3125 3.21875q0 2.390625 -0.5 3.859375q-0.484375 1.46875 -1.46875 2.28125q-0.96875 0.796875 -2.46875 0.796875q-1.96875 0 -3.078125 -1.40625q-1.359375 -1.703125 -1.359375 -5.53125zm1.71875 0q0 3.34375 0.78125 4.453125q0.796875 1.109375 1.9375 1.109375q1.15625 0 1.9375 -1.109375q0.78125 -1.125 0.78125 -4.453125q0 -3.359375 -0.78125 -4.46875q-0.78125 -1.109375 -1.953125 -1.109375q-1.15625 0 -1.828125 0.984375q-0.875 1.234375 -0.875 4.59375z" fill-rule="nonzero"></path><path fill="#000000" d="m402.56696 294.63782l-1.671875 0l0 -10.640625q-0.59375 0.578125 -1.578125 1.15625q-0.984375 0.5625 -1.765625 0.859375l0 -1.625q1.40625 -0.65625 2.453125 -1.59375q1.046875 -0.9375 1.484375 -1.8125l1.078125 0l0 13.65625zm4.0788574 -6.703125q0 -2.421875 0.5 -3.890625q0.5 -1.46875 1.46875 -2.265625q0.984375 -0.796875 2.46875 -0.796875q1.09375 0 1.921875 0.4375q0.828125 0.4375 1.359375 1.28125q0.546875 0.828125 0.84375 2.015625q0.3125 1.1875 0.3125 3.21875q0 2.390625 -0.5 3.859375q-0.484375 1.46875 -1.46875 2.28125q-0.96875 0.796875 -2.46875 0.796875q-1.96875 0 -3.078125 -1.40625q-1.359375 -1.703125 -1.359375 -5.53125zm1.71875 0q0 3.34375 0.78125 4.453125q0.796875 1.109375 1.9375 1.109375q1.15625 0 1.9375 -1.109375q0.78125 -1.125 0.78125 -4.453125q0 -3.359375 -0.78125 -4.46875q-0.78125 -1.109375 -1.953125 -1.109375q-1.15625 0 -1.828125 0.984375q-0.875 1.234375 -0.875 4.59375zm14.953827 6.703125l-1.671875 0l0 -10.640625q-0.59375 0.578125 -1.578125 1.15625q-0.984375 0.5625 -1.765625 0.859375l0 -1.625q1.40625 -0.65625 2.453125 -1.59375q1.046875 -0.9375 1.484375 -1.8125l1.078125 0l0 13.65625zm4.0788574 -6.703125q0 -2.421875 0.5 -3.890625q0.5 -1.46875 1.46875 -2.265625q0.984375 -0.796875 2.46875 -0.796875q1.09375 0 1.921875 0.4375q0.828125 0.4375 1.359375 1.28125q0.546875 0.828125 0.84375 2.015625q0.3125 1.1875 0.3125 3.21875q0 2.390625 -0.5 3.859375q-0.484375 1.46875 -1.46875 2.28125q-0.96875 0.796875 -2.46875 0.796875q-1.96875 0 -3.078125 -1.40625q-1.359375 -1.703125 -1.359375 -5.53125zm1.71875 0q0 3.34375 0.78125 4.453125q0.796875 1.109375 1.9375 1.109375q1.15625 0 1.9375 -1.109375q0.78125 -1.125 0.78125 -4.453125q0 -3.359375 -0.78125 -4.46875q-0.78125 -1.109375 -1.953125 -1.109375q-1.15625 0 -1.828125 0.984375q-0.875 1.234375 -0.875 4.59375zm14.953827 6.703125l-1.671875 0l0 -10.640625q-0.59375 0.578125 -1.578125 1.15625q-0.984375 0.5625 -1.765625 0.859375l0 -1.625q1.40625 -0.65625 2.453125 -1.59375q1.046875 -0.9375 1.484375 -1.8125l1.078125 0l0 13.65625zm4.0788574 -6.703125q0 -2.421875 0.5 -3.890625q0.5 -1.46875 1.46875 -2.265625q0.984375 -0.796875 2.46875 -0.796875q1.09375 0 1.921875 0.4375q0.828125 0.4375 1.359375 1.28125q0.546875 0.828125 0.84375 2.015625q0.3125 1.1875 0.3125 3.21875q0 2.390625 -0.5 3.859375q-0.484375 1.46875 -1.46875 2.28125q-0.96875 0.796875 -2.46875 0.796875q-1.96875 0 -3.078125 -1.40625q-1.359375 -1.703125 -1.359375 -5.53125zm1.71875 0q0 3.34375 0.78125 4.453125q0.796875 1.109375 1.9375 1.109375q1.15625 0 1.9375 -1.109375q0.78125 -1.125 0.78125 -4.453125q0 -3.359375 -0.78125 -4.46875q-0.78125 -1.109375 -1.953125 -1.109375q-1.15625 0 -1.828125 0.984375q-0.875 1.234375 -0.875 4.59375z" fill-rule="nonzero"></path><path fill="#000000" d="m587.029 289.8722l1.796875 0.453125q-0.5625 2.21875 -2.03125 3.390625q-1.46875 1.15625 -3.59375 1.15625q-2.203125 0 -3.578125 -0.890625q-1.375 -0.90625 -2.09375 -2.59375q-0.71875 -1.703125 -0.71875 -3.65625q0 -2.125 0.796875 -3.703125q0.8125 -1.578125 2.3125 -2.390625q1.5 -0.828125 3.296875 -0.828125q2.046875 0 3.4375 1.046875q1.390625 1.03125 1.9375 2.90625l-1.765625 0.421875q-0.46875 -1.484375 -1.375 -2.15625q-0.90625 -0.6875 -2.265625 -0.6875q-1.5625 0 -2.625 0.75q-1.046875 0.75 -1.484375 2.03125q-0.421875 1.265625 -0.421875 2.609375q0 1.734375 0.5 3.03125q0.515625 1.28125 1.578125 1.921875q1.078125 0.640625 2.3125 0.640625q1.515625 0 2.5625 -0.859375q1.046875 -0.875 1.421875 -2.59375zm3.7542114 4.765625l0 -13.59375l1.84375 0l7.140625 10.671875l0 -10.671875l1.71875 0l0 13.59375l-1.84375 0l-7.140625 -10.6875l0 10.6875l-1.71875 0zm13.582336 0l0 -13.59375l9.171875 0l0 1.59375l-7.375 0l0 4.21875l6.375 0l0 1.609375l-6.375 0l0 6.171875l-1.796875 0z" fill-rule="nonzero"></path><path fill="#000000" fill-opacity="0.0" d="m345.6383 142.61545c-5.7279053 2.1478577 16.46762 10.596237 -34.367462 12.887131c-50.835083 2.2909088 -219.37839 -3.8670197 -270.64304 0.85827637c-51.264656 4.725281 -30.787401 22.911194 -36.94488 27.493439" fill-rule="nonzero"></path><path stroke="#000000" stroke-width="2.0" stroke-linejoin="round" stroke-linecap="butt" d="m345.6383 142.61545c-5.7279053 2.1478577 16.46762 10.596237 -34.367462 12.887131c-50.835083 2.2909088 -219.37839 -3.8670197 -270.64304 0.85827637c-51.264656 4.725281 -30.787401 22.911194 -36.94488 27.493439" fill-rule="nonzero"></path><path fill="#000000" fill-opacity="0.0" d="m345.80103 142.61545c5.7279053 2.1478577 -12.717834 10.309708 34.367462 12.887131c47.085297 2.577423 198.76816 -2.0048065 248.14438 2.577423c49.37616 4.582245 40.093994 20.763351 48.112854 24.916016" fill-rule="nonzero"></path><path stroke="#000000" stroke-width="2.0" stroke-linejoin="round" stroke-linecap="butt" d="m345.80103 142.61545c5.7279053 2.1478577 -12.717834 10.309708 34.367462 12.887131c47.085297 2.577423 198.76816 -2.0048065 248.14438 2.577423c49.37616 4.582245 40.093994 20.763351 48.112854 24.916016" fill-rule="nonzero"></path><path fill="#cfe2f3" d="m323.30142 120.26898l11.598419 0l0 -15.448814l23.196838 0l0 15.448814l11.59845 0l-23.196869 15.448822z" fill-rule="nonzero"></path><path stroke="#000000" stroke-width="2.0" stroke-linejoin="round" stroke-linecap="butt" d="m323.30142 120.26898l11.598419 0l0 -15.448814l23.196838 0l0 15.448814l11.59845 0l-23.196869 15.448822z" fill-rule="nonzero"></path><path fill="#000000" fill-opacity="0.0" d="m395.4965 -13.643809l259.11807 0l0 57.574802l-259.11807 0z" fill-rule="nonzero"></path><path fill="#000000" d="m415.41837 15.831189l2.328125 0.29687405q-0.375 2.421875 -1.953125 3.78125q-1.578125 1.359375 -3.875 1.359375q-2.875 0 -4.625 -1.875q-1.734375 -1.875 -1.734375 -5.390624q0 -2.265625 0.75 -3.953125q0.75 -1.703125 2.28125 -2.5468755q1.53125 -0.859375 3.34375 -0.859375q2.28125 0 3.71875 1.15625q1.453125 1.1406255 1.875 3.2656255l-2.3125 0.359375q-0.328125 -1.40625 -1.171875 -2.109375q-0.828125 -0.71875 -2.015625 -0.71875q-1.796875 0 -2.921875 1.28125q-1.109375 1.28125 -1.109375 4.0625q0 2.828124 1.078125 4.109374q1.078125 1.265625 2.8125 1.265625q1.40625 0 2.34375 -0.84375q0.9375 -0.859375 1.1875 -2.640624zm4.21875 -8.875l2.375 0l0 12.046875l6.578125 0l0 -12.046875l2.359375 0l0 12.046875l1.53125 0l0 5.921875l-1.953125 0l0 -3.96875l-10.890625 0l0 -14.0zm24.814331 9.484375l2.453125 0.3125q-0.578125 2.140625 -2.15625 3.328125q-1.5625 1.1875 -4.0 1.1875q-3.0625 0 -4.875 -1.890625q-1.796875 -1.890625 -1.796875 -5.296874q0 -3.546875 1.8125 -5.484375q1.828125 -1.9531255 4.734375 -1.9531255q2.8125 0 4.578125 1.9062505q1.78125 1.90625 1.78125 5.375q0 0.21875 -0.015625 0.640625l-10.4375 0q0.140625 2.296874 1.3125 3.531249q1.171875 1.21875 2.921875 1.21875q1.3125 0 2.234375 -0.671875q0.921875 -0.6875 1.453125 -2.203125zm-7.78125 -3.828124l7.8125 0q-0.15625 -1.765625 -0.890625 -2.65625q-1.140625 -1.359375 -2.953125 -1.359375q-1.625 0 -2.75 1.09375q-1.109375 1.09375 -1.21875 2.921875zm13.043701 -5.6562505l2.375 0l0 5.8281255l6.578125 0l0 -5.8281255l2.375 0l0 14.0l-2.375 0l0 -6.203124l-6.578125 0l0 6.203124l-2.375 0l0 -14.0zm23.845795 12.265625q-1.328125 1.125 -2.546875 1.59375q-1.21875 0.453125 -2.609375 0.453125q-2.3125 0 -3.5625 -1.125q-1.234375 -1.125 -1.234375 -2.875q0 -1.03125 0.46875 -1.874999q0.46875 -0.859375 1.21875 -1.375q0.765625 -0.515625 1.71875 -0.78125q0.703125 -0.171875 2.109375 -0.34375q2.875 -0.34375 4.234375 -0.828125q0.015625 -0.484375 0.015625 -0.609375q0 -1.453125 -0.671875 -2.046875q-0.90625 -0.8125 -2.703125 -0.8125q-1.671875 0 -2.46875 0.59375q-0.796875 0.578125 -1.1875 2.078125l-2.3125 -0.3125q0.3125 -1.5 1.03125 -2.40625q0.734375 -0.9218755 2.09375 -1.4062505q1.375 -0.5 3.1875 -0.5q1.796875 0 2.90625 0.421875q1.125 0.421875 1.640625 1.0625005q0.53125 0.640625 0.75 1.609375q0.125 0.609375 0.125 2.1875l0 3.171875q0 3.296874 0.140625 4.187499q0.15625 0.875 0.609375 1.671875l-2.484375 0q-0.375 -0.734375 -0.46875 -1.734375zm-0.203125 -5.296874q-1.296875 0.53125 -3.875 0.90625q-1.46875 0.203125 -2.078125 0.46875q-0.59375 0.265625 -0.9375 0.78124905q-0.328125 0.5 -0.328125 1.125q0 0.9375 0.71875 1.578125q0.71875 0.625 2.109375 0.625q1.375 0 2.4375 -0.59375q1.0625 -0.609375 1.578125 -1.640625q0.375 -0.8125 0.375 -2.374999l0 -0.875zm5.887451 12.390624l0 -19.359375l2.15625 0l0 1.8125005q0.765625 -1.0625005 1.71875 -1.5937505q0.96875 -0.53125 2.34375 -0.53125q1.796875 0 3.15625 0.921875q1.375 0.9218755 2.078125 2.6093755q0.703125 1.671875 0.703125 3.671875q0 2.156249 -0.78125 3.874999q-0.765625 1.71875 -2.234375 2.640625q-1.46875 0.90625 -3.09375 0.90625q-1.1875 0 -2.125 -0.5q-0.9375 -0.5 -1.546875 -1.265625l0 6.8125l-2.375 0zm2.140625 -12.281249q0 2.703124 1.09375 3.999999q1.109375 1.28125 2.65625 1.28125q1.578125 0 2.703125 -1.328125q1.140625 -1.34375 1.140625 -4.156249q0 -2.671875 -1.109375 -4.0q-1.09375 -1.328125 -2.625 -1.328125q-1.515625 0 -2.6875 1.421875q-1.171875 1.40625 -1.171875 4.109375zm12.684296 -7.0781255l2.375 0l0 10.671875l6.578125 -10.671875l2.5625 0l0 14.0l-2.375 0l0 -10.609374l-6.578125 10.609374l-2.5625 0l0 -14.0zm14.890015 0l2.375 0l0 10.671875l6.5781555 -10.671875l2.5625 0l0 14.0l-2.375 0l0 -10.609374l-6.5781555 10.609374l-2.5625 0l0 -14.0zm8.0000305 -5.296875l1.609375 0q-0.1875 1.6406249 -1.203125 2.53125q-1.0 0.875 -2.671875 0.875q-1.6875 0 -2.7031555 -0.875q-1.015625 -0.875 -1.203125 -2.53125l1.6250305 0q0.171875 0.8906249 0.71875 1.3437499q0.546875 0.4375 1.484375 0.4375q1.0625 0 1.609375 -0.421875q0.546875 -0.4375 0.734375 -1.3593749z" fill-rule="nonzero"></path><path fill="#000000" fill-opacity="0.0" d="m252.60239 145.55762l278.58267 0l0 21.291336l-278.58267 0z" fill-rule="nonzero"></path><path fill="#000000" d="m265.7899 168.69386l0 1.53125l3.84375 0q-0.171875 1.765625 -0.921875 2.65625q-0.734375 0.890625 -2.0625 0.890625q-2.328125 0 -2.75 -2.71875l-1.8125 0.234375q0.296875 1.796875 1.5 2.90625q1.203125 1.09375 3.15625 1.09375q2.3125 0.125 3.578125 -1.46875q1.28125 -1.609375 1.21875 -4.21875q0 -2.65625 -1.328125 -4.171875q-1.3125 -1.53125 -3.609375 -1.53125q-1.828125 0 -2.953125 0.96875q-1.125 0.96875 -1.375 2.5l1.796875 0.28125q0.453125 -2.21875 2.59375 -2.21875q1.234375 0 2.015625 0.90625q0.78125 0.90625 0.953125 2.359375l-3.84375 0zm8.976532 -4.546875l8.578125 0l0 10.890625l-1.828125 0l0 -9.359375l-4.90625 0l0 5.421875q0 1.890625 -0.125 2.5q-0.109375 0.609375 -0.671875 1.0625q-0.546875 0.453125 -1.59375 0.453125q-0.640625 0 -1.484375 -0.09375l0 -1.53125l0.8125 0q0.5625 0 0.8125 -0.109375q0.25 -0.125 0.328125 -0.375q0.078125 -0.265625 0.078125 -1.6875l0 -7.171875zm19.007385 7.390625l1.90625 0.234375q-0.453125 1.671875 -1.671875 2.59375q-1.21875 0.921875 -3.125 0.921875q-2.390625 0 -3.796875 -1.46875q-1.390625 -1.484375 -1.390625 -4.140625q0 -2.734375 1.40625 -4.25q1.421875 -1.53125 3.6875 -1.53125q2.1875 0 3.5625 1.5q1.390625 1.484375 1.390625 4.171875q0 0.171875 -0.015625 0.5l-8.125 0q0.109375 1.796875 1.015625 2.75q0.921875 0.953125 2.28125 0.953125q1.015625 0 1.734375 -0.53125q0.71875 -0.546875 1.140625 -1.703125zm-6.0625 -2.984375l6.078125 0q-0.125 -1.375 -0.703125 -2.0625q-0.875 -1.078125 -2.28125 -1.078125q-1.265625 0 -2.140625 0.859375q-0.859375 0.84375 -0.953125 2.28125zm10.517944 -4.40625l2.875 0l2.859375 8.71875l3.171875 -8.71875l2.65625 0l0 10.890625l-1.84375 0l0 -8.765625l-3.21875 8.765625l-1.65625 0l-3.046875 -9.1875l0 9.1875l-1.796875 0l0 -10.890625zm22.069336 7.390625l1.90625 0.234375q-0.453125 1.671875 -1.671875 2.59375q-1.21875 0.921875 -3.125 0.921875q-2.390625 0 -3.796875 -1.46875q-1.390625 -1.484375 -1.390625 -4.140625q0 -2.734375 1.40625 -4.25q1.421875 -1.53125 3.6875 -1.53125q2.1875 0 3.5625 1.5q1.390625 1.484375 1.390625 4.171875q0 0.171875 -0.015625 0.5l-8.125 0q0.109375 1.796875 1.015625 2.75q0.921875 0.953125 2.28125 0.953125q1.015625 0 1.734375 -0.53125q0.71875 -0.546875 1.140625 -1.703125zm-6.0625 -2.984375l6.078125 0q-0.125 -1.375 -0.703125 -2.0625q-0.875 -1.078125 -2.28125 -1.078125q-1.265625 0 -2.140625 0.859375q-0.859375 0.84375 -0.953125 2.28125zm10.471069 -4.40625l1.84375 0l0 4.53125l5.125 0l0 -4.53125l1.84375 0l0 10.890625l-1.84375 0l0 -4.828125l-5.125 0l0 4.828125l-1.84375 0l0 -10.890625zm10.778381 0l8.84375 0l0 1.53125l-3.5 0l0 9.359375l-1.84375 0l0 -9.359375l-3.5 0l0 -1.53125zm23.787842 6.90625l1.828125 0.234375q-0.296875 1.875 -1.53125 2.9375q-1.21875 1.0625 -3.015625 1.0625q-2.234375 0 -3.59375 -1.453125q-1.34375 -1.46875 -1.34375 -4.203125q0 -1.765625 0.578125 -3.078125q0.578125 -1.328125 1.765625 -1.984375q1.203125 -0.671875 2.609375 -0.671875q1.78125 0 2.90625 0.90625q1.125 0.890625 1.4375 2.546875l-1.78125 0.28125q-0.265625 -1.109375 -0.921875 -1.65625q-0.640625 -0.5625 -1.5625 -0.5625q-1.40625 0 -2.28125 1.0q-0.859375 1.0 -0.859375 3.171875q0 2.1875 0.84375 3.1875q0.84375 1.0 2.1875 1.0q1.09375 0 1.8125 -0.671875q0.734375 -0.671875 0.921875 -2.046875zm3.6015625 -6.90625l1.84375 0l0 9.375l5.109375 0l0 -9.375l1.84375 0l0 9.375l1.1875 0l0 4.609375l-1.515625 0l0 -3.09375l-8.46875 0l0 -10.890625zm19.637634 7.390625l1.90625 0.234375q-0.453125 1.671875 -1.671875 2.59375q-1.21875 0.921875 -3.125 0.921875q-2.390625 0 -3.796875 -1.46875q-1.390625 -1.484375 -1.390625 -4.140625q0 -2.734375 1.40625 -4.25q1.421875 -1.53125 3.6875 -1.53125q2.1875 0 3.5625 1.5q1.390625 1.484375 1.390625 4.171875q0 0.171875 -0.015625 0.5l-8.125 0q0.109375 1.796875 1.015625 2.75q0.921875 0.953125 2.28125 0.953125q1.015625 0 1.734375 -0.53125q0.71875 -0.546875 1.140625 -1.703125zm-6.0625 -2.984375l6.078125 0q-0.125 -1.375 -0.703125 -2.0625q-0.875 -1.078125 -2.28125 -1.078125q-1.265625 0 -2.140625 0.859375q-0.859375 0.84375 -0.953125 2.28125zm10.471069 -4.40625l1.84375 0l0 4.53125l5.125 0l0 -4.53125l1.84375 0l0 10.890625l-1.84375 0l0 -4.828125l-5.125 0l0 4.828125l-1.84375 0l0 -10.890625zm18.872131 9.546875q-1.015625 0.875 -1.96875 1.234375q-0.953125 0.359375 -2.03125 0.359375q-1.796875 0 -2.765625 -0.875q-0.953125 -0.875 -0.953125 -2.25q0 -0.796875 0.359375 -1.453125q0.359375 -0.671875 0.953125 -1.0625q0.59375 -0.40625 1.328125 -0.609375q0.546875 -0.140625 1.640625 -0.28125q2.234375 -0.265625 3.296875 -0.625q0 -0.390625 0 -0.484375q0 -1.125 -0.515625 -1.59375q-0.71875 -0.625 -2.109375 -0.625q-1.296875 0 -1.921875 0.453125q-0.625 0.453125 -0.921875 1.625l-1.796875 -0.25q0.25 -1.15625 0.8125 -1.859375q0.5625 -0.71875 1.625 -1.109375q1.0625 -0.390625 2.46875 -0.390625q1.40625 0 2.265625 0.328125q0.875 0.328125 1.28125 0.828125q0.421875 0.5 0.578125 1.265625q0.09375 0.46875 0.09375 1.6875l0 2.46875q0 2.578125 0.109375 3.265625q0.125 0.671875 0.46875 1.296875l-1.921875 0q-0.28125 -0.578125 -0.375 -1.34375zm-0.140625 -4.125q-1.015625 0.40625 -3.015625 0.703125q-1.140625 0.15625 -1.625 0.375q-0.46875 0.203125 -0.71875 0.59375q-0.25 0.390625 -0.25 0.875q0 0.734375 0.546875 1.234375q0.5625 0.484375 1.640625 0.484375q1.0625 0 1.890625 -0.46875q0.84375 -0.46875 1.234375 -1.265625q0.296875 -0.625 0.296875 -1.84375l0 -0.6875zm4.9085693 9.640625l0 -15.0625l1.671875 0l0 1.421875q0.59375 -0.84375 1.34375 -1.25q0.75 -0.421875 1.8125 -0.421875q1.40625 0 2.46875 0.71875q1.0625 0.71875 1.609375 2.03125q0.546875 1.3125 0.546875 2.859375q0 1.671875 -0.609375 3.015625q-0.59375 1.34375 -1.734375 2.0625q-1.140625 0.703125 -2.40625 0.703125q-0.921875 0 -1.65625 -0.390625q-0.734375 -0.390625 -1.203125 -0.984375l0 5.296875l-1.84375 0zm1.671875 -9.5625q0 2.109375 0.84375 3.125q0.859375 1.0 2.0625 1.0q1.234375 0 2.109375 -1.046875q0.875 -1.046875 0.875 -3.21875q0 -2.09375 -0.859375 -3.125q-0.859375 -1.03125 -2.046875 -1.03125q-1.171875 0 -2.078125 1.109375q-0.90625 1.09375 -0.90625 3.1875zm10.189819 -5.5l1.84375 0l0 8.3125l5.109375 -8.3125l2.0 0l0 10.890625l-1.859375 0l0 -8.25l-5.109375 8.25l-1.984375 0l0 -10.890625zm20.476257 0l0 10.890625l-1.828125 0l0 -4.25l-1.0625 0q-0.984375 0 -1.46875 0.25q-0.46875 0.25 -1.375 1.625l-1.609375 2.375l-2.296875 0l2.0 -2.9375q0.90625 -1.34375 1.8125 -1.515625q-1.578125 -0.21875 -2.34375 -1.140625q-0.765625 -0.921875 -0.765625 -2.125q0 -1.40625 1.0 -2.28125q1.0 -0.890625 2.890625 -0.890625l5.046875 0zm-1.828125 1.53125l-2.625 0q-1.65625 0 -2.140625 0.515625q-0.46875 0.5 -0.46875 1.1875q0 0.984375 0.703125 1.4375q0.703125 0.453125 2.484375 0.453125l2.046875 0l0 -3.59375z" fill-rule="nonzero"></path></g></svg>

