<?xml version="1.0" standalone="yes"?>

<svg version="1.1" viewBox="0.0 0.0 739.7244094488188 438.76115485564304" fill="none" stroke="none" stroke-linecap="square" stroke-miterlimit="10" xmlns="http://www.w3.org/2000/svg" xmlns:xlink="http://www.w3.org/1999/xlink"><clipPath id="p.0"><path d="m0 0l739.7244 0l0 438.76117l-739.7244 0l0 -438.76117z" clip-rule="nonzero"></path></clipPath><g clip-path="url(#p.0)"><path fill="#000000" fill-opacity="0.0" d="m0 0l739.7244 0l0 438.76117l-739.7244 0z" fill-rule="nonzero"></path><path fill="#cfe2f3" d="m4.3023667 80.95591l0 0c0 -11.567535 9.962545 -20.944881 22.251968 -20.944881l0 0c5.9015903 0 11.561464 2.206688 15.734518 6.134617c4.1730537 3.927925 6.5174522 9.255341 6.5174522 14.810265l0 0c0 11.567543 -9.962547 20.944885 -22.25197 20.944885l0 0c-12.289422 0 -22.251968 -9.377342 -22.251968 -20.944885z" fill-rule="nonzero"></path><path stroke="#000000" stroke-width="2.0" stroke-linejoin="round" stroke-linecap="butt" d="m4.3023667 80.95591l0 0c0 -11.567535 9.962545 -20.944881 22.251968 -20.944881l0 0c5.9015903 0 11.561464 2.206688 15.734518 6.134617c4.1730537 3.927925 6.5174522 9.255341 6.5174522 14.810265l0 0c0 11.567543 -9.962547 20.944885 -22.25197 20.944885l0 0c-12.289422 0 -22.251968 -9.377342 -22.251968 -20.944885z" fill-rule="nonzero"></path><path fill="#000000" d="m22.4684 84.93841l1.65625 -0.265625q0.140625 1.0 0.765625 1.53125q0.640625 0.515625 1.78125 0.515625q1.15625 0 1.703125 -0.46875q0.5625 -0.46875 0.5625 -1.09375q0 -0.5625 -0.484375 -0.890625q-0.34375 -0.21875 -1.703125 -0.5625q-1.84375 -0.46875 -2.5625 -0.796875q-0.703125 -0.34375 -1.078125 -0.9375q-0.359375 -0.609375 -0.359375 -1.328125q0 -0.65625 0.296875 -1.21875q0.3125 -0.5625 0.828125 -0.9375q0.390625 -0.28125 1.0625 -0.484375q0.671875 -0.203125 1.4375 -0.203125q1.171875 0 2.046875 0.34375q0.875 0.328125 1.28125 0.90625q0.421875 0.5625 0.578125 1.515625l-1.625 0.21875q-0.109375 -0.75 -0.65625 -1.171875q-0.53125 -0.4375 -1.5 -0.4375q-1.15625 0 -1.640625 0.390625q-0.484375 0.375 -0.484375 0.875q0 0.328125 0.203125 0.59375q0.203125 0.265625 0.640625 0.4375q0.25 0.09375 1.46875 0.4375q1.765625 0.46875 2.46875 0.765625q0.703125 0.296875 1.09375 0.875q0.40625 0.578125 0.40625 1.4375q0 0.828125 -0.484375 1.578125q-0.484375 0.734375 -1.40625 1.140625q-0.921875 0.390625 -2.078125 0.390625q-1.921875 0 -2.9375 -0.796875q-1.0 -0.796875 -1.28125 -2.359375z" fill-rule="nonzero"></path><path fill="#ff0000" d="m116.30237 80.95591l0 0c0 -11.567535 9.962547 -20.944881 22.251968 -20.944881l0 0c5.901581 0 11.561462 2.206688 15.734512 6.134617c4.173065 3.927925 6.517456 9.255341 6.517456 14.810265l0 0c0 11.567543 -9.96254 20.944885 -22.251968 20.944885l0 0c-12.289421 0 -22.251968 -9.377342 -22.251968 -20.944885z" fill-rule="nonzero"></path><path stroke="#000000" stroke-width="2.0" stroke-linejoin="round" stroke-linecap="butt" d="m116.30237 80.95591l0 0c0 -11.567535 9.962547 -20.944881 22.251968 -20.944881l0 0c5.901581 0 11.561462 2.206688 15.734512 6.134617c4.173065 3.927925 6.517456 9.255341 6.517456 14.810265l0 0c0 11.567543 -9.96254 20.944885 -22.251968 20.944885l0 0c-12.289421 0 -22.251968 -9.377342 -22.251968 -20.944885z" fill-rule="nonzero"></path><path fill="#38761d" d="m68.30237 144.95592l0 0c0 -11.567551 9.962547 -20.944885 22.251968 -20.944885l0 0c5.9015884 0 11.561462 2.2066803 15.73452 6.134613c4.17305 3.9279175 6.5174484 9.255341 6.5174484 14.810272l0 0c0 11.567535 -9.962547 20.94487 -22.251968 20.94487l0 0c-12.289421 0 -22.251968 -9.377335 -22.251968 -20.94487z" fill-rule="nonzero"></path><path stroke="#000000" stroke-width="2.0" stroke-linejoin="round" stroke-linecap="butt" d="m68.30237 144.95592l0 0c0 -11.567551 9.962547 -20.944885 22.251968 -20.944885l0 0c5.9015884 0 11.561462 2.2066803 15.73452 6.134613c4.17305 3.9279175 6.5174484 9.255341 6.5174484 14.810272l0 0c0 11.567535 -9.962547 20.94487 -22.251968 20.94487l0 0c-12.289421 0 -22.251968 -9.377335 -22.251968 -20.94487z" fill-rule="nonzero"></path><path fill="#cfe2f3" d="m87.79843 256.9559l0 0c0 -11.567535 9.962547 -20.94487 22.251968 -20.94487l0 0c5.9015884 0 11.561462 2.2066803 15.73452 6.134613c4.1730576 3.9279175 6.5174484 9.255341 6.5174484 14.810257l0 0c0 11.567535 -9.962547 20.944885 -22.251968 20.944885l0 0c-12.289421 0 -22.251968 -9.37735 -22.251968 -20.944885z" fill-rule="nonzero"></path><path stroke="#000000" stroke-width="2.0" stroke-linejoin="round" stroke-linecap="butt" d="m87.79843 256.9559l0 0c0 -11.567535 9.962547 -20.94487 22.251968 -20.94487l0 0c5.9015884 0 11.561462 2.2066803 15.73452 6.134613c4.1730576 3.9279175 6.5174484 9.255341 6.5174484 14.810257l0 0c0 11.567535 -9.962547 20.944885 -22.251968 20.944885l0 0c-12.289421 0 -22.251968 -9.37735 -22.251968 -20.944885z" fill-rule="nonzero"></path><path fill="#ff0000" d="m340.30237 136.37323l0 0c0 -11.567535 9.962555 -20.944878 22.251953 -20.944878l0 0c5.9016113 0 11.561493 2.206688 15.734528 6.134613c4.173065 3.927925 6.517456 9.255333 6.517456 14.810265l0 0c0 11.567535 -9.962555 20.944885 -22.251984 20.944885l0 0c-12.289398 0 -22.251953 -9.37735 -22.251953 -20.944885z" fill-rule="nonzero"></path><path stroke="#000000" stroke-width="2.0" stroke-linejoin="round" stroke-linecap="butt" d="m340.30237 136.37323l0 0c0 -11.567535 9.962555 -20.944878 22.251953 -20.944878l0 0c5.9016113 0 11.561493 2.206688 15.734528 6.134613c4.173065 3.927925 6.517456 9.255333 6.517456 14.810265l0 0c0 11.567535 -9.962555 20.944885 -22.251984 20.944885l0 0c-12.289398 0 -22.251953 -9.37735 -22.251953 -20.944885z" fill-rule="nonzero"></path><path fill="#38761d" d="m166.0504 199.50185l0 0c0 -11.567551 9.96254 -20.944885 22.251968 -20.944885l0 0c5.901581 0 11.561462 2.2066803 15.734512 6.134613c4.173065 3.9279327 6.517456 9.255341 6.517456 14.810272l0 0c0 11.567535 -9.96254 20.94487 -22.251968 20.94487l0 0c-12.289429 0 -22.251968 -9.377335 -22.251968 -20.94487z" fill-rule="nonzero"></path><path stroke="#000000" stroke-width="2.0" stroke-linejoin="round" stroke-linecap="butt" d="m166.0504 199.50185l0 0c0 -11.567551 9.96254 -20.944885 22.251968 -20.944885l0 0c5.901581 0 11.561462 2.2066803 15.734512 6.134613c4.173065 3.9279327 6.517456 9.255341 6.517456 14.810272l0 0c0 11.567535 -9.96254 20.94487 -22.251968 20.94487l0 0c-12.289429 0 -22.251968 -9.377335 -22.251968 -20.94487z" fill-rule="nonzero"></path><path fill="#38761d" d="m224.8063 298.84567l0 0c0 -11.567535 9.96254 -20.944885 22.251968 -20.944885l0 0c5.901581 0 11.561478 2.2066956 15.734512 6.134613c4.173065 3.927948 6.517456 9.255341 6.517456 14.810272l0 0c0 11.567535 -9.962555 20.944885 -22.251968 20.944885l0 0c-12.289429 0 -22.251968 -9.37735 -22.251968 -20.944885z" fill-rule="nonzero"></path><path stroke="#000000" stroke-width="2.0" stroke-linejoin="round" stroke-linecap="butt" d="m224.8063 298.84567l0 0c0 -11.567535 9.96254 -20.944885 22.251968 -20.944885l0 0c5.901581 0 11.561478 2.2066956 15.734512 6.134613c4.173065 3.927948 6.517456 9.255341 6.517456 14.810272l0 0c0 11.567535 -9.962555 20.944885 -22.251968 20.944885l0 0c-12.289429 0 -22.251968 -9.37735 -22.251968 -20.944885z" fill-rule="nonzero"></path><path fill="#ff0000" d="m404.30237 45.176384l0 0c0 -11.567539 9.962555 -20.944883 22.251953 -20.944883l0 0c5.9016113 0 11.561493 2.206686 15.734528 6.134615c4.173065 3.927925 6.517456 9.255341 6.517456 14.810268l0 0c0 11.567539 -9.962555 20.944878 -22.251984 20.944878l0 0c-12.289398 0 -22.251953 -9.377338 -22.251953 -20.944878z" fill-rule="nonzero"></path><path stroke="#000000" stroke-width="2.0" stroke-linejoin="round" stroke-linecap="butt" d="m404.30237 45.176384l0 0c0 -11.567539 9.962555 -20.944883 22.251953 -20.944883l0 0c5.9016113 0 11.561493 2.206686 15.734528 6.134615c4.173065 3.927925 6.517456 9.255341 6.517456 14.810268l0 0c0 11.567539 -9.962555 20.944878 -22.251984 20.944878l0 0c-12.289398 0 -22.251953 -9.377338 -22.251953 -20.944878z" fill-rule="nonzero"></path><path fill="#38761d" d="m429.81287 315.69608l0 0c0 -11.567535 9.962555 -20.944885 22.251953 -20.944885l0 0c5.9016113 0 11.561493 2.2066956 15.734528 6.134613c4.173065 3.9279175 6.517456 9.255341 6.517456 14.810272l0 0c0 11.567535 -9.962555 20.944885 -22.251984 20.944885l0 0c-12.289398 0 -22.251953 -9.37735 -22.251953 -20.944885z" fill-rule="nonzero"></path><path stroke="#000000" stroke-width="2.0" stroke-linejoin="round" stroke-linecap="butt" d="m429.81287 315.69608l0 0c0 -11.567535 9.962555 -20.944885 22.251953 -20.944885l0 0c5.9016113 0 11.561493 2.2066956 15.734528 6.134613c4.173065 3.9279175 6.517456 9.255341 6.517456 14.810272l0 0c0 11.567535 -9.962555 20.944885 -22.251984 20.944885l0 0c-12.289398 0 -22.251953 -9.37735 -22.251953 -20.944885z" fill-rule="nonzero"></path><path fill="#cfe2f3" d="m276.30237 224.95592l0 0c0 -11.567551 9.962555 -20.944885 22.251953 -20.944885l0 0c5.9016113 0 11.561493 2.2066803 15.734528 6.134613c4.173065 3.9279175 6.517456 9.255341 6.517456 14.810272l0 0c0 11.567535 -9.962555 20.94487 -22.251984 20.94487l0 0c-12.289398 0 -22.251953 -9.377335 -22.251953 -20.94487z" fill-rule="nonzero"></path><path stroke="#000000" stroke-width="2.0" stroke-linejoin="round" stroke-linecap="butt" d="m276.30237 224.95592l0 0c0 -11.567551 9.962555 -20.944885 22.251953 -20.944885l0 0c5.9016113 0 11.561493 2.2066803 15.734528 6.134613c4.173065 3.9279175 6.517456 9.255341 6.517456 14.810272l0 0c0 11.567535 -9.962555 20.94487 -22.251984 20.94487l0 0c-12.289398 0 -22.251953 -9.377335 -22.251953 -20.94487z" fill-rule="nonzero"></path><path fill="#cfe2f3" d="m388.30237 247.06615l0 0c0 -11.567535 9.962555 -20.944885 22.251953 -20.944885l0 0c5.9016113 0 11.561493 2.2066956 15.734528 6.134613c4.173065 3.9279327 6.517456 9.255341 6.517456 14.810272l0 0c0 11.567551 -9.962555 20.94487 -22.251984 20.94487l0 0c-12.289398 0 -22.251953 -9.377319 -22.251953 -20.94487z" fill-rule="nonzero"></path><path stroke="#000000" stroke-width="2.0" stroke-linejoin="round" stroke-linecap="butt" d="m388.30237 247.06615l0 0c0 -11.567535 9.962555 -20.944885 22.251953 -20.944885l0 0c5.9016113 0 11.561493 2.2066956 15.734528 6.134613c4.173065 3.9279327 6.517456 9.255341 6.517456 14.810272l0 0c0 11.567551 -9.962555 20.94487 -22.251984 20.94487l0 0c-12.289398 0 -22.251953 -9.377319 -22.251953 -20.94487z" fill-rule="nonzero"></path><path fill="#38761d" d="m346.82468 384.9874l0 0c0 -11.567535 9.962555 -20.944885 22.251984 -20.944885l0 0c5.901581 0 11.561462 2.2066956 15.734497 6.134613c4.173065 3.927948 6.517456 9.255341 6.517456 14.810272l0 0c0 11.567535 -9.962555 20.944885 -22.251953 20.944885l0 0c-12.289429 0 -22.251984 -9.37735 -22.251984 -20.944885z" fill-rule="nonzero"></path><path stroke="#000000" stroke-width="2.0" stroke-linejoin="round" stroke-linecap="butt" d="m346.82468 384.9874l0 0c0 -11.567535 9.962555 -20.944885 22.251984 -20.944885l0 0c5.901581 0 11.561462 2.2066956 15.734497 6.134613c4.173065 3.927948 6.517456 9.255341 6.517456 14.810272l0 0c0 11.567535 -9.962555 20.944885 -22.251953 20.944885l0 0c-12.289429 0 -22.251984 -9.37735 -22.251984 -20.944885z" fill-rule="nonzero"></path><path fill="#38761d" d="m472.93884 199.50185l0 0c0 -11.567551 9.962555 -20.944885 22.251984 -20.944885l0 0c5.901581 0 11.561462 2.2066803 15.734497 6.134613c4.173065 3.9279327 6.5174866 9.255341 6.5174866 14.810272l0 0c0 11.567535 -9.962555 20.94487 -22.251984 20.94487l0 0c-12.289429 0 -22.251984 -9.377335 -22.251984 -20.94487z" fill-rule="nonzero"></path><path stroke="#000000" stroke-width="2.0" stroke-linejoin="round" stroke-linecap="butt" d="m472.93884 199.50185l0 0c0 -11.567551 9.962555 -20.944885 22.251984 -20.944885l0 0c5.901581 0 11.561462 2.2066803 15.734497 6.134613c4.173065 3.9279327 6.5174866 9.255341 6.5174866 14.810272l0 0c0 11.567535 -9.962555 20.94487 -22.251984 20.94487l0 0c-12.289429 0 -22.251984 -9.377335 -22.251984 -20.94487z" fill-rule="nonzero"></path><path fill="#ff0000" d="m558.48346 113.247246l0 0c0 -11.567535 9.962585 -20.944878 22.251953 -20.944878l0 0c5.9016113 0 11.561462 2.206688 15.734558 6.134613c4.1730347 3.927925 6.517456 9.255341 6.517456 14.810265l0 0c0 11.567543 -9.962585 20.944878 -22.252014 20.944878l0 0c-12.289368 0 -22.251953 -9.377335 -22.251953 -20.944878z" fill-rule="nonzero"></path><path stroke="#000000" stroke-width="2.0" stroke-linejoin="round" stroke-linecap="butt" d="m558.48346 113.247246l0 0c0 -11.567535 9.962585 -20.944878 22.251953 -20.944878l0 0c5.9016113 0 11.561462 2.206688 15.734558 6.134613c4.1730347 3.927925 6.517456 9.255341 6.517456 14.810265l0 0c0 11.567543 -9.962585 20.944878 -22.252014 20.944878l0 0c-12.289368 0 -22.251953 -9.377335 -22.251953 -20.944878z" fill-rule="nonzero"></path><path fill="#cfe2f3" d="m180.30237 378.84567l0 0c0 -11.567535 9.96254 -20.944885 22.251968 -20.944885l0 0c5.901581 0 11.561462 2.2066956 15.734512 6.134613c4.173065 3.927948 6.517456 9.255341 6.517456 14.810272l0 0c0 11.567535 -9.96254 20.944885 -22.251968 20.944885l0 0c-12.289429 0 -22.251968 -9.37735 -22.251968 -20.944885z" fill-rule="nonzero"></path><path stroke="#000000" stroke-width="2.0" stroke-linejoin="round" stroke-linecap="butt" d="m180.30237 378.84567l0 0c0 -11.567535 9.96254 -20.944885 22.251968 -20.944885l0 0c5.901581 0 11.561462 2.2066956 15.734512 6.134613c4.173065 3.927948 6.517456 9.255341 6.517456 14.810272l0 0c0 11.567535 -9.96254 20.944885 -22.251968 20.944885l0 0c-12.289429 0 -22.251968 -9.37735 -22.251968 -20.944885z" fill-rule="nonzero"></path><path fill="#ff0000" d="m276.30237 50.55696l0 0c0 -11.567539 9.962555 -20.944883 22.251953 -20.944883l0 0c5.9016113 0 11.561493 2.206688 15.734528 6.134615c4.173065 3.927925 6.517456 9.255341 6.517456 14.810268l0 0c0 11.567539 -9.962555 20.944878 -22.251984 20.944878l0 0c-12.289398 0 -22.251953 -9.377338 -22.251953 -20.944878z" fill-rule="nonzero"></path><path stroke="#000000" stroke-width="2.0" stroke-linejoin="round" stroke-linecap="butt" d="m276.30237 50.55696l0 0c0 -11.567539 9.962555 -20.944883 22.251953 -20.944883l0 0c5.9016113 0 11.561493 2.206688 15.734528 6.134615c4.173065 3.927925 6.517456 9.255341 6.517456 14.810268l0 0c0 11.567539 -9.962555 20.944878 -22.251984 20.944878l0 0c-12.289398 0 -22.251953 -9.377338 -22.251953 -20.944878z" fill-rule="nonzero"></path><path fill="#38761d" d="m558.48346 243.49397l0 0c0 -11.567551 9.962585 -20.944885 22.251953 -20.944885l0 0c5.9016113 0 11.561462 2.2066803 15.734558 6.134613c4.1730347 3.9279327 6.517456 9.255341 6.517456 14.810272l0 0c0 11.567535 -9.962585 20.94487 -22.252014 20.94487l0 0c-12.289368 0 -22.251953 -9.377335 -22.251953 -20.94487z" fill-rule="nonzero"></path><path stroke="#000000" stroke-width="2.0" stroke-linejoin="round" stroke-linecap="butt" d="m558.48346 243.49397l0 0c0 -11.567551 9.962585 -20.944885 22.251953 -20.944885l0 0c5.9016113 0 11.561462 2.2066803 15.734558 6.134613c4.1730347 3.9279327 6.517456 9.255341 6.517456 14.810272l0 0c0 11.567535 -9.962585 20.94487 -22.252014 20.94487l0 0c-12.289368 0 -22.251953 -9.377335 -22.251953 -20.94487z" fill-rule="nonzero"></path><path fill="#38761d" d="m546.8483 336.9559l0 0c0 -11.567535 9.962524 -20.944885 22.251953 -20.944885l0 0c5.9015503 0 11.561462 2.2066956 15.734497 6.134613c4.1730347 3.927948 6.517456 9.255341 6.517456 14.810272l0 0c0 11.567535 -9.962524 20.944885 -22.251953 20.944885l0 0c-12.289429 0 -22.251953 -9.37735 -22.251953 -20.944885z" fill-rule="nonzero"></path><path stroke="#000000" stroke-width="2.0" stroke-linejoin="round" stroke-linecap="butt" d="m546.8483 336.9559l0 0c0 -11.567535 9.962524 -20.944885 22.251953 -20.944885l0 0c5.9015503 0 11.561462 2.2066956 15.734497 6.134613c4.1730347 3.927948 6.517456 9.255341 6.517456 14.810272l0 0c0 11.567535 -9.962524 20.944885 -22.251953 20.944885l0 0c-12.289429 0 -22.251953 -9.37735 -22.251953 -20.944885z" fill-rule="nonzero"></path><path fill="#cfe2f3" d="m455.79843 113.247246l0 0c0 -11.567535 9.962555 -20.944878 22.251953 -20.944878l0 0c5.9016113 0 11.561493 2.206688 15.734528 6.134613c4.173065 3.927925 6.517456 9.255341 6.517456 14.810265l0 0c0 11.567543 -9.962555 20.944878 -22.251984 20.944878l0 0c-12.289398 0 -22.251953 -9.377335 -22.251953 -20.944878z" fill-rule="nonzero"></path><path stroke="#000000" stroke-width="2.0" stroke-linejoin="round" stroke-linecap="butt" d="m455.79843 113.247246l0 0c0 -11.567535 9.962555 -20.944878 22.251953 -20.944878l0 0c5.9016113 0 11.561493 2.206688 15.734528 6.134613c4.173065 3.927925 6.517456 9.255341 6.517456 14.810265l0 0c0 11.567543 -9.962555 20.944878 -22.251984 20.944878l0 0c-12.289398 0 -22.251953 -9.377335 -22.251953 -20.944878z" fill-rule="nonzero"></path><path fill="#ff0000" d="m621.31024 186.84567l0 0c0 -11.567535 9.962524 -20.944885 22.251953 -20.944885l0 0c5.9016113 0 11.561462 2.2066956 15.734558 6.134613c4.1730347 3.9279327 6.517395 9.255341 6.517395 14.810272l0 0c0 11.567535 -9.962524 20.944885 -22.251953 20.944885l0 0c-12.289429 0 -22.251953 -9.37735 -22.251953 -20.944885z" fill-rule="nonzero"></path><path stroke="#000000" stroke-width="2.0" stroke-linejoin="round" stroke-linecap="butt" d="m621.31024 186.84567l0 0c0 -11.567535 9.962524 -20.944885 22.251953 -20.944885l0 0c5.9016113 0 11.561462 2.2066956 15.734558 6.134613c4.1730347 3.9279327 6.517395 9.255341 6.517395 14.810272l0 0c0 11.567535 -9.962524 20.944885 -22.251953 20.944885l0 0c-12.289429 0 -22.251953 -9.37735 -22.251953 -20.944885z" fill-rule="nonzero"></path><path fill="#ff0000" d="m532.30237 24.811554l0 0c0 -11.567539 9.962524 -20.944883 22.251953 -20.944883l0 0c5.9016113 0 11.561462 2.2066867 15.734558 6.134614c4.1730347 3.927927 6.517395 9.255341 6.517395 14.810268l0 0c0 11.567539 -9.962524 20.944881 -22.251953 20.944881l0 0c-12.289429 0 -22.251953 -9.377342 -22.251953 -20.944881z" fill-rule="nonzero"></path><path stroke="#000000" stroke-width="2.0" stroke-linejoin="round" stroke-linecap="butt" d="m532.30237 24.811554l0 0c0 -11.567539 9.962524 -20.944883 22.251953 -20.944883l0 0c5.9016113 0 11.561462 2.2066867 15.734558 6.134614c4.1730347 3.927927 6.517395 9.255341 6.517395 14.810268l0 0c0 11.567539 -9.962524 20.944881 -22.251953 20.944881l0 0c-12.289429 0 -22.251953 -9.377342 -22.251953 -20.944881z" fill-rule="nonzero"></path><path fill="#ff0000" d="m675.5307 309.1764l0 0c0 -11.567535 9.962585 -20.944885 22.251953 -20.944885l0 0c5.9016113 0 11.561462 2.2066956 15.734558 6.134613c4.1730347 3.9279175 6.517456 9.255341 6.517456 14.810272l0 0c0 11.567535 -9.962585 20.944885 -22.252014 20.944885l0 0c-12.289368 0 -22.251953 -9.37735 -22.251953 -20.944885z" fill-rule="nonzero"></path><path stroke="#000000" stroke-width="2.0" stroke-linejoin="round" stroke-linecap="butt" d="m675.5307 309.1764l0 0c0 -11.567535 9.962585 -20.944885 22.251953 -20.944885l0 0c5.9016113 0 11.561462 2.2066956 15.734558 6.134613c4.1730347 3.9279175 6.517456 9.255341 6.517456 14.810272l0 0c0 11.567535 -9.962585 20.944885 -22.252014 20.944885l0 0c-12.289368 0 -22.251953 -9.37735 -22.251953 -20.944885z" fill-rule="nonzero"></path><path fill="#000000" d="m700.0973 314.59637l0.234375 1.484375q-0.703125 0.140625 -1.265625 0.140625q-0.90625 0 -1.40625 -0.28125q-0.5 -0.296875 -0.703125 -0.75q-0.203125 -0.46875 -0.203125 -1.984375l0 -5.65625l-1.234375 0l0 -1.3125l1.234375 0l0 -2.4375l1.65625 -1.0l0 3.4375l1.6875 0l0 1.3125l-1.6875 0l0 5.75q0 0.71875 0.078125 0.921875q0.09375 0.203125 0.296875 0.328125q0.203125 0.125 0.578125 0.125q0.265625 0 0.734375 -0.078125z" fill-rule="nonzero"></path><path fill="#cfe2f3" d="m672.6672 66.70132l0 0c0 -11.567539 9.962585 -20.944881 22.252014 -20.944881l0 0c5.9015503 0 11.561462 2.206688 15.734497 6.134613c4.1730347 3.927929 6.517456 9.255341 6.517456 14.810268l0 0c0 11.567535 -9.962524 20.944885 -22.251953 20.944885l0 0c-12.289429 0 -22.252014 -9.37735 -22.252014 -20.944885z" fill-rule="nonzero"></path><path stroke="#000000" stroke-width="2.0" stroke-linejoin="round" stroke-linecap="butt" d="m672.6672 66.70132l0 0c0 -11.567539 9.962585 -20.944881 22.252014 -20.944881l0 0c5.9015503 0 11.561462 2.206688 15.734497 6.134613c4.1730347 3.927929 6.517456 9.255341 6.517456 14.810268l0 0c0 11.567535 -9.962524 20.944885 -22.251953 20.944885l0 0c-12.289429 0 -22.252014 -9.37735 -22.252014 -20.944885z" fill-rule="nonzero"></path><path fill="#000000" fill-opacity="0.0" d="m48.806305 80.95591c16.874016 0 25.31102 0.01574707 33.74803 0.03149414c8.437004 0.01574707 16.874016 0.03150177 33.74803 0.03150177" fill-rule="nonzero"></path><path stroke="#ff0000" stroke-width="2.0" stroke-linejoin="round" stroke-linecap="butt" d="m48.8063 80.95591c16.87402 0 25.311024 0.01574707 33.748035 0.03149414c4.218506 0.007873535 8.437012 0.01574707 13.710136 0.021652222l8.037895 0.006500244" fill-rule="evenodd"></path><path fill="#ff0000" stroke="#ff0000" stroke-width="2.0" stroke-linecap="butt" d="m104.30145 84.319016l9.07711 -3.3009338l-9.075272 -3.3059921z" fill-rule="evenodd"></path><path fill="#000000" fill-opacity="0.0" d="m42.288853 95.76618c0 8.5948105 8.133858 12.890411 16.267715 17.189621c8.133862 4.299217 16.26772 8.602043 16.26772 17.204079" fill-rule="nonzero"></path><path stroke="#38761d" stroke-width="2.0" stroke-linejoin="round" stroke-linecap="butt" d="m42.288853 95.76618c0 8.5948105 8.133858 12.890404 16.267715 17.189621c2.0334663 1.0747986 4.066929 2.1498337 5.973301 3.2922058c0.95318604 0.5711899 1.8746033 1.1592026 2.7483597 1.7724533c0.4368744 0.30662537 0.8618393 0.61956024 1.2728958 0.93984985c0.20553589 0.16013336 0.40758514 0.32212067 0.6059189 0.48607635l0.099349976 0.0834198" fill-rule="evenodd"></path><path fill="#38761d" stroke="#38761d" stroke-width="2.0" stroke-linecap="butt" d="m66.330055 121.06258l7.1376114 6.5072784l-1.284935 -9.57283z" fill-rule="evenodd"></path><path fill="#000000" fill-opacity="0.0" d="m90.55434 165.90079c0 17.527664 0.9370041 25.523819 1.8740158 35.05533c0.9370041 9.531494 1.8740158 20.598312 1.8740158 41.19664" fill-rule="nonzero"></path><path stroke="#38761d" stroke-width="2.0" stroke-linejoin="round" stroke-linecap="butt" stroke-dasharray="2.0,6.0" d="m90.55434 165.9008c0 17.527649 0.9370117 25.523819 1.8740158 35.055313c0.46850586 4.765747 0.9370117 9.915344 1.2883911 16.448273c0.1756897 3.2664642 0.32209015 6.878769 0.4245758 10.961853c0.012817383 0.510376 0.02494049 1.028122 0.036346436 1.5534668l0.0046844482 0.23365784" fill-rule="evenodd"></path><path fill="#38761d" stroke="#38761d" stroke-width="2.0" stroke-linecap="butt" d="m90.87905 230.1864l3.3940735 9.042709l3.2125244 -9.10878z" fill-rule="evenodd"></path><path fill="#000000" fill-opacity="0.0" d="m154.28885 66.145645c0 -7.7952766 61.007874 -15.590553 122.01575 -15.590553" fill-rule="nonzero"></path><path stroke="#ff0000" stroke-width="2.0" stroke-linejoin="round" stroke-linecap="butt" d="m154.28886 66.145645c0 -3.8976402 15.251968 -7.7952766 38.129913 -10.718506c11.43898 -1.4616127 24.784454 -2.6796265 39.083176 -3.5322342c7.149353 -0.42630386 14.537033 -0.7612572 22.043854 -0.98963547c1.876709 -0.05709076 3.7608643 -0.10752869 5.6506042 -0.15106201c0.94488525 -0.021766663 1.8911133 -0.041809082 2.838562 -0.060092926l2.27005 -0.03955078" fill-rule="evenodd"></path><path fill="#ff0000" stroke="#ff0000" stroke-width="2.0" stroke-linecap="butt" d="m264.3324 53.957916l9.048492 -3.3785858l-9.103241 -3.228115z" fill-rule="evenodd"></path><path fill="#000000" fill-opacity="0.0" d="m154.28885 95.76618c0 22.231453 4.5669403 33.348747 9.133865 44.462914c4.566925 11.114166 9.13385 22.225235 9.13385 44.45047" fill-rule="nonzero"></path><path stroke="#ff0000" stroke-width="2.0" stroke-linejoin="round" stroke-linecap="butt" stroke-dasharray="2.0,6.0" d="m154.28886 95.76618c0 22.231453 4.566925 33.348747 9.13385 44.462914c2.2834625 5.557083 4.566925 11.113388 6.2795258 18.058578c0.856308 3.4725952 1.5698853 7.2924194 2.069397 11.633163c0.062438965 0.5425873 0.121536255 1.0933228 0.17713928 1.6525421c0.027801514 0.27960205 0.054733276 0.5613251 0.08076477 0.84521484l0.023895264 0.27153015" fill-rule="evenodd"></path><path fill="#ff0000" stroke="#ff0000" stroke-width="2.0" stroke-linecap="butt" d="m168.75287 172.82863l3.6811066 8.929703l2.9200134 -9.206726z" fill-rule="evenodd"></path><path fill="#000000" fill-opacity="0.0" d="m106.28886 159.76617c0 19.874023 29.874016 39.74803 59.748024 39.74803" fill-rule="nonzero"></path><path stroke="#38761d" stroke-width="2.0" stroke-linejoin="round" stroke-linecap="butt" d="m106.28886 159.76617c0 9.937012 7.468506 19.874023 18.671257 27.326782c5.6013794 3.7263641 12.136322 6.8316803 19.138046 9.005402c1.7504272 0.5434418 3.5300446 1.028656 5.3315125 1.4507751c0.90075684 0.21105957 1.806961 0.4063568 2.7177277 0.5852814c0.45539856 0.08946228 0.911911 0.17481995 1.369461 0.25601196l0.56399536 0.09739685" fill-rule="evenodd"></path><path fill="#38761d" stroke="#38761d" stroke-width="2.0" stroke-linecap="butt" d="m153.79831 201.77919l9.325485 -2.5150604l-8.760376 -4.0676575z" fill-rule="evenodd"></path><path fill="#000000" fill-opacity="0.0" d="m204.03688 184.69157c0 -14.158615 6.8189087 -21.23848 13.637802 -28.31723c6.8188934 -7.0787354 13.637787 -14.156342 13.637787 -28.312698" fill-rule="nonzero"></path><path stroke="#38761d" stroke-width="2.0" stroke-linejoin="round" stroke-linecap="butt" stroke-dasharray="2.0,6.0" d="m204.0369 184.69157c0 -14.158615 6.8188934 -21.238495 13.637787 -28.31723c3.4094543 -3.5393677 6.8188934 -7.0784607 9.375992 -11.502243c0.63926697 -1.1059418 1.2252655 -2.2671814 1.74469 -3.4975586c0.12983704 -0.30758667 0.25552368 -0.6194916 0.3768463 -0.93592834c0.060668945 -0.15823364 0.12023926 -0.31759644 0.17868042 -0.47810364l0.02017212 -0.0569458" fill-rule="evenodd"></path><path fill="#38761d" stroke="#38761d" stroke-width="2.0" stroke-linecap="butt" d="m232.63101 140.438l-1.7915497 -9.491074l-4.7283325 8.42218z" fill-rule="evenodd"></path><path fill="#000000" fill-opacity="0.0" d="m314.28885 65.367226c0 14.048935 8.13385 21.074242 16.26773 28.097862c8.13385 7.0236206 16.2677 14.045555 16.2677 28.091118" fill-rule="nonzero"></path><path stroke="#ff0000" stroke-width="2.0" stroke-linejoin="round" stroke-linecap="butt" d="m314.28885 65.367226c0 14.048935 8.133881 21.074242 16.26773 28.097862c4.066925 3.5118103 8.13385 7.023201 11.184021 11.412331c0.7625427 1.09729 1.4615479 2.2494278 2.0811462 3.4701462c0.15487671 0.30517578 0.30480957 0.6146469 0.44952393 0.9286194c0.07235718 0.15698242 0.14343262 0.31508636 0.21313477 0.47434998l0.014160156 0.033195496" fill-rule="evenodd"></path><path fill="#ff0000" stroke="#ff0000" stroke-width="2.0" stroke-linecap="butt" d="m341.25772 110.42398l4.999878 8.263855l1.481781 -9.544342z" fill-rule="evenodd"></path><path fill="#000000" fill-opacity="0.0" d="m204.03688 214.3121c0 17.430984 6.8189087 26.145432 13.637802 34.86197c6.8188934 8.716522 13.637787 17.43515 13.637787 34.87033" fill-rule="nonzero"></path><path stroke="#38761d" stroke-width="2.0" stroke-linejoin="round" stroke-linecap="butt" d="m204.0369 214.3121c0 17.430984 6.8188934 26.145432 13.637787 34.86197c3.4094543 4.358261 6.8188934 8.717041 9.375992 14.16568c0.63926697 1.3621521 1.2252655 2.7924194 1.74469 4.307831c0.25968933 0.7576904 0.5027466 1.5366821 0.727478 2.3390808c0.11239624 0.40118408 0.22016907 0.80822754 0.32318115 1.2214355c0.051513672 0.20654297 0.10180664 0.41467285 0.15089417 0.62435913l0.06285095 0.27749634" fill-rule="evenodd"></path><path fill="#38761d" stroke="#38761d" stroke-width="2.0" stroke-linecap="butt" d="m226.77437 272.4548l4.232895 8.681763l2.3379364 -9.37146z" fill-rule="evenodd"></path><path fill="#000000" fill-opacity="0.0" d="m247.05827 319.79056c0 9.527435 -7.18898 13.523407 -14.37796 19.054901c-7.188965 5.531494 -14.377945 12.598541 -14.377945 25.197052" fill-rule="nonzero"></path><path stroke="#38761d" stroke-width="2.0" stroke-linejoin="round" stroke-linecap="butt" stroke-dasharray="2.0,6.0" d="m247.05827 319.79056c0 9.527435 -7.18898 13.523407 -14.377945 19.054901c-3.5944977 2.765747 -7.18898 5.9153748 -9.884842 9.948395c-0.67396545 1.0082703 -1.2917786 2.0717163 -1.8393707 3.1981812l-0.14945984 0.31472778" fill-rule="evenodd"></path><path fill="#38761d" stroke="#38761d" stroke-width="2.0" stroke-linecap="butt" d="m217.57593 351.61734l1.3366089 9.565765l5.1248474 -8.186951z" fill-rule="evenodd"></path><path fill="#000000" fill-opacity="0.0" d="m346.81982 151.1835c0 14.740433 -12.062988 22.87851 -24.125977 29.480865c-12.063019 6.602356 -24.126007 11.669022 -24.126007 23.338028" fill-rule="nonzero"></path><path stroke="#ff0000" stroke-width="2.0" stroke-linejoin="round" stroke-linecap="butt" stroke-dasharray="2.0,6.0" d="m346.8198 151.1835c0 14.740433 -12.062958 22.87851 -24.125946 29.480865c-6.031494 3.301178 -12.063019 6.2184296 -16.58664 9.769012c-0.5654297 0.4438324 -1.1073303 0.8975525 -1.6227112 1.3631439c-0.25772095 0.23280334 -0.50878906 0.4685669 -0.75283813 0.70758057c-0.122039795 0.11947632 -0.24230957 0.23979187 -0.36080933 0.36091614l-0.09512329 0.09944153" fill-rule="evenodd"></path><path fill="#ff0000" stroke="#ff0000" stroke-width="2.0" stroke-linecap="butt" d="m300.2371 191.66844l-0.52215576 9.644562l6.5993958 -7.0525208z" fill-rule="evenodd"></path><path fill="#000000" fill-opacity="0.0" d="m378.28885 151.1835c0 20.26796 8.062988 31.16977 16.125977 40.535904c8.063019 9.36615 16.126007 17.196625 16.126007 34.393234" fill-rule="nonzero"></path><path stroke="#ff0000" stroke-width="2.0" stroke-linejoin="round" stroke-linecap="butt" stroke-dasharray="2.0,6.0" d="m378.28885 151.1835c0 20.267944 8.062988 31.16977 16.125977 40.535904c4.031494 4.683075 8.062988 8.9822235 11.086609 14.260193c0.7559204 1.3194885 1.448822 2.7001495 2.0629883 4.1632843c0.3070984 0.7315674 0.5944824 1.4837646 0.8602295 2.2592316c0.13287354 0.38772583 0.26034546 0.78126526 0.3821411 1.1809692c0.060913086 0.19984436 0.12036133 0.40124512 0.17843628 0.6042175l0.0071105957 0.025665283" fill-rule="evenodd"></path><path fill="#ff0000" stroke="#ff0000" stroke-width="2.0" stroke-linecap="butt" d="m405.7165 214.63924l4.4470215 8.574036l2.1046448 -9.42659z" fill-rule="evenodd"></path><path fill="#000000" fill-opacity="0.0" d="m384.81116 370.17712c0 -9.917725 16.811035 -15.642578 33.62204 -19.83548c16.811035 -4.192932 33.62207 -6.8539124 33.62207 -13.707825" fill-rule="nonzero"></path><path stroke="#38761d" stroke-width="2.0" stroke-linejoin="round" stroke-linecap="butt" d="m384.81116 370.17712c0 -9.917725 16.811005 -15.642548 33.62204 -19.83548c8.405518 -2.0964355 16.811035 -3.809906 23.115143 -5.8560486c0.19702148 -0.063934326 0.39193726 -0.12820435 0.58480835 -0.19277954l0.5357666 -0.18252563" fill-rule="evenodd"></path><path fill="#38761d" stroke="#38761d" stroke-width="2.0" stroke-linecap="butt" d="m444.7271 346.6942l5.0411377 -8.238739l-9.157501 3.0708618z" fill-rule="evenodd"></path><path fill="#000000" fill-opacity="0.0" d="m262.7928 313.65594c0 14.130188 22.637787 21.19342 45.275604 28.260376c22.637787 7.066925 45.275574 14.137512 45.275574 28.275055" fill-rule="nonzero"></path><path stroke="#38761d" stroke-width="2.0" stroke-linejoin="round" stroke-linecap="butt" d="m262.7928 313.65594c0 14.130188 22.637817 21.19345 45.275604 28.260376c11.318878 3.5334473 22.637787 7.0678406 31.126953 11.486023c2.122284 1.1045837 4.0677185 2.2643738 5.7921143 3.4931946c0.8621521 0.6143799 1.6690674 1.2460632 2.4151917 1.8967285c0.18649292 0.16265869 0.3692627 0.32650757 0.5480957 0.49157715l0.13110352 0.12277222" fill-rule="evenodd"></path><path fill="#38761d" stroke="#38761d" stroke-width="2.0" stroke-linecap="butt" d="m345.11295 360.85522l6.948883 6.708435l-1.0110779 -9.605621z" fill-rule="evenodd"></path><path fill="#000000" fill-opacity="0.0" d="m378.28885 121.562965c0 -15.394012 8.13385 -23.091164 16.26773 -30.788017c8.13385 -7.6968536 16.2677 -15.393394 16.2677 -30.786785" fill-rule="nonzero"></path><path stroke="#ff0000" stroke-width="2.0" stroke-linejoin="round" stroke-linecap="butt" d="m378.28885 121.56296c0 -15.394005 8.13385 -23.091164 16.2677 -30.78801c4.066925 -3.8484268 8.13385 -7.6967697 11.1840515 -12.507187c0.7625427 -1.2026062 1.4615784 -2.4653397 2.0811157 -3.803238c0.30981445 -0.6689453 0.59976196 -1.3566818 0.86779785 -2.065094c0.06704712 -0.17710114 0.13269043 -0.35549164 0.19696045 -0.53520966l0.010986328 -0.03175354" fill-rule="evenodd"></path><path fill="#ff0000" stroke="#ff0000" stroke-width="2.0" stroke-linecap="butt" d="m412.15808 72.362885l-1.8032837 -9.488853l-4.717926 8.428017z" fill-rule="evenodd"></path><path fill="#000000" fill-opacity="0.0" d="m384.8063 136.37323c38.75589 0 77.51181 -4.1574707 77.51181 -8.314957" fill-rule="nonzero"></path><path stroke="#ff0000" stroke-width="2.0" stroke-linejoin="round" stroke-linecap="butt" stroke-dasharray="2.0,6.0" d="m384.8063 136.37323c19.37796 0 38.75592 -1.0393677 53.289368 -2.5984192c3.6333618 -0.3897705 6.9639587 -0.8120117 9.916046 -1.258606c0.7380371 -0.11166382 1.4524231 -0.224823 2.1419373 -0.33940125l0.8420105 -0.14334106" fill-rule="evenodd"></path><path fill="#ff0000" stroke="#ff0000" stroke-width="2.0" stroke-linecap="butt" d="m452.09 135.1504l7.469391 -6.123581l-9.658051 -0.110305786z" fill-rule="evenodd"></path><path fill="#000000" fill-opacity="0.0" d="m426.28885 261.8764c0 9.752289 6.4409485 15.394318 12.881897 19.504547c6.4409485 4.11026 12.881897 6.68869 12.881897 13.37735" fill-rule="nonzero"></path><path stroke="#38761d" stroke-width="2.0" stroke-linejoin="round" stroke-linecap="butt" stroke-dasharray="2.0,6.0" d="m429.9791 273.2949l0.11129761 0.15280151c0.07385254 0.099609375 0.14852905 0.19851685 0.22402954 0.29678345c2.4153442 3.1433105 5.6358337 5.58136 8.856293 7.636505c6.4409485 4.1102295 12.881897 6.6886597 12.881897 13.377319" fill-rule="evenodd"></path><path fill="#38761d" stroke="#38761d" stroke-width="2.0" stroke-linecap="butt" d="m433.12247 272.27902l-5.9345093 -7.6204834l-0.3522339 9.652252z" fill-rule="evenodd"></path><path fill="#000000" fill-opacity="0.0" d="m442.28885 59.986652c0 9.612568 8.937012 15.185764 17.874023 19.22514c8.937012 4.0393677 17.874023 6.5449066 17.874023 13.089821" fill-rule="nonzero"></path><path stroke="#ff0000" stroke-width="2.0" stroke-linejoin="round" stroke-linecap="butt" stroke-dasharray="2.0,6.0" d="m442.28885 59.986652c0 9.612568 8.936981 15.185764 17.873993 19.22514c2.234253 1.0098419 4.468506 1.9238205 6.563141 2.82901c1.0473022 0.45259857 2.0596924 0.9029999 3.0197144 1.3620987l0.15682983 0.07645416" fill-rule="evenodd"></path><path fill="#ff0000" stroke="#ff0000" stroke-width="2.0" stroke-linecap="butt" d="m467.47385 85.71864l8.581085 4.4334183l-3.723755 -8.91201z" fill-rule="evenodd"></path><path fill="#000000" fill-opacity="0.0" d="m442.28885 30.366116c0 -2.7716541 45.007874 -5.5433083 90.01578 -5.5433083" fill-rule="nonzero"></path><path stroke="#ff0000" stroke-width="2.0" stroke-linejoin="round" stroke-linecap="butt" d="m442.28885 30.366114c0 -1.3858261 11.251953 -2.7716541 28.129913 -3.8110237c8.438965 -0.51968575 18.284454 -0.9527569 28.83316 -1.2559052c5.274353 -0.15157509 10.724548 -0.27066994 16.262604 -0.35186958c1.3845215 -0.020301819 2.7745361 -0.038232803 4.16864 -0.053710938l0.62158203 -0.0057811737" fill-rule="evenodd"></path><path fill="#ff0000" stroke="#ff0000" stroke-width="2.0" stroke-linecap="butt" d="m520.32263 28.19124l9.0581665 -3.3525925l-9.093933 -3.25424z" fill-rule="evenodd"></path><path fill="#000000" fill-opacity="0.0" d="m554.5543 45.756435c0 11.63644 2.6141968 16.686264 5.2283325 23.272877c2.6141968 6.5866165 5.2283936 14.710022 5.2283936 29.420036" fill-rule="nonzero"></path><path stroke="#ff0000" stroke-width="2.0" stroke-linejoin="round" stroke-linecap="butt" d="m554.5543 45.756435c0 11.63644 2.6141968 16.686264 5.2283936 23.272877c1.3070679 3.2933044 2.6141357 6.97081 3.5944824 11.663742c0.24505615 1.173233 0.46972656 2.4099274 0.66882324 3.7199554c0.09954834 0.65501404 0.19274902 1.3283539 0.27893066 2.0212631l0.0040283203 0.034477234" fill-rule="evenodd"></path><path fill="#ff0000" stroke="#ff0000" stroke-width="2.0" stroke-linecap="butt" d="m561.0309 86.65651l3.8139648 8.873764l2.7822876 -9.249283z" fill-rule="evenodd"></path><path fill="#000000" fill-opacity="0.0" d="m517.4428 199.50185c23.77948 0 47.55902 -35.716537 47.55902 -71.433075" fill-rule="nonzero"></path><path stroke="#38761d" stroke-width="2.0" stroke-linejoin="round" stroke-linecap="butt" stroke-dasharray="2.0,6.0" d="m517.4428 199.50185c11.8897705 0 23.77948 -8.929138 32.69684 -22.32283c4.458679 -6.6968536 8.174194 -14.509842 10.775085 -22.880905c1.3004761 -4.1855316 2.3222046 -8.51059 3.018921 -12.9053955c0.043518066 -0.27467346 0.085754395 -0.5496216 0.12677002 -0.8248291l0.07647705 -0.5303345" fill-rule="evenodd"></path><path fill="#38761d" stroke="#38761d" stroke-width="2.0" stroke-linecap="butt" d="m567.43176 140.27568l-2.640686 -9.29071l-3.9490967 8.814468z" fill-rule="evenodd"></path><path fill="#000000" fill-opacity="0.0" d="m510.92532 214.3121c0 3.592926 13.519684 5.390579 27.039398 7.185852c13.519653 1.7952728 27.039368 3.5881805 27.039368 7.176361" fill-rule="nonzero"></path><path stroke="#38761d" stroke-width="2.0" stroke-linejoin="round" stroke-linecap="butt" d="m510.92532 214.3121c0 3.5929413 13.519684 5.390564 27.039337 7.185852c3.3799438 0.44880676 6.7598877 0.89749146 9.928528 1.3740845c1.5843506 0.23832703 3.1158447 0.4835968 4.5681763 0.7393799c0.36309814 0.063964844 0.7211914 0.12857056 1.0739746 0.19387817l0.4623413 0.0879364" fill-rule="evenodd"></path><path fill="#38761d" stroke="#38761d" stroke-width="2.0" stroke-linecap="butt" d="m552.68146 226.92316l9.640869 0.5862427l-7.008484 -6.646118z" fill-rule="evenodd"></path><path fill="#000000" fill-opacity="0.0" d="m596.47 128.05751c0 10.994431 11.7716675 17.256561 23.543274 21.988846c11.7716675 4.7322845 23.543335 7.9347076 23.543335 15.869431" fill-rule="nonzero"></path><path stroke="#ff0000" stroke-width="2.0" stroke-linejoin="round" stroke-linecap="butt" d="m596.4699 128.05751c0 10.994431 11.7716675 17.256561 23.543335 21.988846c2.9429321 1.1830597 5.885803 2.270523 8.644836 3.3602142c1.3794556 0.5448303 2.7129517 1.0902405 3.977478 1.6484222c0.6322632 0.2790985 1.2473145 0.5613861 1.8422241 0.84840393c0.29742432 0.14350891 0.5899048 0.288208 0.8768921 0.43426514c0.14349365 0.073028564 0.28570557 0.14640808 0.42651367 0.22013855l0.15917969 0.08468628" fill-rule="evenodd"></path><path fill="#ff0000" stroke="#ff0000" stroke-width="2.0" stroke-linecap="butt" d="m633.3876 158.73914l8.313293 4.917206l-3.2076416 -9.110504z" fill-rule="evenodd"></path><path fill="#000000" fill-opacity="0.0" d="m596.47 98.43698c0 -4.231392 20.677124 -6.34861 41.35431 -8.462784c20.677185 -2.114174 41.35431 -4.2253036 41.35431 -8.4506" fill-rule="nonzero"></path><path stroke="#ff0000" stroke-width="2.0" stroke-linejoin="round" stroke-linecap="butt" stroke-dasharray="2.0,6.0" d="m596.4699 98.43697c0 -4.2313843 20.677185 -6.34861 41.35437 -8.462776c10.338562 -1.0570908 20.677185 -2.1134186 28.431091 -3.4336243c0.48461914 -0.08251953 0.9591675 -0.16606903 1.4229126 -0.2507019l0.4515381 -0.08391571" fill-rule="evenodd"></path><path fill="#ff0000" stroke="#ff0000" stroke-width="2.0" stroke-linecap="butt" d="m669.4188 89.24756l7.067749 -6.583107l-9.645752 0.49990082z" fill-rule="evenodd"></path><path fill="#000000" fill-opacity="0.0" d="m643.5622 207.79056c0 20.11023 13.559082 30.16536 27.118103 40.220474c13.559082 10.0550995 27.118103 20.110245 27.118103 40.220474" fill-rule="nonzero"></path><path stroke="#ff0000" stroke-width="2.0" stroke-linejoin="round" stroke-linecap="butt" d="m643.5622 207.79056c0 20.110245 13.559082 30.16536 27.118103 40.220474c6.779541 5.0275574 13.559082 10.05513 18.643677 16.339554c2.5423584 3.1422424 4.6609497 6.598694 6.143982 10.526459c0.09265137 0.2454834 0.18286133 0.49282837 0.27056885 0.7420349c0.043762207 0.12460327 0.08703613 0.2496643 0.12957764 0.37521362l0.12432861 0.37387085" fill-rule="evenodd"></path><path fill="#ff0000" stroke="#ff0000" stroke-width="2.0" stroke-linecap="butt" d="m692.7266 276.86533l4.631775 8.4756775l1.8999023 -9.469971z" fill-rule="evenodd"></path><path fill="#000000" fill-opacity="0.0" d="m580.7354 264.43884c0 12.893127 -2.9054565 19.34137 -5.810974 25.786224c-2.9055176 6.4448853 -5.811035 12.886414 -5.811035 25.772827" fill-rule="nonzero"></path><path stroke="#38761d" stroke-width="2.0" stroke-linejoin="round" stroke-linecap="butt" d="m580.7354 264.43884c0 12.893127 -2.9054565 19.34137 -5.810974 25.786255c-1.4527588 3.2224426 -2.9055176 6.444031 -3.9951172 10.470825c-0.2723999 1.0066833 -0.5220947 2.0637207 -0.7434082 3.1836548l-0.030822754 0.16363525" fill-rule="evenodd"></path><path fill="#38761d" stroke="#38761d" stroke-width="2.0" stroke-linecap="butt" d="m566.8641 303.75644l2.5031128 9.328705l4.0789185 -8.755157z" fill-rule="evenodd"></path><path fill="#000000" fill-opacity="0.0" d="m467.79935 300.8858c0 -21.643433 6.850403 -33.23178 13.700806 -43.286896c6.8503723 -10.0550995 13.700775 -18.577026 13.700775 -37.154053" fill-rule="nonzero"></path><path stroke="#38761d" stroke-width="2.0" stroke-linejoin="round" stroke-linecap="butt" d="m467.79935 300.8858c0 -21.643463 6.8503723 -33.23178 13.700775 -43.286896c3.4252014 -5.027542 6.850403 -9.671799 9.419281 -15.381302c1.2844543 -2.8547516 2.354828 -5.975815 3.1040955 -9.5442505l0.05697632 -0.28092957" fill-rule="evenodd"></path><path fill="#38761d" stroke="#38761d" stroke-width="2.0" stroke-linecap="butt" d="m497.36948 232.70088l-2.4415588 -9.344986l-4.136505 8.728088z" fill-rule="evenodd"></path><path fill="#cfe2f3" d="m224.8063 113.247246l0 0c0 -11.567535 9.96254 -20.944878 22.251968 -20.944878l0 0c5.901581 0 11.561478 2.206688 15.734512 6.134613c4.173065 3.927925 6.517456 9.255341 6.517456 14.810265l0 0c0 11.567543 -9.962555 20.944878 -22.251968 20.944878l0 0c-12.289429 0 -22.251968 -9.377335 -22.251968 -20.944878z" fill-rule="nonzero"></path><path stroke="#000000" stroke-width="2.0" stroke-linejoin="round" stroke-linecap="butt" d="m224.8063 113.247246l0 0c0 -11.567535 9.96254 -20.944878 22.251968 -20.944878l0 0c5.901581 0 11.561478 2.206688 15.734512 6.134613c4.173065 3.927925 6.517456 9.255341 6.517456 14.810265l0 0c0 11.567543 -9.962555 20.944878 -22.251968 20.944878l0 0c-12.289429 0 -22.251968 -9.377335 -22.251968 -20.944878z" fill-rule="nonzero"></path><path fill="#000000" fill-opacity="0.0" d="m659.29675 172.0354c0 -15.905502 13.747986 -31.81102 27.496033 -31.81102" fill-rule="nonzero"></path><path stroke="#ff0000" stroke-width="2.0" stroke-linejoin="round" stroke-linecap="butt" stroke-dasharray="2.0,6.0" d="m659.2967 172.03542c0 -7.952759 3.4370117 -15.905518 8.592529 -21.870087c1.2888794 -1.4911499 2.6851807 -2.8580322 4.1619873 -4.06958c0.73846436 -0.6057739 1.4970093 -1.1727142 2.2723389 -1.6969452c0.19384766 -0.131073 0.3887329 -0.2594452 0.5845947 -0.38510132c0.097961426 -0.06283569 0.19616699 -0.12498474 0.29455566 -0.18643188l0.12060547 -0.07426453" fill-rule="evenodd"></path><path fill="#ff0000" stroke="#ff0000" stroke-width="2.0" stroke-linecap="butt" d="m676.2947 146.91042l7.7035522 -5.8262787l-9.646301 -0.48854065z" fill-rule="evenodd"></path><path fill="#cfe2f3" d="m686.7905 140.22363l0 0c0 -11.567551 9.962585 -20.944885 22.252014 -20.944885l0 0c5.9015503 0 11.561462 2.2066803 15.734497 6.134613c4.1730347 3.9279327 6.517456 9.255341 6.517456 14.810272l0 0c0 11.567535 -9.962524 20.94487 -22.251953 20.94487l0 0c-12.289429 0 -22.252014 -9.377335 -22.252014 -20.94487z" fill-rule="nonzero"></path><path stroke="#000000" stroke-width="2.0" stroke-linejoin="round" stroke-linecap="butt" d="m686.7905 140.22363l0 0c0 -11.567551 9.962585 -20.944885 22.252014 -20.944885l0 0c5.9015503 0 11.561462 2.2066803 15.734497 6.134613c4.1730347 3.9279327 6.517456 9.255341 6.517456 14.810272l0 0c0 11.567535 -9.962524 20.94487 -22.251953 20.94487l0 0c-12.289429 0 -22.252014 -9.377335 -22.252014 -20.94487z" fill-rule="nonzero"></path><path fill="#cfe2f3" d="m429.81287 408.0819l0 0c0 -11.567566 9.962555 -20.944885 22.251953 -20.944885l0 0c5.9016113 0 11.561493 2.206665 15.734528 6.134613c4.173065 3.9279175 6.517456 9.255341 6.517456 14.810272l0 0c0 11.567535 -9.962555 20.944855 -22.251984 20.944855l0 0c-12.289398 0 -22.251953 -9.377319 -22.251953 -20.944855z" fill-rule="nonzero"></path><path stroke="#000000" stroke-width="2.0" stroke-linejoin="round" stroke-linecap="butt" d="m429.81287 408.0819l0 0c0 -11.567566 9.962555 -20.944885 22.251953 -20.944885l0 0c5.9016113 0 11.561493 2.206665 15.734528 6.134613c4.173065 3.9279175 6.517456 9.255341 6.517456 14.810272l0 0c0 11.567535 -9.962555 20.944855 -22.251984 20.944855l0 0c-12.289398 0 -22.251953 -9.377319 -22.251953 -20.944855z" fill-rule="nonzero"></path><path fill="#000000" fill-opacity="0.0" d="m391.3286 384.9874c22.503937 0 45.007874 4.141754 45.007874 8.283478" fill-rule="nonzero"></path><path stroke="#38761d" stroke-width="2.0" stroke-linejoin="round" stroke-linecap="butt" stroke-dasharray="2.0,6.0" d="m391.3286 384.9874c11.251984 0 22.503937 1.0354614 30.942932 2.5885925c1.0548706 0.19415283 2.0657654 0.3963623 3.0272522 0.6056824l0.15429688 0.034332275" fill-rule="evenodd"></path><path fill="#38761d" stroke="#38761d" stroke-width="2.0" stroke-linecap="butt" d="m424.06155 391.21207l9.623199 0.82717896l-6.8401184 -6.819336z" fill-rule="evenodd"></path></g></svg>

