<?xml version="1.0" standalone="yes"?>

<svg version="1.1" viewBox="0.0 0.0 241.6745406824147 141.85826771653544" fill="none" stroke="none" stroke-linecap="square" stroke-miterlimit="10" xmlns="http://www.w3.org/2000/svg" xmlns:xlink="http://www.w3.org/1999/xlink"><clipPath id="p.0"><path d="m0 0l241.67455 0l0 141.85826l-241.67455 0l0 -141.85826z" clip-rule="nonzero"></path></clipPath><g clip-path="url(#p.0)"><path fill="#000000" fill-opacity="0.0" d="m0 0l241.67455 0l0 141.85826l-241.67455 0z" fill-rule="nonzero"></path><path fill="#cfe2f3" d="m4.296433 74.66283l0 0c0 -4.316902 3.4995346 -7.816437 7.8164287 -7.816437l45.02856 0c2.0730438 0 4.061184 0.82351685 5.52705 2.289383c1.4658661 1.4658661 2.2893753 3.4540024 2.2893753 5.527054l0 31.264778c0 4.3168945 -3.4995308 7.816429 -7.8164253 7.816429l-45.02856 0l0 0c-4.316894 0 -7.8164287 -3.4995346 -7.8164287 -7.816429z" fill-rule="nonzero"></path><path stroke="#000000" stroke-width="4.0" stroke-linejoin="round" stroke-linecap="butt" d="m4.296433 74.66283l0 0c0 -4.316902 3.4995346 -7.816437 7.8164287 -7.816437l45.02856 0c2.0730438 0 4.061184 0.82351685 5.52705 2.289383c1.4658661 1.4658661 2.2893753 3.4540024 2.2893753 5.527054l0 31.264778c0 4.3168945 -3.4995308 7.816429 -7.8164253 7.816429l-45.02856 0l0 0c-4.316894 0 -7.8164287 -3.4995346 -7.8164287 -7.816429z" fill-rule="nonzero"></path><path fill="#000000" d="m30.220533 90.512085q0 -2.421875 0.5 -3.890625q0.5 -1.46875 1.4687481 -2.265625q0.984375 -0.796875 2.46875 -0.796875q1.09375 0 1.921875 0.4375q0.828125 0.4375 1.359375 1.28125q0.546875 0.828125 0.84375 2.015625q0.3125 1.1875 0.3125 3.21875q0 2.390625 -0.5 3.859375q-0.484375 1.46875 -1.46875 2.28125q-0.96875 0.796875 -2.46875 0.796875q-1.96875 0 -3.078123 -1.40625q-1.359375 -1.703125 -1.359375 -5.53125zm1.71875 0q0 3.34375 0.7812481 4.453125q0.796875 1.109375 1.9375 1.109375q1.15625 0 1.9375 -1.109375q0.78125 -1.125 0.78125 -4.453125q0 -3.359375 -0.78125 -4.46875q-0.78125 -1.109375 -1.953125 -1.109375q-1.15625 0 -1.828125 0.984375q-0.8749981 1.234375 -0.8749981 4.59375z" fill-rule="nonzero"></path><path fill="#000000" fill-opacity="0.0" d="m203.9736 113.77613c0 12.5 -42.338577 24.992134 -84.67716 25.000008c-42.338585 0.007873535 -84.67717 -12.4685135 -84.67717 -24.937012" fill-rule="nonzero"></path><path stroke="#000000" stroke-width="2.0" stroke-linejoin="round" stroke-linecap="butt" d="m203.9736 113.77613c0 12.5 -42.338577 24.992134 -84.677155 25.000008c-21.169296 0.0039367676 -42.338593 -3.1131897 -58.21556 -7.789871c-3.969242 -1.1691589 -7.607712 -2.4358063 -10.832722 -3.7755127c-1.612503 -0.6698532 -3.121643 -1.3579788 -4.5170746 -2.0613327c-0.6977234 -0.35166168 -1.3670158 -0.7071457 -2.006588 -1.0660477c-0.3197899 -0.17944336 -0.63214874 -0.35975647 -0.93691254 -0.54086304c-0.15238571 -0.09055328 -0.3028717 -0.18132019 -0.4514389 -0.2722702l-0.16697693 -0.10379028" fill-rule="evenodd"></path><path fill="#000000" stroke="#000000" stroke-width="2.0" stroke-linecap="butt" d="m44.736885 121.08805l-8.278072 -4.9763184l3.1426544 9.133125z" fill-rule="evenodd"></path><path fill="#cfe2f3" d="m173.6429 74.69492l0 0c0 -4.3168945 3.499527 -7.816429 7.8164215 -7.816429l45.028564 0c2.0730438 0 4.0611877 0.82351685 5.527054 2.289383c1.4658661 1.4658585 2.289383 3.4540024 2.289383 5.527046l0 31.264778c0 4.3168945 -3.4995422 7.816429 -7.816437 7.816429l-45.028564 0l0 0c-4.3168945 0 -7.8164215 -3.4995346 -7.8164215 -7.816429z" fill-rule="nonzero"></path><path stroke="#000000" stroke-width="2.0" stroke-linejoin="round" stroke-linecap="butt" d="m173.6429 74.69492l0 0c0 -4.3168945 3.499527 -7.816429 7.8164215 -7.816429l45.028564 0c2.0730438 0 4.0611877 0.82351685 5.527054 2.289383c1.4658661 1.4658585 2.289383 3.4540024 2.289383 5.527046l0 31.264778c0 4.3168945 -3.4995422 7.816429 -7.816437 7.816429l-45.028564 0l0 0c-4.3168945 0 -7.8164215 -3.4995346 -7.8164215 -7.816429z" fill-rule="nonzero"></path><path fill="#000000" d="m205.86388 97.247314l-1.671875 0l0 -10.640625q-0.59375 0.578125 -1.578125 1.15625q-0.984375 0.5625 -1.765625 0.859375l0 -1.625q1.40625 -0.65625 2.453125 -1.59375q1.046875 -0.9375 1.484375 -1.8125l1.078125 0l0 13.65625z" fill-rule="nonzero"></path><path fill="#000000" fill-opacity="0.0" d="m99.11267 102.61805l111.11812 0l0 44.125984l-111.11812 0z" fill-rule="nonzero"></path><path fill="#000000" d="m107.628296 133.22104l9.75 -17.1875l2.703125 0l2.828125 17.1875l-2.21875 0l-0.828125 -4.953125l-6.953125 0l-2.75 4.953125l-2.53125 0zm6.265625 -6.71875l5.6875 0l-0.671875 -4.3125q-0.390625 -2.5625 -0.484375 -4.28125q-0.578125 1.484375 -1.703125 3.515625l-2.828125 5.078125zm9.0078125 7.0l9.234375 -17.75l1.84375 0l-9.234375 17.75l-1.84375 0zm8.355469 -0.28125l0.34375 -1.640625l6.6875 -7.53125q0.71875 -0.796875 1.59375 -1.65625q-1.515625 0.15625 -2.171875 0.15625l-4.625 0l0.375 -1.78125l9.625 0l-0.28125 1.34375l-6.75 7.578125q-0.578125 0.640625 -1.71875 1.765625q1.78125 -0.09375 2.4375 -0.09375l4.890625 0l-0.390625 1.859375l-10.015625 0z" fill-rule="nonzero"></path><path fill="#000000" fill-opacity="0.0" d="m26.032867 65.633286c-1.9505692 -3.1916008 -13.140858 -12.262032 -11.703413 -19.149609c1.4374456 -6.8875732 13.551619 -22.27865 20.328085 -22.175852c6.7764664 0.10280037 19.304024 15.708223 20.330708 22.79265c1.0266838 7.084427 -11.808838 16.42826 -14.170605 19.71391" fill-rule="nonzero"></path><path stroke="#000000" stroke-width="2.0" stroke-linejoin="round" stroke-linecap="butt" d="m26.032867 65.633286c-1.9505692 -3.1916008 -13.140859 -12.262028 -11.703413 -19.149609c1.4374456 -6.8875732 13.551619 -22.27865 20.328085 -22.175852c6.7764664 0.10280037 19.304024 15.708227 20.330708 22.79265c0.2566681 1.7711105 -0.35304642 3.6834297 -1.4489021 5.6069984c-0.54792786 0.9617882 -1.2173882 1.926384 -1.9608574 2.8775444c-0.371727 0.47558594 -0.7619629 0.9478111 -1.1647568 1.41465c-0.20139313 0.2334137 -0.40593338 0.46548462 -0.61286545 0.6959572c-0.103466034 0.115234375 -0.20753479 0.2300682 -0.3121071 0.34446716l-0.2278595 0.24719238" fill-rule="evenodd"></path><path fill="#000000" stroke="#000000" stroke-width="2.0" stroke-linecap="butt" d="m46.913483 55.96295l-4.0386353 8.773804l8.733467 -4.1251373z" fill-rule="evenodd"></path><path fill="#000000" fill-opacity="0.0" d="m181.28003 -10.620797l131.81104 0l0 48.188976l-131.81104 0z" fill-rule="nonzero"></path><path fill="#000000" d="m195.73315 21.419205l3.171875 -15.21875l-5.640625 0l0.421875 -1.96875l13.515625 0l-0.40625 1.96875l-5.59375 0l-3.171875 15.21875l-2.296875 0zm7.9882812 0.28125l9.234375 -17.75l1.84375 0l-9.234375 17.75l-1.84375 0zm8.355469 -0.28125l0.34375 -1.640625l6.6875 -7.531251q0.71875 -0.796875 1.59375 -1.65625q-1.515625 0.15625 -2.171875 0.15625l-4.625 0l0.375 -1.78125l9.625 0l-0.28125 1.34375l-6.75 7.578126q-0.578125 0.640625 -1.71875 1.765625q1.78125 -0.09375 2.4375 -0.09375l4.890625 0l-0.390625 1.859375l-10.015625 0z" fill-rule="nonzero"></path><path fill="#000000" fill-opacity="0.0" d="m64.95785 90.29521c0.03150177 0 0.06299591 0.03149414 0.06299591 0.06299591" fill-rule="nonzero"></path><path stroke="#000000" stroke-width="2.0" stroke-linejoin="round" stroke-linecap="butt" d="m64.95785 90.29521c0.03150177 0 0.06299591 0.03149414 0.06299591 0.06299591" fill-rule="nonzero"></path><path fill="#000000" fill-opacity="0.0" d="m64.95785 90.29521c27.171059 0 40.7555 0.01574707 54.34211 0.03149414c13.586609 0.01574707 27.1754 0.03150177 54.3508 0.03150177" fill-rule="nonzero"></path><path stroke="#000000" stroke-width="2.0" stroke-linejoin="round" stroke-linecap="butt" d="m64.957855 90.29521c27.171051 0 40.755493 0.01574707 54.342102 0.03150177c6.793312 0.007873535 13.587158 0.01574707 22.079605 0.021652222c4.246231 0.0029525757 8.917099 0.0054092407 14.224884 0.007133484l6.0463104 9.0026855E-4" fill-rule="evenodd"></path><path fill="#000000" stroke="#000000" stroke-width="2.0" stroke-linecap="butt" d="m161.65025 93.659874l9.076691 -3.3021088l-9.075699 -3.3048248z" fill-rule="evenodd"></path><path fill="#000000" fill-opacity="0.0" d="m196.97775 65.91816c-1.9505768 -3.1916046 -13.140869 -12.262032 -11.703415 -19.149609c1.437439 -6.887577 13.5516205 -22.278654 20.32808 -22.175854c6.776474 0.10279846 19.304031 15.708225 20.330719 22.792652c1.0266724 7.084427 -11.808838 16.428257 -14.1706085 19.71391" fill-rule="nonzero"></path><path stroke="#000000" stroke-width="2.0" stroke-linejoin="round" stroke-linecap="butt" d="m196.97775 65.91816c-1.9505615 -3.1916008 -13.140854 -12.262032 -11.703415 -19.149609c1.437439 -6.887577 13.5516205 -22.278654 20.32808 -22.175854c6.776474 0.10280037 19.304031 15.708221 20.330719 22.792652c0.2566681 1.7711067 -0.3530426 3.683426 -1.4488983 5.6069984c-0.54792786 0.96178055 -1.2174072 1.9263802 -1.9608612 2.8775482c-0.37173462 0.47558212 -0.76197815 0.9478035 -1.1647644 1.4146385c-0.20140076 0.23341751 -0.40594482 0.46549225 -0.612854 0.695961c-0.10346985 0.115234375 -0.20753479 0.2300682 -0.31211853 0.34447098l-0.22784424 0.24719238" fill-rule="evenodd"></path><path fill="#000000" stroke="#000000" stroke-width="2.0" stroke-linecap="butt" d="m217.85837 56.247826l-4.0386353 8.773804l8.733459 -4.1251373z" fill-rule="evenodd"></path><path fill="#000000" fill-opacity="0.0" d="m10.545029 -10.620797l131.81102 0l0 48.188976l-131.81102 0z" fill-rule="nonzero"></path><path fill="#000000" d="m19.060654 21.419205l9.75 -17.1875l2.703125 0l2.828125 17.1875l-2.21875 0l-0.828125 -4.953125l-6.953125 0l-2.75 4.953125l-2.53125 0zm6.265625 -6.718751l5.6875 0l-0.671875 -4.3125q-0.390625 -2.5624995 -0.484375 -4.2812495q-0.578125 1.484375 -1.703125 3.5156245l-2.828125 5.078125zm9.0078125 7.000001l9.234375 -17.75l1.84375 0l-9.234375 17.75l-1.84375 0zm8.355469 -0.28125l0.34375 -1.640625l6.6875 -7.531251q0.71875 -0.796875 1.59375 -1.65625q-1.515625 0.15625 -2.171875 0.15625l-4.625 0l0.375 -1.78125l9.625 0l-0.28125 1.34375l-6.75 7.578126q-0.578125 0.640625 -1.71875 1.765625q1.78125 -0.09375 2.4375 -0.09375l4.890625 0l-0.390625 1.859375l-10.015625 0z" fill-rule="nonzero"></path><path fill="#000000" fill-opacity="0.0" d="m94.440834 49.998592l58.92913 0l0 48.188976l-58.92913 0z" fill-rule="nonzero"></path><path fill="#000000" d="m108.89396 82.0386l3.171875 -15.21875l-5.640625 0l0.421875 -1.96875l13.515625 0l-0.40625 1.96875l-5.59375 0l-3.171875 15.21875l-2.296875 0zm7.9882812 0.28125l9.234375 -17.75l1.84375 0l-9.234375 17.75l-1.84375 0zm8.355469 -0.28125l0.34375 -1.640625l6.6875076 -7.53125q0.71875 -0.796875 1.59375 -1.65625q-1.515625 0.15625 -2.171875 0.15625l-4.6250076 0l0.375 -1.78125l9.625008 0l-0.28125 1.34375l-6.75 7.578125q-0.578125 0.640625 -1.71875 1.765625q1.78125 -0.09375 2.4375 -0.09375l4.890625 0l-0.390625 1.859375l-10.015633 0z" fill-rule="nonzero"></path></g></svg>

