<?xml version="1.0" standalone="yes"?>

<svg version="1.1" viewBox="0.0 0.0 746.3648293963255 215.45406824146983" fill="none" stroke="none" stroke-linecap="square" stroke-miterlimit="10" xmlns="http://www.w3.org/2000/svg" xmlns:xlink="http://www.w3.org/1999/xlink"><clipPath id="p.0"><path d="m0 0l746.3648 0l0 215.45407l-746.3648 0l0 -215.45407z" clip-rule="nonzero"></path></clipPath><g clip-path="url(#p.0)"><path fill="#000000" fill-opacity="0.0" d="m0 0l746.3648 0l0 215.45407l-746.3648 0z" fill-rule="nonzero"></path><path fill="#cfe2f3" d="m6.3631587 30.819822l0 0c0 -5.7751884 4.6817145 -10.456902 10.456902 -10.456902l97.637375 0c2.773346 0 5.433098 1.1017056 7.39415 3.0627556c1.9610443 1.9610481 3.0627518 4.620802 3.0627518 7.394146l0 41.826355c0 5.7751846 -4.681717 10.456902 -10.456902 10.456902l-97.637375 0c-5.7751875 0 -10.456902 -4.681717 -10.456902 -10.456902z" fill-rule="nonzero"></path><path stroke="#000000" stroke-width="2.0" stroke-linejoin="round" stroke-linecap="butt" d="m6.3631587 30.819822l0 0c0 -5.7751884 4.6817145 -10.456902 10.456902 -10.456902l97.637375 0c2.773346 0 5.433098 1.1017056 7.39415 3.0627556c1.9610443 1.9610481 3.0627518 4.620802 3.0627518 7.394146l0 41.826355c0 5.7751846 -4.681717 10.456902 -10.456902 10.456902l-97.637375 0c-5.7751875 0 -10.456902 -4.681717 -10.456902 -10.456902z" fill-rule="nonzero"></path><path fill="#000000" d="m33.59517 53.88737l1.796875 0.453125q-0.5625 2.21875 -2.03125 3.390625q-1.46875 1.15625 -3.59375 1.15625q-2.203125 0 -3.578125 -0.890625q-1.375 -0.90625 -2.09375 -2.59375q-0.71875 -1.703125 -0.71875 -3.65625q0 -2.125 0.796875 -3.703125q0.8125 -1.578125 2.3125 -2.390625q1.5 -0.828125 3.296875 -0.828125q2.046875 0 3.4375 1.046875q1.390625 1.03125 1.9375 2.90625l-1.765625 0.421875q-0.46875 -1.484375 -1.375 -2.15625q-0.90625 -0.6875 -2.265625 -0.6875q-1.5625 0 -2.625 0.75q-1.046875 0.75 -1.484375 2.03125q-0.421875 1.265625 -0.421875 2.609375q0 1.734375 0.5 3.03125q0.515625 1.28125 1.578125 1.921875q1.078125 0.640625 2.3125 0.640625q1.515625 0 2.5625 -0.859375q1.046875 -0.875 1.421875 -2.59375zm3.5823212 -5.09375l1.671875 0l0 8.484375l4.625 0l0 -8.484375l1.65625 0l0 8.484375l1.078125 0l0 4.171875l-1.375 0l0 -2.796875l-7.65625 0l0 -9.859375zm17.40419 6.6875l1.71875 0.21875q-0.40625 1.5 -1.515625 2.34375q-1.09375 0.828125 -2.8125 0.828125q-2.15625 0 -3.421875 -1.328125q-1.265625 -1.328125 -1.265625 -3.734375q0 -2.484375 1.265625 -3.859375q1.28125 -1.375 3.328125 -1.375q1.984375 0 3.234375 1.34375q1.25 1.34375 1.25 3.796875q0 0.140625 -0.015625 0.4375l-7.34375 0q0.09375 1.625 0.921875 2.484375q0.828125 0.859375 2.0625 0.859375q0.90625 0 1.546875 -0.46875q0.65625 -0.484375 1.046875 -1.546875zm-5.484375 -2.703125l5.5 0q-0.109375 -1.234375 -0.625 -1.859375q-0.796875 -0.96875 -2.078125 -0.96875q-1.140625 0 -1.9375 0.78125q-0.78125 0.765625 -0.859375 2.046875zm9.125717 -3.984375l1.671875 0l0 4.109375l4.625 0l0 -4.109375l1.671875 0l0 9.859375l-1.671875 0l0 -4.375l-4.625 0l0 4.375l-1.671875 0l0 -9.859375zm16.724716 8.640625q-0.9375 0.796875 -1.796875 1.125q-0.859375 0.3125 -1.84375 0.3125q-1.609375 0 -2.484375 -0.78125q-0.875 -0.796875 -0.875 -2.03125q0 -0.734375 0.328125 -1.328125q0.328125 -0.59375 0.859375 -0.953125q0.53125 -0.359375 1.203125 -0.546875q0.5 -0.140625 1.484375 -0.25q2.03125 -0.25 2.984375 -0.578125q0 -0.34375 0 -0.4375q0 -1.015625 -0.46875 -1.4375q-0.640625 -0.5625 -1.90625 -0.5625q-1.171875 0 -1.734375 0.40625q-0.5625 0.40625 -0.828125 1.46875l-1.640625 -0.234375q0.234375 -1.046875 0.734375 -1.6875q0.515625 -0.640625 1.46875 -0.984375q0.96875 -0.359375 2.25 -0.359375q1.265625 0 2.046875 0.296875q0.78125 0.296875 1.15625 0.75q0.375 0.453125 0.515625 1.140625q0.09375 0.421875 0.09375 1.53125l0 2.234375q0 2.328125 0.09375 2.953125q0.109375 0.609375 0.4375 1.171875l-1.75 0q-0.265625 -0.515625 -0.328125 -1.21875zm-0.140625 -3.71875q-0.90625 0.359375 -2.734375 0.625q-1.03125 0.140625 -1.453125 0.328125q-0.421875 0.1875 -0.65625 0.546875q-0.234375 0.359375 -0.234375 0.796875q0 0.671875 0.5 1.125q0.515625 0.4375 1.484375 0.4375q0.96875 0 1.71875 -0.421875q0.75 -0.4375 1.109375 -1.15625q0.265625 -0.578125 0.265625 -1.671875l0 -0.609375zm4.078842 8.71875l0 -13.640625l1.53125 0l0 1.28125q0.53125 -0.75 1.203125 -1.125q0.6875 -0.375 1.640625 -0.375q1.265625 0 2.234375 0.65625q0.96875 0.640625 1.453125 1.828125q0.5 1.1875 0.5 2.59375q0 1.515625 -0.546875 2.734375q-0.546875 1.203125 -1.578125 1.84375q-1.03125 0.640625 -2.171875 0.640625q-0.84375 0 -1.515625 -0.34375q-0.65625 -0.359375 -1.078125 -0.890625l0 4.796875l-1.671875 0zm1.515625 -8.65625q0 1.90625 0.765625 2.8125q0.78125 0.90625 1.875 0.90625q1.109375 0 1.890625 -0.9375q0.796875 -0.9375 0.796875 -2.921875q0 -1.875 -0.78125 -2.8125q-0.765625 -0.9375 -1.84375 -0.9375q-1.0625 0 -1.890625 1.0q-0.8125 1.0 -0.8125 2.890625zm8.860092 -4.984375l1.671875 0l0 7.515625l4.625 -7.515625l1.8125 0l0 9.859375l-1.671875 0l0 -7.46875l-4.640625 7.46875l-1.796875 0l0 -9.859375zm10.421265 0l1.671875 0l0 7.515625l4.625 -7.515625l1.8125 0l0 9.859375l-1.671875 0l0 -7.46875l-4.640625 7.46875l-1.796875 0l0 -9.859375z" fill-rule="nonzero"></path><path fill="#cfe2f3" d="m155.4419 30.819822l0 0c0 -5.7751884 4.681717 -10.456902 10.456909 -10.456902l133.63739 0c2.7733154 0 5.433075 1.1017056 7.3941345 3.0627556c1.9610596 1.9610481 3.0627441 4.620802 3.0627441 7.394146l0 41.826355c0 5.7751846 -4.6817017 10.456902 -10.456879 10.456902l-133.63739 0l0 0c-5.7751923 0 -10.456909 -4.681717 -10.456909 -10.456902z" fill-rule="nonzero"></path><path stroke="#000000" stroke-width="2.0" stroke-linejoin="round" stroke-linecap="butt" d="m155.4419 30.819822l0 0c0 -5.7751884 4.681717 -10.456902 10.456909 -10.456902l133.63739 0c2.7733154 0 5.433075 1.1017056 7.3941345 3.0627556c1.9610596 1.9610481 3.0627441 4.620802 3.0627441 7.394146l0 41.826355c0 5.7751846 -4.6817017 10.456902 -10.456879 10.456902l-133.63739 0l0 0c-5.7751923 0 -10.456909 -4.681717 -10.456909 -10.456902z" fill-rule="nonzero"></path><path fill="#000000" d="m204.82695 36.652996l0 -11.999998l-4.46875 0l0 -1.59375l10.765625 0l0 1.59375l-4.5 0l0 11.999998l-1.796875 0zm7.099106 -4.921873q0 -2.734375 1.53125 -4.0625q1.265625 -1.09375 3.09375 -1.09375q2.03125 0 3.3125 1.34375q1.296875 1.328125 1.296875 3.671875q0 1.9062481 -0.578125 2.999998q-0.5625 1.078125 -1.65625 1.6875q-1.078125 0.59375 -2.375 0.59375q-2.0625 0 -3.34375 -1.328125q-1.28125 -1.328125 -1.28125 -3.812498zm1.71875 0q0 1.8906231 0.828125 2.828123q0.828125 0.9375 2.078125 0.9375q1.25 0 2.0625 -0.9375q0.828125 -0.953125 0.828125 -2.890623q0 -1.828125 -0.828125 -2.765625q-0.828125 -0.9375 -2.0625 -0.9375q-1.25 0 -2.078125 0.9375q-0.828125 0.9375 -0.828125 2.828125zm8.672592 -4.9375l1.671875 0l0 1.875q0 1.203125 0.140625 1.75q0.140625 0.53125 0.6875 0.9375q0.546875 0.40625 1.375 0.40625q0.953125 0 2.453125 -0.5l0 -4.46875l1.671875 0l0 9.859373l-1.671875 0l0 -3.96875q-1.546875 0.484375 -2.875 0.484375q-1.125 0 -1.984375 -0.5625q-0.859375 -0.578125 -1.171875 -1.4062481q-0.296875 -0.828125 -0.296875 -1.828125l0 -2.578125zm10.344833 0l1.671875 0l0 4.109375l4.625 0l0 -4.109375l1.671875 0l0 9.859373l-1.671875 0l0 -4.375l-4.625 0l0 4.375l-1.671875 0l0 -9.859373zm19.662216 0l1.671875 0l0 9.859373l-1.671875 0l0 -9.859373zm-9.328125 0l1.65625 0l0 3.859375l2.125 0q2.0625 0 3.171875 0.8125q1.125 0.7968731 1.125 2.203123q0 1.234375 -0.9375 2.109375q-0.921875 0.875 -2.96875 0.875l-4.171875 0l0 -9.859373zm1.65625 8.484373l1.765625 0q1.578125 0 2.25 -0.390625q0.6875 -0.390625 0.6875 -1.21875q0 -0.640625 -0.5 -1.140625q-0.5 -0.5 -2.21875 -0.5l-1.984375 0l0 3.25zm11.70607 -8.484373l1.671875 0l0 7.515623l4.625 -7.515623l1.8125 0l0 9.859373l-1.671875 0l0 -7.468748l-4.640625 7.468748l-1.796875 0l0 -9.859373zm5.515625 -3.71875l1.140625 0q-0.140625 1.15625 -0.859375 1.78125q-0.703125 0.625 -1.875 0.625q-1.1875 0 -1.90625 -0.609375q-0.703125 -0.625 -0.84375 -1.796875l1.140625 0q0.140625 0.625 0.515625 0.9375q0.390625 0.3125 1.046875 0.3125q0.75 0 1.125 -0.296875q0.390625 -0.3125 0.515625 -0.953125z" fill-rule="nonzero"></path><path fill="#000000" d="m200.10002 57.434246q-0.9375 0.796875 -1.796875 1.125q-0.859375 0.3125 -1.84375 0.3125q-1.609375 0 -2.484375 -0.78125q-0.875 -0.796875 -0.875 -2.03125q0 -0.734375 0.328125 -1.328125q0.328125 -0.59375 0.859375 -0.953125q0.53125 -0.359375 1.203125 -0.546875q0.5 -0.140625 1.484375 -0.25q2.03125 -0.25 2.984375 -0.578125q0 -0.34375 0 -0.4375q0 -1.015625 -0.46875 -1.4375q-0.640625 -0.5625 -1.90625 -0.5625q-1.171875 0 -1.734375 0.40625q-0.5625 0.40625 -0.828125 1.46875l-1.640625 -0.234375q0.234375 -1.046875 0.734375 -1.6875q0.515625 -0.640625 1.46875 -0.984375q0.96875 -0.359375 2.25 -0.359375q1.265625 0 2.046875 0.296875q0.78125 0.296875 1.15625 0.75q0.375 0.453125 0.515625 1.140625q0.09375 0.421875 0.09375 1.53125l0 2.234375q0 2.328125 0.09375 2.953125q0.109375 0.609375 0.4375 1.171875l-1.75 0q-0.265625 -0.515625 -0.328125 -1.21875zm-0.140625 -3.71875q-0.90625 0.359375 -2.734375 0.625q-1.03125 0.140625 -1.453125 0.328125q-0.421875 0.1875 -0.65625 0.546875q-0.234375 0.359375 -0.234375 0.796875q0 0.671875 0.5 1.125q0.515625 0.4375 1.484375 0.4375q0.96875 0 1.71875 -0.421875q0.75 -0.4375 1.109375 -1.15625q0.265625 -0.578125 0.265625 -1.671875l0 -0.609375zm4.891342 -4.921875l7.765625 0l0 9.859375l-1.65625 0l0 -8.46875l-4.4375 0l0 4.90625q0 1.71875 -0.109375 2.265625q-0.109375 0.546875 -0.609375 0.953125q-0.5 0.40625 -1.453125 0.40625q-0.578125 0 -1.34375 -0.078125l0 -1.390625l0.734375 0q0.515625 0 0.734375 -0.09375q0.234375 -0.109375 0.296875 -0.34375q0.078125 -0.234375 0.078125 -1.515625l0 -6.5zm10.088974 0l5.671875 0l0 1.390625l-4.0 0l0 8.46875l-1.671875 0l0 -9.859375zm6.1641693 4.9375q0 -2.734375 1.53125 -4.0625q1.265625 -1.09375 3.09375 -1.09375q2.03125 0 3.3125 1.34375q1.296875 1.328125 1.296875 3.671875q0 1.90625 -0.578125 3.0q-0.5625 1.078125 -1.65625 1.6875q-1.078125 0.59375 -2.375 0.59375q-2.0625 0 -3.34375 -1.328125q-1.28125 -1.328125 -1.28125 -3.8125zm1.71875 0q0 1.890625 0.828125 2.828125q0.828125 0.9375 2.078125 0.9375q1.25 0 2.0625 -0.9375q0.828125 -0.953125 0.828125 -2.890625q0 -1.828125 -0.828125 -2.765625q-0.828125 -0.9375 -2.0625 -0.9375q-1.25 0 -2.078125 0.9375q-0.828125 0.9375 -0.828125 2.828125zm9.281967 8.703125l0 -13.640625l1.53125 0l0 1.28125q0.53125 -0.75 1.203125 -1.125q0.6875 -0.375 1.640625 -0.375q1.265625 0 2.234375 0.65625q0.96875 0.640625 1.453125 1.828125q0.5 1.1875 0.5 2.59375q0 1.515625 -0.546875 2.734375q-0.546875 1.203125 -1.578125 1.84375q-1.03125 0.640625 -2.171875 0.640625q-0.84375 0 -1.515625 -0.34375q-0.65625 -0.359375 -1.078125 -0.890625l0 4.796875l-1.671875 0zm1.515625 -8.65625q0 1.90625 0.765625 2.8125q0.78125 0.90625 1.875 0.90625q1.109375 0 1.890625 -0.9375q0.796875 -0.9375 0.796875 -2.921875q0 -1.875 -0.78125 -2.8125q-0.765625 -0.9375 -1.84375 -0.9375q-1.0625 0 -1.890625 1.0q-0.8125 1.0 -0.8125 2.890625zm8.860092 -4.984375l1.671875 0l0 7.515625l4.625 -7.515625l1.8125 0l0 9.859375l-1.671875 0l0 -7.46875l-4.640625 7.46875l-1.796875 0l0 -9.859375zm9.53064 0l8.0 0l0 1.390625l-3.171875 0l0 8.46875l-1.65625 0l0 -8.46875l-3.171875 0l0 -1.390625zm9.482208 0l2.59375 0l2.59375 7.890625l2.875 -7.890625l2.40625 0l0 9.859375l-1.671875 0l0 -7.9375l-2.90625 7.9375l-1.5 0l-2.75 -8.3125l0 8.3125l-1.640625 0l0 -9.859375z" fill-rule="nonzero"></path><path fill="#000000" d="m202.23695 77.30925l1.625 0.15625q-0.359375 1.21875 -1.625 2.3125q-1.265625 1.09375 -3.015625 1.09375q-1.09375 0 -2.015625 -0.5q-0.90625 -0.5 -1.390625 -1.46875q-0.46875 -0.96875 -0.46875 -2.203125q0 -1.609375 0.75 -3.125q0.75 -1.515625 1.9375 -2.25q1.1875 -0.75 2.5625 -0.75q1.765625 0 2.8125 1.09375q1.0625 1.09375 1.0625 2.984375q0 0.734375 -0.140625 1.484375l-7.25 0q-0.03125 0.296875 -0.03125 0.53125q0 1.375 0.625 2.109375q0.640625 0.71875 1.5625 0.71875q0.859375 0 1.6875 -0.5625q0.84375 -0.5625 1.3125 -1.625zm-4.890625 -2.453125l5.53125 0q0.015625 -0.25 0.015625 -0.359375q0 -1.265625 -0.640625 -1.9375q-0.625 -0.671875 -1.625 -0.671875q-1.0625 0 -1.953125 0.75q-0.890625 0.734375 -1.328125 2.21875zm8.250717 5.796875l1.796875 -8.546875l-1.5 0l0.265625 -1.3125l1.5 0l0.28125 -1.390625q0.234375 -1.046875 0.46875 -1.515625q0.234375 -0.46875 0.765625 -0.765625q0.53125 -0.296875 1.453125 -0.296875q0.640625 0 1.859375 0.265625l-0.3125 1.46875q-0.84375 -0.234375 -1.421875 -0.234375q-0.5 0 -0.75 0.25q-0.25 0.25 -0.4375 1.171875l-0.21875 1.046875l1.859375 0l-0.265625 1.3125l-1.875 0l-1.78125 8.546875l-1.6875 0zm5.105179 -3.375l1.6875 -0.09375q0 0.71875 0.21875 1.234375q0.21875 0.515625 0.8125 0.84375q0.609375 0.3125 1.40625 0.3125q1.109375 0 1.671875 -0.4375q0.5625 -0.453125 0.5625 -1.046875q0 -0.4375 -0.34375 -0.828125q-0.34375 -0.390625 -1.671875 -0.953125q-1.328125 -0.578125 -1.703125 -0.8125q-0.625 -0.375 -0.9375 -0.890625q-0.3125 -0.515625 -0.3125 -1.1875q0 -1.171875 0.921875 -2.0q0.9375 -0.84375 2.609375 -0.84375q1.84375 0 2.8125 0.859375q0.96875 0.859375 1.015625 2.265625l-1.640625 0.109375q-0.046875 -0.890625 -0.640625 -1.40625q-0.59375 -0.53125 -1.671875 -0.53125q-0.875 0 -1.359375 0.40625q-0.484375 0.390625 -0.484375 0.859375q0 0.46875 0.421875 0.8125q0.28125 0.25 1.4375 0.75q1.9375 0.828125 2.4375 1.3125q0.796875 0.765625 0.796875 1.875q0 0.734375 -0.453125 1.4375q-0.453125 0.703125 -1.375 1.125q-0.921875 0.421875 -2.171875 0.421875q-1.703125 0 -2.90625 -0.84375q-1.203125 -0.84375 -1.140625 -2.75zm9.171875 3.375l2.0625 -9.859375l1.671875 0l-0.34375 1.625q0.9375 -1.046875 1.671875 -1.4375q0.734375 -0.40625 1.609375 -0.40625q0.90625 0 1.515625 0.5q0.625 0.484375 0.828125 1.34375q0.75 -0.921875 1.578125 -1.375q0.828125 -0.46875 1.75 -0.46875q1.234375 0 1.84375 0.59375q0.625 0.578125 0.625 1.640625q0 0.453125 -0.21875 1.5l-1.328125 6.34375l-1.671875 0l1.359375 -6.515625q0.171875 -0.796875 0.171875 -1.140625q0 -0.484375 -0.3125 -0.75q-0.296875 -0.28125 -0.859375 -0.28125q-0.75 0 -1.53125 0.453125q-0.78125 0.453125 -1.21875 1.1875q-0.421875 0.734375 -0.75 2.265625l-1.0 4.78125l-1.671875 0l1.390625 -6.65625q0.140625 -0.671875 0.140625 -0.953125q0 -0.484375 -0.296875 -0.78125q-0.296875 -0.296875 -0.78125 -0.296875q-0.71875 0 -1.5 0.453125q-0.78125 0.453125 -1.28125 1.265625q-0.484375 0.8125 -0.796875 2.3125l-0.984375 4.65625l-1.671875 0zm16.259552 -4.390625l1.78125 -0.171875l-0.03125 0.46875q0 0.796875 0.359375 1.453125q0.375 0.640625 1.203125 1.0q0.84375 0.359375 1.984375 0.359375q1.640625 0 2.484375 -0.703125q0.859375 -0.71875 0.859375 -1.640625q0 -0.640625 -0.453125 -1.171875q-0.453125 -0.515625 -2.53125 -1.40625q-1.59375 -0.703125 -2.1875 -1.078125q-0.921875 -0.59375 -1.359375 -1.296875q-0.421875 -0.71875 -0.421875 -1.625q0 -1.046875 0.5625 -1.890625q0.578125 -0.84375 1.6875 -1.28125q1.109375 -0.453125 2.5 -0.453125q1.65625 0 2.796875 0.5625q1.15625 0.546875 1.65625 1.484375q0.515625 0.921875 0.515625 1.765625q0 0.078125 0 0.28125l-1.75 0.125q0 -0.5625 -0.109375 -0.890625q-0.1875 -0.5625 -0.578125 -0.953125q-0.390625 -0.390625 -1.078125 -0.625q-0.671875 -0.25 -1.515625 -0.25q-1.484375 0 -2.3125 0.671875q-0.625 0.515625 -0.625 1.359375q0 0.5 0.25 0.890625q0.265625 0.390625 0.9375 0.78125q0.484375 0.265625 2.296875 1.0625q1.46875 0.65625 2.015625 1.015625q0.75 0.5 1.140625 1.203125q0.40625 0.703125 0.40625 1.59375q0 1.09375 -0.671875 2.03125q-0.671875 0.9375 -1.859375 1.453125q-1.1875 0.5 -2.71875 0.5q-2.3125 0 -3.78125 -1.0q-1.453125 -1.015625 -1.453125 -3.625zm10.724823 4.390625l7.703125 -13.59375l2.1406097 0l2.25 13.59375l-1.765625 0l-0.65625 -3.921875l-5.4999847 0l-2.1875 3.921875l-1.984375 0zm4.953125 -5.3125l4.4999847 0l-0.53123474 -3.421875q-0.3125 -2.03125 -0.375 -3.375q-0.46875 1.15625 -1.359375 2.765625l-2.234375 4.03125zm12.177933 5.3125l2.515625 -12.046875l-4.46875 0l0.328125 -1.546875l10.703125 0l-0.3125 1.546875l-4.4375 0l-2.515625 12.046875l-1.8125 0z" fill-rule="nonzero"></path><path fill="#cfe2f3" d="m350.72534 21.612566l0 0c0 -8.317779 6.7428894 -15.06067 15.060669 -15.06067l162.31964 0c3.9943237 0 7.8250732 1.5867443 10.649475 4.411168c2.8244019 2.8244238 4.411194 6.655163 4.411194 10.649502l0 60.240875c0 8.317772 -6.74292 15.060669 -15.060669 15.060669l-162.31964 0c-8.31778 0 -15.060669 -6.742897 -15.060669 -15.060669z" fill-rule="nonzero"></path><path stroke="#000000" stroke-width="2.0" stroke-linejoin="round" stroke-linecap="butt" d="m350.72534 21.612566l0 0c0 -8.317779 6.7428894 -15.06067 15.060669 -15.06067l162.31964 0c3.9943237 0 7.8250732 1.5867443 10.649475 4.411168c2.8244019 2.8244238 4.411194 6.655163 4.411194 10.649502l0 60.240875c0 8.317772 -6.74292 15.060669 -15.060669 15.060669l-162.31964 0c-8.31778 0 -15.060669 -6.742897 -15.060669 -15.060669z" fill-rule="nonzero"></path><path fill="#000000" d="m407.81207 36.653l5.234375 -13.59375l1.9375 0l5.5625 13.59375l-2.046875 0l-1.59375 -4.125l-5.6875 0l-1.484375 4.125l-1.921875 0zm3.921875 -5.578125l4.609375 0l-1.40625 -3.78125q-0.65625 -1.703125 -0.96875 -2.8125q-0.265625 1.3125 -0.734375 2.59375l-1.5 4.0zm9.818573 -4.28125l3.84375 0q1.421875 0 2.109375 0.25q0.6875 0.234375 1.1875 0.859375q0.5 0.625 0.5 1.515625q0 0.703125 -0.296875 1.234375q-0.28125 0.515625 -0.875 0.875q0.703125 0.21875 1.15625 0.859375q0.46875 0.640625 0.46875 1.515625q-0.09375 1.390625 -1.015625 2.078125q-0.90625 0.671875 -2.640625 0.671875l-4.4375 0l0 -9.859375zm1.671875 4.15625l1.78125 0q1.0625 0 1.453125 -0.109375q0.40625 -0.109375 0.71875 -0.453125q0.3125 -0.34375 0.3125 -0.8125q0 -0.78125 -0.546875 -1.078125q-0.546875 -0.3125 -1.890625 -0.3125l-1.828125 0l0 2.765625zm0 4.328125l2.1875 0q1.421875 0 1.953125 -0.328125q0.53125 -0.328125 0.5625 -1.140625q0 -0.46875 -0.3125 -0.875q-0.3125 -0.40625 -0.796875 -0.5q-0.484375 -0.109375 -1.578125 -0.109375l-2.015625 0l0 2.953125zm7.333008 -8.484375l8.0 0l0 1.390625l-3.171875 0l0 8.46875l-1.65625 0l0 -8.46875l-3.171875 0l0 -1.390625zm8.810333 4.9375q0 -2.734375 1.53125 -4.0625q1.265625 -1.09375 3.09375 -1.09375q2.03125 0 3.3125 1.34375q1.296875 1.328125 1.296875 3.671875q0 1.90625 -0.578125 3.0q-0.5625 1.078125 -1.65625 1.6875q-1.078125 0.59375 -2.375 0.59375q-2.0625 0 -3.34375 -1.328125q-1.28125 -1.328125 -1.28125 -3.8125zm1.71875 0q0 1.890625 0.828125 2.828125q0.828125 0.9375 2.078125 0.9375q1.25 0 2.0625 -0.9375q0.828125 -0.953125 0.828125 -2.890625q0 -1.828125 -0.828125 -2.765625q-0.828125 -0.9375 -2.0625 -0.9375q-1.25 0 -2.078125 0.9375q-0.828125 0.9375 -0.828125 2.828125zm9.328827 -4.9375l2.59375 0l2.59375 7.890625l2.875 -7.890625l2.40625 0l0 9.859375l-1.671875 0l0 -7.9375l-2.90625 7.9375l-1.5 0l-2.75 -8.3125l0 8.3125l-1.640625 0l0 -9.859375zm19.216797 8.640625q-0.9375 0.796875 -1.796875 1.125q-0.859375 0.3125 -1.84375 0.3125q-1.609375 0 -2.484375 -0.78125q-0.875 -0.796875 -0.875 -2.03125q0 -0.734375 0.328125 -1.328125q0.328125 -0.59375 0.859375 -0.953125q0.53125 -0.359375 1.203125 -0.546875q0.5 -0.140625 1.484375 -0.25q2.03125 -0.25 2.984375 -0.578125q0 -0.34375 0 -0.4375q0 -1.015625 -0.46875 -1.4375q-0.640625 -0.5625 -1.90625 -0.5625q-1.171875 0 -1.734375 0.40625q-0.5625 0.40625 -0.828125 1.46875l-1.640625 -0.234375q0.234375 -1.046875 0.734375 -1.6875q0.515625 -0.640625 1.46875 -0.984375q0.96875 -0.359375 2.25 -0.359375q1.265625 0 2.046875 0.296875q0.78125 0.296875 1.15625 0.75q0.375 0.453125 0.515625 1.140625q0.09375 0.421875 0.09375 1.53125l0 2.234375q0 2.328125 0.09375 2.953125q0.109375 0.609375 0.4375 1.171875l-1.75 0q-0.265625 -0.515625 -0.328125 -1.21875zm-0.140625 -3.71875q-0.90625 0.359375 -2.734375 0.625q-1.03125 0.140625 -1.453125 0.328125q-0.421875 0.1875 -0.65625 0.546875q-0.234375 0.359375 -0.234375 0.796875q0 0.671875 0.5 1.125q0.515625 0.4375 1.484375 0.4375q0.96875 0 1.71875 -0.421875q0.75 -0.4375 1.109375 -1.15625q0.265625 -0.578125 0.265625 -1.671875l0 -0.609375zm3.1882324 -4.921875l8.0 0l0 1.390625l-3.171875 0l0 8.46875l-1.65625 0l0 -8.46875l-3.171875 0l0 -1.390625zm9.872833 9.859375l0 -1.90625l1.90625 0l0 1.90625q0 1.046875 -0.375 1.6875q-0.375 0.65625 -1.171875 1.0l-0.46875 -0.71875q0.53125 -0.21875 0.78125 -0.671875q0.25 -0.453125 0.28125 -1.296875l-0.953125 0z" fill-rule="nonzero"></path><path fill="#000000" d="m367.48953 62.449875l-0.171875 -1.5625q0.546875 0.140625 0.953125 0.140625q0.546875 0 0.875 -0.1875q0.34375 -0.1875 0.5625 -0.515625q0.15625 -0.25 0.5 -1.25q0.046875 -0.140625 0.15625 -0.40625l-3.734375 -9.875l1.796875 0l2.046875 5.71875q0.40625 1.078125 0.71875 2.28125q0.28125 -1.15625 0.6875 -2.25l2.09375 -5.75l1.671875 0l-3.75 10.03125q-0.59375 1.625 -0.9375 2.234375q-0.4375 0.828125 -1.015625 1.203125q-0.578125 0.390625 -1.375 0.390625q-0.484375 0 -1.078125 -0.203125zm10.71875 -13.65625l6.875 0l0 8.484375l1.0625 0l0 4.171875l-1.375 0l0 -2.796875l-7.75 0l0 2.796875l-1.375 0l0 -4.171875l0.875 0q1.765625 -2.390625 1.6875 -8.484375zm1.40625 1.390625q-0.1875 4.796875 -1.484375 7.09375l5.296875 0l0 -7.09375l-3.8125 0zm7.5421143 3.546875q0 -2.734375 1.53125 -4.0625q1.265625 -1.09375 3.09375 -1.09375q2.03125 0 3.3125 1.34375q1.296875 1.328125 1.296875 3.671875q0 1.90625 -0.578125 3.0q-0.5625 1.078125 -1.65625 1.6875q-1.078125 0.59375 -2.375 0.59375q-2.0625 0 -3.34375 -1.328125q-1.28125 -1.328125 -1.28125 -3.8125zm1.71875 0q0 1.890625 0.828125 2.828125q0.828125 0.9375 2.078125 0.9375q1.25 0 2.0625 -0.9375q0.828125 -0.953125 0.828125 -2.890625q0 -1.828125 -0.828125 -2.765625q-0.828125 -0.9375 -2.0625 -0.9375q-1.25 0 -2.078125 0.9375q-0.828125 0.9375 -0.828125 2.828125zm9.297577 -4.9375l3.84375 0q1.421875 0 2.109375 0.25q0.6875 0.234375 1.1875 0.859375q0.5 0.625 0.5 1.515625q0 0.703125 -0.296875 1.234375q-0.28125 0.515625 -0.875 0.875q0.703125 0.21875 1.15625 0.859375q0.46875 0.640625 0.46875 1.515625q-0.09375 1.390625 -1.015625 2.078125q-0.90625 0.671875 -2.640625 0.671875l-4.4375 0l0 -9.859375zm1.671875 4.15625l1.78125 0q1.0625 0 1.453125 -0.109375q0.40625 -0.109375 0.71875 -0.453125q0.3125 -0.34375 0.3125 -0.8125q0 -0.78125 -0.546875 -1.078125q-0.546875 -0.3125 -1.890625 -0.3125l-1.828125 0l0 2.765625zm0 4.328125l2.1875 0q1.421875 0 1.953125 -0.328125q0.53125 -0.328125 0.5625 -1.140625q0 -0.46875 -0.3125 -0.875q-0.3125 -0.40625 -0.796875 -0.5q-0.484375 -0.109375 -1.578125 -0.109375l-2.015625 0l0 2.953125zm9.036133 -8.484375l7.765625 0l0 9.859375l-1.65625 0l0 -8.46875l-4.4375 0l0 4.90625q0 1.71875 -0.109375 2.265625q-0.109375 0.546875 -0.609375 0.953125q-0.5 0.40625 -1.453125 0.40625q-0.578125 0 -1.34375 -0.078125l0 -1.390625l0.734375 0q0.515625 0 0.734375 -0.09375q0.234375 -0.109375 0.296875 -0.34375q0.078125 -0.234375 0.078125 -1.515625l0 -6.5zm16.823364 6.6875l1.71875 0.21875q-0.40625 1.5 -1.515625 2.34375q-1.09375 0.828125 -2.8125 0.828125q-2.15625 0 -3.421875 -1.328125q-1.265625 -1.328125 -1.265625 -3.734375q0 -2.484375 1.265625 -3.859375q1.28125 -1.375 3.328125 -1.375q1.984375 0 3.234375 1.34375q1.25 1.34375 1.25 3.796875q0 0.140625 -0.015625 0.4375l-7.34375 0q0.09375 1.625 0.921875 2.484375q0.828125 0.859375 2.0625 0.859375q0.90625 0 1.546875 -0.46875q0.65625 -0.484375 1.046875 -1.546875zm-5.484375 -2.703125l5.5 0q-0.109375 -1.234375 -0.625 -1.859375q-0.796875 -0.96875 -2.078125 -0.96875q-1.140625 0 -1.9375 0.78125q-0.78125 0.765625 -0.859375 2.046875zm8.219452 -3.984375l8.0 0l0 1.390625l-3.171875 0l0 8.46875l-1.65625 0l0 -8.46875l-3.171875 0l0 -1.390625zm9.450958 0l3.84375 0q1.421875 0 2.109375 0.25q0.6875 0.234375 1.1875 0.859375q0.5 0.625 0.5 1.515625q0 0.703125 -0.296875 1.234375q-0.28125 0.515625 -0.875 0.875q0.703125 0.21875 1.15625 0.859375q0.46875 0.640625 0.46875 1.515625q-0.09375 1.390625 -1.015625 2.078125q-0.90625 0.671875 -2.640625 0.671875l-4.4375 0l0 -9.859375zm1.671875 4.15625l1.78125 0q1.0625 0 1.453125 -0.109375q0.40625 -0.109375 0.71875 -0.453125q0.3125 -0.34375 0.3125 -0.8125q0 -0.78125 -0.546875 -1.078125q-0.546875 -0.3125 -1.890625 -0.3125l-1.828125 0l0 2.765625zm0 4.328125l2.1875 0q1.421875 0 1.953125 -0.328125q0.53125 -0.328125 0.5625 -1.140625q0 -0.46875 -0.3125 -0.875q-0.3125 -0.40625 -0.796875 -0.5q-0.484375 -0.109375 -1.578125 -0.109375l-2.015625 0l0 2.953125zm7.598633 -3.546875q0 -2.734375 1.53125 -4.0625q1.265625 -1.09375 3.09375 -1.09375q2.03125 0 3.3125 1.34375q1.296875 1.328125 1.296875 3.671875q0 1.90625 -0.578125 3.0q-0.5625 1.078125 -1.65625 1.6875q-1.078125 0.59375 -2.375 0.59375q-2.0625 0 -3.34375 -1.328125q-1.28125 -1.328125 -1.28125 -3.8125zm1.71875 0q0 1.890625 0.828125 2.828125q0.828125 0.9375 2.078125 0.9375q1.25 0 2.0625 -0.9375q0.828125 -0.953125 0.828125 -2.890625q0 -1.828125 -0.828125 -2.765625q-0.828125 -0.9375 -2.0625 -0.9375q-1.25 0 -2.078125 0.9375q-0.828125 0.9375 -0.828125 2.828125zm9.281982 8.703125l0 -13.640625l1.53125 0l0 1.28125q0.53125 -0.75 1.203125 -1.125q0.6875 -0.375 1.640625 -0.375q1.265625 0 2.234375 0.65625q0.96875 0.640625 1.453125 1.828125q0.5 1.1875 0.5 2.59375q0 1.515625 -0.546875 2.734375q-0.546875 1.203125 -1.578125 1.84375q-1.03125 0.640625 -2.171875 0.640625q-0.84375 0 -1.515625 -0.34375q-0.65625 -0.359375 -1.078125 -0.890625l0 4.796875l-1.671875 0zm1.515625 -8.65625q0 1.90625 0.765625 2.8125q0.78125 0.90625 1.875 0.90625q1.109375 0 1.890625 -0.9375q0.796875 -0.9375 0.796875 -2.921875q0 -1.875 -0.78125 -2.8125q-0.765625 -0.9375 -1.84375 -0.9375q-1.0625 0 -1.890625 1.0q-0.8125 1.0 -0.8125 2.890625zm16.625702 -4.984375l0 9.859375l-1.671875 0l0 -3.84375l-0.953125 0q-0.890625 0 -1.328125 0.234375q-0.421875 0.21875 -1.25 1.453125l-1.453125 2.15625l-2.078125 0l1.8125 -2.65625q0.8125 -1.21875 1.640625 -1.375q-1.4375 -0.1875 -2.125 -1.015625q-0.6875 -0.84375 -0.6875 -1.9375q0 -1.265625 0.90625 -2.0625q0.90625 -0.8125 2.609375 -0.8125l4.578125 0zm-1.671875 1.390625l-2.375 0q-1.484375 0 -1.921875 0.46875q-0.4375 0.453125 -0.4375 1.078125q0 0.875 0.640625 1.296875q0.640625 0.40625 2.25 0.40625l1.84375 0l0 -3.25zm4.0243225 -1.390625l1.671875 0l0 4.125l2.03125 0q0.21875 -2.109375 1.3125 -3.21875q1.109375 -1.125 2.859375 -1.125q1.484375 0 2.34375 0.609375q0.875 0.59375 1.4375 1.65625q0.5625 1.0625 0.5625 2.84375q0 2.5625 -1.171875 3.875q-1.15625 1.3125 -3.140625 1.3125q-1.84375 0 -2.953125 -1.21875q-1.109375 -1.234375 -1.25 -3.359375l-2.03125 0l0 4.359375l-1.671875 0l0 -9.859375zm7.96875 1.203125q-1.234375 0 -1.921875 0.953125q-0.671875 0.9375 -0.671875 2.625q0 2.03125 0.6875 2.984375q0.6875 0.9375 1.84375 0.9375q1.140625 0 1.859375 -0.875q0.734375 -0.875 0.734375 -2.828125q0 -1.890625 -0.640625 -2.84375q-0.625 -0.953125 -1.890625 -0.953125zm6.0703125 -1.203125l1.671875 0l0 8.484375l3.796875 0l0 -8.484375l1.671875 0l0 8.484375l3.8125 0l0 -8.484375l1.65625 0l0 8.484375l1.109375 0l0 4.171875l-1.390625 0l0 -2.796875l-12.328125 0l0 -9.859375zm15.286987 0l1.671875 0l0 7.515625l4.625 -7.515625l1.8125 0l0 9.859375l-1.671875 0l0 -7.46875l-4.640625 7.46875l-1.796875 0l0 -9.859375zm10.421265 0l1.671875 0l0 7.515625l4.625 -7.515625l1.8125 0l0 9.859375l-1.671875 0l0 -7.46875l-4.640625 7.46875l-1.796875 0l0 -9.859375zm5.515625 -3.71875l1.140625 0q-0.140625 1.15625 -0.859375 1.78125q-0.703125 0.625 -1.875 0.625q-1.1875 0 -1.90625 -0.609375q-0.703125 -0.625 -0.84375 -1.796875l1.140625 0q0.140625 0.625 0.515625 0.9375q0.390625 0.3125 1.046875 0.3125q0.75 0 1.125 -0.296875q0.390625 -0.3125 0.515625 -0.953125z" fill-rule="nonzero"></path><path fill="#000000" d="m407.2366 77.043625l1.640625 0.21875q-0.265625 1.6875 -1.375 2.65625q-1.109375 0.953125 -2.734375 0.953125q-2.015625 0 -3.25 -1.3125q-1.21875 -1.328125 -1.21875 -3.796875q0 -1.59375 0.515625 -2.78125q0.53125 -1.203125 1.609375 -1.796875q1.09375 -0.609375 2.359375 -0.609375q1.609375 0 2.625 0.8125q1.015625 0.8125 1.3125 2.3125l-1.625 0.25q-0.234375 -1.0 -0.828125 -1.5q-0.59375 -0.5 -1.421875 -0.5q-1.265625 0 -2.0625 0.90625q-0.78125 0.90625 -0.78125 2.859375q0 1.984375 0.765625 2.890625q0.765625 0.890625 1.984375 0.890625q0.984375 0 1.640625 -0.59375q0.65625 -0.609375 0.84375 -1.859375zm2.921875 -6.25l1.671875 0l0 8.484375l4.625 0l0 -8.484375l1.65625 0l0 8.484375l1.078125 0l0 4.171875l-1.375 0l0 -2.796875l-7.65625 0l0 -9.859375zm17.404205 6.6875l1.71875 0.21875q-0.40625 1.5 -1.515625 2.34375q-1.09375 0.828125 -2.8125 0.828125q-2.15625 0 -3.421875 -1.328125q-1.265625 -1.328125 -1.265625 -3.734375q0 -2.484375 1.265625 -3.859375q1.28125 -1.375 3.328125 -1.375q1.984375 0 3.234375 1.34375q1.25 1.34375 1.25 3.796875q0 0.140625 -0.015625 0.4375l-7.34375 0q0.09375 1.625 0.921875 2.484375q0.828125 0.859375 2.0625 0.859375q0.90625 0 1.546875 -0.46875q0.65625 -0.484375 1.046875 -1.546875zm-5.484375 -2.703125l5.5 0q-0.109375 -1.234375 -0.625 -1.859375q-0.796875 -0.96875 -2.078125 -0.96875q-1.140625 0 -1.9375 0.78125q-0.78125 0.765625 -0.859375 2.046875zm9.125702 -3.984375l1.671875 0l0 4.109375l4.625 0l0 -4.109375l1.671875 0l0 9.859375l-1.671875 0l0 -4.375l-4.625 0l0 4.375l-1.671875 0l0 -9.859375zm16.724731 8.640625q-0.9375 0.796875 -1.796875 1.125q-0.859375 0.3125 -1.84375 0.3125q-1.609375 0 -2.484375 -0.78125q-0.875 -0.796875 -0.875 -2.03125q0 -0.734375 0.328125 -1.328125q0.328125 -0.59375 0.859375 -0.953125q0.53125 -0.359375 1.203125 -0.546875q0.5 -0.140625 1.484375 -0.25q2.03125 -0.25 2.984375 -0.578125q0 -0.34375 0 -0.4375q0 -1.015625 -0.46875 -1.4375q-0.640625 -0.5625 -1.90625 -0.5625q-1.171875 0 -1.734375 0.40625q-0.5625 0.40625 -0.828125 1.46875l-1.640625 -0.234375q0.234375 -1.046875 0.734375 -1.6875q0.515625 -0.640625 1.46875 -0.984375q0.96875 -0.359375 2.25 -0.359375q1.265625 0 2.046875 0.296875q0.78125 0.296875 1.15625 0.75q0.375 0.453125 0.515625 1.140625q0.09375 0.421875 0.09375 1.53125l0 2.234375q0 2.328125 0.09375 2.953125q0.109375 0.609375 0.4375 1.171875l-1.75 0q-0.265625 -0.515625 -0.328125 -1.21875zm-0.140625 -3.71875q-0.90625 0.359375 -2.734375 0.625q-1.03125 0.140625 -1.453125 0.328125q-0.421875 0.1875 -0.65625 0.546875q-0.234375 0.359375 -0.234375 0.796875q0 0.671875 0.5 1.125q0.515625 0.4375 1.484375 0.4375q0.96875 0 1.71875 -0.421875q0.75 -0.4375 1.109375 -1.15625q0.265625 -0.578125 0.265625 -1.671875l0 -0.609375zm4.078827 8.71875l0 -13.640625l1.53125 0l0 1.28125q0.53125 -0.75 1.203125 -1.125q0.6875 -0.375 1.640625 -0.375q1.265625 0 2.234375 0.65625q0.96875 0.640625 1.453125 1.828125q0.5 1.1875 0.5 2.59375q0 1.515625 -0.546875 2.734375q-0.546875 1.203125 -1.578125 1.84375q-1.03125 0.640625 -2.171875 0.640625q-0.84375 0 -1.515625 -0.34375q-0.65625 -0.359375 -1.078125 -0.890625l0 4.796875l-1.671875 0zm1.515625 -8.65625q0 1.90625 0.765625 2.8125q0.78125 0.90625 1.875 0.90625q1.109375 0 1.890625 -0.9375q0.796875 -0.9375 0.796875 -2.921875q0 -1.875 -0.78125 -2.8125q-0.765625 -0.9375 -1.84375 -0.9375q-1.0625 0 -1.890625 1.0q-0.8125 1.0 -0.8125 2.890625zm8.860107 -4.984375l1.671875 0l0 7.515625l4.625 -7.515625l1.8125 0l0 9.859375l-1.671875 0l0 -7.46875l-4.640625 7.46875l-1.796875 0l0 -9.859375zm18.18689 0l0 9.859375l-1.671875 0l0 -3.84375l-0.953125 0q-0.890625 0 -1.328125 0.234375q-0.421875 0.21875 -1.25 1.453125l-1.453125 2.15625l-2.078125 0l1.8125 -2.65625q0.8125 -1.21875 1.640625 -1.375q-1.4375 -0.1875 -2.125 -1.015625q-0.6875 -0.84375 -0.6875 -1.9375q0 -1.265625 0.90625 -2.0625q0.90625 -0.8125 2.609375 -0.8125l4.578125 0zm-1.671875 1.390625l-2.375 0q-1.484375 0 -1.921875 0.46875q-0.4375 0.453125 -0.4375 1.078125q0 0.875 0.640625 1.296875q0.640625 0.40625 2.25 0.40625l1.84375 0l0 -3.25zm4.055542 -1.390625l2.59375 0l2.59375 7.890625l2.875 -7.890625l2.40625 0l0 9.859375l-1.671875 0l0 -7.9375l-2.90625 7.9375l-1.5 0l-2.75 -8.3125l0 8.3125l-1.640625 0l0 -9.859375z" fill-rule="nonzero"></path><path fill="#cfe2f3" d="m350.72534 151.34738l0 0c0 -5.7751923 4.681732 -10.456894 10.456909 -10.456894l171.52716 0c2.7733154 0 5.4331055 1.1016998 7.394104 3.0627441c1.9610596 1.9610596 3.0628052 4.620804 3.0628052 7.39415l0 41.826355c0 5.7751923 -4.6817627 10.456909 -10.456909 10.456909l-171.52716 0c-5.775177 0 -10.456909 -4.681717 -10.456909 -10.456909z" fill-rule="nonzero"></path><path stroke="#000000" stroke-width="2.0" stroke-linejoin="round" stroke-linecap="butt" d="m350.72534 151.34738l0 0c0 -5.7751923 4.681732 -10.456894 10.456909 -10.456894l171.52716 0c2.7733154 0 5.4331055 1.1016998 7.394104 3.0627441c1.9610596 1.9610596 3.0628052 4.620804 3.0628052 7.39415l0 41.826355c0 5.7751923 -4.6817627 10.456909 -10.456909 10.456909l-171.52716 0c-5.775177 0 -10.456909 -4.681717 -10.456909 -10.456909z" fill-rule="nonzero"></path><path fill="#000000" d="m414.6017 179.18056l2.84375 -13.59375l2.234375 0l1.375 8.8125q0.265625 1.734375 0.359375 3.328125q0.5625 -1.375 1.890625 -3.71875l4.765625 -8.421875l2.265625 0l-2.828125 13.59375l-1.796875 0l1.421875 -6.609375q0.484375 -2.296875 1.40625 -5.140625q-0.578125 1.328125 -1.4375 2.859375l-5.078125 8.890625l-1.75 0l-1.359375 -8.71875q-0.1875 -1.203125 -0.265625 -2.796875q-0.234375 1.796875 -0.453125 2.84375l-1.8125 8.671875l-1.78125 0zm22.072052 -1.78125q-1.78125 2.0 -3.625 2.0q-1.140625 0 -1.84375 -0.640625q-0.703125 -0.65625 -0.703125 -1.609375q0 -0.625 0.3125 -2.140625l1.1875 -5.6875l1.6875 0l-1.328125 6.3125q-0.15625 0.78125 -0.15625 1.21875q0 0.5625 0.328125 0.875q0.34375 0.296875 1.0 0.296875q0.703125 0 1.375 -0.34375q0.671875 -0.34375 1.15625 -0.921875q0.5 -0.578125 0.796875 -1.375q0.203125 -0.515625 0.484375 -1.796875l0.890625 -4.265625l1.671875 0l-2.0625 9.859375l-1.546875 0l0.375 -1.78125zm2.6413574 1.78125l7.703125 -13.59375l2.140625 0l2.25 13.59375l-1.765625 0l-0.65625 -3.921875l-5.5 0l-2.1875 3.921875l-1.984375 0zm4.953125 -5.3125l4.5 0l-0.53125 -3.421875q-0.3125 -2.03125 -0.375 -3.375q-0.46875 1.15625 -1.359375 2.765625l-2.234375 4.03125zm19.318573 0.53125l1.796875 0.25q-0.84375 2.34375 -2.484375 3.5625q-1.625 1.203125 -3.65625 1.203125q-2.484375 0 -3.9375 -1.515625q-1.453125 -1.515625 -1.453125 -4.328125q0 -3.671875 2.21875 -6.078125q1.96875 -2.140625 4.890625 -2.140625q2.15625 0 3.5 1.15625q1.34375 1.15625 1.546875 3.109375l-1.6875 0.171875q-0.28125 -1.484375 -1.125 -2.203125q-0.828125 -0.734375 -2.15625 -0.734375q-2.5 0 -4.03125 2.21875q-1.34375 1.90625 -1.34375 4.53125q0 2.09375 1.03125 3.203125q1.03125 1.109375 2.6875 1.109375q1.40625 0 2.546875 -0.921875q1.140625 -0.921875 1.65625 -2.59375zm3.754181 -0.921875q0 -3.625 2.09375 -5.875q2.109375 -2.25 5.109375 -2.25q2.53125 0 4.125 1.65625q1.609375 1.65625 1.609375 4.4375q0 1.984375 -0.796875 3.6875q-0.609375 1.265625 -1.53125 2.1875q-0.90625 0.921875 -1.96875 1.421875q-1.390625 0.671875 -2.9375 0.671875q-1.640625 0 -2.984375 -0.78125q-1.328125 -0.78125 -2.03125 -2.171875q-0.6875 -1.40625 -0.6875 -2.984375zm1.796875 0.09375q0 1.203125 0.484375 2.203125q0.5 1.0 1.484375 1.578125q0.984375 0.5625 2.078125 0.5625q1.046875 0 1.984375 -0.5q0.953125 -0.5 1.6875 -1.375q0.75 -0.890625 1.1875 -2.1875q0.4375 -1.296875 0.4375 -2.546875q0 -2.03125 -1.140625 -3.234375q-1.140625 -1.21875 -2.8125 -1.21875q-2.125 0 -3.765625 1.828125q-1.625 1.828125 -1.625 4.890625z" fill-rule="nonzero"></path><path fill="#cfe2f3" d="m585.99567 151.34738l0 0c0 -5.7751923 4.6817627 -10.456894 10.456909 -10.456894l133.63739 0c2.7733765 0 5.4331055 1.1016998 7.394165 3.0627441c1.9610596 1.9610596 3.0627441 4.620804 3.0627441 7.39415l0 41.826355c0 5.7751923 -4.6817017 10.456909 -10.456909 10.456909l-133.63739 0l0 0c-5.7751465 0 -10.456909 -4.681717 -10.456909 -10.456909z" fill-rule="nonzero"></path><path stroke="#000000" stroke-width="2.0" stroke-linejoin="round" stroke-linecap="butt" d="m585.99567 151.34738l0 0c0 -5.7751923 4.6817627 -10.456894 10.456909 -10.456894l133.63739 0c2.7733765 0 5.4331055 1.1016998 7.394165 3.0627441c1.9610596 1.9610596 3.0627441 4.620804 3.0627441 7.39415l0 41.826355c0 5.7751923 -4.6817017 10.456909 -10.456909 10.456909l-133.63739 0l0 0c-5.7751465 0 -10.456909 -4.681717 -10.456909 -10.456909z" fill-rule="nonzero"></path><path fill="#000000" d="m603.5817 179.18056l2.828125 -13.59375l1.828125 0l-2.515625 12.046875l7.0625 0l-0.328125 1.546875l-8.875 0zm13.922607 0l2.515625 -12.046875l-4.46875 0l0.328125 -1.546875l10.703125 0l-0.3125 1.546875l-4.4375 0l-2.515625 12.046875l-1.8125 0zm7.849121 0l2.828125 -13.59375l1.828125 0l-2.515625 12.046875l7.0625 0l-0.328125 1.546875l-8.875 0z" fill-rule="nonzero"></path><path fill="#000000" d="m635.5729 175.10243l0 -1.6875l5.125 0l0 1.6875l-5.125 0zm12.5877075 -9.515625l1.671875 0l0 4.703125q0.515625 -0.59375 1.140625 -0.890625q0.625 -0.296875 1.34375 -0.296875q1.75 0 2.765625 1.46875q1.03125 1.453125 1.03125 3.671875q0 2.3125 -1.109375 3.734375q-1.09375 1.421875 -2.734375 1.421875q-0.546875 0 -1.109375 -0.171875q-0.546875 -0.15625 -1.328125 -0.90625l0 4.640625l-1.671875 0l0 -4.640625q-0.5 0.546875 -1.109375 0.8125q-0.609375 0.265625 -1.3125 0.265625q-1.546875 0 -2.703125 -1.359375q-1.15625 -1.359375 -1.15625 -3.890625q0 -2.140625 1.046875 -3.59375q1.046875 -1.453125 2.8125 -1.453125q0.75 0 1.34375 0.296875q0.609375 0.296875 1.078125 0.890625l0 -4.703125zm1.65625 8.703125q0 2.234375 0.609375 3.0q0.625 0.765625 1.546875 0.765625q1.015625 0 1.734375 -0.9375q0.71875 -0.953125 0.71875 -2.9375q0 -1.875 -0.671875 -2.796875q-0.65625 -0.921875 -1.703125 -0.921875q-1.109375 0 -1.671875 0.96875q-0.5625 0.953125 -0.5625 2.859375zm-6.25 -0.1875q0 2.09375 0.703125 3.015625q0.703125 0.90625 1.734375 0.90625q1.09375 0 1.625 -0.90625q0.546875 -0.921875 0.546875 -2.75q0 -1.9375 -0.578125 -2.90625q-0.5625 -0.984375 -1.703125 -0.984375q-1.03125 0 -1.6875 0.953125q-0.640625 0.953125 -0.640625 2.671875zm13.583862 0.15625q0 -2.734375 1.53125 -4.0625q1.265625 -1.09375 3.09375 -1.09375q2.03125 0 3.3125 1.34375q1.296875 1.328125 1.296875 3.671875q0 1.90625 -0.578125 3.0q-0.5625 1.078125 -1.65625 1.6875q-1.078125 0.59375 -2.375 0.59375q-2.0625 0 -3.34375 -1.328125q-1.28125 -1.328125 -1.28125 -3.8125zm1.71875 0q0 1.890625 0.828125 2.828125q0.828125 0.9375 2.078125 0.9375q1.25 0 2.0625 -0.9375q0.828125 -0.953125 0.828125 -2.890625q0 -1.828125 -0.828125 -2.765625q-0.828125 -0.9375 -2.0625 -0.9375q-1.25 0 -2.078125 0.9375q-0.828125 0.9375 -0.828125 2.828125zm9.281982 8.703125l0 -13.640625l1.53125 0l0 1.28125q0.53125 -0.75 1.203125 -1.125q0.6875 -0.375 1.640625 -0.375q1.265625 0 2.234375 0.65625q0.96875 0.640625 1.453125 1.828125q0.5 1.1875 0.5 2.59375q0 1.515625 -0.546875 2.734375q-0.546875 1.203125 -1.578125 1.84375q-1.03125 0.640625 -2.171875 0.640625q-0.84375 0 -1.515625 -0.34375q-0.65625 -0.359375 -1.078125 -0.890625l0 4.796875l-1.671875 0zm1.515625 -8.65625q0 1.90625 0.765625 2.8125q0.78125 0.90625 1.875 0.90625q1.109375 0 1.890625 -0.9375q0.796875 -0.9375 0.796875 -2.921875q0 -1.875 -0.78125 -2.8125q-0.765625 -0.9375 -1.84375 -0.9375q-1.0625 0 -1.890625 1.0q-0.8125 1.0 -0.8125 2.890625zm8.906982 -4.984375l2.59375 0l2.59375 7.890625l2.875 -7.890625l2.40625 0l0 9.859375l-1.671875 0l0 -7.9375l-2.90625 7.9375l-1.5 0l-2.75 -8.3125l0 8.3125l-1.640625 0l0 -9.859375zm12.701172 13.65625l-0.171875 -1.5625q0.546875 0.140625 0.953125 0.140625q0.546875 0 0.875 -0.1875q0.34375 -0.1875 0.5625 -0.515625q0.15625 -0.25 0.5 -1.25q0.046875 -0.140625 0.15625 -0.40625l-3.734375 -9.875l1.796875 0l2.046875 5.71875q0.40625 1.078125 0.71875 2.28125q0.28125 -1.15625 0.6875 -2.25l2.09375 -5.75l1.671875 0l-3.75 10.03125q-0.59375 1.625 -0.9375 2.234375q-0.4375 0.828125 -1.015625 1.203125q-0.578125 0.390625 -1.375 0.390625q-0.484375 0 -1.078125 -0.203125zm10.21875 -13.65625l7.765625 0l0 9.859375l-1.65625 0l0 -8.46875l-4.4375 0l0 4.90625q0 1.71875 -0.109375 2.265625q-0.109375 0.546875 -0.609375 0.953125q-0.5 0.40625 -1.453125 0.40625q-0.578125 0 -1.34375 -0.078125l0 -1.390625l0.734375 0q0.515625 0 0.734375 -0.09375q0.234375 -0.109375 0.296875 -0.34375q0.078125 -0.234375 0.078125 -1.515625l0 -6.5zm19.448303 0l1.671875 0l0 9.859375l-1.671875 0l0 -9.859375zm-9.328125 0l1.65625 0l0 3.859375l2.125 0q2.0625 0 3.171875 0.8125q1.125 0.796875 1.125 2.203125q0 1.234375 -0.9375 2.109375q-0.921875 0.875 -2.96875 0.875l-4.171875 0l0 -9.859375zm1.65625 8.484375l1.765625 0q1.578125 0 2.25 -0.390625q0.6875 -0.390625 0.6875 -1.21875q0 -0.640625 -0.5 -1.140625q-0.5 -0.5 -2.21875 -0.5l-1.984375 0l0 3.25z" fill-rule="nonzero"></path><path fill="#cfe2f3" d="m155.4419 151.34738l0 0c0 -5.7751923 4.681717 -10.456894 10.456909 -10.456894l133.63739 0c2.7733154 0 5.433075 1.1016998 7.3941345 3.0627441c1.9610596 1.9610596 3.0627441 4.620804 3.0627441 7.39415l0 41.826355c0 5.7751923 -4.6817017 10.456909 -10.456879 10.456909l-133.63739 0l0 0c-5.7751923 0 -10.456909 -4.681717 -10.456909 -10.456909z" fill-rule="nonzero"></path><path stroke="#000000" stroke-width="2.0" stroke-linejoin="round" stroke-linecap="butt" d="m155.4419 151.34738l0 0c0 -5.7751923 4.681717 -10.456894 10.456909 -10.456894l133.63739 0c2.7733154 0 5.433075 1.1016998 7.3941345 3.0627441c1.9610596 1.9610596 3.0627441 4.620804 3.0627441 7.39415l0 41.826355c0 5.7751923 -4.6817017 10.456909 -10.456879 10.456909l-133.63739 0l0 0c-5.7751923 0 -10.456909 -4.681717 -10.456909 -10.456909z" fill-rule="nonzero"></path><path fill="#000000" d="m195.25162 154.5868l1.625 0l0 10.765625l7.234375 -10.765625l1.8125 0l0 13.59375l-1.625 0l0 -10.75l-7.25 10.75l-1.796875 0l0 -13.59375zm19.59668 9.984375l1.640625 0.21875q-0.265625 1.6875 -1.375 2.65625q-1.109375 0.953125 -2.734375 0.953125q-2.015625 0 -3.25 -1.3125q-1.21875 -1.328125 -1.21875 -3.796875q0 -1.59375 0.515625 -2.78125q0.53125 -1.203125 1.609375 -1.796875q1.09375 -0.609375 2.359375 -0.609375q1.609375 0 2.625 0.8125q1.015625 0.8125 1.3125 2.3125l-1.625 0.25q-0.234375 -1.0 -0.828125 -1.5q-0.59375 -0.5 -1.421875 -0.5q-1.265625 0 -2.0625 0.90625q-0.78125 0.90625 -0.78125 2.859375q0 1.984375 0.765625 2.890625q0.765625 0.890625 1.984375 0.890625q0.984375 0 1.640625 -0.59375q0.65625 -0.609375 0.84375 -1.859375zm2.890625 -6.25l1.65625 0l0 4.265625q0.8125 0 1.125 -0.296875q0.3125 -0.3125 0.9375 -1.796875q0.5 -1.15625 0.796875 -1.53125q0.3125 -0.375 0.703125 -0.5q0.40625 -0.140625 1.28125 -0.140625l0.34375 0l0 1.390625l-0.46875 -0.015625q-0.65625 0 -0.84375 0.203125q-0.1875 0.203125 -0.59375 1.21875q-0.375 0.953125 -0.703125 1.328125q-0.3125 0.375 -0.96875 0.671875q1.078125 0.296875 2.125 2.015625l1.828125 3.046875l-1.84375 0l-1.78125 -3.046875q-0.546875 -0.921875 -0.953125 -1.21875q-0.40625 -0.296875 -0.984375 -0.296875l0 4.5625l-1.65625 0l0 -9.859375zm7.5371094 4.9375q0 -2.734375 1.53125 -4.0625q1.265625 -1.09375 3.09375 -1.09375q2.03125 0 3.3125 1.34375q1.296875 1.328125 1.296875 3.671875q0 1.90625 -0.578125 3.0q-0.5625 1.078125 -1.65625 1.6875q-1.078125 0.59375 -2.375 0.59375q-2.0625 0 -3.34375 -1.328125q-1.28125 -1.328125 -1.28125 -3.8125zm1.71875 0q0 1.890625 0.828125 2.828125q0.828125 0.9375 2.078125 0.9375q1.25 0 2.0625 -0.9375q0.828125 -0.953125 0.828125 -2.890625q0 -1.828125 -0.828125 -2.765625q-0.828125 -0.9375 -2.0625 -0.9375q-1.25 0 -2.078125 0.9375q-0.828125 0.9375 -0.828125 2.828125zm9.328842 -4.9375l2.59375 0l2.59375 7.890625l2.875 -7.890625l2.40625 0l0 9.859375l-1.671875 0l0 -7.9375l-2.90625 7.9375l-1.5 0l-2.75 -8.3125l0 8.3125l-1.640625 0l0 -9.859375zm22.154282 0l1.671875 0l0 9.859375l-1.671875 0l0 -9.859375zm-9.32811 0l1.65625 0l0 3.859375l2.125 0q2.0625 0 3.1718597 0.8125q1.125 0.796875 1.125 2.203125q0 1.234375 -0.9375 2.109375q-0.92185974 0.875 -2.9687347 0.875l-4.171875 0l0 -9.859375zm1.65625 8.484375l1.765625 0q1.578125 0 2.25 -0.390625q0.6875 -0.390625 0.6875 -1.21875q0 -0.640625 -0.5 -1.140625q-0.5 -0.5 -2.21875 -0.5l-1.984375 0l0 3.25zm11.706039 -8.484375l1.671875 0l0 7.515625l4.625 -7.515625l1.8125 0l0 9.859375l-1.671875 0l0 -7.46875l-4.640625 7.46875l-1.796875 0l0 -9.859375zm5.515625 -3.71875l1.140625 0q-0.140625 1.15625 -0.859375 1.78125q-0.703125 0.625 -1.875 0.625q-1.1875 0 -1.90625 -0.609375q-0.703125 -0.625 -0.84375 -1.796875l1.140625 0q0.140625 0.625 0.515625 0.9375q0.390625 0.3125 1.046875 0.3125q0.75 0 1.125 -0.296875q0.390625 -0.3125 0.515625 -0.953125z" fill-rule="nonzero"></path><path fill="#000000" d="m204.92805 188.9618q-0.9375 0.796875 -1.796875 1.125q-0.859375 0.3125 -1.84375 0.3125q-1.609375 0 -2.484375 -0.78125q-0.875 -0.796875 -0.875 -2.03125q0 -0.734375 0.328125 -1.328125q0.328125 -0.59375 0.859375 -0.953125q0.53125 -0.359375 1.203125 -0.546875q0.5 -0.140625 1.484375 -0.25q2.03125 -0.25 2.984375 -0.578125q0 -0.34375 0 -0.4375q0 -1.015625 -0.46875 -1.4375q-0.640625 -0.5625 -1.90625 -0.5625q-1.171875 0 -1.734375 0.40625q-0.5625 0.40625 -0.828125 1.46875l-1.640625 -0.234375q0.234375 -1.046875 0.734375 -1.6875q0.515625 -0.640625 1.46875 -0.984375q0.96875 -0.359375 2.25 -0.359375q1.265625 0 2.046875 0.296875q0.78125 0.296875 1.15625 0.75q0.375 0.453125 0.515625 1.140625q0.09375 0.421875 0.09375 1.53125l0 2.234375q0 2.328125 0.09375 2.953125q0.109375 0.609375 0.4375 1.171875l-1.75 0q-0.265625 -0.515625 -0.328125 -1.21875zm-0.140625 -3.71875q-0.90625 0.359375 -2.734375 0.625q-1.03125 0.140625 -1.453125 0.328125q-0.421875 0.1875 -0.65625 0.546875q-0.234375 0.359375 -0.234375 0.796875q0 0.671875 0.5 1.125q0.515625 0.4375 1.484375 0.4375q0.96875 0 1.71875 -0.421875q0.75 -0.4375 1.109375 -1.15625q0.265625 -0.578125 0.265625 -1.671875l0 -0.609375zm4.094467 -4.921875l3.84375 0q1.421875 0 2.109375 0.25q0.6875 0.234375 1.1875 0.859375q0.5 0.625 0.5 1.515625q0 0.703125 -0.296875 1.234375q-0.28125 0.515625 -0.875 0.875q0.703125 0.21875 1.15625 0.859375q0.46875 0.640625 0.46875 1.515625q-0.09375 1.390625 -1.015625 2.078125q-0.90625 0.671875 -2.640625 0.671875l-4.4375 0l0 -9.859375zm1.671875 4.15625l1.78125 0q1.0625 0 1.453125 -0.109375q0.40625 -0.109375 0.71875 -0.453125q0.3125 -0.34375 0.3125 -0.8125q0 -0.78125 -0.546875 -1.078125q-0.546875 -0.3125 -1.890625 -0.3125l-1.828125 0l0 2.765625zm0 4.328125l2.1875 0q1.421875 0 1.953125 -0.328125q0.53125 -0.328125 0.5625 -1.140625q0 -0.46875 -0.3125 -0.875q-0.3125 -0.40625 -0.796875 -0.5q-0.484375 -0.109375 -1.578125 -0.109375l-2.015625 0l0 2.953125zm7.333008 -8.484375l8.0 0l0 1.390625l-3.171875 0l0 8.46875l-1.65625 0l0 -8.46875l-3.171875 0l0 -1.390625zm8.810333 4.9375q0 -2.734375 1.53125 -4.0625q1.265625 -1.09375 3.09375 -1.09375q2.03125 0 3.3125 1.34375q1.296875 1.328125 1.296875 3.671875q0 1.90625 -0.578125 3.0q-0.5625 1.078125 -1.65625 1.6875q-1.078125 0.59375 -2.375 0.59375q-2.0625 0 -3.34375 -1.328125q-1.28125 -1.328125 -1.28125 -3.8125zm1.71875 0q0 1.890625 0.828125 2.828125q0.828125 0.9375 2.078125 0.9375q1.25 0 2.0625 -0.9375q0.828125 -0.953125 0.828125 -2.890625q0 -1.828125 -0.828125 -2.765625q-0.828125 -0.9375 -2.0625 -0.9375q-1.25 0 -2.078125 0.9375q-0.828125 0.9375 -0.828125 2.828125zm9.328842 -4.9375l2.59375 0l2.59375 7.890625l2.875 -7.890625l2.40625 0l0 9.859375l-1.671875 0l0 -7.9375l-2.90625 7.9375l-1.5 0l-2.75 -8.3125l0 8.3125l-1.640625 0l0 -9.859375zm19.216782 8.640625q-0.9375 0.796875 -1.7968597 1.125q-0.859375 0.3125 -1.84375 0.3125q-1.609375 0 -2.484375 -0.78125q-0.875 -0.796875 -0.875 -2.03125q0 -0.734375 0.328125 -1.328125q0.328125 -0.59375 0.859375 -0.953125q0.53125 -0.359375 1.203125 -0.546875q0.5 -0.140625 1.484375 -0.25q2.03125 -0.25 2.9843597 -0.578125q0 -0.34375 0 -0.4375q0 -1.015625 -0.46875 -1.4375q-0.64060974 -0.5625 -1.9062347 -0.5625q-1.171875 0 -1.734375 0.40625q-0.5625 0.40625 -0.828125 1.46875l-1.640625 -0.234375q0.234375 -1.046875 0.734375 -1.6875q0.515625 -0.640625 1.46875 -0.984375q0.96875 -0.359375 2.25 -0.359375q1.265625 0 2.0468597 0.296875q0.78125 0.296875 1.15625 0.75q0.375 0.453125 0.515625 1.140625q0.09375 0.421875 0.09375 1.53125l0 2.234375q0 2.328125 0.09375 2.953125q0.109375 0.609375 0.4375 1.171875l-1.75 0q-0.265625 -0.515625 -0.328125 -1.21875zm-0.140625 -3.71875q-0.90623474 0.359375 -2.7343597 0.625q-1.03125 0.140625 -1.453125 0.328125q-0.421875 0.1875 -0.65625 0.546875q-0.234375 0.359375 -0.234375 0.796875q0 0.671875 0.5 1.125q0.515625 0.4375 1.484375 0.4375q0.96875 0 1.71875 -0.421875q0.74998474 -0.4375 1.1093597 -1.15625q0.265625 -0.578125 0.265625 -1.671875l0 -0.609375zm3.1882324 -4.921875l8.0 0l0 1.390625l-3.171875 0l0 8.46875l-1.65625 0l0 -8.46875l-3.171875 0l0 -1.390625z" fill-rule="nonzero"></path><path fill="#000000" fill-opacity="0.0" d="m124.91434 51.732998l30.519684 0" fill-rule="nonzero"></path><path stroke="#000000" stroke-width="2.0" stroke-linejoin="round" stroke-linecap="butt" d="m124.91434 51.733l18.519684 0" fill-rule="evenodd"></path><path fill="#000000" stroke="#000000" stroke-width="2.0" stroke-linecap="butt" d="m143.43402 55.036465l9.076202 -3.303463l-9.076202 -3.3034668z" fill-rule="evenodd"></path><path fill="#000000" fill-opacity="0.0" d="m309.99307 51.732998l40.724426 0" fill-rule="nonzero"></path><path stroke="#000000" stroke-width="2.0" stroke-linejoin="round" stroke-linecap="butt" d="m309.9931 51.733l28.724365 0" fill-rule="evenodd"></path><path fill="#000000" stroke="#000000" stroke-width="2.0" stroke-linecap="butt" d="m338.71747 55.036465l9.076202 -3.303463l-9.076202 -3.3034668z" fill-rule="evenodd"></path><path fill="#000000" fill-opacity="0.0" d="m446.94583 96.91411l0 43.968506" fill-rule="nonzero"></path><path stroke="#000000" stroke-width="2.0" stroke-linejoin="round" stroke-linecap="butt" d="m446.94583 96.9141l0 31.968513" fill-rule="evenodd"></path><path fill="#000000" stroke="#000000" stroke-width="2.0" stroke-linecap="butt" d="m443.64236 128.88261l3.3034668 9.076187l3.3034668 -9.076187z" fill-rule="evenodd"></path><path fill="#000000" fill-opacity="0.0" d="m585.99567 172.26056l-42.834595 0" fill-rule="nonzero"></path><path stroke="#000000" stroke-width="2.0" stroke-linejoin="round" stroke-linecap="butt" d="m585.99567 172.26056l-30.834595 0" fill-rule="evenodd"></path><path fill="#000000" stroke="#000000" stroke-width="2.0" stroke-linecap="butt" d="m555.1611 168.95709l-9.076233 3.3034668l9.076233 3.3034668z" fill-rule="evenodd"></path><path fill="#000000" fill-opacity="0.0" d="m350.72534 172.26056l-40.724396 0" fill-rule="nonzero"></path><path stroke="#000000" stroke-width="2.0" stroke-linejoin="round" stroke-linecap="butt" d="m350.72534 172.26056l-28.724396 0" fill-rule="evenodd"></path><path fill="#000000" stroke="#000000" stroke-width="2.0" stroke-linecap="butt" d="m322.00095 168.95709l-9.076202 3.3034668l9.076202 3.3034668z" fill-rule="evenodd"></path></g></svg>

