<?xml version="1.0" standalone="yes"?>

<svg version="1.1" viewBox="0.0 0.0 644.8451443569554 396.70603674540683" fill="none" stroke="none" stroke-linecap="square" stroke-miterlimit="10" xmlns="http://www.w3.org/2000/svg" xmlns:xlink="http://www.w3.org/1999/xlink"><clipPath id="p.0"><path d="m0 0l644.84515 0l0 396.70602l-644.84515 0l0 -396.70602z" clip-rule="nonzero"></path></clipPath><g clip-path="url(#p.0)"><path fill="#000000" fill-opacity="0.0" d="m0 0l644.84515 0l0 396.70602l-644.84515 0z" fill-rule="nonzero"></path><path fill="#cfe2f3" d="m4.39895 34.050396l0 0c0 -15.0265045 12.181389 -27.207893 27.207893 -27.207893l174.68658 0c7.215973 0 14.136414 2.866537 19.238876 7.9690075c5.102478 5.1024694 7.9690094 12.022904 7.9690094 19.238884l0 108.82831c0 15.0265045 -12.181381 27.207886 -27.207886 27.207886l-174.68658 0c-15.0265045 0 -27.207893 -12.181381 -27.207893 -27.207886z" fill-rule="nonzero"></path><path stroke="#000000" stroke-width="2.0" stroke-linejoin="round" stroke-linecap="butt" d="m4.39895 34.050396l0 0c0 -15.0265045 12.181389 -27.207893 27.207893 -27.207893l174.68658 0c7.215973 0 14.136414 2.866537 19.238876 7.9690075c5.102478 5.1024694 7.9690094 12.022904 7.9690094 19.238884l0 108.82831c0 15.0265045 -12.181381 27.207886 -27.207886 27.207886l-174.68658 0c-15.0265045 0 -27.207893 -12.181381 -27.207893 -27.207886z" fill-rule="nonzero"></path><path fill="#000000" d="m27.144146 15.790799l10.703125 0l0 13.593749l-1.8125 0l0 -12.0l-7.09375 0l0 12.0l-1.796875 0l0 -13.593749zm19.612305 12.374999q-0.9375 0.796875 -1.796875 1.125q-0.859375 0.3125 -1.84375 0.3125q-1.609375 0 -2.484375 -0.78125q-0.875 -0.796875 -0.875 -2.03125q0 -0.734375 0.328125 -1.328125q0.328125 -0.59375 0.859375 -0.953125q0.53125 -0.359375 1.203125 -0.546875q0.5 -0.140625 1.484375 -0.25q2.03125 -0.25 2.984375 -0.578125q0 -0.34375 0 -0.4375q0 -1.015625 -0.46875 -1.4375q-0.640625 -0.5625 -1.90625 -0.5625q-1.171875 0 -1.734375 0.40625q-0.5625 0.40625 -0.828125 1.46875l-1.640625 -0.234375q0.234375 -1.046875 0.734375 -1.6875q0.515625 -0.640625 1.46875 -0.984375q0.96875 -0.359375 2.25 -0.359375q1.265625 0 2.046875 0.296875q0.78125 0.296875 1.15625 0.75q0.375 0.453125 0.515625 1.140625q0.09375 0.421875 0.09375 1.53125l0 2.234375q0 2.328125 0.09375 2.953125q0.109375 0.609375 0.4375 1.171875l-1.75 0q-0.265625 -0.515625 -0.328125 -1.21875zm-0.140625 -3.71875q-0.90625 0.359375 -2.734375 0.625q-1.03125 0.140625 -1.453125 0.328125q-0.421875 0.1875 -0.65625 0.546875q-0.234375 0.359375 -0.234375 0.796875q0 0.671875 0.5 1.125q0.515625 0.4375 1.484375 0.4375q0.96875 0 1.71875 -0.421875q0.75 -0.4375 1.109375 -1.15625q0.265625 -0.578125 0.265625 -1.671875l0 -0.609375zm4.078842 8.71875l0 -13.640625l1.53125 0l0 1.28125q0.53125 -0.75 1.203125 -1.125q0.6875 -0.375 1.640625 -0.375q1.265625 0 2.234375 0.65625q0.96875 0.640625 1.453125 1.828125q0.5 1.1875 0.5 2.59375q0 1.515625 -0.546875 2.734375q-0.546875 1.203125 -1.578125 1.84375q-1.03125 0.640625 -2.171875 0.640625q-0.84375 0 -1.515625 -0.34375q-0.65625 -0.359375 -1.078125 -0.890625l0 4.796875l-1.671875 0zm1.515625 -8.65625q0 1.90625 0.765625 2.8125q0.78125 0.90625 1.875 0.90625q1.109375 0 1.890625 -0.9375q0.796875 -0.9375 0.796875 -2.921875q0 -1.875 -0.78125 -2.8125q-0.765625 -0.9375 -1.84375 -0.9375q-1.0625 0 -1.890625 1.0q-0.8125 1.0 -0.8125 2.890625zm15.297588 3.65625q-0.9375 0.796875 -1.796875 1.125q-0.859375 0.3125 -1.8437462 0.3125q-1.609375 0 -2.484375 -0.78125q-0.875 -0.796875 -0.875 -2.03125q0 -0.734375 0.328125 -1.328125q0.328125 -0.59375 0.859375 -0.953125q0.53125 -0.359375 1.203125 -0.546875q0.5 -0.140625 1.4843712 -0.25q2.03125 -0.25 2.984375 -0.578125q0 -0.34375 0 -0.4375q0 -1.015625 -0.46875 -1.4375q-0.640625 -0.5625 -1.90625 -0.5625q-1.1718712 0 -1.7343712 0.40625q-0.5625 0.40625 -0.828125 1.46875l-1.640625 -0.234375q0.234375 -1.046875 0.734375 -1.6875q0.515625 -0.640625 1.46875 -0.984375q0.96875 -0.359375 2.2499962 -0.359375q1.265625 0 2.046875 0.296875q0.78125 0.296875 1.15625 0.75q0.375 0.453125 0.515625 1.140625q0.09375 0.421875 0.09375 1.53125l0 2.234375q0 2.328125 0.09375 2.953125q0.109375 0.609375 0.4375 1.171875l-1.75 0q-0.265625 -0.515625 -0.328125 -1.21875zm-0.140625 -3.71875q-0.90625 0.359375 -2.734375 0.625q-1.0312462 0.140625 -1.4531212 0.328125q-0.421875 0.1875 -0.65625 0.546875q-0.234375 0.359375 -0.234375 0.796875q0 0.671875 0.5 1.125q0.515625 0.4375 1.4843712 0.4375q0.96875 0 1.71875 -0.421875q0.75 -0.4375 1.109375 -1.15625q0.265625 -0.578125 0.265625 -1.671875l0 -0.609375zm4.125717 -4.921875l2.59375 0l2.59375 7.890625l2.875 -7.890625l2.40625 0l0 9.859375l-1.671875 0l0 -7.9375l-2.90625 7.9375l-1.5 0l-2.75 -8.3125l0 8.3125l-1.640625 0l0 -9.859375zm19.529297 6.6875l1.71875 0.21875q-0.40625 1.5 -1.515625 2.34375q-1.09375 0.828125 -2.8125 0.828125q-2.15625 0 -3.421875 -1.328125q-1.265625 -1.328125 -1.265625 -3.734375q0 -2.484375 1.265625 -3.859375q1.28125 -1.375 3.328125 -1.375q1.984375 0 3.234375 1.34375q1.25 1.34375 1.25 3.796875q0 0.140625 -0.015625 0.4375l-7.34375 0q0.09375 1.625 0.921875 2.484375q0.828125 0.859375 2.0625 0.859375q0.90625 0 1.546875 -0.46875q0.65625 -0.484375 1.046875 -1.546875zm-5.484375 -2.703125l5.5 0q-0.109375 -1.234375 -0.625 -1.859375q-0.796875 -0.96875 -2.078125 -0.96875q-1.140625 0 -1.9375 0.78125q-0.78125 0.765625 -0.859375 2.046875zm8.219467 -3.984375l8.0 0l0 1.390625l-3.171875 0l0 8.46875l-1.65625 0l0 -8.46875l-3.171875 0l0 -1.390625zm9.435333 13.640625l0 -13.640625l1.53125 0l0 1.28125q0.53125 -0.75 1.203125 -1.125q0.6875 -0.375 1.640625 -0.375q1.265625 0 2.234375 0.65625q0.96875 0.640625 1.453125 1.828125q0.5 1.1875 0.5 2.59375q0 1.515625 -0.546875 2.734375q-0.546875 1.203125 -1.578125 1.84375q-1.03125 0.640625 -2.171875 0.640625q-0.84375 0 -1.515625 -0.34375q-0.65625 -0.359375 -1.078125 -0.890625l0 4.796875l-1.671875 0zm1.515625 -8.65625q0 1.90625 0.765625 2.8125q0.78125 0.90625 1.875 0.90625q1.109375 0 1.890625 -0.9375q0.796875 -0.9375 0.796875 -2.921875q0 -1.875 -0.78125 -2.8125q-0.765625 -0.9375 -1.84375 -0.9375q-1.0625 0 -1.890625 1.0q-0.8125 1.0 -0.8125 2.890625zm18.235092 -4.984375l1.671875 0l0 9.859375l-1.671875 0l0 -9.859375zm-9.328125 0l1.65625 0l0 3.859375l2.125 0q2.0625 0 3.171875 0.8125q1.125 0.796875 1.125 2.203125q0 1.234375 -0.9375 2.109375q-0.921875 0.875 -2.96875 0.875l-4.171875 0l0 -9.859375zm1.65625 8.484375l1.765625 0q1.578125 0 2.25 -0.390625q0.6875 -0.390625 0.6875 -1.21875q0 -0.640625 -0.5 -1.140625q-0.5 -0.5 -2.21875 -0.5l-1.984375 0l0 3.25zm23.326866 0.15625q-0.9375 0.796875 -1.796875 1.125q-0.859375 0.3125 -1.84375 0.3125q-1.609375 0 -2.484375 -0.78125q-0.875 -0.796875 -0.875 -2.03125q0 -0.734375 0.328125 -1.328125q0.328125 -0.59375 0.859375 -0.953125q0.53125 -0.359375 1.203125 -0.546875q0.5 -0.140625 1.484375 -0.25q2.03125 -0.25 2.984375 -0.578125q0 -0.34375 0 -0.4375q0 -1.015625 -0.46875 -1.4375q-0.640625 -0.5625 -1.90625 -0.5625q-1.171875 0 -1.734375 0.40625q-0.5625 0.40625 -0.828125 1.46875l-1.640625 -0.234375q0.234375 -1.046875 0.734375 -1.6875q0.515625 -0.640625 1.46875 -0.984375q0.96875 -0.359375 2.25 -0.359375q1.265625 0 2.046875 0.296875q0.78125 0.296875 1.15625 0.75q0.375 0.453125 0.515625 1.140625q0.09375 0.421875 0.09375 1.53125l0 2.234375q0 2.328125 0.09375 2.953125q0.109375 0.609375 0.4375 1.171875l-1.75 0q-0.265625 -0.515625 -0.328125 -1.21875zm-0.140625 -3.71875q-0.90625 0.359375 -2.734375 0.625q-1.03125 0.140625 -1.453125 0.328125q-0.421875 0.1875 -0.65625 0.546875q-0.234375 0.359375 -0.234375 0.796875q0 0.671875 0.5 1.125q0.515625 0.4375 1.484375 0.4375q0.96875 0 1.71875 -0.421875q0.75 -0.4375 1.109375 -1.15625q0.265625 -0.578125 0.265625 -1.671875l0 -0.609375zm4.094467 -4.921875l3.84375 0q1.421875 0 2.109375 0.25q0.6875 0.234375 1.1875 0.859375q0.5 0.625 0.5 1.515625q0 0.703125 -0.296875 1.234375q-0.28125 0.515625 -0.875 0.875q0.703125 0.21875 1.15625 0.859375q0.46875 0.640625 0.46875 1.515625q-0.09375 1.390625 -1.015625 2.078125q-0.90625 0.671875 -2.640625 0.671875l-4.4375 0l0 -9.859375zm1.671875 4.15625l1.78125 0q1.0625 0 1.453125 -0.109375q0.40625 -0.109375 0.71875 -0.453125q0.3125 -0.34375 0.3125 -0.8125q0 -0.78125 -0.546875 -1.078125q-0.546875 -0.3125 -1.890625 -0.3125l-1.828125 0l0 2.765625zm0 4.328125l2.1875 0q1.421875 0 1.953125 -0.328125q0.53125 -0.328125 0.5625 -1.140625q0 -0.46875 -0.3125 -0.875q-0.3125 -0.40625 -0.796875 -0.5q-0.484375 -0.109375 -1.578125 -0.109375l-2.015625 0l0 2.953125zm7.333008 -8.484375l8.0 0l0 1.390625l-3.171875 0l0 8.46875l-1.65625 0l0 -8.46875l-3.171875 0l0 -1.390625zm8.810333 4.9375q0 -2.734375 1.53125 -4.0625q1.265625 -1.09375 3.09375 -1.09375q2.03125 0 3.3125 1.34375q1.296875 1.328125 1.296875 3.671875q0 1.90625 -0.578125 3.0q-0.5625 1.078125 -1.65625 1.6875q-1.078125 0.59375 -2.375 0.59375q-2.0625 0 -3.34375 -1.328125q-1.28125 -1.328125 -1.28125 -3.8125zm1.71875 0q0 1.890625 0.828125 2.828125q0.828125 0.9375 2.078125 0.9375q1.25 0 2.0625 -0.9375q0.828125 -0.953125 0.828125 -2.890625q0 -1.828125 -0.828125 -2.765625q-0.828125 -0.9375 -2.0625 -0.9375q-1.25 0 -2.078125 0.9375q-0.828125 0.9375 -0.828125 2.828125zm9.328842 -4.9375l2.59375 0l2.59375 7.890625l2.875 -7.890625l2.40625 0l0 9.859375l-1.671875 0l0 -7.9375l-2.90625 7.9375l-1.5 0l-2.75 -8.3125l0 8.3125l-1.640625 0l0 -9.859375zm19.216797 8.640625q-0.9375 0.796875 -1.796875 1.125q-0.859375 0.3125 -1.84375 0.3125q-1.609375 0 -2.484375 -0.78125q-0.875 -0.796875 -0.875 -2.03125q0 -0.734375 0.328125 -1.328125q0.328125 -0.59375 0.859375 -0.953125q0.53125 -0.359375 1.203125 -0.546875q0.5 -0.140625 1.484375 -0.25q2.03125 -0.25 2.984375 -0.578125q0 -0.34375 0 -0.4375q0 -1.015625 -0.46875 -1.4375q-0.640625 -0.5625 -1.90625 -0.5625q-1.171875 0 -1.734375 0.40625q-0.5625 0.40625 -0.828125 1.46875l-1.640625 -0.234375q0.234375 -1.046875 0.734375 -1.6875q0.515625 -0.640625 1.46875 -0.984375q0.96875 -0.359375 2.25 -0.359375q1.265625 0 2.046875 0.296875q0.78125 0.296875 1.15625 0.75q0.375 0.453125 0.515625 1.140625q0.09375 0.421875 0.09375 1.53125l0 2.234375q0 2.328125 0.09375 2.953125q0.109375 0.609375 0.4375 1.171875l-1.75 0q-0.265625 -0.515625 -0.328125 -1.21875zm-0.140625 -3.71875q-0.90625 0.359375 -2.734375 0.625q-1.03125 0.140625 -1.453125 0.328125q-0.421875 0.1875 -0.65625 0.546875q-0.234375 0.359375 -0.234375 0.796875q0 0.671875 0.5 1.125q0.515625 0.4375 1.484375 0.4375q0.96875 0 1.71875 -0.421875q0.75 -0.4375 1.109375 -1.15625q0.265625 -0.578125 0.265625 -1.671875l0 -0.609375zm3.1882172 -4.921875l8.0 0l0 1.390625l-3.171875 0l0 8.46875l-1.65625 0l0 -8.46875l-3.171875 0l0 -1.390625zm15.872833 8.640625q-0.9375 0.796875 -1.796875 1.125q-0.859375 0.3125 -1.84375 0.3125q-1.609375 0 -2.484375 -0.78125q-0.875 -0.796875 -0.875 -2.03125q0 -0.734375 0.328125 -1.328125q0.328125 -0.59375 0.859375 -0.953125q0.53125 -0.359375 1.203125 -0.546875q0.5 -0.140625 1.484375 -0.25q2.03125 -0.25 2.984375 -0.578125q0 -0.34375 0 -0.4375q0 -1.015625 -0.46875 -1.4375q-0.640625 -0.5625 -1.90625 -0.5625q-1.171875 0 -1.734375 0.40625q-0.5625 0.40625 -0.828125 1.46875l-1.640625 -0.234375q0.234375 -1.046875 0.734375 -1.6875q0.515625 -0.640625 1.46875 -0.984375q0.96875 -0.359375 2.25 -0.359375q1.265625 0 2.046875 0.296875q0.78125 0.296875 1.15625 0.75q0.375 0.453125 0.515625 1.140625q0.09375 0.421875 0.09375 1.53125l0 2.234375q0 2.328125 0.09375 2.953125q0.109375 0.609375 0.4375 1.171875l-1.75 0q-0.265625 -0.515625 -0.328125 -1.21875zm-0.140625 -3.71875q-0.90625 0.359375 -2.734375 0.625q-1.03125 0.140625 -1.453125 0.328125q-0.421875 0.1875 -0.65625 0.546875q-0.234375 0.359375 -0.234375 0.796875q0 0.671875 0.5 1.125q0.515625 0.4375 1.484375 0.4375q0.96875 0 1.71875 -0.421875q0.75 -0.4375 1.109375 -1.15625q0.265625 -0.578125 0.265625 -1.671875l0 -0.609375z" fill-rule="nonzero"></path><path stroke="#000000" stroke-width="1.3671874999999998" stroke-linecap="butt" d="m25.659771 31.362413l186.58072 0" fill-rule="nonzero"></path><path fill="#000000" d="m39.849422 41.947052q1.015625 0 2.0 0.53125q0.984375 0.515625 1.53125 1.5q0.546875 0.984375 0.546875 2.046875q0 1.6875 -1.203125 2.890625q-1.1875 1.203125 -2.875 1.203125q-1.703125 0 -2.90625 -1.203125q-1.1875 -1.203125 -1.1875 -2.890625q0 -1.0625 0.546875 -2.046875q0.546875 -0.984375 1.53125 -1.5q0.984375 -0.53125 2.015625 -0.53125z" fill-rule="nonzero"></path><path fill="#000000" d="m70.00849 41.525177l1.671875 0l0 1.875q0 1.203125 0.140625 1.75q0.140625 0.53125 0.6875 0.9375q0.546875 0.40625 1.375 0.40625q0.953125 0 2.453125 -0.5l0 -4.46875l1.671875 0l0 9.859375l-1.671875 0l0 -3.96875q-1.546875 0.484375 -2.875 0.484375q-1.125 0 -1.984375 -0.5625q-0.859375 -0.578125 -1.171875 -1.40625q-0.296875 -0.828125 -0.296875 -1.828125l0 -2.578125zm10.329208 0l1.671875 0l0 7.515625l4.625 -7.515625l1.8125 0l0 9.859375l-1.671875 0l0 -7.46875l-4.640625 7.46875l-1.796875 0l0 -9.859375zm16.858765 6.25l1.640625 0.21875q-0.265625 1.6875 -1.375 2.65625q-1.109375 0.953125 -2.734375 0.953125q-2.015625 0 -3.25 -1.3125q-1.21875 -1.328125 -1.21875 -3.796875q0 -1.59375 0.515625 -2.78125q0.53125 -1.203125 1.609375 -1.796875q1.09375 -0.609375 2.359375 -0.609375q1.609375 0 2.625 0.8125q1.015625 0.8125 1.3125 2.3125l-1.625 0.25q-0.234375 -1.0 -0.828125 -1.5q-0.59375 -0.5 -1.421875 -0.5q-1.265625 0 -2.0625 0.90625q-0.78125 0.90625 -0.78125 2.859375q0 1.984375 0.765625 2.890625q0.765625 0.890625 1.984375 0.890625q0.984375 0 1.640625 -0.59375q0.65625 -0.609375 0.84375 -1.859375zm3.703125 -6.25l7.765625 0l0 9.859375l-1.65625 0l0 -8.46875l-4.4375 0l0 4.90625q0 1.71875 -0.109375 2.265625q-0.109375 0.546875 -0.609375 0.953125q-0.5 0.40625 -1.453125 0.40625q-0.578125 0 -1.34375 -0.078125l0 -1.390625l0.734375 0q0.515625 0 0.734375 -0.09375q0.234375 -0.109375 0.296875 -0.34375q0.078125 -0.234375 0.078125 -1.515625l0 -6.5zm9.448349 4.9375q0 -2.734375 1.53125 -4.0625q1.265625 -1.09375 3.09375 -1.09375q2.03125 0 3.3125 1.34375q1.296875 1.328125 1.296875 3.671875q0 1.90625 -0.578125 3.0q-0.5625 1.078125 -1.65625 1.6875q-1.078125 0.59375 -2.375 0.59375q-2.0625 0 -3.34375 -1.328125q-1.28125 -1.328125 -1.28125 -3.8125zm1.71875 0q0 1.890625 0.828125 2.828125q0.828125 0.9375 2.078125 0.9375q1.25 0 2.0625 -0.9375q0.828125 -0.953125 0.828125 -2.890625q0 -1.828125 -0.828125 -2.765625q-0.828125 -0.9375 -2.0625 -0.9375q-1.25 0 -2.078125 0.9375q-0.828125 0.9375 -0.828125 2.828125zm20.902779 1.3125l1.640625 0.21875q-0.265625 1.6875 -1.375 2.65625q-1.109375 0.953125 -2.734375 0.953125q-2.015625 0 -3.2500076 -1.3125q-1.21875 -1.328125 -1.21875 -3.796875q0 -1.59375 0.515625 -2.78125q0.53125 -1.203125 1.6093826 -1.796875q1.09375 -0.609375 2.359375 -0.609375q1.609375 0 2.625 0.8125q1.015625 0.8125 1.3125 2.3125l-1.625 0.25q-0.234375 -1.0 -0.828125 -1.5q-0.59375 -0.5 -1.421875 -0.5q-1.265625 0 -2.0625 0.90625q-0.7812576 0.90625 -0.7812576 2.859375q0 1.984375 0.7656326 2.890625q0.765625 0.890625 1.984375 0.890625q0.984375 0 1.640625 -0.59375q0.65625 -0.609375 0.84375 -1.859375zm2.265625 -1.3125q0 -2.734375 1.53125 -4.0625q1.265625 -1.09375 3.09375 -1.09375q2.03125 0 3.3125 1.34375q1.296875 1.328125 1.296875 3.671875q0 1.90625 -0.578125 3.0q-0.5625 1.078125 -1.65625 1.6875q-1.078125 0.59375 -2.375 0.59375q-2.0625 0 -3.34375 -1.328125q-1.28125 -1.328125 -1.28125 -3.8125zm1.71875 0q0 1.890625 0.828125 2.828125q0.828125 0.9375 2.078125 0.9375q1.25 0 2.0625 -0.9375q0.828125 -0.953125 0.828125 -2.890625q0 -1.828125 -0.828125 -2.765625q-0.828125 -0.9375 -2.0625 -0.9375q-1.25 0 -2.078125 0.9375q-0.828125 0.9375 -0.828125 2.828125zm15.719467 1.3125l1.640625 0.21875q-0.265625 1.6875 -1.375 2.65625q-1.109375 0.953125 -2.734375 0.953125q-2.015625 0 -3.25 -1.3125q-1.21875 -1.328125 -1.21875 -3.796875q0 -1.59375 0.515625 -2.78125q0.53125 -1.203125 1.609375 -1.796875q1.09375 -0.609375 2.359375 -0.609375q1.609375 0 2.625 0.8125q1.015625 0.8125 1.3125 2.3125l-1.625 0.25q-0.234375 -1.0 -0.828125 -1.5q-0.59375 -0.5 -1.421875 -0.5q-1.265625 0 -2.0625 0.90625q-0.78125 0.90625 -0.78125 2.859375q0 1.984375 0.765625 2.890625q0.765625 0.890625 1.984375 0.890625q0.984375 0 1.640625 -0.59375q0.65625 -0.609375 0.84375 -1.859375zm2.0 -6.25l8.0 0l0 1.390625l-3.171875 0l0 8.46875l-1.65625 0l0 -8.46875l-3.171875 0l0 -1.390625zm8.810333 4.9375q0 -2.734375 1.53125 -4.0625q1.265625 -1.09375 3.09375 -1.09375q2.03125 0 3.3125 1.34375q1.296875 1.328125 1.296875 3.671875q0 1.90625 -0.578125 3.0q-0.5625 1.078125 -1.65625 1.6875q-1.078125 0.59375 -2.375 0.59375q-2.0625 0 -3.34375 -1.328125q-1.28125 -1.328125 -1.28125 -3.8125zm1.71875 0q0 1.890625 0.828125 2.828125q0.828125 0.9375 2.078125 0.9375q1.25 0 2.0625 -0.9375q0.828125 -0.953125 0.828125 -2.890625q0 -1.828125 -0.828125 -2.765625q-0.828125 -0.9375 -2.0625 -0.9375q-1.25 0 -2.078125 0.9375q-0.828125 0.9375 -0.828125 2.828125zm17.047592 -4.9375l0 9.859375l-1.671875 0l0 -3.84375l-0.953125 0q-0.890625 0 -1.328125 0.234375q-0.421875 0.21875 -1.25 1.453125l-1.453125 2.15625l-2.078125 0l1.8125 -2.65625q0.8125 -1.21875 1.640625 -1.375q-1.4375 -0.1875 -2.125 -1.015625q-0.6875 -0.84375 -0.6875 -1.9375q0 -1.265625 0.90625 -2.0625q0.90625 -0.8125 2.609375 -0.8125l4.578125 0zm-1.671875 1.390625l-2.375 0q-1.484375 0 -1.921875 0.46875q-0.4375 0.453125 -0.4375 1.078125q0 0.875 0.640625 1.296875q0.640625 0.40625 2.25 0.40625l1.84375 0l0 -3.25zm4.0243073 -1.390625l1.671875 0l0 4.109375l4.625 0l0 -4.109375l1.671875 0l0 9.859375l-1.671875 0l0 -4.375l-4.625 0l0 4.375l-1.671875 0l0 -9.859375zm10.287216 0l1.671875 0l0 7.515625l4.625 -7.515625l1.8125 0l0 9.859375l-1.671875 0l0 -7.46875l-4.640625 7.46875l-1.796875 0l0 -9.859375zm10.421265 0l1.671875 0l0 7.515625l4.625 -7.515625l1.8125 0l0 9.859375l-1.671875 0l0 -7.46875l-4.640625 7.46875l-1.796875 0l0 -9.859375zm5.515625 -3.71875l1.140625 0q-0.140625 1.15625 -0.859375 1.78125q-0.703125 0.625 -1.875 0.625q-1.1875 0 -1.90625 -0.609375q-0.703125 -0.625 -0.84375 -1.796875l1.140625 0q0.140625 0.625 0.515625 0.9375q0.390625 0.3125 1.046875 0.3125q0.75 0 1.125 -0.296875q0.390625 -0.3125 0.515625 -0.953125z" fill-rule="nonzero"></path><path fill="#000000" d="m39.849422 63.947052q1.015625 0 2.0 0.53125q0.984375 0.515625 1.53125 1.5q0.546875 0.984375 0.546875 2.046875q0 1.6875 -1.203125 2.890625q-1.1875 1.203125 -2.875 1.203125q-1.703125 0 -2.90625 -1.203125q-1.1875 -1.203125 -1.1875 -2.890625q0 -1.0625 0.546875 -2.046875q0.546875 -0.984375 1.53125 -1.5q0.984375 -0.53125 2.015625 -0.53125z" fill-rule="nonzero"></path><path fill="#000000" d="m70.00849 63.525177l1.671875 0l0 1.875q0 1.203125 0.140625 1.75q0.140625 0.53125 0.6875 0.9375q0.546875 0.40625 1.375 0.40625q0.953125 0 2.453125 -0.5l0 -4.46875l1.671875 0l0 9.859375l-1.671875 0l0 -3.96875q-1.546875 0.484375 -2.875 0.484375q-1.125 0 -1.984375 -0.5625q-0.859375 -0.578125 -1.171875 -1.40625q-0.296875 -0.828125 -0.296875 -1.828125l0 -2.578125zm10.329208 0l1.671875 0l0 7.515625l4.625 -7.515625l1.8125 0l0 9.859375l-1.671875 0l0 -7.46875l-4.640625 7.46875l-1.796875 0l0 -9.859375zm16.858765 6.25l1.640625 0.21875q-0.265625 1.6875 -1.375 2.65625q-1.109375 0.953125 -2.734375 0.953125q-2.015625 0 -3.25 -1.3125q-1.21875 -1.328125 -1.21875 -3.796875q0 -1.59375 0.515625 -2.78125q0.53125 -1.203125 1.609375 -1.796875q1.09375 -0.609375 2.359375 -0.609375q1.609375 0 2.625 0.8125q1.015625 0.8125 1.3125 2.3125l-1.625 0.25q-0.234375 -1.0 -0.828125 -1.5q-0.59375 -0.5 -1.421875 -0.5q-1.265625 0 -2.0625 0.90625q-0.78125 0.90625 -0.78125 2.859375q0 1.984375 0.765625 2.890625q0.765625 0.890625 1.984375 0.890625q0.984375 0 1.640625 -0.59375q0.65625 -0.609375 0.84375 -1.859375zm3.703125 -6.25l7.765625 0l0 9.859375l-1.65625 0l0 -8.46875l-4.4375 0l0 4.90625q0 1.71875 -0.109375 2.265625q-0.109375 0.546875 -0.609375 0.953125q-0.5 0.40625 -1.453125 0.40625q-0.578125 0 -1.34375 -0.078125l0 -1.390625l0.734375 0q0.515625 0 0.734375 -0.09375q0.234375 -0.109375 0.296875 -0.34375q0.078125 -0.234375 0.078125 -1.515625l0 -6.5zm9.448349 4.9375q0 -2.734375 1.53125 -4.0625q1.265625 -1.09375 3.09375 -1.09375q2.03125 0 3.3125 1.34375q1.296875 1.328125 1.296875 3.671875q0 1.90625 -0.578125 3.0q-0.5625 1.078125 -1.65625 1.6875q-1.078125 0.59375 -2.375 0.59375q-2.0625 0 -3.34375 -1.328125q-1.28125 -1.328125 -1.28125 -3.8125zm1.71875 0q0 1.890625 0.828125 2.828125q0.828125 0.9375 2.078125 0.9375q1.25 0 2.0625 -0.9375q0.828125 -0.953125 0.828125 -2.890625q0 -1.828125 -0.828125 -2.765625q-0.828125 -0.9375 -2.0625 -0.9375q-1.25 0 -2.078125 0.9375q-0.828125 0.9375 -0.828125 2.828125zm20.902779 1.3125l1.640625 0.21875q-0.265625 1.6875 -1.375 2.65625q-1.109375 0.953125 -2.734375 0.953125q-2.015625 0 -3.2500076 -1.3125q-1.21875 -1.328125 -1.21875 -3.796875q0 -1.59375 0.515625 -2.78125q0.53125 -1.203125 1.6093826 -1.796875q1.09375 -0.609375 2.359375 -0.609375q1.609375 0 2.625 0.8125q1.015625 0.8125 1.3125 2.3125l-1.625 0.25q-0.234375 -1.0 -0.828125 -1.5q-0.59375 -0.5 -1.421875 -0.5q-1.265625 0 -2.0625 0.90625q-0.7812576 0.90625 -0.7812576 2.859375q0 1.984375 0.7656326 2.890625q0.765625 0.890625 1.984375 0.890625q0.984375 0 1.640625 -0.59375q0.65625 -0.609375 0.84375 -1.859375zm2.265625 -1.3125q0 -2.734375 1.53125 -4.0625q1.265625 -1.09375 3.09375 -1.09375q2.03125 0 3.3125 1.34375q1.296875 1.328125 1.296875 3.671875q0 1.90625 -0.578125 3.0q-0.5625 1.078125 -1.65625 1.6875q-1.078125 0.59375 -2.375 0.59375q-2.0625 0 -3.34375 -1.328125q-1.28125 -1.328125 -1.28125 -3.8125zm1.71875 0q0 1.890625 0.828125 2.828125q0.828125 0.9375 2.078125 0.9375q1.25 0 2.0625 -0.9375q0.828125 -0.953125 0.828125 -2.890625q0 -1.828125 -0.828125 -2.765625q-0.828125 -0.9375 -2.0625 -0.9375q-1.25 0 -2.078125 0.9375q-0.828125 0.9375 -0.828125 2.828125zm16.500717 -9.0l1.484375 0.015625q-0.109375 0.984375 -0.453125 1.375q-0.328125 0.390625 -0.875 0.515625q-0.53125 0.109375 -2.078125 0.109375q-2.078125 0 -2.828125 0.40625q-0.75 0.390625 -1.078125 1.265625q-0.328125 0.875 -0.375 2.25q0.640625 -0.9375 1.484375 -1.40625q0.84375 -0.46875 1.90625 -0.46875q1.9375 0 3.203125 1.34375q1.265625 1.328125 1.265625 3.59375q0 1.734375 -0.640625 2.84375q-0.640625 1.09375 -1.515625 1.703125q-0.875 0.59375 -2.390625 0.59375q-1.75 0 -2.71875 -0.796875q-0.96875 -0.796875 -1.5 -2.046875q-0.515625 -1.265625 -0.515625 -4.375q0 -3.90625 1.3125 -5.25q1.328125 -1.359375 4.078125 -1.359375q1.703125 0 1.9375 -0.046875q0.234375 -0.0625 0.296875 -0.265625zm-0.078125 8.953125q0 -1.53125 -0.734375 -2.515625q-0.71875 -0.984375 -2.046875 -0.984375q-1.390625 0 -2.140625 1.046875q-0.75 1.03125 -0.75 2.765625q0 1.71875 0.828125 2.625q0.828125 0.90625 2.046875 0.90625q1.25 0 2.015625 -1.046875q0.78125 -1.0625 0.78125 -2.796875zm12.919815 -4.890625l1.671875 0l0 9.859375l-1.671875 0l0 -9.859375zm-9.328125 0l1.65625 0l0 3.859375l2.125 0q2.0625 0 3.171875 0.8125q1.125 0.796875 1.125 2.203125q0 1.234375 -0.9375 2.109375q-0.921875 0.875 -2.96875 0.875l-4.171875 0l0 -9.859375zm1.65625 8.484375l1.765625 0q1.578125 0 2.25 -0.390625q0.6875 -0.390625 0.6875 -1.21875q0 -0.640625 -0.5 -1.140625q-0.5 -0.5 -2.21875 -0.5l-1.984375 0l0 3.25zm10.81543 -8.484375l8.0 0l0 1.390625l-3.171875 0l0 8.46875l-1.65625 0l0 -8.46875l-3.171875 0l0 -1.390625zm9.435333 0l1.671875 0l0 7.515625l4.625 -7.515625l1.8125 0l0 9.859375l-1.671875 0l0 -7.46875l-4.640625 7.46875l-1.796875 0l0 -9.859375zm10.421265 0l1.671875 0l0 7.515625l4.625 -7.515625l1.8125 0l0 9.859375l-1.671875 0l0 -7.46875l-4.640625 7.46875l-1.796875 0l0 -9.859375zm5.515625 -3.71875l1.140625 0q-0.140625 1.15625 -0.859375 1.78125q-0.703125 0.625 -1.875 0.625q-1.1875 0 -1.90625 -0.609375q-0.703125 -0.625 -0.84375 -1.796875l1.140625 0q0.140625 0.625 0.515625 0.9375q0.390625 0.3125 1.046875 0.3125q0.75 0 1.125 -0.296875q0.390625 -0.3125 0.515625 -0.953125z" fill-rule="nonzero"></path><path fill="#000000" d="m39.849422 85.94705q1.015625 0 2.0 0.53125q0.984375 0.515625 1.53125 1.5q0.546875 0.984375 0.546875 2.046875q0 1.6875 -1.203125 2.890625q-1.1875 1.203125 -2.875 1.203125q-1.703125 0 -2.90625 -1.203125q-1.1875 -1.203125 -1.1875 -2.890625q0 -1.0625 0.546875 -2.046875q0.546875 -0.984375 1.53125 -1.5q0.984375 -0.53125 2.015625 -0.53125z" fill-rule="nonzero"></path><path fill="#000000" d="m70.00849 85.52518l1.671875 0l0 1.875q0 1.203125 0.140625 1.75q0.140625 0.53125 0.6875 0.9375q0.546875 0.40625 1.375 0.40625q0.953125 0 2.453125 -0.5l0 -4.46875l1.671875 0l0 9.859375l-1.671875 0l0 -3.96875q-1.546875 0.484375 -2.875 0.484375q-1.125 0 -1.984375 -0.5625q-0.859375 -0.578125 -1.171875 -1.40625q-0.296875 -0.828125 -0.296875 -1.828125l0 -2.578125zm10.329208 0l1.671875 0l0 7.515625l4.625 -7.515625l1.8125 0l0 9.859375l-1.671875 0l0 -7.46875l-4.640625 7.46875l-1.796875 0l0 -9.859375zm16.858765 6.25l1.640625 0.21875q-0.265625 1.6875 -1.375 2.65625q-1.109375 0.953125 -2.734375 0.953125q-2.015625 0 -3.25 -1.3125q-1.21875 -1.328125 -1.21875 -3.796875q0 -1.59375 0.515625 -2.78125q0.53125 -1.203125 1.609375 -1.796875q1.09375 -0.609375 2.359375 -0.609375q1.609375 0 2.625 0.8125q1.015625 0.8125 1.3125 2.3125l-1.625 0.25q-0.234375 -1.0 -0.828125 -1.5q-0.59375 -0.5 -1.421875 -0.5q-1.265625 0 -2.0625 0.90625q-0.78125 0.90625 -0.78125 2.859375q0 1.984375 0.765625 2.890625q0.765625 0.890625 1.984375 0.890625q0.984375 0 1.640625 -0.59375q0.65625 -0.609375 0.84375 -1.859375zm3.703125 -6.25l7.765625 0l0 9.859375l-1.65625 0l0 -8.46875l-4.4375 0l0 4.90625q0 1.71875 -0.109375 2.265625q-0.109375 0.546875 -0.609375 0.953125q-0.5 0.40625 -1.453125 0.40625q-0.578125 0 -1.34375 -0.078125l0 -1.390625l0.734375 0q0.515625 0 0.734375 -0.09375q0.234375 -0.109375 0.296875 -0.34375q0.078125 -0.234375 0.078125 -1.515625l0 -6.5zm9.448349 4.9375q0 -2.734375 1.53125 -4.0625q1.265625 -1.09375 3.09375 -1.09375q2.03125 0 3.3125 1.34375q1.296875 1.328125 1.296875 3.671875q0 1.90625 -0.578125 3.0q-0.5625 1.078125 -1.65625 1.6875q-1.078125 0.59375 -2.375 0.59375q-2.0625 0 -3.34375 -1.328125q-1.28125 -1.328125 -1.28125 -3.8125zm1.71875 0q0 1.890625 0.828125 2.828125q0.828125 0.9375 2.078125 0.9375q1.25 0 2.0625 -0.9375q0.828125 -0.953125 0.828125 -2.890625q0 -1.828125 -0.828125 -2.765625q-0.828125 -0.9375 -2.0625 -0.9375q-1.25 0 -2.078125 0.9375q-0.828125 0.9375 -0.828125 2.828125zm14.480896 -4.9375l3.8437576 0q1.421875 0 2.109375 0.25q0.6875 0.234375 1.1875 0.859375q0.5 0.625 0.5 1.515625q0 0.703125 -0.296875 1.234375q-0.28125 0.515625 -0.875 0.875q0.703125 0.21875 1.15625 0.859375q0.46875 0.640625 0.46875 1.515625q-0.09375 1.390625 -1.015625 2.078125q-0.90625 0.671875 -2.640625 0.671875l-4.4375076 0l0 -9.859375zm1.6718826 4.15625l1.78125 0q1.0625 0 1.453125 -0.109375q0.40625 -0.109375 0.71875 -0.453125q0.3125 -0.34375 0.3125 -0.8125q0 -0.78125 -0.546875 -1.078125q-0.546875 -0.3125 -1.890625 -0.3125l-1.828125 0l0 2.765625zm0 4.328125l2.1875 0q1.421875 0 1.953125 -0.328125q0.53125 -0.328125 0.5625 -1.140625q0 -0.46875 -0.3125 -0.875q-0.3125 -0.40625 -0.796875 -0.5q-0.484375 -0.109375 -1.578125 -0.109375l-2.015625 0l0 2.953125zm7.114258 1.375l3.59375 -5.125l-3.328125 -4.734375l2.09375 0l1.515625 2.3125q0.421875 0.65625 0.671875 1.109375q0.421875 -0.609375 0.765625 -1.09375l1.65625 -2.328125l1.984375 0l-3.390625 4.640625l3.65625 5.21875l-2.046875 0l-2.03125 -3.0625l-0.53125 -0.828125l-2.59375 3.890625l-2.015625 0zm9.8125 -4.921875q0 -2.734375 1.53125 -4.0625q1.265625 -1.09375 3.09375 -1.09375q2.03125 0 3.3125 1.34375q1.296875 1.328125 1.296875 3.671875q0 1.90625 -0.578125 3.0q-0.5625 1.078125 -1.65625 1.6875q-1.078125 0.59375 -2.375 0.59375q-2.0625 0 -3.34375 -1.328125q-1.28125 -1.328125 -1.28125 -3.8125zm1.71875 0q0 1.890625 0.828125 2.828125q0.828125 0.9375 2.078125 0.9375q1.25 0 2.0625 -0.9375q0.828125 -0.953125 0.828125 -2.890625q0 -1.828125 -0.828125 -2.765625q-0.828125 -0.9375 -2.0625 -0.9375q-1.25 0 -2.078125 0.9375q-0.828125 0.9375 -0.828125 2.828125zm10.594467 -4.9375l6.875 0l0 8.484375l1.0625 0l0 4.171875l-1.375 0l0 -2.796875l-7.75 0l0 2.796875l-1.375 0l0 -4.171875l0.875 0q1.765625 -2.390625 1.6875 -8.484375zm1.40625 1.390625q-0.1875 4.796875 -1.484375 7.09375l5.296875 0l0 -7.09375l-3.8125 0zm8.182724 -1.390625l1.671875 0l0 4.109375l4.625 0l0 -4.109375l1.671875 0l0 9.859375l-1.671875 0l0 -4.375l-4.625 0l0 4.375l-1.671875 0l0 -9.859375zm19.662216 0l1.671875 0l0 9.859375l-1.671875 0l0 -9.859375zm-9.328125 0l1.65625 0l0 3.859375l2.125 0q2.0625 0 3.171875 0.8125q1.125 0.796875 1.125 2.203125q0 1.234375 -0.9375 2.109375q-0.921875 0.875 -2.96875 0.875l-4.171875 0l0 -9.859375zm1.65625 8.484375l1.765625 0q1.578125 0 2.25 -0.390625q0.6875 -0.390625 0.6875 -1.21875q0 -0.640625 -0.5 -1.140625q-0.5 -0.5 -2.21875 -0.5l-1.984375 0l0 3.25zm10.59668 1.375l3.59375 -5.125l-3.328125 -4.734375l2.09375 0l1.515625 2.3125q0.421875 0.65625 0.671875 1.109375q0.421875 -0.609375 0.765625 -1.09375l1.65625 -2.328125l1.984375 0l-3.390625 4.640625l3.65625 5.21875l-2.046875 0l-2.03125 -3.0625l-0.53125 -0.828125l-2.59375 3.890625l-2.015625 0z" fill-rule="nonzero"></path><path fill="#000000" d="m70.63349 107.52518l7.765625 0l0 9.859375l-1.671875 0l0 -8.46875l-4.421875 0l0 8.46875l-1.671875 0l0 -9.859375zm16.836807 6.6875l1.71875 0.21875q-0.40625 1.5 -1.515625 2.34375q-1.09375 0.828125 -2.8125 0.828125q-2.15625 0 -3.421875 -1.328125q-1.265625 -1.328125 -1.265625 -3.734375q0 -2.484375 1.265625 -3.859375q1.28125 -1.375 3.328125 -1.375q1.984375 0 3.234375 1.34375q1.25 1.34375 1.25 3.796875q0 0.140625 -0.015625 0.4375l-7.34375 0q0.09375 1.625 0.921875 2.484375q0.828125 0.859375 2.0625 0.859375q0.90625 0 1.546875 -0.46875q0.65625 -0.484375 1.046875 -1.546875zm-5.484375 -2.703125l5.5 0q-0.109375 -1.234375 -0.625 -1.859375q-0.796875 -0.96875 -2.078125 -0.96875q-1.140625 0 -1.9375 0.78125q-0.78125 0.765625 -0.859375 2.046875zm9.110092 9.65625l0 -13.640625l1.53125 0l0 1.28125q0.53125 -0.75 1.203125 -1.125q0.6875 -0.375 1.640625 -0.375q1.265625 0 2.234375 0.65625q0.96875 0.640625 1.453125 1.828125q0.5 1.1875 0.5 2.59375q0 1.515625 -0.546875 2.734375q-0.546875 1.203125 -1.578125 1.84375q-1.03125 0.640625 -2.171875 0.640625q-0.84375 0 -1.515625 -0.34375q-0.65625 -0.359375 -1.078125 -0.890625l0 4.796875l-1.671875 0zm1.515625 -8.65625q0 1.90625 0.765625 2.8125q0.78125 0.90625 1.875 0.90625q1.109375 0 1.890625 -0.9375q0.796875 -0.9375 0.796875 -2.921875q0 -1.875 -0.78125 -2.8125q-0.765625 -0.9375 -1.84375 -0.9375q-1.0625 0 -1.890625 1.0q-0.8125 1.0 -0.8125 2.890625zm15.610092 1.703125l1.71875 0.21875q-0.40625 1.5 -1.515625 2.34375q-1.09375 0.828125 -2.8125 0.828125q-2.15625 0 -3.421875 -1.328125q-1.265625 -1.328125 -1.265625 -3.734375q0 -2.484375 1.265625 -3.859375q1.28125 -1.375 3.328125 -1.375q1.984375 0 3.234375 1.34375q1.25 1.34375 1.25 3.796875q0 0.140625 -0.015625 0.4375l-7.34375 0q0.09375 1.625 0.921875 2.484375q0.828125 0.859375 2.0625 0.859375q0.90625 0 1.546875 -0.46875q0.65625 -0.484375 1.046875 -1.546875zm-5.484375 -2.703125l5.5 0q-0.109375 -1.234375 -0.625 -1.859375q-0.796875 -0.96875 -2.078125 -0.96875q-1.140625 0 -1.9375 0.78125q-0.78125 0.765625 -0.859375 2.046875zm9.156967 -3.984375l2.59375 0l2.59375 7.890625l2.875 -7.890625l2.40625 0l0 9.859375l-1.671875 0l0 -7.9375l-2.90625 7.9375l-1.5 0l-2.75 -8.3125l0 8.3125l-1.640625 0l0 -9.859375zm19.529305 6.6875l1.71875 0.21875q-0.40625 1.5 -1.515625 2.34375q-1.09375 0.828125 -2.8125 0.828125q-2.1562576 0 -3.4218826 -1.328125q-1.265625 -1.328125 -1.265625 -3.734375q0 -2.484375 1.265625 -3.859375q1.28125 -1.375 3.3281326 -1.375q1.984375 0 3.234375 1.34375q1.25 1.34375 1.25 3.796875q0 0.140625 -0.015625 0.4375l-7.3437576 0q0.09375 1.625 0.921875 2.484375q0.828125 0.859375 2.0625076 0.859375q0.90625 0 1.546875 -0.46875q0.65625 -0.484375 1.046875 -1.546875zm-5.4843826 -2.703125l5.5000076 0q-0.109375 -1.234375 -0.625 -1.859375q-0.796875 -0.96875 -2.078125 -0.96875q-1.1406326 0 -1.9375076 0.78125q-0.78125 0.765625 -0.859375 2.046875zm9.125725 -3.984375l1.671875 0l0 4.109375l4.625 0l0 -4.109375l1.671875 0l0 9.859375l-1.671875 0l0 -4.375l-4.625 0l0 4.375l-1.671875 0l0 -9.859375zm10.302841 0l1.671875 0l0 4.109375l4.625 0l0 -4.109375l1.671875 0l0 9.859375l-1.671875 0l0 -4.375l-4.625 0l0 4.375l-1.671875 0l0 -9.859375zm19.662216 0l1.671875 0l0 9.859375l-1.671875 0l0 -9.859375zm-9.328125 0l1.65625 0l0 3.859375l2.125 0q2.0625 0 3.171875 0.8125q1.125 0.796875 1.125 2.203125q0 1.234375 -0.9375 2.109375q-0.921875 0.875 -2.96875 0.875l-4.171875 0l0 -9.859375zm1.65625 8.484375l1.765625 0q1.578125 0 2.25 -0.390625q0.6875 -0.390625 0.6875 -1.21875q0 -0.640625 -0.5 -1.140625q-0.5 -0.5 -2.21875 -0.5l-1.984375 0l0 3.25zm10.59668 1.375l3.59375 -5.125l-3.328125 -4.734375l2.09375 0l1.515625 2.3125q0.421875 0.65625 0.671875 1.109375q0.421875 -0.609375 0.765625 -1.09375l1.65625 -2.328125l1.984375 0l-3.390625 4.640625l3.65625 5.21875l-2.046875 0l-2.03125 -3.0625l-0.53125 -0.828125l-2.59375 3.890625l-2.015625 0z" fill-rule="nonzero"></path><path fill="#000000" d="m39.849422 129.94705q1.015625 0 2.0 0.53125q0.984375 0.515625 1.53125 1.5q0.546875 0.984375 0.546875 2.046875q0 1.6875 -1.203125 2.890625q-1.1875 1.203125 -2.875 1.203125q-1.703125 0 -2.90625 -1.203125q-1.1875 -1.203125 -1.1875 -2.890625q0 -1.0625 0.546875 -2.046875q0.546875 -0.984375 1.53125 -1.5q0.984375 -0.53125 2.015625 -0.53125z" fill-rule="nonzero"></path><path fill="#000000" d="m70.00849 129.52518l1.671875 0l0 1.875q0 1.203125 0.140625 1.75q0.140625 0.53125 0.6875 0.9375q0.546875 0.40625 1.375 0.40625q0.953125 0 2.453125 -0.5l0 -4.46875l1.671875 0l0 9.859375l-1.671875 0l0 -3.96875q-1.546875 0.484375 -2.875 0.484375q-1.125 0 -1.984375 -0.5625q-0.859375 -0.578125 -1.171875 -1.40625q-0.296875 -0.828125 -0.296875 -1.828125l0 -2.578125zm10.329208 0l1.671875 0l0 7.515625l4.625 -7.515625l1.8125 0l0 9.859375l-1.671875 0l0 -7.46875l-4.640625 7.46875l-1.796875 0l0 -9.859375zm16.858765 6.25l1.640625 0.21875q-0.265625 1.6875 -1.375 2.65625q-1.109375 0.953125 -2.734375 0.953125q-2.015625 0 -3.25 -1.3125q-1.21875 -1.328125 -1.21875 -3.796875q0 -1.59375 0.515625 -2.78125q0.53125 -1.203125 1.609375 -1.796875q1.09375 -0.609375 2.359375 -0.609375q1.609375 0 2.625 0.8125q1.015625 0.8125 1.3125 2.3125l-1.625 0.25q-0.234375 -1.0 -0.828125 -1.5q-0.59375 -0.5 -1.421875 -0.5q-1.265625 0 -2.0625 0.90625q-0.78125 0.90625 -0.78125 2.859375q0 1.984375 0.765625 2.890625q0.765625 0.890625 1.984375 0.890625q0.984375 0 1.640625 -0.59375q0.65625 -0.609375 0.84375 -1.859375zm3.703125 -6.25l7.765625 0l0 9.859375l-1.65625 0l0 -8.46875l-4.4375 0l0 4.90625q0 1.71875 -0.109375 2.265625q-0.109375 0.546875 -0.609375 0.953125q-0.5 0.40625 -1.453125 0.40625q-0.578125 0 -1.34375 -0.078125l0 -1.390625l0.734375 0q0.515625 0 0.734375 -0.09375q0.234375 -0.109375 0.296875 -0.34375q0.078125 -0.234375 0.078125 -1.515625l0 -6.5zm9.448349 4.9375q0 -2.734375 1.53125 -4.0625q1.265625 -1.09375 3.09375 -1.09375q2.03125 0 3.3125 1.34375q1.296875 1.328125 1.296875 3.671875q0 1.90625 -0.578125 3.0q-0.5625 1.078125 -1.65625 1.6875q-1.078125 0.59375 -2.375 0.59375q-2.0625 0 -3.34375 -1.328125q-1.28125 -1.328125 -1.28125 -3.8125zm1.71875 0q0 1.890625 0.828125 2.828125q0.828125 0.9375 2.078125 0.9375q1.25 0 2.0625 -0.9375q0.828125 -0.953125 0.828125 -2.890625q0 -1.828125 -0.828125 -2.765625q-0.828125 -0.9375 -2.0625 -0.9375q-1.25 0 -2.078125 0.9375q-0.828125 0.9375 -0.828125 2.828125zm14.480896 -4.9375l3.8437576 0q1.421875 0 2.109375 0.25q0.6875 0.234375 1.1875 0.859375q0.5 0.625 0.5 1.515625q0 0.703125 -0.296875 1.234375q-0.28125 0.515625 -0.875 0.875q0.703125 0.21875 1.15625 0.859375q0.46875 0.640625 0.46875 1.515625q-0.09375 1.390625 -1.015625 2.078125q-0.90625 0.671875 -2.640625 0.671875l-4.4375076 0l0 -9.859375zm1.6718826 4.15625l1.78125 0q1.0625 0 1.453125 -0.109375q0.40625 -0.109375 0.71875 -0.453125q0.3125 -0.34375 0.3125 -0.8125q0 -0.78125 -0.546875 -1.078125q-0.546875 -0.3125 -1.890625 -0.3125l-1.828125 0l0 2.765625zm0 4.328125l2.1875 0q1.421875 0 1.953125 -0.328125q0.53125 -0.328125 0.5625 -1.140625q0 -0.46875 -0.3125 -0.875q-0.3125 -0.40625 -0.796875 -0.5q-0.484375 -0.109375 -1.578125 -0.109375l-2.015625 0l0 2.953125zm17.598633 -8.484375l1.671875 0l0 9.859375l-1.671875 0l0 -9.859375zm-9.328125 0l1.65625 0l0 3.859375l2.125 0q2.0625 0 3.171875 0.8125q1.125 0.796875 1.125 2.203125q0 1.234375 -0.9375 2.109375q-0.921875 0.875 -2.96875 0.875l-4.171875 0l0 -9.859375zm1.65625 8.484375l1.765625 0q1.578125 0 2.25 -0.390625q0.6875 -0.390625 0.6875 -1.21875q0 -0.640625 -0.5 -1.140625q-0.5 -0.5 -2.21875 -0.5l-1.984375 0l0 3.25zm10.59668 1.375l3.59375 -5.125l-3.328125 -4.734375l2.09375 0l1.515625 2.3125q0.421875 0.65625 0.671875 1.109375q0.421875 -0.609375 0.765625 -1.09375l1.65625 -2.328125l1.984375 0l-3.390625 4.640625l3.65625 5.21875l-2.046875 0l-2.03125 -3.0625l-0.53125 -0.828125l-2.59375 3.890625l-2.015625 0zm9.8125 -4.921875q0 -2.734375 1.53125 -4.0625q1.265625 -1.09375 3.09375 -1.09375q2.03125 0 3.3125 1.34375q1.296875 1.328125 1.296875 3.671875q0 1.90625 -0.578125 3.0q-0.5625 1.078125 -1.65625 1.6875q-1.078125 0.59375 -2.375 0.59375q-2.0625 0 -3.34375 -1.328125q-1.28125 -1.328125 -1.28125 -3.8125zm1.71875 0q0 1.890625 0.828125 2.828125q0.828125 0.9375 2.078125 0.9375q1.25 0 2.0625 -0.9375q0.828125 -0.953125 0.828125 -2.890625q0 -1.828125 -0.828125 -2.765625q-0.828125 -0.9375 -2.0625 -0.9375q-1.25 0 -2.078125 0.9375q-0.828125 0.9375 -0.828125 2.828125zm10.594467 -4.9375l6.875 0l0 8.484375l1.0625 0l0 4.171875l-1.375 0l0 -2.796875l-7.75 0l0 2.796875l-1.375 0l0 -4.171875l0.875 0q1.765625 -2.390625 1.6875 -8.484375zm1.40625 1.390625q-0.1875 4.796875 -1.484375 7.09375l5.296875 0l0 -7.09375l-3.8125 0zm8.182724 -1.390625l1.671875 0l0 4.109375l4.625 0l0 -4.109375l1.671875 0l0 9.859375l-1.671875 0l0 -4.375l-4.625 0l0 4.375l-1.671875 0l0 -9.859375zm19.662216 0l1.671875 0l0 9.859375l-1.671875 0l0 -9.859375zm-9.328125 0l1.65625 0l0 3.859375l2.125 0q2.0625 0 3.171875 0.8125q1.125 0.796875 1.125 2.203125q0 1.234375 -0.9375 2.109375q-0.921875 0.875 -2.96875 0.875l-4.171875 0l0 -9.859375zm1.65625 8.484375l1.765625 0q1.578125 0 2.25 -0.390625q0.6875 -0.390625 0.6875 -1.21875q0 -0.640625 -0.5 -1.140625q-0.5 -0.5 -2.21875 -0.5l-1.984375 0l0 3.25zm10.59668 1.375l3.59375 -5.125l-3.328125 -4.734375l2.09375 0l1.515625 2.3125q0.421875 0.65625 0.671875 1.109375q0.421875 -0.609375 0.765625 -1.09375l1.65625 -2.328125l1.984375 0l-3.390625 4.640625l3.65625 5.21875l-2.046875 0l-2.03125 -3.0625l-0.53125 -0.828125l-2.59375 3.890625l-2.015625 0z" fill-rule="nonzero"></path><path fill="#000000" d="m70.63349 151.52518l3.84375 0q1.421875 0 2.109375 0.25q0.6875 0.234375 1.1875 0.859375q0.5 0.625 0.5 1.515625q0 0.703125 -0.296875 1.234375q-0.28125 0.515625 -0.875 0.875q0.703125 0.21875 1.15625 0.859375q0.46875 0.640625 0.46875 1.515625q-0.09375 1.390625 -1.015625 2.078125q-0.90625 0.671875 -2.640625 0.671875l-4.4375 0l0 -9.859375zm1.671875 4.15625l1.78125 0q1.0625 0 1.453125 -0.109375q0.40625 -0.109375 0.71875 -0.453125q0.3125 -0.34375 0.3125 -0.8125q0 -0.78125 -0.546875 -1.078125q-0.546875 -0.3125 -1.890625 -0.3125l-1.828125 0l0 2.765625zm0 4.328125l2.1875 0q1.421875 0 1.953125 -0.328125q0.53125 -0.328125 0.5625 -1.140625q0 -0.46875 -0.3125 -0.875q-0.3125 -0.40625 -0.796875 -0.5q-0.484375 -0.109375 -1.578125 -0.109375l-2.015625 0l0 2.953125zm7.598633 -3.546875q0 -2.734375 1.53125 -4.0625q1.265625 -1.09375 3.09375 -1.09375q2.03125 0 3.3125 1.34375q1.296875 1.328125 1.296875 3.671875q0 1.90625 -0.578125 3.0q-0.5625 1.078125 -1.65625 1.6875q-1.078125 0.59375 -2.375 0.59375q-2.0625 0 -3.34375 -1.328125q-1.28125 -1.328125 -1.28125 -3.8125zm1.71875 0q0 1.890625 0.828125 2.828125q0.828125 0.9375 2.078125 0.9375q1.25 0 2.0625 -0.9375q0.828125 -0.953125 0.828125 -2.890625q0 -1.828125 -0.828125 -2.765625q-0.828125 -0.9375 -2.0625 -0.9375q-1.25 0 -2.078125 0.9375q-0.828125 0.9375 -0.828125 2.828125zm11.469467 0.46875l0 -1.3125q1.046875 0 1.4375 -0.078125q0.390625 -0.078125 0.734375 -0.4375q0.34375 -0.375 0.34375 -0.9375q0 -0.671875 -0.453125 -1.078125q-0.453125 -0.40625 -1.171875 -0.40625q-1.40625 0 -1.96875 1.65625l-1.59375 -0.25q0.75 -2.78125 3.578125 -2.78125q1.578125 0 2.46875 0.875q0.90625 0.859375 0.90625 2.046875q0 1.203125 -1.171875 1.921875q0.75 0.40625 1.109375 1.03125q0.375 0.609375 0.375 1.453125q0 1.328125 -0.96875 2.15625q-0.953125 0.8125 -2.6875 0.8125q-3.375 0 -3.90625 -3.0l1.5625 -0.328125q0.21875 0.953125 0.859375 1.46875q0.65625 0.515625 1.5 0.515625q0.84375 0 1.40625 -0.46875q0.5625 -0.484375 0.5625 -1.234375q0 -0.5625 -0.359375 -0.984375q-0.34375 -0.4375 -0.75 -0.546875q-0.390625 -0.109375 -1.4375 -0.109375q-0.078125 0 -0.375 0.015625zm7.6788177 -5.40625l6.875 0l0 8.484375l1.0625 0l0 4.171875l-1.375 0l0 -2.796875l-7.75 0l0 2.796875l-1.375 0l0 -4.171875l0.875 0q1.765625 -2.390625 1.6875 -8.484375zm1.40625 1.390625q-0.1875 4.796875 -1.484375 7.09375l5.296875 0l0 -7.09375l-3.8125 0zm14.917099 5.296875l1.71875 0.21875q-0.40625 1.5 -1.515625 2.34375q-1.09375 0.828125 -2.8125 0.828125q-2.15625 0 -3.421875 -1.328125q-1.265625 -1.328125 -1.265625 -3.734375q0 -2.484375 1.265625 -3.859375q1.28125 -1.375 3.328125 -1.375q1.984375 0 3.234375 1.34375q1.25 1.34375 1.25 3.796875q0 0.140625 -0.015625 0.4375l-7.34375 0q0.09375 1.625 0.921875 2.484375q0.828125 0.859375 2.0625 0.859375q0.90625 0 1.546875 -0.46875q0.65625 -0.484375 1.046875 -1.546875zm-5.484375 -2.703125l5.5 0q-0.109375 -1.234375 -0.625 -1.859375q-0.796875 -0.96875 -2.078125 -0.96875q-1.140625 0 -1.9375 0.78125q-0.78125 0.765625 -0.859375 2.046875zm9.110092 -3.984375l1.671875 0l0 7.515625l4.625 -7.515625l1.8125076 0l0 9.859375l-1.6718826 0l0 -7.46875l-4.640625 7.46875l-1.796875 0l0 -9.859375zm5.515625 -3.71875l1.140625 0q-0.140625 1.15625 -0.859375 1.78125q-0.703125 0.625 -1.875 0.625q-1.1875 0 -1.90625 -0.609375q-0.703125 -0.625 -0.84375 -1.796875l1.140625 0q0.140625 0.625 0.515625 0.9375q0.390625 0.3125 1.046875 0.3125q0.75 0 1.125 -0.296875q0.390625 -0.3125 0.515625 -0.953125zm11.343147 9.96875l1.640625 0.21875q-0.265625 1.6875 -1.375 2.65625q-1.109375 0.953125 -2.734375 0.953125q-2.015625 0 -3.25 -1.3125q-1.21875 -1.328125 -1.21875 -3.796875q0 -1.59375 0.515625 -2.78125q0.53125 -1.203125 1.609375 -1.796875q1.09375 -0.609375 2.359375 -0.609375q1.609375 0 2.625 0.8125q1.015625 0.8125 1.3125 2.3125l-1.625 0.25q-0.234375 -1.0 -0.828125 -1.5q-0.59375 -0.5 -1.421875 -0.5q-1.265625 0 -2.0625 0.90625q-0.78125 0.90625 -0.78125 2.859375q0 1.984375 0.765625 2.890625q0.765625 0.890625 1.984375 0.890625q0.984375 0 1.640625 -0.59375q0.65625 -0.609375 0.84375 -1.859375zm2.0 -6.25l8.0 0l0 1.390625l-3.171875 0l0 8.46875l-1.65625 0l0 -8.46875l-3.171875 0l0 -1.390625zm9.450958 0l3.84375 0q1.421875 0 2.109375 0.25q0.6875 0.234375 1.1875 0.859375q0.5 0.625 0.5 1.515625q0 0.703125 -0.296875 1.234375q-0.28125 0.515625 -0.875 0.875q0.703125 0.21875 1.15625 0.859375q0.46875 0.640625 0.46875 1.515625q-0.09375 1.390625 -1.015625 2.078125q-0.90625 0.671875 -2.640625 0.671875l-4.4375 0l0 -9.859375zm1.671875 4.15625l1.78125 0q1.0625 0 1.453125 -0.109375q0.40625 -0.109375 0.71875 -0.453125q0.3125 -0.34375 0.3125 -0.8125q0 -0.78125 -0.546875 -1.078125q-0.546875 -0.3125 -1.890625 -0.3125l-1.828125 0l0 2.765625zm0 4.328125l2.1875 0q1.421875 0 1.953125 -0.328125q0.53125 -0.328125 0.5625 -1.140625q0 -0.46875 -0.3125 -0.875q-0.3125 -0.40625 -0.796875 -0.5q-0.484375 -0.109375 -1.578125 -0.109375l-2.015625 0l0 2.953125zm8.223633 -8.484375l1.671875 0l0 7.515625l4.625 -7.515625l1.8125 0l0 9.859375l-1.671875 0l0 -7.46875l-4.640625 7.46875l-1.796875 0l0 -9.859375zm10.421265 0l1.671875 0l0 7.515625l4.625 -7.515625l1.8125 0l0 9.859375l-1.671875 0l0 -7.46875l-4.640625 7.46875l-1.796875 0l0 -9.859375zm5.515625 -3.71875l1.140625 0q-0.140625 1.15625 -0.859375 1.78125q-0.703125 0.625 -1.875 0.625q-1.1875 0 -1.90625 -0.609375q-0.703125 -0.625 -0.84375 -1.796875l1.140625 0q0.140625 0.625 0.515625 0.9375q0.390625 0.3125 1.046875 0.3125q0.75 0 1.125 -0.296875q0.390625 -0.3125 0.515625 -0.953125z" fill-rule="nonzero"></path><path fill="#cfe2f3" d="m270.8253 45.125225l0 0c0 -11.967857 9.701874 -21.669725 21.669739 -21.669725l98.5188 0c5.7471924 0 11.258972 2.2830544 15.322815 6.346916c4.0638733 4.06386 6.346924 9.57564 6.346924 15.322809l0 86.6763c0 11.96785 -9.701874 21.669724 -21.669739 21.669724l-98.5188 0c-11.967865 0 -21.669739 -9.701874 -21.669739 -21.669724z" fill-rule="nonzero"></path><path stroke="#000000" stroke-width="2.0" stroke-linejoin="round" stroke-linecap="butt" d="m270.8253 45.125225l0 0c0 -11.967857 9.701874 -21.669725 21.669739 -21.669725l98.5188 0c5.7471924 0 11.258972 2.2830544 15.322815 6.346916c4.0638733 4.06386 6.346924 9.57564 6.346924 15.322809l0 86.6763c0 11.96785 -9.701874 21.669724 -21.669739 21.669724l-98.5188 0c-11.967865 0 -21.669739 -9.701874 -21.669739 -21.669724z" fill-rule="nonzero"></path><path fill="#000000" d="m297.65228 59.78962l8.78125 0l0 1.59375l-6.984375 0l0 12.0l-1.796875 0l0 -13.59375zm16.602448 10.421875l1.71875 0.21875q-0.40625 1.5 -1.515625 2.34375q-1.09375 0.828125 -2.8125 0.828125q-2.15625 0 -3.421875 -1.328125q-1.265625 -1.328125 -1.265625 -3.734375q0 -2.484375 1.265625 -3.859375q1.28125 -1.375 3.328125 -1.375q1.984375 0 3.234375 1.34375q1.25 1.34375 1.25 3.796875q0 0.140625 -0.015625 0.4375l-7.34375 0q0.09375 1.625 0.921875 2.484375q0.828125 0.859375 2.0625 0.859375q0.90625 0 1.546875 -0.46875q0.65625 -0.484375 1.046875 -1.546875zm-5.484375 -2.703125l5.5 0q-0.109375 -1.234375 -0.625 -1.859375q-0.796875 -0.96875 -2.078125 -0.96875q-1.140625 0 -1.9375 0.78125q-0.78125 0.765625 -0.859375 2.046875zm9.125702 -3.984375l1.671875 0l0 4.109375l4.625 0l0 -4.109375l1.671875 0l0 9.859375l-1.671875 0l0 -4.375l-4.625 0l0 4.375l-1.671875 0l0 -9.859375zm17.037231 6.6875l1.71875 0.21875q-0.40625 1.5 -1.515625 2.34375q-1.09375 0.828125 -2.8125 0.828125q-2.15625 0 -3.421875 -1.328125q-1.265625 -1.328125 -1.265625 -3.734375q0 -2.484375 1.265625 -3.859375q1.28125 -1.375 3.328125 -1.375q1.984375 0 3.234375 1.34375q1.25 1.34375 1.25 3.796875q0 0.140625 -0.015625 0.4375l-7.34375 0q0.09375 1.625 0.921875 2.484375q0.828125 0.859375 2.0625 0.859375q0.90625 0 1.546875 -0.46875q0.65625 -0.484375 1.046875 -1.546875zm-5.484375 -2.703125l5.5 0q-0.109375 -1.234375 -0.625 -1.859375q-0.796875 -0.96875 -2.078125 -0.96875q-1.140625 0 -1.9375 0.78125q-0.78125 0.765625 -0.859375 2.046875zm9.110077 9.65625l0 -13.640625l1.53125 0l0 1.28125q0.53125 -0.75 1.203125 -1.125q0.6875 -0.375 1.640625 -0.375q1.265625 0 2.234375 0.65625q0.96875 0.640625 1.453125 1.828125q0.5 1.1875 0.5 2.59375q0 1.515625 -0.546875 2.734375q-0.546875 1.203125 -1.578125 1.84375q-1.03125 0.640625 -2.171875 0.640625q-0.84375 0 -1.515625 -0.34375q-0.65625 -0.359375 -1.078125 -0.890625l0 4.796875l-1.671875 0zm1.515625 -8.65625q0 1.90625 0.765625 2.8125q0.78125 0.90625 1.875 0.90625q1.109375 0 1.890625 -0.9375q0.796875 -0.9375 0.796875 -2.921875q0 -1.875 -0.78125 -2.8125q-0.765625 -0.9375 -1.84375 -0.9375q-1.0625 0 -1.890625 1.0q-0.8125 1.0 -0.8125 2.890625zm15.297607 3.65625q-0.9375 0.796875 -1.796875 1.125q-0.859375 0.3125 -1.84375 0.3125q-1.609375 0 -2.484375 -0.78125q-0.875 -0.796875 -0.875 -2.03125q0 -0.734375 0.328125 -1.328125q0.328125 -0.59375 0.859375 -0.953125q0.53125 -0.359375 1.203125 -0.546875q0.5 -0.140625 1.484375 -0.25q2.03125 -0.25 2.984375 -0.578125q0 -0.34375 0 -0.4375q0 -1.015625 -0.46875 -1.4375q-0.640625 -0.5625 -1.90625 -0.5625q-1.171875 0 -1.734375 0.40625q-0.5625 0.40625 -0.828125 1.46875l-1.640625 -0.234375q0.234375 -1.046875 0.734375 -1.6875q0.515625 -0.640625 1.46875 -0.984375q0.96875 -0.359375 2.25 -0.359375q1.265625 0 2.046875 0.296875q0.78125 0.296875 1.15625 0.75q0.375 0.453125 0.515625 1.140625q0.09375 0.421875 0.09375 1.53125l0 2.234375q0 2.328125 0.09375 2.953125q0.109375 0.609375 0.4375 1.171875l-1.75 0q-0.265625 -0.515625 -0.328125 -1.21875zm-0.140625 -3.71875q-0.90625 0.359375 -2.734375 0.625q-1.03125 0.140625 -1.453125 0.328125q-0.421875 0.1875 -0.65625 0.546875q-0.234375 0.359375 -0.234375 0.796875q0 0.671875 0.5 1.125q0.515625 0.4375 1.484375 0.4375q0.96875 0 1.71875 -0.421875q0.75 -0.4375 1.109375 -1.15625q0.265625 -0.578125 0.265625 -1.671875l0 -0.609375zm3.188202 -4.921875l8.0 0l0 1.390625l-3.171875 0l0 8.46875l-1.65625 0l0 -8.46875l-3.171875 0l0 -1.390625zm8.810333 4.9375q0 -2.734375 1.53125 -4.0625q1.265625 -1.09375 3.09375 -1.09375q2.03125 0 3.3125 1.34375q1.296875 1.328125 1.296875 3.671875q0 1.90625 -0.578125 3.0q-0.5625 1.078125 -1.65625 1.6875q-1.078125 0.59375 -2.375 0.59375q-2.0625 0 -3.34375 -1.328125q-1.28125 -1.328125 -1.28125 -3.8125zm1.71875 0q0 1.890625 0.828125 2.828125q0.828125 0.9375 2.078125 0.9375q1.25 0 2.0625 -0.9375q0.828125 -0.953125 0.828125 -2.890625q0 -1.828125 -0.828125 -2.765625q-0.828125 -0.9375 -2.0625 -0.9375q-1.25 0 -2.078125 0.9375q-0.828125 0.9375 -0.828125 2.828125zm9.281982 8.703125l0 -13.640625l1.53125 0l0 1.28125q0.53125 -0.75 1.203125 -1.125q0.6875 -0.375 1.640625 -0.375q1.265625 0 2.234375 0.65625q0.96875 0.640625 1.453125 1.828125q0.5 1.1875 0.5 2.59375q0 1.515625 -0.546875 2.734375q-0.546875 1.203125 -1.578125 1.84375q-1.03125 0.640625 -2.171875 0.640625q-0.84375 0 -1.515625 -0.34375q-0.65625 -0.359375 -1.078125 -0.890625l0 4.796875l-1.671875 0zm1.515625 -8.65625q0 1.90625 0.765625 2.8125q0.78125 0.90625 1.875 0.90625q1.109375 0 1.890625 -0.9375q0.796875 -0.9375 0.796875 -2.921875q0 -1.875 -0.78125 -2.8125q-0.765625 -0.9375 -1.84375 -0.9375q-1.0625 0 -1.890625 1.0q-0.8125 1.0 -0.8125 2.890625z" fill-rule="nonzero"></path><path fill="#000000" d="m302.8924 91.773994l1.640625 0.21875q-0.265625 1.6875 -1.375 2.65625q-1.109375 0.953125 -2.734375 0.953125q-2.015625 0 -3.25 -1.3125q-1.21875 -1.328125 -1.21875 -3.796875q0 -1.59375 0.515625 -2.78125q0.53125 -1.203125 1.609375 -1.796875q1.09375 -0.609375 2.359375 -0.609375q1.609375 0 2.625 0.8125q1.015625 0.8125 1.3125 2.3125l-1.625 0.25q-0.234375 -1.0 -0.828125 -1.5q-0.59375 -0.5 -1.421875 -0.5q-1.265625 0 -2.0625 0.90625q-0.78125 0.90625 -0.78125 2.859375q0 1.984375 0.765625 2.890625q0.765625 0.890625 1.984375 0.890625q0.984375 0 1.640625 -0.59375q0.65625 -0.609375 0.84375 -1.859375zm3.703125 -6.25l7.765625 0l0 9.859375l-1.65625 0l0 -8.46875l-4.4375 0l0 4.90625q0 1.71875 -0.109375 2.265625q-0.109375 0.546875 -0.609375 0.953125q-0.5 0.40625 -1.453125 0.40625q-0.578125 0 -1.34375 -0.078125l0 -1.390625l0.734375 0q0.515625 0 0.734375 -0.09375q0.234375 -0.109375 0.296875 -0.34375q0.078125 -0.234375 0.078125 -1.515625l0 -6.5zm9.995239 13.65625l-0.171875 -1.5625q0.546875 0.140625 0.953125 0.140625q0.546875 0 0.875 -0.1875q0.34375 -0.1875 0.5625 -0.515625q0.15625 -0.25 0.5 -1.25q0.046875 -0.140625 0.15625 -0.40625l-3.734375 -9.875l1.796875 0l2.046875 5.71875q0.40625 1.078125 0.71875 2.28125q0.28125 -1.15625 0.6875 -2.25l2.09375 -5.75l1.671875 0l-3.75 10.03125q-0.59375 1.625 -0.9375 2.234375q-0.4375 0.828125 -1.015625 1.203125q-0.578125 0.390625 -1.375 0.390625q-0.484375 0 -1.078125 -0.203125zm8.796875 -13.65625l1.671875 0l0 1.875q0 1.203125 0.140625 1.75q0.140625 0.53125 0.6875 0.9375q0.546875 0.40625 1.375 0.40625q0.953125 0 2.453125 -0.5l0 -4.46875l1.671875 0l0 9.859375l-1.671875 0l0 -3.96875q-1.546875 0.484375 -2.875 0.484375q-1.125 0 -1.984375 -0.5625q-0.859375 -0.578125 -1.171875 -1.40625q-0.296875 -0.828125 -0.296875 -1.828125l0 -2.578125zm16.766693 8.640625q-0.9375 0.796875 -1.796875 1.125q-0.859375 0.3125 -1.84375 0.3125q-1.609375 0 -2.484375 -0.78125q-0.875 -0.796875 -0.875 -2.03125q0 -0.734375 0.328125 -1.328125q0.328125 -0.59375 0.859375 -0.953125q0.53125 -0.359375 1.203125 -0.546875q0.5 -0.140625 1.484375 -0.25q2.03125 -0.25 2.984375 -0.578125q0 -0.34375 0 -0.4375q0 -1.015625 -0.46875 -1.4375q-0.640625 -0.5625 -1.90625 -0.5625q-1.171875 0 -1.734375 0.40625q-0.5625 0.40625 -0.828125 1.46875l-1.640625 -0.234375q0.234375 -1.046875 0.734375 -1.6875q0.515625 -0.640625 1.46875 -0.984375q0.96875 -0.359375 2.25 -0.359375q1.265625 0 2.046875 0.296875q0.78125 0.296875 1.15625 0.75q0.375 0.453125 0.515625 1.140625q0.09375 0.421875 0.09375 1.53125l0 2.234375q0 2.328125 0.09375 2.953125q0.109375 0.609375 0.4375 1.171875l-1.75 0q-0.265625 -0.515625 -0.328125 -1.21875zm-0.140625 -3.71875q-0.90625 0.359375 -2.734375 0.625q-1.03125 0.140625 -1.453125 0.328125q-0.421875 0.1875 -0.65625 0.546875q-0.234375 0.359375 -0.234375 0.796875q0 0.671875 0.5 1.125q0.515625 0.4375 1.484375 0.4375q0.96875 0 1.71875 -0.421875q0.75 -0.4375 1.109375 -1.15625q0.265625 -0.578125 0.265625 -1.671875l0 -0.609375zm4.0788574 -4.921875l1.671875 0l0 7.515625l4.625 -7.515625l1.8125 0l0 9.859375l-1.671875 0l0 -7.46875l-4.640625 7.46875l-1.796875 0l0 -9.859375zm5.515625 -3.71875l1.140625 0q-0.140625 1.15625 -0.859375 1.78125q-0.703125 0.625 -1.875 0.625q-1.1875 0 -1.90625 -0.609375q-0.703125 -0.625 -0.84375 -1.796875l1.140625 0q0.140625 0.625 0.515625 0.9375q0.390625 0.3125 1.046875 0.3125q0.75 0 1.125 -0.296875q0.390625 -0.3125 0.515625 -0.953125zm4.9212646 3.71875l1.671875 0l0 4.109375l4.625 0l0 -4.109375l1.671875 0l0 9.859375l-1.671875 0l0 -4.375l-4.625 0l0 4.375l-1.671875 0l0 -9.859375zm19.6622 0l1.671875 0l0 9.859375l-1.671875 0l0 -9.859375zm-9.328125 0l1.65625 0l0 3.859375l2.125 0q2.0625 0 3.171875 0.8125q1.125 0.796875 1.125 2.203125q0 1.234375 -0.9375 2.109375q-0.921875 0.875 -2.96875 0.875l-4.171875 0l0 -9.859375zm1.65625 8.484375l1.765625 0q1.578125 0 2.25 -0.390625q0.6875 -0.390625 0.6875 -1.21875q0 -0.640625 -0.5 -1.140625q-0.5 -0.5 -2.21875 -0.5l-1.984375 0l0 3.25zm10.59668 1.375l3.59375 -5.125l-3.328125 -4.734375l2.09375 0l1.515625 2.3125q0.421875 0.65625 0.671875 1.109375q0.421875 -0.609375 0.765625 -1.09375l1.65625 -2.328125l1.984375 0l-3.390625 4.640625l3.65625 5.21875l-2.046875 0l-2.03125 -3.0625l-0.53125 -0.828125l-2.59375 3.890625l-2.015625 0z" fill-rule="nonzero"></path><path fill="#000000" d="m303.82156 116.16462q-0.9375 0.796875 -1.796875 1.125q-0.859375 0.3125 -1.84375 0.3125q-1.609375 0 -2.484375 -0.78125q-0.875 -0.796875 -0.875 -2.03125q0 -0.734375 0.328125 -1.328125q0.328125 -0.59375 0.859375 -0.953125q0.53125 -0.359375 1.203125 -0.546875q0.5 -0.140625 1.484375 -0.25q2.03125 -0.25 2.984375 -0.578125q0 -0.34375 0 -0.4375q0 -1.015625 -0.46875 -1.4375q-0.640625 -0.5625 -1.90625 -0.5625q-1.171875 0 -1.734375 0.40625q-0.5625 0.40625 -0.828125 1.46875l-1.640625 -0.234375q0.234375 -1.046875 0.734375 -1.6875q0.515625 -0.640625 1.46875 -0.984375q0.96875 -0.359375 2.25 -0.359375q1.265625 0 2.046875 0.296875q0.78125 0.296875 1.15625 0.75q0.375 0.453125 0.515625 1.140625q0.09375 0.421875 0.09375 1.53125l0 2.234375q0 2.328125 0.09375 2.953125q0.109375 0.609375 0.4375 1.171875l-1.75 0q-0.265625 -0.515625 -0.328125 -1.21875zm-0.140625 -3.71875q-0.90625 0.359375 -2.734375 0.625q-1.03125 0.140625 -1.453125 0.328125q-0.421875 0.1875 -0.65625 0.546875q-0.234375 0.359375 -0.234375 0.796875q0 0.671875 0.5 1.125q0.515625 0.4375 1.484375 0.4375q0.96875 0 1.71875 -0.421875q0.75 -0.4375 1.109375 -1.15625q0.265625 -0.578125 0.265625 -1.671875l0 -0.609375zm4.0944824 -4.921875l3.84375 0q1.421875 0 2.109375 0.25q0.6875 0.234375 1.1875 0.859375q0.5 0.625 0.5 1.515625q0 0.703125 -0.296875 1.234375q-0.28125 0.515625 -0.875 0.875q0.703125 0.21875 1.15625 0.859375q0.46875 0.640625 0.46875 1.515625q-0.09375 1.390625 -1.015625 2.078125q-0.90625 0.671875 -2.640625 0.671875l-4.4375 0l0 -9.859375zm1.671875 4.15625l1.78125 0q1.0625 0 1.453125 -0.109375q0.40625 -0.109375 0.71875 -0.453125q0.3125 -0.34375 0.3125 -0.8125q0 -0.78125 -0.546875 -1.078125q-0.546875 -0.3125 -1.890625 -0.3125l-1.828125 0l0 2.765625zm0 4.328125l2.1875 0q1.421875 0 1.953125 -0.328125q0.53125 -0.328125 0.5625 -1.140625q0 -0.46875 -0.3125 -0.875q-0.3125 -0.40625 -0.796875 -0.5q-0.484375 -0.109375 -1.578125 -0.109375l-2.015625 0l0 2.953125zm7.333008 -8.484375l8.0 0l0 1.390625l-3.171875 0l0 8.46875l-1.65625 0l0 -8.46875l-3.171875 0l0 -1.390625zm8.810333 4.9375q0 -2.734375 1.53125 -4.0625q1.265625 -1.09375 3.09375 -1.09375q2.03125 0 3.3125 1.34375q1.296875 1.328125 1.296875 3.671875q0 1.90625 -0.578125 3.0q-0.5625 1.078125 -1.65625 1.6875q-1.078125 0.59375 -2.375 0.59375q-2.0625 0 -3.34375 -1.328125q-1.28125 -1.328125 -1.28125 -3.8125zm1.71875 0q0 1.890625 0.828125 2.828125q0.828125 0.9375 2.078125 0.9375q1.25 0 2.0625 -0.9375q0.828125 -0.953125 0.828125 -2.890625q0 -1.828125 -0.828125 -2.765625q-0.828125 -0.9375 -2.0625 -0.9375q-1.25 0 -2.078125 0.9375q-0.828125 0.9375 -0.828125 2.828125zm9.328827 -4.9375l2.59375 0l2.59375 7.890625l2.875 -7.890625l2.40625 0l0 9.859375l-1.671875 0l0 -7.9375l-2.90625 7.9375l-1.5 0l-2.75 -8.3125l0 8.3125l-1.640625 0l0 -9.859375zm19.216797 8.640625q-0.9375 0.796875 -1.796875 1.125q-0.859375 0.3125 -1.84375 0.3125q-1.609375 0 -2.484375 -0.78125q-0.875 -0.796875 -0.875 -2.03125q0 -0.734375 0.328125 -1.328125q0.328125 -0.59375 0.859375 -0.953125q0.53125 -0.359375 1.203125 -0.546875q0.5 -0.140625 1.484375 -0.25q2.03125 -0.25 2.984375 -0.578125q0 -0.34375 0 -0.4375q0 -1.015625 -0.46875 -1.4375q-0.640625 -0.5625 -1.90625 -0.5625q-1.171875 0 -1.734375 0.40625q-0.5625 0.40625 -0.828125 1.46875l-1.640625 -0.234375q0.234375 -1.046875 0.734375 -1.6875q0.515625 -0.640625 1.46875 -0.984375q0.96875 -0.359375 2.25 -0.359375q1.265625 0 2.046875 0.296875q0.78125 0.296875 1.15625 0.75q0.375 0.453125 0.515625 1.140625q0.09375 0.421875 0.09375 1.53125l0 2.234375q0 2.328125 0.09375 2.953125q0.109375 0.609375 0.4375 1.171875l-1.75 0q-0.265625 -0.515625 -0.328125 -1.21875zm-0.140625 -3.71875q-0.90625 0.359375 -2.734375 0.625q-1.03125 0.140625 -1.453125 0.328125q-0.421875 0.1875 -0.65625 0.546875q-0.234375 0.359375 -0.234375 0.796875q0 0.671875 0.5 1.125q0.515625 0.4375 1.484375 0.4375q0.96875 0 1.71875 -0.421875q0.75 -0.4375 1.109375 -1.15625q0.265625 -0.578125 0.265625 -1.671875l0 -0.609375zm3.1882324 -4.921875l8.0 0l0 1.390625l-3.171875 0l0 8.46875l-1.65625 0l0 -8.46875l-3.171875 0l0 -1.390625zm8.810333 4.9375q0 -2.734375 1.53125 -4.0625q1.265625 -1.09375 3.09375 -1.09375q2.03125 0 3.3125 1.34375q1.296875 1.328125 1.296875 3.671875q0 1.90625 -0.578125 3.0q-0.5625 1.078125 -1.65625 1.6875q-1.078125 0.59375 -2.375 0.59375q-2.0625 0 -3.34375 -1.328125q-1.28125 -1.328125 -1.28125 -3.8125zm1.71875 0q0 1.890625 0.828125 2.828125q0.828125 0.9375 2.078125 0.9375q1.25 0 2.0625 -0.9375q0.828125 -0.953125 0.828125 -2.890625q0 -1.828125 -0.828125 -2.765625q-0.828125 -0.9375 -2.0625 -0.9375q-1.25 0 -2.078125 0.9375q-0.828125 0.9375 -0.828125 2.828125zm9.297577 -4.9375l3.84375 0q1.421875 0 2.109375 0.25q0.6875 0.234375 1.1875 0.859375q0.5 0.625 0.5 1.515625q0 0.703125 -0.296875 1.234375q-0.28125 0.515625 -0.875 0.875q0.703125 0.21875 1.15625 0.859375q0.46875 0.640625 0.46875 1.515625q-0.09375 1.390625 -1.015625 2.078125q-0.90625 0.671875 -2.640625 0.671875l-4.4375 0l0 -9.859375zm1.671875 4.15625l1.78125 0q1.0625 0 1.453125 -0.109375q0.40625 -0.109375 0.71875 -0.453125q0.3125 -0.34375 0.3125 -0.8125q0 -0.78125 -0.546875 -1.078125q-0.546875 -0.3125 -1.890625 -0.3125l-1.828125 0l0 2.765625zm0 4.328125l2.1875 0q1.421875 0 1.953125 -0.328125q0.53125 -0.328125 0.5625 -1.140625q0 -0.46875 -0.3125 -0.875q-0.3125 -0.40625 -0.796875 -0.5q-0.484375 -0.109375 -1.578125 -0.109375l-2.015625 0l0 2.953125z" fill-rule="nonzero"></path><path fill="#cfe2f3" d="m450.0051 45.125225l0 0c0 -11.967857 9.701843 -21.669725 21.669708 -21.669725l148.72357 0c5.7471313 0 11.258911 2.2830544 15.322815 6.346916c4.063843 4.06386 6.346863 9.57564 6.346863 15.322809l0 86.6763c0 11.96785 -9.701843 21.669724 -21.669678 21.669724l-148.72357 0c-11.967865 0 -21.669708 -9.701874 -21.669708 -21.669724z" fill-rule="nonzero"></path><path stroke="#000000" stroke-width="2.0" stroke-linejoin="round" stroke-linecap="butt" d="m450.0051 45.125225l0 0c0 -11.967857 9.701843 -21.669725 21.669708 -21.669725l148.72357 0c5.7471313 0 11.258911 2.2830544 15.322815 6.346916c4.063843 4.06386 6.346863 9.57564 6.346863 15.322809l0 86.6763c0 11.96785 -9.701843 21.669724 -21.669678 21.669724l-148.72357 0c-11.967865 0 -21.669708 -9.701874 -21.669708 -21.669724z" fill-rule="nonzero"></path><path fill="#d9d9d9" d="m483.69263 39.197174l0 0c0 -4.1458435 3.3608704 -7.506712 7.506714 -7.506712l41.96295 0c1.9909058 0 3.9002686 0.790884 5.3080444 2.1986637c1.4077759 1.4077835 2.1986694 3.3171425 2.1986694 5.3080482l0 30.025948c0 4.1458435 -3.3609009 7.506714 -7.506714 7.506714l-41.96295 0l0 0c-4.1458435 0 -7.506714 -3.3608704 -7.506714 -7.506714z" fill-rule="nonzero"></path><path stroke="#000000" stroke-width="2.0" stroke-linejoin="round" stroke-linecap="butt" d="m483.69263 39.197174l0 0c0 -4.1458435 3.3608704 -7.506712 7.506714 -7.506712l41.96295 0c1.9909058 0 3.9002686 0.790884 5.3080444 2.1986637c1.4077759 1.4077835 2.1986694 3.3171425 2.1986694 5.3080482l0 30.025948c0 4.1458435 -3.3609009 7.506714 -7.506714 7.506714l-41.96295 0l0 0c-4.1458435 0 -7.506714 -3.3608704 -7.506714 -7.506714z" fill-rule="nonzero"></path><path fill="#000000" d="m507.7742 54.42702q0 -2.421875 0.5 -3.890625q0.5 -1.46875 1.46875 -2.265625q0.984375 -0.796875 2.4687805 -0.796875q1.09375 0 1.921875 0.4375q0.828125 0.4375 1.359375 1.28125q0.546875 0.828125 0.84375 2.015625q0.3125 1.1875 0.3125 3.21875q0 2.390625 -0.5 3.859375q-0.484375 1.46875 -1.46875 2.28125q-0.96875 0.796875 -2.46875 0.796875q-1.9687805 0 -3.0781555 -1.40625q-1.359375 -1.703125 -1.359375 -5.53125zm1.71875 0q0 3.34375 0.78125 4.453125q0.796875 1.109375 1.9375305 1.109375q1.15625 0 1.9375 -1.109375q0.78125 -1.125 0.78125 -4.453125q0 -3.359375 -0.78125 -4.46875q-0.78125 -1.109375 -1.953125 -1.109375q-1.1562805 0 -1.8281555 0.984375q-0.875 1.234375 -0.875 4.59375z" fill-rule="nonzero"></path><path fill="#d9d9d9" d="m549.70905 105.15319l0 0c0 -4.1458435 3.3608398 -7.506714 7.506714 -7.506714l41.96295 0c1.9909058 0 3.9002686 0.7908859 5.3080444 2.1986694c1.4077759 1.4077759 2.1986694 3.3171387 2.1986694 5.3080444l0 30.025948c0 4.1458435 -3.3609009 7.506714 -7.506714 7.506714l-41.96295 0l0 0c-4.145874 0 -7.506714 -3.3608704 -7.506714 -7.506714z" fill-rule="nonzero"></path><path stroke="#000000" stroke-width="2.0" stroke-linejoin="round" stroke-linecap="butt" d="m549.70905 105.15319l0 0c0 -4.1458435 3.3608398 -7.506714 7.506714 -7.506714l41.96295 0c1.9909058 0 3.9002686 0.7908859 5.3080444 2.1986694c1.4077759 1.4077759 2.1986694 3.3171387 2.1986694 5.3080444l0 30.025948c0 4.1458435 -3.3609009 7.506714 -7.506714 7.506714l-41.96295 0l0 0c-4.145874 0 -7.506714 -3.3608704 -7.506714 -7.506714z" fill-rule="nonzero"></path><path fill="#000000" d="m580.08746 127.08617l-1.671875 0l0 -10.640625q-0.59375 0.578125 -1.578125 1.15625q-0.984375 0.5625 -1.765625 0.859375l0 -1.625q1.40625 -0.65625 2.453125 -1.59375q1.046875 -0.9375 1.484375 -1.8125l1.078125 0l0 13.65625z" fill-rule="nonzero"></path><path fill="#000000" fill-opacity="0.0" d="m540.669 54.210148c18.771667 0 37.543335 21.716534 37.543335 43.43307" fill-rule="nonzero"></path><path stroke="#000000" stroke-width="2.0" stroke-linejoin="round" stroke-linecap="butt" d="m540.669 54.210148c9.385803 0 18.771667 5.4291344 25.811035 13.572834c3.5196533 4.0718536 6.452759 8.822342 8.50592 13.912155c0.5132446 1.2724533 0.9715576 2.5661163 1.3702393 3.8756866l0.06188965 0.20729065" fill-rule="evenodd"></path><path fill="#000000" stroke="#000000" stroke-width="2.0" stroke-linecap="butt" d="m573.15173 86.27205l4.623413 8.480232l1.9092407 -9.4681015z" fill-rule="evenodd"></path><path fill="#000000" fill-opacity="0.0" d="m549.70905 120.16616c-18.771667 0 -37.543335 -21.71653 -37.543335 -43.433067" fill-rule="nonzero"></path><path stroke="#000000" stroke-width="2.0" stroke-linejoin="round" stroke-linecap="butt" d="m549.70905 120.16616c-9.385864 0 -18.771667 -5.4291306 -25.811035 -13.57283c-3.5197144 -4.0718536 -6.452759 -8.822342 -8.50592 -13.912155c-0.51330566 -1.2724533 -0.9715576 -2.566124 -1.3703003 -3.875679l-0.061828613 -0.20729828" fill-rule="evenodd"></path><path fill="#000000" stroke="#000000" stroke-width="2.0" stroke-linecap="butt" d="m517.2263 88.10426l-4.623413 -8.480232l-1.9092712 9.4681015z" fill-rule="evenodd"></path><path fill="#000000" fill-opacity="0.0" d="m563.5997 26.964685l113.03937 0l0 46.267715l-113.03937 0z" fill-rule="nonzero"></path><path fill="#000000" d="m582.70905 54.989063l2.171875 0.28125q-0.515625 1.90625 -1.90625 2.96875q-1.390625 1.046875 -3.5625 1.046875q-2.734375 0 -4.34375 -1.671875q-1.59375 -1.6875 -1.59375 -4.734375q0 -3.140625 1.609375 -4.875q1.625 -1.734375 4.203125 -1.734375q2.5 0 4.078125 1.703125q1.59375 1.703125 1.59375 4.78125q0 0.1875 -0.015625 0.5625l-9.28125 0q0.109375 2.046875 1.15625 3.140625q1.046875 1.09375 2.609375 1.09375q1.15625 0 1.96875 -0.609375q0.828125 -0.609375 1.3125 -1.953125zm-6.9375 -3.40625l6.953125 0q-0.140625 -1.5625 -0.796875 -2.359375q-1.0 -1.21875 -2.609375 -1.21875q-1.453125 0 -2.453125 0.984375q-0.984375 0.96875 -1.09375 2.59375z" fill-rule="nonzero"></path><path fill="#000000" d="m586.6192 62.34844q0 -2.03125 0.40625 -3.265625q0.421875 -1.234375 1.25 -1.90625q0.828125 -0.671875 2.078125 -0.671875q0.921875 0 1.609375 0.375q0.703125 0.359375 1.15625 1.0625q0.453125 0.703125 0.703125 1.703125q0.265625 1.0 0.265625 2.703125q0 2.0156212 -0.421875 3.2656212q-0.40625 1.234375 -1.234375 1.921875q-0.828125 0.671875 -2.078125 0.671875q-1.65625 0 -2.609375 -1.203125q-1.125 -1.421875 -1.125 -4.656246zm1.4375 0q0 2.8281212 0.65625 3.7656212q0.671875 0.921875 1.640625 0.921875q0.96875 0 1.625 -0.9375q0.65625 -0.9375 0.65625 -3.7499962q0 -2.828125 -0.65625 -3.75q-0.65625 -0.9375 -1.640625 -0.9375q-0.96875 0 -1.546875 0.828125q-0.734375 1.046875 -0.734375 3.859375z" fill-rule="nonzero"></path><path fill="#000000" d="m596.47076 63.770313l0 -21.953125l4.65625 0l0 1.75l-2.546875 0l0 18.46875l2.546875 0l0 1.734375l-4.65625 0zm5.2148438 -4.765625l4.546875 -6.46875l-4.203125 -5.984375l2.640625 0l1.90625 2.921875q0.546875 0.828125 0.875 1.390625q0.515625 -0.765625 0.9375 -1.359375l2.109375 -2.953125l2.515625 0l-4.296875 5.859375l4.625 6.59375l-2.59375 0l-2.546875 -3.875l-0.6875 -1.03125l-3.265625 4.90625l-2.5625 0zm16.9375 4.765625l-4.65625 0l0 -1.734375l2.546875 0l0 -18.46875l-2.546875 0l0 -1.75l4.65625 0l0 21.953125z" fill-rule="nonzero"></path><path fill="#000000" fill-opacity="0.0" d="m466.0051 97.647156l79.93698 0l0 42.362198l-79.93698 0z" fill-rule="nonzero"></path><path fill="#000000" d="m485.11447 123.35263l2.171875 0.28125q-0.515625 1.90625 -1.90625 2.96875q-1.390625 1.046875 -3.5625 1.046875q-2.734375 0 -4.34375 -1.671875q-1.59375 -1.6875 -1.59375 -4.734375q0 -3.140625 1.609375 -4.875q1.625 -1.734375 4.203125 -1.734375q2.5 0 4.078125 1.703125q1.59375 1.703125 1.59375 4.78125q0 0.1875 -0.015625 0.5625l-9.28125 0q0.109375 2.046875 1.15625 3.140625q1.046875 1.09375 2.609375 1.09375q1.15625 0 1.96875 -0.609375q0.828125 -0.609375 1.3125 -1.953125zm-6.9375 -3.40625l6.953125 0q-0.140625 -1.5625 -0.796875 -2.359375q-1.0 -1.21875 -2.609375 -1.21875q-1.453125 0 -2.453125 0.984375q-0.984375 0.96875 -1.09375 2.59375z" fill-rule="nonzero"></path><path fill="#000000" d="m494.3215 136.36826l-1.40625 0l0 -8.96875q-0.515625 0.484375 -1.34375 0.96875q-0.8125 0.484375 -1.46875 0.734375l0 -1.359375q1.171875 -0.5625 2.046875 -1.34375q0.890625 -0.796875 1.265625 -1.53125l0.90625 0l0 11.5z" fill-rule="nonzero"></path><path fill="#000000" d="m498.8762 132.13388l0 -21.953125l4.65625 0l0 1.75l-2.546875 0l0 18.46875l2.546875 0l0 1.734375l-4.65625 0zm7.7460938 -9.03125l-0.640625 -9.109375l0 -3.8125l2.609375 0l0 3.8125l-0.609375 9.109375l-1.359375 0zm-0.546875 4.265625l0 -2.40625l2.421875 0l0 2.40625l-2.421875 0zm4.6835938 0l4.5468445 -6.46875l-4.2030945 -5.984375l2.6405945 0l1.90625 2.921875q0.546875 0.828125 0.875 1.390625q0.515625 -0.765625 0.9375 -1.359375l2.109375 -2.953125l2.515625 0l-4.296875 5.859375l4.625 6.59375l-2.59375 0l-2.546875 -3.875l-0.6875 -1.03125l-3.265625 4.90625l-2.5624695 0zm16.93747 4.765625l-4.65625 0l0 -1.734375l2.546875 0l0 -18.46875l-2.546875 0l0 -1.75l4.65625 0l0 21.953125z" fill-rule="nonzero"></path><path fill="#cfe2f3" d="m472.65195 234.61177l0 0c0 -6.302841 5.1094666 -11.4122925 11.4122925 -11.4122925l123.91556 0c3.0267334 0 5.9295044 1.2023621 8.069702 3.3425903c2.1402588 2.140213 3.3425903 5.042984 3.3425903 8.069702l0 45.647842c0 6.3028564 -5.109436 11.4122925 -11.4122925 11.4122925l-123.91556 0c-6.302826 0 -11.4122925 -5.109436 -11.4122925 -11.4122925z" fill-rule="nonzero"></path><path stroke="#000000" stroke-width="2.0" stroke-linejoin="round" stroke-linecap="butt" d="m472.65195 234.61177l0 0c0 -6.302841 5.1094666 -11.4122925 11.4122925 -11.4122925l123.91556 0c3.0267334 0 5.9295044 1.2023621 8.069702 3.3425903c2.1402588 2.140213 3.3425903 5.042984 3.3425903 8.069702l0 45.647842c0 6.3028564 -5.109436 11.4122925 -11.4122925 11.4122925l-123.91556 0c-6.302826 0 -11.4122925 -5.109436 -11.4122925 -11.4122925z" fill-rule="nonzero"></path><path fill="#000000" d="m501.9199 239.76195l8.78125 0l0 1.59375l-6.984375 0l0 12.0l-1.796875 0l0 -13.59375zm16.602448 10.421875l1.71875 0.21875q-0.40625 1.5 -1.515625 2.34375q-1.09375 0.828125 -2.8125 0.828125q-2.15625 0 -3.421875 -1.328125q-1.2656555 -1.328125 -1.2656555 -3.734375q0 -2.484375 1.2656555 -3.859375q1.28125 -1.375 3.328125 -1.375q1.984375 0 3.234375 1.34375q1.25 1.34375 1.25 3.796875q0 0.140625 -0.015625 0.4375l-7.34375 0q0.09375 1.625 0.921875 2.484375q0.828125 0.859375 2.0625 0.859375q0.90625 0 1.546875 -0.46875q0.65625 -0.484375 1.046875 -1.546875zm-5.484375 -2.703125l5.5 0q-0.109375 -1.234375 -0.625 -1.859375q-0.796875 -0.96875 -2.078125 -0.96875q-1.140625 0 -1.9375 0.78125q-0.78125 0.765625 -0.859375 2.046875zm9.125671 -3.984375l1.671875 0l0 4.109375l4.625 0l0 -4.109375l1.671875 0l0 9.859375l-1.671875 0l0 -4.375l-4.625 0l0 4.375l-1.671875 0l0 -9.859375zm17.037231 6.6875l1.71875 0.21875q-0.40625 1.5 -1.515625 2.34375q-1.09375 0.828125 -2.8125 0.828125q-2.15625 0 -3.421875 -1.328125q-1.265625 -1.328125 -1.265625 -3.734375q0 -2.484375 1.265625 -3.859375q1.28125 -1.375 3.328125 -1.375q1.984375 0 3.234375 1.34375q1.25 1.34375 1.25 3.796875q0 0.140625 -0.015625 0.4375l-7.34375 0q0.09375 1.625 0.921875 2.484375q0.828125 0.859375 2.0625 0.859375q0.90625 0 1.546875 -0.46875q0.65625 -0.484375 1.046875 -1.546875zm-5.484375 -2.703125l5.5 0q-0.109375 -1.234375 -0.625 -1.859375q-0.796875 -0.96875 -2.078125 -0.96875q-1.140625 0 -1.9375 0.78125q-0.78125 0.765625 -0.859375 2.046875zm9.110107 9.656235l0 -13.64061l1.53125 0l0 1.28125q0.53125 -0.75 1.203125 -1.125q0.6875 -0.375 1.640625 -0.375q1.265625 0 2.234375 0.65625q0.96875 0.640625 1.453125 1.828125q0.5 1.1875 0.5 2.59375q0 1.515625 -0.546875 2.734375q-0.546875 1.203125 -1.578125 1.84375q-1.03125 0.640625 -2.171875 0.640625q-0.84375 0 -1.515625 -0.34375q-0.65625 -0.359375 -1.078125 -0.890625l0 4.7968597l-1.671875 0zm1.515625 -8.656235q0 1.90625 0.765625 2.8125q0.78125 0.90625 1.875 0.90625q1.109375 0 1.890625 -0.9375q0.796875 -0.9375 0.796875 -2.921875q0 -1.875 -0.78125 -2.8125q-0.765625 -0.9375 -1.84375 -0.9375q-1.0625 0 -1.890625 1.0q-0.8125 1.0 -0.8125 2.890625zm15.297607 3.65625q-0.9375 0.796875 -1.796875 1.125q-0.859375 0.3125 -1.84375 0.3125q-1.609375 0 -2.484375 -0.78125q-0.875 -0.796875 -0.875 -2.03125q0 -0.734375 0.328125 -1.328125q0.328125 -0.59375 0.859375 -0.953125q0.53125 -0.359375 1.203125 -0.546875q0.5 -0.140625 1.484375 -0.25q2.03125 -0.25 2.984375 -0.578125q0 -0.34375 0 -0.4375q0 -1.015625 -0.46875 -1.4375q-0.640625 -0.5625 -1.90625 -0.5625q-1.171875 0 -1.734375 0.40625q-0.5625 0.40625 -0.828125 1.46875l-1.640625 -0.234375q0.234375 -1.046875 0.734375 -1.6875q0.515625 -0.640625 1.46875 -0.984375q0.96875 -0.359375 2.25 -0.359375q1.265625 0 2.046875 0.296875q0.78125 0.296875 1.15625 0.75q0.375 0.453125 0.515625 1.140625q0.09375 0.421875 0.09375 1.53125l0 2.234375q0 2.328125 0.09375 2.953125q0.109375 0.609375 0.4375 1.171875l-1.75 0q-0.265625 -0.515625 -0.328125 -1.21875zm-0.140625 -3.71875q-0.90625 0.359375 -2.734375 0.625q-1.03125 0.140625 -1.453125 0.328125q-0.421875 0.1875 -0.65625 0.546875q-0.234375 0.359375 -0.234375 0.796875q0 0.671875 0.5 1.125q0.515625 0.4375 1.484375 0.4375q0.96875 0 1.71875 -0.421875q0.75 -0.4375 1.109375 -1.15625q0.265625 -0.578125 0.265625 -1.671875l0 -0.609375zm3.1881714 -4.921875l8.0 0l0 1.390625l-3.171875 0l0 8.46875l-1.65625 0l0 -8.46875l-3.171875 0l0 -1.390625zm8.810364 4.9375q0 -2.734375 1.53125 -4.0625q1.265625 -1.09375 3.09375 -1.09375q2.03125 0 3.3125 1.34375q1.296875 1.328125 1.296875 3.671875q0 1.90625 -0.578125 3.0q-0.5625 1.078125 -1.65625 1.6875q-1.078125 0.59375 -2.375 0.59375q-2.0625 0 -3.34375 -1.328125q-1.28125 -1.328125 -1.28125 -3.8125zm1.71875 0q0 1.890625 0.828125 2.828125q0.828125 0.9375 2.078125 0.9375q1.25 0 2.0625 -0.9375q0.828125 -0.953125 0.828125 -2.890625q0 -1.828125 -0.828125 -2.765625q-0.828125 -0.9375 -2.0625 -0.9375q-1.25 0 -2.078125 0.9375q-0.828125 0.9375 -0.828125 2.828125zm9.281982 8.70311l0 -13.64061l1.53125 0l0 1.28125q0.53125 -0.75 1.203125 -1.125q0.6875 -0.375 1.640625 -0.375q1.265625 0 2.234375 0.65625q0.96875 0.640625 1.453125 1.828125q0.5 1.1875 0.5 2.59375q0 1.515625 -0.546875 2.734375q-0.546875 1.203125 -1.578125 1.84375q-1.03125 0.640625 -2.171875 0.640625q-0.84375 0 -1.515625 -0.34375q-0.65625 -0.359375 -1.078125 -0.890625l0 4.7968597l-1.671875 0zm1.515625 -8.656235q0 1.90625 0.765625 2.8125q0.78125 0.90625 1.875 0.90625q1.109375 0 1.890625 -0.9375q0.796875 -0.9375 0.796875 -2.921875q0 -1.875 -0.78125 -2.8125q-0.765625 -0.9375 -1.84375 -0.9375q-1.0625 0 -1.890625 1.0q-0.8125 1.0 -0.8125 2.890625z" fill-rule="nonzero"></path><path fill="#000000" d="m493.03705 275.35568l2.828125 -13.59375l1.828125 0l-2.515625 12.046875l7.0625 0l-0.328125 1.546875l-8.875 0zm13.922607 0l2.515625 -12.046875l-4.46875 0l0.328125 -1.546875l10.703125 0l-0.3125 1.546875l-4.4375 0l-2.515625 12.046875l-1.8125 0zm7.849121 0l2.828125 -13.59375l1.828125 0l-2.515625 12.046875l7.0625 0l-0.328125 1.546875l-8.875 0z" fill-rule="nonzero"></path><path fill="#000000" d="m525.0282 271.27756l0 -1.6875l5.125 0l0 1.6875l-5.125 0zm12.5877075 -9.515625l1.671875 0l0 4.703125q0.515625 -0.59375 1.140625 -0.890625q0.625 -0.296875 1.34375 -0.296875q1.75 0 2.765625 1.46875q1.03125 1.453125 1.03125 3.671875q0 2.3125 -1.109375 3.734375q-1.09375 1.421875 -2.734375 1.421875q-0.546875 0 -1.109375 -0.171875q-0.546875 -0.15625 -1.328125 -0.90625l0 4.640625l-1.671875 0l0 -4.640625q-0.5 0.546875 -1.109375 0.8125q-0.609375 0.265625 -1.3125 0.265625q-1.546875 0 -2.703125 -1.359375q-1.15625 -1.359375 -1.15625 -3.890625q0 -2.140625 1.046875 -3.59375q1.046875 -1.453125 2.8125 -1.453125q0.75 0 1.34375 0.296875q0.609375 0.296875 1.078125 0.890625l0 -4.703125zm1.65625 8.703125q0 2.234375 0.609375 3.0q0.625 0.765625 1.546875 0.765625q1.015625 0 1.734375 -0.9375q0.71875 -0.953125 0.71875 -2.9375q0 -1.875 -0.671875 -2.796875q-0.65625 -0.921875 -1.703125 -0.921875q-1.109375 0 -1.671875 0.96875q-0.5625 0.953125 -0.5625 2.859375zm-6.25 -0.1875q0 2.09375 0.703125 3.015625q0.703125 0.90625 1.734375 0.90625q1.09375 0 1.625 -0.90625q0.546875 -0.921875 0.546875 -2.75q0 -1.9375 -0.578125 -2.90625q-0.5625 -0.984375 -1.703125 -0.984375q-1.03125 0 -1.6875 0.953125q-0.640625 0.953125 -0.640625 2.671875zm13.583862 0.15625q0 -2.734375 1.53125 -4.0625q1.265625 -1.09375 3.09375 -1.09375q2.03125 0 3.3125 1.34375q1.296875 1.328125 1.296875 3.671875q0 1.90625 -0.578125 3.0q-0.5625 1.078125 -1.65625 1.6875q-1.078125 0.59375 -2.375 0.59375q-2.0625 0 -3.34375 -1.328125q-1.28125 -1.328125 -1.28125 -3.8125zm1.71875 0q0 1.890625 0.828125 2.828125q0.828125 0.9375 2.078125 0.9375q1.25 0 2.0625 -0.9375q0.828125 -0.953125 0.828125 -2.890625q0 -1.828125 -0.828125 -2.765625q-0.828125 -0.9375 -2.0625 -0.9375q-1.25 0 -2.078125 0.9375q-0.828125 0.9375 -0.828125 2.828125zm9.281982 8.703125l0 -13.640625l1.53125 0l0 1.28125q0.53125 -0.75 1.203125 -1.125q0.6875 -0.375 1.640625 -0.375q1.265625 0 2.234375 0.65625q0.96875 0.640625 1.453125 1.828125q0.5 1.1875 0.5 2.59375q0 1.515625 -0.546875 2.734375q-0.546875 1.203125 -1.578125 1.84375q-1.03125 0.640625 -2.171875 0.640625q-0.84375 0 -1.515625 -0.34375q-0.65625 -0.359375 -1.078125 -0.890625l0 4.796875l-1.671875 0zm1.515625 -8.65625q0 1.90625 0.765625 2.8125q0.78125 0.90625 1.875 0.90625q1.109375 0 1.890625 -0.9375q0.796875 -0.9375 0.796875 -2.921875q0 -1.875 -0.78125 -2.8125q-0.765625 -0.9375 -1.84375 -0.9375q-1.0625 0 -1.890625 1.0q-0.8125 1.0 -0.8125 2.890625zm8.906982 -4.984375l2.59375 0l2.59375 7.890625l2.875 -7.890625l2.40625 0l0 9.859375l-1.671875 0l0 -7.9375l-2.90625 7.9375l-1.5 0l-2.75 -8.3125l0 8.3125l-1.640625 0l0 -9.859375zm12.701172 13.65625l-0.171875 -1.5625q0.546875 0.140625 0.953125 0.140625q0.546875 0 0.875 -0.1875q0.34375 -0.1875 0.5625 -0.515625q0.15625 -0.25 0.5 -1.25q0.046875 -0.140625 0.15625 -0.40625l-3.734375 -9.875l1.796875 0l2.046875 5.71875q0.40625 1.078125 0.71875 2.28125q0.28125 -1.15625 0.6875 -2.25l2.09375 -5.75l1.671875 0l-3.75 10.03125q-0.59375 1.625 -0.9375 2.234375q-0.4375 0.828125 -1.015625 1.203125q-0.578125 0.390625 -1.375 0.390625q-0.484375 0 -1.078125 -0.203125zm10.21875 -13.65625l7.765625 0l0 9.859375l-1.65625 0l0 -8.46875l-4.4375 0l0 4.90625q0 1.71875 -0.109375 2.265625q-0.109375 0.546875 -0.609375 0.953125q-0.5 0.40625 -1.453125 0.40625q-0.578125 0 -1.34375 -0.078125l0 -1.390625l0.734375 0q0.515625 0 0.734375 -0.09375q0.234375 -0.109375 0.296875 -0.34375q0.078125 -0.234375 0.078125 -1.515625l0 -6.5z" fill-rule="nonzero"></path><path fill="#cfe2f3" d="m472.68344 345.10516l0 0c0 -4.9141235 3.983673 -8.897827 8.897827 -8.897827l128.94449 0c2.3598633 0 4.623047 0.9374695 6.291748 2.6061096c1.6686401 1.6686707 2.606079 3.9318848 2.606079 6.2917175l0 35.59021c0 4.9141235 -3.9837036 8.897797 -8.897827 8.897797l-128.94449 0c-4.914154 0 -8.897827 -3.983673 -8.897827 -8.897797z" fill-rule="nonzero"></path><path stroke="#000000" stroke-width="2.0" stroke-linejoin="round" stroke-linecap="butt" d="m472.68344 345.10516l0 0c0 -4.9141235 3.983673 -8.897827 8.897827 -8.897827l128.94449 0c2.3598633 0 4.623047 0.9374695 6.291748 2.6061096c1.6686401 1.6686707 2.606079 3.9318848 2.606079 6.2917175l0 35.59021c0 4.9141235 -3.9837036 8.897797 -8.897827 8.897797l-128.94449 0c-4.914154 0 -8.897827 -3.983673 -8.897827 -8.897797z" fill-rule="nonzero"></path><path fill="#000000" d="m486.36395 365.73343l2.828125 -13.59375l1.828125 0l-2.515625 12.046875l7.0625 0l-0.328125 1.546875l-8.875 0zm13.922607 0l2.515625 -12.046875l-4.46875 0l0.328125 -1.546875l10.703125 0l-0.3125 1.546875l-4.4375 0l-2.515625 12.046875l-1.8125 0zm7.8490906 0l2.828125 -13.59375l1.8281555 0l-2.5156555 12.046875l7.0625305 0l-0.328125 1.546875l-8.8750305 0z" fill-rule="nonzero"></path><path fill="#000000" d="m518.3551 361.6553l0 -1.6875l5.125 0l0 1.6875l-5.125 0zm12.5877075 -9.515625l1.671875 0l0 4.703125q0.515625 -0.59375 1.140625 -0.890625q0.625 -0.296875 1.34375 -0.296875q1.75 0 2.765625 1.46875q1.03125 1.453125 1.03125 3.671875q0 2.3125 -1.109375 3.734375q-1.09375 1.421875 -2.734375 1.421875q-0.546875 0 -1.109375 -0.171875q-0.546875 -0.15625 -1.328125 -0.90625l0 4.640625l-1.671875 0l0 -4.640625q-0.5 0.546875 -1.109375 0.8125q-0.609375 0.265625 -1.3125 0.265625q-1.546875 0 -2.703125 -1.359375q-1.15625 -1.359375 -1.15625 -3.890625q0 -2.140625 1.046875 -3.59375q1.046875 -1.453125 2.8125 -1.453125q0.75 0 1.34375 0.296875q0.609375 0.296875 1.078125 0.890625l0 -4.703125zm1.65625 8.703125q0 2.234375 0.609375 3.0q0.625 0.765625 1.546875 0.765625q1.015625 0 1.734375 -0.9375q0.71875 -0.953125 0.71875 -2.9375q0 -1.875 -0.671875 -2.796875q-0.65625 -0.921875 -1.703125 -0.921875q-1.109375 0 -1.671875 0.96875q-0.5625 0.953125 -0.5625 2.859375zm-6.25 -0.1875q0 2.09375 0.703125 3.015625q0.703125 0.90625 1.734375 0.90625q1.09375 0 1.625 -0.90625q0.546875 -0.921875 0.546875 -2.75q0 -1.9375 -0.578125 -2.90625q-0.5625 -0.984375 -1.703125 -0.984375q-1.03125 0 -1.6875 0.953125q-0.640625 0.953125 -0.640625 2.671875zm13.583862 0.15625q0 -2.734375 1.53125 -4.0625q1.265625 -1.09375 3.09375 -1.09375q2.03125 0 3.3125 1.34375q1.296875 1.328125 1.296875 3.671875q0 1.90625 -0.578125 3.0q-0.5625 1.078125 -1.65625 1.6875q-1.078125 0.59375 -2.375 0.59375q-2.0625 0 -3.34375 -1.328125q-1.28125 -1.328125 -1.28125 -3.8125zm1.71875 0q0 1.890625 0.828125 2.828125q0.828125 0.9375 2.078125 0.9375q1.25 0 2.0625 -0.9375q0.828125 -0.953125 0.828125 -2.890625q0 -1.828125 -0.828125 -2.765625q-0.828125 -0.9375 -2.0625 -0.9375q-1.25 0 -2.078125 0.9375q-0.828125 0.9375 -0.828125 2.828125zm9.281982 8.703125l0 -13.640625l1.53125 0l0 1.28125q0.53125 -0.75 1.203125 -1.125q0.6875 -0.375 1.640625 -0.375q1.265625 0 2.234375 0.65625q0.96875 0.640625 1.453125 1.828125q0.5 1.1875 0.5 2.59375q0 1.515625 -0.546875 2.734375q-0.546875 1.203125 -1.578125 1.84375q-1.03125 0.640625 -2.171875 0.640625q-0.84375 0 -1.515625 -0.34375q-0.65625 -0.359375 -1.078125 -0.890625l0 4.796875l-1.671875 0zm1.515625 -8.65625q0 1.90625 0.765625 2.8125q0.78125 0.90625 1.875 0.90625q1.109375 0 1.890625 -0.9375q0.796875 -0.9375 0.796875 -2.921875q0 -1.875 -0.78125 -2.8125q-0.765625 -0.9375 -1.84375 -0.9375q-1.0625 0 -1.890625 1.0q-0.8125 1.0 -0.8125 2.890625zm8.906982 -4.984375l2.59375 0l2.59375 7.890625l2.875 -7.890625l2.40625 0l0 9.859375l-1.671875 0l0 -7.9375l-2.90625 7.9375l-1.5 0l-2.75 -8.3125l0 8.3125l-1.640625 0l0 -9.859375zm12.701172 13.65625l-0.171875 -1.5625q0.546875 0.140625 0.953125 0.140625q0.546875 0 0.875 -0.1875q0.34375 -0.1875 0.5625 -0.515625q0.15625 -0.25 0.5 -1.25q0.046875 -0.140625 0.15625 -0.40625l-3.734375 -9.875l1.796875 0l2.046875 5.71875q0.40625 1.078125 0.71875 2.28125q0.28125 -1.15625 0.6875 -2.25l2.09375 -5.75l1.671875 0l-3.75 10.03125q-0.59375 1.625 -0.9375 2.234375q-0.4375 0.828125 -1.015625 1.203125q-0.578125 0.390625 -1.375 0.390625q-0.484375 0 -1.078125 -0.203125zm10.21875 -13.65625l7.765625 0l0 9.859375l-1.65625 0l0 -8.46875l-4.4375 0l0 4.90625q0 1.71875 -0.109375 2.265625q-0.109375 0.546875 -0.609375 0.953125q-0.5 0.40625 -1.453125 0.40625q-0.578125 0 -1.34375 -0.078125l0 -1.390625l0.734375 0q0.515625 0 0.734375 -0.09375q0.234375 -0.109375 0.296875 -0.34375q0.078125 -0.234375 0.078125 -1.515625l0 -6.5zm19.448364 0l1.671875 0l0 9.859375l-1.671875 0l0 -9.859375zm-9.328125 0l1.65625 0l0 3.859375l2.125 0q2.0625 0 3.171875 0.8125q1.125 0.796875 1.125 2.203125q0 1.234375 -0.9375 2.109375q-0.921875 0.875 -2.96875 0.875l-4.171875 0l0 -9.859375zm1.65625 8.484375l1.765625 0q1.578125 0 2.25 -0.390625q0.6875 -0.390625 0.6875 -1.21875q0 -0.640625 -0.5 -1.140625q-0.5 -0.5 -2.21875 -0.5l-1.984375 0l0 3.25z" fill-rule="nonzero"></path><path fill="#000000" fill-opacity="0.0" d="m233.50131 88.464554l37.322845 0" fill-rule="nonzero"></path><path stroke="#000000" stroke-width="2.0" stroke-linejoin="round" stroke-linecap="butt" d="m233.50131 88.46455l25.322845 0" fill-rule="evenodd"></path><path fill="#000000" stroke="#000000" stroke-width="2.0" stroke-linecap="butt" d="m258.82416 91.76801l9.076172 -3.3034668l-9.076172 -3.3034668z" fill-rule="evenodd"></path><path fill="#000000" fill-opacity="0.0" d="m412.68356 88.46337l37.322845 0" fill-rule="nonzero"></path><path stroke="#000000" stroke-width="2.0" stroke-linejoin="round" stroke-linecap="butt" d="m412.68356 88.46338l25.322845 0" fill-rule="evenodd"></path><path fill="#000000" stroke="#000000" stroke-width="2.0" stroke-linecap="butt" d="m438.0064 91.766846l9.076172 -3.3034668l-9.076172 -3.3034668z" fill-rule="evenodd"></path><path fill="#000000" fill-opacity="0.0" d="m546.02203 291.6719l0.03149414 44.53543" fill-rule="nonzero"></path><path stroke="#000000" stroke-width="2.0" stroke-linejoin="round" stroke-linecap="butt" d="m546.02203 291.6719l0.023010254 32.53543" fill-rule="evenodd"></path><path fill="#000000" stroke="#000000" stroke-width="2.0" stroke-linecap="butt" d="m542.7416 324.2097l3.3098755 9.073853l3.297058 -9.078522z" fill-rule="evenodd"></path><path fill="#000000" fill-opacity="0.0" d="m546.03656 153.47125l0 34.864044l0.06298828 0l0 34.86824" fill-rule="nonzero"></path><path stroke="#000000" stroke-width="2.0" stroke-linejoin="round" stroke-linecap="butt" d="m546.03656 153.47125l0 34.864044l0.06298828 0l0 22.86824" fill-rule="evenodd"></path><path fill="#000000" stroke="#000000" stroke-width="2.0" stroke-linecap="butt" d="m542.7961 211.20354l3.3034668 9.076187l3.3034668 -9.076187z" fill-rule="evenodd"></path><path fill="#cfe2f3" d="m268.36847 234.61177l0 0c0 -6.302841 5.1094666 -11.4122925 11.412323 -11.4122925l123.91556 0c3.026703 0 5.929474 1.2023621 8.069702 3.3425903c2.1402283 2.140213 3.3425903 5.042984 3.3425903 8.069702l0 45.647842c0 6.3028564 -5.1094666 11.4122925 -11.4122925 11.4122925l-123.91556 0c-6.3028564 0 -11.412323 -5.109436 -11.412323 -11.4122925z" fill-rule="nonzero"></path><path stroke="#000000" stroke-width="2.0" stroke-linejoin="round" stroke-linecap="butt" d="m268.36847 234.61177l0 0c0 -6.302841 5.1094666 -11.4122925 11.412323 -11.4122925l123.91556 0c3.026703 0 5.929474 1.2023621 8.069702 3.3425903c2.1402283 2.140213 3.3425903 5.042984 3.3425903 8.069702l0 45.647842c0 6.3028564 -5.1094666 11.4122925 -11.4122925 11.4122925l-123.91556 0c-6.3028564 0 -11.412323 -5.109436 -11.412323 -11.4122925z" fill-rule="nonzero"></path><path fill="#000000" d="m297.6364 239.76195l8.78125 0l0 1.59375l-6.984375 0l0 12.0l-1.796875 0l0 -13.59375zm16.602448 10.421875l1.71875 0.21875q-0.40625 1.5 -1.515625 2.34375q-1.09375 0.828125 -2.8125 0.828125q-2.15625 0 -3.421875 -1.328125q-1.265625 -1.328125 -1.265625 -3.734375q0 -2.484375 1.265625 -3.859375q1.28125 -1.375 3.328125 -1.375q1.984375 0 3.234375 1.34375q1.25 1.34375 1.25 3.796875q0 0.140625 -0.015625 0.4375l-7.34375 0q0.09375 1.625 0.921875 2.484375q0.828125 0.859375 2.0625 0.859375q0.90625 0 1.546875 -0.46875q0.65625 -0.484375 1.046875 -1.546875zm-5.484375 -2.703125l5.5 0q-0.109375 -1.234375 -0.625 -1.859375q-0.796875 -0.96875 -2.078125 -0.96875q-1.140625 0 -1.9375 0.78125q-0.78125 0.765625 -0.859375 2.046875zm9.125702 -3.984375l1.671875 0l0 4.109375l4.625 0l0 -4.109375l1.671875 0l0 9.859375l-1.671875 0l0 -4.375l-4.625 0l0 4.375l-1.671875 0l0 -9.859375zm17.037231 6.6875l1.7187195 0.21875q-0.40625 1.5 -1.5155945 2.34375q-1.09375 0.828125 -2.8125 0.828125q-2.15625 0 -3.421875 -1.328125q-1.265625 -1.328125 -1.265625 -3.734375q0 -2.484375 1.265625 -3.859375q1.28125 -1.375 3.328125 -1.375q1.984375 0 3.234375 1.34375q1.2499695 1.34375 1.2499695 3.796875q0 0.140625 -0.015625 0.4375l-7.3437195 0q0.09375 1.625 0.921875 2.484375q0.828125 0.859375 2.0625 0.859375q0.90625 0 1.546875 -0.46875q0.65625 -0.484375 1.046875 -1.546875zm-5.484375 -2.703125l5.5 0q-0.109375 -1.234375 -0.625 -1.859375q-0.796875 -0.96875 -2.078125 -0.96875q-1.140625 0 -1.9375 0.78125q-0.78125 0.765625 -0.859375 2.046875zm9.110077 9.656235l0 -13.64061l1.53125 0l0 1.28125q0.53125 -0.75 1.203125 -1.125q0.6875 -0.375 1.640625 -0.375q1.265625 0 2.234375 0.65625q0.96875 0.640625 1.453125 1.828125q0.5 1.1875 0.5 2.59375q0 1.515625 -0.546875 2.734375q-0.546875 1.203125 -1.578125 1.84375q-1.03125 0.640625 -2.171875 0.640625q-0.84375 0 -1.515625 -0.34375q-0.65625 -0.359375 -1.078125 -0.890625l0 4.7968597l-1.671875 0zm1.515625 -8.656235q0 1.90625 0.765625 2.8125q0.78125 0.90625 1.875 0.90625q1.109375 0 1.890625 -0.9375q0.796875 -0.9375 0.796875 -2.921875q0 -1.875 -0.78125 -2.8125q-0.765625 -0.9375 -1.84375 -0.9375q-1.0625 0 -1.890625 1.0q-0.8125 1.0 -0.8125 2.890625zm15.297577 3.65625q-0.9375 0.796875 -1.796875 1.125q-0.859375 0.3125 -1.84375 0.3125q-1.609375 0 -2.484375 -0.78125q-0.875 -0.796875 -0.875 -2.03125q0 -0.734375 0.328125 -1.328125q0.328125 -0.59375 0.859375 -0.953125q0.53125 -0.359375 1.203125 -0.546875q0.5 -0.140625 1.484375 -0.25q2.03125 -0.25 2.984375 -0.578125q0 -0.34375 0 -0.4375q0 -1.015625 -0.46875 -1.4375q-0.640625 -0.5625 -1.90625 -0.5625q-1.171875 0 -1.734375 0.40625q-0.5625 0.40625 -0.828125 1.46875l-1.640625 -0.234375q0.234375 -1.046875 0.734375 -1.6875q0.515625 -0.640625 1.46875 -0.984375q0.96875 -0.359375 2.25 -0.359375q1.265625 0 2.046875 0.296875q0.78125 0.296875 1.15625 0.75q0.375 0.453125 0.515625 1.140625q0.09375 0.421875 0.09375 1.53125l0 2.234375q0 2.328125 0.09375 2.953125q0.109375 0.609375 0.4375 1.171875l-1.75 0q-0.265625 -0.515625 -0.328125 -1.21875zm-0.140625 -3.71875q-0.90625 0.359375 -2.734375 0.625q-1.03125 0.140625 -1.453125 0.328125q-0.421875 0.1875 -0.65625 0.546875q-0.234375 0.359375 -0.234375 0.796875q0 0.671875 0.5 1.125q0.515625 0.4375 1.484375 0.4375q0.96875 0 1.71875 -0.421875q0.75 -0.4375 1.109375 -1.15625q0.265625 -0.578125 0.265625 -1.671875l0 -0.609375zm3.1882324 -4.921875l8.0 0l0 1.390625l-3.171875 0l0 8.46875l-1.65625 0l0 -8.46875l-3.171875 0l0 -1.390625zm8.810333 4.9375q0 -2.734375 1.53125 -4.0625q1.265625 -1.09375 3.09375 -1.09375q2.03125 0 3.3125 1.34375q1.296875 1.328125 1.296875 3.671875q0 1.90625 -0.578125 3.0q-0.5625 1.078125 -1.65625 1.6875q-1.078125 0.59375 -2.375 0.59375q-2.0625 0 -3.34375 -1.328125q-1.28125 -1.328125 -1.28125 -3.8125zm1.71875 0q0 1.890625 0.828125 2.828125q0.828125 0.9375 2.078125 0.9375q1.25 0 2.0625 -0.9375q0.828125 -0.953125 0.828125 -2.890625q0 -1.828125 -0.828125 -2.765625q-0.828125 -0.9375 -2.0625 -0.9375q-1.25 0 -2.078125 0.9375q-0.828125 0.9375 -0.828125 2.828125zm9.281952 8.70311l0 -13.64061l1.53125 0l0 1.28125q0.53125 -0.75 1.203125 -1.125q0.6875 -0.375 1.640625 -0.375q1.265625 0 2.234375 0.65625q0.96875 0.640625 1.453125 1.828125q0.5 1.1875 0.5 2.59375q0 1.515625 -0.546875 2.734375q-0.546875 1.203125 -1.578125 1.84375q-1.03125 0.640625 -2.171875 0.640625q-0.84375 0 -1.515625 -0.34375q-0.65625 -0.359375 -1.078125 -0.890625l0 4.7968597l-1.671875 0zm1.515625 -8.656235q0 1.90625 0.765625 2.8125q0.78125 0.90625 1.875 0.90625q1.109375 0 1.890625 -0.9375q0.796875 -0.9375 0.796875 -2.921875q0 -1.875 -0.78125 -2.8125q-0.765625 -0.9375 -1.84375 -0.9375q-1.0625 0 -1.890625 1.0q-0.8125 1.0 -0.8125 2.890625z" fill-rule="nonzero"></path><path fill="#000000" d="m303.35022 271.7463l1.640625 0.21875q-0.265625 1.6875 -1.375 2.65625q-1.109375 0.953125 -2.734375 0.953125q-2.015625 0 -3.25 -1.3125q-1.21875 -1.328125 -1.21875 -3.796875q0 -1.59375 0.515625 -2.78125q0.53125 -1.203125 1.609375 -1.796875q1.09375 -0.609375 2.359375 -0.609375q1.609375 0 2.625 0.8125q1.015625 0.8125 1.3125 2.3125l-1.625 0.25q-0.234375 -1.0 -0.828125 -1.5q-0.59375 -0.5 -1.421875 -0.5q-1.265625 0 -2.0625 0.90625q-0.78125 0.90625 -0.78125 2.859375q0 1.984375 0.765625 2.890625q0.765625 0.890625 1.984375 0.890625q0.984375 0 1.640625 -0.59375q0.65625 -0.609375 0.84375 -1.859375zm2.921875 -6.25l1.671875 0l0 8.484375l4.625 0l0 -8.484375l1.65625 0l0 8.484375l1.078125 0l0 4.171875l-1.375 0l0 -2.796875l-7.65625 0l0 -9.859375zm17.404205 6.6875l1.71875 0.21875q-0.40625 1.5 -1.515625 2.34375q-1.09375 0.828125 -2.8125 0.828125q-2.15625 0 -3.421875 -1.328125q-1.265625 -1.328125 -1.265625 -3.734375q0 -2.484375 1.265625 -3.859375q1.28125 -1.375 3.328125 -1.375q1.984375 0 3.234375 1.34375q1.25 1.34375 1.25 3.796875q0 0.140625 -0.015625 0.4375l-7.34375 0q0.09375 1.625 0.921875 2.484375q0.828125 0.859375 2.0625 0.859375q0.90625 0 1.546875 -0.46875q0.65625 -0.484375 1.046875 -1.546875zm-5.484375 -2.703125l5.5 0q-0.109375 -1.234375 -0.625 -1.859375q-0.796875 -0.96875 -2.078125 -0.96875q-1.140625 0 -1.9375 0.78125q-0.78125 0.765625 -0.859375 2.046875zm9.125702 -3.984375l1.671875 0l0 4.109375l4.625 0l0 -4.109375l1.671875 0l0 9.859375l-1.671875 0l0 -4.375l-4.625 0l0 4.375l-1.671875 0l0 -9.859375zm16.7247 8.640625q-0.9375 0.796875 -1.796875 1.125q-0.859375 0.3125 -1.84375 0.3125q-1.609375 0 -2.484375 -0.78125q-0.875 -0.796875 -0.875 -2.03125q0 -0.734375 0.328125 -1.328125q0.328125 -0.59375 0.859375 -0.953125q0.53125 -0.359375 1.203125 -0.546875q0.5 -0.140625 1.484375 -0.25q2.03125 -0.25 2.984375 -0.578125q0 -0.34375 0 -0.4375q0 -1.015625 -0.46875 -1.4375q-0.640625 -0.5625 -1.90625 -0.5625q-1.171875 0 -1.734375 0.40625q-0.5625 0.40625 -0.828125 1.46875l-1.640625 -0.234375q0.234375 -1.046875 0.734375 -1.6875q0.515625 -0.640625 1.46875 -0.984375q0.96875 -0.359375 2.25 -0.359375q1.265625 0 2.046875 0.296875q0.78125 0.296875 1.15625 0.75q0.375 0.453125 0.515625 1.140625q0.09375 0.421875 0.09375 1.53125l0 2.234375q0 2.328125 0.09375 2.953125q0.109375 0.609375 0.4375 1.171875l-1.75 0q-0.265625 -0.515625 -0.328125 -1.21875zm-0.140625 -3.71875q-0.90625 0.359375 -2.734375 0.625q-1.03125 0.140625 -1.453125 0.328125q-0.421875 0.1875 -0.65625 0.546875q-0.234375 0.359375 -0.234375 0.796875q0 0.671875 0.5 1.125q0.515625 0.4375 1.484375 0.4375q0.96875 0 1.71875 -0.421875q0.75 -0.4375 1.109375 -1.15625q0.265625 -0.578125 0.265625 -1.671875l0 -0.609375zm4.0788574 8.71875l0 -13.640625l1.53125 0l0 1.28125q0.53125 -0.75 1.203125 -1.125q0.6875 -0.375 1.640625 -0.375q1.265625 0 2.234375 0.65625q0.96875 0.640625 1.453125 1.828125q0.5 1.1875 0.5 2.59375q0 1.515625 -0.546875 2.734375q-0.546875 1.203125 -1.578125 1.84375q-1.03125 0.640625 -2.171875 0.640625q-0.84375 0 -1.515625 -0.34375q-0.65625 -0.359375 -1.078125 -0.890625l0 4.796875l-1.671875 0zm1.515625 -8.65625q0 1.90625 0.765625 2.8125q0.78125 0.90625 1.875 0.90625q1.109375 0 1.890625 -0.9375q0.796875 -0.9375 0.796875 -2.921875q0 -1.875 -0.78125 -2.8125q-0.765625 -0.9375 -1.84375 -0.9375q-1.0625 0 -1.890625 1.0q-0.8125 1.0 -0.8125 2.890625zm8.860077 -4.984375l1.671875 0l0 7.515625l4.625 -7.515625l1.8125 0l0 9.859375l-1.671875 0l0 -7.46875l-4.640625 7.46875l-1.796875 0l0 -9.859375zm17.171265 6.6875l1.71875 0.21875q-0.40625 1.5 -1.515625 2.34375q-1.09375 0.828125 -2.8125 0.828125q-2.15625 0 -3.421875 -1.328125q-1.265625 -1.328125 -1.265625 -3.734375q0 -2.484375 1.265625 -3.859375q1.28125 -1.375 3.328125 -1.375q1.984375 0 3.234375 1.34375q1.25 1.34375 1.25 3.796875q0 0.140625 -0.015625 0.4375l-7.34375 0q0.09375 1.625 0.921875 2.484375q0.828125 0.859375 2.0625 0.859375q0.90625 0 1.546875 -0.46875q0.65625 -0.484375 1.046875 -1.546875zm-5.484375 -2.703125l5.5 0q-0.109375 -1.234375 -0.625 -1.859375q-0.796875 -0.96875 -2.078125 -0.96875q-1.140625 0 -1.9375 0.78125q-0.78125 0.765625 -0.859375 2.046875zm9.125732 -3.984375l3.84375 0q1.421875 0 2.109375 0.25q0.6875 0.234375 1.1875 0.859375q0.5 0.625 0.5 1.515625q0 0.703125 -0.296875 1.234375q-0.28125 0.515625 -0.875 0.875q0.703125 0.21875 1.15625 0.859375q0.46875 0.640625 0.46875 1.515625q-0.09375 1.390625 -1.015625 2.078125q-0.90625 0.671875 -2.640625 0.671875l-4.4375 0l0 -9.859375zm1.671875 4.15625l1.78125 0q1.0625 0 1.453125 -0.109375q0.40625 -0.109375 0.71875 -0.453125q0.3125 -0.34375 0.3125 -0.8125q0 -0.78125 -0.546875 -1.078125q-0.546875 -0.3125 -1.890625 -0.3125l-1.828125 0l0 2.765625zm0 4.328125l2.1875 0q1.421875 0 1.953125 -0.328125q0.53125 -0.328125 0.5625 -1.140625q0 -0.46875 -0.3125 -0.875q-0.3125 -0.40625 -0.796875 -0.5q-0.484375 -0.109375 -1.578125 -0.109375l-2.015625 0l0 2.953125z" fill-rule="nonzero"></path><path fill="#cfe2f3" d="m268.39996 345.10516l0 0c0 -4.9141235 3.9837036 -8.897827 8.897827 -8.897827l128.94452 0c2.3598633 0 4.623047 0.9374695 6.2917175 2.6061096c1.6686707 1.6686707 2.6061096 3.9318848 2.6061096 6.2917175l0 35.59021c0 4.9141235 -3.9837036 8.897797 -8.897827 8.897797l-128.94452 0c-4.9141235 0 -8.897827 -3.983673 -8.897827 -8.897797z" fill-rule="nonzero"></path><path stroke="#000000" stroke-width="2.0" stroke-linejoin="round" stroke-linecap="butt" d="m268.39996 345.10516l0 0c0 -4.9141235 3.9837036 -8.897827 8.897827 -8.897827l128.94452 0c2.3598633 0 4.623047 0.9374695 6.2917175 2.6061096c1.6686707 1.6686707 2.6061096 3.9318848 2.6061096 6.2917175l0 35.59021c0 4.9141235 -3.9837036 8.897797 -8.897827 8.897797l-128.94452 0c-4.9141235 0 -8.897827 -3.983673 -8.897827 -8.897797z" fill-rule="nonzero"></path><path fill="#000000" d="m309.72647 360.9678l1.796875 0.453125q-0.5625 2.21875 -2.03125 3.390625q-1.46875 1.15625 -3.59375 1.15625q-2.203125 0 -3.578125 -0.890625q-1.375 -0.90625 -2.09375 -2.59375q-0.71875 -1.703125 -0.71875 -3.65625q0 -2.125 0.796875 -3.703125q0.8125 -1.578125 2.3125 -2.390625q1.5 -0.828125 3.296875 -0.828125q2.046875 0 3.4375 1.046875q1.390625 1.03125 1.9375 2.90625l-1.765625 0.421875q-0.46875 -1.484375 -1.375 -2.15625q-0.90625 -0.6875 -2.265625 -0.6875q-1.5625 0 -2.625 0.75q-1.046875 0.75 -1.484375 2.03125q-0.421875 1.265625 -0.421875 2.609375q0 1.734375 0.5 3.03125q0.515625 1.28125 1.578125 1.921875q1.078125 0.640625 2.3125 0.640625q1.515625 0 2.5625 -0.859375q1.046875 -0.875 1.421875 -2.59375zm3.5823364 -5.09375l1.671875 0l0 8.484375l4.625 0l0 -8.484375l1.65625 0l0 8.484375l1.078125 0l0 4.171875l-1.375 0l0 -2.796875l-7.65625 0l0 -9.859375zm17.404175 6.6875l1.71875 0.21875q-0.40625 1.5 -1.515625 2.34375q-1.09375 0.828125 -2.8125 0.828125q-2.15625 0 -3.421875 -1.328125q-1.265625 -1.328125 -1.265625 -3.734375q0 -2.484375 1.265625 -3.859375q1.28125 -1.375 3.328125 -1.375q1.984375 0 3.234375 1.34375q1.25 1.34375 1.25 3.796875q0 0.140625 -0.015625 0.4375l-7.34375 0q0.09375 1.625 0.921875 2.484375q0.828125 0.859375 2.0625 0.859375q0.90625 0 1.546875 -0.46875q0.65625 -0.484375 1.046875 -1.546875zm-5.484375 -2.703125l5.5 0q-0.109375 -1.234375 -0.625 -1.859375q-0.796875 -0.96875 -2.078125 -0.96875q-1.140625 0 -1.9375 0.78125q-0.78125 0.765625 -0.859375 2.046875zm9.125732 -3.984375l1.6718445 0l0 4.109375l4.625 0l0 -4.109375l1.671875 0l0 9.859375l-1.671875 0l0 -4.375l-4.625 0l0 4.375l-1.6718445 0l0 -9.859375zm16.7247 8.640625q-0.9375 0.796875 -1.796875 1.125q-0.859375 0.3125 -1.84375 0.3125q-1.609375 0 -2.484375 -0.78125q-0.875 -0.796875 -0.875 -2.03125q0 -0.734375 0.328125 -1.328125q0.328125 -0.59375 0.859375 -0.953125q0.53125 -0.359375 1.203125 -0.546875q0.5 -0.140625 1.484375 -0.25q2.03125 -0.25 2.984375 -0.578125q0 -0.34375 0 -0.4375q0 -1.015625 -0.46875 -1.4375q-0.640625 -0.5625 -1.90625 -0.5625q-1.171875 0 -1.734375 0.40625q-0.5625 0.40625 -0.828125 1.46875l-1.640625 -0.234375q0.234375 -1.046875 0.734375 -1.6875q0.515625 -0.640625 1.46875 -0.984375q0.96875 -0.359375 2.25 -0.359375q1.265625 0 2.046875 0.296875q0.78125 0.296875 1.15625 0.75q0.375 0.453125 0.515625 1.140625q0.09375 0.421875 0.09375 1.53125l0 2.234375q0 2.328125 0.09375 2.953125q0.109375 0.609375 0.4375 1.171875l-1.75 0q-0.265625 -0.515625 -0.328125 -1.21875zm-0.140625 -3.71875q-0.90625 0.359375 -2.734375 0.625q-1.03125 0.140625 -1.453125 0.328125q-0.421875 0.1875 -0.65625 0.546875q-0.234375 0.359375 -0.234375 0.796875q0 0.671875 0.5 1.125q0.515625 0.4375 1.484375 0.4375q0.96875 0 1.71875 -0.421875q0.75 -0.4375 1.109375 -1.15625q0.265625 -0.578125 0.265625 -1.671875l0 -0.609375zm4.078827 8.71875l0 -13.640625l1.53125 0l0 1.28125q0.53125 -0.75 1.203125 -1.125q0.6875 -0.375 1.640625 -0.375q1.265625 0 2.234375 0.65625q0.96875 0.640625 1.453125 1.828125q0.5 1.1875 0.5 2.59375q0 1.515625 -0.546875 2.734375q-0.546875 1.203125 -1.578125 1.84375q-1.03125 0.640625 -2.171875 0.640625q-0.84375 0 -1.515625 -0.34375q-0.65625 -0.359375 -1.078125 -0.890625l0 4.796875l-1.671875 0zm1.515625 -8.65625q0 1.90625 0.765625 2.8125q0.78125 0.90625 1.875 0.90625q1.109375 0 1.890625 -0.9375q0.796875 -0.9375 0.796875 -2.921875q0 -1.875 -0.78125 -2.8125q-0.765625 -0.9375 -1.84375 -0.9375q-1.0625 0 -1.890625 1.0q-0.8125 1.0 -0.8125 2.890625zm8.860107 -4.984375l1.671875 0l0 7.515625l4.625 -7.515625l1.8125 0l0 9.859375l-1.671875 0l0 -7.46875l-4.640625 7.46875l-1.796875 0l0 -9.859375zm10.421265 0l1.671875 0l0 7.515625l4.625 -7.515625l1.8125 0l0 9.859375l-1.671875 0l0 -7.46875l-4.640625 7.46875l-1.796875 0l0 -9.859375z" fill-rule="nonzero"></path><path fill="#000000" fill-opacity="0.0" d="m341.73856 291.6719l0.03149414 44.53543" fill-rule="nonzero"></path><path stroke="#000000" stroke-width="2.0" stroke-linejoin="round" stroke-linecap="butt" d="m341.73856 291.6719l0.023010254 32.53543" fill-rule="evenodd"></path><path fill="#000000" stroke="#000000" stroke-width="2.0" stroke-linecap="butt" d="m338.4581 324.2097l3.3098755 9.073853l3.297058 -9.078522z" fill-rule="evenodd"></path><path fill="#000000" fill-opacity="0.0" d="m546.03656 153.47125l0 34.864044l-204.28345 0l0 34.86824" fill-rule="nonzero"></path><path stroke="#000000" stroke-width="2.0" stroke-linejoin="round" stroke-linecap="butt" d="m546.03656 153.47125l0 34.864044l-204.28345 0l0 22.86824" fill-rule="evenodd"></path><path fill="#000000" stroke="#000000" stroke-width="2.0" stroke-linecap="butt" d="m338.44965 211.20354l3.3034668 9.076187l3.3034668 -9.076187z" fill-rule="evenodd"></path></g></svg>

