<?xml version="1.0" encoding="UTF-8" standalone="no"?>
<!-- Created with Inkscape (http://www.inkscape.org/) -->

<svg
   xmlns:dc="http://purl.org/dc/elements/1.1/"
   xmlns:cc="http://creativecommons.org/ns#"
   xmlns:rdf="http://www.w3.org/1999/02/22-rdf-syntax-ns#"
   xmlns:svg="http://www.w3.org/2000/svg"
   xmlns="http://www.w3.org/2000/svg"
   xmlns:sodipodi="http://sodipodi.sourceforge.net/DTD/sodipodi-0.dtd"
   xmlns:inkscape="http://www.inkscape.org/namespaces/inkscape"
   width="744.09448819"
   height="1052.3622047"
   id="svg3191"
   version="1.1"
   inkscape:version="0.48.3.1 r9886"
   sodipodi:docname="New document 2">
  <defs
     id="defs3193" />
  <sodipodi:namedview
     id="base"
     pagecolor="#ffffff"
     bordercolor="#666666"
     borderopacity="1.0"
     inkscape:pageopacity="0.0"
     inkscape:pageshadow="2"
     inkscape:zoom="0.35"
     inkscape:cx="375"
     inkscape:cy="520"
     inkscape:document-units="px"
     inkscape:current-layer="layer1"
     showgrid="false"
     inkscape:window-width="472"
     inkscape:window-height="363"
     inkscape:window-x="2"
     inkscape:window-y="24"
     inkscape:window-maximized="0" />
  <metadata
     id="metadata3196">
    <rdf:RDF>
      <cc:Work
         rdf:about="">
        <dc:format>image/svg+xml</dc:format>
        <dc:type
           rdf:resource="http://purl.org/dc/dcmitype/StillImage" />
        <dc:title></dc:title>
      </cc:Work>
    </rdf:RDF>
  </metadata>
  <g
     inkscape:label="Layer 1"
     inkscape:groupmode="layer"
     id="layer1">
    <path
       style="fill:#a4c2f4;fill-rule:nonzero"
       inkscape:connector-curvature="0"
       shape-rendering="crispEdges"
       d="m 403.59229,339.38942 40.19423,0 0,41.19685 -40.19423,0 0,-41.19685 z"
       id="path11" />
    <path
       style="fill:#3c78d8;fill-rule:nonzero"
       inkscape:connector-curvature="0"
       shape-rendering="crispEdges"
       d="m 443.78653,339.38942 40.19421,0 0,41.19685 -40.19421,0 0,-41.19685 z"
       id="path13" />
    <path
       style="fill:#b6d7a8;fill-rule:nonzero"
       inkscape:connector-curvature="0"
       shape-rendering="crispEdges"
       d="m 403.59229,380.58627 40.19423,0 0,41.19686 -40.19423,0 0,-41.19686 z"
       id="path15" />
    <path
       style="fill:#6aa84f;fill-rule:nonzero"
       inkscape:connector-curvature="0"
       shape-rendering="crispEdges"
       d="m 443.78653,380.58627 40.19421,0 0,41.19686 -40.19421,0 0,-41.19686 z"
       id="path17" />
    <path
       style="fill-rule:nonzero;stroke:#000000;stroke-width:1;stroke-linecap:butt"
       inkscape:connector-curvature="0"
       d="m 403.59229,338.89073 0,83.39108"
       id="path19" />
    <path
       style="fill-rule:nonzero;stroke:#000000;stroke-width:1;stroke-linecap:butt"
       inkscape:connector-curvature="0"
       d="m 443.78653,338.89073 0,83.39108"
       id="path21" />
    <path
       style="fill-rule:nonzero;stroke:#000000;stroke-width:1;stroke-linecap:butt"
       inkscape:connector-curvature="0"
       d="m 483.98074,338.89073 0,83.39108"
       id="path23" />
    <path
       style="fill-rule:nonzero;stroke:#000000;stroke-width:1;stroke-linecap:butt"
       inkscape:connector-curvature="0"
       d="m 403.0936,339.38942 81.38583,0"
       id="path25" />
    <path
       style="fill-rule:nonzero;stroke:#000000;stroke-width:1;stroke-linecap:butt"
       inkscape:connector-curvature="0"
       d="m 403.0936,380.58627 81.38583,0"
       id="path27" />
    <path
       style="fill-rule:nonzero;stroke:#000000;stroke-width:1;stroke-linecap:butt"
       inkscape:connector-curvature="0"
       d="m 403.0936,421.78313 81.38583,0"
       id="path29" />
    <path
       style="fill:#000000;fill-rule:nonzero"
       inkscape:connector-curvature="0"
       d="m 415.53557,325.11257 4.29687,-5 -2.46875,-4.85937 1.85938,0 0.82812,1.76562 q 0.46875,0.98438 0.84375,1.875 l 2.84375,-3.64062 2.04688,0 -4.14063,4.98437 2.48438,4.875 -1.85938,0 -0.98437,-2 q -0.3125,-0.64062 -0.70313,-1.59375 l -2.9375,3.59375 -2.10937,0 z"
       id="path31" />
    <path
       style="fill:#000000;fill-rule:nonzero"
       inkscape:connector-curvature="0"
       d="m 425.39495,327.8782 q 0,-1.53125 0.3125,-2.45313 0.3125,-0.9375 0.92187,-1.4375 0.625,-0.5 1.5625,-0.5 0.6875,0 1.20313,0.28125 0.53125,0.28125 0.875,0.8125 0.34375,0.51563 0.53125,1.26563 0.1875,0.75 0.1875,2.03125 0,1.51562 -0.3125,2.4375 -0.29688,0.92187 -0.92188,1.4375 -0.60937,0.5 -1.5625,0.5 -1.23437,0 -1.95312,-0.89063 -0.84375,-1.0625 -0.84375,-3.48437 z m 1.07812,0 q 0,2.10937 0.5,2.8125 0.5,0.70312 1.21875,0.70312 0.73438,0 1.21875,-0.70312 0.5,-0.70313 0.5,-2.8125 0,-2.125 -0.5,-2.8125 -0.48437,-0.70313 -1.23437,-0.70313 -0.71875,0 -1.15625,0.60938 -0.54688,0.78125 -0.54688,2.90625 z"
       id="path33" />
    <path
       style="fill:#000000;fill-rule:nonzero"
       inkscape:connector-curvature="0"
       d="m 459.21956,328.90945 0.10937,-1.5625 q 0.51563,0.14062 1,0.14062 0.51563,0 0.82813,-0.23437 0.40625,-0.29688 0.89062,-1.14063 l 0.54688,-0.96875 -1.65625,-9.89062 1.65625,0 0.75,4.98437 q 0.21875,1.48438 0.375,2.95313 l 4.40625,-7.9375 1.75,0 -6.28125,11.17187 q -0.90625,1.625 -1.60938,2.15625 -0.70312,0.53125 -1.625,0.53125 -0.57812,0 -1.14062,-0.20312 z"
       id="path35" />
    <path
       style="fill:#000000;fill-rule:nonzero"
       inkscape:connector-curvature="0"
       d="m 419.28279,359.60629 q 0,-2.42187 0.5,-3.89062 0.5,-1.46875 1.46875,-2.26563 0.98437,-0.79687 2.46875,-0.79687 1.09375,0 1.92187,0.4375 0.82813,0.4375 1.35938,1.28125 0.54687,0.82812 0.84375,2.01562 0.3125,1.1875 0.3125,3.21875 0,2.39063 -0.5,3.85938 -0.48438,1.46875 -1.46875,2.28125 -0.96875,0.79688 -2.46875,0.79688 -1.96875,0 -3.07813,-1.40625 -1.35937,-1.70313 -1.35937,-5.53126 z m 1.71875,0 q 0,3.34376 0.78125,4.45313 0.79687,1.10938 1.9375,1.10938 1.15625,0 1.9375,-1.10938 0.78125,-1.125 0.78125,-4.45313 0,-3.35937 -0.78125,-4.46875 -0.78125,-1.10937 -1.95313,-1.10937 -1.15625,0 -1.82812,0.98437 -0.875,1.23438 -0.875,4.59375 z"
       id="path37" />
    <path
       style="fill:#000000;fill-rule:nonzero"
       inkscape:connector-curvature="0"
       d="m 459.49263,362.71567 1.67188,-0.21875 q 0.28125,1.42188 0.96875,2.04688 0.70312,0.625 1.6875,0.625 1.1875,0 2,-0.8125 0.8125,-0.82813 0.8125,-2.03125 0,-1.14063 -0.76563,-1.89063 -0.75,-0.75 -1.90625,-0.75 -0.46875,0 -1.17187,0.1875 l 0.1875,-1.46875 q 0.15625,0.0156 0.26562,0.0156 1.0625,0 1.90625,-0.54688 0.85938,-0.5625 0.85938,-1.71875 0,-0.92187 -0.625,-1.51562 -0.60938,-0.60938 -1.59375,-0.60938 -0.96875,0 -1.625,0.60938 -0.64063,0.60937 -0.82813,1.84375 l -1.67187,-0.29688 q 0.29687,-1.6875 1.375,-2.60937 1.09375,-0.92188 2.71875,-0.92188 1.10937,0 2.04687,0.48438 0.9375,0.46875 1.42188,1.29687 0.5,0.82813 0.5,1.75 0,0.89063 -0.46875,1.60938 -0.46875,0.71875 -1.40625,1.15625 1.21875,0.26562 1.875,1.15625 0.67187,0.875 0.67187,2.18751 0,1.78125 -1.29687,3.01562 -1.29688,1.23438 -3.28125,1.23438 -1.79688,0 -2.98438,-1.0625 -1.17187,-1.0625 -1.34375,-2.76563 z"
       id="path39" />
    <path
       style="fill:#000000;fill-rule:nonzero"
       inkscape:connector-curvature="0"
       d="m 425.57967,407.50627 -1.67188,0 0,-10.64063 q -0.59375,0.57813 -1.57812,1.15625 -0.98438,0.5625 -1.76563,0.85938 l 0,-1.625 q 1.40625,-0.65625 2.45313,-1.59375 1.04687,-0.9375 1.48437,-1.8125 l 1.07813,0 0,13.65625 z"
       id="path41" />
    <path
       style="fill:#000000;fill-rule:nonzero"
       inkscape:connector-curvature="0"
       d="m 465.77388,407.50627 -1.67187,0 0,-10.64063 q -0.59375,0.57813 -1.57813,1.15625 -0.98437,0.5625 -1.76562,0.85938 l 0,-1.625 q 1.40625,-0.65625 2.45312,-1.59375 1.04688,-0.9375 1.48438,-1.8125 l 1.07812,0 0,13.65625 z"
       id="path43" />
    <path
       style="fill:#a4c2f4;fill-rule:nonzero"
       inkscape:connector-curvature="0"
       shape-rendering="crispEdges"
       d="m 196.01926,297.39336 40.19423,0 0,41.19685 -40.19423,0 0,-41.19685 z"
       id="path45" />
    <path
       style="fill:#a4c2f4;fill-rule:nonzero"
       inkscape:connector-curvature="0"
       shape-rendering="crispEdges"
       d="m 236.21349,297.39336 40.19423,0 0,41.19685 -40.19423,0 0,-41.19685 z"
       id="path47" />
    <path
       style="fill:#3c78d8;fill-rule:nonzero"
       inkscape:connector-curvature="0"
       shape-rendering="crispEdges"
       d="m 276.40772,297.39336 40.19423,0 0,41.19685 -40.19423,0 0,-41.19685 z"
       id="path49" />
    <path
       style="fill:#a4c2f4;fill-rule:nonzero"
       inkscape:connector-curvature="0"
       shape-rendering="crispEdges"
       d="m 196.01926,338.59021 40.19423,0 0,41.19685 -40.19423,0 0,-41.19685 z"
       id="path51" />
    <path
       style="fill:#a4c2f4;fill-rule:nonzero"
       inkscape:connector-curvature="0"
       shape-rendering="crispEdges"
       d="m 236.21349,338.59021 40.19423,0 0,41.19685 -40.19423,0 0,-41.19685 z"
       id="path53" />
    <path
       style="fill:#3c78d8;fill-rule:nonzero"
       inkscape:connector-curvature="0"
       shape-rendering="crispEdges"
       d="m 276.40772,338.59021 40.19423,0 0,41.19685 -40.19423,0 0,-41.19685 z"
       id="path55" />
    <path
       style="fill:#b6d7a8;fill-rule:nonzero"
       inkscape:connector-curvature="0"
       shape-rendering="crispEdges"
       d="m 196.01926,379.78706 40.19423,0 0,41.19686 -40.19423,0 0,-41.19685 z"
       id="path57" />
    <path
       style="fill:#b6d7a8;fill-rule:nonzero"
       inkscape:connector-curvature="0"
       shape-rendering="crispEdges"
       d="m 236.21349,379.78706 40.19423,0 0,41.19686 -40.19423,0 0,-41.19685 z"
       id="path59" />
    <path
       style="fill:#6aa84f;fill-rule:nonzero"
       inkscape:connector-curvature="0"
       shape-rendering="crispEdges"
       d="m 276.40772,379.78706 40.19423,0 0,41.19686 -40.19423,0 0,-41.19685 z"
       id="path61" />
    <path
       style="fill:#b6d7a8;fill-rule:nonzero"
       inkscape:connector-curvature="0"
       shape-rendering="crispEdges"
       d="m 196.01926,420.98392 40.19423,0 0,41.19684 -40.19423,0 0,-41.19684 z"
       id="path63" />
    <path
       style="fill:#b6d7a8;fill-rule:nonzero"
       inkscape:connector-curvature="0"
       shape-rendering="crispEdges"
       d="m 236.21349,420.98392 40.19423,0 0,41.19684 -40.19423,0 0,-41.19684 z"
       id="path65" />
    <path
       style="fill:#6aa84f;fill-rule:nonzero"
       inkscape:connector-curvature="0"
       shape-rendering="crispEdges"
       d="m 276.40772,420.98392 40.19423,0 0,41.19684 -40.19423,0 0,-41.19684 z"
       id="path67" />
    <path
       style="fill-rule:nonzero;stroke:#000000;stroke-width:1;stroke-linecap:butt"
       inkscape:connector-curvature="0"
       d="m 196.01926,296.89467 0,165.78477"
       id="path69" />
    <path
       style="fill-rule:nonzero;stroke:#000000;stroke-width:1;stroke-linecap:butt"
       inkscape:connector-curvature="0"
       d="m 236.21349,296.89467 0,165.78477"
       id="path71" />
    <path
       style="fill-rule:nonzero;stroke:#000000;stroke-width:1;stroke-linecap:butt"
       inkscape:connector-curvature="0"
       d="m 276.40772,296.89467 0,165.78477"
       id="path73" />
    <path
       style="fill-rule:nonzero;stroke:#000000;stroke-width:1;stroke-linecap:butt"
       inkscape:connector-curvature="0"
       d="m 316.60195,296.89467 0,165.78477"
       id="path75" />
    <path
       style="fill-rule:nonzero;stroke:#000000;stroke-width:1;stroke-linecap:butt"
       inkscape:connector-curvature="0"
       d="m 195.52058,297.39336 121.58007,0"
       id="path77" />
    <path
       style="fill-rule:nonzero;stroke:#000000;stroke-width:1;stroke-linecap:butt"
       inkscape:connector-curvature="0"
       d="m 195.52058,338.59021 121.58007,0"
       id="path79" />
    <path
       style="fill-rule:nonzero;stroke:#000000;stroke-width:1;stroke-linecap:butt"
       inkscape:connector-curvature="0"
       d="m 195.52058,379.78706 121.58007,0"
       id="path81" />
    <path
       style="fill-rule:nonzero;stroke:#000000;stroke-width:1;stroke-linecap:butt"
       inkscape:connector-curvature="0"
       d="m 195.52058,420.98392 121.58007,0"
       id="path83" />
    <path
       style="fill-rule:nonzero;stroke:#000000;stroke-width:1;stroke-linecap:butt"
       inkscape:connector-curvature="0"
       d="m 195.52058,462.18076 121.58007,0"
       id="path85" />
    <path
       style="fill:#000000;fill-rule:nonzero"
       inkscape:connector-curvature="0"
       d="m 207.96254,283.11651 4.29688,-5 -2.46875,-4.85938 1.85937,0 0.82813,1.76563 q 0.46875,0.98437 0.84375,1.875 l 2.84375,-3.64063 2.04687,0 -4.14062,4.98438 2.48437,4.875 -1.85937,0 -0.98438,-2 q -0.3125,-0.64063 -0.70312,-1.59375 l -2.9375,3.59375 -2.10938,0 z"
       id="path87" />
    <path
       style="fill:#000000;fill-rule:nonzero"
       inkscape:connector-curvature="0"
       d="m 217.82192,285.88213 q 0,-1.53125 0.3125,-2.45312 0.3125,-0.9375 0.92187,-1.4375 0.625,-0.5 1.5625,-0.5 0.6875,0 1.20313,0.28125 0.53125,0.28125 0.875,0.8125 0.34375,0.51562 0.53125,1.26562 0.1875,0.75 0.1875,2.03125 0,1.51563 -0.3125,2.4375 -0.29688,0.92188 -0.92188,1.4375 -0.60937,0.5 -1.5625,0.5 -1.23437,0 -1.95312,-0.89062 -0.84375,-1.0625 -0.84375,-3.48438 z m 1.07812,0 q 0,2.10938 0.5,2.8125 0.5,0.70313 1.21875,0.70313 0.73438,0 1.21875,-0.70313 0.5,-0.70312 0.5,-2.8125 0,-2.125 -0.5,-2.8125 -0.48437,-0.70312 -1.23437,-0.70312 -0.71875,0 -1.15625,0.60937 -0.54688,0.78125 -0.54688,2.90625 z"
       id="path89" />
    <path
       style="fill:#000000;fill-rule:nonzero"
       inkscape:connector-curvature="0"
       d="m 248.15677,283.11651 4.29688,-5 -2.46875,-4.85938 1.85937,0 0.82813,1.76563 q 0.46875,0.98437 0.84375,1.875 l 2.84375,-3.64063 2.04687,0 -4.14062,4.98438 2.48437,4.875 -1.85937,0 -0.98438,-2 q -0.3125,-0.64063 -0.70312,-1.59375 l -2.9375,3.59375 -2.10938,0 z"
       id="path91" />
    <path
       style="fill:#000000;fill-rule:nonzero"
       inkscape:connector-curvature="0"
       d="m 261.9849,290.11651 -1.04688,0 0,-6.71875 q -0.39062,0.35937 -1.01562,0.73437 -0.60938,0.35938 -1.09375,0.53125 l 0,-1.01562 q 0.875,-0.42188 1.53125,-1 0.67187,-0.59375 0.95312,-1.15625 l 0.67188,0 0,8.625 z"
       id="path93" />
    <path
       style="fill:#000000;fill-rule:nonzero"
       inkscape:connector-curvature="0"
       d="m 291.84076,286.91338 0.10938,-1.5625 q 0.51562,0.14063 1,0.14063 0.51562,0 0.82812,-0.23438 0.40625,-0.29687 0.89063,-1.14062 l 0.54688,-0.96875 -1.65626,-9.89063 1.65626,0 0.75,4.98438 q 0.21875,1.48437 0.375,2.95312 l 4.40625,-7.9375 1.75,0 -6.28125,11.17188 q -0.90625,1.625 -1.60938,2.15625 -0.70313,0.53125 -1.625,0.53125 -0.57813,0 -1.14063,-0.20313 z"
       id="path95" />
    <path
       style="fill:#000000;fill-rule:nonzero"
       inkscape:connector-curvature="0"
       d="m 211.70977,317.61023 q 0,-2.42187 0.5,-3.89062 0.5,-1.46875 1.46875,-2.26563 0.98437,-0.79687 2.46875,-0.79687 1.09375,0 1.92187,0.4375 0.82813,0.4375 1.35938,1.28125 0.54687,0.82812 0.84375,2.01562 0.3125,1.1875 0.3125,3.21875 0,2.39063 -0.5,3.85938 -0.48438,1.46875 -1.46875,2.28125 -0.96875,0.79687 -2.46875,0.79687 -1.96875,0 -3.07813,-1.40625 -1.35937,-1.70312 -1.35937,-5.53125 z m 1.71875,0 q 0,3.34375 0.78125,4.45313 0.79687,1.10937 1.9375,1.10937 1.15625,0 1.9375,-1.10937 0.78125,-1.125 0.78125,-4.45313 0,-3.35937 -0.78125,-4.46875 -0.78125,-1.10937 -1.95313,-1.10937 -1.15625,0 -1.82812,0.98437 -0.875,1.23438 -0.875,4.59375 z"
       id="path97" />
    <path
       style="fill:#000000;fill-rule:nonzero"
       inkscape:connector-curvature="0"
       d="m 251.90399,317.61023 q 0,-2.42187 0.5,-3.89062 0.5,-1.46875 1.46875,-2.26563 0.98438,-0.79687 2.46875,-0.79687 1.09375,0 1.92188,0.4375 0.82812,0.4375 1.35937,1.28125 0.54688,0.82812 0.84375,2.01562 0.3125,1.1875 0.3125,3.21875 0,2.39063 -0.5,3.85938 -0.48437,1.46875 -1.46875,2.28125 -0.96875,0.79687 -2.46875,0.79687 -1.96875,0 -3.07812,-1.40625 -1.35938,-1.70312 -1.35938,-5.53125 z m 1.71875,0 q 0,3.34375 0.78125,4.45313 0.79688,1.10937 1.9375,1.10937 1.15625,0 1.9375,-1.10937 0.78125,-1.125 0.78125,-4.45313 0,-3.35937 -0.78125,-4.46875 -0.78125,-1.10937 -1.95312,-1.10937 -1.15625,0 -1.82813,0.98437 -0.875,1.23438 -0.875,4.59375 z"
       id="path99" />
    <path
       style="fill:#000000;fill-rule:nonzero"
       inkscape:connector-curvature="0"
       d="m 292.11384,320.71961 1.67188,-0.21875 q 0.28125,1.42187 0.96875,2.04687 0.70313,0.625 1.68751,0.625 1.1875,0 2,-0.8125 0.8125,-0.82812 0.8125,-2.03125 0,-1.14062 -0.76563,-1.89062 -0.75,-0.75 -1.90625,-0.75 -0.46875,0 -1.17187,0.1875 l 0.1875,-1.46875 q 0.15625,0.0156 0.26562,0.0156 1.0625,0 1.90625,-0.54688 0.85938,-0.5625 0.85938,-1.71875 0,-0.92187 -0.625,-1.51562 -0.60938,-0.60938 -1.59375,-0.60938 -0.96875,0 -1.62501,0.60938 -0.64063,0.60937 -0.82813,1.84375 l -1.67187,-0.29688 q 0.29687,-1.6875 1.375,-2.60937 1.09375,-0.92188 2.71876,-0.92188 1.10937,0 2.04687,0.48438 0.9375,0.46875 1.42188,1.29687 0.5,0.82813 0.5,1.75 0,0.89063 -0.46875,1.60938 -0.46875,0.71875 -1.40625,1.15625 1.21875,0.26562 1.875,1.15625 0.67187,0.875 0.67187,2.1875 0,1.78125 -1.29687,3.01562 -1.29688,1.23438 -3.28125,1.23438 -1.79689,0 -2.98439,-1.0625 -1.17187,-1.0625 -1.34375,-2.76563 z"
       id="path101" />
    <path
       style="fill:#000000;fill-rule:nonzero"
       inkscape:connector-curvature="0"
       d="m 211.70977,358.80708 q 0,-2.42187 0.5,-3.89062 0.5,-1.46875 1.46875,-2.26563 0.98437,-0.79687 2.46875,-0.79687 1.09375,0 1.92187,0.4375 0.82813,0.4375 1.35938,1.28125 0.54687,0.82812 0.84375,2.01562 0.3125,1.1875 0.3125,3.21875 0,2.39063 -0.5,3.85938 -0.48438,1.46875 -1.46875,2.28125 -0.96875,0.79687 -2.46875,0.79687 -1.96875,0 -3.07813,-1.40625 -1.35937,-1.70312 -1.35937,-5.53125 z m 1.71875,0 q 0,3.34375 0.78125,4.45313 0.79687,1.10937 1.9375,1.10937 1.15625,0 1.9375,-1.10937 0.78125,-1.125 0.78125,-4.45313 0,-3.35937 -0.78125,-4.46875 -0.78125,-1.10937 -1.95313,-1.10937 -1.15625,0 -1.82812,0.98437 -0.875,1.23438 -0.875,4.59375 z"
       id="path103" />
    <path
       style="fill:#000000;fill-rule:nonzero"
       inkscape:connector-curvature="0"
       d="m 258.20087,365.51021 -1.67187,0 0,-10.64063 q -0.59375,0.57813 -1.57813,1.15625 -0.98437,0.5625 -1.76562,0.85938 l 0,-1.625 q 1.40625,-0.65625 2.45312,-1.59375 1.04688,-0.9375 1.48438,-1.8125 l 1.07812,0 0,13.65625 z"
       id="path105" />
    <path
       style="fill:#000000;fill-rule:nonzero"
       inkscape:connector-curvature="0"
       d="m 300.87948,363.90083 0,1.60938 -8.98439,0 q -0.0156,-0.60938 0.1875,-1.15625 0.34375,-0.92188 1.09375,-1.8125 0.76563,-0.89063 2.18751,-2.0625 2.21875,-1.8125 3,-2.875 0.78125,-1.0625 0.78125,-2.01563 0,-0.98437 -0.71875,-1.67187 -0.70312,-0.6875 -1.84375,-0.6875 -1.20312,0 -1.93751,0.73437 -0.71875,0.71875 -0.71875,2 l -1.71875,-0.17187 q 0.17188,-1.92188 1.32813,-2.92188 1.15625,-1.01562 3.09376,-1.01562 1.95312,0 3.09375,1.09375 1.14062,1.07812 1.14062,2.6875 0,0.8125 -0.34375,1.60937 -0.32812,0.78125 -1.10937,1.65625 -0.76563,0.85938 -2.5625,2.39063 -1.5,1.26562 -1.93751,1.71875 -0.42188,0.4375 -0.70313,0.89062 l 6.67189,0 z"
       id="path107" />
    <path
       style="fill:#000000;fill-rule:nonzero"
       inkscape:connector-curvature="0"
       d="m 218.00664,406.70706 -1.67187,0 0,-10.64063 q -0.59375,0.57813 -1.57813,1.15625 -0.98437,0.5625 -1.76562,0.85938 l 0,-1.625 q 1.40625,-0.65625 2.45312,-1.59375 1.04688,-0.9375 1.48438,-1.8125 l 1.07812,0 0,13.65625 z"
       id="path109" />
    <path
       style="fill:#000000;fill-rule:nonzero"
       inkscape:connector-curvature="0"
       d="m 251.90399,400.00394 q 0,-2.42188 0.5,-3.89063 0.5,-1.46875 1.46875,-2.26562 0.98438,-0.79688 2.46875,-0.79688 1.09375,0 1.92188,0.4375 0.82812,0.4375 1.35937,1.28125 0.54688,0.82813 0.84375,2.01563 0.3125,1.1875 0.3125,3.21875 0,2.39062 -0.5,3.85937 -0.48437,1.46875 -1.46875,2.28125 -0.96875,0.79688 -2.46875,0.79688 -1.96875,0 -3.07812,-1.40625 -1.35938,-1.70313 -1.35938,-5.53125 z m 1.71875,0 q 0,3.34375 0.78125,4.45312 0.79688,1.10938 1.9375,1.10938 1.15625,0 1.9375,-1.10938 0.78125,-1.125 0.78125,-4.45312 0,-3.35938 -0.78125,-4.46875 -0.78125,-1.10938 -1.95312,-1.10938 -1.15625,0 -1.82813,0.98438 -0.875,1.23437 -0.875,4.59375 z"
       id="path111" />
    <path
       style="fill:#000000;fill-rule:nonzero"
       inkscape:connector-curvature="0"
       d="m 298.3951,406.70706 -1.67187,0 0,-10.64063 q -0.59375,0.57813 -1.57813,1.15625 -0.98438,0.5625 -1.76563,0.85938 l 0,-1.625 q 1.40625,-0.65625 2.45313,-1.59375 1.04688,-0.9375 1.48438,-1.8125 l 1.07812,0 0,13.65625 z"
       id="path113" />
    <path
       style="fill:#000000;fill-rule:nonzero"
       inkscape:connector-curvature="0"
       d="m 218.00664,447.90392 -1.67187,0 0,-10.64063 q -0.59375,0.57813 -1.57813,1.15625 -0.98437,0.5625 -1.76562,0.85938 l 0,-1.625 q 1.40625,-0.65625 2.45312,-1.59375 1.04688,-0.9375 1.48438,-1.8125 l 1.07812,0 0,13.65625 z"
       id="path115" />
    <path
       style="fill:#000000;fill-rule:nonzero"
       inkscape:connector-curvature="0"
       d="m 258.20087,447.90392 -1.67187,0 0,-10.64063 q -0.59375,0.57813 -1.57813,1.15625 -0.98437,0.5625 -1.76562,0.85938 l 0,-1.625 q 1.40625,-0.65625 2.45312,-1.59375 1.04688,-0.9375 1.48438,-1.8125 l 1.07812,0 0,13.65625 z"
       id="path117" />
    <path
       style="fill:#000000;fill-rule:nonzero"
       inkscape:connector-curvature="0"
       d="m 297.4576,447.90392 0,-3.25 -5.90626,0 0,-1.53125 6.21876,-8.8125 1.35938,0 0,8.8125 1.84375,0 0,1.53125 -1.84375,0 0,3.25 -1.67188,0 z m 0,-4.78125 0,-6.14063 -4.25001,6.14063 4.25001,0 z"
       id="path119" />
    <path
       style="fill:#000000;fill-opacity:0;fill-rule:nonzero"
       inkscape:connector-curvature="0"
       d="m 317.71014,319.811 84.88187,42.11024"
       id="path121" />
    <path
       style="fill-rule:evenodd;stroke:#000000;stroke-width:2;stroke-linecap:butt;stroke-linejoin:round"
       inkscape:connector-curvature="0"
       d="m 317.71014,319.811 74.13204,36.77722"
       id="path123" />
    <path
       style="fill:#000000;fill-rule:evenodd;stroke:#000000;stroke-width:2;stroke-linecap:butt"
       inkscape:connector-curvature="0"
       d="m 390.37407,359.54752 9.59874,1.07433 -6.66251,-6.99294 z"
       id="path125" />
    <path
       style="fill:#000000;fill-opacity:0;fill-rule:nonzero"
       inkscape:connector-curvature="0"
       d="m 317.21408,401.76524 85.07085,0.44095"
       id="path127" />
    <path
       style="fill-rule:evenodd;stroke:#000000;stroke-width:2;stroke-linecap:butt;stroke-linejoin:round"
       inkscape:connector-curvature="0"
       d="m 317.21408,401.76524 73.07102,0.37875"
       id="path129" />
    <path
       style="fill:#000000;fill-rule:evenodd;stroke:#000000;stroke-width:2;stroke-linecap:butt"
       inkscape:connector-curvature="0"
       d="m 390.26796,405.44742 9.0932,-3.25638 -9.05894,-3.35046 z"
       id="path131" />
    <path
       style="fill:#000000;fill-opacity:0;fill-rule:nonzero"
       inkscape:connector-curvature="0"
       d="m 256.13795,269.4803 0.34645,205.76378"
       id="path133" />
    <path
       d="m 256.13795,271.31776 0.34645,191.31081"
       id="path135"
       inkscape:connector-curvature="0"
       style="stroke:#000000;stroke-width:0.96424037;stroke-linecap:butt;stroke-linejoin:round" />
  </g>
</svg>
