<?xml version="1.0" standalone="yes"?>

<svg version="1.1" viewBox="0.0 0.0 207.23359580052494 148.1784776902887" fill="none" stroke="none" stroke-linecap="square" stroke-miterlimit="10" xmlns="http://www.w3.org/2000/svg" xmlns:xlink="http://www.w3.org/1999/xlink"><clipPath id="p.0"><path d="m0 0l207.2336 0l0 148.17848l-207.2336 0l0 -148.17848z" clip-rule="nonzero"></path></clipPath><g clip-path="url(#p.0)"><path fill="#000000" fill-opacity="0.0" d="m0 0l207.2336 0l0 148.17848l-207.2336 0z" fill-rule="nonzero"></path><path fill="#cfe2f3" d="m3.5426204 91.259766l0 0c0 -10.445572 8.672279 -18.913383 19.370079 -18.913383l0 0c5.1372643 0 10.064119 1.9926529 13.696714 5.539604c3.632595 3.5469437 5.6733665 8.357643 5.6733665 13.373779l0 0c0 10.44558 -8.672283 18.913391 -19.37008 18.913391l0 0c-10.697799 0 -19.370079 -8.467812 -19.370079 -18.913391z" fill-rule="nonzero"></path><path stroke="#000000" stroke-width="4.0" stroke-linejoin="round" stroke-linecap="butt" d="m3.5426204 91.259766l0 0c0 -10.445572 8.672279 -18.913383 19.370079 -18.913383l0 0c5.1372643 0 10.064119 1.9926529 13.696714 5.539604c3.632595 3.5469437 5.6733665 8.357643 5.6733665 13.373779l0 0c0 10.44558 -8.672283 18.913391 -19.37008 18.913391l0 0c-10.697799 0 -19.370079 -8.467812 -19.370079 -18.913391z" fill-rule="nonzero"></path><path fill="#000000" d="m18.50609 91.47664q0 -2.421875 0.5 -3.890625q0.5 -1.46875 1.46875 -2.265625q0.984375 -0.796875 2.46875 -0.796875q1.09375 0 1.921875 0.4375q0.828125 0.4375 1.359375 1.28125q0.546875 0.828125 0.84375 2.015625q0.3125 1.1875 0.3125 3.21875q0 2.390625 -0.5 3.859375q-0.484375 1.46875 -1.46875 2.28125q-0.96875 0.796875 -2.46875 0.796875q-1.96875 0 -3.078125 -1.40625q-1.359375 -1.703125 -1.359375 -5.53125zm1.71875 0q0 3.34375 0.78125 4.453125q0.796875 1.109375 1.9375 1.109375q1.15625 0 1.9375 -1.109375q0.78125 -1.125 0.78125 -4.453125q0 -3.359375 -0.78125 -4.46875q-0.78125 -1.109375 -1.953125 -1.109375q-1.15625 0 -1.828125 0.984375q-0.875 1.234375 -0.875 4.59375z" fill-rule="nonzero"></path><path fill="#cfe2f3" d="m88.81547 126.2372l0 0c0 -10.44558 8.672279 -18.913391 19.370079 -18.913391l0 0c5.1372604 0 10.064117 1.9926605 13.696709 5.539604c3.6325989 3.5469513 5.6733704 8.357643 5.6733704 13.373787l0 0c0 10.445572 -8.672279 18.913376 -19.370079 18.913376l0 0c-10.6978 0 -19.370079 -8.467804 -19.370079 -18.913376z" fill-rule="nonzero"></path><path stroke="#000000" stroke-width="2.0" stroke-linejoin="round" stroke-linecap="butt" d="m88.81547 126.2372l0 0c0 -10.44558 8.672279 -18.913391 19.370079 -18.913391l0 0c5.1372604 0 10.064117 1.9926605 13.696709 5.539604c3.6325989 3.5469513 5.6733704 8.357643 5.6733704 13.373787l0 0c0 10.445572 -8.672279 18.913376 -19.370079 18.913376l0 0c-10.6978 0 -19.370079 -8.467804 -19.370079 -18.913376z" fill-rule="nonzero"></path><path fill="#000000" d="m110.07581 133.1572l-1.671875 0l0 -10.640625q-0.59375 0.578125 -1.578125 1.15625q-0.984375 0.5625 -1.765625 0.859375l0 -1.625q1.40625 -0.65625 2.453125 -1.59375q1.046875 -0.9375 1.484375 -1.8125l1.078125 0l0 13.65625z" fill-rule="nonzero"></path><path fill="#000000" fill-opacity="0.0" d="m155.11696 66.28734l0 0c0 -12.992767 10.967178 -23.525482 24.49588 -23.525482l0 0c6.496704 0 12.727325 2.478569 17.321198 6.8904533c4.593872 4.4118843 7.1746674 10.395683 7.1746674 16.635029l0 0c0 12.992767 -10.967178 23.525482 -24.495865 23.525482l0 0c-13.528702 0 -24.49588 -10.532715 -24.49588 -23.525482z" fill-rule="nonzero"></path><path stroke="#000000" stroke-width="1.0" stroke-linejoin="round" stroke-linecap="butt" d="m155.11696 66.28734l0 0c0 -12.992767 10.967178 -23.525482 24.49588 -23.525482l0 0c6.496704 0 12.727325 2.478569 17.321198 6.8904533c4.593872 4.4118843 7.1746674 10.395683 7.1746674 16.635029l0 0c0 12.992767 -10.967178 23.525482 -24.495865 23.525482l0 0c-13.528702 0 -24.49588 -10.532715 -24.49588 -23.525482z" fill-rule="nonzero"></path><path fill="#cfe2f3" d="m160.53275 66.19708l0 0c0 -10.4408455 8.682358 -18.904823 19.392578 -18.904823l0 0c5.143219 0 10.075806 1.9917526 13.712616 5.537098c3.6368103 3.5453415 5.679947 8.353855 5.679947 13.367725l0 0c0 10.440849 -8.682343 18.90483 -19.392563 18.90483l0 0c-10.71022 0 -19.392578 -8.463982 -19.392578 -18.90483z" fill-rule="nonzero"></path><path stroke="#000000" stroke-width="2.0" stroke-linejoin="round" stroke-linecap="butt" d="m160.53275 66.19708l0 0c0 -10.4408455 8.682358 -18.904823 19.392578 -18.904823l0 0c5.143219 0 10.075806 1.9917526 13.712616 5.537098c3.6368103 3.5453415 5.679947 8.353855 5.679947 13.367725l0 0c0 10.440849 -8.682343 18.90483 -19.392563 18.90483l0 0c-10.71022 0 -19.392578 -8.463982 -19.392578 -18.90483z" fill-rule="nonzero"></path><path fill="#000000" d="m184.29996 71.507706l0 1.609375l-8.984375 0q-0.015625 -0.609375 0.1875 -1.15625q0.34375 -0.921875 1.09375 -1.8125q0.765625 -0.890625 2.1875 -2.0625q2.21875 -1.8125 3.0 -2.875q0.78125 -1.0625 0.78125 -2.0156212q0 -0.984375 -0.71875 -1.671875q-0.703125 -0.6875 -1.84375 -0.6875q-1.203125 0 -1.9375 0.734375q-0.71875 0.71875 -0.71875 2.0l-1.71875 -0.171875q0.171875 -1.921875 1.328125 -2.921875q1.15625 -1.015625 3.09375 -1.015625q1.953125 0 3.09375 1.09375q1.140625 1.078125 1.140625 2.6875q0 0.8124962 -0.34375 1.6093712q-0.328125 0.78125 -1.109375 1.65625q-0.765625 0.859375 -2.5625 2.390625q-1.5 1.265625 -1.9375 1.71875q-0.421875 0.4375 -0.703125 0.890625l6.671875 0z" fill-rule="nonzero"></path><path fill="#000000" fill-opacity="0.0" d="m42.28278 91.259766c26.110233 0 52.22047 10.803154 52.22047 21.6063" fill-rule="nonzero"></path><path stroke="#000000" stroke-width="2.0" stroke-linejoin="round" stroke-linecap="butt" d="m42.282776 91.25977c13.055119 0 26.110237 2.7007828 35.901573 6.7519684c2.4478378 1.0127945 4.6916885 2.1099854 6.6805496 3.270485c0.49721527 0.29011536 0.97850037 0.5842056 1.4430466 0.8819046c0.23227692 0.14886475 0.4603653 0.2986145 0.6841736 0.44924164c0.11190796 0.07531738 0.22273254 0.15084076 0.33248138 0.22658539l0.28829193 0.20149994" fill-rule="evenodd"></path><path fill="#000000" stroke="#000000" stroke-width="2.0" stroke-linecap="butt" d="m84.90829 104.93829l7.9161224 5.534004l-2.5069122 -9.327675z" fill-rule="evenodd"></path><path fill="#000000" fill-opacity="0.0" d="m94.48883 139.61098c0 -3.5840607 -14.472443 -2.7941132 -28.944885 -7.1681366c-14.472439 -4.374008 -28.944878 -13.911995 -28.944878 -27.82399" fill-rule="nonzero"></path><path stroke="#000000" stroke-width="2.0" stroke-linejoin="round" stroke-linecap="butt" d="m94.48884 139.61098c0 -3.5840607 -14.47245 -2.7941132 -28.944893 -7.1681366c-7.2362175 -2.1870117 -14.472439 -5.665001 -19.899605 -10.335251c-1.3567886 -1.1675568 -2.6005173 -2.409645 -3.7029076 -3.7246857c-0.55119705 -0.65753174 -1.0670624 -1.3332901 -1.5440559 -2.0271149c-0.059627533 -0.08673096 -0.118644714 -0.17373657 -0.17704773 -0.26102448l-0.019306183 -0.029258728" fill-rule="evenodd"></path><path fill="#000000" stroke="#000000" stroke-width="2.0" stroke-linecap="butt" d="m43.352158 115.07392l-5.875473 -7.666092l-0.42679596 9.649254z" fill-rule="evenodd"></path><path fill="#000000" fill-opacity="0.0" d="m36.609413 77.88599c0 -5.7952805 59.259842 -11.590553 118.51969 -11.590553" fill-rule="nonzero"></path><path stroke="#000000" stroke-width="2.0" stroke-linejoin="round" stroke-linecap="butt" d="m36.609413 77.88599c0 -2.8976364 14.814964 -5.795273 37.037407 -7.968506c11.111221 -1.0866165 24.07431 -1.9921265 37.963333 -2.6259842c6.9445114 -0.31692505 14.120514 -0.56594086 21.412247 -0.7357254c1.822937 -0.04244995 3.6531067 -0.079940796 5.4887085 -0.11230469c0.91778564 -0.016181946 1.8369446 -0.031082153 2.7572174 -0.044677734l1.8610382 -0.024810791" fill-rule="evenodd"></path><path fill="#000000" stroke="#000000" stroke-width="2.0" stroke-linecap="butt" d="m143.15099 69.67737l9.054367 -3.3628006l-9.09761 -3.243988z" fill-rule="evenodd"></path><path fill="#000000" fill-opacity="0.0" d="m162.29164 49.65231c0 -15.945229 8.661407 -31.898329 17.32283 -31.890455c8.661423 0.007873535 17.32283 15.976725 17.32283 31.953447" fill-rule="nonzero"></path><path stroke="#000000" stroke-width="2.0" stroke-linejoin="round" stroke-linecap="butt" d="m162.29164 49.65231c0 -15.945229 8.661407 -31.898329 17.322845 -31.890455c4.3307037 0.0039367676 8.661407 3.9981194 11.909439 9.988405c0.8120117 1.497572 1.5563507 3.1199017 2.2161102 4.835827c0.32987976 0.85796356 0.63861084 1.7393265 0.9240875 2.640194c0.14273071 0.45043564 0.27964783 0.90574265 0.41049194 1.3654442c0.06541443 0.22985077 0.1293335 0.46079636 0.19166565 0.69277954l0.13804626 0.5291176" fill-rule="evenodd"></path><path fill="#000000" stroke="#000000" stroke-width="2.0" stroke-linecap="butt" d="m192.12791 38.23564l4.4358826 8.579811l2.1169128 -9.423847z" fill-rule="evenodd"></path><path fill="#000000" fill-opacity="0.0" d="m127.555626 126.2372c26.031487 0 52.062996 -18.204727 52.062996 -36.409454" fill-rule="nonzero"></path><path stroke="#000000" stroke-width="2.0" stroke-linejoin="round" stroke-linecap="butt" d="m127.55562 126.2372c13.015747 0 26.031494 -4.5511856 35.79332 -11.377953c4.880905 -3.413391 8.948334 -7.3956757 11.795517 -11.662407c0.355896 -0.53334045 0.69273376 -1.0711212 1.0097046 -1.6128006l0.13137817 -0.22847748" fill-rule="evenodd"></path><path fill="#000000" stroke="#000000" stroke-width="2.0" stroke-linecap="butt" d="m179.459 102.273125l-0.6524811 -9.63662l-5.6944733 7.801491z" fill-rule="evenodd"></path><path fill="#000000" fill-opacity="0.0" d="m59.65051 65.7285l33.070866 0l0 34.330704l-33.070866 0z" fill-rule="nonzero"></path><path fill="#000000" d="m69.43176 85.94537q0 -2.421875 0.5 -3.890625q0.5 -1.46875 1.46875 -2.265625q0.984375 -0.796875 2.46875 -0.796875q1.09375 0 1.921875 0.4375q0.828125 0.4375 1.359375 1.28125q0.546875 0.828125 0.84375 2.015625q0.3125 1.1875 0.3125 3.21875q0 2.390625 -0.5 3.859375q-0.484375 1.46875 -1.46875 2.28125q-0.96875 0.796875 -2.46875 0.796875q-1.96875 0 -3.078125 -1.40625q-1.359375 -1.703125 -1.359375 -5.53125zm1.71875 0q0 3.34375 0.78125 4.453125q0.796875 1.109375 1.9375 1.109375q1.15625 0 1.9375 -1.109375q0.78125 -1.125 0.78125 -4.453125q0 -3.359375 -0.78125 -4.46875q-0.78125 -1.109375 -1.953125 -1.109375q-1.15625 0 -1.828125 0.984375q-0.875 1.234375 -0.875 4.59375z" fill-rule="nonzero"></path><path fill="#000000" fill-opacity="0.0" d="m47.776142 99.63264l33.070866 0l0 34.33071l-33.070866 0z" fill-rule="nonzero"></path><path fill="#000000" d="m63.854267 126.552635l-1.671875 0l0 -10.640625q-0.59375 0.578125 -1.578125 1.15625q-0.984375 0.5625 -1.765625 0.859375l0 -1.625q1.40625 -0.65625 2.453125 -1.59375q1.046875 -0.9375 1.484375 -1.8125l1.078125 0l0 13.65625z" fill-rule="nonzero"></path><path fill="#000000" fill-opacity="0.0" d="m73.93271 35.976013l33.07086 0l0 34.330704l-33.07086 0z" fill-rule="nonzero"></path><path fill="#000000" d="m90.01083 62.89601l-1.671875 0l0 -10.640625q-0.59375 0.578125 -1.578125 1.15625q-0.984375 0.5625 -1.765625 0.859375l0 -1.625q1.40625 -0.65625 2.453125 -1.59375q1.046875 -0.9375 1.484375 -1.8125l1.078125 0l0 13.65625z" fill-rule="nonzero"></path><path fill="#000000" fill-opacity="0.0" d="m164.98212 -12.759461l33.07086 0l0 34.330708l-33.07086 0z" fill-rule="nonzero"></path><path fill="#000000" d="m174.76337 7.457412q0 -2.421875 0.5 -3.890625q0.5 -1.46875 1.46875 -2.265625q0.984375 -0.796875 2.46875 -0.796875q1.09375 0 1.921875 0.4375q0.828125 0.4375 1.359375 1.28125q0.546875 0.828125 0.84375 2.015625q0.3125 1.1875 0.3125 3.21875q0 2.390625 -0.5 3.859375q-0.484375 1.46875 -1.46875 2.28125q-0.96875 0.796875 -2.46875 0.796875q-1.96875 0 -3.078125 -1.40625q-1.359375 -1.703125 -1.359375 -5.53125zm1.71875 0q0 3.34375 0.78125 4.453125q0.796875 1.109375 1.9375 1.109375q1.15625 0 1.9375 -1.109375q0.78125 -1.125 0.78125 -4.453125q0 -3.359375 -0.78125 -4.46875q-0.78125 -1.109375 -1.953125 -1.109375q-1.15625 0 -1.828125 0.984375q-0.875 1.234375 -0.875 4.59375z" fill-rule="nonzero"></path><path fill="#000000" fill-opacity="0.0" d="m137.05173 89.03879l33.070877 0l0 34.33071l-33.070877 0z" fill-rule="nonzero"></path><path fill="#000000" d="m146.83298 109.25566q0 -2.421875 0.5 -3.890625q0.5 -1.46875 1.46875 -2.265625q0.984375 -0.796875 2.46875 -0.796875q1.09375 0 1.921875 0.4375q0.828125 0.4375 1.359375 1.28125q0.546875 0.828125 0.84375 2.015625q0.3125 1.1875 0.3125 3.21875q0 2.390625 -0.5 3.859375q-0.484375 1.46875 -1.46875 2.28125q-0.96875 0.796875 -2.46875 0.796875q-1.96875 0 -3.078125 -1.40625q-1.359375 -1.703125 -1.359375 -5.53125zm1.71875 0q0 3.34375 0.78125 4.453125q0.796875 1.109375 1.9375 1.109375q1.15625 0 1.9375 -1.109375q0.78125 -1.125 0.78125 -4.453125q0 -3.359375 -0.78125 -4.46875q-0.78125 -1.109375 -1.953125 -1.109375q-1.15625 0 -1.828125 0.984375q-0.875 1.234375 -0.875 4.59375z" fill-rule="nonzero"></path></g></svg>

