<?xml version="1.0" standalone="yes"?>

<svg version="1.1" viewBox="0.0 0.0 336.3989501312336 314.753280839895" fill="none" stroke="none" stroke-linecap="square" stroke-miterlimit="10" xmlns="http://www.w3.org/2000/svg" xmlns:xlink="http://www.w3.org/1999/xlink"><clipPath id="p.0"><path d="m0 0l336.39896 0l0 314.7533l-336.39896 0l0 -314.7533z" clip-rule="nonzero"></path></clipPath><g clip-path="url(#p.0)"><path fill="#000000" fill-opacity="0.0" d="m0 0l336.39896 0l0 314.7533l-336.39896 0z" fill-rule="nonzero"></path><path fill="#cfe2f3" d="m5.8056192 61.306664l0 0c0 -4.3168945 3.4995346 -7.816429 7.816429 -7.816429l45.02856 0c2.0730438 0 4.061184 0.82351303 5.52705 2.2893791c1.4658661 1.4658623 2.2893753 3.4540024 2.2893753 5.52705l0 31.264778c0 4.3168945 -3.4995308 7.816429 -7.8164253 7.816429l-45.02856 0l0 0c-4.3168945 0 -7.816429 -3.4995346 -7.816429 -7.816429z" fill-rule="nonzero"></path><path stroke="#000000" stroke-width="4.0" stroke-linejoin="round" stroke-linecap="butt" d="m5.8056192 61.306664l0 0c0 -4.3168945 3.4995346 -7.816429 7.816429 -7.816429l45.02856 0c2.0730438 0 4.061184 0.82351303 5.52705 2.2893791c1.4658661 1.4658623 2.2893753 3.4540024 2.2893753 5.52705l0 31.264778c0 4.3168945 -3.4995308 7.816429 -7.8164253 7.816429l-45.02856 0l0 0c-4.3168945 0 -7.816429 -3.4995346 -7.816429 -7.816429z" fill-rule="nonzero"></path><path fill="#000000" d="m31.72972 77.15592q0 -2.421875 0.5000019 -3.890625q0.5 -1.46875 1.46875 -2.265625q0.984375 -0.796875 2.46875 -0.796875q1.09375 0 1.921875 0.4375q0.828125 0.4375 1.359375 1.28125q0.546875 0.828125 0.84375 2.015625q0.3125 1.1875 0.3125 3.21875q0 2.390625 -0.5 3.859375q-0.484375 1.46875 -1.46875 2.28125q-0.96875 0.796875 -2.46875 0.796875q-1.96875 0 -3.078125 -1.40625q-1.3593769 -1.703125 -1.3593769 -5.53125zm1.7187519 0q0 3.34375 0.78125 4.453125q0.796875 1.109375 1.9375 1.109375q1.15625 0 1.9375 -1.109375q0.78125 -1.125 0.78125 -4.453125q0 -3.359375 -0.78125 -4.46875q-0.78125 -1.109375 -1.953125 -1.109375q-1.15625 0 -1.828125 0.984375q-0.875 1.234375 -0.875 4.59375z" fill-rule="nonzero"></path><path fill="#cfe2f3" d="m175.15208 61.338764l0 0c0 -4.3168945 3.4995422 -7.816429 7.816437 -7.816429l45.02855 0c2.0730438 0 4.0611877 0.82351303 5.527054 2.2893791c1.4658661 1.4658623 2.289383 3.4540024 2.289383 5.52705l0 31.264774c0 4.3168945 -3.4995422 7.816429 -7.816437 7.816429l-45.02855 0l0 0c-4.3168945 0 -7.816437 -3.4995346 -7.816437 -7.816429z" fill-rule="nonzero"></path><path stroke="#000000" stroke-width="2.0" stroke-linejoin="round" stroke-linecap="butt" d="m175.15208 61.338764l0 0c0 -4.3168945 3.4995422 -7.816429 7.816437 -7.816429l45.02855 0c2.0730438 0 4.0611877 0.82351303 5.527054 2.2893791c1.4658661 1.4658623 2.289383 3.4540024 2.289383 5.52705l0 31.264774c0 4.3168945 -3.4995422 7.816429 -7.816437 7.816429l-45.02855 0l0 0c-4.3168945 0 -7.816437 -3.4995346 -7.816437 -7.816429z" fill-rule="nonzero"></path><path fill="#000000" d="m207.37306 83.89115l-1.671875 0l0 -10.640625q-0.59375 0.578125 -1.578125 1.15625q-0.984375 0.5625 -1.765625 0.859375l0 -1.625q1.40625 -0.65625 2.453125 -1.59375q1.046875 -0.9375 1.484375 -1.8125l1.078125 0l0 13.65625z" fill-rule="nonzero"></path><path fill="#000000" fill-opacity="0.0" d="m66.46703 76.93905c0.03150177 0 0.06299591 0.03150177 0.06299591 0.06299591" fill-rule="nonzero"></path><path stroke="#000000" stroke-width="2.0" stroke-linejoin="round" stroke-linecap="butt" d="m66.46703 76.93905c0.03150177 0 0.06299591 0.03150177 0.06299591 0.06299591" fill-rule="nonzero"></path><path fill="#000000" fill-opacity="0.0" d="m82.10977 -11.428403l78.67717 0l0 48.188976l-78.67717 0z" fill-rule="nonzero"></path><path fill="#000000" d="m98.98477 12.147845l1.625 0.15625q-0.359375 1.21875 -1.625 2.3125q-1.265625 1.09375 -3.015625 1.09375q-1.09375 0 -2.015625 -0.5q-0.90625 -0.5 -1.390625 -1.46875q-0.46875 -0.96875 -0.46875 -2.203125q0 -1.609375 0.75 -3.125q0.75 -1.515625 1.9375 -2.25q1.1875 -0.75 2.5625 -0.75q1.765625 0 2.8125 1.09375q1.0625 1.09375 1.0625 2.984375q0 0.734375 -0.140625 1.484375l-7.25 0q-0.03125 0.296875 -0.03125 0.53125q0 1.375 0.625 2.109375q0.640625 0.71875 1.5625 0.71875q0.859375 0 1.6875 -0.5625q0.84375 -0.5625 1.3125 -1.625zm-4.890625 -2.453125l5.53125 0q0.015625 -0.25 0.015625 -0.359375q0 -1.265625 -0.640625 -1.9375q-0.625 -0.671875 -1.625 -0.671875q-1.0625 0 -1.953125 0.75q-0.890625 0.734375 -1.328125 2.21875z" fill-rule="nonzero"></path><path fill="#000000" d="m104.376114 22.491596l1.359375 -6.484375q-0.875 0.6875 -2.46875 1.109375l0.1875 -0.96875q0.796875 -0.31250095 1.5625 -0.81250095q0.78125 -0.515625 1.15625 -0.90625q0.234375 -0.234375 0.453125 -0.5625l0.609375 0l-1.796875 8.625001l-1.0625 0zm6.9170456 0l1.359375 -6.484375q-0.875 0.6875 -2.46875 1.109375l0.1875 -0.96875q0.796875 -0.31250095 1.5625 -0.81250095q0.78125 -0.515625 1.15625 -0.90625q0.234375 -0.234375 0.453125 -0.5625l0.6093674 0l-1.7968674 8.625001l-1.0625 0z" fill-rule="nonzero"></path><path fill="#000000" d="m115.31957 15.72597l3.9375 -14.0625l1.34375 0l-3.9375 14.0625l-1.34375 0z" fill-rule="nonzero"></path><path fill="#000000" d="m120.87788 15.491595l0.265625 -1.296875l5.296875 -5.96875q0.5625 -0.625 1.265625 -1.3125q-1.203125 0.125 -1.71875 0.125l-3.671875 0l0.296875 -1.40625l7.6249924 0l-0.21875 1.0625l-5.3437424 6.0q-0.453125 0.515625 -1.359375 1.40625q1.40625 -0.078125 1.921875 -0.078125l3.8749924 0l-0.3125 1.46875l-7.9218674 0z" fill-rule="nonzero"></path><path fill="#000000" d="m132.72162 22.491596l1.359375 -6.484375q-0.875 0.6875 -2.46875 1.109375l0.1875 -0.96875q0.796875 -0.31250095 1.5625 -0.81250095q0.78125 -0.515625 1.15625 -0.90625q0.234375 -0.234375 0.453125 -0.5625l0.609375 0l-1.796875 8.625001l-1.0625 0z" fill-rule="nonzero"></path><path fill="#cfe2f3" d="m175.15208 165.54611l0 0c0 -4.3168945 3.4995422 -7.816437 7.816437 -7.816437l45.02855 0c2.0730438 0 4.0611877 0.82351685 5.527054 2.289383c1.4658661 1.4658661 2.289383 3.45401 2.289383 5.527054l0 31.264786c0 4.3168945 -3.4995422 7.8164215 -7.816437 7.8164215l-45.02855 0l0 0c-4.3168945 0 -7.816437 -3.499527 -7.816437 -7.8164215z" fill-rule="nonzero"></path><path stroke="#000000" stroke-width="2.0" stroke-linejoin="round" stroke-linecap="butt" d="m175.15208 165.54611l0 0c0 -4.3168945 3.4995422 -7.816437 7.816437 -7.816437l45.02855 0c2.0730438 0 4.0611877 0.82351685 5.527054 2.289383c1.4658661 1.4658661 2.289383 3.45401 2.289383 5.527054l0 31.264786c0 4.3168945 -3.4995422 7.8164215 -7.816437 7.8164215l-45.02855 0l0 0c-4.3168945 0 -7.816437 -3.499527 -7.816437 -7.8164215z" fill-rule="nonzero"></path><path fill="#000000" d="m209.85744 186.48912l0 1.609375l-8.984375 0q-0.015625 -0.609375 0.1875 -1.15625q0.34375 -0.921875 1.09375 -1.8125q0.765625 -0.890625 2.1875 -2.0625q2.21875 -1.8125 3.0 -2.875q0.78125 -1.0625 0.78125 -2.015625q0 -0.984375 -0.71875 -1.671875q-0.703125 -0.6875 -1.84375 -0.6875q-1.203125 0 -1.9375 0.734375q-0.71875 0.71875 -0.71875 2.0l-1.71875 -0.171875q0.171875 -1.921875 1.328125 -2.921875q1.15625 -1.015625 3.09375 -1.015625q1.953125 0 3.09375 1.09375q1.140625 1.078125 1.140625 2.6875q0 0.8125 -0.34375 1.609375q-0.328125 0.78125 -1.109375 1.65625q-0.765625 0.859375 -2.5625 2.390625q-1.5 1.265625 -1.9375 1.71875q-0.421875 0.4375 -0.703125 0.890625l6.671875 0z" fill-rule="nonzero"></path><path fill="#cfe2f3" d="m63.705894 244.14978l0 0c0 -4.3168945 3.4995346 -7.8164215 7.816429 -7.8164215l45.028557 0c2.0730438 0 4.0611877 0.82351685 5.527054 2.289383c1.4658585 1.4658661 2.2893753 3.4539948 2.2893753 5.5270386l0 31.26477c0 4.3168945 -3.4995346 7.816437 -7.816429 7.816437l-45.028557 0l0 0c-4.3168945 0 -7.816429 -3.4995422 -7.816429 -7.816437z" fill-rule="nonzero"></path><path stroke="#000000" stroke-width="2.0" stroke-linejoin="round" stroke-linecap="butt" d="m63.705894 244.14978l0 0c0 -4.3168945 3.4995346 -7.8164215 7.816429 -7.8164215l45.028557 0c2.0730438 0 4.0611877 0.82351685 5.527054 2.289383c1.4658585 1.4658661 2.2893753 3.4539948 2.2893753 5.5270386l0 31.26477c0 4.3168945 -3.4995346 7.816437 -7.816429 7.816437l-45.028557 0l0 0c-4.3168945 0 -7.816429 -3.4995422 -7.816429 -7.816437z" fill-rule="nonzero"></path><path fill="#000000" d="m89.64562 263.10843l1.671875 -0.21875q0.28125 1.421875 0.96875 2.046875q0.703125 0.625 1.6875 0.625q1.1875 0 2.0 -0.8125q0.8125 -0.828125 0.8125 -2.03125q0 -1.140625 -0.765625 -1.890625q-0.75 -0.75 -1.90625 -0.75q-0.46875 0 -1.171875 0.1875l0.1875 -1.46875q0.15625 0.015625 0.265625 0.015625q1.0625 0 1.90625 -0.546875q0.859375 -0.5625 0.859375 -1.71875q0 -0.921875 -0.625 -1.515625q-0.609375 -0.609375 -1.59375 -0.609375q-0.96875 0 -1.625 0.609375q-0.640625 0.609375 -0.828125 1.84375l-1.671875 -0.296875q0.296875 -1.6875 1.375 -2.609375q1.09375 -0.921875 2.71875 -0.921875q1.109375 0 2.046875 0.484375q0.9375 0.46875 1.421875 1.296875q0.5 0.828125 0.5 1.75q0 0.890625 -0.46875 1.609375q-0.46875 0.71875 -1.40625 1.15625q1.21875 0.265625 1.875 1.15625q0.671875 0.875 0.671875 2.1875q0 1.78125 -1.296875 3.015625q-1.296875 1.234375 -3.28125 1.234375q-1.796875 0 -2.984375 -1.0625q-1.171875 -1.0625 -1.34375 -2.765625z" fill-rule="nonzero"></path><path fill="#cfe2f3" d="m268.58252 244.14978l0 0c0 -4.3168945 3.4995422 -7.8164215 7.816437 -7.8164215l45.028564 0c2.073059 0 4.0611877 0.82351685 5.5270386 2.289383c1.4658813 1.4658661 2.2893982 3.4539948 2.2893982 5.5270386l0 31.26477c0 4.3168945 -3.4995422 7.816437 -7.816437 7.816437l-45.028564 0l0 0c-4.3168945 0 -7.816437 -3.4995422 -7.816437 -7.816437z" fill-rule="nonzero"></path><path stroke="#000000" stroke-width="2.0" stroke-linejoin="round" stroke-linecap="butt" d="m268.58252 244.14978l0 0c0 -4.3168945 3.4995422 -7.8164215 7.816437 -7.8164215l45.028564 0c2.073059 0 4.0611877 0.82351685 5.5270386 2.289383c1.4658813 1.4658661 2.2893982 3.4539948 2.2893982 5.5270386l0 31.26477c0 4.3168945 -3.4995422 7.816437 -7.816437 7.816437l-45.028564 0l0 0c-4.3168945 0 -7.816437 -3.4995422 -7.816437 -7.816437z" fill-rule="nonzero"></path><path fill="#000000" d="m299.866 266.70218l0 -3.25l-5.90625 0l0 -1.53125l6.21875 -8.8125l1.359375 0l0 8.8125l1.84375 0l0 1.53125l-1.84375 0l0 3.25l-1.671875 0zm0 -4.78125l0 -6.140625l-4.25 6.140625l4.25 0z" fill-rule="nonzero"></path><path fill="#000000" fill-opacity="0.0" d="m205.4828 100.41997l0 57.322845" fill-rule="nonzero"></path><path stroke="#000000" stroke-width="2.0" stroke-linejoin="round" stroke-linecap="butt" d="m205.4828 100.41997l0 45.32283" fill-rule="evenodd"></path><path fill="#000000" stroke="#000000" stroke-width="2.0" stroke-linecap="butt" d="m202.17934 145.7428l3.3034668 9.076202l3.3034515 -9.076202z" fill-rule="evenodd"></path><path fill="#000000" fill-opacity="0.0" d="m235.8135 76.97115c31.543304 0 63.08661 79.685036 63.08661 159.37009" fill-rule="nonzero"></path><path stroke="#000000" stroke-width="2.0" stroke-linejoin="round" stroke-linecap="butt" d="m235.8135 76.97115c15.771652 0 31.543304 19.921257 43.37204 49.803146c5.9143677 14.940941 10.843018 32.372047 14.29306 51.048225c1.7250366 9.338089 3.0804138 18.987457 4.004547 28.79245c0.46203613 4.9024963 0.8162842 9.843918 1.0550232 14.804764c0.029846191 0.6201019 0.057861328 1.240509 0.084106445 1.861206l0.04171753 1.0626068" fill-rule="evenodd"></path><path fill="#000000" stroke="#000000" stroke-width="2.0" stroke-linecap="butt" d="m295.36118 224.40855l3.4814148 9.00943l3.124237 -9.139435z" fill-rule="evenodd"></path><path fill="#000000" fill-opacity="0.0" d="m63.705894 259.78217c-13.77953 0 -27.559055 -79.700775 -27.559055 -159.40157" fill-rule="nonzero"></path><path stroke="#000000" stroke-width="2.0" stroke-linejoin="round" stroke-linecap="butt" d="m63.705894 259.78217c-6.8897667 0 -13.77953 -19.925186 -18.94685 -49.81299c-2.583664 -14.943893 -4.7367134 -32.37845 -6.2438507 -51.05832c-0.75356674 -9.339935 -1.3456573 -18.991196 -1.7493553 -28.798126c-0.20184708 -4.903473 -0.3565979 -9.845856 -0.4608841 -14.8076935c-0.013034821 -0.6202316 -0.025287628 -1.2407684 -0.03673935 -1.8615646l-0.018241882 -1.0633163" fill-rule="evenodd"></path><path fill="#000000" stroke="#000000" stroke-width="2.0" stroke-linecap="butt" d="m39.553318 112.35176l-3.3813515 -9.04747l-3.2253342 9.104256z" fill-rule="evenodd"></path><path fill="#000000" fill-opacity="0.0" d="m94.0366 236.33336c0 -79.68504 40.551186 -159.37009 81.10236 -159.37009" fill-rule="nonzero"></path><path stroke="#000000" stroke-width="2.0" stroke-linejoin="round" stroke-linecap="butt" d="m94.0366 236.33336c0 -39.84253 10.137802 -79.68504 25.34449 -109.56693c7.603348 -14.9409485 16.473923 -27.391731 25.978104 -36.107285c4.7520905 -4.357773 9.662582 -7.7817383 14.652283 -10.116257c0.623703 -0.2918167 1.2486572 -0.56661224 1.8746948 -0.8240814c0.31300354 -0.12873077 0.626297 -0.25312805 0.93984985 -0.37316132c0.15675354 -0.060020447 0.31358337 -0.11894226 0.4704895 -0.17676544l0.043930054 -0.0158844" fill-rule="evenodd"></path><path fill="#000000" stroke="#000000" stroke-width="2.0" stroke-linecap="butt" d="m163.94324 82.40099l8.321014 -4.90419l-9.526611 -1.5918121z" fill-rule="evenodd"></path><path fill="#000000" fill-opacity="0.0" d="m202.54913 95.469025l78.677155 0l0 48.18898l-78.677155 0z" fill-rule="nonzero"></path><path fill="#000000" d="m219.42413 119.04527l1.625 0.15625q-0.359375 1.21875 -1.625 2.3125q-1.265625 1.09375 -3.015625 1.09375q-1.09375 0 -2.015625 -0.5q-0.90625 -0.5 -1.390625 -1.46875q-0.46875 -0.96875 -0.46875 -2.203125q0 -1.609375 0.75 -3.125q0.75 -1.515625 1.9375 -2.25q1.1875 -0.75 2.5625 -0.75q1.765625 0 2.8125 1.09375q1.0625 1.09375 1.0625 2.984375q0 0.734375 -0.140625 1.484375l-7.25 0q-0.03125 0.296875 -0.03125 0.53125q0 1.375 0.625 2.109375q0.640625 0.71875 1.5625 0.71875q0.859375 0 1.6875 -0.5625q0.84375 -0.5625 1.3125 -1.625zm-4.890625 -2.453125l5.53125 0q0.015625 -0.25 0.015625 -0.359375q0 -1.265625 -0.640625 -1.9375q-0.625 -0.671875 -1.625 -0.671875q-1.0625 0 -1.953125 0.75q-0.890625 0.734375 -1.328125 2.21875z" fill-rule="nonzero"></path><path fill="#000000" d="m222.62798 129.38902q0.171875 -0.765625 0.453125 -1.28125q0.296875 -0.53125 0.765625 -0.984375q0.484375 -0.46875 1.859375 -1.5625q0.828125 -0.671875 1.140625 -0.984375q0.4375 -0.453125 0.640625 -0.890625q0.125 -0.296875 0.125 -0.65625q0 -0.59375 -0.421875 -1.0q-0.40625 -0.421875 -1.015625 -0.421875q-0.609375 0 -1.0625 0.421875q-0.453125 0.421875 -0.640625 1.34375l-1.046875 -0.15625q0.15625 -1.140625 0.890625 -1.796875q0.734375 -0.65625 1.828125 -0.65625q0.734375 0 1.328125 0.3125q0.59375 0.296875 0.890625 0.84375q0.3125 0.546875 0.3125 1.140625q0 0.859375 -0.609375 1.640625q-0.375 0.5 -2.203125 1.9375q-0.796875 0.625 -1.1875 1.03125q-0.375 0.390625 -0.5625 0.75l3.84375 0l-0.203125 0.96875l-5.125 0z" fill-rule="nonzero"></path><path fill="#000000" fill-opacity="0.0" d="m283.92447 127.33779l78.677155 0l0 48.188972l-78.677155 0z" fill-rule="nonzero"></path><path fill="#000000" d="m300.79947 150.91403l1.625 0.15625q-0.359375 1.21875 -1.625 2.3125q-1.265625 1.09375 -3.015625 1.09375q-1.09375 0 -2.015625 -0.5q-0.90625 -0.5 -1.390625 -1.46875q-0.46875 -0.96875 -0.46875 -2.203125q0 -1.609375 0.75 -3.125q0.75 -1.515625 1.9375 -2.25q1.1875 -0.75 2.5625 -0.75q1.765625 0 2.8125 1.09375q1.0625 1.09375 1.0625 2.984375q0 0.734375 -0.140625 1.484375l-7.25 0q-0.03125 0.296875 -0.03125 0.53125q0 1.375 0.625 2.109375q0.640625 0.71875 1.5625 0.71875q0.859375 0 1.6875 -0.5625q0.84375 -0.5625 1.3125 -1.625zm-4.890625 -2.453125l5.53125 0q0.015625 -0.25 0.015625 -0.359375q0 -1.265625 -0.640625 -1.9375q-0.625 -0.671875 -1.625 -0.671875q-1.0625 0 -1.953125 0.75q-0.890625 0.734375 -1.328125 2.21875z" fill-rule="nonzero"></path><path fill="#000000" d="m306.89392 161.25778l0.453125 -2.1875l-3.5 0l0.21875 -1.046875l4.8125 -5.359375l0.875 0l-1.15625 5.46875l1.21875 0l-0.203125 0.9375l-1.203125 0l-0.46875 2.1875l-1.046875 0zm0.65625 -3.125l0.75 -3.59375l-3.203125 3.59375l2.453125 0z" fill-rule="nonzero"></path><path fill="#000000" d="m310.21722 154.49216l3.9375 -14.0625l1.34375 0l-3.9375 14.0625l-1.34375 0z" fill-rule="nonzero"></path><path fill="#000000" d="m315.7755 154.25778l0.265625 -1.296875l5.296875 -5.96875q0.5625 -0.625 1.265625 -1.3125q-1.203125 0.125 -1.71875 0.125l-3.671875 0l0.296875 -1.40625l7.625 0l-0.21875 1.0625l-5.34375 6.0q-0.453125 0.515625 -1.359375 1.40625q1.40625 -0.078125 1.921875 -0.078125l3.875 0l-0.3125 1.46875l-7.921875 0z" fill-rule="nonzero"></path><path fill="#000000" d="m325.22864 158.99216l1.0625 -0.140625q0.171875 0.890625 0.609375 1.296875q0.4375 0.390625 1.0625 0.390625q0.75 0 1.265625 -0.515625q0.515625 -0.515625 0.515625 -1.28125q0 -0.71875 -0.484375 -1.1875q-0.46875 -0.484375 -1.203125 -0.484375q-0.296875 0 -0.75 0.125l0.125 -0.9375q0.109375 0.015625 0.171875 0.015625q0.671875 0 1.203125 -0.34375q0.546875 -0.359375 0.546875 -1.09375q0 -0.578125 -0.390625 -0.953125q-0.390625 -0.390625 -1.015625 -0.390625q-0.609375 0 -1.03125 0.390625q-0.40625 0.390625 -0.515625 1.15625l-1.0625 -0.1875q0.1875 -1.046875 0.875 -1.625q0.6875 -0.59375 1.703125 -0.59375q0.703125 0 1.296875 0.3125q0.59375 0.296875 0.90625 0.8125q0.3125 0.515625 0.3125 1.109375q0 0.546875 -0.296875 1.015625q-0.296875 0.453125 -0.875 0.71875q0.75 0.171875 1.171875 0.734375q0.421875 0.546875 0.421875 1.390625q0 1.125 -0.828125 1.90625q-0.8125 0.78125 -2.0625 0.78125q-1.125 0 -1.875 -0.671875q-0.75 -0.6875 -0.859375 -1.75z" fill-rule="nonzero"></path><path fill="#000000" fill-opacity="0.0" d="m164.1193 269.93655l78.67717 0l0 48.188965l-78.67717 0z" fill-rule="nonzero"></path><path fill="#000000" d="m180.9943 293.5128l1.625 0.15625q-0.359375 1.21875 -1.625 2.3125q-1.265625 1.09375 -3.015625 1.09375q-1.09375 0 -2.015625 -0.5q-0.90625 -0.5 -1.390625 -1.46875q-0.46875 -0.96875 -0.46875 -2.203125q0 -1.609375 0.75 -3.125q0.75 -1.515625 1.9375 -2.25q1.1875 -0.75 2.5625 -0.75q1.765625 0 2.8125 1.09375q1.0625 1.09375 1.0625 2.984375q0 0.734375 -0.140625 1.484375l-7.25 0q-0.03125 0.296875 -0.03125 0.53125q0 1.375 0.625 2.109375q0.640625 0.71875 1.5625 0.71875q0.859375 0 1.6875 -0.5625q0.84375 -0.5625 1.3125 -1.625zm-4.890625 -2.453125l5.53125 0q0.015625 -0.25 0.015625 -0.359375q0 -1.265625 -0.640625 -1.9375q-0.625 -0.671875 -1.625 -0.671875q-1.0625 0 -1.953125 0.75q-0.890625 0.734375 -1.328125 2.21875z" fill-rule="nonzero"></path><path fill="#000000" d="m187.08876 303.85654l0.453125 -2.1875l-3.5 0l0.21875 -1.046875l4.8125 -5.359375l0.875 0l-1.15625 5.46875l1.21875 0l-0.203125 0.9375l-1.203125 0l-0.46875 2.1875l-1.046875 0zm0.65625 -3.125l0.75 -3.59375l-3.203125 3.59375l2.453125 0z" fill-rule="nonzero"></path><path fill="#000000" d="m190.41205 297.0909l3.9375 -14.0625l1.34375 0l-3.9375 14.0625l-1.34375 0z" fill-rule="nonzero"></path><path fill="#000000" d="m195.97035 296.85654l0.265625 -1.296875l5.296875 -5.96875q0.5625 -0.625 1.265625 -1.3125q-1.203125 0.125 -1.71875 0.125l-3.671875 0l0.296875 -1.40625l7.625 0l-0.21875 1.0625l-5.34375 6.0q-0.453125 0.515625 -1.359375 1.40625q1.40625 -0.078125 1.921875 -0.078125l3.875 0l-0.3125 1.46875l-7.921875 0z" fill-rule="nonzero"></path><path fill="#000000" d="m205.42348 301.5909l1.0625 -0.140625q0.171875 0.890625 0.609375 1.296875q0.4375 0.390625 1.0625 0.390625q0.75 0 1.265625 -0.515625q0.515625 -0.515625 0.515625 -1.28125q0 -0.71875 -0.484375 -1.1875q-0.46875 -0.484375 -1.203125 -0.484375q-0.296875 0 -0.75 0.125l0.125 -0.9375q0.109375 0.015625 0.171875 0.015625q0.671875 0 1.203125 -0.34375q0.546875 -0.359375 0.546875 -1.09375q0 -0.578125 -0.390625 -0.953125q-0.390625 -0.390625 -1.015625 -0.390625q-0.609375 0 -1.03125 0.390625q-0.40625 0.390625 -0.515625 1.15625l-1.0625 -0.1875q0.1875 -1.046875 0.875 -1.625q0.6875 -0.59375 1.703125 -0.59375q0.703125 0 1.296875 0.3125q0.59375 0.296875 0.90625 0.8125q0.3125 0.515625 0.3125 1.109375q0 0.546875 -0.296875 1.015625q-0.296875 0.453125 -0.875 0.71875q0.75 0.171875 1.171875 0.734375q0.421875 0.546875 0.421875 1.390625q0 1.125 -0.828125 1.90625q-0.8125 0.78125 -2.0625 0.78125q-1.125 0 -1.875 -0.671875q-0.75 -0.6875 -0.859375 -1.75z" fill-rule="nonzero"></path><path fill="#000000" fill-opacity="0.0" d="m205.4828 204.62732c0 27.574799 -40.551193 55.149597 -81.10237 55.149597" fill-rule="nonzero"></path><path stroke="#000000" stroke-width="2.0" stroke-linejoin="round" stroke-linecap="butt" d="m205.4828 204.62732c0 13.787399 -10.137802 27.574799 -25.344498 37.91536c-7.603348 5.170273 -16.473907 9.478836 -25.978104 12.494827c-4.7520905 1.5079956 -9.662582 2.6928406 -14.652283 3.500702c-0.623703 0.100982666 -1.2486572 0.19607544 -1.8746796 0.28518677c-0.3130188 0.044525146 -0.62631226 0.08758545 -0.93984985 0.12911987l-0.33840942 0.043151855" fill-rule="evenodd"></path><path fill="#000000" stroke="#000000" stroke-width="2.0" stroke-linecap="butt" d="m136.13991 255.69922l-8.841873 3.8873596l9.272003 2.7055664z" fill-rule="evenodd"></path><path fill="#000000" fill-opacity="0.0" d="m36.13633 53.490234c0 -12.5 42.338577 -25.007875 84.67716 -25.000002c42.338577 0.007873535 84.67717 12.531496 84.67717 25.062994" fill-rule="nonzero"></path><path stroke="#000000" stroke-width="2.0" stroke-linejoin="round" stroke-linecap="butt" d="m36.136326 53.490234c0 -12.500004 42.33859 -25.007877 84.67717 -25.000002c21.169296 0.0039367676 42.338593 3.1368103 58.215546 7.8351383c3.9692383 1.1745796 7.607712 2.4470024 10.832718 3.7928352c1.612503 0.6729202 3.1216583 1.3641891 4.5170746 2.0707588c0.69773865 0.35328293 1.3670349 0.710392 2.006607 1.0709457c0.31977844 0.18027496 0.6321411 0.36141205 0.9369049 0.54336166c0.15237427 0.090976715 0.30285645 0.1821518 0.45144653 0.27352905l0.19828796 0.12382889" fill-rule="evenodd"></path><path fill="#000000" stroke="#000000" stroke-width="2.0" stroke-linecap="butt" d="m195.39742 46.27041l8.261337 5.004055l-3.1120148 -9.143612z" fill-rule="evenodd"></path><path fill="#000000" fill-opacity="0.0" d="m94.0366 283.231c0 12.5 51.22048 24.992126 102.440956 25.0c51.22046 0.007873535 102.44093 -12.468506 102.44093 -24.937012" fill-rule="nonzero"></path><path stroke="#000000" stroke-width="2.0" stroke-linejoin="round" stroke-linecap="butt" d="m94.0366 283.231c0 12.5 51.22048 24.992126 102.440956 25.0c25.61023 0.0039367676 51.22046 -3.1131897 70.42815 -7.789856c9.603821 -2.3383484 17.607025 -5.066559 23.209259 -7.9894714c0.17507935 -0.09136963 0.34780884 -0.18289185 0.51815796 -0.27459717l0.13619995 -0.074523926" fill-rule="evenodd"></path><path fill="#000000" stroke="#000000" stroke-width="2.0" stroke-linecap="butt" d="m293.1942 294.34592l3.738739 -8.905731l-8.5885315 4.4190063z" fill-rule="evenodd"></path><path fill="#000000" fill-opacity="0.0" d="m31.534021 127.33642l78.67717 0l0 48.188972l-78.67717 0z" fill-rule="nonzero"></path><path fill="#000000" d="m48.40902 150.91266l1.625 0.15625q-0.359375 1.21875 -1.625 2.3125q-1.265625 1.09375 -3.015625 1.09375q-1.09375 0 -2.015625 -0.5q-0.90625 -0.5 -1.390625 -1.46875q-0.46875 -0.96875 -0.46875 -2.203125q0 -1.609375 0.75 -3.125q0.75 -1.515625 1.9375 -2.25q1.1875 -0.75 2.5625 -0.75q1.765625 0 2.8125 1.09375q1.0625 1.09375 1.0625 2.984375q0 0.734375 -0.140625 1.484375l-7.25 0q-0.03125 0.296875 -0.03125 0.53125q0 1.375 0.625 2.109375q0.640625 0.71875 1.5625 0.71875q0.859375 0 1.6875 -0.5625q0.84375 -0.5625 1.3125 -1.625zm-4.890625 -2.453125l5.53125 0q0.015625 -0.25 0.015625 -0.359375q0 -1.265625 -0.640625 -1.9375q-0.625 -0.671875 -1.625 -0.671875q-1.0625 0 -1.953125 0.75q-0.890625 0.734375 -1.328125 2.21875z" fill-rule="nonzero"></path><path fill="#000000" d="m51.61286 161.25641q0.171875 -0.765625 0.453125 -1.28125q0.296875 -0.53125 0.765625 -0.984375q0.484375 -0.46875 1.859375 -1.5625q0.828125 -0.671875 1.140625 -0.984375q0.4375 -0.453125 0.640625 -0.890625q0.125 -0.296875 0.125 -0.65625q0 -0.59375 -0.421875 -1.0q-0.40625 -0.421875 -1.015625 -0.421875q-0.609375 0 -1.0625 0.421875q-0.453125 0.421875 -0.640625 1.34375l-1.046875 -0.15625q0.15625 -1.140625 0.890625 -1.796875q0.734375 -0.65625 1.828125 -0.65625q0.734375 0 1.328125 0.3125q0.59375 0.296875 0.890625 0.84375q0.3125 0.546875 0.3125 1.140625q0 0.859375 -0.609375 1.640625q-0.375 0.5 -2.203125 1.9375q-0.796875 0.625 -1.1875 1.03125q-0.375 0.390625 -0.5625 0.75l3.84375 0l-0.203125 0.96875l-5.125 0z" fill-rule="nonzero"></path><path fill="#000000" fill-opacity="0.0" d="m105.98102 129.24193l78.67717 0l0 48.18898l-78.67717 0z" fill-rule="nonzero"></path><path fill="#000000" d="m122.85602 152.81818l1.625 0.15625q-0.359375 1.21875 -1.625 2.3125q-1.265625 1.09375 -3.015625 1.09375q-1.09375 0 -2.015625 -0.5q-0.90625 -0.5 -1.390625 -1.46875q-0.46875 -0.96875 -0.46875 -2.203125q0 -1.609375 0.75 -3.125q0.75 -1.515625 1.9375 -2.25q1.1875 -0.75 2.5625 -0.75q1.765625 0 2.8125 1.09375q1.0625 1.09375 1.0625 2.984375q0 0.734375 -0.140625 1.484375l-7.25 0q-0.03125 0.296875 -0.03125 0.53125q0 1.375 0.625 2.109375q0.640625 0.71875 1.5625 0.71875q0.859375 0 1.6875 -0.5625q0.84375 -0.5625 1.3125 -1.625zm-4.890625 -2.453125l5.53125 0q0.015625 -0.25 0.015625 -0.359375q0 -1.265625 -0.640625 -1.9375q-0.625 -0.671875 -1.625 -0.671875q-1.0625 0 -1.953125 0.75q-0.890625 0.734375 -1.328125 2.21875z" fill-rule="nonzero"></path><path fill="#000000" d="m126.012985 160.91193l1.03125 -0.125q0.125 0.890625 0.515625 1.28125q0.40625 0.390625 1.0625 0.390625q0.78125 0 1.34375 -0.5625q0.578125 -0.5625 0.578125 -1.28125q0 -0.640625 -0.4375 -1.046875q-0.421875 -0.421875 -1.140625 -0.421875q-0.078125 0 -0.34375 0.03125l0.1875 -0.890625q0.15625 0.03125 0.296875 0.03125q0.90625 0 1.390625 -0.4375q0.484375 -0.453125 0.484375 -1.09375q0 -0.59375 -0.40625 -1.0q-0.390625 -0.40625 -0.96875 -0.40625q-0.5625 0 -1.03125 0.421875q-0.453125 0.40625 -0.578125 1.171875l-1.046875 -0.21875q0.265625 -1.0625 1.0 -1.640625q0.734375 -0.578125 1.734375 -0.578125q1.046875 0 1.703125 0.640625q0.65625 0.640625 0.65625 1.5625q0 0.6875 -0.359375 1.203125q-0.34375 0.5 -1.0625 0.828125q0.5 0.296875 0.75 0.71875q0.25 0.421875 0.25 0.96875q0 1.15625 -0.859375 2.0q-0.859375 0.84375 -2.0625 0.84375q-1.171875 0 -1.890625 -0.640625q-0.71875 -0.65625 -0.796875 -1.75z" fill-rule="nonzero"></path><path fill="#000000" d="m132.27377 156.3963l3.9375 -14.0625l1.34375 0l-3.9375 14.0625l-1.34375 0z" fill-rule="nonzero"></path><path fill="#000000" d="m137.83208 156.16193l0.265625 -1.296875l5.296875 -5.96875q0.5625 -0.625 1.265625 -1.3125q-1.203125 0.125 -1.71875 0.125l-3.671875 0l0.296875 -1.40625l7.625 0l-0.21875 1.0625l-5.34375 6.0q-0.453125 0.515625 -1.359375 1.40625q1.40625 -0.078125 1.921875 -0.078125l3.875 0l-0.3125 1.46875l-7.921875 0z" fill-rule="nonzero"></path><path fill="#000000" d="m147.2852 160.8963l1.0625 -0.140625q0.171875 0.890625 0.609375 1.296875q0.4375 0.390625 1.0625 0.390625q0.75 0 1.265625 -0.515625q0.515625 -0.515625 0.515625 -1.28125q0 -0.71875 -0.484375 -1.1875q-0.46875 -0.484375 -1.203125 -0.484375q-0.296875 0 -0.75 0.125l0.125 -0.9375q0.109375 0.015625 0.171875 0.015625q0.671875 0 1.203125 -0.34375q0.546875 -0.359375 0.546875 -1.09375q0 -0.578125 -0.390625 -0.953125q-0.390625 -0.390625 -1.015625 -0.390625q-0.609375 0 -1.03125 0.390625q-0.40625 0.390625 -0.515625 1.15625l-1.0625 -0.1875q0.1875 -1.046875 0.875 -1.625q0.6875 -0.59375 1.703125 -0.59375q0.703125 0 1.296875 0.3125q0.59375 0.296875 0.90625 0.8125q0.3125 0.515625 0.3125 1.109375q0 0.546875 -0.296875 1.015625q-0.296875 0.453125 -0.875 0.71875q0.75 0.171875 1.171875 0.734375q0.421875 0.546875 0.421875 1.390625q0 1.125 -0.828125 1.90625q-0.8125 0.78125 -2.0625 0.78125q-1.125 0 -1.875 -0.671875q-0.75 -0.6875 -0.859375 -1.75z" fill-rule="nonzero"></path><path fill="#000000" fill-opacity="0.0" d="m179.48633 220.2146l78.677185 0l0 48.188995l-78.677185 0z" fill-rule="nonzero"></path><path fill="#000000" d="m196.36133 243.79085l1.625 0.15625q-0.359375 1.21875 -1.625 2.3125q-1.265625 1.09375 -3.015625 1.09375q-1.09375 0 -2.015625 -0.5q-0.90625 -0.5 -1.390625 -1.46875q-0.46875 -0.96875 -0.46875 -2.203125q0 -1.609375 0.75 -3.125q0.75 -1.515625 1.9375 -2.25q1.1875 -0.75 2.5625 -0.75q1.765625 0 2.8125 1.09375q1.0625 1.09375 1.0625 2.984375q0 0.734375 -0.140625 1.484375l-7.25 0q-0.03125 0.296875 -0.03125 0.53125q0 1.375 0.625 2.109375q0.640625 0.71875 1.5625 0.71875q0.859375 0 1.6875 -0.5625q0.84375 -0.5625 1.3125 -1.625zm-4.890625 -2.453125l5.53125 0q0.015625 -0.25 0.015625 -0.359375q0 -1.265625 -0.640625 -1.9375q-0.625 -0.671875 -1.625 -0.671875q-1.0625 0 -1.953125 0.75q-0.890625 0.734375 -1.328125 2.21875z" fill-rule="nonzero"></path><path fill="#000000" d="m201.75267 254.1346l1.359375 -6.484375q-0.875 0.6875 -2.46875 1.109375l0.1875 -0.96875q0.796875 -0.3125 1.5625 -0.8125q0.78125 -0.515625 1.15625 -0.90625q0.234375 -0.234375 0.453125 -0.5625l0.609375 0l-1.796875 8.625l-1.0625 0zm4.729553 0q0.171875 -0.765625 0.453125 -1.28125q0.296875 -0.53125 0.765625 -0.984375q0.484375 -0.46875 1.859375 -1.5625q0.828125 -0.671875 1.140625 -0.984375q0.4375 -0.453125 0.640625 -0.890625q0.125 -0.296875 0.125 -0.65625q0 -0.59375 -0.421875 -1.0q-0.40625 -0.421875 -1.015625 -0.421875q-0.609375 0 -1.0625 0.421875q-0.453125 0.421875 -0.640625 1.34375l-1.046875 -0.15625q0.15625 -1.140625 0.890625 -1.796875q0.734375 -0.65625 1.828125 -0.65625q0.734375 0 1.328125 0.3125q0.59373474 0.296875 0.89060974 0.84375q0.3125 0.546875 0.3125 1.140625q0 0.859375 -0.609375 1.640625q-0.375 0.5 -2.2031097 1.9375q-0.796875 0.625 -1.1875 1.03125q-0.375 0.390625 -0.5625 0.75l3.8437347 0l-0.203125 0.96875l-5.1249847 0z" fill-rule="nonzero"></path><path fill="#000000" d="m212.69614 247.36897l3.9375 -14.0625l1.34375 0l-3.9375 14.0625l-1.34375 0z" fill-rule="nonzero"></path><path fill="#000000" d="m218.25444 247.1346l0.265625 -1.296875l5.296875 -5.96875q0.5625 -0.625 1.265625 -1.3125q-1.203125 0.125 -1.71875 0.125l-3.671875 0l0.296875 -1.40625l7.625 0l-0.21875 1.0625l-5.34375 6.0q-0.453125 0.515625 -1.359375 1.40625q1.40625 -0.078125 1.921875 -0.078125l3.875 0l-0.3125 1.46875l-7.921875 0z" fill-rule="nonzero"></path><path fill="#000000" d="m227.91069 254.1346q0.171875 -0.765625 0.453125 -1.28125q0.296875 -0.53125 0.765625 -0.984375q0.484375 -0.46875 1.859375 -1.5625q0.828125 -0.671875 1.140625 -0.984375q0.4375 -0.453125 0.640625 -0.890625q0.125 -0.296875 0.125 -0.65625q0 -0.59375 -0.421875 -1.0q-0.40625 -0.421875 -1.015625 -0.421875q-0.609375 0 -1.0625 0.421875q-0.453125 0.421875 -0.640625 1.34375l-1.046875 -0.15625q0.15625 -1.140625 0.890625 -1.796875q0.734375 -0.65625 1.828125 -0.65625q0.734375 0 1.328125 0.3125q0.59375 0.296875 0.890625 0.84375q0.3125 0.546875 0.3125 1.140625q0 0.859375 -0.609375 1.640625q-0.375 0.5 -2.203125 1.9375q-0.796875 0.625 -1.1875 1.03125q-0.375 0.390625 -0.5625 0.75l3.84375 0l-0.203125 0.96875l-5.125 0z" fill-rule="nonzero"></path></g></svg>

