<?xml version="1.0" standalone="yes"?>

<svg version="1.1" viewBox="0.0 0.0 341.79527559055117 178.00524934383202" fill="none" stroke="none" stroke-linecap="square" stroke-miterlimit="10" xmlns="http://www.w3.org/2000/svg" xmlns:xlink="http://www.w3.org/1999/xlink"><clipPath id="p.0"><path d="m0 0l341.7953 0l0 178.00525l-341.7953 0l0 -178.00525z" clip-rule="nonzero"></path></clipPath><g clip-path="url(#p.0)"><path fill="#000000" fill-opacity="0.0" d="m0 0l341.7953 0l0 178.00525l-341.7953 0z" fill-rule="nonzero"></path><path fill="#cfe2f3" d="m4.997235 108.95041l0 0c0 -4.3168945 3.499535 -7.816429 7.8164296 -7.816429l45.02856 0c2.0730438 0 4.061184 0.82351685 5.52705 2.2893753c1.4658623 1.4658661 2.2893791 3.45401 2.2893791 5.527054l0 31.264786c0 4.3168945 -3.4995346 7.8164215 -7.816429 7.8164215l-45.02856 0l0 0c-4.3168945 0 -7.8164296 -3.499527 -7.8164296 -7.8164215z" fill-rule="nonzero"></path><path stroke="#000000" stroke-width="4.0" stroke-linejoin="round" stroke-linecap="butt" d="m4.997235 108.95041l0 0c0 -4.3168945 3.499535 -7.816429 7.8164296 -7.816429l45.02856 0c2.0730438 0 4.061184 0.82351685 5.52705 2.2893753c1.4658623 1.4658661 2.2893791 3.45401 2.2893791 5.527054l0 31.264786c0 4.3168945 -3.4995346 7.8164215 -7.816429 7.8164215l-45.02856 0l0 0c-4.3168945 0 -7.8164296 -3.499527 -7.8164296 -7.8164215z" fill-rule="nonzero"></path><path fill="#000000" d="m30.921335 124.799675q0 -2.421875 0.5 -3.890625q0.5 -1.46875 1.4687519 -2.265625q0.984375 -0.796875 2.46875 -0.796875q1.09375 0 1.921875 0.4375q0.828125 0.4375 1.359375 1.28125q0.546875 0.828125 0.84375 2.015625q0.3125 1.1875 0.3125 3.21875q0 2.390625 -0.5 3.8593674q-0.484375 1.46875 -1.46875 2.28125q-0.96875 0.796875 -2.46875 0.796875q-1.96875 0 -3.078125 -1.40625q-1.3593769 -1.703125 -1.3593769 -5.5312424zm1.7187519 0q0 3.3437424 0.78125 4.4531174q0.796875 1.109375 1.9375 1.109375q1.15625 0 1.9375 -1.109375q0.78125 -1.125 0.78125 -4.4531174q0 -3.359375 -0.78125 -4.46875q-0.78125 -1.109375 -1.953125 -1.109375q-1.15625 0 -1.828125 0.984375q-0.875 1.234375 -0.875 4.59375z" fill-rule="nonzero"></path><path fill="#cfe2f3" d="m141.55498 69.447075l0 0c0 -4.3168945 3.4995422 -7.816429 7.816437 -7.816429l45.028564 0c2.0730438 0 4.0611725 0.82351685 5.5270386 2.2893791c1.4658661 1.4658699 2.289383 3.4540062 2.289383 5.52705l0 31.264778c0 4.3168945 -3.499527 7.816429 -7.8164215 7.816429l-45.028564 0l0 0c-4.3168945 0 -7.816437 -3.4995346 -7.816437 -7.816429z" fill-rule="nonzero"></path><path stroke="#000000" stroke-width="2.0" stroke-linejoin="round" stroke-linecap="butt" d="m141.55498 69.447075l0 0c0 -4.3168945 3.4995422 -7.816429 7.816437 -7.816429l45.028564 0c2.0730438 0 4.0611725 0.82351685 5.5270386 2.2893791c1.4658661 1.4658699 2.289383 3.4540062 2.289383 5.52705l0 31.264778c0 4.3168945 -3.499527 7.816429 -7.8164215 7.816429l-45.028564 0l0 0c-4.3168945 0 -7.816437 -3.4995346 -7.816437 -7.816429z" fill-rule="nonzero"></path><path fill="#000000" d="m173.77596 91.999466l-1.671875 0l0 -10.640625q-0.59375 0.578125 -1.578125 1.15625q-0.984375 0.5625 -1.765625 0.859375l0 -1.625q1.40625 -0.65625 2.453125 -1.59375q1.046875 -0.9375 1.484375 -1.8125l1.078125 0l0 13.65625z" fill-rule="nonzero"></path><path fill="#000000" fill-opacity="0.0" d="m26.733667 99.92087c-1.9505672 -3.191597 -13.140857 -12.262032 -11.703411 -19.149605c1.4374447 -6.887581 13.551619 -22.278652 20.328085 -22.175854c6.7764626 0.10279846 19.304024 15.708225 20.330708 22.792652c1.0266838 7.084427 -11.808838 16.42826 -14.170605 19.713913" fill-rule="nonzero"></path><path stroke="#000000" stroke-width="2.0" stroke-linejoin="round" stroke-linecap="butt" d="m26.733667 99.92087c-1.9505672 -3.191597 -13.140857 -12.262032 -11.70341 -19.149605c1.4374437 -6.887581 13.551618 -22.278656 20.328083 -22.175854c6.7764664 0.10279846 19.304024 15.708225 20.330708 22.792652c0.2566681 1.7711029 -0.35304642 3.683426 -1.4489021 5.6069946c-0.54792404 0.96177673 -1.217392 1.9263763 -1.9608536 2.8775482c-0.37173462 0.4755783 -0.7619667 0.9477997 -1.1647606 1.4146423c-0.20139694 0.2334137 -0.40593338 0.465477 -0.61286545 0.695961c-0.10346985 0.115226746 -0.20753479 0.23006439 -0.3121071 0.34446716l-0.22786331 0.24719238" fill-rule="evenodd"></path><path fill="#000000" stroke="#000000" stroke-width="2.0" stroke-linecap="butt" d="m47.61428 90.250534l-4.0386353 8.773804l8.733467 -4.1251373z" fill-rule="evenodd"></path><path fill="#000000" fill-opacity="0.0" d="m65.65865 124.5828c0.03149414 0 0.06298828 0.03149414 0.06298828 0.06298828" fill-rule="nonzero"></path><path stroke="#000000" stroke-width="2.0" stroke-linejoin="round" stroke-linecap="butt" d="m65.65865 124.5828c0.03149414 0 0.06298828 0.03149414 0.06298828 0.06298828" fill-rule="nonzero"></path><path fill="#000000" fill-opacity="0.0" d="m162.78102 60.449833c-1.9505615 -3.1916008 -13.140854 -12.262028 -11.703415 -19.149605c1.4374542 -6.887577 13.5516205 -22.278652 20.328094 -22.175854c6.7764587 0.10280037 19.304016 15.708225 20.330704 22.792652c1.0266876 7.084427 -11.808838 16.428257 -14.1706085 19.71391" fill-rule="nonzero"></path><path stroke="#000000" stroke-width="2.0" stroke-linejoin="round" stroke-linecap="butt" d="m162.78102 60.449833c-1.9505615 -3.1916008 -13.140854 -12.262032 -11.703415 -19.149605c1.4374542 -6.887577 13.551636 -22.278652 20.328094 -22.175852c6.776474 0.10279846 19.304031 15.708223 20.330704 22.79265c0.2566681 1.7711029 -0.3530426 3.683422 -1.4488983 5.6069946c-0.54792786 0.96178436 -1.217392 1.9263802 -1.9608612 2.8775482c-0.37173462 0.47558212 -0.76197815 0.9478035 -1.1647491 1.4146423c-0.20141602 0.23341751 -0.40594482 0.46548843 -0.61286926 0.6959572c-0.10346985 0.115234375 -0.20753479 0.2300682 -0.31210327 0.3444748l-0.2278595 0.24718857" fill-rule="evenodd"></path><path fill="#000000" stroke="#000000" stroke-width="2.0" stroke-linecap="butt" d="m183.66164 50.779503l-4.0386353 8.7738l8.733475 -4.1251373z" fill-rule="evenodd"></path><path fill="#cfe2f3" d="m278.11273 108.97988l0 0c0 -4.3168945 3.4995422 -7.816429 7.816437 -7.816429l45.028564 0c2.0730286 0 4.061157 0.82351685 5.5270386 2.289383c1.4658508 1.4658661 2.2893677 3.4540024 2.2893677 5.527046l0 31.264778c0 4.3168945 -3.4995117 7.816437 -7.8164062 7.816437l-45.028564 0l0 0c-4.3168945 0 -7.816437 -3.4995422 -7.816437 -7.816437z" fill-rule="nonzero"></path><path stroke="#000000" stroke-width="2.0" stroke-linejoin="round" stroke-linecap="butt" d="m278.11273 108.97988l0 0c0 -4.3168945 3.4995422 -7.816429 7.816437 -7.816429l45.028564 0c2.0730286 0 4.061157 0.82351685 5.5270386 2.289383c1.4658508 1.4658661 2.2893677 3.4540024 2.2893677 5.527046l0 31.264778c0 4.3168945 -3.4995117 7.816437 -7.8164062 7.816437l-45.028564 0l0 0c-4.3168945 0 -7.816437 -3.4995422 -7.816437 -7.816437z" fill-rule="nonzero"></path><path fill="#000000" d="m312.81808 129.9229l0 1.609375l-8.984375 0q-0.015625 -0.609375 0.1875 -1.15625q0.34375 -0.921875 1.09375 -1.8125q0.765625 -0.890625 2.1875 -2.0625q2.21875 -1.8125 3.0 -2.875q0.78125 -1.0625 0.78125 -2.015625q0 -0.984375 -0.71875 -1.671875q-0.703125 -0.6875 -1.84375 -0.6875q-1.203125 0 -1.9375 0.734375q-0.71875 0.71875 -0.71875 2.0l-1.71875 -0.171875q0.171875 -1.921875 1.328125 -2.921875q1.15625 -1.015625 3.09375 -1.015625q1.953125 0 3.09375 1.09375q1.140625 1.078125 1.140625 2.6875q0 0.8125 -0.34375 1.609375q-0.328125 0.78125 -1.109375 1.65625q-0.765625 0.859375 -2.5625 2.390625q-1.5 1.265625 -1.9375 1.71875q-0.421875 0.4375 -0.703125 0.890625l6.671875 0z" fill-rule="nonzero"></path><path fill="#000000" fill-opacity="0.0" d="m299.84653 99.91965c-1.9505615 -3.191597 -13.140839 -12.262024 -11.7034 -19.149605c1.437439 -6.8875732 13.551605 -22.278652 20.328064 -22.17585c6.7764893 0.10279846 19.304047 15.708221 20.330719 22.792648c1.0266724 7.084427 -11.808838 16.42826 -14.170593 19.713913" fill-rule="nonzero"></path><path stroke="#000000" stroke-width="2.0" stroke-linejoin="round" stroke-linecap="butt" d="m299.84653 99.91965c-1.9505615 -3.191597 -13.140869 -12.262024 -11.7034 -19.149605c1.437439 -6.8875732 13.551605 -22.278648 20.328094 -22.17585c6.776428 0.10279465 19.303986 15.708221 20.330688 22.792648c0.25668335 1.7711105 -0.35305786 3.6834335 -1.448883 5.6069946c-0.5479431 0.961792 -1.2174072 1.9263916 -1.9608765 2.8775558c-0.37173462 0.4755783 -0.7619629 0.9478073 -1.1647339 1.4146347c-0.20141602 0.23342133 -0.40594482 0.46549225 -0.6128845 0.695961c-0.10348511 0.115242004 -0.20755005 0.23006439 -0.31210327 0.3444748l-0.22787476 0.24718475" fill-rule="evenodd"></path><path fill="#000000" stroke="#000000" stroke-width="2.0" stroke-linecap="butt" d="m320.72714 90.24931l-4.0386353 8.773804l8.73349 -4.1251373z" fill-rule="evenodd"></path><path fill="#000000" fill-opacity="0.0" d="m65.65865 124.5828c18.974098 0 28.460014 -9.874016 37.948204 -19.748032c9.488182 -9.874016 18.978653 -19.748032 37.957306 -19.748032" fill-rule="nonzero"></path><path stroke="#000000" stroke-width="2.0" stroke-linejoin="round" stroke-linecap="butt" d="m65.65865 124.5828c18.974098 0 28.460014 -9.874016 37.948196 -19.748032c4.744095 -4.9370117 9.48877 -9.874016 15.419739 -13.576775c2.965477 -1.8513794 6.2275467 -3.394188 9.934395 -4.4741592l0.69740295 -0.19622803" fill-rule="evenodd"></path><path fill="#000000" stroke="#000000" stroke-width="2.0" stroke-linecap="butt" d="m130.07156 89.865135l8.591751 -4.412712l-9.418091 -2.142334z" fill-rule="evenodd"></path><path fill="#000000" fill-opacity="0.0" d="m202.2164 85.07947c18.974106 0 28.460007 9.881889 37.948196 19.763779c9.48819 9.881889 18.978653 19.763779 37.95732 19.763779" fill-rule="nonzero"></path><path stroke="#000000" stroke-width="2.0" stroke-linejoin="round" stroke-linecap="butt" d="m202.21638 85.07947c18.974106 0 28.460022 9.881889 37.94821 19.763779c4.744095 4.9409485 9.48877 9.881889 15.4197235 13.587601c2.9654846 1.8528519 6.227539 3.3968964 9.934387 4.47773l0.6975708 0.19641876" fill-rule="evenodd"></path><path fill="#000000" stroke="#000000" stroke-width="2.0" stroke-linecap="butt" d="m265.8028 126.382484l9.418304 -2.141426l-8.591339 -4.4135437z" fill-rule="evenodd"></path><path fill="#000000" fill-opacity="0.0" d="m308.44345 148.0611c0 12.5 -68.275604 24.992126 -136.5512 25.0c-68.27559 0.007873535 -136.55118 -12.468506 -136.55118 -24.937012" fill-rule="nonzero"></path><path stroke="#000000" stroke-width="2.0" stroke-linejoin="round" stroke-linecap="butt" d="m308.44345 148.0611c0 12.5 -68.27559 24.992111 -136.5512 24.999985c-34.137802 0.0039367676 -68.2756 -3.1131897 -93.87894 -7.789856c-12.801674 -2.3383331 -23.46973 -5.066559 -30.937374 -7.9894714c-0.9334564 -0.36535645 -1.8169022 -0.73376465 -2.648262 -1.1048431l-0.13481522 -0.06123352" fill-rule="evenodd"></path><path fill="#000000" stroke="#000000" stroke-width="2.0" stroke-linecap="butt" d="m46.492867 153.65134l-8.97068 -3.5800934l4.570694 8.508759z" fill-rule="evenodd"></path><path fill="#000000" fill-opacity="0.0" d="m13.557132 25.543428l48.56693 0l0 28.25197l-48.56693 0z" fill-rule="nonzero"></path><path fill="#000000" d="m29.635256 52.46343l-1.671875 0l0 -10.640625q-0.59375 0.578125 -1.578125 1.15625q-0.984375 0.5625 -1.765625 0.859375l0 -1.625q1.40625 -0.65625 2.453125 -1.59375q1.046875 -0.9375 1.484375 -1.8125l1.078125 0l0 13.65625zm3.297594 0.234375l3.9375 -14.0625l1.34375 0l-3.9375 14.0625l-1.34375 0zm5.964554 -6.9375q0 -2.421875 0.5 -3.890625q0.5 -1.46875 1.46875 -2.265625q0.984375 -0.796875 2.46875 -0.796875q1.09375 0 1.921875 0.4375q0.828125 0.4375 1.359375 1.28125q0.546875 0.828125 0.84375 2.015625q0.3125 1.1875 0.3125 3.21875q0 2.390625 -0.5 3.859375q-0.484375 1.46875 -1.46875 2.28125q-0.96875 0.796875 -2.46875 0.796875q-1.96875 0 -3.078125 -1.40625q-1.359375 -1.703125 -1.359375 -5.53125zm1.71875 0q0 3.34375 0.78125 4.453125q0.796875 1.109375 1.9375 1.109375q1.15625 0 1.9375 -1.109375q0.78125 -1.125 0.78125 -4.453125q0 -3.359375 -0.78125 -4.46875q-0.78125 -1.109375 -1.953125 -1.109375q-1.15625 0 -1.828125 0.984375q-0.875 1.234375 -0.875 4.59375z" fill-rule="nonzero"></path><path fill="#000000" fill-opacity="0.0" d="m72.084694 69.10523l48.566925 0l0 28.251968l-48.566925 0z" fill-rule="nonzero"></path><path fill="#000000" d="m81.865944 89.322105q0 -2.421875 0.5 -3.890625q0.5 -1.46875 1.46875 -2.265625q0.984375 -0.796875 2.46875 -0.796875q1.09375 0 1.921875 0.4375q0.828125 0.4375 1.359375 1.28125q0.546875 0.828125 0.84375 2.015625q0.3125 1.1875 0.3125 3.21875q0 2.390625 -0.5 3.859375q-0.484375 1.46875 -1.46875 2.28125q-0.96875 0.796875 -2.46875 0.796875q-1.96875 0 -3.078125 -1.40625q-1.359375 -1.703125 -1.359375 -5.53125zm1.71875 0q0 3.34375 0.78125 4.453125q0.796875 1.109375 1.9375 1.109375q1.15625 0 1.9375 -1.109375q0.78125 -1.125 0.78125 -4.453125q0 -3.359375 -0.78125 -4.46875q-0.78125 -1.109375 -1.953125 -1.109375q-1.15625 0 -1.828125 0.984375q-0.875 1.234375 -0.875 4.59375zm7.875717 6.9375l3.9375 -14.0625l1.34375 0l-3.9375 14.0625l-1.34375 0zm12.261429 -0.234375l-1.671875 0l0 -10.640625q-0.59375 0.578125 -1.578125 1.15625q-0.984375 0.5625 -1.765625 0.859375l0 -1.625q1.40625 -0.65625 2.453125 -1.59375q1.046875 -0.9375 1.484375 -1.8125l1.078125 0l0 13.65625z" fill-rule="nonzero"></path><path fill="#000000" fill-opacity="0.0" d="m153.14232 -11.98207l48.566925 0l0 28.251968l-48.566925 0z" fill-rule="nonzero"></path><path fill="#000000" d="m169.22044 14.937928l-1.671875 0l0 -10.640625q-0.59375 0.578125 -1.578125 1.15625q-0.984375 0.5625 -1.765625 0.859375l0 -1.625q1.40625 -0.65625 2.453125 -1.59375q1.046875 -0.9375 1.484375 -1.8124999l1.078125 0l0 13.65625zm3.2975922 0.234375l3.9375 -14.0625l1.34375 0l-3.9375 14.0625l-1.34375 0z" fill-rule="nonzero"></path><path fill="#000000" fill-opacity="0.0" d="m223.1188 66.88624l48.566925 0l0 28.251968l-48.566925 0z" fill-rule="nonzero"></path><path fill="#000000" d="m232.90005 87.10311q0 -2.421875 0.5 -3.890625q0.5 -1.46875 1.46875 -2.265625q0.984375 -0.796875 2.46875 -0.796875q1.09375 0 1.921875 0.4375q0.828125 0.4375 1.359375 1.28125q0.546875 0.828125 0.84375 2.015625q0.3125 1.1875 0.3125 3.21875q0 2.390625 -0.5 3.859375q-0.484375 1.46875 -1.46875 2.28125q-0.96875 0.796875 -2.46875 0.796875q-1.96875 0 -3.078125 -1.40625q-1.359375 -1.703125 -1.359375 -5.53125zm1.71875 0q0 3.34375 0.78125 4.453125q0.796875 1.109375 1.9375 1.109375q1.15625 0 1.9375 -1.109375q0.78125 -1.125 0.78125 -4.453125q0 -3.359375 -0.78125 -4.46875q-0.78125 -1.109375 -1.953125 -1.109375q-1.15625 0 -1.828125 0.984375q-0.875 1.234375 -0.875 4.59375zm7.875717 6.9375l3.9375 -14.0625l1.34375 0l-3.9375 14.0625l-1.34375 0zm5.964554 -6.9375q0 -2.421875 0.5 -3.890625q0.5 -1.46875 1.46875 -2.265625q0.984375 -0.796875 2.46875 -0.796875q1.09375 0 1.921875 0.4375q0.828125 0.4375 1.359375 1.28125q0.546875 0.828125 0.84375 2.015625q0.3125 1.1875 0.3125 3.21875q0 2.390625 -0.5 3.859375q-0.484375 1.46875 -1.46875 2.28125q-0.96875 0.796875 -2.46875 0.796875q-1.96875 0 -3.078125 -1.40625q-1.359375 -1.703125 -1.359375 -5.53125zm1.71875 0q0 3.34375 0.78125 4.453125q0.796875 1.109375 1.9375 1.109375q1.15625 0 1.9375 -1.109375q0.78125 -1.125 0.78125 -4.453125q0 -3.359375 -0.78125 -4.46875q-0.78125 -1.109375 -1.953125 -1.109375q-1.15625 0 -1.828125 0.984375q-0.875 1.234375 -0.875 4.59375z" fill-rule="nonzero"></path><path fill="#000000" fill-opacity="0.0" d="m286.06494 28.439816l48.566925 0l0 28.251968l-48.566925 0z" fill-rule="nonzero"></path><path fill="#000000" d="m295.8462 48.65669q0 -2.421875 0.5 -3.890625q0.5 -1.46875 1.46875 -2.265625q0.984375 -0.796875 2.46875 -0.796875q1.09375 0 1.921875 0.4375q0.828125 0.4375 1.359375 1.28125q0.546875 0.828125 0.84375 2.015625q0.3125 1.1875 0.3125 3.21875q0 2.390625 -0.5 3.859375q-0.484375 1.46875 -1.46875 2.28125q-0.96875 0.796875 -2.46875 0.796875q-1.96875 0 -3.078125 -1.40625q-1.359375 -1.703125 -1.359375 -5.53125zm1.71875 0q0 3.34375 0.78125 4.453125q0.796875 1.109375 1.9375 1.109375q1.15625 0 1.9375 -1.109375q0.78125 -1.125 0.78125 -4.453125q0 -3.359375 -0.78125 -4.46875q-0.78125 -1.109375 -1.953125 -1.109375q-1.15625 0 -1.828125 0.984375q-0.875 1.234375 -0.875 4.59375zm7.8757324 6.9375l3.9375 -14.0625l1.34375 0l-3.9375 14.0625l-1.34375 0zm12.261414 -0.234375l-1.671875 0l0 -10.640625q-0.59375 0.578125 -1.578125 1.15625q-0.984375 0.5625 -1.765625 0.859375l0 -1.625q1.40625 -0.65625 2.453125 -1.59375q1.046875 -0.9375 1.484375 -1.8125l1.078125 0l0 13.65625z" fill-rule="nonzero"></path><path fill="#000000" fill-opacity="0.0" d="m147.09256 140.4542l48.56694 0l0 28.251968l-48.56694 0z" fill-rule="nonzero"></path><path fill="#000000" d="m163.17068 167.37419l-1.671875 0l0 -10.640625q-0.59375 0.578125 -1.578125 1.15625q-0.984375 0.5625 -1.765625 0.859375l0 -1.625q1.40625 -0.65625 2.453125 -1.59375q1.046875 -0.9375 1.484375 -1.8125l1.078125 0l0 13.65625zm3.2975922 0.234375l3.9375 -14.0625l1.34375 0l-3.9375 14.0625l-1.34375 0zm12.261429 -0.234375l-1.671875 0l0 -10.640625q-0.59375 0.578125 -1.578125 1.15625q-0.984375 0.5625 -1.765625 0.859375l0 -1.625q1.40625 -0.65625 2.453125 -1.59375q1.046875 -0.9375 1.484375 -1.8125l1.078125 0l0 13.65625z" fill-rule="nonzero"></path></g></svg>

