<?xml version="1.0" standalone="yes"?>

<svg version="1.1" viewBox="0.0 0.0 590.3910761154856 290.8950131233596" fill="none" stroke="none" stroke-linecap="square" stroke-miterlimit="10" xmlns="http://www.w3.org/2000/svg" xmlns:xlink="http://www.w3.org/1999/xlink"><clipPath id="p.0"><path d="m0 0l590.39105 0l0 290.89502l-590.39105 0l0 -290.89502z" clip-rule="nonzero"></path></clipPath><g clip-path="url(#p.0)"><path fill="#000000" fill-opacity="0.0" d="m0 0l590.39105 0l0 290.89502l-590.39105 0z" fill-rule="nonzero"></path><path fill="#cfe2f3" d="m115.226715 55.04278l0 0c0 -11.567539 9.962547 -20.944881 22.251968 -20.944881l0 0c5.901596 0 11.561462 2.206684 15.734528 6.134613c4.17305 3.927925 6.517441 9.255341 6.517441 14.810268l0 0c0 11.567539 -9.96254 20.944881 -22.251968 20.944881l0 0c-12.289421 0 -22.251968 -9.377342 -22.251968 -20.944881z" fill-rule="nonzero"></path><path stroke="#000000" stroke-width="2.0" stroke-linejoin="round" stroke-linecap="butt" d="m115.226715 55.04278l0 0c0 -11.567539 9.962547 -20.944881 22.251968 -20.944881l0 0c5.901596 0 11.561462 2.206684 15.734528 6.134613c4.17305 3.927925 6.517441 9.255341 6.517441 14.810268l0 0c0 11.567539 -9.96254 20.944881 -22.251968 20.944881l0 0c-12.289421 0 -22.251968 -9.377342 -22.251968 -20.944881z" fill-rule="nonzero"></path><path fill="#cfe2f3" d="m67.226715 119.042786l0 0c0 -11.567535 9.96254 -20.944885 22.251968 -20.944885l0 0c5.9015884 0 11.561462 2.206688 15.734512 6.1346207c4.1730576 3.927925 6.517456 9.255341 6.517456 14.810265l0 0c0 11.567535 -9.962547 20.944885 -22.251968 20.944885l0 0c-12.289429 0 -22.251968 -9.37735 -22.251968 -20.944885z" fill-rule="nonzero"></path><path stroke="#000000" stroke-width="2.0" stroke-linejoin="round" stroke-linecap="butt" d="m67.226715 119.042786l0 0c0 -11.567535 9.96254 -20.944885 22.251968 -20.944885l0 0c5.9015884 0 11.561462 2.206688 15.734512 6.1346207c4.1730576 3.927925 6.517456 9.255341 6.517456 14.810265l0 0c0 11.567535 -9.962547 20.944885 -22.251968 20.944885l0 0c-12.289429 0 -22.251968 -9.37735 -22.251968 -20.944885z" fill-rule="nonzero"></path><path fill="#cfe2f3" d="m86.72278 231.04279l0 0c0 -11.567535 9.962547 -20.944885 22.251968 -20.944885l0 0c5.9015884 0 11.56147 2.2066956 15.73452 6.134613c4.1730576 3.9279327 6.5174484 9.255341 6.5174484 14.810272l0 0c0 11.567535 -9.96254 20.944885 -22.251968 20.944885l0 0c-12.289421 0 -22.251968 -9.37735 -22.251968 -20.944885z" fill-rule="nonzero"></path><path stroke="#000000" stroke-width="2.0" stroke-linejoin="round" stroke-linecap="butt" d="m86.72278 231.04279l0 0c0 -11.567535 9.962547 -20.944885 22.251968 -20.944885l0 0c5.9015884 0 11.56147 2.2066956 15.73452 6.134613c4.1730576 3.9279327 6.5174484 9.255341 6.5174484 14.810272l0 0c0 11.567535 -9.96254 20.944885 -22.251968 20.944885l0 0c-12.289421 0 -22.251968 -9.37735 -22.251968 -20.944885z" fill-rule="nonzero"></path><path fill="#ff0000" d="m378.8435 141.55984l0 0c0 -11.567535 9.962555 -20.944878 22.251984 -20.944878l0 0c5.901581 0 11.561462 2.2066803 15.734497 6.134613c4.173065 3.927925 6.517456 9.255333 6.517456 14.810265l0 0c0 11.567535 -9.962524 20.944885 -22.251953 20.944885l0 0c-12.289429 0 -22.251984 -9.37735 -22.251984 -20.944885z" fill-rule="nonzero"></path><path stroke="#000000" stroke-width="2.0" stroke-linejoin="round" stroke-linecap="butt" d="m378.8435 141.55984l0 0c0 -11.567535 9.962555 -20.944878 22.251984 -20.944878l0 0c5.901581 0 11.561462 2.2066803 15.734497 6.134613c4.173065 3.927925 6.517456 9.255333 6.517456 14.810265l0 0c0 11.567535 -9.962524 20.944885 -22.251953 20.944885l0 0c-12.289429 0 -22.251984 -9.37735 -22.251984 -20.944885z" fill-rule="nonzero"></path><path fill="#000000" d="m402.0641 148.47984l0 -1.453125q-1.140625 1.671875 -3.125 1.671875q-0.859375 0 -1.625 -0.328125q-0.75 -0.34375 -1.125 -0.84375q-0.359375 -0.5 -0.515625 -1.234375q-0.09375 -0.5 -0.09375 -1.5625l0 -6.109375l1.671875 0l0 5.46875q0 1.3125 0.09375 1.765625q0.15625 0.65625 0.671875 1.03125q0.515625 0.375 1.265625 0.375q0.75 0 1.40625 -0.375q0.65625 -0.390625 0.921875 -1.046875q0.28125 -0.671875 0.28125 -1.9375l0 -5.28125l1.671875 0l0 9.859375l-1.5 0z" fill-rule="nonzero"></path><path fill="#cfe2f3" d="m164.97475 173.58871l0 0c0 -11.567535 9.962555 -20.944885 22.251968 -20.944885l0 0c5.901596 0 11.561462 2.2066956 15.734528 6.134613c4.17305 3.9279327 6.517441 9.255341 6.517441 14.810272l0 0c0 11.567535 -9.96254 20.944885 -22.251968 20.944885l0 0c-12.289413 0 -22.251968 -9.37735 -22.251968 -20.944885z" fill-rule="nonzero"></path><path stroke="#000000" stroke-width="2.0" stroke-linejoin="round" stroke-linecap="butt" d="m164.97475 173.58871l0 0c0 -11.567535 9.962555 -20.944885 22.251968 -20.944885l0 0c5.901596 0 11.561462 2.2066956 15.734528 6.134613c4.17305 3.9279327 6.517441 9.255341 6.517441 14.810272l0 0c0 11.567535 -9.96254 20.944885 -22.251968 20.944885l0 0c-12.289413 0 -22.251968 -9.37735 -22.251968 -20.944885z" fill-rule="nonzero"></path><path fill="#cfe2f3" d="m254.37895 223.26588l0 0c0 -11.567535 9.96254 -20.944885 22.251968 -20.944885l0 0c5.901581 0 11.561462 2.2066956 15.734528 6.134613c4.1730347 3.9279327 6.5174255 9.255341 6.5174255 14.810272l0 0c0 11.567535 -9.962524 20.944885 -22.251953 20.944885l0 0c-12.289429 0 -22.251968 -9.37735 -22.251968 -20.944885z" fill-rule="nonzero"></path><path stroke="#000000" stroke-width="2.0" stroke-linejoin="round" stroke-linecap="butt" d="m254.37895 223.26588l0 0c0 -11.567535 9.96254 -20.944885 22.251968 -20.944885l0 0c5.901581 0 11.561462 2.2066956 15.734528 6.134613c4.1730347 3.9279327 6.5174255 9.255341 6.5174255 14.810272l0 0c0 11.567535 -9.962524 20.944885 -22.251953 20.944885l0 0c-12.289429 0 -22.251968 -9.37735 -22.251968 -20.944885z" fill-rule="nonzero"></path><path fill="#00ff00" d="m512.26874 265.15564l0 0c0 -11.567535 9.962524 -20.94487 22.251953 -20.94487l0 0c5.9015503 0 11.561462 2.2066803 15.734497 6.134613c4.1730347 3.9279175 6.517456 9.255325 6.517456 14.810257l0 0c0 11.567535 -9.962524 20.944885 -22.251953 20.944885l0 0c-12.289429 0 -22.251953 -9.37735 -22.251953 -20.944885z" fill-rule="nonzero"></path><path stroke="#000000" stroke-width="2.0" stroke-linejoin="round" stroke-linecap="butt" d="m512.26874 265.15564l0 0c0 -11.567535 9.962524 -20.94487 22.251953 -20.94487l0 0c5.9015503 0 11.561462 2.2066803 15.734497 6.134613c4.1730347 3.9279175 6.517456 9.255325 6.517456 14.810257l0 0c0 11.567535 -9.962524 20.944885 -22.251953 20.944885l0 0c-12.289429 0 -22.251953 -9.37735 -22.251953 -20.944885z" fill-rule="nonzero"></path><path fill="#cfe2f3" d="m343.06137 242.92993l0 0c0 -11.567551 9.962524 -20.944885 22.251953 -20.944885l0 0c5.9016113 0 11.561462 2.2066803 15.734528 6.134613c4.173065 3.9279175 6.517456 9.255341 6.517456 14.810272l0 0c0 11.567535 -9.962555 20.944885 -22.251984 20.944885l0 0c-12.289429 0 -22.251953 -9.37735 -22.251953 -20.944885z" fill-rule="nonzero"></path><path stroke="#000000" stroke-width="2.0" stroke-linejoin="round" stroke-linecap="butt" d="m343.06137 242.92993l0 0c0 -11.567551 9.962524 -20.944885 22.251953 -20.944885l0 0c5.9016113 0 11.561462 2.2066803 15.734528 6.134613c4.173065 3.9279175 6.517456 9.255341 6.517456 14.810272l0 0c0 11.567535 -9.962555 20.944885 -22.251984 20.944885l0 0c-12.289429 0 -22.251953 -9.37735 -22.251953 -20.944885z" fill-rule="nonzero"></path><path fill="#cfe2f3" d="m275.2267 24.643833l0 0c0 -11.567538 9.962555 -20.944881 22.251984 -20.944881l0 0c5.901581 0 11.561462 2.2066867 15.734497 6.134614c4.173065 3.927927 6.517456 9.25534 6.517456 14.810267l0 0c0 11.567539 -9.962555 20.944881 -22.251953 20.944881l0 0c-12.289429 0 -22.251984 -9.377342 -22.251984 -20.944881z" fill-rule="nonzero"></path><path stroke="#000000" stroke-width="2.0" stroke-linejoin="round" stroke-linecap="butt" d="m275.2267 24.643833l0 0c0 -11.567538 9.962555 -20.944881 22.251984 -20.944881l0 0c5.901581 0 11.561462 2.2066867 15.734497 6.134614c4.173065 3.927927 6.517456 9.25534 6.517456 14.810267l0 0c0 11.567539 -9.962555 20.944881 -22.251953 20.944881l0 0c-12.289429 0 -22.251984 -9.377342 -22.251984 -20.944881z" fill-rule="nonzero"></path><path fill="#000000" fill-opacity="0.0" d="m47.73065 55.04278c16.874016 0 25.31102 0.01574707 33.74803 0.03149414c8.437004 0.015750885 16.874016 0.031497955 33.74803 0.031497955" fill-rule="nonzero"></path><path stroke="#000000" stroke-width="2.0" stroke-linejoin="round" stroke-linecap="butt" d="m47.73065 55.042778c16.874016 0 25.311028 0.015750885 33.74803 0.031497955c4.218506 0.007873535 8.437012 0.01574707 13.710136 0.021652222l8.037895 0.0064964294" fill-rule="evenodd"></path><path fill="#000000" stroke="#000000" stroke-width="2.0" stroke-linecap="butt" d="m103.22579 58.405888l9.077118 -3.3009338l-9.075272 -3.305996z" fill-rule="evenodd"></path><path fill="#000000" fill-opacity="0.0" d="m41.2132 69.85305c0 8.5948105 8.133858 12.890411 16.267715 17.189629c8.133862 4.2992096 16.26772 8.6020355 16.26772 17.204071" fill-rule="nonzero"></path><path stroke="#000000" stroke-width="2.0" stroke-linejoin="round" stroke-linecap="butt" d="m41.2132 69.85305c0 8.594818 8.133858 12.890411 16.267715 17.189629c2.0334625 1.0748062 4.066929 2.1498337 5.973301 3.2922134c0.95318604 0.57118225 1.8746033 1.1592026 2.748352 1.7724533c0.4368744 0.30662537 0.8618469 0.6195526 1.2729034 0.9398346c0.20553589 0.16014862 0.40758514 0.3221283 0.6059189 0.48607635l0.099342346 0.0834198" fill-rule="evenodd"></path><path fill="#000000" stroke="#000000" stroke-width="2.0" stroke-linecap="butt" d="m65.254395 95.14945l7.137619 6.5072784l-1.2849426 -9.572838z" fill-rule="evenodd"></path><path fill="#000000" fill-opacity="0.0" d="m89.47868 139.98767c0 17.527649 0.9370041 25.523819 1.8740158 35.055313c0.9370041 9.531494 1.8740158 20.598328 1.8740158 41.196655" fill-rule="nonzero"></path><path stroke="#000000" stroke-width="2.0" stroke-linejoin="round" stroke-linecap="butt" d="m89.47868 139.98767c0 17.527664 0.9370117 25.523819 1.8740158 35.055313c0.46850586 4.765747 0.9370117 9.915329 1.2883835 16.448257c0.1756897 3.2664642 0.32209778 6.878769 0.42458344 10.961868c0.012809753 0.51039124 0.024932861 1.028122 0.036346436 1.5534668l0.0046844482 0.23365784" fill-rule="evenodd"></path><path fill="#000000" stroke="#000000" stroke-width="2.0" stroke-linecap="butt" d="m89.8034 204.27328l3.3940735 9.042694l3.2125244 -9.10878z" fill-rule="evenodd"></path><path fill="#000000" fill-opacity="0.0" d="m153.21321 40.232513c0 -7.7952766 61.007874 -15.590551 122.01573 -15.590551" fill-rule="nonzero"></path><path stroke="#000000" stroke-width="2.0" stroke-linejoin="round" stroke-linecap="butt" d="m153.2132 40.232513c0 -3.8976364 15.251984 -7.7952766 38.129944 -10.718504c11.438965 -1.4616127 24.78444 -2.6796246 39.08316 -3.5322342c7.1493683 -0.42630386 14.537033 -0.7612572 22.043869 -0.98963356c1.8766937 -0.057094574 3.760849 -0.10752678 5.6506195 -0.15106201c0.94485474 -0.021766663 1.8911133 -0.04181099 2.838562 -0.060098648l2.2700195 -0.03954506" fill-rule="evenodd"></path><path fill="#000000" stroke="#000000" stroke-width="2.0" stroke-linecap="butt" d="m263.25674 28.044788l9.048523 -3.3785877l-9.1032715 -3.228115z" fill-rule="evenodd"></path><path fill="#000000" fill-opacity="0.0" d="m153.21321 69.85305c0 22.23146 4.566925 33.34874 9.13385 44.462914c4.566925 11.114174 9.133865 22.225235 9.133865 44.45047" fill-rule="nonzero"></path><path stroke="#000000" stroke-width="2.0" stroke-linejoin="round" stroke-linecap="butt" d="m153.2132 69.85305c0 22.23146 4.5669403 33.34874 9.133865 44.462914c2.2834625 5.5570908 4.566925 11.113396 6.2795258 18.058578c0.856308 3.4726105 1.5698853 7.2924194 2.069397 11.633163c0.062438965 0.5425873 0.121536255 1.093338 0.17713928 1.6525421c0.027801514 0.2796173 0.054733276 0.5613251 0.08078003 0.84521484l0.023864746 0.2715149" fill-rule="evenodd"></path><path fill="#000000" stroke="#000000" stroke-width="2.0" stroke-linecap="butt" d="m167.67722 146.9155l3.6811066 8.929703l2.9200134 -9.206726z" fill-rule="evenodd"></path><path fill="#000000" fill-opacity="0.0" d="m105.213196 133.85306c0 19.874008 29.874023 39.74803 59.74803 39.74803" fill-rule="nonzero"></path><path stroke="#000000" stroke-width="2.0" stroke-linejoin="round" stroke-linecap="butt" d="m105.2132 133.85304c0 9.937012 7.468506 19.874023 18.671257 27.326782c5.6013794 3.7263794 12.136322 6.8316956 19.138046 9.005417c1.7504272 0.5434265 3.5300293 1.0286407 5.3315125 1.4507751c0.9007416 0.21105957 1.806961 0.40634155 2.7177277 0.5852814c0.45539856 0.08946228 0.911911 0.17481995 1.369461 0.2559967l0.56399536 0.09741211" fill-rule="evenodd"></path><path fill="#000000" stroke="#000000" stroke-width="2.0" stroke-linecap="butt" d="m152.72266 175.86607l9.325485 -2.5150604l-8.760376 -4.0676575z" fill-rule="evenodd"></path><path fill="#000000" fill-opacity="0.0" d="m202.96124 158.77844c0 -14.1586 6.8188934 -21.23848 13.637787 -28.317215c6.8188934 -7.078743 13.637802 -14.156349 13.637802 -28.312698" fill-rule="nonzero"></path><path stroke="#000000" stroke-width="2.0" stroke-linejoin="round" stroke-linecap="butt" d="m202.96124 158.77846c0 -14.15863 6.8188934 -21.238495 13.637802 -28.31723c3.409439 -3.5393753 6.8188934 -7.078453 9.375977 -11.502251c0.6392822 -1.1059494 1.2252808 -2.267189 1.7446747 -3.4975433c0.1298523 -0.3075943 0.2555542 -0.61950684 0.37686157 -0.93595886c0.060684204 -0.15821838 0.12023926 -0.31757355 0.17868042 -0.478096l0.020187378 -0.056930542" fill-rule="evenodd"></path><path fill="#000000" stroke="#000000" stroke-width="2.0" stroke-linecap="butt" d="m231.55537 114.524895l-1.791565 -9.491081l-4.7283325 8.42218z" fill-rule="evenodd"></path><path fill="#000000" fill-opacity="0.0" d="m313.2132 39.4541c0 25.904015 18.039368 40.894638 36.078735 51.80802c18.039368 10.913391 36.078766 17.749535 36.078766 35.49906" fill-rule="nonzero"></path><path stroke="#000000" stroke-width="2.0" stroke-linejoin="round" stroke-linecap="butt" d="m313.21323 39.4541c0 25.904015 18.039368 40.894638 36.078735 51.80803c9.019684 5.456688 18.039368 9.894081 24.804138 15.185974c1.6911926 1.3229752 3.2414246 2.699356 4.615509 4.1584167c0.68704224 0.72953796 1.3300476 1.479744 1.9246216 2.2542877c0.29730225 0.38726044 0.582428 0.78061676 0.85494995 1.1805115c0.1362915 0.19994354 0.26934814 0.40151978 0.39920044 0.60479736c0.06491089 0.101638794 0.12905884 0.20368958 0.1923523 0.30618286l0.13922119 0.22935486" fill-rule="evenodd"></path><path fill="#000000" stroke="#000000" stroke-width="2.0" stroke-linecap="butt" d="m379.03424 116.04846l5.569275 7.891365l0.80615234 -9.624977z" fill-rule="evenodd"></path><path fill="#000000" fill-opacity="0.0" d="m202.96124 188.39899c0 5.014145 14.480301 7.5204163 28.960617 10.02829c14.480316 2.5078735 28.960648 5.0173492 28.960648 10.0346985" fill-rule="nonzero"></path><path stroke="#000000" stroke-width="2.0" stroke-linejoin="round" stroke-linecap="butt" d="m202.96124 188.39899c0 5.0141296 14.480316 7.520401 28.960632 10.028275c3.6200714 0.6269684 7.240158 1.2540436 10.633987 1.9203644c1.6968994 0.33317566 3.337265 0.6761627 4.892746 1.0338287c0.777771 0.17884827 1.534317 0.36138916 2.266098 0.54818726c0.18295288 0.046722412 0.3643341 0.093673706 0.54415894 0.14093018l0.4008484 0.10694885" fill-rule="evenodd"></path><path fill="#000000" stroke="#000000" stroke-width="2.0" stroke-linecap="butt" d="m248.92967 204.99171l9.462051 1.9390564l-6.001953 -7.5674896z" fill-rule="evenodd"></path><path fill="#000000" fill-opacity="0.0" d="m416.83 156.37012c0 23.493713 25.48819 35.239395 50.97638 46.987427c25.48819 11.748032 50.97641 23.498413 50.97641 46.996826" fill-rule="nonzero"></path><path stroke="#000000" stroke-width="2.0" stroke-linejoin="round" stroke-linecap="butt" stroke-dasharray="2.0,6.0" d="m416.83002 156.3701c0 23.493729 25.48819 35.23941 50.97638 46.987442c12.74408 5.8740234 25.48819 11.748627 35.046265 19.09201c4.779022 3.6717072 8.761566 7.710617 11.549316 12.300247c0.69696045 1.1473846 1.3192139 2.3292236 1.8605957 3.5483398l0.12884521 0.29690552" fill-rule="evenodd"></path><path fill="#000000" stroke="#000000" stroke-width="2.0" stroke-linecap="butt" d="m513.15424 239.25336l5.0458984 8.235855l1.4285278 -9.55246z" fill-rule="evenodd"></path><path fill="#000000" fill-opacity="0.0" d="m292.36545 238.07616c0 -1.6035919 8.1736145 -2.3814697 14.303345 -3.2071838c6.1297607 -0.8257141 10.215637 -1.6992798 14.303375 -2.6876373c4.087738 -0.9883728 8.177338 -2.0915375 14.310822 -2.6876373c6.1334534 -0.5961151 14.310791 -0.68515015 14.310791 -1.3703003" fill-rule="nonzero"></path><path stroke="#000000" stroke-width="2.0" stroke-linejoin="round" stroke-linecap="butt" d="m292.36545 238.07616c0 -1.6035919 8.1736145 -2.3814545 14.303345 -3.2071838c6.1297607 -0.8257141 10.215637 -1.6992645 14.303375 -2.6876373c4.087738 -0.98835754 8.177338 -2.0915375 14.310791 -2.6876526c0.38336182 -0.037261963 0.7746887 -0.072525024 1.1715088 -0.10609436l1.1963806 -0.095184326" fill-rule="evenodd"></path><path fill="#000000" stroke="#000000" stroke-width="2.0" stroke-linecap="butt" d="m337.9727 232.58015l8.711212 -4.171921l-9.354858 -2.403595z" fill-rule="evenodd"></path><path fill="#000000" fill-opacity="0.0" d="m423.34744 141.55984c28.751495 0 43.128967 14.062988 57.50296 28.125992c14.374023 14.062988 28.744598 28.125977 57.489197 28.125977" fill-rule="nonzero"></path><path stroke="#000000" stroke-width="2.0" stroke-linejoin="round" stroke-linecap="butt" d="m423.34744 141.55984c28.751465 0 43.128967 14.062988 57.50299 28.125977c7.1870117 7.0315094 14.373169 14.063004 23.35559 19.336624c4.4912415 2.6368256 9.431549 4.8341675 15.045563 6.372299c1.4035645 0.38453674 2.849121 0.72787476 4.340393 1.0265808c0.74560547 0.14933777 1.5026245 0.28753662 2.2714844 0.4141388l0.50946045 0.08164978" fill-rule="evenodd"></path><path fill="#000000" stroke="#000000" stroke-width="2.0" stroke-linecap="butt" d="m526.12665 200.2114l9.297241 -2.617569l-8.804626 -3.9709778z" fill-rule="evenodd"></path><path fill="#cfe2f3" d="m223.73065 87.33412l0 0c0 -11.567535 9.962555 -20.944878 22.251968 -20.944878l0 0c5.901596 0 11.561478 2.206688 15.734512 6.134613c4.173065 3.927925 6.517456 9.255341 6.517456 14.810265l0 0c0 11.567543 -9.962555 20.944885 -22.251968 20.944885l0 0c-12.289413 0 -22.251968 -9.377342 -22.251968 -20.944885z" fill-rule="nonzero"></path><path stroke="#000000" stroke-width="2.0" stroke-linejoin="round" stroke-linecap="butt" d="m223.73065 87.33412l0 0c0 -11.567535 9.962555 -20.944878 22.251968 -20.944878l0 0c5.901596 0 11.561478 2.206688 15.734512 6.134613c4.173065 3.927925 6.517456 9.255341 6.517456 14.810265l0 0c0 11.567543 -9.962555 20.944885 -22.251968 20.944885l0 0c-12.289413 0 -22.251968 -9.377342 -22.251968 -20.944885z" fill-rule="nonzero"></path><path fill="#00ff00" d="m538.3527 197.80919l0 0c0 -11.567535 9.962524 -20.944885 22.251953 -20.944885l0 0c5.9016113 0 11.561462 2.2066956 15.734497 6.134613c4.1730957 3.9279327 6.517456 9.255341 6.517456 14.810272l0 0c0 11.567535 -9.962524 20.944885 -22.251953 20.944885l0 0c-12.289429 0 -22.251953 -9.37735 -22.251953 -20.944885z" fill-rule="nonzero"></path><path stroke="#000000" stroke-width="2.0" stroke-linejoin="round" stroke-linecap="butt" d="m538.3527 197.80919l0 0c0 -11.567535 9.962524 -20.944885 22.251953 -20.944885l0 0c5.9016113 0 11.561462 2.2066956 15.734497 6.134613c4.1730957 3.9279327 6.517456 9.255341 6.517456 14.810272l0 0c0 11.567535 -9.962524 20.944885 -22.251953 20.944885l0 0c-12.289429 0 -22.251953 -9.37735 -22.251953 -20.944885z" fill-rule="nonzero"></path><path fill="#000000" d="m557.85455 204.72919l-3.75 -9.859375l1.765625 0l2.125 5.90625q0.34375 0.953125 0.625 1.984375q0.21875 -0.78125 0.625 -1.875l2.1875 -6.015625l1.71875 0l-3.734375 9.859375l-1.5625 0z" fill-rule="nonzero"></path><path fill="#00ff00" d="m525.06396 130.46274l0 0c0 -11.567543 9.962585 -20.944885 22.252014 -20.944885l0 0c5.9015503 0 11.561462 2.206688 15.734497 6.134613c4.1730347 3.927925 6.517456 9.255341 6.517456 14.810272l0 0c0 11.567535 -9.962524 20.94487 -22.251953 20.94487l0 0c-12.289429 0 -22.252014 -9.377335 -22.252014 -20.94487z" fill-rule="nonzero"></path><path stroke="#000000" stroke-width="2.0" stroke-linejoin="round" stroke-linecap="butt" d="m525.06396 130.46274l0 0c0 -11.567543 9.962585 -20.944885 22.252014 -20.944885l0 0c5.9015503 0 11.561462 2.206688 15.734497 6.134613c4.1730347 3.927925 6.517456 9.255341 6.517456 14.810272l0 0c0 11.567535 -9.962524 20.94487 -22.251953 20.94487l0 0c-12.289429 0 -22.252014 -9.377335 -22.252014 -20.94487z" fill-rule="nonzero"></path><path fill="#00ff00" d="m480.56006 69.98505l0 0c0 -11.567543 9.962524 -20.944885 22.251953 -20.944885l0 0c5.9016113 0 11.561462 2.206688 15.734497 6.134613c4.1730957 3.927929 6.517456 9.255341 6.517456 14.810272l0 0c0 11.567535 -9.962524 20.944878 -22.251953 20.944878l0 0c-12.289429 0 -22.251953 -9.377342 -22.251953 -20.944878z" fill-rule="nonzero"></path><path stroke="#000000" stroke-width="2.0" stroke-linejoin="round" stroke-linecap="butt" d="m480.56006 69.98505l0 0c0 -11.567543 9.962524 -20.944885 22.251953 -20.944885l0 0c5.9016113 0 11.561462 2.206688 15.734497 6.134613c4.1730957 3.927929 6.517456 9.255341 6.517456 14.810272l0 0c0 11.567535 -9.962524 20.944878 -22.251953 20.944878l0 0c-12.289429 0 -22.251953 -9.377342 -22.251953 -20.944878z" fill-rule="nonzero"></path><path fill="#000000" fill-opacity="0.0" d="m416.83 126.74958c0 -15.5673065 16.994934 -29.30674 28.687653 -31.134605c11.6927185 -1.8278732 18.083221 8.255814 28.687622 17.425568c10.60437 9.169754 25.422607 17.425568 50.845215 17.425568" fill-rule="nonzero"></path><path stroke="#000000" stroke-width="2.0" stroke-linejoin="round" stroke-linecap="butt" stroke-dasharray="2.0,6.0" d="m416.83002 126.74958c0 -15.5673065 16.994904 -29.30674 28.687622 -31.134605c11.6927185 -1.8278732 18.083252 8.255814 28.687622 17.425568c5.3022156 4.5848694 11.657837 8.941269 19.865784 12.151436c4.103943 1.6050949 8.67099 2.9236374 13.800964 3.840889c1.2824707 0.22930908 2.6001587 0.43354797 3.9545593 0.61091614c0.33859253 0.04434204 0.6794739 0.087005615 1.0227356 0.12794495l0.21990967 0.024978638" fill-rule="evenodd"></path><path fill="#000000" stroke="#000000" stroke-width="2.0" stroke-linecap="butt" d="m512.8849 133.09502l9.246338 -2.7920074l-8.877747 -3.8046265z" fill-rule="evenodd"></path><path fill="#000000" fill-opacity="0.0" d="m401.0955 120.61497c0 -25.30709 39.73227 -50.614174 79.46457 -50.614174" fill-rule="nonzero"></path><path stroke="#000000" stroke-width="2.0" stroke-linejoin="round" stroke-linecap="butt" stroke-dasharray="2.0,6.0" d="m401.09546 120.61496c0 -12.653542 9.933075 -25.307083 24.832703 -34.79724c7.4497986 -4.745079 16.141235 -8.69931 25.453491 -11.46727c4.656128 -1.3839874 9.467438 -2.4713974 14.356384 -3.2128143c0.6111145 -0.092681885 1.2234497 -0.17995453 1.836853 -0.26171875c0.30667114 -0.040885925 0.61364746 -0.08039093 0.9208374 -0.118515015l0.087524414 -0.0104522705" fill-rule="evenodd"></path><path fill="#000000" stroke="#000000" stroke-width="2.0" stroke-linecap="butt" d="m468.78867 74.044014l8.853241 -3.8614273l-9.264069 -2.7327118z" fill-rule="evenodd"></path><path fill="#cfe2f3" d="m3.226714 55.04278l0 0c0 -11.567539 9.962545 -20.944881 22.251968 -20.944881l0 0c5.9015903 0 11.561464 2.206684 15.734518 6.134613c4.1730537 3.927925 6.5174522 9.255341 6.5174522 14.810268l0 0c0 11.567539 -9.962547 20.944881 -22.25197 20.944881l0 0c-12.289422 0 -22.251968 -9.377342 -22.251968 -20.944881z" fill-rule="nonzero"></path><path stroke="#000000" stroke-width="2.0" stroke-linejoin="round" stroke-linecap="butt" d="m3.226714 55.04278l0 0c0 -11.567539 9.962545 -20.944881 22.251968 -20.944881l0 0c5.9015903 0 11.561464 2.206684 15.734518 6.134613c4.1730537 3.927925 6.5174522 9.255341 6.5174522 14.810268l0 0c0 11.567539 -9.962547 20.944881 -22.25197 20.944881l0 0c-12.289422 0 -22.251968 -9.377342 -22.251968 -20.944881z" fill-rule="nonzero"></path></g></svg>

