<?xml version="1.0" standalone="yes"?>

<svg version="1.1" viewBox="0.0 0.0 1432.737532808399 442.2020997375328" fill="none" stroke="none" stroke-linecap="square" stroke-miterlimit="10" xmlns="http://www.w3.org/2000/svg" xmlns:xlink="http://www.w3.org/1999/xlink"><clipPath id="p.0"><path d="m0 0l1432.7375 0l0 442.2021l-1432.7375 0l0 -442.2021z" clip-rule="nonzero"></path></clipPath><g clip-path="url(#p.0)"><path fill="#000000" fill-opacity="0.0" d="m0 0l1432.7375 0l0 442.2021l-1432.7375 0z" fill-rule="nonzero"></path><path fill="#cfe2f3" d="m10.703412 209.24977l0 0c0 -12.011337 9.737121 -21.748459 21.748466 -21.748459l190.92827 0c5.768051 0 11.299866 2.2913513 15.378494 6.36998c4.0786285 4.0786285 6.36998 9.610428 6.36998 15.378479l0 86.99126c0 12.011353 -9.737122 21.748474 -21.748474 21.748474l-190.92827 0c-12.011345 0 -21.748466 -9.737122 -21.748466 -21.748474z" fill-rule="nonzero"></path><path stroke="#000000" stroke-width="2.0" stroke-linejoin="round" stroke-linecap="butt" d="m10.703412 209.24977l0 0c0 -12.011337 9.737121 -21.748459 21.748466 -21.748459l190.92827 0c5.768051 0 11.299866 2.2913513 15.378494 6.36998c4.0786285 4.0786285 6.36998 9.610428 6.36998 15.378479l0 86.99126c0 12.011353 -9.737122 21.748474 -21.748474 21.748474l-190.92827 0c-12.011345 0 -21.748466 -9.737122 -21.748466 -21.748474z" fill-rule="nonzero"></path><path fill="#000000" d="m65.65165 266.0854l0 -26.48436l3.5 0l0 10.875l13.765625 0l0 -10.875l3.5 0l0 26.48436l-3.5 0l0 -12.48436l-13.765625 0l0 12.48436l-3.5 0zm38.94156 -2.359375q-1.796875 1.53125 -3.46875 2.171875q-1.671875 0.625 -3.59375 0.625q-3.15625 0 -4.859375 -1.546875q-1.6875 -1.546875 -1.6875 -3.953125q0 -1.40625 0.640625 -2.5625q0.640625 -1.171875 1.671875 -1.875q1.046875 -0.70310974 2.34375 -1.0624847q0.953125 -0.265625 2.890625 -0.5q3.9375 -0.46875 5.796875 -1.109375q0.015625 -0.671875 0.015625 -0.859375q0 -1.984375 -0.921875 -2.796875q-1.25 -1.09375 -3.703125 -1.09375q-2.296875 0 -3.390625 0.796875q-1.09375 0.796875 -1.609375 2.84375l-3.1875 -0.4375q0.4375 -2.03125 1.421875 -3.28125q1.0 -1.265625 2.875 -1.9375q1.890625 -0.6875 4.359375 -0.6875q2.46875 0 4.0 0.578125q1.53125 0.578125 2.25 1.453125q0.734375 0.875 1.015625 2.21875q0.15625 0.828125 0.15625 3.0l0 4.3281097q0 4.546875 0.203125 5.75q0.21875 1.1875 0.828125 2.296875l-3.390625 0q-0.5 -1.015625 -0.65625 -2.359375zm-0.265625 -7.265625q-1.765625 0.71875 -5.3125 1.21875q-2.0 0.296875 -2.84375 0.65625q-0.828125 0.359375 -1.28125 1.0625q-0.4375 0.6875 -0.4375 1.53125q0 1.3125 0.984375 2.1875q0.984375 0.859375 2.875 0.859375q1.875 0 3.34375 -0.828125q1.46875 -0.828125 2.15625 -2.25q0.515625 -1.09375 0.515625 -3.25l0 -1.1875zm7.322632 -9.562485l3.25 0l0 3.625q0 2.359375 0.28125 3.421875q0.28125 1.046875 1.34375 1.84375q1.0625 0.78123474 2.671875 0.78123474q1.84375 0 4.765625 -0.98435974l0 -8.6875l3.25 0l0 19.187485l-3.25 0l0 -7.734375q-3.0 0.9375 -5.59375 0.9375q-2.1875 0 -3.859375 -1.109375q-1.671875 -1.109375 -2.265625 -2.7187347q-0.59375 -1.609375 -0.59375 -3.546875l0 -5.015625zm33.150948 16.82811q-1.796875 1.53125 -3.46875 2.171875q-1.671875 0.625 -3.59375 0.625q-3.15625 0 -4.859375 -1.546875q-1.6875 -1.546875 -1.6875 -3.953125q0 -1.40625 0.640625 -2.5625q0.640625 -1.171875 1.671875 -1.875q1.046875 -0.70310974 2.34375 -1.0624847q0.953125 -0.265625 2.890625 -0.5q3.9375 -0.46875 5.796875 -1.109375q0.015625 -0.671875 0.015625 -0.859375q0 -1.984375 -0.921875 -2.796875q-1.25 -1.09375 -3.703125 -1.09375q-2.296875 0 -3.390625 0.796875q-1.09375 0.796875 -1.609375 2.84375l-3.1875 -0.4375q0.4375 -2.03125 1.421875 -3.28125q1.0 -1.265625 2.875 -1.9375q1.890625 -0.6875 4.359375 -0.6875q2.46875 0 4.0 0.578125q1.53125 0.578125 2.25 1.453125q0.734375 0.875 1.015625 2.21875q0.15625 0.828125 0.15625 3.0l0 4.3281097q0 4.546875 0.203125 5.75q0.21875 1.1875 0.828125 2.296875l-3.390625 0q-0.5 -1.015625 -0.65625 -2.359375zm-0.265625 -7.265625q-1.765625 0.71875 -5.3125 1.21875q-2.0 0.296875 -2.84375 0.65625q-0.828125 0.359375 -1.28125 1.0625q-0.4375 0.6875 -0.4375 1.53125q0 1.3125 0.984375 2.1875q0.984375 0.859375 2.875 0.859375q1.875 0 3.34375 -0.828125q1.46875 -0.828125 2.15625 -2.25q0.515625 -1.09375 0.515625 -3.25l0 -1.1875zm10.103882 -9.562485l15.09375 0l0 19.187485l-3.21875 0l0 -16.499985l-8.625 0l0 9.562485q0 3.34375 -0.21875 4.40625q-0.21875 1.0625 -1.203125 1.859375q-0.96875 0.796875 -2.8125 0.796875q-1.125 0 -2.609375 -0.140625l0 -2.71875l1.421875 0q1.015625 0 1.4375 -0.203125q0.4375 -0.203125 0.578125 -0.65625q0.15625 -0.453125 0.15625 -2.953125l0 -12.64061zm18.983948 9.593735q0 -5.3281097 2.953125 -7.8906097q2.484375 -2.140625 6.03125 -2.140625q3.96875 0 6.46875 2.59375q2.515625 2.59375 2.515625 7.1718597q0 3.703125 -1.109375 5.828125q-1.109375 2.109375 -3.234375 3.296875q-2.125 1.171875 -4.640625 1.171875q-4.015625 0 -6.5 -2.578125q-2.484375 -2.59375 -2.484375 -7.453125zm3.34375 0q0 3.6875 1.59375 5.53125q1.609375 1.828125 4.046875 1.828125q2.421875 0 4.03125 -1.84375q1.609375 -1.84375 1.609375 -5.625q0 -3.5624847 -1.625 -5.3906097q-1.609375 -1.828125 -4.015625 -1.828125q-2.4375 0 -4.046875 1.828125q-1.59375 1.8125 -1.59375 5.4999847z" fill-rule="nonzero"></path><path fill="#cfe2f3" d="m281.1106 209.24977l0 0c0 -12.011337 9.737122 -21.748459 21.748474 -21.748459l190.92828 0c5.768036 0 11.299835 2.2913513 15.378479 6.36998c4.0786133 4.0786285 6.369995 9.610428 6.369995 15.378479l0 86.99126c0 12.011353 -9.737152 21.748474 -21.748474 21.748474l-190.92828 0c-12.011353 0 -21.748474 -9.737122 -21.748474 -21.748474z" fill-rule="nonzero"></path><path stroke="#000000" stroke-width="2.0" stroke-linejoin="round" stroke-linecap="butt" d="m281.1106 209.24977l0 0c0 -12.011337 9.737122 -21.748459 21.748474 -21.748459l190.92828 0c5.768036 0 11.299835 2.2913513 15.378479 6.36998c4.0786133 4.0786285 6.369995 9.610428 6.369995 15.378479l0 86.99126c0 12.011353 -9.737152 21.748474 -21.748474 21.748474l-190.92828 0c-12.011353 0 -21.748474 -9.737122 -21.748474 -21.748474z" fill-rule="nonzero"></path><path fill="#000000" d="m308.07315 194.60103l17.125 0l0 3.125l-13.625 0l0 23.359375l-3.5 0l0 -26.484375zm32.885193 20.3125l3.359375 0.40625q-0.796875 2.953125 -2.953125 4.578125q-2.140625 1.625 -5.484375 1.625q-4.21875 0 -6.6875 -2.59375q-2.453125 -2.59375 -2.453125 -7.28125q0 -4.828125 2.484375 -7.5q2.5 -2.6875 6.46875 -2.6875q3.859375 0 6.296875 2.625q2.4375 2.625 2.4375 7.375q0 0.28125 -0.015625 0.859375l-14.3125 0q0.171875 3.171875 1.78125 4.859375q1.609375 1.671875 4.015625 1.671875q1.78125 0 3.046875 -0.9375q1.265625 -0.953125 2.015625 -3.0zm-10.6875 -5.265625l10.71875 0q-0.21875 -2.421875 -1.234375 -3.625q-1.546875 -1.890625 -4.015625 -1.890625q-2.25 0 -3.78125 1.5q-1.515625 1.5 -1.6875 4.015625zm18.322632 -7.75l3.25 0l0 7.984375l9.015625 0l0 -7.984375l3.25 0l0 19.1875l-3.25 0l0 -8.515625l-9.015625 0l0 8.515625l-3.25 0l0 -19.1875zm33.73932 13.015625l3.359375 0.40625q-0.796875 2.953125 -2.953125 4.578125q-2.140625 1.625 -5.484375 1.625q-4.21875 0 -6.6875 -2.59375q-2.453125 -2.59375 -2.453125 -7.28125q0 -4.828125 2.484375 -7.5q2.5 -2.6875 6.46875 -2.6875q3.859375 0 6.296875 2.625q2.4375 2.625 2.4375 7.375q0 0.28125 -0.015625 0.859375l-14.3125 0q0.171875 3.171875 1.78125 4.859375q1.609375 1.671875 4.015625 1.671875q1.78125 0 3.046875 -0.9375q1.265625 -0.953125 2.015625 -3.0zm-10.6875 -5.265625l10.71875 0q-0.21875 -2.421875 -1.234375 -3.625q-1.546875 -1.890625 -4.015625 -1.890625q-2.25 0 -3.78125 1.5q-1.515625 1.5 -1.6875 4.015625zm18.307007 18.796875l0 -26.546875l2.96875 0l0 2.5q1.046875 -1.46875 2.359375 -2.203125q1.328125 -0.734375 3.203125 -0.734375q2.453125 0 4.328125 1.265625q1.890625 1.265625 2.84375 3.578125q0.953125 2.296875 0.953125 5.046875q0 2.9375 -1.0625 5.296875q-1.046875 2.359375 -3.0625 3.625q-2.015625 1.25 -4.234375 1.25q-1.625 0 -2.921875 -0.6875q-1.296875 -0.6875 -2.125 -1.734375l0 9.34375l-3.25 0zm2.953125 -16.84375q0 3.703125 1.5 5.484375q1.5 1.765625 3.625 1.765625q2.171875 0 3.703125 -1.828125q1.546875 -1.84375 1.546875 -5.6875q0 -3.671875 -1.515625 -5.5q-1.5 -1.828125 -3.59375 -1.828125q-2.078125 0 -3.671875 1.953125q-1.59375 1.9375 -1.59375 5.640625zm30.322632 7.125q-1.796875 1.53125 -3.46875 2.171875q-1.671875 0.625 -3.59375 0.625q-3.15625 0 -4.859375 -1.546875q-1.6875 -1.546875 -1.6875 -3.953125q0 -1.40625 0.640625 -2.5625q0.640625 -1.171875 1.671875 -1.875q1.046875 -0.703125 2.34375 -1.0625q0.953125 -0.265625 2.890625 -0.5q3.9375 -0.46875 5.796875 -1.109375q0.015625 -0.671875 0.015625 -0.859375q0 -1.984375 -0.921875 -2.796875q-1.25 -1.09375 -3.703125 -1.09375q-2.296875 0 -3.390625 0.796875q-1.09375 0.796875 -1.609375 2.84375l-3.1875 -0.4375q0.4375 -2.03125 1.421875 -3.28125q1.0 -1.265625 2.875 -1.9375q1.890625 -0.6875 4.359375 -0.6875q2.46875 0 4.0 0.578125q1.53125 0.578125 2.25 1.453125q0.734375 0.875 1.015625 2.21875q0.15625 0.828125 0.15625 3.0l0 4.328125q0 4.546875 0.203125 5.75q0.21875 1.1875 0.828125 2.296875l-3.390625 0q-0.5 -1.015625 -0.65625 -2.359375zm-0.265625 -7.265625q-1.765625 0.71875 -5.3125 1.21875q-2.0 0.296875 -2.84375 0.65625q-0.828125 0.359375 -1.28125 1.0625q-0.4375 0.6875 -0.4375 1.53125q0 1.3125 0.984375 2.1875q0.984375 0.859375 2.875 0.859375q1.875 0 3.34375 -0.828125q1.46875 -0.828125 2.15625 -2.25q0.515625 -1.09375 0.515625 -3.25l0 -1.1875zm8.572632 -9.5625l3.25 0l0 16.515625l9.0 0l0 -16.515625l3.25 0l0 16.515625l2.09375 0l0 8.109375l-2.671875 0l0 -5.4375l-14.921875 0l0 -19.1875zm21.317352 0l3.25 0l0 14.640625l9.015625 -14.640625l3.515625 0l0 19.1875l-3.265625 0l0 -14.546875l-9.015625 14.546875l-3.5 0l0 -19.1875zm35.960632 0l0 19.1875l-3.234375 0l0 -7.484375l-1.875 0q-1.71875 0 -2.5625 0.453125q-0.84375 0.4375 -2.453125 2.84375l-2.828125 4.1875l-4.03125 0l3.5 -5.171875q1.609375 -2.359375 3.203125 -2.671875q-2.78125 -0.375 -4.140625 -2.0q-1.34375 -1.625 -1.34375 -3.75q0 -2.484375 1.765625 -4.03125q1.765625 -1.5625 5.109375 -1.5625l8.890625 0zm-3.234375 2.6875l-4.625 0q-2.90625 0 -3.75 0.90625q-0.84375 0.90625 -0.84375 2.109375q0 1.71875 1.234375 2.53125q1.234375 0.796875 4.390625 0.796875l3.59375 0l0 -6.34375z" fill-rule="nonzero"></path><path fill="#000000" d="m347.427 246.8979l3.25 0l0 7.984375l9.015625 0l0 -7.984375l3.25 0l0 19.187485l-3.25 0l0 -8.515625l-9.015625 0l0 8.515625l-3.25 0l0 -19.187485zm19.395569 9.593735q0 -5.3281097 2.953125 -7.8906097q2.484375 -2.140625 6.03125 -2.140625q3.96875 0 6.46875 2.59375q2.515625 2.59375 2.515625 7.1718597q0 3.703125 -1.109375 5.828125q-1.109375 2.109375 -3.234375 3.296875q-2.125 1.171875 -4.640625 1.171875q-4.015625 0 -6.5 -2.578125q-2.484375 -2.59375 -2.484375 -7.453125zm3.34375 0q0 3.6875 1.59375 5.53125q1.609375 1.828125 4.046875 1.828125q2.421875 0 4.03125 -1.84375q1.609375 -1.84375 1.609375 -5.625q0 -3.5624847 -1.625 -5.3906097q-1.609375 -1.828125 -4.015625 -1.828125q-2.4375 0 -4.046875 1.828125q-1.59375 1.8125 -1.59375 5.4999847zm18.635132 -9.593735l7.5 0q2.765625 0 4.109375 0.46875q1.34375 0.453125 2.3125 1.6875q0.96875 1.21875 0.96875 2.9375q0 1.375 -0.578125 2.40625q-0.5625 1.015625 -1.703125 1.7031097q1.359375 0.4375 2.25 1.6875q0.90625 1.234375 0.90625 2.9375q-0.1875 2.71875 -1.96875 4.046875q-1.765625 1.3125 -5.140625 1.3125l-8.65625 0l0 -19.187485zm3.25 8.078125l3.46875 0q2.078125 0 2.859375 -0.21875q0.78125 -0.21875 1.390625 -0.875q0.609375 -0.65625 0.609375 -1.578125q0 -1.515625 -1.078125 -2.109375q-1.0625 -0.609375 -3.671875 -0.609375l-3.578125 0l0 5.390625zm0 8.437485l4.28125 0q2.765625 0 3.796875 -0.640625q1.03125 -0.640625 1.09375 -2.21875q0 -0.921875 -0.609375 -1.703125q-0.59375 -0.78125 -1.546875 -0.984375q-0.953125 -0.21875 -3.078125 -0.21875l-3.9375 0l0 5.765625zm34.830536 -16.51561l3.25 0l0 19.187485l-3.25 0l0 -19.187485zm-18.18747 0l3.25 0l0 7.5l4.1093445 0q4.03125 0 6.203125 1.5625q2.1875 1.5624847 2.1875 4.3124847q0 2.390625 -1.8125 4.109375q-1.8125 1.703125 -5.8125 1.703125l-8.1249695 0l0 -19.187485zm3.25 16.51561l3.40625 0q3.0937195 0 4.4062195 -0.75q1.328125 -0.765625 1.328125 -2.375q0 -1.25 -0.984375 -2.21875q-0.96875 -0.984375 -4.3125 -0.984375l-3.8437195 0l0 6.328125zm21.32956 2.671875l7.015625 -9.96875l-6.484375 -9.218735l4.0625 0l2.953125 4.5q0.828125 1.28125 1.328125 2.15625q0.796875 -1.203125 1.46875 -2.125l3.234375 -4.53125l3.875 0l-6.625 9.03125l7.140625 10.156235l-4.0 0l-3.9375 -5.96875l-1.046875 -1.59375l-5.046875 7.5625l-3.9375 0z" fill-rule="nonzero"></path><path fill="#000000" d="m323.48892 318.44476l0 -26.546875l2.96875 0l0 2.5q1.046875 -1.46875 2.359375 -2.203125q1.328125 -0.734375 3.203125 -0.734375q2.453125 0 4.328125 1.265625q1.890625 1.265625 2.84375 3.578125q0.953125 2.296875 0.953125 5.046875q0 2.9375 -1.0625 5.296875q-1.046875 2.359375 -3.0625 3.625q-2.015625 1.25 -4.234375 1.25q-1.625 0 -2.921875 -0.6875q-1.296875 -0.6875 -2.125 -1.734375l0 9.34375l-3.25 0zm2.953125 -16.84375q0 3.703125 1.5 5.484375q1.5 1.765625 3.625 1.765625q2.171875 0 3.703125 -1.828125q1.546875 -1.84375 1.546875 -5.6875q0 -3.671875 -1.515625 -5.5q-1.5 -1.828125 -3.59375 -1.828125q-2.078125 0 -3.671875 1.953125q-1.59375 1.9375 -1.59375 5.640625zm30.947632 3.3125l3.359375 0.40625q-0.796875 2.953125 -2.953125 4.578125q-2.140625 1.625 -5.484375 1.625q-4.21875 0 -6.6875 -2.59375q-2.453125 -2.59375 -2.453125 -7.28125q0 -4.828125 2.484375 -7.5q2.5 -2.6875 6.46875 -2.6875q3.859375 0 6.296875 2.625q2.4375 2.625 2.4375 7.375q0 0.28125 -0.015625 0.859375l-14.3125 0q0.171875 3.171875 1.78125 4.859375q1.609375 1.671875 4.015625 1.671875q1.78125 0 3.046875 -0.9375q1.265625 -0.953125 2.015625 -3.0zm-10.6875 -5.265625l10.71875 0q-0.21875 -2.421875 -1.234375 -3.625q-1.546875 -1.890625 -4.015625 -1.890625q-2.25 0 -3.78125 1.5q-1.515625 1.5 -1.6875 4.015625zm18.416382 -7.75l3.25 0l0 16.5l7.40625 0l0 -16.5l3.25 0l0 16.5l7.4375 0l0 -16.5l3.234375 0l0 19.1875l-24.578125 0l0 -19.1875zm42.9776 13.015625l3.359375 0.40625q-0.796875 2.953125 -2.953125 4.578125q-2.140625 1.625 -5.484375 1.625q-4.21875 0 -6.6875 -2.59375q-2.453125 -2.59375 -2.453125 -7.28125q0 -4.828125 2.484375 -7.5q2.5 -2.6875 6.46875 -2.6875q3.859375 0 6.296875 2.625q2.4375 2.625 2.4375 7.375q0 0.28125 -0.015625 0.859375l-14.3125 0q0.171875 3.171875 1.78125 4.859375q1.609375 1.671875 4.015625 1.671875q1.78125 0 3.046875 -0.9375q1.265625 -0.953125 2.015625 -3.0zm-10.6875 -5.265625l10.71875 0q-0.21875 -2.421875 -1.234375 -3.625q-1.546875 -1.890625 -4.015625 -1.890625q-2.25 0 -3.78125 1.5q-1.515625 1.5 -1.6875 4.015625zm18.322601 -7.75l3.25 0l0 7.984375l9.015625 0l0 -7.984375l3.25 0l0 19.1875l-3.25 0l0 -8.515625l-9.015625 0l0 8.515625l-3.25 0l0 -19.1875zm20.598694 0l3.25 0l0 14.640625l9.015625 -14.640625l3.515625 0l0 19.1875l-3.265625 0l0 -14.546875l-9.015625 14.546875l-3.5 0l0 -19.1875zm20.851257 0l3.25 0l0 14.640625l9.015625 -14.640625l3.515625 0l0 19.1875l-3.265625 0l0 -14.546875l-9.015625 14.546875l-3.5 0l0 -19.1875zm10.84375 -7.265625l2.234375 0q-0.28125 2.265625 -1.671875 3.484375q-1.375 1.203125 -3.671875 1.203125q-2.3125 0 -3.6875 -1.203125q-1.375 -1.203125 -1.65625 -3.484375l2.21875 0q0.265625 1.234375 1.015625 1.84375q0.75 0.59375 2.015625 0.59375q1.453125 0 2.203125 -0.578125q0.75 -0.59375 1.0 -1.859375z" fill-rule="nonzero"></path><path fill="#cfe2f3" d="m551.5178 209.24977l0 0c0 -12.011337 9.737122 -21.748459 21.748413 -21.748459l190.92828 0c5.7680664 0 11.299866 2.2913513 15.378479 6.36998c4.0786743 4.0786285 6.369995 9.610428 6.369995 15.378479l0 86.99126c0 12.011353 -9.737122 21.748474 -21.748474 21.748474l-190.92828 0c-12.0112915 0 -21.748413 -9.737122 -21.748413 -21.748474z" fill-rule="nonzero"></path><path stroke="#000000" stroke-width="2.0" stroke-linejoin="round" stroke-linecap="butt" d="m551.5178 209.24977l0 0c0 -12.011337 9.737122 -21.748459 21.748413 -21.748459l190.92828 0c5.7680664 0 11.299866 2.2913513 15.378479 6.36998c4.0786743 4.0786285 6.369995 9.610428 6.369995 15.378479l0 86.99126c0 12.011353 -9.737122 21.748474 -21.748474 21.748474l-190.92828 0c-12.0112915 0 -21.748413 -9.737122 -21.748413 -21.748474z" fill-rule="nonzero"></path><path fill="#000000" d="m606.0714 230.67915q0 -6.59375 3.546875 -10.3125q3.546875 -3.734375 9.140625 -3.734375q3.671875 0 6.609375 1.75q2.953125 1.75 4.5 4.890625q1.546875 3.125 1.546875 7.109375q0 4.03125 -1.640625 7.21875q-1.625 3.171875 -4.609375 4.8125q-2.96875 1.625 -6.421875 1.625q-3.734375 0 -6.6875 -1.796875q-2.9375 -1.8125 -4.46875 -4.9375q-1.515625 -3.125 -1.515625 -6.625zm3.625 0.0625q0 4.78125 2.5625 7.546875q2.578125 2.75 6.46875 2.75q3.953125 0 6.5 -2.78125q2.5625 -2.78125 2.5625 -7.890625q0 -3.234375 -1.09375 -5.640625q-1.09375 -2.421875 -3.203125 -3.75q-2.09375 -1.328125 -4.71875 -1.328125q-3.71875 0 -6.40625 2.5625q-2.671875 2.546875 -2.671875 8.53125zm26.128784 -6.34375l3.25 0l0 16.515625l9.0 0l0 -16.515625l3.25 0l0 16.515625l2.09375 0l0 8.109375l-2.671875 0l0 -5.4375l-14.921875 0l0 -19.1875zm34.457947 13.015625l3.359375 0.40625q-0.796875 2.953125 -2.953125 4.578125q-2.140625 1.625 -5.484375 1.625q-4.21875 0 -6.6875 -2.59375q-2.453125 -2.59375 -2.453125 -7.28125q0 -4.828125 2.484375 -7.5q2.5 -2.6875 6.46875 -2.6875q3.859375 0 6.296875 2.625q2.4375 2.625 2.4375 7.375q0 0.28125 -0.015625 0.859375l-14.3125 0q0.171875 3.171875 1.78125 4.859375q1.609375 1.671875 4.015625 1.671875q1.78125 0 3.046875 -0.9375q1.265625 -0.953125 2.015625 -3.0zm-10.6875 -5.265625l10.71875 0q-0.21875 -2.421875 -1.234375 -3.625q-1.546875 -1.890625 -4.015625 -1.890625q-2.25 0 -3.78125 1.5q-1.515625 1.5 -1.6875 4.015625zm18.322632 -7.75l3.25 0l0 7.984375l9.015625 0l0 -7.984375l3.25 0l0 19.1875l-3.25 0l0 -8.515625l-9.015625 0l0 8.515625l-3.25 0l0 -19.1875zm20.583069 0l3.25 0l0 8.296875q1.5625 0 2.171875 -0.59375q0.625 -0.609375 1.84375 -3.46875q0.953125 -2.28125 1.546875 -3.0q0.59375 -0.734375 1.375 -0.984375q0.78125 -0.25 2.5 -0.25l0.640625 0l0 2.6875l-0.90625 -0.015625q-1.28125 0 -1.640625 0.375q-0.375 0.40625 -1.15625 2.375q-0.734375 1.875 -1.359375 2.609375q-0.609375 0.71875 -1.890625 1.3125q2.09375 0.5625 4.125 3.90625l3.5625 5.9375l-3.578125 0l-3.46875 -5.9375q-1.078125 -1.796875 -1.875 -2.359375q-0.78125 -0.578125 -1.890625 -0.578125l0 8.875l-3.25 0l0 -19.1875zm28.862305 16.828125q-1.796875 1.53125 -3.46875 2.171875q-1.671875 0.625 -3.59375 0.625q-3.15625 0 -4.859375 -1.546875q-1.6875 -1.546875 -1.6875 -3.953125q0 -1.40625 0.640625 -2.5625q0.640625 -1.171875 1.671875 -1.875q1.046875 -0.703125 2.34375 -1.0625q0.953125 -0.265625 2.890625 -0.5q3.9375 -0.46875 5.796875 -1.109375q0.015625 -0.671875 0.015625 -0.859375q0 -1.984375 -0.921875 -2.796875q-1.25 -1.09375 -3.703125 -1.09375q-2.296875 0 -3.390625 0.796875q-1.09375 0.796875 -1.609375 2.84375l-3.1875 -0.4375q0.4375 -2.03125 1.421875 -3.28125q1.0 -1.265625 2.875 -1.9375q1.890625 -0.6875 4.359375 -0.6875q2.46875 0 4.0 0.578125q1.53125 0.578125 2.25 1.453125q0.734375 0.875 1.015625 2.21875q0.15625 0.828125 0.15625 3.0l0 4.328125q0 4.546875 0.203125 5.75q0.21875 1.1875 0.828125 2.296875l-3.390625 0q-0.5 -1.015625 -0.65625 -2.359375zm-0.265625 -7.265625q-1.765625 0.71875 -5.3125 1.21875q-2.0 0.296875 -2.84375 0.65625q-0.828125 0.359375 -1.28125 1.0625q-0.4375 0.6875 -0.4375 1.53125q0 1.3125 0.984375 2.1875q0.984375 0.859375 2.875 0.859375q1.875 0 3.34375 -0.828125q1.46875 -0.828125 2.15625 -2.25q0.515625 -1.09375 0.515625 -3.25l0 -1.1875z" fill-rule="nonzero"></path><path fill="#000000" d="m593.8961 295.94476l0 -26.546875l2.96875 0l0 2.5q1.046875 -1.46875 2.359375 -2.203125q1.328125 -0.734375 3.203125 -0.734375q2.453125 0 4.328125 1.265625q1.890625 1.265625 2.84375 3.578125q0.953125 2.296875 0.953125 5.046875q0 2.9375 -1.0625 5.296875q-1.046875 2.359375 -3.0625 3.625q-2.015625 1.25 -4.234375 1.25q-1.625 0 -2.921875 -0.6875q-1.296875 -0.6875 -2.125 -1.734375l0 9.34375l-3.25 0zm2.953125 -16.84375q0 3.703125 1.5 5.484375q1.5 1.765625 3.625 1.765625q2.171875 0 3.703125 -1.828125q1.546875 -1.84375 1.546875 -5.6875q0 -3.671875 -1.515625 -5.5q-1.5 -1.828125 -3.59375 -1.828125q-2.078125 0 -3.671875 1.953125q-1.59375 1.9375 -1.59375 5.640625zm30.947632 3.3125l3.359375 0.40625q-0.796875 2.953125 -2.953125 4.578125q-2.140625 1.625 -5.484375 1.625q-4.21875 0 -6.6875 -2.59375q-2.453125 -2.59375 -2.453125 -7.28125q0 -4.828125 2.484375 -7.5q2.5 -2.6875 6.46875 -2.6875q3.859375 0 6.296875 2.625q2.4375 2.625 2.4375 7.375q0 0.28125 -0.015625 0.859375l-14.3125 0q0.171875 3.171875 1.78125 4.859375q1.609375 1.671875 4.015625 1.671875q1.78125 0 3.046875 -0.9375q1.265625 -0.953125 2.015625 -3.0zm-10.6875 -5.265625l10.71875 0q-0.21875 -2.421875 -1.234375 -3.625q-1.546875 -1.890625 -4.015625 -1.890625q-2.25 0 -3.78125 1.5q-1.515625 1.5 -1.6875 4.015625zm18.416382 -7.75l3.25 0l0 16.5l7.40625 0l0 -16.5l3.25 0l0 16.5l7.4375 0l0 -16.5l3.234375 0l0 19.1875l-24.578125 0l0 -19.1875zm42.9776 13.015625l3.359375 0.40625q-0.796875 2.953125 -2.953125 4.578125q-2.140625 1.625 -5.484375 1.625q-4.21875 0 -6.6875 -2.59375q-2.453125 -2.59375 -2.453125 -7.28125q0 -4.828125 2.484375 -7.5q2.5 -2.6875 6.46875 -2.6875q3.859375 0 6.296875 2.625q2.4375 2.625 2.4375 7.375q0 0.28125 -0.015625 0.859375l-14.3125 0q0.171875 3.171875 1.78125 4.859375q1.609375 1.671875 4.015625 1.671875q1.78125 0 3.046875 -0.9375q1.265625 -0.953125 2.015625 -3.0zm-10.6875 -5.265625l10.71875 0q-0.21875 -2.421875 -1.234375 -3.625q-1.546875 -1.890625 -4.015625 -1.890625q-2.25 0 -3.78125 1.5q-1.515625 1.5 -1.6875 4.015625zm18.322632 -7.75l3.25 0l0 7.984375l9.015625 0l0 -7.984375l3.25 0l0 19.1875l-3.25 0l0 -8.515625l-9.015625 0l0 8.515625l-3.25 0l0 -19.1875zm20.598694 0l3.25 0l0 14.640625l9.015625 -14.640625l3.515625 0l0 19.1875l-3.265625 0l0 -14.546875l-9.015625 14.546875l-3.5 0l0 -19.1875zm20.851257 0l3.25 0l0 14.640625l9.015625 -14.640625l3.515625 0l0 19.1875l-3.265625 0l0 -14.546875l-9.015625 14.546875l-3.5 0l0 -19.1875zm10.84375 -7.265625l2.234375 0q-0.28125 2.265625 -1.671875 3.484375q-1.375 1.203125 -3.671875 1.203125q-2.3125 0 -3.6875 -1.203125q-1.375 -1.203125 -1.65625 -3.484375l2.21875 0q0.265625 1.234375 1.015625 1.84375q0.75 0.59375 2.015625 0.59375q1.453125 0 2.203125 -0.578125q0.75 -0.59375 1.0 -1.859375z" fill-rule="nonzero"></path><path fill="#cfe2f3" d="m1188.4578 209.76553l0 0c0 -12.011353 9.737061 -21.748474 21.748413 -21.748474l190.92834 0c5.7680664 0 11.299805 2.2913513 15.378418 6.36998c4.0786133 4.0786285 6.369995 9.610443 6.369995 15.378494l0 86.99124c0 12.011353 -9.737061 21.748474 -21.748413 21.748474l-190.92834 0c-12.011353 0 -21.748413 -9.737122 -21.748413 -21.748474z" fill-rule="nonzero"></path><path stroke="#000000" stroke-width="2.0" stroke-linejoin="round" stroke-linecap="butt" d="m1188.4578 209.76553l0 0c0 -12.011353 9.737061 -21.748474 21.748413 -21.748474l190.92834 0c5.7680664 0 11.299805 2.2913513 15.378418 6.36998c4.0786133 4.0786285 6.369995 9.610443 6.369995 15.378494l0 86.99124c0 12.011353 -9.737061 21.748474 -21.748413 21.748474l-190.92834 0c-12.011353 0 -21.748413 -9.737122 -21.748413 -21.748474z" fill-rule="nonzero"></path><path fill="#000000" d="m1219.7205 266.60117l0 -26.48439l9.984375 0q2.640625 0 4.03125 0.25q1.953125 0.328125 3.265625 1.25q1.328125 0.90625 2.125 2.546875q0.8125 1.640625 0.8125 3.609375q0 3.375 -2.15625 5.71875q-2.15625 2.34375 -7.765625 2.34375l-6.796875 0l0 10.76564l-3.5 0zm3.5 -13.89064l6.84375 0q3.40625 0 4.828125 -1.265625q1.421875 -1.265625 1.421875 -3.5625q0 -1.65625 -0.84375 -2.84375q-0.828125 -1.1875 -2.203125 -1.5625q-0.890625 -0.234375 -3.265625 -0.234375l-6.78125 0l0 9.46875zm34.116333 7.7187653l3.359375 0.40625q-0.796875 2.953125 -2.953125 4.578125q-2.140625 1.625 -5.484375 1.625q-4.21875 0 -6.6875 -2.59375q-2.453125 -2.59375 -2.453125 -7.28125q0 -4.8281403 2.484375 -7.5000153q2.5 -2.6875 6.46875 -2.6875q3.859375 0 6.296875 2.625q2.4375 2.625 2.4375 7.3750153q0 0.28125 -0.015625 0.859375l-14.3125 0q0.171875 3.171875 1.78125 4.859375q1.609375 1.671875 4.015625 1.671875q1.78125 0 3.046875 -0.9375q1.265625 -0.953125 2.015625 -3.0zm-10.6875 -5.2656403l10.71875 0q-0.21875 -2.421875 -1.234375 -3.625q-1.546875 -1.890625 -4.015625 -1.890625q-2.25 0 -3.78125 1.5q-1.515625 1.5 -1.6875 4.015625zm22.557007 2.7656403l0 -2.5468903q2.0625 -0.015625 2.8125 -0.15625q0.75 -0.15625 1.40625 -0.875q0.671875 -0.71875 0.671875 -1.8125q0 -1.3125 -0.875 -2.09375q-0.875 -0.796875 -2.265625 -0.796875q-2.75 0 -3.84375 3.234375l-3.09375 -0.5q1.4375 -5.40625 6.96875 -5.40625q3.078125 0 4.8125 1.6875q1.75 1.671875 1.75 4.015625q0 2.34375 -2.28125 3.7343903q1.453125 0.78125 2.171875 1.984375q0.71875 1.1875 0.71875 2.84375q0 2.578125 -1.875 4.1875q-1.875 1.609375 -5.25 1.609375q-6.5625 0 -7.609375 -5.84375l3.046875 -0.640625q0.421875 1.84375 1.6875 2.859375q1.28125 1.0 2.921875 1.0q1.640625 0 2.734375 -0.921875q1.09375 -0.9375 1.09375 -2.390625q0 -1.109375 -0.6875 -1.9375q-0.6875 -0.84375 -1.46875 -1.046875q-0.765625 -0.203125 -2.8125 -0.203125q-0.15625 0 -0.734375 0.015625zm12.724243 16.0625l-0.359375 -3.046875q1.0625 0.28125 1.859375 0.28125q1.078125 0 1.71875 -0.359375q0.65625 -0.359375 1.078125 -1.015625q0.3125 -0.484375 1.0 -2.421875q0.078125 -0.265625 0.28125 -0.796875l-7.28125 -19.218765l3.5 0l4.0 11.10939q0.78125 2.109375 1.390625 4.453125q0.5625 -2.25 1.34375 -4.375l4.09375 -11.187515l3.25 0l-7.296875 19.51564q-1.171875 3.15625 -1.828125 4.34375q-0.859375 1.609375 -1.984375 2.359375q-1.125 0.75 -2.671875 0.75q-0.9375 0 -2.09375 -0.390625zm20.398438 -26.57814l15.09375 0l0 19.187515l-3.21875 0l0 -16.500015l-8.625 0l0 9.562515q0 3.34375 -0.21875 4.40625q-0.21875 1.0625 -1.203125 1.859375q-0.96875 0.796875 -2.8125 0.796875q-1.125 0 -2.609375 -0.140625l0 -2.71875l1.421875 0q1.015625 0 1.4375 -0.203125q0.4375 -0.203125 0.578125 -0.65625q0.15625 -0.453125 0.15625 -2.953125l0 -12.64064zm20.140137 0l3.25 0l0 7.5l4.109375 0q4.03125 0 6.203125 1.5625153q2.1875 1.5625 2.1875 4.3125q0 2.390625 -1.828125 4.109375q-1.8125 1.703125 -5.796875 1.703125l-8.125 0l0 -19.187515zm3.25 16.51564l3.40625 0q3.09375 0 4.40625 -0.75q1.328125 -0.765625 1.328125 -2.375q0 -1.25 -0.984375 -2.21875q-0.96875 -0.984375 -4.3125 -0.984375l-3.84375 0l0 6.328125zm14.494751 -16.51564l15.59375 0l0 2.6875l-6.1875 0l0 16.500015l-3.234375 0l0 -16.500015l-6.171875 0l0 -2.6875zm31.362183 16.82814q-1.796875 1.53125 -3.46875 2.171875q-1.671875 0.625 -3.59375 0.625q-3.15625 0 -4.859375 -1.546875q-1.6875 -1.546875 -1.6875 -3.953125q0 -1.40625 0.640625 -2.5625q0.640625 -1.171875 1.671875 -1.875q1.046875 -0.703125 2.34375 -1.0625q0.953125 -0.26564026 2.890625 -0.50001526q3.9375 -0.46875 5.796875 -1.109375q0.015625 -0.671875 0.015625 -0.859375q0 -1.984375 -0.921875 -2.796875q-1.25 -1.09375 -3.703125 -1.09375q-2.296875 0 -3.390625 0.796875q-1.09375 0.796875 -1.609375 2.84375l-3.1875 -0.4375q0.4375 -2.03125 1.421875 -3.28125q1.0 -1.265625 2.875 -1.9375q1.890625 -0.6875 4.359375 -0.6875q2.46875 0 4.0 0.578125q1.53125 0.578125 2.25 1.453125q0.734375 0.875 1.015625 2.21875q0.15625 0.828125 0.15625 3.0l0 4.3281403q0 4.546875 0.203125 5.75q0.21875 1.1875 0.828125 2.296875l-3.390625 0q-0.5 -1.015625 -0.65625 -2.359375zm-0.265625 -7.265625q-1.765625 0.71875 -5.3125 1.21875q-2.0 0.296875 -2.84375 0.65625q-0.828125 0.359375 -1.28125 1.0625q-0.4375 0.6875 -0.4375 1.53125q0 1.3125 0.984375 2.1875q0.984375 0.859375 2.875 0.859375q1.875 0 3.34375 -0.828125q1.46875 -0.828125 2.15625 -2.25q0.515625 -1.09375 0.515625 -3.25l0 -1.1875zm6.760132 -9.562515l15.59375 0l0 2.6875l-6.1875 0l0 16.500015l-3.234375 0l0 -16.500015l-6.171875 0l0 -2.6875z" fill-rule="nonzero"></path><path fill="#000000" fill-opacity="0.0" d="m245.12862 252.7454l35.96849 0" fill-rule="nonzero"></path><path stroke="#000000" stroke-width="2.0" stroke-linejoin="round" stroke-linecap="butt" d="m245.12862 252.7454l23.96849 0" fill-rule="evenodd"></path><path fill="#000000" stroke="#000000" stroke-width="2.0" stroke-linecap="butt" d="m269.0971 256.04886l9.076202 -3.3034515l-9.076202 -3.3034668z" fill-rule="evenodd"></path><path fill="#000000" fill-opacity="0.0" d="m515.5358 252.7454l35.968506 0" fill-rule="nonzero"></path><path stroke="#000000" stroke-width="2.0" stroke-linejoin="round" stroke-linecap="butt" d="m515.5358 252.7454l23.968506 0" fill-rule="evenodd"></path><path fill="#000000" stroke="#000000" stroke-width="2.0" stroke-linecap="butt" d="m539.50433 256.04886l9.076172 -3.3034515l-9.076172 -3.3034668z" fill-rule="evenodd"></path><path fill="#000000" fill-opacity="0.0" d="m991.19946 361.61023l0 72.55264l-592.88184 0l0 -116.17468" fill-rule="nonzero"></path><path stroke="#000000" stroke-width="2.0" stroke-linejoin="round" stroke-linecap="butt" d="m991.19946 361.61023l0 72.55261l-592.88184 0l0 -104.17465" fill-rule="evenodd"></path><path fill="#000000" stroke="#000000" stroke-width="2.0" stroke-linecap="butt" d="m401.62106 329.9882l-3.3034668 -9.076202l-3.3034668 9.076202z" fill-rule="evenodd"></path><path fill="#cfe2f3" d="m505.83203 31.70647l0 0c0 -12.011345 9.737122 -21.748466 21.748474 -21.748466l282.29834 0c5.7680054 0 11.299866 2.2913504 15.378479 6.369979c4.0786133 4.0786285 6.369995 9.6104355 6.369995 15.378487l0 86.99126c0 12.011353 -9.737122 21.748474 -21.748474 21.748474l-282.29834 0l0 0c-12.011353 0 -21.748474 -9.737122 -21.748474 -21.748474z" fill-rule="nonzero"></path><path stroke="#000000" stroke-width="2.0" stroke-linejoin="round" stroke-linecap="butt" d="m505.83203 31.70647l0 0c0 -12.011345 9.737122 -21.748466 21.748474 -21.748466l282.29834 0c5.7680054 0 11.299866 2.2913504 15.378479 6.369979c4.0786133 4.0786285 6.369995 9.6104355 6.369995 15.378487l0 86.99126c0 12.011353 -9.737122 21.748474 -21.748474 21.748474l-282.29834 0l0 0c-12.011353 0 -21.748474 -9.737122 -21.748474 -21.748474z" fill-rule="nonzero"></path><path fill="#000000" d="m616.71405 47.76585l0 -2.9375l2.84375 0l0 2.9375q4.375 0.234375 6.90625 2.640625q2.53125 2.390625 2.53125 5.953125q0 3.484375 -2.453125 5.921875q-2.453125 2.4374962 -6.984375 2.6874962l0 2.953125l-2.84375 0l0 -2.953125q-4.0625 -0.15625 -6.765625 -2.4687462q-2.703125 -2.328125 -2.703125 -6.140625q0 -3.828125 2.6875 -6.125q2.703125 -2.296875 6.78125 -2.46875zm2.84375 2.59375l0 12.0q2.9375 -0.140625 4.625 -1.703125q1.6875 -1.5625 1.6875 -4.296875q0 -2.6875 -1.65625 -4.25q-1.65625 -1.578125 -4.65625 -1.75zm-2.84375 0.015625q-2.828125 0.125 -4.578125 1.671875q-1.75 1.546875 -1.75 4.3125q0 2.734375 1.71875 4.296875q1.734375 1.5625 4.609375 1.6875l0 -11.96875zm15.5625 23.937496l-0.3125 -2.640625q0.921875 0.25 1.609375 0.25q0.9375 0 1.5 -0.3125q0.5625 -0.3125 0.921875 -0.875q0.265625 -0.421875 0.859375 -2.09375q0.078125 -0.234375 0.25 -0.6875l-6.296875 -16.624996l3.03125 0l3.453125 9.609375q0.671875 1.828125 1.203125 3.8437462q0.484375 -1.9374962 1.15625 -3.7812462l3.546875 -9.671875l2.8125 0l-6.3125 16.874996q-1.015625 2.734375 -1.578125 3.765625q-0.75 1.390625 -1.71875 2.03125q-0.96875 0.65625 -2.3125 0.65625q-0.8125 0 -1.8125 -0.34375zm16.140625 -22.984371l2.8125 0l0 6.90625l7.796875 0l0 -6.90625l2.8125 0l0 16.593746l-2.8125 0l0 -7.359371l-7.796875 0l0 7.359371l-2.8125 0l0 -16.593746zm17.640625 0l2.8125 0l0 7.171875q1.34375 0 1.875 -0.515625q0.546875 -0.515625 1.59375 -3.0q0.828125 -1.96875 1.34375 -2.59375q0.515625 -0.625 1.1875 -0.84375q0.671875 -0.21875 2.15625 -0.21875l0.5625 0l0 2.328125l-0.78125 -0.015625q-1.109375 0 -1.421875 0.328125q-0.328125 0.34375 -1.0 2.046875q-0.640625 1.625 -1.171875 2.25q-0.53125 0.625 -1.640625 1.140625q1.8125 0.484375 3.5625 3.375l3.078125 5.140621l-3.09375 0l-3.0 -5.140621q-0.921875 -1.546875 -1.609375 -2.03125q-0.6875 -0.5 -1.640625 -0.5l0 7.671871l-2.8125 0l0 -16.593746zm14.0625 0l2.8125 0l0 14.281246l7.78125 0l0 -14.281246l2.8125 0l0 14.281246l1.8125 0l0 7.015625l-2.3125 0l0 -4.703125l-12.90625 0l0 -16.593746zm18.28125 0l2.8125 0l0 12.65625l7.796875 -12.65625l3.03125 0l0 16.593746l-2.8125 0l0 -12.578121l-7.796875 12.578121l-3.03125 0l0 -16.593746zm30.9375 0l0 16.593746l-2.796875 0l0 -6.468746l-1.625 0q-1.484375 0 -2.21875 0.390625q-0.71875 0.375 -2.109375 2.4531212l-2.453125 3.625l-3.484375 0l3.03125 -4.468746q1.390625 -2.046875 2.765625 -2.3125q-2.40625 -0.328125 -3.578125 -1.734375q-1.15625 -1.40625 -1.15625 -3.234375q0 -2.15625 1.515625 -3.5q1.53125 -1.34375 4.421875 -1.34375l7.6875 0zm-2.796875 2.328125l-4.0 0q-2.515625 0 -3.25 0.78125q-0.71875 0.78125 -0.71875 1.828125q0 1.484375 1.0625 2.1875q1.078125 0.6875 3.796875 0.6875l3.109375 0l0 -5.484375z" fill-rule="nonzero"></path><path fill="#000000" d="m523.65936 89.32835l13.09375 0l0 16.59375l-2.8125 0l0 -14.265625l-7.46875 0l0 14.265625l-2.8125 0l0 -16.59375zm17.3125 22.953125l0 -22.953125l2.5625 0l0 2.15625q0.90625 -1.265625 2.046875 -1.890625q1.140625 -0.640625 2.765625 -0.640625q2.125 0 3.75 1.09375q1.625 1.09375 2.453125 3.09375q0.828125 1.984375 0.828125 4.359375q0 2.546875 -0.921875 4.59375q-0.90625 2.03125 -2.65625 3.125q-1.734375 1.078125 -3.65625 1.078125q-1.40625 0 -2.53125 -0.59375q-1.109375 -0.59375 -1.828125 -1.5l0 8.078125l-2.8125 0zm2.546875 -14.5625q0 3.203125 1.296875 4.734375q1.296875 1.53125 3.140625 1.53125q1.875 0 3.203125 -1.578125q1.34375 -1.59375 1.34375 -4.921875q0 -3.171875 -1.3125 -4.75q-1.296875 -1.578125 -3.109375 -1.578125q-1.796875 0 -3.1875 1.6875q-1.375 1.671875 -1.375 4.875zm15.25 -8.390625l2.8125 0l0 12.65625l7.796875 -12.65625l3.03125 0l0 16.59375l-2.8125 0l0 -12.578125l-7.796875 12.578125l-3.03125 0l0 -16.59375zm28.703125 10.515625l2.765625 0.359375q-0.453125 2.859375 -2.328125 4.484375q-1.859375 1.609375 -4.578125 1.609375q-3.40625 0 -5.484375 -2.21875q-2.0625 -2.234375 -2.0625 -6.390625q0 -2.6875 0.890625 -4.703125q0.890625 -2.015625 2.703125 -3.015625q1.828125 -1.015625 3.96875 -1.015625q2.703125 0 4.421875 1.375q1.71875 1.359375 2.203125 3.875l-2.734375 0.421875q-0.390625 -1.671875 -1.390625 -2.515625q-0.984375 -0.84375 -2.390625 -0.84375q-2.125 0 -3.453125 1.53125q-1.328125 1.515625 -1.328125 4.8125q0 3.34375 1.28125 4.859375q1.28125 1.515625 3.34375 1.515625q1.65625 0 2.765625 -1.015625q1.109375 -1.015625 1.40625 -3.125zm5.1875 -10.515625l13.09375 0l0 16.59375l-2.8125 0l0 -14.265625l-7.46875 0l0 14.265625l-2.8125 0l0 -16.59375zm16.265625 8.296875q0 -4.609375 2.5625 -6.828125q2.140625 -1.84375 5.21875 -1.84375q3.421875 0 5.59375 2.25q2.171875 2.234375 2.171875 6.1875q0 3.203125 -0.96875 5.046875q-0.953125 1.828125 -2.796875 2.84375q-1.828125 1.015625 -4.0 1.015625q-3.484375 0 -5.640625 -2.234375q-2.140625 -2.234375 -2.140625 -6.4375zm2.890625 0q0 3.1875 1.390625 4.78125q1.390625 1.578125 3.5 1.578125q2.09375 0 3.484375 -1.59375q1.390625 -1.59375 1.390625 -4.859375q0 -3.078125 -1.40625 -4.65625q-1.390625 -1.59375 -3.46875 -1.59375q-2.109375 0 -3.5 1.578125q-1.390625 1.578125 -1.390625 4.765625zm26.78125 2.21875l2.765625 0.359375q-0.453125 2.859375 -2.328125 4.484375q-1.859375 1.609375 -4.578125 1.609375q-3.40625 0 -5.484375 -2.21875q-2.0625 -2.234375 -2.0625 -6.390625q0 -2.6875 0.890625 -4.703125q0.890625 -2.015625 2.703125 -3.015625q1.828125 -1.015625 3.96875 -1.015625q2.703125 0 4.421875 1.375q1.71875 1.359375 2.203125 3.875l-2.734375 0.421875q-0.390625 -1.671875 -1.390625 -2.515625q-0.984375 -0.84375 -2.390625 -0.84375q-2.125 0 -3.453125 1.53125q-1.328125 1.515625 -1.328125 4.8125q0 3.34375 1.28125 4.859375q1.28125 1.515625 3.34375 1.515625q1.65625 0 2.765625 -1.015625q1.109375 -1.015625 1.40625 -3.125zm4.125 -2.21875q0 -4.609375 2.5625 -6.828125q2.140625 -1.84375 5.21875 -1.84375q3.421875 0 5.59375 2.25q2.171875 2.234375 2.171875 6.1875q0 3.203125 -0.96875 5.046875q-0.953125 1.828125 -2.796875 2.84375q-1.828125 1.015625 -4.0 1.015625q-3.484375 0 -5.640625 -2.234375q-2.140625 -2.234375 -2.140625 -6.4375zm2.890625 0q0 3.1875 1.390625 4.78125q1.390625 1.578125 3.5 1.578125q2.09375 0 3.484375 -1.59375q1.390625 -1.59375 1.390625 -4.859375q0 -3.078125 -1.40625 -4.65625q-1.390625 -1.59375 -3.46875 -1.59375q-2.109375 0 -3.5 1.578125q-1.390625 1.578125 -1.390625 4.765625zm28.109375 -15.15625l2.484375 0.03125q-0.171875 1.671875 -0.75 2.328125q-0.5625 0.65625 -1.46875 0.84375q-0.890625 0.1875 -3.515625 0.1875q-3.484375 0 -4.75 0.671875q-1.265625 0.671875 -1.828125 2.15625q-0.546875 1.46875 -0.609375 3.796875q1.0625 -1.578125 2.484375 -2.359375q1.421875 -0.796875 3.203125 -0.796875q3.265625 0 5.40625 2.25q2.140625 2.234375 2.140625 6.0625q0 2.90625 -1.078125 4.765625q-1.078125 1.859375 -2.5625 2.875q-1.46875 1.015625 -4.015625 1.015625q-2.953125 0 -4.59375 -1.34375q-1.640625 -1.359375 -2.515625 -3.46875q-0.875 -2.109375 -0.875 -7.34375q0 -6.578125 2.21875 -8.859375q2.234375 -2.28125 6.859375 -2.28125q2.875 0 3.265625 -0.09375q0.390625 -0.09375 0.5 -0.4375zm-0.140625 15.09375q0 -2.59375 -1.234375 -4.25q-1.21875 -1.65625 -3.453125 -1.65625q-2.328125 0 -3.59375 1.75q-1.265625 1.75 -1.265625 4.671875q0 2.890625 1.390625 4.421875q1.40625 1.53125 3.453125 1.53125q2.09375 0 3.390625 -1.765625q1.3125 -1.78125 1.3125 -4.703125zm7.6875 -8.234375l13.0625 0l0 16.59375l-2.796875 0l0 -14.265625l-7.453125 0l0 8.265625q0 2.890625 -0.1875 3.8125q-0.1875 0.921875 -1.03125 1.609375q-0.84375 0.6875 -2.4375 0.6875q-0.984375 0 -2.265625 -0.125l0 -2.34375l1.234375 0q0.875 0 1.25 -0.171875q0.375 -0.1875 0.5 -0.578125q0.125 -0.390625 0.125 -2.546875l0 -10.9375zm28.65625 11.25l2.90625 0.359375q-0.6875 2.546875 -2.546875 3.953125q-1.859375 1.40625 -4.75 1.40625q-3.640625 0 -5.78125 -2.234375q-2.125 -2.25 -2.125 -6.296875q0 -4.1875 2.15625 -6.5q2.15625 -2.3125 5.59375 -2.3125q3.328125 0 5.4375 2.265625q2.109375 2.265625 2.109375 6.375q0 0.25 -0.015625 0.75l-12.375 0q0.15625 2.734375 1.546875 4.1875q1.390625 1.453125 3.46875 1.453125q1.546875 0 2.640625 -0.8125q1.09375 -0.8125 1.734375 -2.59375zm-9.234375 -4.546875l9.265625 0q-0.1875 -2.09375 -1.0625 -3.140625q-1.34375 -1.625 -3.484375 -1.625q-1.9375 0 -3.265625 1.296875q-1.3125 1.296875 -1.453125 3.46875zm15.6875 -6.703125l2.8125 0l0 6.90625l7.796875 0l0 -6.90625l2.8125 0l0 16.59375l-2.8125 0l0 -7.359375l-7.796875 0l0 7.359375l-2.8125 0l0 -16.59375zm17.671875 0l2.8125 0l0 6.90625l7.796875 0l0 -6.90625l2.8125 0l0 16.59375l-2.8125 0l0 -7.359375l-7.796875 0l0 7.359375l-2.8125 0l0 -16.59375zm16.609375 8.296875q0 -4.609375 2.5625 -6.828125q2.140625 -1.84375 5.21875 -1.84375q3.421875 0 5.59375 2.25q2.171875 2.234375 2.171875 6.1875q0 3.203125 -0.96875 5.046875q-0.953125 1.828125 -2.796875 2.84375q-1.828125 1.015625 -4.0 1.015625q-3.484375 0 -5.640625 -2.234375q-2.140625 -2.234375 -2.140625 -6.4375zm2.890625 0q0 3.1875 1.390625 4.78125q1.390625 1.578125 3.5 1.578125q2.09375 0 3.484375 -1.59375q1.390625 -1.59375 1.390625 -4.859375q0 -3.078125 -1.40625 -4.65625q-1.390625 -1.59375 -3.46875 -1.59375q-2.109375 0 -3.5 1.578125q-1.390625 1.578125 -1.390625 4.765625zm26.781189 2.21875l2.765625 0.359375q-0.453125 2.859375 -2.328125 4.484375q-1.859375 1.609375 -4.578125 1.609375q-3.40625 0 -5.484375 -2.21875q-2.0625 -2.234375 -2.0625 -6.390625q0 -2.6875 0.890625 -4.703125q0.890625 -2.015625 2.703125 -3.015625q1.828125 -1.015625 3.96875 -1.015625q2.703125 0 4.421875 1.375q1.71875 1.359375 2.203125 3.875l-2.734375 0.421875q-0.390625 -1.671875 -1.390625 -2.515625q-0.984375 -0.84375 -2.390625 -0.84375q-2.125 0 -3.453125 1.53125q-1.328125 1.515625 -1.328125 4.8125q0 3.34375 1.28125 4.859375q1.28125 1.515625 3.34375 1.515625q1.65625 0 2.765625 -1.015625q1.109375 -1.015625 1.40625 -3.125zm3.65625 -10.515625l13.484375 0l0 2.328125l-5.34375 0l0 14.265625l-2.796875 0l0 -14.265625l-5.34375 0l0 -2.328125zm16.171875 0l2.8125 0l0 12.65625l7.796875 -12.65625l3.03125 0l0 16.59375l-2.8125 0l0 -12.578125l-7.796875 12.578125l-3.03125 0l0 -16.59375z" fill-rule="nonzero"></path><path fill="#000000" fill-opacity="0.0" d="m668.7297 140.4462l0 47.055115" fill-rule="nonzero"></path><path stroke="#000000" stroke-width="2.0" stroke-linejoin="round" stroke-linecap="butt" d="m668.7297 140.4462l0 35.055115" fill-rule="evenodd"></path><path fill="#000000" stroke="#000000" stroke-width="2.0" stroke-linecap="butt" d="m665.4262 175.50131l3.3034668 9.076202l3.3034668 -9.076202z" fill-rule="evenodd"></path><path fill="#cfe2f3" d="m873.9869 252.7441l117.212585 -108.866135l117.21265 108.866135l-117.21265 108.866135z" fill-rule="nonzero"></path><path stroke="#000000" stroke-width="1.0" stroke-linejoin="round" stroke-linecap="butt" d="m873.9869 252.7441l117.212585 -108.866135l117.21265 108.866135l-117.21265 108.866135z" fill-rule="nonzero"></path><path fill="#000000" fill-opacity="0.0" d="m866.55383 220.99623l257.29126 0l0 111.49605l-257.29126 0z" fill-rule="nonzero"></path><path fill="#000000" d="m904.00397 260.98685l-0.265625 -2.21875q0.78125 0.203125 1.359375 0.203125q0.796875 0 1.265625 -0.265625q0.484375 -0.265625 0.78125 -0.734375q0.21875 -0.359375 0.71875 -1.765625q0.078125 -0.203125 0.21875 -0.578125l-5.3125 -14.03125l2.5625 0l2.90625 8.109375q0.5625 1.546875 1.015625 3.234375q0.40625 -1.625 0.96875 -3.1875l3.0 -8.15625l2.375 0l-5.328125 14.234375q-0.859375 2.3125 -1.328125 3.1875q-0.640625 1.171875 -1.453125 1.71875q-0.8125 0.546875 -1.953125 0.546875q-0.6875 0 -1.53125 -0.296875zm15.3125 -19.390625l9.75 0l0 12.046875l1.515625 0l0 5.921875l-1.953125 0l0 -3.96875l-11.015625 0l0 3.96875l-1.953125 0l0 -5.921875l1.25 0q2.5 -3.40625 2.40625 -12.046875zm1.96875 1.96875q-0.265625 6.8125 -2.109375 10.078125l7.53125 0l0 -10.078125l-5.421875 0zm10.819458 5.03125q0 -3.890625 2.171875 -5.765625q1.796875 -1.546875 4.40625 -1.546875q2.875 0 4.703125 1.890625q1.84375 1.890625 1.84375 5.21875q0 2.703125 -0.8125 4.265625q-0.8125 1.546875 -2.359375 2.40625q-1.546875 0.84375 -3.375 0.84375q-2.953125 0 -4.765625 -1.875q-1.8125 -1.890625 -1.8125 -5.4375zm2.4375 0q0 2.6875 1.171875 4.03125q1.1875 1.328125 2.96875 1.328125q1.765625 0 2.9375 -1.34375q1.171875 -1.34375 1.171875 -4.09375q0 -2.59375 -1.1875 -3.9375q-1.171875 -1.34375 -2.921875 -1.34375q-1.78125 0 -2.96875 1.34375q-1.171875 1.328125 -1.171875 4.015625zm13.293701 -7.0l5.46875 0q2.015625 0 3.0 0.34375q0.984375 0.328125 1.6875 1.234375q0.703125 0.890625 0.703125 2.140625q0 1.0 -0.421875 1.75q-0.40625 0.734375 -1.234375 1.234375q0.984375 0.328125 1.640625 1.234375q0.65625 0.90625 0.65625 2.140625q-0.140625 2.0 -1.4375 2.96875q-1.28125 0.953125 -3.75 0.953125l-6.3125 0l0 -14.0zm2.375 5.890625l2.53125 0q1.515625 0 2.078125 -0.15625q0.5625 -0.15625 1.015625 -0.640625q0.453125 -0.484375 0.453125 -1.15625q0 -1.109375 -0.796875 -1.53125q-0.78125 -0.4375 -2.671875 -0.4375l-2.609375 0l0 3.921875zm0 6.15625l3.125 0q2.015625 0 2.765625 -0.46875q0.75 -0.46875 0.78125 -1.609375q0 -0.671875 -0.4375 -1.25q-0.421875 -0.578125 -1.125 -0.71875q-0.703125 -0.15625 -2.234375 -0.15625l-2.875 0l0 4.203125zm12.926758 -12.046875l11.03125 0l0 14.0l-2.359375 0l0 -12.03125l-6.296875 0l0 6.96875q0 2.4375 -0.15625 3.21875q-0.15625 0.78125 -0.875 1.359375q-0.703125 0.578125 -2.046875 0.578125q-0.84375 0 -1.921875 -0.109375l0 -1.96875l1.046875 0q0.734375 0 1.046875 -0.15625q0.328125 -0.15625 0.421875 -0.484375q0.109375 -0.328125 0.109375 -2.140625l0 -9.234375zm23.975708 9.484375l2.453125 0.3125q-0.578125 2.140625 -2.15625 3.328125q-1.5625 1.1875 -4.0 1.1875q-3.0625 0 -4.875 -1.890625q-1.796875 -1.890625 -1.796875 -5.296875q0 -3.546875 1.8125 -5.484375q1.828125 -1.953125 4.734375 -1.953125q2.8125 0 4.578125 1.90625q1.78125 1.90625 1.78125 5.375q0 0.21875 -0.015625 0.640625l-10.4375 0q0.140625 2.296875 1.3125 3.53125q1.171875 1.21875 2.921875 1.21875q1.3125 0 2.234375 -0.671875q0.921875 -0.6875 1.453125 -2.203125zm-7.78125 -3.828125l7.8125 0q-0.15625 -1.765625 -0.890625 -2.65625q-1.140625 -1.359375 -2.953125 -1.359375q-1.625 0 -2.75 1.09375q-1.109375 1.09375 -1.21875 2.921875zm11.746765 -5.65625l11.375061 0l0 1.96875l-4.5 0l0 12.03125l-2.359375 0l0 -12.03125l-4.515686 0l0 -1.96875zm13.505676 0l5.46875 0q2.015625 0 3.0 0.34375q0.984375 0.328125 1.6875 1.234375q0.703125 0.890625 0.703125 2.140625q0 1.0 -0.421875 1.75q-0.40625 0.734375 -1.234375 1.234375q0.984375 0.328125 1.640625 1.234375q0.65625 0.90625 0.65625 2.140625q-0.140625 2.0 -1.4375 2.96875q-1.28125 0.953125 -3.75 0.953125l-6.3125 0l0 -14.0zm2.375 5.890625l2.53125 0q1.515625 0 2.078125 -0.15625q0.5625 -0.15625 1.015625 -0.640625q0.453125 -0.484375 0.453125 -1.15625q0 -1.109375 -0.796875 -1.53125q-0.78125 -0.4375 -2.671875 -0.4375l-2.609375 0l0 3.921875zm0 6.15625l3.125 0q2.015625 0 2.765625 -0.46875q0.75 -0.46875 0.78125 -1.609375q0 -0.671875 -0.4375 -1.25q-0.421875 -0.578125 -1.125 -0.71875q-0.703125 -0.15625 -2.234375 -0.15625l-2.875 0l0 4.203125zm10.879883 -5.046875q0 -3.890625 2.171875 -5.765625q1.796875 -1.546875 4.406311 -1.546875q2.875 0 4.703125 1.890625q1.84375 1.890625 1.84375 5.21875q0 2.703125 -0.8125 4.265625q-0.8125 1.546875 -2.359375 2.40625q-1.546875 0.84375 -3.375 0.84375q-2.953186 0 -4.765686 -1.875q-1.8125 -1.890625 -1.8125 -5.4375zm2.4375 0q0 2.6875 1.171875 4.03125q1.1875 1.328125 2.968811 1.328125q1.765625 0 2.9375 -1.34375q1.171875 -1.34375 1.171875 -4.09375q0 -2.59375 -1.1875 -3.9375q-1.171875 -1.34375 -2.921875 -1.34375q-1.781311 0 -2.968811 1.34375q-1.171875 1.328125 -1.171875 4.015625zm13.278015 12.359375l0 -19.359375l2.15625 0l0 1.8125q0.765625 -1.0625 1.71875 -1.59375q0.96875 -0.53125 2.34375 -0.53125q1.796875 0 3.15625 0.921875q1.375 0.921875 2.078125 2.609375q0.703125 1.671875 0.703125 3.671875q0 2.15625 -0.78125 3.875q-0.765625 1.71875 -2.234375 2.640625q-1.46875 0.90625 -3.09375 0.90625q-1.1875 0 -2.125 -0.5q-0.9375 -0.5 -1.546875 -1.265625l0 6.8125l-2.375 0zm2.140625 -12.28125q0 2.703125 1.09375 4.0q1.109375 1.28125 2.65625 1.28125q1.578125 0 2.703125 -1.328125q1.140625 -1.34375 1.140625 -4.15625q0 -2.671875 -1.109375 -4.0q-1.09375 -1.328125 -2.625 -1.328125q-1.515625 0 -2.6875 1.421875q-1.171875 1.40625 -1.171875 4.109375zm23.699951 -7.078125l0 14.0l-2.359375 0l0 -5.453125l-1.359375 0q-1.265625 0 -1.875 0.328125q-0.609375 0.3125 -1.78125 2.0625l-2.078125 3.0625l-2.9375 0l2.5625 -3.765625q1.171875 -1.734375 2.328125 -1.953125q-2.03125 -0.28125 -3.015625 -1.46875q-0.96875 -1.1875 -0.96875 -2.734375q0 -1.8125 1.28125 -2.9375q1.28125 -1.140625 3.71875 -1.140625l6.484375 0zm-2.359375 1.96875l-3.375 0q-2.125 0 -2.734375 0.65625q-0.609375 0.65625 -0.609375 1.546875q0 1.25 0.90625 1.84375q0.90625 0.578125 3.1875 0.578125l2.625 0l0 -4.625zm15.356323 7.515625l2.453125 0.3125q-0.578125 2.140625 -2.15625 3.328125q-1.5625 1.1875 -4.0 1.1875q-3.0625 0 -4.875 -1.890625q-1.796875 -1.890625 -1.796875 -5.296875q0 -3.546875 1.8125 -5.484375q1.828125 -1.953125 4.734375 -1.953125q2.8125 0 4.578125 1.90625q1.78125 1.90625 1.78125 5.375q0 0.21875 -0.015625 0.640625l-10.4375 0q0.140625 2.296875 1.3125 3.53125q1.171875 1.21875 2.921875 1.21875q1.3125 0 2.234375 -0.671875q0.921875 -0.6875 1.453125 -2.203125zm-7.78125 -3.828125l7.8125 0q-0.15625 -1.765625 -0.890625 -2.65625q-1.140625 -1.359375 -2.953125 -1.359375q-1.625 0 -2.75 1.09375q-1.109375 1.09375 -1.21875 2.921875zm11.746826 -5.65625l11.375 0l0 1.96875l-4.5 0l0 12.03125l-2.359375 0l0 -12.03125l-4.515625 0l0 -1.96875z" fill-rule="nonzero"></path><path fill="#000000" d="m930.03546 292.98685l-0.265625 -2.21875q0.78125 0.203125 1.359375 0.203125q0.796875 0 1.265625 -0.265625q0.484375 -0.265625 0.78125 -0.734375q0.21875 -0.359375 0.71875 -1.765625q0.078125 -0.203125 0.21875 -0.578125l-5.3125 -14.03125l2.5625 0l2.90625 8.109375q0.5625 1.546875 1.015625 3.234375q0.40625 -1.625 0.96875 -3.1875l3.0 -8.15625l2.375 0l-5.328125 14.234375q-0.859375 2.3125 -1.328125 3.1875q-0.640625 1.171875 -1.453125 1.71875q-0.8125 0.546875 -1.953125 0.546875q-0.6875 0 -1.53125 -0.296875zm22.578125 -10.515625l2.328125 0.296875q-0.375 2.421875 -1.953125 3.78125q-1.578125 1.359375 -3.875 1.359375q-2.875 0 -4.625 -1.875q-1.734375 -1.875 -1.734375 -5.390625q0 -2.265625 0.75 -3.953125q0.75 -1.703125 2.28125 -2.546875q1.53125 -0.859375 3.34375 -0.859375q2.28125 0 3.71875 1.15625q1.453125 1.140625 1.875 3.265625l-2.3125 0.359375q-0.328125 -1.40625 -1.171875 -2.109375q-0.828125 -0.71875 -2.015625 -0.71875q-1.796875 0 -2.921875 1.28125q-1.109375 1.28125 -1.109375 4.0625q0 2.828125 1.078125 4.109375q1.078125 1.265625 2.8125 1.265625q1.40625 0 2.34375 -0.84375q0.9375 -0.859375 1.1875 -2.640625zm5.34375 -8.875l11.03125 0l0 14.0l-2.359375 0l0 -12.03125l-6.296875 0l0 6.96875q0 2.4375 -0.15625 3.21875q-0.15625 0.78125 -0.875 1.359375q-0.703125 0.578125 -2.046875 0.578125q-0.84375 0 -1.921875 -0.109375l0 -1.96875l1.046875 0q0.734375 0 1.046875 -0.15625q0.328125 -0.15625 0.421875 -0.484375q0.109375 -0.328125 0.109375 -2.140625l0 -9.234375zm13.506958 7.0q0 -3.890625 2.171875 -5.765625q1.796875 -1.546875 4.40625 -1.546875q2.875 0 4.703125 1.890625q1.84375 1.890625 1.84375 5.21875q0 2.703125 -0.8125 4.265625q-0.8125 1.546875 -2.359375 2.40625q-1.546875 0.84375 -3.375 0.84375q-2.953125 0 -4.765625 -1.875q-1.8125 -1.890625 -1.8125 -5.4375zm2.4375 0q0 2.6875 1.171875 4.03125q1.1875 1.328125 2.96875 1.328125q1.765625 0 2.9375 -1.34375q1.171875 -1.34375 1.171875 -4.09375q0 -2.59375 -1.1875 -3.9375q-1.171875 -1.34375 -2.921875 -1.34375q-1.78125 0 -2.96875 1.34375q-1.171875 1.328125 -1.171875 4.015625zm13.293701 -7.0l5.46875 0q2.015625 0 3.0 0.34375q0.984375 0.328125 1.6875 1.234375q0.703125 0.890625 0.703125 2.140625q0 1.0 -0.421875 1.75q-0.40625 0.734375 -1.234375 1.234375q0.984375 0.328125 1.640625 1.234375q0.65625 0.90625 0.65625 2.140625q-0.140625 2.0 -1.4375 2.96875q-1.28125 0.953125 -3.75 0.953125l-6.3125 0l0 -14.0zm2.375 5.890625l2.53125 0q1.515625 0 2.078125 -0.15625q0.5625 -0.15625 1.015625 -0.640625q0.453125 -0.484375 0.453125 -1.15625q0 -1.109375 -0.796875 -1.53125q-0.78125 -0.4375 -2.671875 -0.4375l-2.609375 0l0 3.921875zm0 6.15625l3.125 0q2.015625 0 2.765625 -0.46875q0.75 -0.46875 0.78125 -1.609375q0 -0.671875 -0.4375 -1.25q-0.421875 -0.578125 -1.125 -0.71875q-0.703125 -0.15625 -2.234375 -0.15625l-2.875 0l0 4.203125zm11.770508 -12.046875l2.375 0l0 10.671875l6.578125 -10.671875l2.5625 0l0 14.0l-2.375 0l0 -10.609375l-6.578125 10.609375l-2.5625 0l0 -14.0zm25.9057 0l0 14.0l-2.359375 0l0 -5.453125l-1.359436 0q-1.265625 0 -1.875 0.328125q-0.609375 0.3125 -1.78125 2.0625l-2.078125 3.0625l-2.9375 0l2.5625 -3.765625q1.171875 -1.734375 2.328125 -1.953125q-2.03125 -0.28125 -3.015625 -1.46875q-0.96875 -1.1875 -0.96875 -2.734375q0 -1.8125 1.28125 -2.9375q1.28125 -1.140625 3.71875 -1.140625l6.484436 0zm-2.359375 1.96875l-3.375061 0q-2.125 0 -2.734375 0.65625q-0.609375 0.65625 -0.609375 1.546875q0 1.25 0.90625 1.84375q0.90625 0.578125 3.1875 0.578125l2.625061 0l0 -4.625zm5.8406982 -1.96875l3.6875 0l3.6875 11.203125l4.078125 -11.203125l3.421875 0l0 14.0l-2.375 0l0 -11.265625l-4.140625 11.265625l-2.125 0l-3.90625 -11.8125l0 11.8125l-2.328125 0l0 -14.0zm22.701172 9.234375q-0.015625 -0.46875 -0.015625 -0.703125q0 -1.40625 0.40625 -2.421875q0.28125 -0.765625 0.9375 -1.53125q0.46875 -0.578125 1.703125 -1.65625q1.234375 -1.09375 1.59375 -1.734375q0.375 -0.640625 0.375 -1.40625q0 -1.390625 -1.078125 -2.4375q-1.078125 -1.046875 -2.65625 -1.046875q-1.515625 0 -2.53125 0.953125q-1.015625 0.9375 -1.328125 2.953125l-2.4375 -0.28125q0.328125 -2.703125 1.953125 -4.140625q1.625 -1.4375 4.3125 -1.4375q2.828125 0 4.515625 1.546875q1.6875 1.53125 1.6875 3.71875q0 1.265625 -0.59375 2.34375q-0.59375 1.0625 -2.3125 2.59375q-1.171875 1.03125 -1.53125 1.515625q-0.34375 0.484375 -0.515625 1.125q-0.171875 0.625 -0.203125 2.046875l-2.28125 0zm-0.140625 4.765625l0 -2.703125l2.703125 0l0 2.703125l-2.703125 0z" fill-rule="nonzero"></path><path fill="#000000" fill-opacity="0.0" d="m785.943 252.7454l88.031494 0" fill-rule="nonzero"></path><path stroke="#000000" stroke-width="1.0" stroke-linejoin="round" stroke-linecap="butt" d="m785.943 252.7454l82.031494 0" fill-rule="evenodd"></path><path fill="#000000" stroke="#000000" stroke-width="1.0" stroke-linecap="butt" d="m867.9745 254.39714l4.538086 -1.6517334l-4.538086 -1.6517334z" fill-rule="evenodd"></path><path fill="#000000" fill-opacity="0.0" d="m1108.4121 252.7441l80.031494 0.50393677" fill-rule="nonzero"></path><path stroke="#000000" stroke-width="1.0" stroke-linejoin="round" stroke-linecap="butt" d="m1108.4121 252.7441l74.031494 0.46617126" fill-rule="evenodd"></path><path fill="#000000" stroke="#000000" stroke-width="1.0" stroke-linecap="butt" d="m1182.4332 254.86195l4.548462 -1.6231232l-4.527588 -1.6802826z" fill-rule="evenodd"></path><path fill="#000000" fill-opacity="0.0" d="m1120.4186 194.56693l88.031494 0l0 47.055115l-88.031494 0z" fill-rule="nonzero"></path><path fill="#000000" d="m1133.9655 211.38068l13.9375 0l0 20.203125l2.0625 0l0 8.046875l-2.703125 0l0 -5.34375l-15.140625 0l0 5.34375l-2.703125 0l0 -8.046875l1.78125 0q2.765625 -4.171875 2.765625 -16.859375l0 -3.34375zm10.90625 2.703125l-7.984375 0l0 1.171875q0 2.921875 -0.53125 8.0q-0.515625 5.0625 -2.046875 8.328125l10.5625 0l0 -17.5zm19.15625 18.15625q-1.5625 1.328125 -3.015625 1.875q-1.4375 0.546875 -3.09375 0.546875q-2.734375 0 -4.203125 -1.328125q-1.46875 -1.34375 -1.46875 -3.421875q0 -1.21875 0.546875 -2.21875q0.5625 -1.015625 1.453125 -1.625q0.90625 -0.609375 2.03125 -0.921875q0.828125 -0.21875 2.5 -0.421875q3.40625 -0.40625 5.015625 -0.96875q0.015625 -0.578125 0.015625 -0.734375q0 -1.71875 -0.796875 -2.421875q-1.078125 -0.953125 -3.203125 -0.953125q-1.984375 0 -2.9375 0.703125q-0.9375 0.6875 -1.390625 2.453125l-2.75 -0.375q0.375 -1.765625 1.234375 -2.84375q0.859375 -1.09375 2.484375 -1.671875q1.625 -0.59375 3.765625 -0.59375q2.125 0 3.453125 0.5q1.328125 0.5 1.953125 1.265625q0.625 0.75 0.875 1.90625q0.140625 0.71875 0.140625 2.59375l0 3.75q0 3.921875 0.171875 4.96875q0.1875 1.03125 0.71875 1.984375l-2.9375 0q-0.4375 -0.875 -0.5625 -2.046875zm-0.234375 -6.28125q-1.53125 0.625 -4.59375 1.0625q-1.734375 0.25 -2.453125 0.5625q-0.71875 0.3125 -1.109375 0.921875q-0.390625 0.59375 -0.390625 1.328125q0 1.125 0.84375 1.875q0.859375 0.75 2.5 0.75q1.625 0 2.890625 -0.703125q1.265625 -0.71875 1.859375 -1.953125q0.453125 -0.953125 0.453125 -2.8125l0 -1.03125z" fill-rule="nonzero"></path><path fill="#000000" fill-opacity="0.0" d="m998.12994 368.15222l88.03143 0l0 47.055115l-88.03143 0z" fill-rule="nonzero"></path><path fill="#000000" d="m1009.69244 407.87222l0 -22.90625l3.03125 0l0 9.40625l11.906189 0l0 -9.40625l3.03125 0l0 22.90625l-3.03125 0l0 -10.796875l-11.906189 0l0 10.796875l-3.03125 0zm34.015564 -5.34375l2.90625 0.359375q-0.6875 2.546875 -2.546875 3.953125q-1.859375 1.40625 -4.75 1.40625q-3.640625 0 -5.78125 -2.234375q-2.125 -2.25 -2.125 -6.296875q0 -4.1875 2.15625 -6.5q2.15625 -2.3125 5.59375 -2.3125q3.328125 0 5.4375 2.265625q2.109375 2.265625 2.109375 6.375q0 0.25 -0.015625 0.75l-12.375 0q0.15625 2.734375 1.546875 4.1875q1.390625 1.453125 3.46875 1.453125q1.546875 0 2.640625 -0.8125q1.09375 -0.8125 1.734375 -2.59375zm-9.234375 -4.546875l9.265625 0q-0.1875 -2.09375 -1.0625 -3.140625q-1.34375 -1.625 -3.484375 -1.625q-1.9375 0 -3.265625 1.296875q-1.3125 1.296875 -1.453125 3.46875zm14.15625 -6.703125l13.484375 0l0 2.328125l-5.34375 0l0 14.265625l-2.796875 0l0 -14.265625l-5.34375 0l0 -2.328125z" fill-rule="nonzero"></path></g></svg>

