<?xml version="1.0" standalone="yes"?>

<svg version="1.1" viewBox="0.0 0.0 370.40944881889766 446.50656167979" fill="none" stroke="none" stroke-linecap="square" stroke-miterlimit="10" xmlns="http://www.w3.org/2000/svg" xmlns:xlink="http://www.w3.org/1999/xlink"><clipPath id="p.0"><path d="m0 0l370.40945 0l0 446.50656l-370.40945 0l0 -446.50656z" clip-rule="nonzero"></path></clipPath><g clip-path="url(#p.0)"><path fill="#000000" fill-opacity="0.0" d="m0 0l370.40945 0l0 446.50656l-370.40945 0z" fill-rule="nonzero"></path><path shape-rendering="crispEdges" fill="#cfe2f3" d="m45.25219 249.1816l40.19423 0l0 51.196854l-40.19423 0l0 -51.196854z" fill-rule="nonzero"></path><path shape-rendering="crispEdges" fill="#cfe2f3" d="m85.44642 249.1816l40.19422 0l0 51.196854l-40.19422 0l0 -51.196854z" fill-rule="nonzero"></path><path shape-rendering="crispEdges" fill="#c9daf8" d="m45.25219 300.37845l40.19423 0l0 41.19687l-40.19423 0l0 -41.19687z" fill-rule="nonzero"></path><path shape-rendering="crispEdges" fill="#c9daf8" d="m85.44642 300.37845l40.19422 0l0 41.19687l-40.19422 0l0 -41.19687z" fill-rule="nonzero"></path><path stroke="#000000" stroke-width="1.0" stroke-linecap="butt" d="m45.25219 248.6829l0 93.3911" fill-rule="nonzero"></path><path stroke="#000000" stroke-width="1.0" stroke-linecap="butt" d="m85.44642 248.6829l0 93.3911" fill-rule="nonzero"></path><path stroke="#000000" stroke-width="1.0" stroke-linecap="butt" d="m125.64064 248.6829l0 93.3911" fill-rule="nonzero"></path><path stroke="#000000" stroke-width="1.0" stroke-linecap="butt" d="m44.7535 249.1816l81.385826 0" fill-rule="nonzero"></path><path stroke="#000000" stroke-width="1.0" stroke-linecap="butt" d="m44.7535 300.37845l81.385826 0" fill-rule="nonzero"></path><path stroke="#000000" stroke-width="1.0" stroke-linecap="butt" d="m44.7535 341.57532l81.385826 0" fill-rule="nonzero"></path><path fill="#000000" d="m57.19547 234.90475l4.296875 -5.0l-2.46875 -4.859375l1.859375 0l0.828125 1.765625q0.46875 0.984375 0.84375 1.875l2.8437462 -3.640625l2.046875 0l-4.140621 4.984375l2.4843712 4.875l-1.8593712 0l-0.984375 -2.0q-0.3125 -0.640625 -0.703125 -1.59375l-2.9375 3.59375l-2.109375 0z" fill-rule="nonzero"></path><path fill="#000000" d="m67.05484 237.67038q0 -1.53125 0.3125 -2.453125q0.3125 -0.9375 0.921875 -1.4375q0.625 -0.5 1.5625 -0.5q0.6875 0 1.203125 0.28125q0.53125 0.28125 0.875 0.8125q0.34375 0.515625 0.53125 1.265625q0.1875 0.75 0.1875 2.03125q0 1.515625 -0.3125 2.4375q-0.296875 0.921875 -0.921875 1.4375q-0.609375 0.5 -1.5625 0.5q-1.234375 0 -1.953125 -0.890625q-0.84375 -1.0625 -0.84375 -3.484375zm1.078125 0q0 2.109375 0.5 2.8125q0.5 0.703125 1.21875 0.703125q0.734375 0 1.21875 -0.703125q0.5 -0.703125 0.5 -2.8125q0 -2.125 -0.5 -2.8125q-0.484375 -0.703125 -1.234375 -0.703125q-0.71875 0 -1.15625 0.609375q-0.546875 0.78125 -0.546875 2.90625z" fill-rule="nonzero"></path><path fill="#000000" d="m100.87946 238.70163l0.109375 -1.5625q0.515625 0.140625 1.0 0.140625q0.515625 0 0.828125 -0.234375q0.40625 -0.296875 0.890625 -1.140625l0.546875 -0.96875l-1.65625 -9.890625l1.65625 0l0.75 4.984375q0.21875 1.484375 0.375 2.953125l4.40625 -7.9375l1.75 0l-6.28125 11.171875q-0.90625 1.625 -1.609375 2.15625q-0.703125 0.53125 -1.625 0.53125q-0.578125 0 -1.140625 -0.203125z" fill-rule="nonzero"></path><path fill="#000000" d="m60.94269 274.9969q0 -2.421875 0.5 -3.890625q0.5 -1.46875 1.46875 -2.265625q0.984375 -0.796875 2.4687538 -0.796875q1.09375 0 1.921875 0.4375q0.828125 0.4375 1.359375 1.28125q0.546875 0.828125 0.84375 2.015625q0.3125 1.1875 0.3125 3.21875q0 2.390625 -0.5 3.859375q-0.484375 1.46875 -1.46875 2.28125q-0.96875 0.796875 -2.46875 0.796875q-1.9687538 0 -3.0781288 -1.40625q-1.359375 -1.703125 -1.359375 -5.53125zm1.71875 0q0 3.34375 0.78125 4.453125q0.7968788 1.109375 1.9375038 1.109375q1.15625 0 1.9375 -1.109375q0.78125 -1.125 0.78125 -4.453125q0 -3.359375 -0.78125 -4.46875q-0.78125 -1.109375 -1.953125 -1.109375q-1.15625 0 -1.8281288 0.984375q-0.875 1.234375 -0.875 4.59375z" fill-rule="nonzero"></path><path fill="#000000" d="m95.60746 279.58002l1.40625 -6.734375l1.03125 0l-0.234375 1.171875q0.671875 -0.703125 1.265625 -1.015625q0.59375 -0.3125 1.203125 -0.3125q0.8125 0 1.28125 0.453125q0.46875 0.4375 0.46875 1.171875q0 0.375 -0.15625 1.1875l-0.859375 4.078125l-1.15625 0l0.90625 -4.265625q0.125 -0.625 0.125 -0.921875q0 -0.34375 -0.234375 -0.546875q-0.234375 -0.21875 -0.671875 -0.21875q-0.875 0 -1.5625 0.640625q-0.6875 0.640625 -1.015625 2.171875l-0.65625 3.140625l-1.140625 0zm12.006226 -1.21875q-1.203125 1.375 -2.484375 1.375q-0.78125 0 -1.265625 -0.453125q-0.46875 -0.453125 -0.46875 -1.09375q0 -0.421875 0.21875 -1.453125l0.8125 -3.890625l1.140625 0l-0.890625 4.296875q-0.125 0.546875 -0.125 0.84375q0 0.375 0.234375 0.59375q0.234375 0.21875 0.6875 0.21875q0.484375 0 0.9375 -0.234375q0.46875 -0.234375 0.796875 -0.640625q0.328125 -0.40625 0.546875 -0.953125q0.140625 -0.34375 0.3125 -1.21875l0.609375 -2.90625l1.15625 0l-1.40625 6.734375l-1.0625 0l0.25 -1.21875zm2.7249756 1.21875l1.9375 -9.3125l1.15625 0l-1.953125 9.3125l-1.140625 0zm2.96109 0l1.9375 -9.3125l1.15625 0l-1.953125 9.3125l-1.140625 0z" fill-rule="nonzero"></path><path fill="#000000" d="m67.23957 327.89688l-1.671875 0l0 -10.640625q-0.59375 0.578125 -1.5781288 1.15625q-0.984375 0.5625 -1.765625 0.859375l0 -1.625q1.40625 -0.65625 2.4531288 -1.59375q1.046875 -0.9375 1.484375 -1.8125l1.078125 0l0 13.65625z" fill-rule="nonzero"></path><path fill="#000000" d="m107.43379 327.89688l-1.671875 0l0 -10.640625q-0.59375 0.578125 -1.578125 1.15625q-0.984375 0.5625 -1.765625 0.859375l0 -1.625q1.40625 -0.65625 2.453125 -1.59375q1.046875 -0.9375 1.484375 -1.8125l1.078125 0l0 13.65625z" fill-rule="nonzero"></path><path shape-rendering="crispEdges" fill="#a4c2f4" d="m240.94951 164.47754l40.19423 0l0 41.19684l-40.19423 0l0 -41.19684z" fill-rule="nonzero"></path><path shape-rendering="crispEdges" fill="#a4c2f4" d="m281.14374 164.47754l40.194214 0l0 41.19684l-40.194214 0l0 -41.19684z" fill-rule="nonzero"></path><path shape-rendering="crispEdges" fill="#a4c2f4" d="m321.33795 164.47754l40.194244 0l0 41.19684l-40.194244 0l0 -41.19684z" fill-rule="nonzero"></path><path stroke="#000000" stroke-width="1.0" stroke-linecap="butt" d="m240.94951 163.97885l0 42.194214" fill-rule="nonzero"></path><path stroke="#000000" stroke-width="1.0" stroke-linecap="butt" d="m281.14374 163.97885l0 42.194214" fill-rule="nonzero"></path><path stroke="#000000" stroke-width="1.0" stroke-linecap="butt" d="m321.33795 163.97885l0 42.194214" fill-rule="nonzero"></path><path stroke="#000000" stroke-width="1.0" stroke-linecap="butt" d="m361.5322 163.97885l0 42.194214" fill-rule="nonzero"></path><path stroke="#000000" stroke-width="1.0" stroke-linecap="butt" d="m240.45082 164.47754l121.58006 0" fill-rule="nonzero"></path><path stroke="#000000" stroke-width="1.0" stroke-linecap="butt" d="m240.45082 205.67438l121.58006 0" fill-rule="nonzero"></path><path fill="#000000" d="m252.89279 149.80173l4.296875 -5.0l-2.46875 -4.859375l1.859375 0l0.828125 1.765625q0.46875 0.984375 0.84375 1.875l2.84375 -3.640625l2.046875 0l-4.140625 4.984375l2.484375 4.875l-1.859375 0l-0.984375 -2.0q-0.3125 -0.640625 -0.703125 -1.59375l-2.9375 3.59375l-2.109375 0z" fill-rule="nonzero"></path><path fill="#000000" d="m262.75217 152.56735q0 -1.53125 0.3125 -2.453125q0.3125 -0.9375 0.921875 -1.4375q0.625 -0.5 1.5625 -0.5q0.6875 0 1.203125 0.28125q0.53125 0.28125 0.875 0.8125q0.34375 0.515625 0.53125 1.265625q0.1875 0.75 0.1875 2.03125q0 1.515625 -0.3125 2.4375q-0.296875 0.921875 -0.921875 1.4375q-0.609375 0.5 -1.5625 0.5q-1.234375 0 -1.953125 -0.890625q-0.84375 -1.0625 -0.84375 -3.484375zm1.078125 0q0 2.109375 0.5 2.8125q0.5 0.703125 1.21875 0.703125q0.734375 0 1.21875 -0.703125q0.5 -0.703125 0.5 -2.8125q0 -2.125 -0.5 -2.8125q-0.484375 -0.703125 -1.234375 -0.703125q-0.71875 0 -1.15625 0.609375q-0.546875 0.78125 -0.546875 2.90625z" fill-rule="nonzero"></path><path fill="#000000" d="m293.087 149.80173l4.296875 -5.0l-2.46875 -4.859375l1.859375 0l0.828125 1.765625q0.46875 0.984375 0.84375 1.875l2.84375 -3.640625l2.046875 0l-4.140625 4.984375l2.484375 4.875l-1.859375 0l-0.984375 -2.0q-0.3125 -0.640625 -0.703125 -1.59375l-2.9375 3.59375l-2.109375 0z" fill-rule="nonzero"></path><path fill="#000000" d="m306.91513 156.80173l-1.046875 0l0 -6.71875q-0.390625 0.359375 -1.015625 0.734375q-0.609375 0.359375 -1.09375 0.53125l0 -1.015625q0.875 -0.421875 1.53125 -1.0q0.671875 -0.59375 0.953125 -1.15625l0.671875 0l0 8.625z" fill-rule="nonzero"></path><path fill="#000000" d="m333.28125 149.80173l4.296875 -5.0l-2.46875 -4.859375l1.859375 0l0.828125 1.765625q0.46875 0.984375 0.84375 1.875l2.84375 -3.640625l2.046875 0l-4.140625 4.984375l2.484375 4.875l-1.859375 0l-0.984375 -2.0q-0.3125 -0.640625 -0.703125 -1.59375l-2.9375 3.59375l-2.109375 0z" fill-rule="nonzero"></path><path fill="#000000" d="m348.6875 155.7861l0 1.015625l-5.6875 0q0 -0.375 0.125 -0.734375q0.21875 -0.578125 0.6875 -1.140625q0.484375 -0.5625 1.390625 -1.296875q1.40625 -1.15625 1.890625 -1.828125q0.5 -0.671875 0.5 -1.265625q0 -0.625 -0.453125 -1.046875q-0.453125 -0.4375 -1.171875 -0.4375q-0.765625 0 -1.21875 0.453125q-0.453125 0.453125 -0.46875 1.265625l-1.078125 -0.109375q0.109375 -1.21875 0.828125 -1.84375q0.734375 -0.640625 1.96875 -0.640625q1.234375 0 1.953125 0.6875q0.71875 0.6875 0.71875 1.703125q0 0.515625 -0.21875 1.015625q-0.203125 0.484375 -0.703125 1.046875q-0.484375 0.546875 -1.609375 1.5q-0.953125 0.796875 -1.234375 1.09375q-0.265625 0.28125 -0.4375 0.5625l4.21875 0z" fill-rule="nonzero"></path><path fill="#000000" d="m207.21436 191.39754l2.0625 -9.859375l1.671875 0l-0.34375 1.625q0.9375 -1.046875 1.671875 -1.4375q0.734375 -0.40625 1.609375 -0.40625q0.90625 0 1.515625 0.5q0.625 0.484375 0.828125 1.34375q0.75 -0.921875 1.578125 -1.375q0.828125 -0.46875 1.75 -0.46875q1.234375 0 1.84375 0.59375q0.625 0.578125 0.625 1.640625q0 0.453125 -0.21875 1.5l-1.328125 6.34375l-1.671875 0l1.359375 -6.515625q0.171875 -0.796875 0.171875 -1.140625q0 -0.484375 -0.3125 -0.75q-0.296875 -0.28125 -0.859375 -0.28125q-0.75 0 -1.53125 0.453125q-0.78125 0.453125 -1.21875 1.1875q-0.421875 0.734375 -0.75 2.265625l-1.0 4.78125l-1.671875 0l1.390625 -6.65625q0.140625 -0.671875 0.140625 -0.953125q0 -0.484375 -0.296875 -0.78125q-0.296875 -0.296875 -0.78125 -0.296875q-0.71875 0 -1.5 0.453125q-0.78125 0.453125 -1.28125 1.265625q-0.484375 0.8125 -0.796875 2.3125l-0.984375 4.65625l-1.671875 0z" fill-rule="nonzero"></path><path fill="#000000" d="m226.5989 198.39754l-1.046875 0l0 -6.71875q-0.390625 0.359375 -1.015625 0.734375q-0.609375 0.359375 -1.09375 0.53125l0 -1.015625q0.875 -0.421875 1.53125 -1.0q0.671875 -0.59375 0.953125 -1.15625l0.671875 0l0 8.625z" fill-rule="nonzero"></path><path fill="#000000" d="m256.64 184.69441q0 -2.421875 0.5 -3.890625q0.5 -1.46875 1.46875 -2.265625q0.984375 -0.796875 2.46875 -0.796875q1.09375 0 1.921875 0.4375q0.828125 0.4375 1.359375 1.28125q0.546875 0.828125 0.84375 2.015625q0.3125 1.1875 0.3125 3.21875q0 2.390625 -0.5 3.859375q-0.484375 1.46875 -1.46875 2.28125q-0.96875 0.796875 -2.46875 0.796875q-1.96875 0 -3.078125 -1.40625q-1.359375 -1.703125 -1.359375 -5.53125zm1.71875 0q0 3.34375 0.78125 4.453125q0.796875 1.109375 1.9375 1.109375q1.15625 0 1.9375 -1.109375q0.78125 -1.125 0.78125 -4.453125q0 -3.359375 -0.78125 -4.46875q-0.78125 -1.109375 -1.953125 -1.109375q-1.15625 0 -1.828125 0.984375q-0.875 1.234375 -0.875 4.59375z" fill-rule="nonzero"></path><path fill="#000000" d="m303.1311 191.39754l-1.671875 0l0 -10.640625q-0.59375 0.578125 -1.578125 1.15625q-0.984375 0.5625 -1.765625 0.859375l0 -1.625q1.40625 -0.65625 2.453125 -1.59375q1.046875 -0.9375 1.484375 -1.8125l1.078125 0l0 13.65625z" fill-rule="nonzero"></path><path fill="#000000" d="m343.32535 191.39754l-1.671875 0l0 -10.640625q-0.59375 0.578125 -1.578125 1.15625q-0.984375 0.5625 -1.765625 0.859375l0 -1.625q1.40625 -0.65625 2.453125 -1.59375q1.046875 -0.9375 1.484375 -1.8125l1.078125 0l0 13.65625z" fill-rule="nonzero"></path><path shape-rendering="crispEdges" fill="#cfe2f3" d="m240.94951 249.1816l40.19423 0l0 51.196854l-40.19423 0l0 -51.196854z" fill-rule="nonzero"></path><path shape-rendering="crispEdges" fill="#cfe2f3" d="m281.14374 249.1816l40.194214 0l0 51.196854l-40.194214 0l0 -51.196854z" fill-rule="nonzero"></path><path shape-rendering="crispEdges" fill="#cfe2f3" d="m321.33795 249.1816l40.194244 0l0 51.196854l-40.194244 0l0 -51.196854z" fill-rule="nonzero"></path><path shape-rendering="crispEdges" fill="#c9daf8" d="m240.94951 300.37845l40.19423 0l0 51.19687l-40.19423 0l0 -51.19687z" fill-rule="nonzero"></path><path shape-rendering="crispEdges" fill="#c9daf8" d="m281.14374 300.37845l40.194214 0l0 51.19687l-40.194214 0l0 -51.19687z" fill-rule="nonzero"></path><path shape-rendering="crispEdges" fill="#c9daf8" d="m321.33795 300.37845l40.194244 0l0 51.19687l-40.194244 0l0 -51.19687z" fill-rule="nonzero"></path><path shape-rendering="crispEdges" fill="#cfe2f3" d="m240.94951 351.57532l40.19423 0l0 51.19684l-40.19423 0l0 -51.19684z" fill-rule="nonzero"></path><path shape-rendering="crispEdges" fill="#cfe2f3" d="m281.14374 351.57532l40.194214 0l0 51.19684l-40.194214 0l0 -51.19684z" fill-rule="nonzero"></path><path shape-rendering="crispEdges" fill="#cfe2f3" d="m321.33795 351.57532l40.194244 0l0 51.19684l-40.194244 0l0 -51.19684z" fill-rule="nonzero"></path><path shape-rendering="crispEdges" fill="#c9daf8" d="m240.94951 402.77216l40.19423 0l0 41.19684l-40.19423 0l0 -41.19684z" fill-rule="nonzero"></path><path shape-rendering="crispEdges" fill="#c9daf8" d="m281.14374 402.77216l40.194214 0l0 41.19684l-40.194214 0l0 -41.19684z" fill-rule="nonzero"></path><path shape-rendering="crispEdges" fill="#c9daf8" d="m321.33795 402.77216l40.194244 0l0 41.19684l-40.194244 0l0 -41.19684z" fill-rule="nonzero"></path><path stroke="#000000" stroke-width="1.0" stroke-linecap="butt" d="m240.94951 248.6829l0 195.78477" fill-rule="nonzero"></path><path stroke="#000000" stroke-width="1.0" stroke-linecap="butt" d="m281.14374 248.6829l0 195.78477" fill-rule="nonzero"></path><path stroke="#000000" stroke-width="1.0" stroke-linecap="butt" d="m321.33795 248.6829l0 195.78477" fill-rule="nonzero"></path><path stroke="#000000" stroke-width="1.0" stroke-linecap="butt" d="m361.5322 248.6829l0 195.78477" fill-rule="nonzero"></path><path stroke="#000000" stroke-width="1.0" stroke-linecap="butt" d="m240.45082 249.1816l121.58006 0" fill-rule="nonzero"></path><path stroke="#000000" stroke-width="1.0" stroke-linecap="butt" d="m240.45082 300.37845l121.58006 0" fill-rule="nonzero"></path><path stroke="#000000" stroke-width="1.0" stroke-linecap="butt" d="m240.45082 351.57532l121.58006 0" fill-rule="nonzero"></path><path stroke="#000000" stroke-width="1.0" stroke-linecap="butt" d="m240.45082 402.77216l121.58006 0" fill-rule="nonzero"></path><path stroke="#000000" stroke-width="1.0" stroke-linecap="butt" d="m240.45082 443.969l121.58006 0" fill-rule="nonzero"></path><path fill="#000000" d="m252.89279 234.90475l4.296875 -5.0l-2.46875 -4.859375l1.859375 0l0.828125 1.765625q0.46875 0.984375 0.84375 1.875l2.84375 -3.640625l2.046875 0l-4.140625 4.984375l2.484375 4.875l-1.859375 0l-0.984375 -2.0q-0.3125 -0.640625 -0.703125 -1.59375l-2.9375 3.59375l-2.109375 0z" fill-rule="nonzero"></path><path fill="#000000" d="m266.72092 241.90475l-1.046875 0l0 -6.71875q-0.390625 0.359375 -1.015625 0.734375q-0.609375 0.359375 -1.09375 0.53125l0 -1.015625q0.875 -0.421875 1.53125 -1.0q0.671875 -0.59375 0.953125 -1.15625l0.671875 0l0 8.625z" fill-rule="nonzero"></path><path fill="#000000" d="m293.087 234.90475l4.296875 -5.0l-2.46875 -4.859375l1.859375 0l0.828125 1.765625q0.46875 0.984375 0.84375 1.875l2.84375 -3.640625l2.046875 0l-4.140625 4.984375l2.484375 4.875l-1.859375 0l-0.984375 -2.0q-0.3125 -0.640625 -0.703125 -1.59375l-2.9375 3.59375l-2.109375 0z" fill-rule="nonzero"></path><path fill="#000000" d="m308.49326 240.88913l0 1.015625l-5.6875 0q0 -0.375 0.125 -0.734375q0.21875 -0.578125 0.6875 -1.140625q0.484375 -0.5625 1.390625 -1.296875q1.40625 -1.15625 1.890625 -1.828125q0.5 -0.671875 0.5 -1.265625q0 -0.625 -0.453125 -1.046875q-0.453125 -0.4375 -1.171875 -0.4375q-0.765625 0 -1.21875 0.453125q-0.453125 0.453125 -0.46875 1.265625l-1.078125 -0.109375q0.109375 -1.21875 0.828125 -1.84375q0.734375 -0.640625 1.96875 -0.640625q1.234375 0 1.953125 0.6875q0.71875 0.6875 0.71875 1.703125q0 0.515625 -0.21875 1.015625q-0.203125 0.484375 -0.703125 1.046875q-0.484375 0.546875 -1.609375 1.5q-0.953125 0.796875 -1.234375 1.09375q-0.265625 0.28125 -0.4375 0.5625l4.21875 0z" fill-rule="nonzero"></path><path fill="#000000" d="m336.771 238.70163l0.109375 -1.5625q0.515625 0.140625 1.0 0.140625q0.515625 0 0.828125 -0.234375q0.40625 -0.296875 0.890625 -1.140625l0.546875 -0.96875l-1.65625 -9.890625l1.65625 0l0.75 4.984375q0.21875 1.484375 0.375 2.953125l4.40625 -7.9375l1.75 0l-6.28125 11.171875q-0.90625 1.625 -1.609375 2.15625q-0.703125 0.53125 -1.625 0.53125q-0.578125 0 -1.140625 -0.203125z" fill-rule="nonzero"></path><path fill="#000000" d="m256.64 274.9969q0 -2.421875 0.5 -3.890625q0.5 -1.46875 1.46875 -2.265625q0.984375 -0.796875 2.46875 -0.796875q1.09375 0 1.921875 0.4375q0.828125 0.4375 1.359375 1.28125q0.546875 0.828125 0.84375 2.015625q0.3125 1.1875 0.3125 3.21875q0 2.390625 -0.5 3.859375q-0.484375 1.46875 -1.46875 2.28125q-0.96875 0.796875 -2.46875 0.796875q-1.96875 0 -3.078125 -1.40625q-1.359375 -1.703125 -1.359375 -5.53125zm1.71875 0q0 3.34375 0.78125 4.453125q0.796875 1.109375 1.9375 1.109375q1.15625 0 1.9375 -1.109375q0.78125 -1.125 0.78125 -4.453125q0 -3.359375 -0.78125 -4.46875q-0.78125 -1.109375 -1.953125 -1.109375q-1.15625 0 -1.828125 0.984375q-0.875 1.234375 -0.875 4.59375z" fill-rule="nonzero"></path><path fill="#000000" d="m296.83423 274.9969q0 -2.421875 0.5 -3.890625q0.5 -1.46875 1.46875 -2.265625q0.984375 -0.796875 2.46875 -0.796875q1.09375 0 1.921875 0.4375q0.828125 0.4375 1.359375 1.28125q0.546875 0.828125 0.84375 2.015625q0.3125 1.1875 0.3125 3.21875q0 2.390625 -0.5 3.859375q-0.484375 1.46875 -1.46875 2.28125q-0.96875 0.796875 -2.46875 0.796875q-1.96875 0 -3.078125 -1.40625q-1.359375 -1.703125 -1.359375 -5.53125zm1.71875 0q0 3.34375 0.78125 4.453125q0.796875 1.109375 1.9375 1.109375q1.15625 0 1.9375 -1.109375q0.78125 -1.125 0.78125 -4.453125q0 -3.359375 -0.78125 -4.46875q-0.78125 -1.109375 -1.953125 -1.109375q-1.15625 0 -1.828125 0.984375q-0.875 1.234375 -0.875 4.59375z" fill-rule="nonzero"></path><path fill="#000000" d="m331.499 279.58002l1.40625 -6.734375l1.03125 0l-0.234375 1.171875q0.671875 -0.703125 1.265625 -1.015625q0.59375 -0.3125 1.203125 -0.3125q0.8125 0 1.28125 0.453125q0.46875 0.4375 0.46875 1.171875q0 0.375 -0.15625 1.1875l-0.859375 4.078125l-1.15625 0l0.90625 -4.265625q0.125 -0.625 0.125 -0.921875q0 -0.34375 -0.234375 -0.546875q-0.234375 -0.21875 -0.671875 -0.21875q-0.875 0 -1.5625 0.640625q-0.6875 0.640625 -1.015625 2.171875l-0.65625 3.140625l-1.140625 0zm12.006226 -1.21875q-1.203125 1.375 -2.484375 1.375q-0.78125 0 -1.265625 -0.453125q-0.46875 -0.453125 -0.46875 -1.09375q0 -0.421875 0.21875 -1.453125l0.8125 -3.890625l1.140625 0l-0.890625 4.296875q-0.125 0.546875 -0.125 0.84375q0 0.375 0.234375 0.59375q0.234375 0.21875 0.6875 0.21875q0.484375 0 0.9375 -0.234375q0.46875 -0.234375 0.796875 -0.640625q0.328125 -0.40625 0.546875 -0.953125q0.140625 -0.34375 0.3125 -1.21875l0.609375 -2.90625l1.15625 0l-1.40625 6.734375l-1.0625 0l0.25 -1.21875zm2.7249756 1.21875l1.9375 -9.3125l1.15625 0l-1.953125 9.3125l-1.140625 0zm2.96109 0l1.9375 -9.3125l1.15625 0l-1.953125 9.3125l-1.140625 0z" fill-rule="nonzero"></path><path fill="#000000" d="m256.64 326.19376q0 -2.421875 0.5 -3.890625q0.5 -1.46875 1.46875 -2.265625q0.984375 -0.796875 2.46875 -0.796875q1.09375 0 1.921875 0.4375q0.828125 0.4375 1.359375 1.28125q0.546875 0.828125 0.84375 2.015625q0.3125 1.1875 0.3125 3.21875q0 2.390625 -0.5 3.859375q-0.484375 1.46875 -1.46875 2.28125q-0.96875 0.796875 -2.46875 0.796875q-1.96875 0 -3.078125 -1.40625q-1.359375 -1.703125 -1.359375 -5.53125zm1.71875 0q0 3.34375 0.78125 4.453125q0.796875 1.109375 1.9375 1.109375q1.15625 0 1.9375 -1.109375q0.78125 -1.125 0.78125 -4.453125q0 -3.359375 -0.78125 -4.46875q-0.78125 -1.109375 -1.953125 -1.109375q-1.15625 0 -1.828125 0.984375q-0.875 1.234375 -0.875 4.59375z" fill-rule="nonzero"></path><path fill="#000000" d="m303.1311 332.89688l-1.671875 0l0 -10.640625q-0.59375 0.578125 -1.578125 1.15625q-0.984375 0.5625 -1.765625 0.859375l0 -1.625q1.40625 -0.65625 2.453125 -1.59375q1.046875 -0.9375 1.484375 -1.8125l1.078125 0l0 13.65625z" fill-rule="nonzero"></path><path fill="#000000" d="m331.499 330.7769l1.40625 -6.734375l1.03125 0l-0.234375 1.171875q0.671875 -0.703125 1.265625 -1.015625q0.59375 -0.3125 1.203125 -0.3125q0.8125 0 1.28125 0.453125q0.46875 0.4375 0.46875 1.171875q0 0.375 -0.15625 1.1875l-0.859375 4.078125l-1.15625 0l0.90625 -4.265625q0.125 -0.625 0.125 -0.921875q0 -0.34375 -0.234375 -0.546875q-0.234375 -0.21875 -0.671875 -0.21875q-0.875 0 -1.5625 0.640625q-0.6875 0.640625 -1.015625 2.171875l-0.65625 3.140625l-1.140625 0zm12.006226 -1.21875q-1.203125 1.375 -2.484375 1.375q-0.78125 0 -1.265625 -0.453125q-0.46875 -0.453125 -0.46875 -1.09375q0 -0.421875 0.21875 -1.453125l0.8125 -3.890625l1.140625 0l-0.890625 4.296875q-0.125 0.546875 -0.125 0.84375q0 0.375 0.234375 0.59375q0.234375 0.21875 0.6875 0.21875q0.484375 0 0.9375 -0.234375q0.46875 -0.234375 0.796875 -0.640625q0.328125 -0.40625 0.546875 -0.953125q0.140625 -0.34375 0.3125 -1.21875l0.609375 -2.90625l1.15625 0l-1.40625 6.734375l-1.0625 0l0.25 -1.21875zm2.7249756 1.21875l1.9375 -9.3125l1.15625 0l-1.953125 9.3125l-1.140625 0zm2.96109 0l1.9375 -9.3125l1.15625 0l-1.953125 9.3125l-1.140625 0z" fill-rule="nonzero"></path><path fill="#000000" d="m262.9369 384.09372l-1.671875 0l0 -10.640625q-0.59375 0.578125 -1.578125 1.15625q-0.984375 0.5625 -1.765625 0.859375l0 -1.625q1.40625 -0.65625 2.453125 -1.59375q1.046875 -0.9375 1.484375 -1.8125l1.078125 0l0 13.65625z" fill-rule="nonzero"></path><path fill="#000000" d="m296.83423 377.3906q0 -2.421875 0.5 -3.890625q0.5 -1.46875 1.46875 -2.265625q0.984375 -0.796875 2.46875 -0.796875q1.09375 0 1.921875 0.4375q0.828125 0.4375 1.359375 1.28125q0.546875 0.828125 0.84375 2.015625q0.3125 1.1875 0.3125 3.21875q0 2.390625 -0.5 3.859375q-0.484375 1.46875 -1.46875 2.28125q-0.96875 0.796875 -2.46875 0.796875q-1.96875 0 -3.078125 -1.40625q-1.359375 -1.703125 -1.359375 -5.53125zm1.71875 0q0 3.34375 0.78125 4.453125q0.796875 1.109375 1.9375 1.109375q1.15625 0 1.9375 -1.109375q0.78125 -1.125 0.78125 -4.453125q0 -3.359375 -0.78125 -4.46875q-0.78125 -1.109375 -1.953125 -1.109375q-1.15625 0 -1.828125 0.984375q-0.875 1.234375 -0.875 4.59375z" fill-rule="nonzero"></path><path fill="#000000" d="m331.499 381.97372l1.40625 -6.734375l1.03125 0l-0.234375 1.171875q0.671875 -0.703125 1.265625 -1.015625q0.59375 -0.3125 1.203125 -0.3125q0.8125 0 1.28125 0.453125q0.46875 0.4375 0.46875 1.171875q0 0.375 -0.15625 1.1875l-0.859375 4.078125l-1.15625 0l0.90625 -4.265625q0.125 -0.625 0.125 -0.921875q0 -0.34375 -0.234375 -0.546875q-0.234375 -0.21875 -0.671875 -0.21875q-0.875 0 -1.5625 0.640625q-0.6875 0.640625 -1.015625 2.171875l-0.65625 3.140625l-1.140625 0zm12.006226 -1.21875q-1.203125 1.375 -2.484375 1.375q-0.78125 0 -1.265625 -0.453125q-0.46875 -0.453125 -0.46875 -1.09375q0 -0.421875 0.21875 -1.453125l0.8125 -3.890625l1.140625 0l-0.890625 4.296875q-0.125 0.546875 -0.125 0.84375q0 0.375 0.234375 0.59375q0.234375 0.21875 0.6875 0.21875q0.484375 0 0.9375 -0.234375q0.46875 -0.234375 0.796875 -0.640625q0.328125 -0.40625 0.546875 -0.953125q0.140625 -0.34375 0.3125 -1.21875l0.609375 -2.90625l1.15625 0l-1.40625 6.734375l-1.0625 0l0.25 -1.21875zm2.7249756 1.21875l1.9375 -9.3125l1.15625 0l-1.953125 9.3125l-1.140625 0zm2.96109 0l1.9375 -9.3125l1.15625 0l-1.953125 9.3125l-1.140625 0z" fill-rule="nonzero"></path><path fill="#000000" d="m262.9369 430.2906l-1.671875 0l0 -10.640625q-0.59375 0.578125 -1.578125 1.15625q-0.984375 0.5625 -1.765625 0.859375l0 -1.625q1.40625 -0.65625 2.453125 -1.59375q1.046875 -0.9375 1.484375 -1.8125l1.078125 0l0 13.65625z" fill-rule="nonzero"></path><path fill="#000000" d="m303.1311 430.2906l-1.671875 0l0 -10.640625q-0.59375 0.578125 -1.578125 1.15625q-0.984375 0.5625 -1.765625 0.859375l0 -1.625q1.40625 -0.65625 2.453125 -1.59375q1.046875 -0.9375 1.484375 -1.8125l1.078125 0l0 13.65625z" fill-rule="nonzero"></path><path fill="#000000" d="m337.02847 423.58746q0 -2.421875 0.5 -3.890625q0.5 -1.46875 1.46875 -2.265625q0.984375 -0.796875 2.46875 -0.796875q1.09375 0 1.921875 0.4375q0.828125 0.4375 1.359375 1.28125q0.546875 0.828125 0.84375 2.015625q0.3125 1.1875 0.3125 3.21875q0 2.390625 -0.5 3.859375q-0.484375 1.46875 -1.46875 2.28125q-0.96875 0.796875 -2.46875 0.796875q-1.96875 0 -3.078125 -1.40625q-1.359375 -1.703125 -1.359375 -5.53125zm1.71875 0q0 3.34375 0.78125 4.453125q0.796875 1.109375 1.9375 1.109375q1.15625 0 1.9375 -1.109375q0.78125 -1.125 0.78125 -4.453125q0 -3.359375 -0.78125 -4.46875q-0.78125 -1.109375 -1.953125 -1.109375q-1.15625 0 -1.828125 0.984375q-0.875 1.234375 -0.875 4.59375z" fill-rule="nonzero"></path><path fill="#000000" d="m20.762827 273.562q-0.171875 0.640625 -0.171875 1.078125q0 0.25 0.125 0.40625q0.140625 0.15625 0.328125 0.21875q0.1875 0.0625 0.40625 0.109375q0.234375 0.03125 0.421875 0.03125l0 0.296875l-4.625 0l0 -0.296875q0.28125 -0.0625 0.46875 -0.109375q0.203125 -0.0625 0.359375 -0.140625q0.171875 -0.078125 0.265625 -0.1875q0.09375 -0.109375 0.171875 -0.234375q0.09375 -0.140625 0.140625 -0.296875q0.046875 -0.171875 0.109375 -0.375q0.078125 -0.21875 0.140625 -0.484375q-1.140625 0 -2.109375 -0.265625q-0.96875 -0.28125 -1.703125 -1.046875q-0.71875 -0.78125 -0.71875 -1.9375q0 -1.578125 0.953125 -2.8125q0.953125 -1.234375 2.359375 -1.84375q1.40625 -0.609375 2.953125 -0.609375q0.40625 0 0.609375 0.015625q0.078125 -0.40625 0.078125 -0.65625q0 -0.171875 -0.0625 -0.3125q-0.046875 -0.140625 -0.15625 -0.21875q-0.109375 -0.078125 -0.25 -0.140625q-0.125 -0.0625 -0.265625 -0.078125q-0.140625 -0.015625 -0.296875 -0.046875q-0.15625 -0.03125 -0.296875 -0.03125l0 -0.296875l4.6875 0l0 0.296875q-0.8125 0.15625 -1.078125 0.40625q-0.265625 0.25 -0.5 1.0625q0.828125 0 1.578125 0.15625q0.765625 0.140625 1.5 0.484375q0.734375 0.328125 1.171875 0.984375q0.453125 0.640625 0.453125 1.515625q0 1.515625 -0.96875 2.78125q-0.96875 1.265625 -2.40625 1.9375q-1.4375 0.671875 -2.953125 0.671875q-0.5 0 -0.71875 -0.03125zm5.015625 -5.421875q0 -1.203125 -0.796875 -1.828125q-0.78125 -0.640625 -2.015625 -0.65625l-2.0625 7.375q2.0625 0 3.46875 -1.40625q1.40625 -1.40625 1.40625 -3.484375zm-4.671875 -2.484375q-2.1875 0 -3.484375 1.375q-1.296875 1.359375 -1.296875 3.5625q0 2.390625 2.71875 2.4375l2.0625 -7.375z" fill-rule="nonzero"></path><path fill="#000000" d="m27.982645 278.46826q0 -1.53125 0.3125 -2.453125q0.3125 -0.9375 0.921875 -1.4375q0.625 -0.5 1.5625 -0.5q0.6875 0 1.203125 0.28125q0.5312481 0.28125 0.8749981 0.8125q0.34375 0.515625 0.53125 1.265625q0.1875 0.75 0.1875 2.03125q0 1.515625 -0.3125 2.4375q-0.296875 0.921875 -0.921875 1.4375q-0.6093731 0.5 -1.5624981 0.5q-1.234375 0 -1.953125 -0.890625q-0.84375 -1.0625 -0.84375 -3.484375zm1.078125 0q0 2.109375 0.5 2.8125q0.5 0.703125 1.21875 0.703125q0.734375 0 1.21875 -0.703125q0.4999981 -0.703125 0.4999981 -2.8125q0 -2.125 -0.4999981 -2.8125q-0.484375 -0.703125 -1.234375 -0.703125q-0.71875 0 -1.15625 0.609375q-0.546875 0.78125 -0.546875 2.90625z" fill-rule="nonzero"></path><path fill="#000000" d="m217.4085 273.562q-0.171875 0.640625 -0.171875 1.078125q0 0.25 0.125 0.40625q0.140625 0.15625 0.328125 0.21875q0.1875 0.0625 0.40625 0.109375q0.234375 0.03125 0.421875 0.03125l0 0.296875l-4.625 0l0 -0.296875q0.28125 -0.0625 0.46875 -0.109375q0.203125 -0.0625 0.359375 -0.140625q0.171875 -0.078125 0.265625 -0.1875q0.09375 -0.109375 0.171875 -0.234375q0.09375 -0.140625 0.140625 -0.296875q0.046875 -0.171875 0.109375 -0.375q0.078125 -0.21875 0.140625 -0.484375q-1.140625 0 -2.109375 -0.265625q-0.96875 -0.28125 -1.703125 -1.046875q-0.71875 -0.78125 -0.71875 -1.9375q0 -1.578125 0.953125 -2.8125q0.953125 -1.234375 2.359375 -1.84375q1.40625 -0.609375 2.953125 -0.609375q0.40625 0 0.609375 0.015625q0.078125 -0.40625 0.078125 -0.65625q0 -0.171875 -0.0625 -0.3125q-0.046875 -0.140625 -0.15625 -0.21875q-0.109375 -0.078125 -0.25 -0.140625q-0.125 -0.0625 -0.265625 -0.078125q-0.140625 -0.015625 -0.296875 -0.046875q-0.15625 -0.03125 -0.296875 -0.03125l0 -0.296875l4.6875 0l0 0.296875q-0.8125 0.15625 -1.078125 0.40625q-0.265625 0.25 -0.5 1.0625q0.828125 0 1.578125 0.15625q0.765625 0.140625 1.5 0.484375q0.734375 0.328125 1.171875 0.984375q0.453125 0.640625 0.453125 1.515625q0 1.515625 -0.96875 2.78125q-0.96875 1.265625 -2.40625 1.9375q-1.4375 0.671875 -2.953125 0.671875q-0.5 0 -0.71875 -0.03125zm5.015625 -5.421875q0 -1.203125 -0.796875 -1.828125q-0.78125 -0.640625 -2.015625 -0.65625l-2.0625 7.375q2.0625 0 3.46875 -1.40625q1.40625 -1.40625 1.40625 -3.484375zm-4.671875 -2.484375q-2.1875 0 -3.484375 1.375q-1.296875 1.359375 -1.296875 3.5625q0 2.390625 2.71875 2.4375l2.0625 -7.375z" fill-rule="nonzero"></path><path fill="#000000" d="m228.59706 282.70264l-1.046875 0l0 -6.71875q-0.390625 0.359375 -1.015625 0.734375q-0.609375 0.359375 -1.09375 0.53125l0 -1.015625q0.875 -0.421875 1.53125 -1.0q0.671875 -0.59375 0.953125 -1.15625l0.671875 0l0 8.625z" fill-rule="nonzero"></path><path shape-rendering="crispEdges" fill="#a4c2f4" d="m45.256336 164.47754l40.194225 0l0 41.19684l-40.194225 0l0 -41.19684z" fill-rule="nonzero"></path><path shape-rendering="crispEdges" fill="#a4c2f4" d="m85.45056 164.47754l40.19423 0l0 41.19684l-40.19423 0l0 -41.19684z" fill-rule="nonzero"></path><path shape-rendering="crispEdges" fill="#a4c2f4" d="m125.64479 164.47754l40.19423 0l0 41.19684l-40.19423 0l0 -41.19684z" fill-rule="nonzero"></path><path stroke="#000000" stroke-width="1.0" stroke-linecap="butt" d="m45.256336 163.97885l0 42.194214" fill-rule="nonzero"></path><path stroke="#000000" stroke-width="1.0" stroke-linecap="butt" d="m85.45056 163.97885l0 42.194214" fill-rule="nonzero"></path><path stroke="#000000" stroke-width="1.0" stroke-linecap="butt" d="m125.64479 163.97885l0 42.194214" fill-rule="nonzero"></path><path stroke="#000000" stroke-width="1.0" stroke-linecap="butt" d="m165.83902 163.97885l0 42.194214" fill-rule="nonzero"></path><path stroke="#000000" stroke-width="1.0" stroke-linecap="butt" d="m44.75765 164.47754l121.58006 0" fill-rule="nonzero"></path><path stroke="#000000" stroke-width="1.0" stroke-linecap="butt" d="m44.75765 205.67438l121.58006 0" fill-rule="nonzero"></path><path fill="#000000" d="m57.199615 149.80173l4.296875 -5.0l-2.46875 -4.859375l1.859375 0l0.828125 1.765625q0.46875 0.984375 0.84375 1.875l2.84375 -3.640625l2.046875 0l-4.140625 4.984375l2.484375 4.875l-1.859375 0l-0.984375 -2.0q-0.3125 -0.640625 -0.703125 -1.59375l-2.9375 3.59375l-2.109375 0z" fill-rule="nonzero"></path><path fill="#000000" d="m67.05899 152.56735q0 -1.53125 0.3125 -2.453125q0.3125 -0.9375 0.921875 -1.4375q0.625 -0.5 1.5625 -0.5q0.6875 0 1.203125 0.28125q0.53125 0.28125 0.875 0.8125q0.34375 0.515625 0.53125 1.265625q0.1875 0.75 0.1875 2.03125q0 1.515625 -0.3125 2.4375q-0.296875 0.921875 -0.921875 1.4375q-0.609375 0.5 -1.5625 0.5q-1.234375 0 -1.953125 -0.890625q-0.84375 -1.0625 -0.84375 -3.484375zm1.078125 0q0 2.109375 0.5 2.8125q0.5 0.703125 1.21875 0.703125q0.734375 0 1.21875 -0.703125q0.5 -0.703125 0.5 -2.8125q0 -2.125 -0.5 -2.8125q-0.484375 -0.703125 -1.234375 -0.703125q-0.71875 0 -1.15625 0.609375q-0.546875 0.78125 -0.546875 2.90625z" fill-rule="nonzero"></path><path fill="#000000" d="m97.393845 149.80173l4.296875 -5.0l-2.46875 -4.859375l1.859375 0l0.828125 1.765625q0.46875 0.984375 0.84375 1.875l2.84375 -3.640625l2.046875 0l-4.140625 4.984375l2.484375 4.875l-1.859375 0l-0.984375 -2.0q-0.3125 -0.640625 -0.703125 -1.59375l-2.9375 3.59375l-2.109375 0z" fill-rule="nonzero"></path><path fill="#000000" d="m111.22197 156.80173l-1.046875 0l0 -6.71875q-0.390625 0.359375 -1.015625 0.734375q-0.609375 0.359375 -1.09375 0.53125l0 -1.015625q0.875 -0.421875 1.53125 -1.0q0.671875 -0.59375 0.953125 -1.15625l0.671875 0l0 8.625z" fill-rule="nonzero"></path><path fill="#000000" d="m137.58807 149.80173l4.296875 -5.0l-2.46875 -4.859375l1.859375 0l0.828125 1.765625q0.46875 0.984375 0.84375 1.875l2.84375 -3.640625l2.046875 0l-4.140625 4.984375l2.484375 4.875l-1.859375 0l-0.984375 -2.0q-0.3125 -0.640625 -0.703125 -1.59375l-2.9375 3.59375l-2.109375 0z" fill-rule="nonzero"></path><path fill="#000000" d="m152.99432 155.7861l0 1.015625l-5.6875 0q0 -0.375 0.125 -0.734375q0.21875 -0.578125 0.6875 -1.140625q0.484375 -0.5625 1.390625 -1.296875q1.40625 -1.15625 1.890625 -1.828125q0.5 -0.671875 0.5 -1.265625q0 -0.625 -0.453125 -1.046875q-0.453125 -0.4375 -1.171875 -0.4375q-0.765625 0 -1.21875 0.453125q-0.453125 0.453125 -0.46875 1.265625l-1.078125 -0.109375q0.109375 -1.21875 0.828125 -1.84375q0.734375 -0.640625 1.96875 -0.640625q1.234375 0 1.953125 0.6875q0.71875 0.6875 0.71875 1.703125q0 0.515625 -0.21875 1.015625q-0.203125 0.484375 -0.703125 1.046875q-0.484375 0.546875 -1.609375 1.5q-0.953125 0.796875 -1.234375 1.09375q-0.265625 0.28125 -0.4375 0.5625l4.21875 0z" fill-rule="nonzero"></path><path fill="#000000" d="m11.521182 191.39754l2.0625 -9.859375l1.671876 0l-0.34375095 1.625q0.93750095 -1.046875 1.671876 -1.4375q0.734375 -0.40625 1.609375 -0.40625q0.90625 0 1.515625 0.5q0.625 0.484375 0.828125 1.34375q0.75 -0.921875 1.578125 -1.375q0.828125 -0.46875 1.75 -0.46875q1.234375 0 1.84375 0.59375q0.625 0.578125 0.625 1.640625q0 0.453125 -0.21875 1.5l-1.328125 6.34375l-1.671875 0l1.359375 -6.515625q0.171875 -0.796875 0.171875 -1.140625q0 -0.484375 -0.3125 -0.75q-0.296875 -0.28125 -0.859375 -0.28125q-0.75 0 -1.53125 0.453125q-0.78125 0.453125 -1.21875 1.1875q-0.421875 0.734375 -0.75 2.265625l-1.0 4.78125l-1.671875 0l1.390625 -6.65625q0.140625 -0.671875 0.140625 -0.953125q0 -0.484375 -0.296875 -0.78125q-0.296875 -0.296875 -0.78125 -0.296875q-0.71875 0 -1.5 0.453125q-0.78125 0.453125 -1.281251 1.265625q-0.484375 0.8125 -0.796875 2.3125l-0.984375 4.65625l-1.671875 0z" fill-rule="nonzero"></path><path fill="#000000" d="m26.936985 194.16316q0 -1.53125 0.3125 -2.453125q0.3125 -0.9375 0.921875 -1.4375q0.625 -0.5 1.5625 -0.5q0.6875 0 1.203125 0.28125q0.53125 0.28125 0.875 0.8125q0.34375 0.515625 0.53125 1.265625q0.1875 0.75 0.1875 2.03125q0 1.515625 -0.3125 2.4375q-0.296875 0.921875 -0.921875 1.4375q-0.609375 0.5 -1.5625 0.5q-1.234375 0 -1.953125 -0.890625q-0.84375 -1.0625 -0.84375 -3.484375zm1.078125 0q0 2.109375 0.5 2.8125q0.5 0.703125 1.21875 0.703125q0.734375 0 1.21875 -0.703125q0.5 -0.703125 0.5 -2.8125q0 -2.125 -0.5 -2.8125q-0.484375 -0.703125 -1.234375 -0.703125q-0.71875 0 -1.15625 0.609375q-0.546875 0.78125 -0.546875 2.90625z" fill-rule="nonzero"></path><path fill="#000000" d="m67.24371 191.39754l-1.671875 0l0 -10.640625q-0.59375 0.578125 -1.5781212 1.15625q-0.984375 0.5625 -1.765625 0.859375l0 -1.625q1.40625 -0.65625 2.4531212 -1.59375q1.046875 -0.9375 1.484375 -1.8125l1.078125 0l0 13.65625z" fill-rule="nonzero"></path><path fill="#000000" d="m101.14107 184.69441q0 -2.421875 0.5 -3.890625q0.5 -1.46875 1.46875 -2.265625q0.984375 -0.796875 2.46875 -0.796875q1.09375 0 1.921875 0.4375q0.828125 0.4375 1.359375 1.28125q0.546875 0.828125 0.84375 2.015625q0.3125 1.1875 0.3125 3.21875q0 2.390625 -0.5 3.859375q-0.484375 1.46875 -1.46875 2.28125q-0.96875 0.796875 -2.46875 0.796875q-1.96875 0 -3.078125 -1.40625q-1.359375 -1.703125 -1.359375 -5.53125zm1.71875 0q0 3.34375 0.78125 4.453125q0.796875 1.109375 1.9375 1.109375q1.15625 0 1.9375 -1.109375q0.78125 -1.125 0.78125 -4.453125q0 -3.359375 -0.78125 -4.46875q-0.78125 -1.109375 -1.953125 -1.109375q-1.15625 0 -1.828125 0.984375q-0.875 1.234375 -0.875 4.59375z" fill-rule="nonzero"></path><path fill="#000000" d="m141.3353 184.69441q0 -2.421875 0.5 -3.890625q0.5 -1.46875 1.46875 -2.265625q0.984375 -0.796875 2.46875 -0.796875q1.09375 0 1.921875 0.4375q0.828125 0.4375 1.359375 1.28125q0.546875 0.828125 0.84375 2.015625q0.3125 1.1875 0.3125 3.21875q0 2.390625 -0.5 3.859375q-0.484375 1.46875 -1.46875 2.28125q-0.96875 0.796875 -2.46875 0.796875q-1.96875 0 -3.078125 -1.40625q-1.359375 -1.703125 -1.359375 -5.53125zm1.71875 0q0 3.34375 0.78125 4.453125q0.796875 1.109375 1.9375 1.109375q1.15625 0 1.9375 -1.109375q0.78125 -1.125 0.78125 -4.453125q0 -3.359375 -0.78125 -4.46875q-0.78125 -1.109375 -1.953125 -1.109375q-1.15625 0 -1.828125 0.984375q-0.875 1.234375 -0.875 4.59375z" fill-rule="nonzero"></path><path fill="#cfe2f3" d="m89.11119 62.884434l0 0c0 -4.3516846 3.5277405 -7.879425 7.879425 -7.879425l46.697845 0c2.0897522 0 4.093918 0.8301544 5.571594 2.3078308c1.4776764 1.4776802 2.3078308 3.481842 2.3078308 5.571594l0 31.516743c0 4.3516846 -3.5277405 7.879425 -7.879425 7.879425l-46.697845 0l0 0c-4.3516846 0 -7.879425 -3.5277405 -7.879425 -7.879425z" fill-rule="nonzero"></path><path stroke="#000000" stroke-width="1.0" stroke-linejoin="round" stroke-linecap="butt" d="m89.11119 62.884434l0 0c0 -4.3516846 3.5277405 -7.879425 7.879425 -7.879425l46.697845 0c2.0897522 0 4.093918 0.8301544 5.571594 2.3078308c1.4776764 1.4776802 2.3078308 3.481842 2.3078308 5.571594l0 31.516743c0 4.3516846 -3.5277405 7.879425 -7.879425 7.879425l-46.697845 0l0 0c-4.3516846 0 -7.879425 -3.5277405 -7.879425 -7.879425z" fill-rule="nonzero"></path><path fill="#000000" d="m115.93293 78.85968q0 -2.421875 0.5 -3.890625q0.5 -1.46875 1.46875 -2.265625q0.984375 -0.796875 2.46875 -0.796875q1.09375 0 1.921875 0.4375q0.828125 0.4375 1.3593674 1.28125q0.546875 0.828125 0.84375 2.015625q0.3125 1.1875 0.3125 3.21875q0 2.390625 -0.5 3.859375q-0.484375 1.46875 -1.4687424 2.28125q-0.96875 0.796875 -2.46875 0.796875q-1.96875 0 -3.078125 -1.40625q-1.359375 -1.703125 -1.359375 -5.53125zm1.71875 0q0 3.34375 0.78125 4.453125q0.796875 1.109375 1.9375 1.109375q1.15625 0 1.9375 -1.109375q0.78125 -1.125 0.78125 -4.453125q0 -3.359375 -0.78125 -4.46875q-0.78125 -1.109375 -1.953125 -1.109375q-1.15625 0 -1.828125 0.984375q-0.875 1.234375 -0.875 4.59375z" fill-rule="nonzero"></path><path fill="#cfe2f3" d="m255.94868 62.884434l0 0c0 -4.3516846 3.5277252 -7.879425 7.87941 -7.879425l46.697876 0c2.0897522 0 4.0939026 0.8301544 5.5715637 2.3078308c1.4776917 1.4776802 2.3078308 3.481842 2.3078308 5.571594l0 31.516743c0 4.3516846 -3.52771 7.879425 -7.8793945 7.879425l-46.697876 0l0 0c-4.3516846 0 -7.87941 -3.5277405 -7.87941 -7.879425z" fill-rule="nonzero"></path><path stroke="#000000" stroke-width="1.0" stroke-linejoin="round" stroke-linecap="butt" d="m255.94868 62.884434l0 0c0 -4.3516846 3.5277252 -7.879425 7.87941 -7.879425l46.697876 0c2.0897522 0 4.0939026 0.8301544 5.5715637 2.3078308c1.4776917 1.4776802 2.3078308 3.481842 2.3078308 5.571594l0 31.516743c0 4.3516846 -3.52771 7.879425 -7.8793945 7.879425l-46.697876 0l0 0c-4.3516846 0 -7.87941 -3.5277405 -7.87941 -7.879425z" fill-rule="nonzero"></path><path fill="#000000" d="m289.0673 85.562805l-1.671875 0l0 -10.640625q-0.59375 0.578125 -1.578125 1.15625q-0.984375 0.5625 -1.765625 0.859375l0 -1.625q1.40625 -0.65625 2.453125 -1.59375q1.046875 -0.9375 1.484375 -1.8125l1.078125 0l0 13.65625z" fill-rule="nonzero"></path><path fill="#000000" fill-opacity="0.0" d="m120.33954 55.00501c0 -12.49995 -14.147163 -24.910145 -28.085876 -24.9999c-13.938713 -0.08975792 -27.668983 12.140923 -28.085876 24.326721c-0.41689682 12.185802 12.479576 24.326725 24.959152 24.326725" fill-rule="nonzero"></path><path stroke="#000000" stroke-width="1.0" stroke-linejoin="round" stroke-linecap="butt" d="m120.33954 55.00501c0 -12.49995 -14.147171 -24.910143 -28.085876 -24.9999c-13.938713 -0.08975792 -27.668983 12.140923 -28.085876 24.326725c-0.2084465 6.0928993 2.9114456 12.174576 7.6433945 16.733032c2.365982 2.2792282 5.1349716 4.1776505 8.092438 5.5062637c0.73937225 0.33215332 1.4905167 0.6286926 2.2500916 0.886673c0.18989563 0.06449127 0.3803177 0.12657166 0.57121277 0.186203l0.4662094 0.13925171" fill-rule="evenodd"></path><path fill="#000000" stroke="#000000" stroke-width="1.0" stroke-linecap="butt" d="m82.950165 79.41731l4.730507 -0.97203064l-4.248581 -2.2960892z" fill-rule="evenodd"></path><path fill="#000000" fill-opacity="0.0" d="m151.56789 78.64281c26.095001 0 39.142776 0.01574707 52.190018 0.03149414c13.047241 0.01574707 26.093964 0.03149414 52.187927 0.03149414" fill-rule="nonzero"></path><path stroke="#000000" stroke-width="1.0" stroke-linejoin="round" stroke-linecap="butt" d="m151.56789 78.64281c26.095001 0 39.14276 0.01574707 52.190002 0.03149414c6.5236206 0.007873535 13.047134 0.01574707 21.201447 0.021652222c4.077179 0.0029525757 8.5620575 0.00541687 13.658508 0.007133484l11.328003 0.0017700195" fill-rule="evenodd"></path><path fill="#000000" stroke="#000000" stroke-width="1.0" stroke-linecap="butt" d="m249.94559 80.35659l4.5383606 -1.6510239l-4.537842 -1.6524429z" fill-rule="evenodd"></path><path fill="#000000" fill-opacity="0.0" d="m287.17703 55.00501c0 -12.49995 14.161438 -24.910145 28.114227 -24.9999c13.952759 -0.08975792 27.6969 12.140923 28.114197 24.326721c0.41732788 12.185802 -12.492157 24.326725 -24.984344 24.326725" fill-rule="nonzero"></path><path stroke="#000000" stroke-width="1.0" stroke-linejoin="round" stroke-linecap="butt" d="m287.17703 55.00501c0 -12.49995 14.161438 -24.910143 28.114227 -24.9999c13.952759 -0.08975792 27.6969 12.140923 28.114197 24.326725c0.2086792 6.0928993 -2.9143677 12.174576 -7.6510925 16.733032c-2.3683777 2.2792282 -5.1401367 4.1776505 -8.100616 5.5062637c-0.7400818 0.33215332 -1.4920044 0.6286926 -2.2523499 0.886673c-0.190094 0.06449127 -0.3807068 0.12657166 -0.57180786 0.186203l-0.4723816 0.1409607" fill-rule="evenodd"></path><path fill="#000000" stroke="#000000" stroke-width="1.0" stroke-linecap="butt" d="m324.1167 76.15083l-4.249237 2.2948685l4.7302246 0.9733963z" fill-rule="evenodd"></path><path fill="#000000" fill-opacity="0.0" d="m287.17703 102.2806c0 12.5 -41.708664 24.992126 -83.41733 25.0c-41.708664 0.007873535 -83.41732 -12.468506 -83.41732 -24.937012" fill-rule="nonzero"></path><path stroke="#000000" stroke-width="1.0" stroke-linejoin="round" stroke-linecap="butt" d="m287.17703 102.2806c0 12.5 -41.70865 24.992126 -83.41731 25.0c-20.854324 0.0039367676 -41.70868 -3.1131897 -57.349426 -7.789856c-7.8203735 -2.3383408 -14.337341 -5.0665665 -18.899231 -7.9894867c-1.1404724 -0.7307358 -2.1587524 -1.4736252 -3.0446472 -2.225647c-0.44295502 -0.37600708 -0.8528137 -0.75429535 -1.228302 -1.1344833c-0.09387207 -0.09503937 -0.18560028 -0.19020844 -0.2751541 -0.2854843l-0.073028564 -0.0797348" fill-rule="evenodd"></path><path fill="#000000" stroke="#000000" stroke-width="1.0" stroke-linecap="butt" d="m124.385376 107.0746l-3.4222794 -3.4074173l0.4313736 4.8100357z" fill-rule="evenodd"></path><path fill="#000000" fill-opacity="0.0" d="m184.69649 40.190887l56.25197 0l0 25.007874l-56.25197 0z" fill-rule="nonzero"></path><path fill="#000000" d="m193.66524 67.110886l4.296875 -5.0l-2.46875 -4.859375l1.859375 0l0.828125 1.765625q0.46875 0.984375 0.84375 1.875l2.84375 -3.640625l2.046875 0l-4.140625 4.984375l2.484375 4.875l-1.859375 0l-0.984375 -2.0q-0.3125 -0.640625 -0.703125 -1.59375l-2.9375 3.59375l-2.109375 0z" fill-rule="nonzero"></path><path fill="#000000" d="m203.52461 69.87651q0 -1.53125 0.3125 -2.453125q0.3125 -0.9375 0.921875 -1.4375q0.625 -0.5 1.5625 -0.5q0.6875 0 1.203125 0.28125q0.53125 0.28125 0.875 0.8125q0.34375 0.515625 0.53125 1.265625q0.1875 0.75 0.1875 2.03125q0 1.515625 -0.3125 2.4375q-0.296875 0.921875 -0.921875 1.4375q-0.609375 0.5 -1.5625 0.5q-1.234375 0 -1.953125 -0.890625q-0.84375 -1.0625 -0.84375 -3.484375zm1.078125 0q0 2.109375 0.5 2.8125q0.5 0.703125 1.21875 0.703125q0.734375 0 1.21875 -0.703125q0.5 -0.703125 0.5 -2.8125q0 -2.125 -0.5 -2.8125q-0.484375 -0.703125 -1.234375 -0.703125q-0.71875 0 -1.15625 0.609375q-0.546875 0.78125 -0.546875 2.90625z" fill-rule="nonzero"></path><path fill="#000000" fill-opacity="0.0" d="m60.568462 -8.491504l80.377945 0l0 25.007874l-80.377945 0z" fill-rule="nonzero"></path><path fill="#000000" d="m69.53721 18.428495l4.296875 -5.000001l-2.46875 -4.859375l1.859375 0l0.828125 1.765625q0.46875 0.984375 0.84375 1.875l2.84375 -3.640625l2.046875 0l-4.140625 4.984375l2.484375 4.875001l-1.859375 0l-0.984375 -2.0q-0.3125 -0.64062595 -0.703125 -1.593751l-2.9375 3.593751l-2.109375 0z" fill-rule="nonzero"></path><path fill="#000000" d="m83.36533 25.428495l-1.046875 0l0 -6.71875q-0.390625 0.359375 -1.015625 0.734375q-0.609375 0.359375 -1.09375 0.53125l0 -1.015625q0.875 -0.421875 1.53125 -1.0q0.671875 -0.59375 0.953125 -1.15625l0.671875 0l0 8.625z" fill-rule="nonzero"></path><path fill="#000000" d="m94.84487 16.81912q-0.828125 0.921875 -1.8125 1.390625q-0.9687424 0.453125 -2.0937424 0.453125q-2.09375 0 -3.3125 -1.40625q-1.0 -1.15625 -1.0 -2.578126q0 -1.265625 0.8125 -2.28125q0.8125 -1.015625 2.421875 -1.78125q-0.90625 -1.0625 -1.21875 -1.71875q-0.296875 -0.65625 -0.296875 -1.265625q0 -1.234375 0.953125 -2.125q0.953125 -0.90625 2.421875 -0.90625q1.3906174 0 2.2656174 0.859375q0.890625 0.84375 0.890625 2.046875q0 1.9375 -2.5624924 3.3125l2.4374924 3.09375q0.421875 -0.8125 0.640625 -1.890625l1.734375 0.375q-0.4375 1.78125 -1.203125 2.9375q0.9375 1.234376 2.125 2.078126l-1.125 1.328125q-1.0 -0.640625 -2.078125 -1.921875zm-3.4062424 -7.078126q1.09375 -0.640625 1.4062424 -1.125q0.328125 -0.484375 0.328125 -1.0625q0 -0.703125 -0.453125 -1.140625q-0.43749237 -0.4375 -1.0937424 -0.4375q-0.671875 0 -1.125 0.4375q-0.453125 0.421875 -0.453125 1.0625q0 0.3125 0.15625 0.65625q0.171875 0.34375 0.5 0.734375l0.734375 0.875zm2.3593674 5.765625l-3.0624924 -3.796875q-1.359375 0.8125 -1.84375 1.5q-0.46875 0.6875 -0.46875 1.375q0 0.8125 0.65625 1.703126q0.671875 0.890625 1.875 0.890625q0.75 0 1.546875 -0.46875q0.8124924 -0.46875 1.2968674 -1.203126zm4.599823 2.921876l3.59375 -5.125001l-3.328125 -4.734375l2.09375 0l1.515625 2.3125q0.421875 0.65625 0.671875 1.109375q0.421875 -0.609375 0.765625 -1.09375l1.65625 -2.328125l1.984375 0l-3.390625 4.640625l3.65625 5.218751l-2.046875 0l-2.03125 -3.062501l-0.53125 -0.828125l-2.59375 3.890626l-2.015625 0z" fill-rule="nonzero"></path><path fill="#000000" d="m113.632195 24.41287l0 1.015625l-5.6875 0q0 -0.375 0.125 -0.734375q0.21875 -0.578125 0.6875 -1.140625q0.484375 -0.5625 1.390625 -1.296875q1.40625 -1.15625 1.890625 -1.828125q0.5 -0.671875 0.5 -1.265625q0 -0.625 -0.453125 -1.046875q-0.453125 -0.4375 -1.171875 -0.4375q-0.765625 0 -1.21875 0.453125q-0.453125 0.453125 -0.46875 1.265625l-1.078125 -0.109375q0.109375 -1.21875 0.828125 -1.84375q0.734375 -0.640625 1.96875 -0.640625q1.234375 0 1.953125 0.6875q0.71875 0.6875 0.71875 1.703125q0 0.515625 -0.21875 1.015625q-0.203125 0.484375 -0.703125 1.046875q-0.484375 0.546875 -1.609375 1.5q-0.953125 0.796875 -1.234375 1.09375q-0.265625 0.28125 -0.4375 0.5625l4.21875 0z" fill-rule="nonzero"></path><path fill="#000000" fill-opacity="0.0" d="m286.3949 -8.491504l80.37796 0l0 25.007874l-80.37796 0z" fill-rule="nonzero"></path><path fill="#000000" d="m306.0824 14.490994l-1.578125 0l0 -4.0625l-7.40625 0l0 -1.5625l8.984375 0l0 5.625zm0.1762085 3.937501l4.296875 -5.000001l-2.46875 -4.859375l1.859375 0l0.828125 1.765625q0.46875 0.984375 0.84375 1.875l2.84375 -3.640625l2.046875 0l-4.140625 4.984375l2.484375 4.875001l-1.859375 0l-0.984375 -2.0q-0.3125 -0.64062595 -0.703125 -1.593751l-2.9375 3.593751l-2.109375 0z" fill-rule="nonzero"></path><path fill="#000000" d="m320.08673 25.428495l-1.046875 0l0 -6.71875q-0.390625 0.359375 -1.015625 0.734375q-0.609375 0.359375 -1.09375 0.53125l0 -1.015625q0.875 -0.421875 1.53125 -1.0q0.671875 -0.59375 0.953125 -1.15625l0.671875 0l0 8.625z" fill-rule="nonzero"></path><path fill="#000000" d="m331.56628 16.81912q-0.828125 0.921875 -1.8125 1.390625q-0.96875 0.453125 -2.09375 0.453125q-2.09375 0 -3.3125 -1.40625q-1.0 -1.15625 -1.0 -2.578126q0 -1.265625 0.8125 -2.28125q0.8125 -1.015625 2.421875 -1.78125q-0.90625 -1.0625 -1.21875 -1.71875q-0.296875 -0.65625 -0.296875 -1.265625q0 -1.234375 0.953125 -2.125q0.953125 -0.90625 2.421875 -0.90625q1.390625 0 2.265625 0.859375q0.890625 0.84375 0.890625 2.046875q0 1.9375 -2.5625 3.3125l2.4375 3.09375q0.421875 -0.8125 0.640625 -1.890625l1.734375 0.375q-0.4375 1.78125 -1.203125 2.9375q0.9375 1.234376 2.125 2.078126l-1.125 1.328125q-1.0 -0.640625 -2.078125 -1.921875zm-3.40625 -7.078126q1.09375 -0.640625 1.40625 -1.125q0.328125 -0.484375 0.328125 -1.0625q0 -0.703125 -0.453125 -1.140625q-0.4375 -0.4375 -1.09375 -0.4375q-0.671875 0 -1.125 0.4375q-0.453125 0.421875 -0.453125 1.0625q0 0.3125 0.15625 0.65625q0.171875 0.34375 0.5 0.734375l0.734375 0.875zm2.359375 5.765625l-3.0625 -3.796875q-1.359375 0.8125 -1.84375 1.5q-0.46875 0.6875 -0.46875 1.375q0 0.8125 0.65625 1.703126q0.671875 0.890625 1.875 0.890625q0.75 0 1.546875 -0.46875q0.8125 -0.46875 1.296875 -1.203126zm4.599823 2.921876l3.59375 -5.125001l-3.328125 -4.734375l2.09375 0l1.515625 2.3125q0.421875 0.65625 0.671875 1.109375q0.421875 -0.609375 0.765625 -1.09375l1.65625 -2.328125l1.984375 0l-3.390625 4.640625l3.65625 5.218751l-2.046875 0l-2.03125 -3.062501l-0.53125 -0.828125l-2.59375 3.890626l-2.015625 0z" fill-rule="nonzero"></path><path fill="#000000" d="m350.3536 24.41287l0 1.015625l-5.6875 0q0 -0.375 0.125 -0.734375q0.21875 -0.578125 0.6875 -1.140625q0.484375 -0.5625 1.390625 -1.296875q1.40625 -1.15625 1.890625 -1.828125q0.5 -0.671875 0.5 -1.265625q0 -0.625 -0.453125 -1.046875q-0.453125 -0.4375 -1.171875 -0.4375q-0.765625 0 -1.21875 0.453125q-0.453125 0.453125 -0.46875 1.265625l-1.078125 -0.109375q0.109375 -1.21875 0.828125 -1.84375q0.734375 -0.640625 1.96875 -0.640625q1.234375 0 1.953125 0.6875q0.71875 0.6875 0.71875 1.703125q0 0.515625 -0.21875 1.015625q-0.203125 0.484375 -0.703125 1.046875q-0.484375 0.546875 -1.609375 1.5q-0.953125 0.796875 -1.234375 1.09375q-0.265625 0.28125 -0.4375 0.5625l4.21875 0z" fill-rule="nonzero"></path><path fill="#000000" fill-opacity="0.0" d="m165.5093 87.995674l80.37796 0l0 25.007874l-80.37796 0z" fill-rule="nonzero"></path><path fill="#000000" d="m174.47804 114.91567l4.296875 -5.0l-2.46875 -4.859375l1.859375 0l0.828125 1.765625q0.46875 0.984375 0.84375 1.875l2.84375 -3.640625l2.046875 0l-4.140625 4.984375l2.484375 4.875l-1.859375 0l-0.984375 -2.0q-0.3125 -0.640625 -0.703125 -1.59375l-2.9375 3.59375l-2.109375 0z" fill-rule="nonzero"></path><path fill="#000000" d="m188.30617 121.91567l-1.046875 0l0 -6.71875q-0.390625 0.359375 -1.015625 0.734375q-0.609375 0.359375 -1.09375 0.53125l0 -1.015625q0.875 -0.421875 1.53125 -1.0q0.671875 -0.59375 0.953125 -1.15625l0.671875 0l0 8.625z" fill-rule="nonzero"></path><path fill="#000000" d="m199.7857 113.3063q-0.828125 0.921875 -1.8125 1.390625q-0.96873474 0.453125 -2.0937347 0.453125q-2.09375 0 -3.3125 -1.40625q-1.0 -1.15625 -1.0 -2.578125q0 -1.265625 0.8125 -2.28125q0.8125 -1.015625 2.421875 -1.78125q-0.90625 -1.0625 -1.21875 -1.71875q-0.296875 -0.65625 -0.296875 -1.265625q0 -1.234375 0.953125 -2.125q0.953125 -0.90625 2.421875 -0.90625q1.3906097 0 2.2656097 0.859375q0.890625 0.84375 0.890625 2.046875q0 1.9375 -2.5624847 3.3125l2.4374847 3.09375q0.421875 -0.8125 0.640625 -1.890625l1.734375 0.375q-0.4375 1.78125 -1.203125 2.9375q0.9375 1.234375 2.125 2.078125l-1.125 1.328125q-1.0 -0.640625 -2.078125 -1.921875zm-3.4062347 -7.078125q1.09375 -0.640625 1.4062347 -1.125q0.328125 -0.484375 0.328125 -1.0625q0 -0.703125 -0.453125 -1.140625q-0.43748474 -0.4375 -1.0937347 -0.4375q-0.671875 0 -1.125 0.4375q-0.453125 0.421875 -0.453125 1.0625q0 0.3125 0.15625 0.65625q0.171875 0.34375 0.5 0.734375l0.734375 0.875zm2.3593597 5.765625l-3.0624847 -3.796875q-1.359375 0.8125 -1.84375 1.5q-0.46875 0.6875 -0.46875 1.375q0 0.8125 0.65625 1.703125q0.671875 0.890625 1.875 0.890625q0.75 0 1.546875 -0.46875q0.81248474 -0.46875 1.2968597 -1.203125z" fill-rule="nonzero"></path><path fill="#000000" d="m213.88553 110.97817l-1.578125 0l0 -4.0625l-7.40625 0l0 -1.5625l8.984375 0l0 5.625z" fill-rule="nonzero"></path><path fill="#000000" d="m214.23361 114.91567l3.59375 -5.125l-3.328125 -4.734375l2.09375 0l1.515625 2.3125q0.421875 0.65625 0.671875 1.109375q0.421875 -0.609375 0.765625 -1.09375l1.65625 -2.328125l1.984375 0l-3.390625 4.640625l3.65625 5.21875l-2.046875 0l-2.03125 -3.0625l-0.53125 -0.828125l-2.59375 3.890625l-2.015625 0z" fill-rule="nonzero"></path><path fill="#000000" d="m229.46799 120.90005l0 1.015625l-5.6875 0q0 -0.375 0.125 -0.734375q0.21875 -0.578125 0.6875 -1.140625q0.484375 -0.5625 1.390625 -1.296875q1.40625 -1.15625 1.890625 -1.828125q0.5 -0.671875 0.5 -1.265625q0 -0.625 -0.453125 -1.046875q-0.453125 -0.4375 -1.171875 -0.4375q-0.765625 0 -1.21875 0.453125q-0.453125 0.453125 -0.46875 1.265625l-1.078125 -0.109375q0.109375 -1.21875 0.828125 -1.84375q0.734375 -0.640625 1.96875 -0.640625q1.234375 0 1.953125 0.6875q0.71875 0.6875 0.71875 1.703125q0 0.515625 -0.21875 1.015625q-0.203125 0.484375 -0.703125 1.046875q-0.484375 0.546875 -1.609375 1.5q-0.953125 0.796875 -1.234375 1.09375q-0.265625 0.28125 -0.4375 0.5625l4.21875 0z" fill-rule="nonzero"></path></g></svg>

