<?xml version="1.0" standalone="yes"?>

<svg version="1.1" viewBox="0.0 0.0 853.6456692913385 453.0524934383202" fill="none" stroke="none" stroke-linecap="square" stroke-miterlimit="10" xmlns="http://www.w3.org/2000/svg" xmlns:xlink="http://www.w3.org/1999/xlink"><clipPath id="p.0"><path d="m0 0l853.6457 0l0 453.0525l-853.6457 0l0 -453.0525z" clip-rule="nonzero"></path></clipPath><g clip-path="url(#p.0)"><path fill="#000000" fill-opacity="0.0" d="m0 0l853.6457 0l0 453.0525l-853.6457 0z" fill-rule="nonzero"></path><path fill="#e06666" d="m738.90027 179.20998l0 0c0 -28.388306 24.007385 -51.40158 53.62207 -51.40158l0 0c14.221436 0 27.860413 5.415512 37.916504 15.055176c10.056091 9.639664 15.705505 22.713852 15.705505 36.346405l0 0c0 28.388306 -24.007385 51.401566 -53.62201 51.401566l0 0c-29.614685 0 -53.62207 -23.01326 -53.62207 -51.401566z" fill-rule="nonzero"></path><path stroke="#000000" stroke-width="2.0" stroke-linejoin="round" stroke-linecap="butt" d="m738.90027 179.20998l0 0c0 -28.388306 24.007385 -51.40158 53.62207 -51.40158l0 0c14.221436 0 27.860413 5.415512 37.916504 15.055176c10.056091 9.639664 15.705505 22.713852 15.705505 36.346405l0 0c0 28.388306 -24.007385 51.401566 -53.62201 51.401566l0 0c-29.614685 0 -53.62207 -23.01326 -53.62207 -51.401566z" fill-rule="nonzero"></path><path fill="#cfe2f3" d="m7.1052737 55.634186l0 0c0 -7.305813 5.915482 -13.228348 13.212597 -13.228348l0 0c3.5042 0 6.864876 1.3936996 9.342718 3.8744965c2.4778423 2.480793 3.8698826 5.8454742 3.8698826 9.353851l0 0c0 7.305813 -5.9154835 13.228348 -13.212601 13.228348l0 0c-7.2971153 0 -13.212597 -5.922535 -13.212597 -13.228348z" fill-rule="nonzero"></path><path stroke="#000000" stroke-width="2.0" stroke-linejoin="round" stroke-linecap="butt" d="m7.1052737 55.634186l0 0c0 -7.305813 5.915482 -13.228348 13.212597 -13.228348l0 0c3.5042 0 6.864876 1.3936996 9.342718 3.8744965c2.4778423 2.480793 3.8698826 5.8454742 3.8698826 9.353851l0 0c0 7.305813 -5.9154835 13.228348 -13.212601 13.228348l0 0c-7.2971153 0 -13.212597 -5.922535 -13.212597 -13.228348z" fill-rule="nonzero"></path><path fill="#cfe2f3" d="m70.463005 36.481995l0 0c0 -7.305813 5.9154816 -13.228344 13.212601 -13.228344l0 0c3.5041962 0 6.864876 1.3936958 9.34272 3.8744926c2.4778442 2.480795 3.8698807 5.845478 3.8698807 9.353851l0 0c0 7.3058167 -5.9154816 13.228348 -13.212601 13.228348l0 0c-7.297119 0 -13.212601 -5.922531 -13.212601 -13.228348z" fill-rule="nonzero"></path><path stroke="#000000" stroke-width="2.0" stroke-linejoin="round" stroke-linecap="butt" d="m70.463005 36.481995l0 0c0 -7.305813 5.9154816 -13.228344 13.212601 -13.228344l0 0c3.5041962 0 6.864876 1.3936958 9.34272 3.8744926c2.4778442 2.480795 3.8698807 5.845478 3.8698807 9.353851l0 0c0 7.3058167 -5.9154816 13.228348 -13.212601 13.228348l0 0c-7.297119 0 -13.212601 -5.922531 -13.212601 -13.228348z" fill-rule="nonzero"></path><path fill="#cfe2f3" d="m86.86007 208.80528l0 0c0 -7.3058167 5.9154816 -13.228348 13.212601 -13.228348l0 0c3.5041962 0 6.864876 1.393692 9.34272 3.8744965c2.4778442 2.4807892 3.8698807 5.8454742 3.8698807 9.353851l0 0c0 7.3058167 -5.9154816 13.228348 -13.212601 13.228348l0 0c-7.297119 0 -13.212601 -5.922531 -13.212601 -13.228348z" fill-rule="nonzero"></path><path stroke="#000000" stroke-width="2.0" stroke-linejoin="round" stroke-linecap="butt" d="m86.86007 208.80528l0 0c0 -7.3058167 5.9154816 -13.228348 13.212601 -13.228348l0 0c3.5041962 0 6.864876 1.393692 9.34272 3.8744965c2.4778442 2.4807892 3.8698807 5.8454742 3.8698807 9.353851l0 0c0 7.3058167 -5.9154816 13.228348 -13.212601 13.228348l0 0c-7.297119 0 -13.212601 -5.922531 -13.212601 -13.228348z" fill-rule="nonzero"></path><path fill="#cfe2f3" d="m11.016527 124.979866l0 0c0 -7.3058167 5.9154816 -13.228348 13.212599 -13.228348l0 0c3.504198 0 6.864874 1.3936996 9.342716 3.8744888c2.4778442 2.4807968 3.8698807 5.845482 3.8698807 9.353859l0 0c0 7.305809 -5.9154816 13.22834 -13.212597 13.22834l0 0c-7.297117 0 -13.212599 -5.922531 -13.212599 -13.22834z" fill-rule="nonzero"></path><path stroke="#000000" stroke-width="2.0" stroke-linejoin="round" stroke-linecap="butt" d="m11.016527 124.979866l0 0c0 -7.3058167 5.9154816 -13.228348 13.212599 -13.228348l0 0c3.504198 0 6.864874 1.3936996 9.342716 3.8744888c2.4778442 2.4807968 3.8698807 5.845482 3.8698807 9.353859l0 0c0 7.305809 -5.9154816 13.22834 -13.212597 13.22834l0 0c-7.297117 0 -13.212599 -5.922531 -13.212599 -13.22834z" fill-rule="nonzero"></path><path fill="#cfe2f3" d="m70.8985 160.56685l0 0c0 -7.3058167 5.9154816 -13.228348 13.212601 -13.228348l0 0c3.5041962 0 6.864876 1.393692 9.342712 3.8744965c2.4778442 2.4807892 3.8698807 5.8454742 3.8698807 9.353851l0 0c0 7.3058167 -5.9154816 13.228348 -13.212593 13.228348l0 0c-7.297119 0 -13.212601 -5.922531 -13.212601 -13.228348z" fill-rule="nonzero"></path><path stroke="#000000" stroke-width="2.0" stroke-linejoin="round" stroke-linecap="butt" d="m70.8985 160.56685l0 0c0 -7.3058167 5.9154816 -13.228348 13.212601 -13.228348l0 0c3.5041962 0 6.864876 1.393692 9.342712 3.8744965c2.4778442 2.4807892 3.8698807 5.8454742 3.8698807 9.353851l0 0c0 7.3058167 -5.9154816 13.228348 -13.212593 13.228348l0 0c-7.297119 0 -13.212601 -5.922531 -13.212601 -13.228348z" fill-rule="nonzero"></path><path fill="#cfe2f3" d="m121.14551 130.49113l0 0c0 -7.305809 5.9154816 -13.22834 13.212601 -13.22834l0 0c3.5041962 0 6.864868 1.3936996 9.342712 3.8744965c2.4778442 2.4807968 3.869873 5.8454742 3.869873 9.353844l0 0c0 7.3058167 -5.9154816 13.228348 -13.212585 13.228348l0 0c-7.297119 0 -13.212601 -5.922531 -13.212601 -13.228348z" fill-rule="nonzero"></path><path stroke="#000000" stroke-width="2.0" stroke-linejoin="round" stroke-linecap="butt" d="m121.14551 130.49113l0 0c0 -7.305809 5.9154816 -13.22834 13.212601 -13.22834l0 0c3.5041962 0 6.864868 1.3936996 9.342712 3.8744965c2.4778442 2.4807968 3.869873 5.8454742 3.869873 9.353844l0 0c0 7.3058167 -5.9154816 13.228348 -13.212585 13.228348l0 0c-7.297119 0 -13.212601 -5.922531 -13.212601 -13.228348z" fill-rule="nonzero"></path><path fill="#cfe2f3" d="m199.08916 63.113598l0 0c0 -7.305813 5.9154816 -13.228344 13.212601 -13.228344l0 0c3.5041962 0 6.864868 1.3936958 9.342712 3.8744926c2.4778442 2.4807968 3.8698883 5.845478 3.8698883 9.353851l0 0c0 7.305813 -5.9154816 13.228344 -13.212601 13.228344l0 0c-7.297119 0 -13.212601 -5.922531 -13.212601 -13.228344z" fill-rule="nonzero"></path><path stroke="#000000" stroke-width="2.0" stroke-linejoin="round" stroke-linecap="butt" d="m199.08916 63.113598l0 0c0 -7.305813 5.9154816 -13.228344 13.212601 -13.228344l0 0c3.5041962 0 6.864868 1.3936958 9.342712 3.8744926c2.4778442 2.4807968 3.8698883 5.845478 3.8698883 9.353851l0 0c0 7.305813 -5.9154816 13.228344 -13.212601 13.228344l0 0c-7.297119 0 -13.212601 -5.922531 -13.212601 -13.228344z" fill-rule="nonzero"></path><path fill="#cfe2f3" d="m147.87787 160.99971l0 0c0 -7.3058167 5.9154816 -13.228348 13.212601 -13.228348l0 0c3.5041962 0 6.864868 1.3937073 9.342712 3.8744965c2.4778442 2.4807892 3.8698883 5.8454742 3.8698883 9.353851l0 0c0 7.3058167 -5.9154816 13.228348 -13.212601 13.228348l0 0c-7.297119 0 -13.212601 -5.922531 -13.212601 -13.228348z" fill-rule="nonzero"></path><path stroke="#000000" stroke-width="2.0" stroke-linejoin="round" stroke-linecap="butt" d="m147.87787 160.99971l0 0c0 -7.3058167 5.9154816 -13.228348 13.212601 -13.228348l0 0c3.5041962 0 6.864868 1.3937073 9.342712 3.8744965c2.4778442 2.4807892 3.8698883 5.8454742 3.8698883 9.353851l0 0c0 7.3058167 -5.9154816 13.228348 -13.212601 13.228348l0 0c-7.297119 0 -13.212601 -5.922531 -13.212601 -13.228348z" fill-rule="nonzero"></path><path fill="#cfe2f3" d="m17.412115 171.45801l0 0c0 -7.3058167 5.9154816 -13.228348 13.212597 -13.228348l0 0c3.504198 0 6.864874 1.393692 9.342718 3.8744965c2.4778442 2.4807892 3.8698807 5.8454742 3.8698807 9.353851l0 0c0 7.3058167 -5.9154816 13.228348 -13.212599 13.228348l0 0c-7.2971153 0 -13.212597 -5.922531 -13.212597 -13.228348z" fill-rule="nonzero"></path><path stroke="#000000" stroke-width="2.0" stroke-linejoin="round" stroke-linecap="butt" d="m17.412115 171.45801l0 0c0 -7.3058167 5.9154816 -13.228348 13.212597 -13.228348l0 0c3.504198 0 6.864874 1.393692 9.342718 3.8744965c2.4778442 2.4807892 3.8698807 5.8454742 3.8698807 9.353851l0 0c0 7.3058167 -5.9154816 13.228348 -13.212599 13.228348l0 0c-7.2971153 0 -13.212597 -5.922531 -13.212597 -13.228348z" fill-rule="nonzero"></path><path fill="#e06666" d="m267.47543 176.7723l0 0c0 -24.552765 20.961548 -44.456696 46.81891 -44.456696l0 0c12.417145 0 24.325714 4.6838226 33.105957 13.021057c8.780243 8.33725 13.712921 19.644989 13.712921 31.435638l0 0c0 24.55275 -20.961517 44.45668 -46.81888 44.45668l0 0c-25.85736 0 -46.81891 -19.90393 -46.81891 -44.45668z" fill-rule="nonzero"></path><path stroke="#000000" stroke-width="2.0" stroke-linejoin="round" stroke-linecap="butt" d="m267.47543 176.7723l0 0c0 -24.552765 20.961548 -44.456696 46.81891 -44.456696l0 0c12.417145 0 24.325714 4.6838226 33.105957 13.021057c8.780243 8.33725 13.712921 19.644989 13.712921 31.435638l0 0c0 24.55275 -20.961517 44.45668 -46.81888 44.45668l0 0c-25.85736 0 -46.81891 -19.90393 -46.81891 -44.45668z" fill-rule="nonzero"></path><path fill="#000000" d="m299.7747 191.17229l5.96875 -28.640625l3.828125 0l-2.859375 13.796875l15.546875 -13.796875l5.390625 0l-13.3125 11.671875l9.75 16.96875l-4.28125 0l-8.25 -14.515625l-6.0 5.21875l-1.953125 9.296875l-3.828125 0z" fill-rule="nonzero"></path><path fill="#000000" d="m328.95438 189.54729l0.578125 -2.703125l2.359375 0l-0.5625 2.703125l-2.375 0zm-3.484375 16.625l2.9375 -14.0l2.390625 0l-2.9375 14.0l-2.390625 0z" fill-rule="nonzero"></path><path fill="#cfe2f3" d="m110.969574 75.95087l0 0c0 -7.305809 5.9154816 -13.228344 13.212593 -13.228344l0 0c3.5042038 0 6.864876 1.3936958 9.34272 3.8744926c2.4778442 2.4807968 3.869873 5.845482 3.869873 9.353851l0 0c0 7.3058167 -5.9154816 13.228348 -13.212593 13.228348l0 0c-7.2971115 0 -13.212593 -5.922531 -13.212593 -13.228348z" fill-rule="nonzero"></path><path stroke="#000000" stroke-width="2.0" stroke-linejoin="round" stroke-linecap="butt" d="m110.969574 75.95087l0 0c0 -7.305809 5.9154816 -13.228344 13.212593 -13.228344l0 0c3.5042038 0 6.864876 1.3936958 9.34272 3.8744926c2.4778442 2.4807968 3.869873 5.845482 3.869873 9.353851l0 0c0 7.3058167 -5.9154816 13.228348 -13.212593 13.228348l0 0c-7.2971115 0 -13.212593 -5.922531 -13.212593 -13.228348z" fill-rule="nonzero"></path><path fill="#cfe2f3" d="m209.23073 122.488434l0 0c0 -7.3058167 5.9154816 -13.228348 13.212601 -13.228348l0 0c3.5041962 0 6.864868 1.3936996 9.342712 3.8744965c2.4778442 2.4807968 3.869873 5.8454742 3.869873 9.353851l0 0c0 7.3058167 -5.9154816 13.228348 -13.212585 13.228348l0 0c-7.297119 0 -13.212601 -5.922531 -13.212601 -13.228348z" fill-rule="nonzero"></path><path stroke="#000000" stroke-width="2.0" stroke-linejoin="round" stroke-linecap="butt" d="m209.23073 122.488434l0 0c0 -7.3058167 5.9154816 -13.228348 13.212601 -13.228348l0 0c3.5041962 0 6.864868 1.3936996 9.342712 3.8744965c2.4778442 2.4807968 3.869873 5.8454742 3.869873 9.353851l0 0c0 7.3058167 -5.9154816 13.228348 -13.212585 13.228348l0 0c-7.297119 0 -13.212601 -5.922531 -13.212601 -13.228348z" fill-rule="nonzero"></path><path fill="#cfe2f3" d="m156.38853 20.031496l0 0c0 -7.305814 5.9154816 -13.228346 13.212601 -13.228346l0 0c3.5041962 0 6.864868 1.3936963 9.342712 3.8744931c2.4778442 2.4807959 3.8698883 5.845478 3.8698883 9.353853l0 0c0 7.305813 -5.9154816 13.228346 -13.212601 13.228346l0 0c-7.297119 0 -13.212601 -5.922533 -13.212601 -13.228346z" fill-rule="nonzero"></path><path stroke="#000000" stroke-width="2.0" stroke-linejoin="round" stroke-linecap="butt" d="m156.38853 20.031496l0 0c0 -7.305814 5.9154816 -13.228346 13.212601 -13.228346l0 0c3.5041962 0 6.864868 1.3936963 9.342712 3.8744931c2.4778442 2.4807959 3.8698883 5.845478 3.8698883 9.353853l0 0c0 7.305813 -5.9154816 13.228346 -13.212601 13.228346l0 0c-7.297119 0 -13.212601 -5.922533 -13.212601 -13.228346z" fill-rule="nonzero"></path><path fill="#000000" fill-opacity="0.0" d="m33.571842 134.33371c0 6.9426727 -3.0708656 10.412888 -6.1417313 13.88533c-3.0708656 3.4724426 -6.141733 6.947098 -6.141733 13.894211" fill-rule="nonzero"></path><path stroke="#000000" stroke-width="2.0" stroke-linejoin="round" stroke-linecap="butt" d="m33.571842 134.33371c0 6.9426727 -3.0708656 10.412888 -6.1417313 13.88533c-0.38385963 0.4340515 -0.76771736 0.86813354 -1.1455784 1.3090363c-0.1889286 0.22045898 -0.37635994 0.4426117 -0.5615425 0.6673126c-0.09259033 0.112350464 -0.1846199 0.2253418 -0.27599144 0.3390808l-0.1987381 0.25094604" fill-rule="evenodd"></path><path fill="#000000" stroke="#000000" stroke-width="2.0" stroke-linecap="butt" d="m22.129839 149.69531l0.1233654 9.657898l6.113474 -7.4776764z" fill-rule="evenodd"></path><path fill="#000000" fill-opacity="0.0" d="m10.975154 64.98804c0 12.659454 3.3149614 19.472443 6.629922 25.318901c3.3149605 5.8464584 6.629921 10.726379 6.629921 21.452759" fill-rule="nonzero"></path><path stroke="#000000" stroke-width="2.0" stroke-linejoin="round" stroke-linecap="butt" d="m10.975154 64.98804c0 12.659454 3.3149605 19.472443 6.629922 25.318909c1.6574802 2.9232254 3.3149605 5.6048203 4.558071 8.896408c0.07769394 0.205719 0.15376854 0.413826 0.22812653 0.624527l0.024019241 0.07058716" fill-rule="evenodd"></path><path fill="#000000" stroke="#000000" stroke-width="2.0" stroke-linecap="butt" d="m19.15003 100.39941l4.641596 8.470291l1.8889275 -9.472176z" fill-rule="evenodd"></path><path fill="#000000" fill-opacity="0.0" d="m29.66059 64.98804c0 21.556252 13.614172 32.817223 27.228346 43.112495c13.614178 10.29528 27.228344 19.624855 27.228344 39.249718" fill-rule="nonzero"></path><path stroke="#000000" stroke-width="2.0" stroke-linejoin="round" stroke-linecap="butt" d="m29.66059 64.98804c0 21.556252 13.614176 32.817223 27.22835 43.112503c6.807087 5.1476364 13.614174 10.053841 18.71949 16.126259c2.552658 3.0362015 4.6798706 6.3639603 6.1689224 10.159218c0.093063354 0.23719788 0.18363953 0.4762268 0.27166748 0.71713257c0.044006348 0.12045288 0.087387085 0.24136353 0.13012695 0.3627472l0.013687134 0.039657593" fill-rule="evenodd"></path><path fill="#000000" stroke="#000000" stroke-width="2.0" stroke-linecap="butt" d="m78.93213 136.03534l4.716263 8.42894l1.8051529 -9.488495z" fill-rule="evenodd"></path><path fill="#000000" fill-opacity="0.0" d="m39.96743 180.81186c0 14.0 23.448818 28.0 46.897636 28.0" fill-rule="nonzero"></path><path stroke="#000000" stroke-width="2.0" stroke-linejoin="round" stroke-linecap="butt" d="m39.96743 180.81186c0 7.0 5.8622055 14.0 14.655514 19.25c4.396652 2.625 9.526081 4.8125 15.021893 6.34375c1.3739548 0.3828125 2.770813 0.72462463 4.184845 1.0219879c0.35350037 0.07432556 0.7080841 0.14588928 1.0636444 0.21463013l0.02835083 0.005355835" fill-rule="evenodd"></path><path fill="#000000" stroke="#000000" stroke-width="2.0" stroke-linecap="butt" d="m74.601166 210.93547l9.353889 -2.4072876l-8.71286 -4.1684723z" fill-rule="evenodd"></path><path fill="#000000" fill-opacity="0.0" d="m29.66059 46.280334c0 -14.43725 6.381544 -28.84278 11.1680355 -28.874496c4.7864914 -0.0317173 7.977932 14.310377 11.168034 28.652252c3.1901016 14.341873 6.3788605 28.683525 11.162674 28.652252c4.7838135 -0.03127289 11.162674 -14.435478 11.162674 -28.870953" fill-rule="nonzero"></path><path stroke="#000000" stroke-width="2.0" stroke-linejoin="round" stroke-linecap="butt" d="m29.66059 46.28033c0 -14.437244 6.3815403 -28.842775 11.168032 -28.874493c4.786495 -0.0317173 7.977936 14.310377 11.168037 28.652252c3.1900978 14.341873 6.3788605 28.683525 11.162674 28.652252c2.3919067 -0.01563263 5.1825714 -3.624504 7.375267 -9.033905c0.548172 -1.3523483 1.0589676 -2.8172264 1.5168304 -4.3666306c0.22891998 -0.77470016 0.4446106 -1.5705376 0.6451187 -2.383995c0.050125122 -0.20336533 0.0993042 -0.4078331 0.14749908 -0.6133461l0.12560272 -0.5495262" fill-rule="evenodd"></path><path fill="#000000" stroke="#000000" stroke-width="2.0" stroke-linecap="butt" d="m76.25207 58.13523l-2.2595596 -9.390667l-4.305275 8.646088z" fill-rule="evenodd"></path><path fill="#000000" fill-opacity="0.0" d="m29.66059 64.98804c0 24.595627 21.291338 46.651886 42.582672 49.19126c21.291344 2.5393677 42.58268 -14.4381485 42.58268 -28.876297" fill-rule="nonzero"></path><path stroke="#000000" stroke-width="2.0" stroke-linejoin="round" stroke-linecap="butt" d="m29.66059 64.98804c0 24.595634 21.291342 46.651894 42.58268 49.19126c10.64566 1.2696838 21.291328 -2.3398514 29.275581 -8.071571c1.9960632 -1.4329376 3.8257904 -2.9985046 5.4475937 -4.6536407c0.8108978 -0.8275604 1.5698166 -1.6775131 2.2715607 -2.544464c0.35087585 -0.4334793 0.6874466 -0.8712158 1.0090714 -1.3125229c0.16082 -0.22065735 0.3179016 -0.4421997 0.4711609 -0.6645584l0.19408417 -0.2856598" fill-rule="evenodd"></path><path fill="#000000" stroke="#000000" stroke-width="2.0" stroke-linecap="butt" d="m114.035164 97.72426l-0.16278076 -9.657318l-6.082901 7.5025635z" fill-rule="evenodd"></path><path fill="#000000" fill-opacity="0.0" d="m93.45381 169.9207c0 7.382614 1.6535492 11.556564 3.3070908 14.765228c1.6535416 3.208664 3.3070831 5.4520416 3.3070831 10.904068" fill-rule="nonzero"></path><path stroke="#000000" stroke-width="2.0" stroke-linejoin="round" stroke-linecap="butt" d="m93.45381 169.9207c0 3.6912994 0.41338348 6.5804443 1.0334625 8.947861c0.31004333 1.1836853 0.6717529 2.2369537 1.0593033 3.1948395c0.19377136 0.47894287 0.39400482 0.93403625 0.59747314 1.3696747c0.10172272 0.21780396 0.20426941 0.43075562 0.3072052 0.63938904l0.032913208 0.06518555" fill-rule="evenodd"></path><path fill="#000000" stroke="#000000" stroke-width="2.0" stroke-linecap="butt" d="m93.33147 185.12424l5.8633194 7.6753845l0.44208527 -9.64856z" fill-rule="evenodd"></path><path fill="#000000" fill-opacity="0.0" d="m93.45381 151.213c0 -2.8420105 7.8897705 -4.2627563 15.779533 -5.684021c7.889763 -1.4212646 15.779526 -2.8430328 15.779526 -5.6860657" fill-rule="nonzero"></path><path stroke="#000000" stroke-width="2.0" stroke-linejoin="round" stroke-linecap="butt" d="m93.45381 151.213c0 -2.8420105 7.889763 -4.2627563 15.779526 -5.684021c0.9862213 -0.17765808 1.9724426 -0.35533142 2.9432526 -0.5357666c0.48540497 -0.09022522 0.9669571 -0.18115234 1.4427338 -0.27311707l0.3948593 -0.07833862" fill-rule="evenodd"></path><path fill="#000000" stroke="#000000" stroke-width="2.0" stroke-linecap="butt" d="m115.33524 147.66957l6.9977875 -6.6574097l-9.639915 0.6017761z" fill-rule="evenodd"></path><path fill="#000000" fill-opacity="0.0" d="m93.018326 45.83585c0 5.190254 7.7873993 8.2702675 15.574799 10.380505c7.787407 2.1102371 15.574806 3.2506943 15.574806 6.5013847" fill-rule="nonzero"></path><path stroke="#000000" stroke-width="2.0" stroke-linejoin="round" stroke-linecap="butt" d="m93.01832 45.83585c0 5.190254 7.787407 8.270271 15.574806 10.380505c0.9734268 0.2637825 1.9468536 0.5124092 2.9050674 0.7518997l1.8939133 0.46918488" fill-rule="evenodd"></path><path fill="#000000" stroke="#000000" stroke-width="2.0" stroke-linecap="butt" d="m111.93849 60.4039l9.603905 1.0272903l-6.696686 -6.9602165z" fill-rule="evenodd"></path><path fill="#000000" fill-opacity="0.0" d="m93.018326 27.128143c0 -3.5433083 31.685036 -7.0866146 63.37007 -7.0866146" fill-rule="nonzero"></path><path stroke="#000000" stroke-width="2.0" stroke-linejoin="round" stroke-linecap="butt" d="m93.01832 27.128143c0 -1.7716541 7.9212646 -3.5433083 19.803154 -4.8720474c5.940941 -0.6643715 12.872047 -1.2180119 20.298233 -1.6055622c1.8565369 -0.09688759 3.7440338 -0.18339348 5.654724 -0.25865364c0.9553375 -0.03763199 1.9164886 -0.07244873 2.8824768 -0.10434914c0.48298645 -0.01594925 0.9671936 -0.031169891 1.4524841 -0.045646667l1.2801361 -0.03613472" fill-rule="evenodd"></path><path fill="#000000" stroke="#000000" stroke-width="2.0" stroke-linecap="butt" d="m144.43474 23.508905l9.030136 -3.4273643l-9.12056 -3.1789474z" fill-rule="evenodd"></path><path fill="#000000" fill-opacity="0.0" d="m169.60114 33.259842c0 4.156353 8.338577 5.749714 16.677155 8.312706c8.338593 2.562992 16.67717 6.0956154 16.67717 12.191231" fill-rule="nonzero"></path><path stroke="#000000" stroke-width="2.0" stroke-linejoin="round" stroke-linecap="butt" d="m169.60114 33.259842c0 4.156353 8.338577 5.749714 16.677155 8.312706c2.0846558 0.6407471 4.1692963 1.3420982 6.123657 2.1289482c0.48860168 0.1967125 0.9690399 0.39876556 1.4393005 0.60655594c0.23513794 0.10389328 0.46772766 0.20921707 0.69750977 0.3160286c0.11488342 0.053401947 0.2290802 0.107177734 0.3425598 0.16133118l0.07286072 0.035247803" fill-rule="evenodd"></path><path fill="#000000" stroke="#000000" stroke-width="2.0" stroke-linecap="butt" d="m192.49223 47.023327l8.513718 4.5614586l-3.5898438 -8.966789z" fill-rule="evenodd"></path><path fill="#000000" fill-opacity="0.0" d="m143.70082 121.13729c0 -29.007874 27.70079 -58.01575 55.40158 -58.01575" fill-rule="nonzero"></path><path stroke="#000000" stroke-width="2.0" stroke-linejoin="round" stroke-linecap="butt" d="m143.70082 121.13729c0 -14.503937 6.9252014 -29.007874 17.312988 -39.885826c5.1938934 -5.43898 11.253464 -9.971458 17.745834 -13.144196c1.6230927 -0.7931824 3.2732239 -1.5013885 4.9436646 -2.1175156c0.83522034 -0.30807495 1.6755066 -0.5931244 2.5200195 -0.85427094c0.2111206 -0.06528473 0.42253113 -0.12908173 0.6341553 -0.1913681l0.3683777 -0.105651855" fill-rule="evenodd"></path><path fill="#000000" stroke="#000000" stroke-width="2.0" stroke-linecap="butt" d="m187.69852 68.10794l8.510162 -4.5680733l-9.45546 -1.9708824z" fill-rule="evenodd"></path><path fill="#000000" fill-opacity="0.0" d="m143.70082 139.845c0 2.9502106 2.0078735 4.4240417 4.015747 5.900421c2.0078735 1.4763794 4.015747 2.955307 4.015747 5.9105988" fill-rule="nonzero"></path><path stroke="#000000" stroke-width="2.0" stroke-linejoin="round" stroke-linecap="butt" d="m143.70082 139.84499c0 0.7375641 0.12548828 1.382843 0.34510803 1.9589539c0.054901123 0.14402771 0.11567688 0.28373718 0.18185425 0.41947937l0.025054932 0.048706055" fill-rule="evenodd"></path><path fill="#000000" stroke="#000000" stroke-width="2.0" stroke-linecap="butt" d="m141.66956 144.33113l8.240387 5.038498l-3.073822 -9.156525z" fill-rule="evenodd"></path><path fill="#000000" fill-opacity="0.0" d="m221.64447 72.46745c0 10.166748 0.19685364 15.735077 0.39370728 20.333496c0.19685364 4.598427 0.39369202 8.226952 0.39369202 16.453903" fill-rule="nonzero"></path><path stroke="#000000" stroke-width="2.0" stroke-linejoin="round" stroke-linecap="butt" d="m221.64449 72.46745c0 10.166748 0.19683838 15.735077 0.39369202 20.333504c0.049209595 1.1496048 0.09843445 2.2386017 0.14456177 3.3539734l0.043029785 1.1016922" fill-rule="evenodd"></path><path fill="#000000" stroke="#000000" stroke-width="2.0" stroke-linecap="butt" d="m218.92278 97.31336l3.4588776 9.018112l3.1470795 -9.131599z" fill-rule="evenodd"></path><path fill="#000000" fill-opacity="0.0" d="m174.30307 160.99971c23.293198 0 34.940735 3.9448853 46.586395 7.8897705c11.645676 3.9448853 23.289474 7.8897552 46.57895 7.8897552" fill-rule="nonzero"></path><path stroke="#000000" stroke-width="2.0" stroke-linejoin="round" stroke-linecap="butt" d="m174.30307 160.99971c23.293198 0 34.940735 3.9448853 46.58641 7.8897705c5.82283 1.9724426 11.645187 3.9448853 18.923035 5.4242096c3.6389313 0.7396698 7.6417236 1.3560486 12.190369 1.7875214c0.568573 0.05392456 1.1456909 0.10499573 1.7316895 0.15301514c0.29299927 0.024002075 0.5882263 0.047286987 0.88571167 0.06977844l0.8545685 0.061950684" fill-rule="evenodd"></path><path fill="#000000" stroke="#000000" stroke-width="2.0" stroke-linecap="butt" d="m255.3666 179.68764l9.179581 -3.0042267l-8.963028 -3.5991516z" fill-rule="evenodd"></path><path fill="#000000" fill-opacity="0.0" d="m109.41539 199.45143c0 -14.901672 6.2362213 -22.83876 12.472435 -29.80333c6.236229 -6.964569 12.47245 -12.956604 12.47245 -25.913208" fill-rule="nonzero"></path><path stroke="#000000" stroke-width="2.0" stroke-linejoin="round" stroke-linecap="butt" d="m109.41538 199.45142c0 -14.901657 6.2362213 -22.83876 12.472443 -29.803314c3.1181107 -3.4822845 6.236229 -6.7214355 8.574806 -10.709579c0.5846405 -0.99705505 1.120575 -2.0409088 1.5955963 -3.1470642l0.10853577 -0.2587433" fill-rule="evenodd"></path><path fill="#000000" stroke="#000000" stroke-width="2.0" stroke-linecap="butt" d="m135.41458 156.13657l-1.5887604 -9.52713l-4.9068604 8.319443z" fill-rule="evenodd"></path><path fill="#cfe2f3" d="m165.07324 296.07916l0 0c0 -7.3058167 5.9154816 -13.228363 13.212601 -13.228363l0 0c3.5041962 0 6.864868 1.3937073 9.342712 3.8745117c2.4778442 2.480774 3.8698883 5.845459 3.8698883 9.353851l0 0c0 7.3058167 -5.9154816 13.2283325 -13.212601 13.2283325l0 0c-7.297119 0 -13.212601 -5.922516 -13.212601 -13.2283325z" fill-rule="nonzero"></path><path stroke="#000000" stroke-width="2.0" stroke-linejoin="round" stroke-linecap="butt" d="m165.07324 296.07916l0 0c0 -7.3058167 5.9154816 -13.228363 13.212601 -13.228363l0 0c3.5041962 0 6.864868 1.3937073 9.342712 3.8745117c2.4778442 2.480774 3.8698883 5.845459 3.8698883 9.353851l0 0c0 7.3058167 -5.9154816 13.2283325 -13.212601 13.2283325l0 0c-7.297119 0 -13.212601 -5.922516 -13.212601 -13.2283325z" fill-rule="nonzero"></path><path fill="#cfe2f3" d="m32.68553 421.12802l0 0c0 -7.305786 5.9154816 -13.2283325 13.212597 -13.2283325l0 0c3.5042 0 6.864876 1.3937073 9.34272 3.8744812c2.4778404 2.4808044 3.8698807 5.8454895 3.8698807 9.353851l0 0c0 7.3058167 -5.9154816 13.228363 -13.212601 13.228363l0 0c-7.2971153 0 -13.212597 -5.9225464 -13.212597 -13.228363z" fill-rule="nonzero"></path><path stroke="#000000" stroke-width="2.0" stroke-linejoin="round" stroke-linecap="butt" d="m32.68553 421.12802l0 0c0 -7.305786 5.9154816 -13.2283325 13.212597 -13.2283325l0 0c3.5042 0 6.864876 1.3937073 9.34272 3.8744812c2.4778404 2.4808044 3.8698807 5.8454895 3.8698807 9.353851l0 0c0 7.3058167 -5.9154816 13.228363 -13.212601 13.228363l0 0c-7.2971153 0 -13.212597 -5.9225464 -13.212597 -13.228363z" fill-rule="nonzero"></path><path fill="#cfe2f3" d="m26.066397 323.74893l0 0c0 -7.3058167 5.9154816 -13.2283325 13.212599 -13.2283325l0 0c3.5041962 0 6.864872 1.3936768 9.342716 3.8744812c2.4778442 2.4808044 3.8698807 5.8454895 3.8698807 9.353851l0 0c0 7.3058167 -5.9154816 13.228363 -13.212597 13.228363l0 0c-7.297117 0 -13.212599 -5.9225464 -13.212599 -13.228363z" fill-rule="nonzero"></path><path stroke="#000000" stroke-width="2.0" stroke-linejoin="round" stroke-linecap="butt" d="m26.066397 323.74893l0 0c0 -7.3058167 5.9154816 -13.2283325 13.212599 -13.2283325l0 0c3.5041962 0 6.864872 1.3936768 9.342716 3.8744812c2.4778442 2.4808044 3.8698807 5.8454895 3.8698807 9.353851l0 0c0 7.3058167 -5.9154816 13.228363 -13.212597 13.228363l0 0c-7.297117 0 -13.212599 -5.9225464 -13.212599 -13.228363z" fill-rule="nonzero"></path><path fill="#cfe2f3" d="m73.81844 386.67447l0 0c0 -7.3058167 5.9154816 -13.228363 13.212601 -13.228363l0 0c3.5041962 0 6.864876 1.3937073 9.34272 3.8745117c2.4778442 2.480774 3.8698807 5.845459 3.8698807 9.353851l0 0c0 7.3058167 -5.9154816 13.2283325 -13.212601 13.2283325l0 0c-7.297119 0 -13.212601 -5.922516 -13.212601 -13.2283325z" fill-rule="nonzero"></path><path stroke="#000000" stroke-width="2.0" stroke-linejoin="round" stroke-linecap="butt" d="m73.81844 386.67447l0 0c0 -7.3058167 5.9154816 -13.228363 13.212601 -13.228363l0 0c3.5041962 0 6.864876 1.3937073 9.34272 3.8745117c2.4778442 2.480774 3.8698807 5.845459 3.8698807 9.353851l0 0c0 7.3058167 -5.9154816 13.2283325 -13.212601 13.2283325l0 0c-7.297119 0 -13.212601 -5.922516 -13.212601 -13.2283325z" fill-rule="nonzero"></path><path fill="#cfe2f3" d="m142.51164 409.25623l0 0c0 -7.3058167 5.9154816 -13.2283325 13.212601 -13.2283325l0 0c3.5041962 0 6.8648834 1.3936768 9.342712 3.8744812c2.4778442 2.4808044 3.8698883 5.8454895 3.8698883 9.353851l0 0c0 7.3058167 -5.9154816 13.228363 -13.212601 13.228363l0 0c-7.297119 0 -13.212601 -5.9225464 -13.212601 -13.228363z" fill-rule="nonzero"></path><path stroke="#000000" stroke-width="2.0" stroke-linejoin="round" stroke-linecap="butt" d="m142.51164 409.25623l0 0c0 -7.3058167 5.9154816 -13.2283325 13.212601 -13.2283325l0 0c3.5041962 0 6.8648834 1.3936768 9.342712 3.8744812c2.4778442 2.4808044 3.8698883 5.8454895 3.8698883 9.353851l0 0c0 7.3058167 -5.9154816 13.228363 -13.212601 13.228363l0 0c-7.297119 0 -13.212601 -5.9225464 -13.212601 -13.228363z" fill-rule="nonzero"></path><path fill="#cfe2f3" d="m212.90674 360.42593l0 0c0 -7.3058167 5.9154816 -13.2283325 13.212601 -13.2283325l0 0c3.5041962 0 6.8648834 1.3936768 9.342712 3.8744812c2.4778442 2.4808044 3.8698883 5.8454895 3.8698883 9.353851l0 0c0 7.3058167 -5.9154816 13.2283325 -13.212601 13.2283325l0 0c-7.297119 0 -13.212601 -5.922516 -13.212601 -13.2283325z" fill-rule="nonzero"></path><path stroke="#000000" stroke-width="2.0" stroke-linejoin="round" stroke-linecap="butt" d="m212.90674 360.42593l0 0c0 -7.3058167 5.9154816 -13.2283325 13.212601 -13.2283325l0 0c3.5041962 0 6.8648834 1.3936768 9.342712 3.8744812c2.4778442 2.4808044 3.8698883 5.8454895 3.8698883 9.353851l0 0c0 7.3058167 -5.9154816 13.2283325 -13.212601 13.2283325l0 0c-7.297119 0 -13.212601 -5.922516 -13.212601 -13.2283325z" fill-rule="nonzero"></path><path fill="#cfe2f3" d="m205.17708 435.7149l0 0c0 -7.3058167 5.9154816 -13.228363 13.212601 -13.228363l0 0c3.5041962 0 6.8648834 1.3937073 9.342712 3.8745117c2.4778442 2.480774 3.8698883 5.845459 3.8698883 9.353851l0 0c0 7.3058167 -5.9154816 13.2283325 -13.212601 13.2283325l0 0c-7.297119 0 -13.212601 -5.922516 -13.212601 -13.2283325z" fill-rule="nonzero"></path><path stroke="#000000" stroke-width="2.0" stroke-linejoin="round" stroke-linecap="butt" d="m205.17708 435.7149l0 0c0 -7.3058167 5.9154816 -13.228363 13.212601 -13.228363l0 0c3.5041962 0 6.8648834 1.3937073 9.342712 3.8745117c2.4778442 2.480774 3.8698883 5.845459 3.8698883 9.353851l0 0c0 7.3058167 -5.9154816 13.2283325 -13.212601 13.2283325l0 0c-7.297119 0 -13.212601 -5.922516 -13.212601 -13.2283325z" fill-rule="nonzero"></path><path fill="#cfe2f3" d="m39.294003 360.42398l0 0c0 -7.3058167 5.9154816 -13.228363 13.212601 -13.228363l0 0c3.5041962 0 6.864872 1.3937073 9.342716 3.8744812c2.4778442 2.4808044 3.8698807 5.8454895 3.8698807 9.353882l0 0c0 7.305786 -5.9154816 13.2283325 -13.212597 13.2283325l0 0c-7.297119 0 -13.212601 -5.9225464 -13.212601 -13.2283325z" fill-rule="nonzero"></path><path stroke="#000000" stroke-width="2.0" stroke-linejoin="round" stroke-linecap="butt" d="m39.294003 360.42398l0 0c0 -7.3058167 5.9154816 -13.228363 13.212601 -13.228363l0 0c3.5041962 0 6.864872 1.3937073 9.342716 3.8744812c2.4778442 2.4808044 3.8698807 5.8454895 3.8698807 9.353882l0 0c0 7.305786 -5.9154816 13.2283325 -13.212597 13.2283325l0 0c-7.297119 0 -13.212601 -5.9225464 -13.212601 -13.2283325z" fill-rule="nonzero"></path><path fill="#cfe2f3" d="m169.2176 360.42593l0 0c0 -7.3058167 5.9154816 -13.2283325 13.212601 -13.2283325l0 0c3.5041962 0 6.864868 1.3936768 9.342712 3.8744812c2.4778442 2.4808044 3.869873 5.8454895 3.869873 9.353851l0 0c0 7.3058167 -5.9154816 13.2283325 -13.212585 13.2283325l0 0c-7.297119 0 -13.212601 -5.922516 -13.212601 -13.2283325z" fill-rule="nonzero"></path><path stroke="#000000" stroke-width="2.0" stroke-linejoin="round" stroke-linecap="butt" d="m169.2176 360.42593l0 0c0 -7.3058167 5.9154816 -13.2283325 13.212601 -13.2283325l0 0c3.5041962 0 6.864868 1.3936768 9.342712 3.8744812c2.4778442 2.4808044 3.869873 5.8454895 3.869873 9.353851l0 0c0 7.3058167 -5.9154816 13.2283325 -13.212585 13.2283325l0 0c-7.297119 0 -13.212601 -5.922516 -13.212601 -13.2283325z" fill-rule="nonzero"></path><path fill="#cfe2f3" d="m224.21367 401.6039l0 0c0 -7.3058167 5.9154816 -13.2283325 13.212601 -13.2283325l0 0c3.5041962 0 6.864868 1.3936768 9.342712 3.8744812c2.4778442 2.4808044 3.869873 5.8454895 3.869873 9.353851l0 0c0 7.3058167 -5.9154816 13.228363 -13.212585 13.228363l0 0c-7.297119 0 -13.212601 -5.9225464 -13.212601 -13.228363z" fill-rule="nonzero"></path><path stroke="#000000" stroke-width="2.0" stroke-linejoin="round" stroke-linecap="butt" d="m224.21367 401.6039l0 0c0 -7.3058167 5.9154816 -13.2283325 13.212601 -13.2283325l0 0c3.5041962 0 6.864868 1.3936768 9.342712 3.8744812c2.4778442 2.4808044 3.869873 5.8454895 3.869873 9.353851l0 0c0 7.3058167 -5.9154816 13.228363 -13.212585 13.228363l0 0c-7.297119 0 -13.212601 -5.9225464 -13.212601 -13.228363z" fill-rule="nonzero"></path><path fill="#b6d7a8" d="m271.71167 334.03412l0 0c0 -24.552765 19.06491 -44.456696 42.582672 -44.456696l0 0c11.29361 0 22.124695 4.6838074 30.110474 13.021057c7.9858093 8.33725 12.4721985 19.644989 12.4721985 31.435638l0 0c0 24.552765 -19.06491 44.456696 -42.582672 44.456696l0 0c-23.517761 0 -42.582672 -19.90393 -42.582672 -44.456696z" fill-rule="nonzero"></path><path stroke="#000000" stroke-width="2.0" stroke-linejoin="round" stroke-linecap="butt" d="m271.71167 334.03412l0 0c0 -24.552765 19.06491 -44.456696 42.582672 -44.456696l0 0c11.29361 0 22.124695 4.6838074 30.110474 13.021057c7.9858093 8.33725 12.4721985 19.644989 12.4721985 31.435638l0 0c0 24.552765 -19.06491 44.456696 -42.582672 44.456696l0 0c-23.517761 0 -42.582672 -19.90393 -42.582672 -44.456696z" fill-rule="nonzero"></path><path fill="#000000" d="m299.7747 348.4341l5.96875 -28.640625l3.828125 0l-2.859375 13.796875l15.546875 -13.796875l5.390625 0l-13.3125 11.671875l9.75 16.96875l-4.28125 0l-8.25 -14.515625l-6.0 5.21875l-1.953125 9.296875l-3.828125 0z" fill-rule="nonzero"></path><path fill="#000000" d="m328.95438 346.8091l0.578125 -2.703125l2.359375 0l-0.578125 2.703125l-2.359375 0zm-7.546875 21.890625l0.421875 -2.03125q0.8125 0.21875 1.453125 0.21875q0.75 0 1.21875 -0.515625q0.453125 -0.5 0.9375 -2.8125l2.9375 -14.125l2.390625 0l-3.03125 14.5625q-0.578125 2.734375 -1.3125 3.71875q-0.984375 1.328125 -2.75 1.328125q-0.9375 0 -2.265625 -0.34375z" fill-rule="nonzero"></path><path fill="#000000" fill-opacity="0.0" d="m48.62171 333.10278c0 4.4918823 -1.3622055 6.7396545 -2.724411 8.983734c-1.3622017 2.24411 -2.7244072 4.4845276 -2.7244072 8.969025" fill-rule="nonzero"></path><path stroke="#000000" stroke-width="2.0" stroke-linejoin="round" stroke-linecap="butt" d="m48.621716 333.10278c0 2.2459412 -0.34055328 3.9308472 -0.8513794 5.3348083c-0.12770844 0.35095215 -0.26605606 0.6843872 -0.41238785 1.0046387c-0.036579132 0.08004761 -0.073661804 0.15930176 -0.11120224 0.23776245l-0.03665924 0.075042725" fill-rule="evenodd"></path><path fill="#000000" stroke="#000000" stroke-width="2.0" stroke-linecap="butt" d="m44.09919 338.64365l0.057369232 9.658508l6.164425 -7.43573z" fill-rule="evenodd"></path><path fill="#000000" fill-opacity="0.0" d="m109.57004 343.75183c0 8.392242 -5.6377945 13.071899 -11.275589 16.784485c-5.6377945 3.712616 -11.275589 6.4581604 -11.275589 12.91629" fill-rule="nonzero"></path><path stroke="#000000" stroke-width="2.0" stroke-linejoin="round" stroke-linecap="butt" d="m109.57004 343.75183c0 8.392242 -5.6377945 13.071899 -11.275589 16.784515c-1.4094543 0.9281311 -2.818901 1.7958374 -4.140259 2.676239l-0.4289322 0.28894043" fill-rule="evenodd"></path><path fill="#000000" stroke="#000000" stroke-width="2.0" stroke-linecap="butt" d="m90.98584 361.6553l-2.3329697 9.372711l7.8118134 -5.680298z" fill-rule="evenodd"></path><path fill="#000000" fill-opacity="0.0" d="m113.43992 334.39798c13.944313 0 22.052483 9.466492 27.888634 17.758942c5.836136 8.29245 9.400253 15.410828 15.882446 17.758972c6.482193 2.3481445 15.882462 -0.073913574 15.882462 -0.14785767" fill-rule="nonzero"></path><path stroke="#000000" stroke-width="2.0" stroke-linejoin="round" stroke-linecap="butt" d="m113.43992 334.39798c13.944321 0 22.052483 9.466492 27.888634 17.758972c5.836136 8.29245 9.400253 15.410797 15.882462 17.758942c0.8102722 0.29351807 1.6661377 0.5125122 2.5435333 0.6708374c0.4387207 0.079193115 0.88279724 0.143219 1.3292542 0.19381714l0.05293274 0.005584717" fill-rule="evenodd"></path><path fill="#000000" stroke="#000000" stroke-width="2.0" stroke-linecap="butt" d="m161.41699 374.0777l8.763214 -4.0615845l-9.323746 -2.5215454z" fill-rule="evenodd"></path><path fill="#000000" fill-opacity="0.0" d="m77.688324 396.02832c0 3.9364624 -7.9448776 6.388672 -15.889763 7.872925c-7.9448814 1.4842529 -15.889763 2.0005493 -15.889763 4.001068" fill-rule="nonzero"></path><path stroke="#000000" stroke-width="2.0" stroke-linejoin="round" stroke-linecap="butt" d="m77.688324 396.0283c0 3.936493 -7.9448776 6.3887024 -15.889763 7.8729553c-0.99311066 0.18554688 -1.9862213 0.3559265 -2.9638138 0.5159912l-1.3783913 0.22103882" fill-rule="evenodd"></path><path fill="#000000" stroke="#000000" stroke-width="2.0" stroke-linecap="butt" d="m56.557804 401.45938l-7.835438 5.647644l9.632542 0.71017456z" fill-rule="evenodd"></path><path fill="#000000" fill-opacity="0.0" d="m96.373764 377.32062c0 7.0837097 7.144104 10.030304 12.501938 14.16745c5.357826 4.1371765 8.929382 9.464874 12.50193 15.980377c3.5725555 6.515503 7.1461105 14.21875 12.505943 15.980377c5.359833 1.7615967 12.505936 -2.418457 12.505936 -4.8368835" fill-rule="nonzero"></path><path stroke="#000000" stroke-width="2.0" stroke-linejoin="round" stroke-linecap="butt" d="m96.37376 377.32062c0 7.0837097 7.1441116 10.030304 12.501938 14.16745c5.357826 4.1371765 8.929382 9.464905 12.501938 15.980408c3.5725632 6.515442 7.1461105 14.21875 12.505943 15.980347c0.33499146 0.11010742 0.6769562 0.19696045 1.0237274 0.26254272c0.17337036 0.03277588 0.34796143 0.0602417 0.523468 0.082611084l0.14302063 0.016113281" fill-rule="evenodd"></path><path fill="#000000" stroke="#000000" stroke-width="2.0" stroke-linecap="butt" d="m137.00478 426.7875l6.749481 -6.909027l-9.61145 0.9541321z" fill-rule="evenodd"></path><path fill="#000000" fill-opacity="0.0" d="m187.62856 305.433c0 11.409851 -1.2992096 17.599243 -2.5984192 22.819733c-1.2992096 5.220459 -2.5984192 9.472015 -2.5984192 18.94403" fill-rule="nonzero"></path><path stroke="#000000" stroke-width="2.0" stroke-linejoin="round" stroke-linecap="butt" d="m187.62857 305.433c0 11.409851 -1.2992096 17.599243 -2.5984344 22.819702c-0.32479858 1.3051147 -0.64959717 2.5496826 -0.95410156 3.8304138c-0.1522522 0.64035034 -0.29942322 1.2897339 -0.43899536 1.9602661c-0.06977844 0.3352661 -0.13764954 0.67581177 -0.2033081 1.0231323l-0.031188965 0.16955566" fill-rule="evenodd"></path><path fill="#000000" stroke="#000000" stroke-width="2.0" stroke-linecap="butt" d="m180.10991 334.96884l2.5583496 9.313721l4.0269165 -8.779205z" fill-rule="evenodd"></path><path fill="#000000" fill-opacity="0.0" d="m187.62856 286.7253c0 -14.437195 13.064301 -30.10321 21.98819 -28.87436c8.923889 1.2288513 13.707352 19.35257 21.98819 38.0907c8.280838 18.73816 20.059052 38.09073 40.11812 38.09073" fill-rule="nonzero"></path><path stroke="#000000" stroke-width="2.0" stroke-linejoin="round" stroke-linecap="butt" d="m187.62857 286.72528c0 -14.437164 13.064301 -30.10318 21.98816 -28.874329c8.923889 1.2288208 13.707352 19.35257 21.98819 38.0907c4.1404266 9.36908 9.155197 18.891754 15.642227 26.072174c3.2435303 3.59021 6.855118 6.5948486 10.9095 8.701935c0.50683594 0.26339722 1.0205383 0.51275635 1.5413208 0.74746704l0.27713013 0.122558594" fill-rule="evenodd"></path><path fill="#000000" stroke="#000000" stroke-width="2.0" stroke-linecap="butt" d="m259.3016 334.81985l9.5590515 -1.383606l-8.212006 -5.084564z" fill-rule="evenodd"></path><path fill="#000000" fill-opacity="0.0" d="m314.29434 378.4908c0 12.5 -16.212372 24.538574 -29.386444 25.0c-13.174103 0.46142578 -23.309906 -10.654327 -29.386444 -21.539368c-6.0765686 -10.88504 -8.093872 -21.539368 -16.18776 -21.539368" fill-rule="nonzero"></path><path stroke="#000000" stroke-width="2.0" stroke-linejoin="round" stroke-linecap="butt" d="m314.29434 378.4908c0 12.5 -16.212372 24.538605 -29.386444 25.0c-13.174103 0.46139526 -23.309875 -10.654327 -29.386444 -21.539368c-1.5191498 -2.7212524 -2.7845764 -5.4281006 -3.9546814 -7.9576416c-0.58506775 -1.264801 -1.146286 -2.4852295 -1.7034607 -3.6410217c-0.27861023 -0.57788086 -0.55618286 -1.1396179 -0.8352356 -1.6825867c-0.06976318 -0.13574219 -0.13960266 -0.27035522 -0.20959473 -0.40371704l-0.15995789 -0.30142212" fill-rule="evenodd"></path><path fill="#000000" stroke="#000000" stroke-width="2.0" stroke-linecap="butt" d="m250.73778 365.39804l-9.13208 -3.145691l4.973572 8.279724z" fill-rule="evenodd"></path><path fill="#000000" fill-opacity="0.0" d="m168.93684 409.25623c23.921265 0 47.842514 -19.73227 47.842514 -39.46457" fill-rule="nonzero"></path><path stroke="#000000" stroke-width="2.0" stroke-linejoin="round" stroke-linecap="butt" d="m168.93684 409.25623c11.960632 0 23.921265 -4.933075 32.89174 -12.332672c4.4852295 -3.6997986 8.222931 -8.016235 10.83931 -12.640991c0.32705688 -0.5780945 0.6365967 -1.1610107 0.9278717 -1.7481079c0.14562988 -0.29360962 0.2866974 -0.5882263 0.42312622 -0.88378906l0.07406616 -0.16357422" fill-rule="evenodd"></path><path fill="#000000" stroke="#000000" stroke-width="2.0" stroke-linecap="butt" d="m217.31258 382.22665l-1.1877594 -9.585388l-5.25148 8.106293z" fill-rule="evenodd"></path><path fill="#000000" fill-opacity="0.0" d="m165.06696 418.61008c0 1.9377441 10.992126 2.9069824 21.984253 3.8754883c10.992126 0.96850586 21.984253 1.9362793 21.984253 3.8725586" fill-rule="nonzero"></path><path stroke="#000000" stroke-width="2.0" stroke-linejoin="round" stroke-linecap="butt" d="m165.06696 418.61008c0 1.9377441 10.992142 2.9069824 21.984268 3.8754883c2.7480316 0.24212646 5.496063 0.4842224 8.072342 0.74139404c0.6440735 0.06430054 1.2773895 0.1295166 1.8973236 0.19595337l0.3690033 0.04034424" fill-rule="evenodd"></path><path fill="#000000" stroke="#000000" stroke-width="2.0" stroke-linecap="butt" d="m196.59296 426.66916l9.605072 -1.0163879l-8.01123 -5.3954163z" fill-rule="evenodd"></path><path fill="#000000" fill-opacity="0.0" d="m235.46205 369.7798c0 5.6175537 0.4881897 8.912262 0.9763794 11.235077c0.4881897 2.3228455 0.9763794 3.6737976 0.9763794 7.347595" fill-rule="nonzero"></path><path stroke="#000000" stroke-width="2.0" stroke-linejoin="round" stroke-linecap="butt" d="m235.46207 369.7798c0 1.4043884 0.030517578 2.6635742 0.08390808 3.7987366c0.02670288 0.5675659 0.05911255 1.104126 0.09629822 1.6123047c0.018585205 0.25408936 0.038375854 0.50109863 0.05923462 0.7413025l0.05117798 0.5460205" fill-rule="evenodd"></path><path fill="#000000" stroke="#000000" stroke-width="2.0" stroke-linecap="butt" d="m232.48106 376.9357l4.528778 8.531128l2.0144653 -9.446289z" fill-rule="evenodd"></path><path fill="#000000" fill-opacity="0.0" d="m55.24085 411.77417c0 8.233643 13.186718 13.110535 22.785137 16.467255c9.598419 3.35672 15.608536 5.1932373 22.785141 9.621582c7.176605 4.428314 15.519691 11.448456 27.45108 9.6215515c11.9313965 -1.8269043 27.45108 -12.5008545 27.45108 -25.001709" fill-rule="nonzero"></path><path stroke="#000000" stroke-width="2.0" stroke-linejoin="round" stroke-linecap="butt" d="m55.24085 411.7742c0 8.233582 13.186718 13.110504 22.785137 16.467224c9.598419 3.35672 15.608536 5.1932373 22.785141 9.6215515c7.1765976 4.4283752 15.519691 11.448486 27.45108 9.621613c5.9656982 -0.91348267 12.828461 -4.0386963 18.199814 -8.498169c1.3428345 -1.1148376 2.5924683 -2.3131104 3.7115479 -3.5810242c0.2797699 -0.31698608 0.5513916 -0.6383362 0.81425476 -0.96380615c0.13143921 -0.16275024 0.2606964 -0.32650757 0.38768005 -0.4913025l0.16320801 -0.21697998" fill-rule="evenodd"></path><path fill="#000000" stroke="#000000" stroke-width="2.0" stroke-linecap="butt" d="m154.63585 434.88254l0.060302734 -9.658508l-6.2545624 7.360077z" fill-rule="evenodd"></path><path fill="#000000" fill-opacity="0.0" d="m109.57004 325.0441c0 -4.9027405 14.842522 -7.3527527 29.685043 -9.805511c14.842514 -2.4527588 29.685043 -4.908264 29.685043 -9.816528" fill-rule="nonzero"></path><path stroke="#000000" stroke-width="2.0" stroke-linejoin="round" stroke-linecap="butt" d="m109.57004 325.0441c0 -4.9027405 14.842514 -7.3527527 29.685043 -9.805511c3.710617 -0.6131897 7.4212494 -1.2265625 10.899963 -1.8783569c1.7393646 -0.32592773 3.4207458 -0.661438 5.015152 -1.0113525c0.7972107 -0.17495728 1.5726624 -0.35354614 2.3227692 -0.5362854c0.37504578 -0.09136963 0.74375916 -0.18380737 1.1056824 -0.27737427l0.0132751465 -0.003479004" fill-rule="evenodd"></path><path fill="#000000" stroke="#000000" stroke-width="2.0" stroke-linecap="butt" d="m160.29384 314.375l6.1298065 -7.464325l-9.493652 1.777832z" fill-rule="evenodd"></path><path fill="#000000" fill-opacity="0.0" d="m90.884605 343.75183c0 -16.495392 -6.204132 -26.992706 -10.56575 -32.990784c-4.3616104 -5.998047 -6.880699 -7.4968567 -10.5657425 -12.62027c-3.6850357 -5.1234436 -8.536026 -13.87146 -15.22953 -12.6203c-6.6935043 1.2511597 -15.22953 12.501495 -15.22953 25.00299" fill-rule="nonzero"></path><path stroke="#000000" stroke-width="2.0" stroke-linejoin="round" stroke-linecap="butt" d="m90.884605 343.75183c0 -16.495392 -6.204132 -26.992706 -10.56575 -32.990784c-4.3616104 -5.998047 -6.880707 -7.4968567 -10.5657425 -12.62027c-3.6850433 -5.1234436 -8.536022 -13.87146 -15.22953 -12.6203c-3.346756 0.6255493 -7.154133 3.750946 -10.124828 8.282623c-0.74267197 1.1329346 -1.4330559 2.3537292 -2.0508728 3.6453552c-0.15445328 0.32287598 -0.30437088 0.6502075 -0.44944 0.98168945l-0.14849854 0.34732056" fill-rule="evenodd"></path><path fill="#000000" stroke="#000000" stroke-width="2.0" stroke-linecap="butt" d="m38.5164 298.1014l1.3760338 9.56015l5.091053 -8.208008z" fill-rule="evenodd"></path><path fill="#cfe2f3" d="m87.014725 334.39798l0 0c0 -7.3058167 5.9154816 -13.228363 13.212593 -13.228363l0 0c3.5042038 0 6.864876 1.3937073 9.34272 3.8744812c2.4778442 2.4808044 3.8698807 5.8454895 3.8698807 9.353882l0 0c0 7.305786 -5.9154816 13.2283325 -13.212601 13.2283325l0 0c-7.2971115 0 -13.212593 -5.9225464 -13.212593 -13.2283325z" fill-rule="nonzero"></path><path stroke="#000000" stroke-width="2.0" stroke-linejoin="round" stroke-linecap="butt" d="m87.014725 334.39798l0 0c0 -7.3058167 5.9154816 -13.228363 13.212593 -13.228363l0 0c3.5042038 0 6.864876 1.3937073 9.34272 3.8744812c2.4778442 2.4808044 3.8698807 5.8454895 3.8698807 9.353882l0 0c0 7.305786 -5.9154816 13.2283325 -13.212601 13.2283325l0 0c-7.2971115 0 -13.212593 -5.9225464 -13.212593 -13.2283325z" fill-rule="nonzero"></path><path fill="#cfe2f3" d="m429.03674 230.75885l0 0c0 -8.752655 7.0954285 -15.8480835 15.8480835 -15.8480835l219.20148 0c4.203186 0 8.234192 1.669693 11.206299 4.6417847c2.972046 2.972107 4.6417847 7.003128 4.6417847 11.206299l0 63.39044c0 8.752655 -7.095459 15.8480835 -15.8480835 15.8480835l-219.20148 0l0 0c-8.752655 0 -15.8480835 -7.0954285 -15.8480835 -15.8480835z" fill-rule="nonzero"></path><path stroke="#000000" stroke-width="2.0" stroke-linejoin="round" stroke-linecap="butt" d="m429.03674 230.75885l0 0c0 -8.752655 7.0954285 -15.8480835 15.8480835 -15.8480835l219.20148 0c4.203186 0 8.234192 1.669693 11.206299 4.6417847c2.972046 2.972107 4.6417847 7.003128 4.6417847 11.206299l0 63.39044c0 8.752655 -7.095459 15.8480835 -15.8480835 15.8480835l-219.20148 0l0 0c-8.752655 0 -15.8480835 -7.0954285 -15.8480835 -15.8480835z" fill-rule="nonzero"></path><path fill="#000000" d="m459.73557 248.21344l3.796875 0l0 12.546875q2.59375 0 3.640625 -1.0q1.0625 -1.015625 2.703125 -4.84375q1.1875 -2.8125 1.953125 -3.96875q0.78125 -1.171875 2.203125 -1.953125q1.4375 -0.796875 3.15625 -0.796875q2.1875 0 2.296875 0.046875l0 3.28125q-0.1875 0 -0.765625 -0.03125q-0.625 -0.015625 -0.75 -0.015625q-1.828125 0 -2.703125 0.875q-0.890625 0.890625 -2.046875 3.75q-1.453125 3.640625 -2.453125 4.59375q-0.984375 0.9375 -2.375 1.5q2.78125 0.765625 5.46875 5.125l5.90625 9.53125l-4.71875 0l-4.78125 -7.78125q-1.96875 -3.21875 -3.296875 -4.421875q-1.328125 -1.203125 -3.4375 -1.203125l0 13.40625l-3.796875 0l0 -28.640625zm22.800781 36.59375l0 -28.703125l3.203125 0l0 2.703125q1.125 -1.578125 2.546875 -2.375q1.4375 -0.796875 3.46875 -0.796875q2.65625 0 4.6875 1.375q2.03125 1.359375 3.0625 3.859375q1.03125 2.484375 1.03125 5.453125q0 3.1875 -1.140625 5.734375q-1.140625 2.546875 -3.328125 3.90625q-2.171875 1.359375 -4.5625 1.359375q-1.765625 0 -3.171875 -0.734375q-1.390625 -0.75 -2.28125 -1.890625l0 10.109375l-3.515625 0zm3.1875 -18.203125q0 4.0 1.609375 5.921875q1.625 1.90625 3.9375 1.90625q2.34375 0 4.0 -1.984375q1.671875 -1.984375 1.671875 -6.140625q0 -3.96875 -1.625 -5.9375q-1.625 -1.96875 -3.890625 -1.96875q-2.25 0 -3.984375 2.09375q-1.71875 2.09375 -1.71875 6.109375zm17.746094 -0.125q0 -5.765625 3.203125 -8.53125q2.671875 -2.3125 6.5312195 -2.3125q4.265625 0 6.984375 2.8125q2.71875 2.796875 2.71875 7.734375q0 4.015625 -1.203125 6.3125q-1.203125 2.28125 -3.5 3.5625q-2.296875 1.265625 -5.0 1.265625q-4.3593445 0 -7.0468445 -2.796875q-2.6875 -2.796875 -2.6875 -8.046875zm3.609375 0q0 3.984375 1.734375 5.96875q1.75 1.984375 4.3905945 1.984375q2.609375 0 4.34375 -1.984375q1.75 -2.0 1.75 -6.078125q0 -3.859375 -1.75 -5.828125q-1.75 -1.984375 -4.34375 -1.984375q-2.6405945 0 -4.3905945 1.96875q-1.734375 1.96875 -1.734375 5.953125zm33.48044 2.78125l3.453125 0.4375q-0.5625 3.578125 -2.90625 5.609375q-2.328125 2.015625 -5.71875 2.015625q-4.265625 0 -6.859375 -2.78125q-2.578125 -2.78125 -2.578125 -7.984375q0 -3.359375 1.109375 -5.875q1.125 -2.515625 3.390625 -3.78125q2.28125 -1.265625 4.953125 -1.265625q3.375 0 5.515625 1.71875q2.15625 1.703125 2.765625 4.84375l-3.421875 0.53125q-0.484375 -2.09375 -1.734375 -3.140625q-1.234375 -1.0625 -2.984375 -1.0625q-2.65625 0 -4.328125 1.90625q-1.65625 1.90625 -1.65625 6.03125q0 4.171875 1.59375 6.078125q1.609375 1.890625 4.1875 1.890625q2.078125 0 3.453125 -1.265625q1.390625 -1.28125 1.765625 -3.90625zm20.0 0l3.453125 0.4375q-0.5625 3.578125 -2.90625 5.609375q-2.328125 2.015625 -5.71875 2.015625q-4.265625 0 -6.859375 -2.78125q-2.578125 -2.78125 -2.578125 -7.984375q0 -3.359375 1.109375 -5.875q1.125 -2.515625 3.390625 -3.78125q2.28125 -1.265625 4.953125 -1.265625q3.375 0 5.515625 1.71875q2.15625 1.703125 2.765625 4.84375l-3.421875 0.53125q-0.484375 -2.09375 -1.734375 -3.140625q-1.234375 -1.0625 -2.984375 -1.0625q-2.65625 0 -4.328125 1.90625q-1.65625 1.90625 -1.65625 6.03125q0 4.171875 1.59375 6.078125q1.609375 1.890625 4.1875 1.890625q2.078125 0 3.453125 -1.265625q1.390625 -1.28125 1.765625 -3.90625zm5.15625 -2.78125q0 -5.765625 3.203125 -8.53125q2.671875 -2.3125 6.53125 -2.3125q4.265625 0 6.984375 2.8125q2.71875 2.796875 2.71875 7.734375q0 4.015625 -1.203125 6.3125q-1.203125 2.28125 -3.5 3.5625q-2.296875 1.265625 -5.0 1.265625q-4.359375 0 -7.046875 -2.796875q-2.6875 -2.796875 -2.6875 -8.046875zm3.609375 0q0 3.984375 1.734375 5.96875q1.75 1.984375 4.390625 1.984375q2.609375 0 4.34375 -1.984375q1.75 -2.0 1.75 -6.078125q0 -3.859375 -1.75 -5.828125q-1.75 -1.984375 -4.34375 -1.984375q-2.640625 0 -4.390625 1.96875q-1.734375 1.96875 -1.734375 5.953125zm19.964844 -10.375l8.109375 0q2.984375 0 4.4375 0.5q1.453125 0.5 2.5 1.828125q1.046875 1.328125 1.046875 3.1875q0 1.484375 -0.625 2.59375q-0.609375 1.09375 -1.828125 1.84375q1.453125 0.484375 2.421875 1.828125q0.96875 1.328125 0.96875 3.171875q-0.1875 2.9375 -2.109375 4.375q-1.90625 1.421875 -5.5625 1.421875l-9.359375 0l0 -20.75zm3.515625 8.734375l3.75 0q2.25 0 3.078125 -0.234375q0.84375 -0.234375 1.5 -0.9375q0.671875 -0.71875 0.671875 -1.71875q0 -1.640625 -1.15625 -2.28125q-1.15625 -0.640625 -3.96875 -0.640625l-3.875 0l0 5.8125zm0 9.125l4.625 0q3.0 0 4.109375 -0.6875q1.109375 -0.703125 1.171875 -2.40625q0 -0.984375 -0.65625 -1.828125q-0.640625 -0.859375 -1.671875 -1.078125q-1.03125 -0.234375 -3.3125 -0.234375l-4.265625 0l0 6.234375zm31.921875 -3.796875l3.625 0.453125q-0.859375 3.1875 -3.1875 4.953125q-2.3125 1.75 -5.9375 1.75q-4.546875 0 -7.21875 -2.796875q-2.65625 -2.8125 -2.65625 -7.875q0 -5.234375 2.6875 -8.125q2.703125 -2.890625 7.0 -2.890625q4.15625 0 6.796875 2.84375q2.640625 2.828125 2.640625 7.96875q0 0.3125 -0.03125 0.9375l-15.46875 0q0.203125 3.40625 1.9375 5.234375q1.734375 1.8125 4.34375 1.8125q1.921875 0 3.28125 -1.015625q1.375 -1.015625 2.1875 -3.25zm-11.546875 -5.671875l11.578125 0q-0.234375 -2.625 -1.328125 -3.9375q-1.671875 -2.03125 -4.359375 -2.03125q-2.421875 0 -4.078125 1.625q-1.640625 1.625 -1.8125 4.34375zm19.589844 20.3125l0 -28.703125l3.203125 0l0 2.703125q1.125 -1.578125 2.546875 -2.375q1.4375 -0.796875 3.46875 -0.796875q2.65625 0 4.6875 1.375q2.03125 1.359375 3.0625 3.859375q1.03125 2.484375 1.03125 5.453125q0 3.1875 -1.140625 5.734375q-1.140625 2.546875 -3.328125 3.90625q-2.171875 1.359375 -4.5625 1.359375q-1.765625 0 -3.171875 -0.734375q-1.390625 -0.75 -2.28125 -1.890625l0 10.109375l-3.515625 0zm3.1875 -18.203125q0 4.0 1.609375 5.921875q1.625 1.90625 3.9375 1.90625q2.34375 0 4.0 -1.984375q1.671875 -1.984375 1.671875 -6.140625q0 -3.96875 -1.625 -5.9375q-1.625 -1.96875 -3.890625 -1.96875q-2.25 0 -3.984375 2.09375q-1.71875 2.09375 -1.71875 6.109375z" fill-rule="nonzero"></path><path fill="#b6d7a8" d="m743.1365 337.12073l0 0c0 -26.257446 22.033264 -47.543304 49.212585 -47.543304l0 0c13.052002 0 25.569458 5.0090027 34.798584 13.92511c9.229126 8.916107 14.4140625 21.008942 14.4140625 33.618195l0 0c0 26.257446 -22.033264 47.543304 -49.212646 47.543304l0 0c-27.179321 0 -49.212585 -21.285858 -49.212585 -47.543304z" fill-rule="nonzero"></path><path stroke="#000000" stroke-width="2.0" stroke-linejoin="round" stroke-linecap="butt" d="m743.1365 337.12073l0 0c0 -26.257446 22.033264 -47.543304 49.212585 -47.543304l0 0c13.052002 0 25.569458 5.0090027 34.798584 13.92511c9.229126 8.916107 14.4140625 21.008942 14.4140625 33.618195l0 0c0 26.257446 -22.033264 47.543304 -49.212646 47.543304l0 0c-27.179321 0 -49.212585 -21.285858 -49.212585 -47.543304z" fill-rule="nonzero"></path><path fill="#000000" d="m770.8 351.52072l16.234375 -28.640625l4.5 0l4.734375 28.640625l-3.71875 0l-1.375 -8.25l-11.59375 0l-4.578125 8.25l-4.203125 0zm10.421875 -11.1875l9.484375 0l-1.125 -7.1875q-0.640625 -4.28125 -0.796875 -7.140625q-0.96875 2.46875 -2.84375 5.84375l-4.71875 8.484375z" fill-rule="nonzero"></path><path fill="#000000" d="m811.8703 364.23947l0 2.28125l-12.78125 0q-0.015625 -0.859375 0.28125 -1.640625q0.484375 -1.3125 1.5625 -2.578125q1.078125 -1.265625 3.109375 -2.921875q3.140625 -2.59375 4.25 -4.09375q1.109375 -1.515625 1.109375 -2.859375q0 -1.40625 -1.015625 -2.375q-1.0 -0.96875 -2.625 -0.96875q-1.703125 0 -2.734375 1.03125q-1.03125 1.015625 -1.046875 2.84375l-2.4375 -0.25q0.25 -2.734375 1.875 -4.15625q1.640625 -1.4375 4.40625 -1.4375q2.78125 0 4.390625 1.546875q1.625 1.53125 1.625 3.8125q0 1.171875 -0.484375 2.296875q-0.46875 1.109375 -1.5625 2.359375q-1.09375 1.234375 -3.65625 3.390625q-2.140625 1.796875 -2.75 2.4375q-0.59375 0.640625 -1.0 1.28125l9.484375 0z" fill-rule="nonzero"></path><path fill="#000000" fill-opacity="0.0" d="m347.4003 145.33665c0 -21.264122 101.80313 -42.217224 203.6063 -42.528244c101.80316 -0.31102753 203.60632 20.020027 203.60632 40.040054" fill-rule="nonzero"></path><path stroke="#000000" stroke-width="2.0" stroke-linejoin="round" stroke-linecap="butt" stroke-dasharray="2.0,6.0" d="m347.4003 145.33665c0 -21.264114 101.80316 -42.217224 203.6063 -42.528244c50.90161 -0.15550995 101.80316 4.8495026 139.97931 12.395882c19.088074 3.7731934 34.994812 8.18174 46.129578 12.8982315c2.7836304 1.1791229 5.269104 2.3774872 7.4314575 3.5899963c0.54052734 0.30311584 1.0609131 0.60713196 1.560669 0.9119415c0.24993896 0.15240479 0.49468994 0.3050232 0.7342529 0.45780945c0.11975098 0.07640076 0.23828125 0.15284729 0.35546875 0.2293396l0.08496094 0.056152344" fill-rule="evenodd"></path><path fill="#000000" stroke="#000000" stroke-width="2.0" stroke-linecap="butt" d="m744.6669 135.36578l8.159912 5.1678314l-2.929016 -9.203857z" fill-rule="evenodd"></path><path fill="#cfe2f3" d="m360.35696 200.90027l55.884583 33.67787l2.6299133 -4.3543243l3.45401 13.959915l-13.973694 3.4574127l2.6299133 -4.3543396l-55.884583 -33.677887z" fill-rule="nonzero"></path><path stroke="#000000" stroke-width="2.0" stroke-linejoin="round" stroke-linecap="butt" d="m360.35696 200.90027l55.884583 33.67787l2.6299133 -4.3543243l3.45401 13.959915l-13.973694 3.4574127l2.6299133 -4.3543396l-55.884583 -33.677887z" fill-rule="nonzero"></path><path fill="#cfe2f3" d="m354.86877 302.30972l57.358063 -30.748932l-2.4015808 -4.4881897l13.775787 4.16626l-4.1694946 13.786499l-2.4015808 -4.4881897l-57.358063 30.748932z" fill-rule="nonzero"></path><path stroke="#000000" stroke-width="2.0" stroke-linejoin="round" stroke-linecap="butt" d="m354.86877 302.30972l57.358063 -30.748932l-2.4015808 -4.4881897l13.775787 4.16626l-4.1694946 13.786499l-2.4015808 -4.4881897l-57.358063 30.748932z" fill-rule="nonzero"></path><path fill="#cfe2f3" d="m687.82416 265.19946l55.884583 33.677887l2.6298828 -4.354309l3.4540405 13.9599l-13.973694 3.4573975l2.6299438 -4.354309l-55.884583 -33.677887z" fill-rule="nonzero"></path><path stroke="#000000" stroke-width="2.0" stroke-linejoin="round" stroke-linecap="butt" d="m687.82416 265.19946l55.884583 33.677887l2.6298828 -4.354309l3.4540405 13.9599l-13.973694 3.4573975l2.6299438 -4.354309l-55.884583 -33.677887z" fill-rule="nonzero"></path><path fill="#cfe2f3" d="m683.7874 239.42783l51.845886 -27.78897l-2.4015503 -4.4881897l13.776123 4.166916l-4.169861 13.785843l-2.4015503 -4.4881897l-51.845886 27.78897z" fill-rule="nonzero"></path><path stroke="#000000" stroke-width="2.0" stroke-linejoin="round" stroke-linecap="butt" d="m683.7874 239.42783l51.845886 -27.78897l-2.4015503 -4.4881897l13.776123 4.166916l-4.169861 13.785843l-2.4015503 -4.4881897l-51.845886 27.78897z" fill-rule="nonzero"></path><path fill="#000000" fill-opacity="0.0" d="m736.67737 150.15895l158.33075 0l0 82.36221l-158.33075 0z" fill-rule="nonzero"></path><path fill="#000000" d="m745.1305 184.75896l10.96875 -19.328125l3.03125 0l3.203125 19.328125l-2.515625 0l-0.9375 -5.5625l-7.8125 0l-3.09375 5.5625l-2.84375 0zm7.046875 -7.546875l6.390625 0l-0.75 -4.859375q-0.4375 -2.890625 -0.53125 -4.8125q-0.671875 1.65625 -1.9375 3.9375l-3.171875 5.734375z" fill-rule="nonzero"></path><path fill="#000000" d="m770.16003 194.75896l-1.578125 0l0 -10.078125q-0.578125 0.546875 -1.5 1.09375q-0.921875 0.53125 -1.671875 0.8125l0 -1.53125q1.328125 -0.625 2.328125 -1.515625q1.0 -0.890625 1.40625 -1.71875l1.015625 0l0 12.9375z" fill-rule="nonzero"></path><path fill="#000000" d="m787.6028 173.39958l-12.765625 0l0 -2.21875l12.765625 0l0 2.21875zm0 5.859375l-12.765625 0l0 -2.21875l12.765625 0l0 2.21875z" fill-rule="nonzero"></path><path fill="#000000" d="m788.3571 184.75896l10.96875 -19.328125l3.03125 0l3.203125 19.328125l-2.515625 0l-0.9375 -5.5625l-7.8125 0l-3.09375 5.5625l-2.84375 0zm7.046875 -7.546875l6.390625 0l-0.75 -4.859375q-0.4375 -2.890625 -0.53125 -4.8125q-0.671875 1.65625 -1.9375 3.9375l-3.171875 5.734375z" fill-rule="nonzero"></path><path fill="#000000" d="m809.3241 194.75896l-1.46875 0l0 -12.890625l1.59375 0l0 4.609375q1.0 -1.265625 2.546875 -1.265625q0.859375 0 1.625 0.359375q0.78125 0.34375 1.265625 0.96875q0.5 0.625 0.78125 1.515625q0.28125 0.890625 0.28125 1.890625q0 2.40625 -1.1875 3.71875q-1.171875 1.3125 -2.84375 1.3125q-1.640625 0 -2.59375 -1.390625l0 1.171875zm-0.015625 -4.734375q0 1.671875 0.453125 2.421875q0.75 1.21875 2.03125 1.21875q1.03125 0 1.78125 -0.890625q0.765625 -0.90625 0.765625 -2.6875q0 -1.828125 -0.734375 -2.703125q-0.71875 -0.875 -1.75 -0.875q-1.03125 0 -1.796875 0.90625q-0.75 0.90625 -0.75 2.609375zm14.833374 1.734375l1.640625 0.203125q-0.390625 1.421875 -1.4375 2.21875q-1.046875 0.796875 -2.671875 0.796875q-2.046875 0 -3.25 -1.265625q-1.203125 -1.265625 -1.203125 -3.546875q0 -2.34375 1.203125 -3.640625q1.21875 -1.3125 3.15625 -1.3125q1.875 0 3.0625 1.28125q1.1875 1.265625 1.1875 3.578125q0 0.140625 -0.015625 0.421875l-6.953125 0q0.078125 1.546875 0.859375 2.359375q0.796875 0.8125 1.953125 0.8125q0.875 0 1.484375 -0.453125q0.625 -0.453125 0.984375 -1.453125zm-5.203125 -2.5625l5.21875 0q-0.109375 -1.171875 -0.59375 -1.765625q-0.765625 -0.921875 -1.96875 -0.921875q-1.078125 0 -1.828125 0.734375q-0.734375 0.734375 -0.828125 1.953125zm8.052124 2.78125l1.578125 -0.25q0.125 0.9375 0.71875 1.4375q0.609375 0.5 1.6875 0.5q1.09375 0 1.625 -0.4375q0.53125 -0.453125 0.53125 -1.046875q0 -0.53125 -0.46875 -0.84375q-0.328125 -0.203125 -1.625 -0.53125q-1.734375 -0.4375 -2.40625 -0.75q-0.671875 -0.328125 -1.03125 -0.890625q-0.34375 -0.578125 -0.34375 -1.265625q0 -0.625 0.28125 -1.15625q0.296875 -0.53125 0.78125 -0.875q0.375 -0.28125 1.015625 -0.46875q0.640625 -0.1875 1.359375 -0.1875q1.109375 0 1.9375 0.328125q0.828125 0.3125 1.21875 0.859375q0.40625 0.53125 0.546875 1.4375l-1.546875 0.203125q-0.109375 -0.71875 -0.609375 -1.125q-0.5 -0.40625 -1.421875 -0.40625q-1.09375 0 -1.5625 0.359375q-0.46875 0.359375 -0.46875 0.84375q0 0.3125 0.203125 0.5625q0.1875 0.25 0.59375 0.421875q0.25 0.078125 1.40625 0.40625q1.671875 0.4375 2.328125 0.734375q0.671875 0.28125 1.046875 0.828125q0.390625 0.546875 0.390625 1.34375q0 0.796875 -0.46875 1.5q-0.453125 0.703125 -1.328125 1.09375q-0.875 0.375 -1.96875 0.375q-1.828125 0 -2.78125 -0.75q-0.953125 -0.765625 -1.21875 -2.25zm12.97644 1.359375l0.234375 1.40625q-0.671875 0.140625 -1.203125 0.140625q-0.859375 0 -1.34375 -0.265625q-0.46875 -0.28125 -0.65625 -0.71875q-0.1875 -0.453125 -0.1875 -1.875l0 -5.375l-1.171875 0l0 -1.21875l1.171875 0l0 -2.3125l1.5625 -0.953125l0 3.265625l1.59375 0l0 1.21875l-1.59375 0l0 5.46875q0 0.671875 0.078125 0.875q0.09375 0.1875 0.28125 0.296875q0.1875 0.109375 0.546875 0.109375q0.25 0 0.6875 -0.0625z" fill-rule="nonzero"></path></g></svg>

