<?xml version="1.0" standalone="yes"?>

<svg version="1.1" viewBox="0.0 0.0 632.7454068241469 503.43569553805776" fill="none" stroke="none" stroke-linecap="square" stroke-miterlimit="10" xmlns="http://www.w3.org/2000/svg" xmlns:xlink="http://www.w3.org/1999/xlink"><clipPath id="p.0"><path d="m0 0l632.7454 0l0 503.4357l-632.7454 0l0 -503.4357z" clip-rule="nonzero"></path></clipPath><g clip-path="url(#p.0)"><path fill="#000000" fill-opacity="0.0" d="m0 0l632.7454 0l0 503.4357l-632.7454 0z" fill-rule="nonzero"></path><path fill="#cfe2f3" d="m83.475815 78.924126l0 0c0 -8.28862 6.9448776 -15.007874 15.51181 -15.007874l0 0c4.113991 0 8.059479 1.5811844 10.968506 4.395706c2.909027 2.8145218 4.5433044 6.631836 4.5433044 10.612167l0 0c0 8.28862 -6.94487 15.007874 -15.51181 15.007874l0 0c-8.566933 0 -15.51181 -6.7192535 -15.51181 -15.007874z" fill-rule="nonzero"></path><path stroke="#000000" stroke-width="2.0" stroke-linejoin="round" stroke-linecap="butt" d="m83.475815 78.924126l0 0c0 -8.28862 6.9448776 -15.007874 15.51181 -15.007874l0 0c4.113991 0 8.059479 1.5811844 10.968506 4.395706c2.909027 2.8145218 4.5433044 6.631836 4.5433044 10.612167l0 0c0 8.28862 -6.94487 15.007874 -15.51181 15.007874l0 0c-8.566933 0 -15.51181 -6.7192535 -15.51181 -15.007874z" fill-rule="nonzero"></path><path fill="#cfe2f3" d="m161.5799 78.924126l0 0c0 -8.28862 6.94487 -15.007874 15.51181 -15.007874l0 0c4.113983 0 8.059479 1.5811844 10.968506 4.395706c2.909027 2.8145218 4.5433044 6.631836 4.5433044 10.612167l0 0c0 8.28862 -6.9448853 15.007874 -15.51181 15.007874l0 0c-8.56694 0 -15.51181 -6.7192535 -15.51181 -15.007874z" fill-rule="nonzero"></path><path stroke="#000000" stroke-width="2.0" stroke-linejoin="round" stroke-linecap="butt" d="m161.5799 78.924126l0 0c0 -8.28862 6.94487 -15.007874 15.51181 -15.007874l0 0c4.113983 0 8.059479 1.5811844 10.968506 4.395706c2.909027 2.8145218 4.5433044 6.631836 4.5433044 10.612167l0 0c0 8.28862 -6.9448853 15.007874 -15.51181 15.007874l0 0c-8.56694 0 -15.51181 -6.7192535 -15.51181 -15.007874z" fill-rule="nonzero"></path><path fill="#cfe2f3" d="m237.24596 102.067154l0 0c0 -8.28862 6.94487 -15.007874 15.51181 -15.007874l0 0c4.113968 0 8.0594635 1.5811768 10.968491 4.3956985c2.909027 2.8145294 4.5433044 6.631836 4.5433044 10.612175l0 0c0 8.28862 -6.9448547 15.007874 -15.511795 15.007874l0 0c-8.56694 0 -15.51181 -6.7192535 -15.51181 -15.007874z" fill-rule="nonzero"></path><path stroke="#000000" stroke-width="2.0" stroke-linejoin="round" stroke-linecap="butt" d="m237.24596 102.067154l0 0c0 -8.28862 6.94487 -15.007874 15.51181 -15.007874l0 0c4.113968 0 8.0594635 1.5811768 10.968491 4.3956985c2.909027 2.8145294 4.5433044 6.631836 4.5433044 10.612175l0 0c0 8.28862 -6.9448547 15.007874 -15.511795 15.007874l0 0c-8.56694 0 -15.51181 -6.7192535 -15.51181 -15.007874z" fill-rule="nonzero"></path><path fill="#cfe2f3" d="m128.10672 124.79255l0 0c0 -8.28862 6.94487 -15.007881 15.51181 -15.007881l0 0c4.113983 0 8.059479 1.5811844 10.968506 4.395706c2.909027 2.8145218 4.5433044 6.631836 4.5433044 10.612175l0 0c0 8.288612 -6.9448853 15.007866 -15.51181 15.007866l0 0c-8.56694 0 -15.51181 -6.7192535 -15.51181 -15.007866z" fill-rule="nonzero"></path><path stroke="#000000" stroke-width="2.0" stroke-linejoin="round" stroke-linecap="butt" d="m128.10672 124.79255l0 0c0 -8.28862 6.94487 -15.007881 15.51181 -15.007881l0 0c4.113983 0 8.059479 1.5811844 10.968506 4.395706c2.909027 2.8145218 4.5433044 6.631836 4.5433044 10.612175l0 0c0 8.288612 -6.9448853 15.007866 -15.51181 15.007866l0 0c-8.56694 0 -15.51181 -6.7192535 -15.51181 -15.007866z" fill-rule="nonzero"></path><path fill="#cfe2f3" d="m141.70244 205.06226l0 0c0 -8.28862 6.9448853 -15.007874 15.51181 -15.007874l0 0c4.1139984 0 8.059479 1.5811768 10.968506 4.395706c2.9090424 2.8145142 4.5433044 6.6318207 4.5433044 10.612167l0 0c0 8.28862 -6.94487 15.007874 -15.51181 15.007874l0 0c-8.566925 0 -15.51181 -6.7192535 -15.51181 -15.007874z" fill-rule="nonzero"></path><path stroke="#000000" stroke-width="2.0" stroke-linejoin="round" stroke-linecap="butt" d="m141.70244 205.06226l0 0c0 -8.28862 6.9448853 -15.007874 15.51181 -15.007874l0 0c4.1139984 0 8.059479 1.5811768 10.968506 4.395706c2.9090424 2.8145142 4.5433044 6.6318207 4.5433044 10.612167l0 0c0 8.28862 -6.94487 15.007874 -15.51181 15.007874l0 0c-8.566925 0 -15.51181 -6.7192535 -15.51181 -15.007874z" fill-rule="nonzero"></path><path fill="#cfe2f3" d="m317.78802 118.6414l0 0c0 -8.28862 6.9448853 -15.007874 15.51181 -15.007874l0 0c4.113983 0 8.059479 1.5811768 10.968506 4.3956985c2.909027 2.8145294 4.5433044 6.631836 4.5433044 10.612175l0 0c0 8.28862 -6.9448853 15.007874 -15.51181 15.007874l0 0c-8.566925 0 -15.51181 -6.7192535 -15.51181 -15.007874z" fill-rule="nonzero"></path><path stroke="#000000" stroke-width="2.0" stroke-linejoin="round" stroke-linecap="butt" d="m317.78802 118.6414l0 0c0 -8.28862 6.9448853 -15.007874 15.51181 -15.007874l0 0c4.113983 0 8.059479 1.5811768 10.968506 4.3956985c2.909027 2.8145294 4.5433044 6.631836 4.5433044 10.612175l0 0c0 8.28862 -6.9448853 15.007874 -15.51181 15.007874l0 0c-8.566925 0 -15.51181 -6.7192535 -15.51181 -15.007874z" fill-rule="nonzero"></path><path fill="#cfe2f3" d="m196.27206 163.88528l0 0c0 -8.28862 6.94487 -15.007874 15.51181 -15.007874l0 0c4.113983 0 8.059479 1.581192 10.968506 4.395706c2.909027 2.8145294 4.5433044 6.631836 4.5433044 10.612167l0 0c0 8.28862 -6.94487 15.007874 -15.51181 15.007874l0 0c-8.56694 0 -15.51181 -6.7192535 -15.51181 -15.007874z" fill-rule="nonzero"></path><path stroke="#000000" stroke-width="2.0" stroke-linejoin="round" stroke-linecap="butt" d="m196.27206 163.88528l0 0c0 -8.28862 6.94487 -15.007874 15.51181 -15.007874l0 0c4.113983 0 8.059479 1.581192 10.968506 4.395706c2.909027 2.8145294 4.5433044 6.631836 4.5433044 10.612167l0 0c0 8.28862 -6.94487 15.007874 -15.51181 15.007874l0 0c-8.56694 0 -15.51181 -6.7192535 -15.51181 -15.007874z" fill-rule="nonzero"></path><path fill="#cfe2f3" d="m237.24596 235.0844l0 0c0 -8.28862 6.94487 -15.007874 15.51181 -15.007874l0 0c4.113968 0 8.0594635 1.5811768 10.968491 4.395706c2.909027 2.8145142 4.5433044 6.631836 4.5433044 10.612167l0 0c0 8.28862 -6.9448547 15.007874 -15.511795 15.007874l0 0c-8.56694 0 -15.51181 -6.7192535 -15.51181 -15.007874z" fill-rule="nonzero"></path><path stroke="#000000" stroke-width="2.0" stroke-linejoin="round" stroke-linecap="butt" d="m237.24596 235.0844l0 0c0 -8.28862 6.94487 -15.007874 15.51181 -15.007874l0 0c4.113968 0 8.0594635 1.5811768 10.968491 4.395706c2.909027 2.8145142 4.5433044 6.631836 4.5433044 10.612167l0 0c0 8.28862 -6.9448547 15.007874 -15.511795 15.007874l0 0c-8.56694 0 -15.51181 -6.7192535 -15.51181 -15.007874z" fill-rule="nonzero"></path><path fill="#cfe2f3" d="m273.15714 182.12807l0 0c0 -8.28862 6.9448853 -15.007874 15.51181 -15.007874l0 0c4.113983 0 8.059479 1.581192 10.968506 4.395706c2.909027 2.8145294 4.5433044 6.631836 4.5433044 10.612167l0 0c0 8.28862 -6.9448547 15.007874 -15.51181 15.007874l0 0c-8.566925 0 -15.51181 -6.7192535 -15.51181 -15.007874z" fill-rule="nonzero"></path><path stroke="#000000" stroke-width="2.0" stroke-linejoin="round" stroke-linecap="butt" d="m273.15714 182.12807l0 0c0 -8.28862 6.9448853 -15.007874 15.51181 -15.007874l0 0c4.113983 0 8.059479 1.581192 10.968506 4.395706c2.909027 2.8145294 4.5433044 6.631836 4.5433044 10.612167l0 0c0 8.28862 -6.9448547 15.007874 -15.51181 15.007874l0 0c-8.566925 0 -15.51181 -6.7192535 -15.51181 -15.007874z" fill-rule="nonzero"></path><path fill="#cfe2f3" d="m273.15714 57.137383l0 0c0 -8.28862 6.9448853 -15.007874 15.51181 -15.007874l0 0c4.113983 0 8.059479 1.5811806 10.968506 4.3957024c2.909027 2.8145256 4.5433044 6.631836 4.5433044 10.612171l0 0c0 8.28862 -6.9448547 15.007874 -15.51181 15.007874l0 0c-8.566925 0 -15.51181 -6.7192535 -15.51181 -15.007874z" fill-rule="nonzero"></path><path stroke="#000000" stroke-width="2.0" stroke-linejoin="round" stroke-linecap="butt" d="m273.15714 57.137383l0 0c0 -8.28862 6.9448853 -15.007874 15.51181 -15.007874l0 0c4.113983 0 8.059479 1.5811806 10.968506 4.3957024c2.909027 2.8145256 4.5433044 6.631836 4.5433044 10.612171l0 0c0 8.28862 -6.9448547 15.007874 -15.51181 15.007874l0 0c-8.566925 0 -15.51181 -6.7192535 -15.51181 -15.007874z" fill-rule="nonzero"></path><path fill="#000000" fill-opacity="0.0" d="m114.499435 78.924126c11.770004 0 17.65419 0.01574707 23.540009 0.03150177c5.8858337 0.01574707 11.7733 0.03149414 23.5466 0.03149414" fill-rule="nonzero"></path><path stroke="#000000" stroke-width="2.0" stroke-linejoin="round" stroke-linecap="butt" d="m114.499435 78.924126c11.770004 0 17.65419 0.01574707 23.540024 0.03149414c2.9429016 0.007873535 5.8862305 0.01574707 9.565491 0.021652222l1.9810944 0.0022964478" fill-rule="evenodd"></path><path fill="#000000" stroke="#000000" stroke-width="2.0" stroke-linecap="butt" d="m149.58397 82.283035l9.078278 -3.29776l-9.074112 -3.3091736z" fill-rule="evenodd"></path><path fill="#000000" fill-opacity="0.0" d="m109.95613 89.5363c0 6.161049 5.67717 9.243362 11.354332 12.322098c5.677162 3.078743 11.354332 6.153908 11.354332 12.307823" fill-rule="nonzero"></path><path stroke="#000000" stroke-width="2.0" stroke-linejoin="round" stroke-linecap="butt" d="m109.95613 89.53629c0 6.1610565 5.677162 9.24337 11.354332 12.322105c1.4192886 0.76968384 2.8385773 1.5391464 4.1691666 2.3565445l0.25159454 0.15710449" fill-rule="evenodd"></path><path fill="#000000" stroke="#000000" stroke-width="2.0" stroke-linecap="butt" d="m123.035 106.280785l7.9404144 5.499077l-2.5479736 -9.316544z" fill-rule="evenodd"></path><path fill="#000000" fill-opacity="0.0" d="m143.61853 139.80042c0 12.563583 0.65353394 18.296463 1.3070831 25.127182c0.6535492 6.8307037 1.3070831 14.759247 1.3070831 29.518494" fill-rule="nonzero"></path><path stroke="#000000" stroke-width="2.0" stroke-linejoin="round" stroke-linecap="butt" d="m143.61853 139.80042c0 12.563599 0.6535492 18.296478 1.3070831 25.127182c0.32678223 3.4153595 0.6535492 7.1051636 0.8986206 11.786041c0.061279297 1.170227 0.11743164 2.4023743 0.16722107 3.7076874c0.024887085 0.6526642 0.048187256 1.3235931 0.06971741 2.014206l3.3569336E-4 0.011795044" fill-rule="evenodd"></path><path fill="#000000" stroke="#000000" stroke-width="2.0" stroke-linecap="butt" d="m142.75838 182.49445l3.4326172 9.028137l3.173645 -9.122391z" fill-rule="evenodd"></path><path fill="#000000" fill-opacity="0.0" d="m188.06021 68.31196c0 -5.5905495 42.551178 -11.181103 85.102356 -11.181103" fill-rule="nonzero"></path><path stroke="#000000" stroke-width="2.0" stroke-linejoin="round" stroke-linecap="butt" d="m188.0602 68.31196c0 -2.7952805 10.637802 -5.5905533 26.594498 -7.687008c7.978348 -1.0482292 17.286423 -1.9217529 27.259354 -2.5332184c4.9864655 -0.30573654 10.139145 -0.54595566 15.374924 -0.7097397c0.65448 -0.02047348 1.3102417 -0.03975296 1.9671631 -0.05781555l1.9072876 -0.04881668" fill-rule="evenodd"></path><path fill="#000000" stroke="#000000" stroke-width="2.0" stroke-linecap="butt" d="m261.20322 60.578587l9.035767 -3.4125214l-9.115326 -3.1939278z" fill-rule="evenodd"></path><path fill="#000000" fill-opacity="0.0" d="m188.06021 89.5363c0 15.934135 3.1889648 23.899773 6.377945 31.868279c3.18898 7.968498 6.37796 15.939873 6.37796 31.879753" fill-rule="nonzero"></path><path stroke="#000000" stroke-width="2.0" stroke-linejoin="round" stroke-linecap="butt" d="m188.0602 89.53629c0 15.934151 3.18898 23.89978 6.37796 31.868286c1.5944824 3.984253 3.18898 7.9692154 4.384842 12.950615c0.29896545 1.2453461 0.5730133 2.5529633 0.81591797 3.9384308c0.12145996 0.69273376 0.23513794 1.4049072 0.34025574 2.138504c0.026260376 0.18339539 0.052001953 0.36813354 0.077194214 0.55422974l0.041992188 0.319458" fill-rule="evenodd"></path><path fill="#000000" stroke="#000000" stroke-width="2.0" stroke-linecap="butt" d="m196.80081 141.5034l3.8404236 8.86235l2.7546692 -9.257538z" fill-rule="evenodd"></path><path fill="#000000" fill-opacity="0.0" d="m154.58704 135.40471c0 14.236221 20.83464 28.472443 41.66928 28.472443" fill-rule="nonzero"></path><path stroke="#000000" stroke-width="2.0" stroke-linejoin="round" stroke-linecap="butt" d="m154.58704 135.40471c0 7.1181183 5.208664 14.236221 13.021637 19.574814c3.9064941 2.669281 8.464081 4.893692 13.3471985 6.450775c0.61039734 0.19464111 1.2258606 0.3788452 1.8457947 0.5522003c0.30996704 0.08666992 0.621048 0.17062378 0.9331665 0.2518158c0.15603638 0.040603638 0.3123474 0.08050537 0.4689026 0.1197052l0.1451416 0.035629272" fill-rule="evenodd"></path><path fill="#000000" stroke="#000000" stroke-width="2.0" stroke-linecap="butt" d="m183.93938 165.66763l9.41568 -2.1529083l-8.596695 -4.403061z" fill-rule="evenodd"></path><path fill="#000000" fill-opacity="0.0" d="m263.72626 112.67932c0 14.709251 3.4960632 22.064163 6.9921265 29.418503c3.4960632 7.3543243 6.9921265 14.708069 6.9921265 29.416138" fill-rule="nonzero"></path><path stroke="#000000" stroke-width="2.0" stroke-linejoin="round" stroke-linecap="butt" d="m263.7263 112.67932c0 14.709251 3.4960632 22.064163 6.9921265 29.418503c1.7480164 3.6771545 3.4960632 7.354187 4.807068 11.950409c0.3277588 1.1490631 0.62820435 2.3555756 0.89450073 3.6339111c0.066589355 0.31958008 0.13101196 0.64364624 0.1932373 0.97242737c0.031097412 0.16438293 0.06161499 0.32995605 0.09158325 0.49673462l0.06985474 0.3992157" fill-rule="evenodd"></path><path fill="#000000" stroke="#000000" stroke-width="2.0" stroke-linecap="butt" d="m273.48126 159.80815l4.001251 8.790909l2.5855408 -9.306183z" fill-rule="evenodd"></path><path fill="#000000" fill-opacity="0.0" d="m222.75238 153.27312c0 -10.148392 4.755905 -15.22197 9.51181 -20.296768c4.755905 -5.074806 9.51181 -10.1508255 9.51181 -20.301651" fill-rule="nonzero"></path><path stroke="#000000" stroke-width="2.0" stroke-linejoin="round" stroke-linecap="butt" d="m222.75238 153.27312c0 -10.148376 4.755905 -15.22197 9.51181 -20.296768c2.377945 -2.5373993 4.755905 -5.0751114 6.5393677 -8.247314c0.055740356 -0.09913635 0.11090088 -0.19889069 0.16543579 -0.29927826l0.041671753 -0.07804108" fill-rule="evenodd"></path><path fill="#000000" stroke="#000000" stroke-width="2.0" stroke-linecap="butt" d="m242.22522 125.11298l-1.1229858 -9.593178l-5.306122 8.070648z" fill-rule="evenodd"></path><path fill="#000000" fill-opacity="0.0" d="m299.63745 67.74955c0 10.069862 5.677185 15.104286 11.35434 20.139717c5.6771545 5.0354385 11.35434 10.071877 11.35434 20.143753" fill-rule="nonzero"></path><path stroke="#000000" stroke-width="2.0" stroke-linejoin="round" stroke-linecap="butt" d="m299.63748 67.74956c0 10.069855 5.6771545 15.104279 11.354309 20.139717c2.8385925 2.5177155 5.677185 5.035675 7.806122 8.183205c0.0664978 0.098358154 0.13235474 0.19734192 0.19747925 0.29694366l0.076416016 0.11894989" fill-rule="evenodd"></path><path fill="#000000" stroke="#000000" stroke-width="2.0" stroke-linecap="butt" d="m315.89368 97.389755l5.654663 7.8303986l0.7015686 -9.633171z" fill-rule="evenodd"></path><path fill="#000000" fill-opacity="0.0" d="m222.75238 174.49747c0 12.493805 4.755905 18.739594 9.51181 24.987625c4.755905 6.2480316 9.51181 12.498306 9.51181 24.996613" fill-rule="nonzero"></path><path stroke="#000000" stroke-width="2.0" stroke-linejoin="round" stroke-linecap="butt" d="m222.75238 174.49745c0 12.49382 4.755905 18.739609 9.51181 24.98764c2.377945 3.1240234 4.755905 6.248581 6.5393677 10.154449c0.22293091 0.4882202 0.43658447 0.988678 0.6397705 1.5028534c0.10159302 0.25709534 0.20057678 0.51760864 0.29681396 0.7817383c0.04812622 0.13206482 0.09553528 0.26504517 0.14225769 0.39897156l0.1000824 0.29338074" fill-rule="evenodd"></path><path fill="#000000" stroke="#000000" stroke-width="2.0" stroke-linecap="butt" d="m236.71613 213.11023l4.622879 8.480515l1.9098511 -9.467987z" fill-rule="evenodd"></path><path fill="#000000" fill-opacity="0.0" d="m322.33133 129.25357c0 10.565674 -8.417328 16.399063 -16.834656 21.131348c-8.417297 4.7322845 -16.834625 8.363464 -16.834625 16.726913" fill-rule="nonzero"></path><path stroke="#000000" stroke-width="2.0" stroke-linejoin="round" stroke-linecap="butt" d="m322.33133 129.25357c0 10.565674 -8.417328 16.399063 -16.834656 21.131348c-2.1043396 1.183075 -4.2086487 2.2973328 -6.1814575 3.4339142c-0.9864197 0.5682831 -1.9399414 1.1421509 -2.8441467 1.7330017c-0.4520874 0.29542542 -0.8918762 0.5950928 -1.3172607 0.90042114c-0.10635376 0.07633972 -0.21179199 0.1530304 -0.3163147 0.23008728l-0.104766846 0.078323364" fill-rule="evenodd"></path><path fill="#000000" stroke="#000000" stroke-width="2.0" stroke-linecap="butt" d="m291.88318 155.08948l-1.7420044 9.50029l7.4411316 -6.157898z" fill-rule="evenodd"></path><path fill="#000000" fill-opacity="0.0" d="m344.26834 129.25357c0 14.52713 5.6299133 22.341675 11.259857 29.054276c5.6299133 6.7126007 11.259827 12.323257 11.259827 24.646515" fill-rule="nonzero"></path><path stroke="#000000" stroke-width="2.0" stroke-linejoin="round" stroke-linecap="butt" d="m344.26834 129.25357c0 14.52713 5.6299133 22.341675 11.259827 29.054276c2.814972 3.3562927 5.6299133 6.4371033 7.74115 10.219269c0.26391602 0.47276306 0.5168152 0.95648193 0.7573242 1.4530792c0.12030029 0.24829102 0.23745728 0.49980164 0.3513794 0.754776c0.0569458 0.12748718 0.11306763 0.25582886 0.168396 0.3850708l0.01763916 0.04219055" fill-rule="evenodd"></path><path fill="#000000" stroke="#000000" stroke-width="2.0" stroke-linecap="butt" d="m361.31784 171.77446l4.928314 8.306747l1.564148 -9.531204z" fill-rule="evenodd"></path><path fill="#000000" fill-opacity="0.0" d="m299.63745 192.74025c0 12.051086 7.496063 18.078568 14.992126 24.102188c7.496063 6.0236206 14.992126 12.043396 14.992126 24.086777" fill-rule="nonzero"></path><path stroke="#000000" stroke-width="2.0" stroke-linejoin="round" stroke-linecap="butt" d="m299.63748 192.74023c0 12.051102 7.496063 18.078583 14.992126 24.102203c3.7480164 3.0118103 7.496063 6.0226593 10.307068 9.785965c0.3513794 0.47042847 0.68811035 0.95259094 1.0083923 1.447998c0.16012573 0.24771118 0.3161621 0.498703 0.46780396 0.75320435c0.07583618 0.1272583 0.15060425 0.2553711 0.22421265 0.38438416l0.04510498 0.080841064" fill-rule="evenodd"></path><path fill="#000000" stroke="#000000" stroke-width="2.0" stroke-linecap="butt" d="m323.47937 230.10403l5.4261475 7.9904633l0.9794922 -9.608902z" fill-rule="evenodd"></path><path fill="#cfe2f3" d="m325.08374 251.55708l0 0c0 -8.28862 6.9448853 -15.007874 15.51181 -15.007874l0 0c4.1140137 0 8.059479 1.5811768 10.968536 4.395706c2.909027 2.8145142 4.5433044 6.631836 4.5433044 10.612167l0 0c0 8.28862 -6.9448853 15.007889 -15.511841 15.007889l0 0c-8.566925 0 -15.51181 -6.719269 -15.51181 -15.007889z" fill-rule="nonzero"></path><path stroke="#000000" stroke-width="2.0" stroke-linejoin="round" stroke-linecap="butt" d="m325.08374 251.55708l0 0c0 -8.28862 6.9448853 -15.007874 15.51181 -15.007874l0 0c4.1140137 0 8.059479 1.5811768 10.968536 4.395706c2.909027 2.8145142 4.5433044 6.631836 4.5433044 10.612167l0 0c0 8.28862 -6.9448853 15.007889 -15.511841 15.007889l0 0c-8.566925 0 -15.51181 -6.719269 -15.51181 -15.007889z" fill-rule="nonzero"></path><path fill="#cfe2f3" d="m380.20886 247.16096l0 0c0 -8.28862 6.9448853 -15.007874 15.511841 -15.007874l0 0c4.113983 0 8.059448 1.5811768 10.968506 4.395706c2.909027 2.8145142 4.5433044 6.631836 4.5433044 10.612167l0 0c0 8.28862 -6.9448853 15.007858 -15.51181 15.007858l0 0c-8.566956 0 -15.511841 -6.7192383 -15.511841 -15.007858z" fill-rule="nonzero"></path><path stroke="#000000" stroke-width="2.0" stroke-linejoin="round" stroke-linecap="butt" d="m380.20886 247.16096l0 0c0 -8.28862 6.9448853 -15.007874 15.511841 -15.007874l0 0c4.113983 0 8.059448 1.5811768 10.968506 4.395706c2.909027 2.8145142 4.5433044 6.631836 4.5433044 10.612167l0 0c0 8.28862 -6.9448853 15.007858 -15.51181 15.007858l0 0c-8.566956 0 -15.511841 -6.7192383 -15.511841 -15.007858z" fill-rule="nonzero"></path><path fill="#cfe2f3" d="m351.2612 197.97432l0 0c0 -8.28862 6.9448853 -15.007874 15.51181 -15.007874l0 0c4.113983 0 8.059479 1.581192 10.968506 4.395706c2.909027 2.8145294 4.5433044 6.631836 4.5433044 10.612167l0 0c0 8.28862 -6.9448547 15.007874 -15.51181 15.007874l0 0c-8.566925 0 -15.51181 -6.7192535 -15.51181 -15.007874z" fill-rule="nonzero"></path><path stroke="#000000" stroke-width="2.0" stroke-linejoin="round" stroke-linecap="butt" d="m351.2612 197.97432l0 0c0 -8.28862 6.9448853 -15.007874 15.51181 -15.007874l0 0c4.113983 0 8.059479 1.581192 10.968506 4.395706c2.909027 2.8145294 4.5433044 6.631836 4.5433044 10.612167l0 0c0 8.28862 -6.9448547 15.007874 -15.51181 15.007874l0 0c-8.566925 0 -15.51181 -6.7192535 -15.51181 -15.007874z" fill-rule="nonzero"></path><path fill="#cfe2f3" d="m410.2831 163.88528l0 0c0 -8.28862 6.9448853 -15.007874 15.511841 -15.007874l0 0c4.113983 0 8.059448 1.581192 10.968506 4.395706c2.909027 2.8145294 4.5433044 6.631836 4.5433044 10.612167l0 0c0 8.28862 -6.9448853 15.007874 -15.51181 15.007874l0 0c-8.566956 0 -15.511841 -6.7192535 -15.511841 -15.007874z" fill-rule="nonzero"></path><path stroke="#000000" stroke-width="2.0" stroke-linejoin="round" stroke-linecap="butt" d="m410.2831 163.88528l0 0c0 -8.28862 6.9448853 -15.007874 15.511841 -15.007874l0 0c4.113983 0 8.059448 1.581192 10.968506 4.395706c2.909027 2.8145294 4.5433044 6.631836 4.5433044 10.612167l0 0c0 8.28862 -6.9448853 15.007874 -15.51181 15.007874l0 0c-8.566956 0 -15.511841 -6.7192535 -15.511841 -15.007874z" fill-rule="nonzero"></path><path fill="#cfe2f3" d="m469.93832 102.067154l0 0c0 -8.28862 6.9448853 -15.007874 15.51181 -15.007874l0 0c4.113983 0 8.059479 1.5811768 10.968506 4.3956985c2.909027 2.8145294 4.5433044 6.631836 4.5433044 10.612175l0 0c0 8.28862 -6.9448547 15.007874 -15.51181 15.007874l0 0c-8.566925 0 -15.51181 -6.7192535 -15.51181 -15.007874z" fill-rule="nonzero"></path><path stroke="#000000" stroke-width="2.0" stroke-linejoin="round" stroke-linecap="butt" d="m469.93832 102.067154l0 0c0 -8.28862 6.9448853 -15.007874 15.51181 -15.007874l0 0c4.113983 0 8.059479 1.5811768 10.968506 4.3956985c2.909027 2.8145294 4.5433044 6.631836 4.5433044 10.612175l0 0c0 8.28862 -6.9448547 15.007874 -15.51181 15.007874l0 0c-8.566925 0 -15.51181 -6.7192535 -15.51181 -15.007874z" fill-rule="nonzero"></path><path fill="#cfe2f3" d="m469.93832 195.41417l0 0c0 -8.28862 6.9448853 -15.007874 15.51181 -15.007874l0 0c4.113983 0 8.059479 1.5811768 10.968506 4.395691c2.909027 2.8145294 4.5433044 6.631836 4.5433044 10.612183l0 0c0 8.28862 -6.9448547 15.007874 -15.51181 15.007874l0 0c-8.566925 0 -15.51181 -6.7192535 -15.51181 -15.007874z" fill-rule="nonzero"></path><path stroke="#000000" stroke-width="2.0" stroke-linejoin="round" stroke-linecap="butt" d="m469.93832 195.41417l0 0c0 -8.28862 6.9448853 -15.007874 15.51181 -15.007874l0 0c4.113983 0 8.059479 1.5811768 10.968506 4.395691c2.909027 2.8145294 4.5433044 6.631836 4.5433044 10.612183l0 0c0 8.28862 -6.9448547 15.007874 -15.51181 15.007874l0 0c-8.566925 0 -15.51181 -6.7192535 -15.51181 -15.007874z" fill-rule="nonzero"></path><path fill="#cfe2f3" d="m461.82443 262.3978l0 0c0 -8.28862 6.9448853 -15.007874 15.51181 -15.007874l0 0c4.1140137 0 8.059479 1.5811768 10.968506 4.395706c2.9090576 2.8145294 4.5433044 6.6318207 4.5433044 10.612167l0 0c0 8.288635 -6.9448547 15.007874 -15.51181 15.007874l0 0c-8.566925 0 -15.51181 -6.7192383 -15.51181 -15.007874z" fill-rule="nonzero"></path><path stroke="#000000" stroke-width="2.0" stroke-linejoin="round" stroke-linecap="butt" d="m461.82443 262.3978l0 0c0 -8.28862 6.9448853 -15.007874 15.51181 -15.007874l0 0c4.1140137 0 8.059479 1.5811768 10.968506 4.395706c2.9090576 2.8145294 4.5433044 6.6318207 4.5433044 10.612167l0 0c0 8.288635 -6.9448547 15.007874 -15.51181 15.007874l0 0c-8.566925 0 -15.51181 -6.7192383 -15.51181 -15.007874z" fill-rule="nonzero"></path><path fill="#cfe2f3" d="m398.33014 102.067154l0 0c0 -8.28862 6.9448547 -15.007874 15.51181 -15.007874l0 0c4.113983 0 8.059479 1.5811768 10.968506 4.3956985c2.909027 2.8145294 4.5433044 6.631836 4.5433044 10.612175l0 0c0 8.28862 -6.9448853 15.007874 -15.51181 15.007874l0 0c-8.566956 0 -15.51181 -6.7192535 -15.51181 -15.007874z" fill-rule="nonzero"></path><path stroke="#000000" stroke-width="2.0" stroke-linejoin="round" stroke-linecap="butt" d="m398.33014 102.067154l0 0c0 -8.28862 6.9448547 -15.007874 15.51181 -15.007874l0 0c4.113983 0 8.059479 1.5811768 10.968506 4.3956985c2.909027 2.8145294 4.5433044 6.631836 4.5433044 10.612175l0 0c0 8.28862 -6.9448853 15.007874 -15.51181 15.007874l0 0c-8.566956 0 -15.51181 -6.7192535 -15.51181 -15.007874z" fill-rule="nonzero"></path><path fill="#cfe2f3" d="m513.7511 154.81467l0 0c0 -8.28862 6.944824 -15.007874 15.51178 -15.007874l0 0c4.1140137 0 8.059509 1.581192 10.968506 4.395706c2.9090576 2.8145294 4.543335 6.631836 4.543335 10.612167l0 0c0 8.28862 -6.9448853 15.007874 -15.511841 15.007874l0 0c-8.566956 0 -15.51178 -6.7192535 -15.51178 -15.007874z" fill-rule="nonzero"></path><path stroke="#000000" stroke-width="2.0" stroke-linejoin="round" stroke-linecap="butt" d="m513.7511 154.81467l0 0c0 -8.28862 6.944824 -15.007874 15.51178 -15.007874l0 0c4.1140137 0 8.059509 1.581192 10.968506 4.395706c2.9090576 2.8145294 4.543335 6.631836 4.543335 10.612167l0 0c0 8.28862 -6.9448853 15.007874 -15.511841 15.007874l0 0c-8.566956 0 -15.51178 -6.7192535 -15.51178 -15.007874z" fill-rule="nonzero"></path><path fill="#cfe2f3" d="m451.68076 38.685814l0 0c0 -8.288618 6.9448547 -15.007872 15.51181 -15.007872l0 0c4.113983 0 8.059479 1.5811825 10.968506 4.3957043c2.909027 2.8145218 4.5433044 6.631832 4.5433044 10.612167l0 0c0 8.28862 -6.9448853 15.007877 -15.51181 15.007877l0 0c-8.566956 0 -15.51181 -6.7192574 -15.51181 -15.007877z" fill-rule="nonzero"></path><path stroke="#000000" stroke-width="2.0" stroke-linejoin="round" stroke-linecap="butt" d="m451.68076 38.685814l0 0c0 -8.288618 6.9448547 -15.007872 15.51181 -15.007872l0 0c4.113983 0 8.059479 1.5811825 10.968506 4.3957043c2.909027 2.8145218 4.5433044 6.631832 4.5433044 10.612167l0 0c0 8.28862 -6.9448853 15.007877 -15.51181 15.007877l0 0c-8.566956 0 -15.51181 -6.7192574 -15.51181 -15.007877z" fill-rule="nonzero"></path><path fill="#cfe2f3" d="m551.56213 242.48836l0 0c0 -8.28862 6.9448853 -15.007889 15.511841 -15.007889l0 0c4.1139526 0 8.059448 1.581192 10.968506 4.395706c2.9089966 2.8145294 4.543274 6.631836 4.543274 10.612183l0 0c0 8.28862 -6.9448853 15.007858 -15.51178 15.007858l0 0c-8.566956 0 -15.511841 -6.7192383 -15.511841 -15.007858z" fill-rule="nonzero"></path><path stroke="#000000" stroke-width="2.0" stroke-linejoin="round" stroke-linecap="butt" d="m551.56213 242.48836l0 0c0 -8.28862 6.9448853 -15.007889 15.511841 -15.007889l0 0c4.1139526 0 8.059448 1.581192 10.968506 4.395706c2.9089966 2.8145294 4.543274 6.631836 4.543274 10.612183l0 0c0 8.28862 -6.9448853 15.007858 -15.51178 15.007858l0 0c-8.566956 0 -15.511841 -6.7192383 -15.511841 -15.007858z" fill-rule="nonzero"></path><path fill="#cfe2f3" d="m549.56525 68.70796l0 0c0 -8.28862 6.9448853 -15.007874 15.511841 -15.007874l0 0c4.1139526 0 8.059448 1.5811806 10.968506 4.3957024c2.9089966 2.8145218 4.543274 6.631832 4.543274 10.612171l0 0c0 8.28862 -6.9448853 15.007874 -15.51178 15.007874l0 0c-8.566956 0 -15.511841 -6.7192535 -15.511841 -15.007874z" fill-rule="nonzero"></path><path stroke="#000000" stroke-width="2.0" stroke-linejoin="round" stroke-linecap="butt" d="m549.56525 68.70796l0 0c0 -8.28862 6.9448853 -15.007874 15.511841 -15.007874l0 0c4.1139526 0 8.059448 1.5811806 10.968506 4.3957024c2.9089966 2.8145218 4.543274 6.631832 4.543274 10.612171l0 0c0 8.28862 -6.9448853 15.007874 -15.51178 15.007874l0 0c-8.566956 0 -15.511841 -6.7192535 -15.511841 -15.007874z" fill-rule="nonzero"></path><path fill="#000000" fill-opacity="0.0" d="m351.5641 262.16925c0 2.9302063 4.826294 6.471283 8.297089 5.8604126c3.4707642 -0.61087036 5.586029 -5.3737183 8.297089 -10.442017c2.711029 -5.068283 6.017853 -10.442017 12.035736 -10.442017" fill-rule="nonzero"></path><path stroke="#000000" stroke-width="2.0" stroke-linejoin="round" stroke-linecap="butt" d="m351.56406 262.16925c0 2.9302063 4.8263245 6.471283 8.297119 5.8604126c3.4707642 -0.61087036 5.586029 -5.3737183 8.297089 -10.442017c0.3388672 -0.6335449 0.68704224 -1.2718506 1.0486755 -1.9038391c0.18081665 -0.315979 0.36499023 -0.63041687 0.55307007 -0.941864c0.09402466 -0.15571594 0.18902588 -0.31069946 0.2850647 -0.46476746l0.2348938 -0.37045288" fill-rule="evenodd"></path><path fill="#000000" stroke="#000000" stroke-width="2.0" stroke-linecap="butt" d="m372.14124 256.63593l5.637207 -7.8429565l-9.359711 2.3845367z" fill-rule="evenodd"></path><path fill="#000000" fill-opacity="0.0" d="m377.74152 208.58649c0 6.99057 4.496063 11.03624 8.992126 13.981125c4.496063 2.9448853 8.992126 4.788971 8.992126 9.577942" fill-rule="nonzero"></path><path stroke="#000000" stroke-width="2.0" stroke-linejoin="round" stroke-linecap="butt" d="m377.74152 208.58649c0 6.99057 4.496063 11.03624 8.992126 13.981125c0.28100586 0.18405151 0.5620117 0.36380005 0.8418884 0.5402527l0.15011597 0.0934906" fill-rule="evenodd"></path><path fill="#000000" stroke="#000000" stroke-width="2.0" stroke-linecap="butt" d="m385.26343 225.4037l8.513092 4.5625916l-3.588623 -8.96727z" fill-rule="evenodd"></path><path fill="#000000" fill-opacity="0.0" d="m377.74152 187.36215c0 -3.2161865 9.267731 -4.8260956 18.53543 -6.4323883c9.267731 -1.606308 18.53543 -3.2089996 18.53543 -6.4179993" fill-rule="nonzero"></path><path stroke="#000000" stroke-width="2.0" stroke-linejoin="round" stroke-linecap="butt" d="m377.74152 187.36217c0 -3.216217 9.2677 -4.8260956 18.53543 -6.4324036c2.316925 -0.40156555 4.63385 -0.8029175 6.805969 -1.2292023c0.2715454 -0.05329895 0.5407715 -0.10694885 0.8074646 -0.16107178l0.023773193 -0.0048980713" fill-rule="evenodd"></path><path fill="#000000" stroke="#000000" stroke-width="2.0" stroke-linecap="butt" d="m405.29688 182.53474l6.860138 -6.799164l-9.62558 0.7988434z" fill-rule="evenodd"></path><path fill="#000000" fill-opacity="0.0" d="m388.89926 63.893333c0 6.890465 6.236206 10.883293 12.472443 13.780937c6.236206 2.8976364 12.472443 4.700081 12.472443 9.400169" fill-rule="nonzero"></path><path stroke="#000000" stroke-width="2.0" stroke-linejoin="round" stroke-linecap="butt" d="m388.89923 63.893337c0 6.8904686 6.2362366 10.883297 12.472443 13.780933c0.779541 0.3622055 1.5590515 0.7072983 2.326416 1.0430756l1.0951233 0.47792053" fill-rule="evenodd"></path><path fill="#000000" stroke="#000000" stroke-width="2.0" stroke-linecap="butt" d="m402.62418 81.686874l9.014679 3.4677963l-4.6765747 -8.451012z" fill-rule="evenodd"></path><path fill="#000000" fill-opacity="0.0" d="m388.89926 42.668995c0 -1.9842529 31.385803 -3.968502 62.771637 -3.968502" fill-rule="nonzero"></path><path stroke="#000000" stroke-width="2.0" stroke-linejoin="round" stroke-linecap="butt" d="m388.89923 42.668995c0 -0.99212265 7.846466 -1.9842491 19.61615 -2.728344c5.8848267 -0.37204742 12.750488 -0.68208694 20.106537 -0.8991165c1.8390503 -0.05425644 3.7086792 -0.10269928 5.601349 -0.14484406c0.9463196 -0.021076202 1.8983765 -0.04057312 2.8552246 -0.058437347l2.5927734 -0.043712616" fill-rule="evenodd"></path><path fill="#000000" stroke="#000000" stroke-width="2.0" stroke-linecap="butt" d="m439.69714 42.097904l9.050018 -3.3744965l-9.101807 -3.2322311z" fill-rule="evenodd"></path><path fill="#000000" fill-opacity="0.0" d="m467.19257 53.69369c0 8.34145 1.8188782 11.962429 3.6377869 16.682903c1.8189087 4.7204742 3.6377869 10.540436 3.6377869 21.080872" fill-rule="nonzero"></path><path stroke="#000000" stroke-width="2.0" stroke-linejoin="round" stroke-linecap="butt" d="m467.19254 53.693687c0 8.341454 1.8189087 11.962433 3.6378174 16.682907c0.9094238 2.3602371 1.8188782 4.995346 2.5009766 8.357948c0.04260254 0.21016693 0.084350586 0.42316437 0.12515259 0.639122l0.02267456 0.12462616" fill-rule="evenodd"></path><path fill="#000000" stroke="#000000" stroke-width="2.0" stroke-linecap="butt" d="m470.18695 79.770546l4.040222 8.773071l2.54422 -9.317574z" fill-rule="evenodd"></path><path fill="#000000" fill-opacity="0.0" d="m441.30676 163.88528c16.582672 0 33.165344 -25.606293 33.165344 -51.212593" fill-rule="nonzero"></path><path stroke="#000000" stroke-width="2.0" stroke-linejoin="round" stroke-linecap="butt" d="m441.30676 163.8853c8.291321 0 16.582672 -6.401581 22.801178 -16.003937c3.109253 -4.801193 5.700287 -10.402573 7.514038 -16.404037c0.45339966 -1.5003662 0.85824585 -3.0257416 1.2104797 -4.5698776c0.08807373 -0.3860321 0.17282104 -0.77323914 0.25424194 -1.1615219c0.04071045 -0.19412994 0.080566406 -0.38854218 0.11956787 -0.5832062l0.10696411 -0.5461197" fill-rule="evenodd"></path><path fill="#000000" stroke="#000000" stroke-width="2.0" stroke-linecap="butt" d="m476.6013 124.93563l-2.4115295 -9.352798l-4.1645203 8.714752z" fill-rule="evenodd"></path><path fill="#000000" fill-opacity="0.0" d="m436.76346 174.49747c0 2.5761414 9.433044 3.8648834 18.86612 5.1522827c9.433075 1.2873993 18.86615 2.5734558 18.86615 5.146927" fill-rule="nonzero"></path><path stroke="#000000" stroke-width="2.0" stroke-linejoin="round" stroke-linecap="butt" d="m436.76346 174.49745c0 2.5761414 9.433075 3.8648987 18.86615 5.152298c2.3582458 0.32185364 4.716522 0.6436157 6.9273987 0.9854431l0.6463623 0.10157776" fill-rule="evenodd"></path><path fill="#000000" stroke="#000000" stroke-width="2.0" stroke-linecap="butt" d="m462.08572 183.84543l9.65863 -0.03794861l-7.4233093 -6.179367z" fill-rule="evenodd"></path><path fill="#000000" fill-opacity="0.0" d="m496.41864 112.67932c0 7.8807907 8.212616 12.371826 16.425232 15.761581c8.212585 3.3897705 16.42517 5.6782684 16.42517 11.356522" fill-rule="nonzero"></path><path stroke="#000000" stroke-width="2.0" stroke-linejoin="round" stroke-linecap="butt" d="m496.41864 112.67932c0 7.8807907 8.212585 12.371826 16.42517 15.761597c2.0531616 0.8474426 4.1063232 1.6260529 6.031128 2.4060059c0.4812622 0.19499207 0.95440674 0.39006042 1.4176025 0.5863037l0.26324463 0.113204956" fill-rule="evenodd"></path><path fill="#000000" stroke="#000000" stroke-width="2.0" stroke-linecap="butt" d="m518.28436 133.9451l8.861694 3.8419647l-4.3189087 -8.6392975z" fill-rule="evenodd"></path><path fill="#000000" fill-opacity="0.0" d="m496.41864 91.45498c0 -3.0337372 14.425201 -4.5517273 28.850403 -6.0674744c14.425171 -1.5157471 28.850403 -3.029251 28.850403 -6.05851" fill-rule="nonzero"></path><path stroke="#000000" stroke-width="2.0" stroke-linejoin="round" stroke-linecap="butt" d="m496.41864 91.45498c0 -3.0337372 14.425201 -4.5517197 28.850403 -6.0674744c3.6062622 -0.37893677 7.2125854 -0.7577362 10.593506 -1.1601105c1.6904297 -0.20118713 3.324524 -0.4082718 4.8741455 -0.6242142c0.38739014 -0.053985596 0.7694702 -0.10852051 1.145874 -0.16365814l0.91363525 -0.13748169" fill-rule="evenodd"></path><path fill="#000000" stroke="#000000" stroke-width="2.0" stroke-linecap="butt" d="m543.88995 86.41919l7.470581 -6.122162l-9.65802 -0.11214447z" fill-rule="evenodd"></path><path fill="#000000" fill-opacity="0.0" d="m529.2629 169.82254c0 14.414444 9.456726 21.620224 18.913391 28.828888c9.456726 7.208664 18.913391 14.420197 18.913391 28.840408" fill-rule="nonzero"></path><path stroke="#000000" stroke-width="2.0" stroke-linejoin="round" stroke-linecap="butt" d="m529.2629 169.82254c0 14.414444 9.456665 21.620224 18.913391 28.828888c4.7283325 3.6043396 9.456665 7.209381 13.00293 11.715881c0.8865967 1.1266174 1.6992188 2.3095856 2.4196167 3.5629578c0.18005371 0.31333923 0.35437012 0.63108826 0.52264404 0.95344543c0.084106445 0.16119385 0.16674805 0.3235321 0.24780273 0.4870453l0.18878174 0.39117432" fill-rule="evenodd"></path><path fill="#000000" stroke="#000000" stroke-width="2.0" stroke-linecap="butt" d="m561.3289 216.45885l5.143921 8.174988l1.314331 -9.568832z" fill-rule="evenodd"></path><path fill="#000000" fill-opacity="0.0" d="m485.45013 210.42204c0 9.241867 -2.0314941 13.861694 -4.0629883 18.48375c-2.0314941 4.62204 -4.0629883 9.246307 -4.0629883 18.492615" fill-rule="nonzero"></path><path stroke="#000000" stroke-width="2.0" stroke-linejoin="round" stroke-linecap="butt" d="m485.45013 210.42204c0 9.241882 -2.0314941 13.861694 -4.0629883 18.483734c-0.50787354 1.1555176 -1.0157471 2.3111725 -1.4918823 3.5391388c-0.23806763 0.6139984 -0.46817017 1.246048 -0.6864319 1.9052277c-0.10910034 0.32958984 -0.21524048 0.6659546 -0.31793213 1.0102234l-0.039276123 0.13565063" fill-rule="evenodd"></path><path fill="#000000" stroke="#000000" stroke-width="2.0" stroke-linecap="butt" d="m475.57504 235.07553l2.1212769 9.422867l4.431885 -8.581863z" fill-rule="evenodd"></path><path fill="#000000" fill-opacity="0.0" d="m406.6892 236.5488c0 -15.512756 4.7795105 -23.816849 9.5590515 -31.025513c4.7795105 -7.2086487 9.5590515 -13.321884 9.5590515 -26.643784" fill-rule="nonzero"></path><path stroke="#000000" stroke-width="2.0" stroke-linejoin="round" stroke-linecap="butt" d="m406.68918 236.5488c0 -15.512756 4.779541 -23.816849 9.5590515 -31.025497c2.3897705 -3.6043396 4.779541 -6.934799 6.571869 -11.029434c0.44805908 -1.0236664 0.85879517 -2.0950775 1.2228699 -3.2304688c0.045532227 -0.141922 0.090270996 -0.28485107 0.13430786 -0.42881775l0.019042969 -0.063705444" fill-rule="evenodd"></path><path fill="#000000" stroke="#000000" stroke-width="2.0" stroke-linecap="butt" d="m427.46988 191.21437l-2.0551147 -9.437515l-4.4920044 8.550537z" fill-rule="evenodd"></path><path fill="#000000" fill-opacity="0.0" d="m348.81165 118.6414c27.02362 0 54.04724 -2.9763794 54.04724 -5.952759" fill-rule="nonzero"></path><path stroke="#000000" stroke-width="2.0" stroke-linejoin="round" stroke-linecap="butt" d="m348.81165 118.6414c13.51181 0 27.02362 -0.74409485 37.15747 -1.8602371c1.2667236 -0.13951874 2.4806824 -0.28484344 3.635254 -0.4352646c0.577301 -0.07521057 1.1397095 -0.15168762 1.6865234 -0.22934723l0.06518555 -0.009475708" fill-rule="evenodd"></path><path fill="#000000" stroke="#000000" stroke-width="2.0" stroke-linecap="butt" d="m392.29715 119.273674l7.7590637 -5.752121l-9.641174 -0.5810623z" fill-rule="evenodd"></path><path fill="#000000" fill-opacity="0.0" d="m344.26834 108.02923c0 -11.03392 5.6771545 -16.552094 11.35434 -22.06784c5.6771545 -5.515747 11.35434 -11.029068 11.35434 -22.05814" fill-rule="nonzero"></path><path stroke="#000000" stroke-width="2.0" stroke-linejoin="round" stroke-linecap="butt" d="m344.26834 108.02923c0 -11.03392 5.6771545 -16.552094 11.354309 -22.067848c2.8385925 -2.7578735 5.677185 -5.5151367 7.806122 -8.961571c0.26611328 -0.4308014 0.5211487 -0.8723755 0.7637024 -1.3260651l0.045715332 -0.08721924" fill-rule="evenodd"></path><path fill="#000000" stroke="#000000" stroke-width="2.0" stroke-linecap="butt" d="m367.45447 76.340485l-1.1447754 -9.590607l-5.287781 8.08268z" fill-rule="evenodd"></path><path fill="#cfe2f3" d="m362.41895 53.281166l0 0c0 -8.28862 6.9448547 -15.007874 15.51181 -15.007874l0 0c4.113983 0 8.059479 1.5811806 10.968506 4.3957024c2.909027 2.8145218 4.5433044 6.631836 4.5433044 10.612171l0 0c0 8.28862 -6.9448853 15.007874 -15.51181 15.007874l0 0c-8.566956 0 -15.51181 -6.7192535 -15.51181 -15.007874z" fill-rule="nonzero"></path><path stroke="#000000" stroke-width="2.0" stroke-linejoin="round" stroke-linecap="butt" d="m362.41895 53.281166l0 0c0 -8.28862 6.9448547 -15.007874 15.51181 -15.007874l0 0c4.113983 0 8.059479 1.5811806 10.968506 4.3957024c2.909027 2.8145218 4.5433044 6.631836 4.5433044 10.612171l0 0c0 8.28862 -6.9448853 15.007874 -15.51181 15.007874l0 0c-8.566956 0 -15.51181 -6.7192535 -15.51181 -15.007874z" fill-rule="nonzero"></path><path fill="#000000" fill-opacity="0.0" d="m355.76453 4.349858l137.07086 0l0 71.40157l-137.07086 0z" fill-rule="nonzero"></path><path stroke="#00ff00" stroke-width="3.0" stroke-linejoin="round" stroke-linecap="butt" d="m355.76453 4.349858l137.07086 0l0 71.40157l-137.07086 0z" fill-rule="nonzero"></path><path fill="#cfe2f3" d="m61.75009 346.08966l0 0c0 -4.3168945 3.4995346 -7.8164062 7.816429 -7.8164062l45.028557 0c2.0730515 0 4.0611877 0.8234863 5.527054 2.2893677c1.4658661 1.4658508 2.2893753 3.45401 2.2893753 5.5270386l0 31.264801c0 4.3168945 -3.4995346 7.8164062 -7.816429 7.8164062l-45.028557 0l0 0c-4.3168945 0 -7.816429 -3.4995117 -7.816429 -7.8164062z" fill-rule="nonzero"></path><path stroke="#000000" stroke-width="2.0" stroke-linejoin="round" stroke-linecap="butt" d="m61.75009 346.08966l0 0c0 -4.3168945 3.4995346 -7.8164062 7.816429 -7.8164062l45.028557 0c2.0730515 0 4.0611877 0.8234863 5.527054 2.2893677c1.4658661 1.4658508 2.2893753 3.45401 2.2893753 5.5270386l0 31.264801c0 4.3168945 -3.4995346 7.8164062 -7.816429 7.8164062l-45.028557 0l0 0c-4.3168945 0 -7.816429 -3.4995117 -7.816429 -7.8164062z" fill-rule="nonzero"></path><path fill="#000000" d="m87.674194 361.93893q0 -2.421875 0.5 -3.890625q0.5 -1.46875 1.46875 -2.265625q0.984375 -0.796875 2.46875 -0.796875q1.09375 0 1.921875 0.4375q0.828125 0.4375 1.359375 1.28125q0.546875 0.828125 0.84375 2.015625q0.3125 1.1875 0.3125 3.21875q0 2.390625 -0.5 3.859375q-0.484375 1.46875 -1.46875 2.28125q-0.96875 0.796875 -2.46875 0.796875q-1.96875 0 -3.078125 -1.40625q-1.359375 -1.703125 -1.359375 -5.53125zm1.71875 0q0 3.34375 0.78125 4.453125q0.796875 1.109375 1.9375 1.109375q1.15625 0 1.9375 -1.109375q0.78125 -1.125 0.78125 -4.453125q0 -3.359375 -0.78125 -4.46875q-0.78125 -1.109375 -1.953125 -1.109375q-1.15625 0 -1.828125 0.984375q-0.875 1.234375 -0.875 4.59375z" fill-rule="nonzero"></path><path fill="#cfe2f3" d="m132.0283 414.774l0 0c0 -4.3168945 3.499527 -7.8164062 7.8164215 -7.8164062l45.028564 0c2.0730438 0 4.0611725 0.82351685 5.5270386 2.2893677c1.4658661 1.4658813 2.289383 3.45401 2.289383 5.5270386l0 31.264801c0 4.3168945 -3.499527 7.816437 -7.8164215 7.816437l-45.028564 0l0 0c-4.3168945 0 -7.8164215 -3.4995422 -7.8164215 -7.816437z" fill-rule="nonzero"></path><path stroke="#000000" stroke-width="2.0" stroke-linejoin="round" stroke-linecap="butt" d="m132.0283 414.774l0 0c0 -4.3168945 3.499527 -7.8164062 7.8164215 -7.8164062l45.028564 0c2.0730438 0 4.0611725 0.82351685 5.5270386 2.2893677c1.4658661 1.4658813 2.289383 3.45401 2.289383 5.5270386l0 31.264801c0 4.3168945 -3.499527 7.816437 -7.8164215 7.816437l-45.028564 0l0 0c-4.3168945 0 -7.8164215 -3.4995422 -7.8164215 -7.816437z" fill-rule="nonzero"></path><path fill="#000000" d="m164.24927 437.3264l-1.671875 0l0 -10.640625q-0.59375 0.578125 -1.578125 1.15625q-0.984375 0.5625 -1.765625 0.859375l0 -1.625q1.40625 -0.65625 2.453125 -1.59375q1.046875 -0.9375 1.484375 -1.8125l1.078125 0l0 13.65625z" fill-rule="nonzero"></path><path fill="#000000" fill-opacity="0.0" d="m122.41151 361.72205c19.968513 0 39.937004 22.614197 39.937004 45.228363" fill-rule="nonzero"></path><path stroke="#ff0000" stroke-width="2.0" stroke-linejoin="round" stroke-linecap="butt" d="m122.41151 361.72208c9.984261 0 19.968513 5.653534 27.456703 14.13385c3.7440796 4.2401733 6.8641663 9.187012 9.048218 14.487213c0.5460205 1.3250427 1.0335236 2.6722107 1.4576721 4.0358887c0.053009033 0.17044067 0.105041504 0.341156 0.1560669 0.5121155l0.055343628 0.18948364" fill-rule="evenodd"></path><path fill="#ff0000" stroke="#ff0000" stroke-width="2.0" stroke-linecap="butt" d="m157.3179 395.56598l4.601059 8.492371l1.9341736 -9.463043z" fill-rule="evenodd"></path><path fill="#000000" fill-opacity="0.0" d="m132.0283 430.4064c-19.968513 0 -39.93701 -22.614197 -39.93701 -45.228363" fill-rule="nonzero"></path><path stroke="#000000" stroke-width="2.0" stroke-linejoin="round" stroke-linecap="butt" d="m132.02829 430.40637c-9.984245 0 -19.968498 -5.653534 -27.456688 -14.13385c-3.7440948 -4.2401733 -6.864174 -9.187012 -9.048225 -14.487213c-0.5460129 -1.3250427 -1.0335236 -2.6722107 -1.4576569 -4.0358887c-0.053024292 -0.17044067 -0.10504913 -0.341156 -0.15607452 -0.512146l-0.055358887 -0.18945312" fill-rule="evenodd"></path><path fill="#000000" stroke="#000000" stroke-width="2.0" stroke-linecap="butt" d="m97.1219 396.56247l-4.601059 -8.492371l-1.9341736 9.463043z" fill-rule="evenodd"></path><path fill="#000000" fill-opacity="0.0" d="m146.8157 333.352l120.346466 0l0 48.188965l-120.346466 0z" fill-rule="nonzero"></path><path fill="#ff0000" d="m165.7532 361.1576l2.0625 0.21875q-0.4375 1.53125 -2.046875 2.921875q-1.59375 1.375 -3.8125 1.375q-1.375 0 -2.53125 -0.640625q-1.15625 -0.640625 -1.765625 -1.859375q-0.59375 -1.21875 -0.59375 -2.78125q0 -2.03125 0.9375 -3.9375q0.9375 -1.921875 2.4375 -2.859375q1.5 -0.9375 3.25 -0.9375q2.234375 0 3.5625 1.390625q1.328125 1.375 1.328125 3.765625q0 0.921875 -0.171875 1.875l-9.15625 0q-0.046875 0.375 -0.046875 0.65625q0 1.75 0.796875 2.671875q0.8125 0.921875 1.96875 0.921875q1.09375 0 2.140625 -0.71875q1.0625 -0.71875 1.640625 -2.0625zm-6.15625 -3.078125l6.984375 0q0 -0.328125 0 -0.46875q0 -1.59375 -0.796875 -2.4375q-0.796875 -0.859375 -2.046875 -0.859375q-1.359375 0 -2.484375 0.9375q-1.109375 0.9375 -1.65625 2.828125z" fill-rule="nonzero"></path><path fill="#ff0000" d="m169.83524 368.73572q0 -2.03125 0.40625 -3.265625q0.421875 -1.234375 1.25 -1.90625q0.828125 -0.671875 2.078125 -0.671875q0.921875 0 1.609375 0.375q0.703125 0.359375 1.15625 1.0625q0.453125 0.703125 0.703125 1.703125q0.265625 1.0 0.265625 2.703125q0 2.015625 -0.421875 3.265625q-0.40625 1.234375 -1.234375 1.921875q-0.828125 0.671875 -2.078125 0.671875q-1.65625 0 -2.609375 -1.203125q-1.125 -1.421875 -1.125 -4.65625zm1.4375 0q0 2.828125 0.65625 3.765625q0.671875 0.921875 1.640625 0.921875q0.96875 0 1.625 -0.9375q0.65625 -0.9375 0.65625 -3.75q0 -2.828125 -0.65625 -3.75q-0.65625 -0.9375 -1.640625 -0.9375q-0.96875 0 -1.546875 0.828125q-0.734375 1.046875 -0.734375 3.859375z" fill-rule="nonzero"></path><path fill="#ff0000" d="m179.6868 370.1576l0 -21.953125l4.65625 0l0 1.75l-2.546875 0l0 18.46875l2.546875 0l0 1.734375l-4.65625 0z" fill-rule="nonzero"></path><path fill="#ff0000" d="m184.69852 365.39197l5.40625 -6.3125l-3.09375 -6.140625l2.34375 0l1.046875 2.21875q0.59375 1.25 1.0625 2.375l3.578125 -4.59375l2.59375 0l-5.234375 6.296875l3.140625 6.15625l-2.34375 0l-1.234375 -2.53125q-0.40625 -0.8125 -0.90625 -2.0l-3.703125 4.53125l-2.65625 0z" fill-rule="nonzero"></path><path fill="#ff0000" d="m201.83914 370.1576l-4.65625 0l0 -1.734375l2.546875 0l0 -18.46875l-2.546875 0l0 -1.75l4.65625 0l0 21.953125z" fill-rule="nonzero"></path><path fill="#000000" fill-opacity="0.0" d="m34.920696 406.95828l85.102356 0l0 44.125977l-85.102356 0z" fill-rule="nonzero"></path><path fill="#000000" d="m53.858196 433.3269l2.0625 0.21875q-0.4375 1.53125 -2.046875 2.921875q-1.59375 1.375 -3.8125 1.375q-1.375 0 -2.53125 -0.640625q-1.15625 -0.640625 -1.765625 -1.859375q-0.59375 -1.21875 -0.59375 -2.78125q0 -2.03125 0.9375 -3.9375q0.9375 -1.921875 2.4375 -2.859375q1.5 -0.9375 3.25 -0.9375q2.234375 0 3.5625 1.390625q1.328125 1.375 1.328125 3.765625q0 0.921875 -0.171875 1.875l-9.15625 0q-0.046875 0.375 -0.046875 0.65625q0 1.75 0.796875 2.671875q0.8125 0.921875 1.96875 0.921875q1.09375 0 2.140625 -0.71875q1.0625 -0.71875 1.640625 -2.0625zm-6.15625 -3.078125l6.984375 0q0 -0.328125 0 -0.46875q0 -1.59375 -0.796875 -2.4375q-0.796875 -0.859375 -2.046875 -0.859375q-1.359375 0 -2.484375 0.9375q-1.109375 0.9375 -1.65625 2.828125z" fill-rule="nonzero"></path><path fill="#000000" d="m63.237103 446.56128l-1.40625 0l0 -8.96875q-0.515625 0.484375 -1.34375 0.96875q-0.8125 0.484375 -1.46875 0.734375l0 -1.359375q1.171875 -0.5625 2.046875 -1.34375q0.890625 -0.796875 1.265625 -1.53125l0.90625 0l0 11.5z" fill-rule="nonzero"></path><path fill="#000000" d="m67.791794 442.3269l0 -21.953125l4.65625 0l0 1.75l-2.546875 0l0 18.46875l2.546875 0l0 1.734375l-4.65625 0zm17.730469 -9.734375l-2.0 0l0 -5.140625l-9.34375 0l0 -1.96875l11.34375 0l0 7.109375z" fill-rule="nonzero"></path><path fill="#000000" d="m86.81914 437.56128l5.40625 -6.3125l-3.09375 -6.140625l2.34375 0l1.046875 2.21875q0.59375 1.25 1.0625 2.375l3.578125 -4.59375l2.59375 0l-5.234375 6.296875l3.140625 6.15625l-2.34375 0l-1.234375 -2.53125q-0.40625 -0.8125 -0.90625 -2.0l-3.703125 4.53125l-2.65625 0z" fill-rule="nonzero"></path><path fill="#000000" d="m103.95976 442.3269l-4.65625 0l0 -1.734375l2.546875 0l0 -18.46875l-2.546875 0l0 -1.75l4.65625 0l0 21.953125z" fill-rule="nonzero"></path><path fill="#cfe2f3" d="m440.2094 347.52094l0 0c0 -4.3168945 3.4995422 -7.816437 7.816437 -7.816437l45.028564 0c2.0730286 0 4.061157 0.82351685 5.5270386 2.2893677c1.4658508 1.4658813 2.2893677 3.45401 2.2893677 5.527069l0 31.26477c0 4.3168945 -3.4995117 7.816437 -7.8164062 7.816437l-45.028564 0l0 0c-4.3168945 0 -7.816437 -3.4995422 -7.816437 -7.816437z" fill-rule="nonzero"></path><path stroke="#000000" stroke-width="2.0" stroke-linejoin="round" stroke-linecap="butt" d="m440.2094 347.52094l0 0c0 -4.3168945 3.4995422 -7.816437 7.816437 -7.816437l45.028564 0c2.0730286 0 4.061157 0.82351685 5.5270386 2.2893677c1.4658508 1.4658813 2.2893677 3.45401 2.2893677 5.527069l0 31.26477c0 4.3168945 -3.4995117 7.816437 -7.8164062 7.816437l-45.028564 0l0 0c-4.3168945 0 -7.816437 -3.4995422 -7.816437 -7.816437z" fill-rule="nonzero"></path><path fill="#000000" d="m466.1335 363.37018q0 -2.421875 0.5 -3.890625q0.5 -1.46875 1.46875 -2.265625q0.984375 -0.796875 2.46875 -0.796875q1.09375 0 1.921875 0.4375q0.828125 0.4375 1.359375 1.28125q0.546875 0.828125 0.84375 2.015625q0.3125 1.1875 0.3125 3.21875q0 2.390625 -0.5 3.859375q-0.484375 1.46875 -1.46875 2.28125q-0.96875 0.796875 -2.46875 0.796875q-1.96875 0 -3.078125 -1.40625q-1.359375 -1.703125 -1.359375 -5.53125zm1.71875 0q0 3.34375 0.78125 4.453125q0.796875 1.109375 1.9375 1.109375q1.15625 0 1.9375 -1.109375q0.78125 -1.125 0.78125 -4.453125q0 -3.359375 -0.78125 -4.46875q-0.78125 -1.109375 -1.953125 -1.109375q-1.15625 0 -1.828125 0.984375q-0.875 1.234375 -0.875 4.59375z" fill-rule="nonzero"></path><path fill="#cfe2f3" d="m510.48764 416.20526l0 0c0 -4.3168945 3.4995422 -7.816437 7.816437 -7.816437l45.028564 0c2.072998 0 4.061157 0.82351685 5.5270386 2.2893677c1.4658203 1.4658813 2.2893677 3.45401 2.2893677 5.527069l0 31.26477c0 4.3168945 -3.4995117 7.816437 -7.8164062 7.816437l-45.028564 0l0 0c-4.3168945 0 -7.816437 -3.4995422 -7.816437 -7.816437z" fill-rule="nonzero"></path><path stroke="#000000" stroke-width="2.0" stroke-linejoin="round" stroke-linecap="butt" d="m510.48764 416.20526l0 0c0 -4.3168945 3.4995422 -7.816437 7.816437 -7.816437l45.028564 0c2.072998 0 4.061157 0.82351685 5.5270386 2.2893677c1.4658203 1.4658813 2.2893677 3.45401 2.2893677 5.527069l0 31.26477c0 4.3168945 -3.4995117 7.816437 -7.8164062 7.816437l-45.028564 0l0 0c-4.3168945 0 -7.816437 -3.4995422 -7.816437 -7.816437z" fill-rule="nonzero"></path><path fill="#000000" d="m542.7086 438.75763l-1.671875 0l0 -10.640625q-0.59375 0.578125 -1.578125 1.15625q-0.984375 0.5625 -1.765625 0.859375l0 -1.625q1.40625 -0.65625 2.453125 -1.59375q1.046875 -0.9375 1.484375 -1.8125l1.078125 0l0 13.65625z" fill-rule="nonzero"></path><path fill="#000000" fill-opacity="0.0" d="m500.87082 363.15332c12.5000305 0 25.3555 -12.085846 25.000092 -24.224426c-0.35534668 -12.13858 -13.921539 -24.329895 -27.665405 -24.224396c-13.743835 0.10549927 -27.665375 12.507874 -27.665375 25.015747" fill-rule="nonzero"></path><path stroke="#ff0000" stroke-width="2.0" stroke-linejoin="round" stroke-linecap="butt" d="m500.87082 363.1533c12.5000305 0 25.3555 -12.085785 25.000092 -24.224396c-0.35534668 -12.13858 -13.92157 -24.329926 -27.665405 -24.224396c-6.8719177 0.052764893 -13.788269 3.179718 -18.986633 7.8569946c-1.2995911 1.1693115 -2.4918518 2.4355164 -3.5491333 3.7748108c-0.26431274 0.33483887 -0.52020264 0.67422485 -0.76727295 1.0177917c-0.12347412 0.17181396 -0.2447815 0.344635 -0.36383057 0.51849365l-0.2904358 0.43493652" fill-rule="evenodd"></path><path fill="#ff0000" stroke="#ff0000" stroke-width="2.0" stroke-linecap="butt" d="m471.1064 327.28674l0.3371582 9.6528015l5.946411 -7.611206z" fill-rule="evenodd"></path><path fill="#000000" fill-opacity="0.0" d="m510.48764 431.83765c-19.968506 0 -39.93701 -22.614197 -39.93701 -45.228363" fill-rule="nonzero"></path><path stroke="#000000" stroke-width="2.0" stroke-linejoin="round" stroke-linecap="butt" d="m510.4876 431.83765c-9.984253 0 -19.968506 -5.6535645 -27.456696 -14.13385c-3.7440796 -4.2401733 -6.8641663 -9.187012 -9.048218 -14.487213c-0.5460205 -1.3250427 -1.0335388 -2.6722107 -1.4576721 -4.0358887c-0.052978516 -0.17044067 -0.105041504 -0.341156 -0.1560669 -0.512146l-0.055358887 -0.18945312" fill-rule="evenodd"></path><path fill="#000000" stroke="#000000" stroke-width="2.0" stroke-linecap="butt" d="m475.58124 397.99374l-4.601074 -8.492371l-1.9341736 9.463043z" fill-rule="evenodd"></path><path fill="#000000" fill-opacity="0.0" d="m525.275 334.78323l120.346436 0l0 48.188965l-120.346436 0z" fill-rule="nonzero"></path><path fill="#ff0000" d="m544.2125 362.58887l2.0625 0.21875q-0.4375 1.53125 -2.046875 2.921875q-1.59375 1.375 -3.8125 1.375q-1.375 0 -2.53125 -0.640625q-1.15625 -0.640625 -1.765625 -1.859375q-0.59375 -1.21875 -0.59375 -2.78125q0 -2.03125 0.9375 -3.9375q0.9375 -1.921875 2.4375 -2.859375q1.5 -0.9375 3.25 -0.9375q2.234375 0 3.5625 1.390625q1.328125 1.375 1.328125 3.765625q0 0.921875 -0.171875 1.875l-9.15625 0q-0.046875 0.375 -0.046875 0.65625q0 1.75 0.796875 2.671875q0.8125 0.921875 1.96875 0.921875q1.09375 0 2.140625 -0.71875q1.0625 -0.71875 1.640625 -2.0625zm-6.15625 -3.078125l6.984375 0q0 -0.328125 0 -0.46875q0 -1.59375 -0.796875 -2.4375q-0.796875 -0.859375 -2.046875 -0.859375q-1.359375 0 -2.484375 0.9375q-1.109375 0.9375 -1.65625 2.828125z" fill-rule="nonzero"></path><path fill="#ff0000" d="m548.29456 370.167q0 -2.03125 0.40625 -3.265625q0.421875 -1.234375 1.25 -1.90625q0.828125 -0.671875 2.078125 -0.671875q0.921875 0 1.609375 0.375q0.703125 0.359375 1.15625 1.0625q0.453125 0.703125 0.703125 1.703125q0.265625 1.0 0.265625 2.703125q0 2.015625 -0.421875 3.265625q-0.40625 1.234375 -1.234375 1.921875q-0.828125 0.671875 -2.078125 0.671875q-1.65625 0 -2.609375 -1.203125q-1.125 -1.421875 -1.125 -4.65625zm1.4375 0q0 2.828125 0.65625 3.765625q0.671875 0.921875 1.640625 0.921875q0.96875 0 1.625 -0.9375q0.65625 -0.9375 0.65625 -3.75q0 -2.828125 -0.65625 -3.75q-0.65625 -0.9375 -1.640625 -0.9375q-0.96875 0 -1.546875 0.828125q-0.734375 1.046875 -0.734375 3.859375z" fill-rule="nonzero"></path><path fill="#ff0000" d="m558.1461 371.58887l0 -21.953125l4.65625 0l0 1.75l-2.546875 0l0 18.46875l2.546875 0l0 1.734375l-4.65625 0z" fill-rule="nonzero"></path><path fill="#ff0000" d="m563.15784 366.82324l5.40625 -6.3125l-3.09375 -6.140625l2.34375 0l1.046875 2.21875q0.59375 1.25 1.0625 2.375l3.578125 -4.59375l2.59375 0l-5.234375 6.296875l3.140625 6.15625l-2.34375 0l-1.234375 -2.53125q-0.40625 -0.8125 -0.90625 -2.0l-3.703125 4.53125l-2.65625 0z" fill-rule="nonzero"></path><path fill="#ff0000" d="m580.29846 371.58887l-4.65625 0l0 -1.734375l2.546875 0l0 -18.46875l-2.546875 0l0 -1.75l4.65625 0l0 21.953125z" fill-rule="nonzero"></path><path fill="#000000" fill-opacity="0.0" d="m413.38 408.38953l85.10239 0l0 44.125977l-85.10239 0z" fill-rule="nonzero"></path><path fill="#000000" d="m432.3175 434.75815l2.0625 0.21875q-0.4375 1.53125 -2.046875 2.921875q-1.59375 1.375 -3.8125 1.375q-1.375 0 -2.53125 -0.640625q-1.15625 -0.640625 -1.765625 -1.859375q-0.59375 -1.21875 -0.59375 -2.78125q0 -2.03125 0.9375 -3.9375q0.9375 -1.921875 2.4375 -2.859375q1.5 -0.9375 3.25 -0.9375q2.234375 0 3.5625 1.390625q1.328125 1.375 1.328125 3.765625q0 0.921875 -0.171875 1.875l-9.15625 0q-0.046875 0.375 -0.046875 0.65625q0 1.75 0.796875 2.671875q0.8125 0.921875 1.96875 0.921875q1.09375 0 2.140625 -0.71875q1.0625 -0.71875 1.640625 -2.0625zm-6.15625 -3.078125l6.984375 0q0 -0.328125 0 -0.46875q0 -1.59375 -0.796875 -2.4375q-0.796875 -0.859375 -2.046875 -0.859375q-1.359375 0 -2.484375 0.9375q-1.109375 0.9375 -1.65625 2.828125z" fill-rule="nonzero"></path><path fill="#000000" d="m441.6964 447.99252l-1.40625 0l0 -8.96875q-0.515625 0.484375 -1.34375 0.96875q-0.8125 0.484375 -1.46875 0.734375l0 -1.359375q1.171875 -0.5625 2.046875 -1.34375q0.890625 -0.796875 1.265625 -1.53125l0.90625 0l0 11.5z" fill-rule="nonzero"></path><path fill="#000000" d="m446.2511 443.75815l0 -21.953125l4.65625 0l0 1.75l-2.546875 0l0 18.46875l2.546875 0l0 1.734375l-4.65625 0zm17.730469 -9.734375l-2.0 0l0 -5.140625l-9.34375 0l0 -1.96875l11.34375 0l0 7.109375z" fill-rule="nonzero"></path><path fill="#000000" d="m465.27844 438.99252l5.40625 -6.3125l-3.09375 -6.140625l2.34375 0l1.046875 2.21875q0.59375 1.25 1.0625 2.375l3.578125 -4.59375l2.59375 0l-5.234375 6.296875l3.140625 6.15625l-2.34375 0l-1.234375 -2.53125q-0.40625 -0.8125 -0.90625 -2.0l-3.703125 4.53125l-2.65625 0z" fill-rule="nonzero"></path><path fill="#000000" d="m482.41907 443.75815l-4.65625 0l0 -1.734375l2.546875 0l0 -18.46875l-2.546875 0l0 -1.75l4.65625 0l0 21.953125z" fill-rule="nonzero"></path><path fill="#000000" fill-opacity="0.0" d="m401.93506 395.3869c-43.1575 0 -64.73624 -0.039367676 -86.31497 -0.07873535c-21.578735 -0.039367676 -43.15747 -0.07873535 -86.31496 -0.07873535" fill-rule="nonzero"></path><path stroke="#000000" stroke-width="2.0" stroke-linejoin="round" stroke-linecap="butt" d="m389.93503 395.38406l-16.65924 -0.0039367676c-8.429199 -0.0043029785 -15.846893 -0.010467529 -22.590271 -0.017852783c-13.486664 -0.01473999 -24.276062 -0.034423828 -35.06543 -0.054107666c-21.578735 -0.039398193 -43.15747 -0.07876587 -86.31494 -0.07876587" fill-rule="evenodd"></path><path fill="#000000" stroke="#000000" stroke-width="2.0" stroke-linecap="butt" d="m389.93427 398.68753l9.076965 -3.3013306l-9.075409 -3.305603z" fill-rule="evenodd"></path><path fill="#000000" fill-opacity="0.0" d="m239.65967 349.03174l157.38583 0l0 30.015747l-157.38583 0z" fill-rule="nonzero"></path><path fill="#ff0000" d="m254.26904 386.11862q-1.734375 -2.203125 -2.953125 -5.15625q-1.203125 -2.953125 -1.203125 -6.109375q0 -2.796875 0.90625 -5.34375q1.046875 -2.96875 3.25 -5.90625l1.515625 0q-1.421875 2.4375 -1.875 3.46875q-0.71875 1.625 -1.125 3.375q-0.5 2.203125 -0.5 4.40625q0 5.640625 3.5 11.265625l-1.515625 0zm3.3828125 -13.515625q0 -3.046875 0.625 -4.90625q0.625 -1.859375 1.859375 -2.859375q1.234375 -1.015625 3.109375 -1.015625q1.390625 0 2.421875 0.5625q1.046875 0.546875 1.71875 1.59375q0.6875 1.046875 1.078125 2.5625q0.390625 1.5 0.390625 4.0625q0 3.015625 -0.625 4.875q-0.625 1.859375 -1.859375 2.875q-1.234375 1.015625 -3.125 1.015625q-2.484375 0 -3.890625 -1.78125q-1.703125 -2.15625 -1.703125 -6.984375zm2.171875 0q0 4.21875 0.984375 5.625q0.984375 1.40625 2.4375 1.40625q1.453125 0 2.4375 -1.40625q1.0 -1.40625 1.0 -5.625q0 -4.25 -1.0 -5.640625q-0.984375 -1.390625 -2.453125 -1.390625q-1.453125 0 -2.328125 1.21875q-1.078125 1.578125 -1.078125 5.8125zm12.316406 8.46875l0 -2.40625l2.390625 0l0 2.40625q0 1.328125 -0.46875 2.140625q-0.46875 0.8125 -1.484375 1.265625l-0.578125 -0.90625q0.65625 -0.296875 0.96875 -0.875q0.328125 -0.5625 0.359375 -1.625l-1.1875 0z" fill-rule="nonzero"></path><path fill="#ff0000" d="m293.27295 376.83737l2.0625 0.21875q-0.4375 1.53125 -2.046875 2.921875q-1.59375 1.375 -3.8125 1.375q-1.375 0 -2.53125 -0.640625q-1.15625 -0.640625 -1.765625 -1.859375q-0.59375 -1.21875 -0.59375 -2.78125q0 -2.03125 0.9375 -3.9375q0.9375 -1.921875 2.4375 -2.859375q1.5 -0.9375 3.25 -0.9375q2.234375 0 3.5625 1.390625q1.328125 1.375 1.328125 3.765625q0 0.921875 -0.171875 1.875l-9.15625 0q-0.046875 0.375 -0.046875 0.65625q0 1.75 0.796875 2.671875q0.8125 0.921875 1.96875 0.921875q1.09375 0 2.140625 -0.71875q1.0625 -0.71875 1.640625 -2.0625zm-6.15625 -3.078125l6.984375 0q0 -0.328125 0 -0.46875q0 -1.59375 -0.796875 -2.4375q-0.796875 -0.859375 -2.046875 -0.859375q-1.359375 0 -2.484375 0.9375q-1.109375 0.9375 -1.65625 2.828125z" fill-rule="nonzero"></path><path fill="#ff0000" d="m297.35498 384.4155q0 -2.03125 0.40625 -3.265625q0.421875 -1.234375 1.25 -1.90625q0.828125 -0.671875 2.078125 -0.671875q0.921875 0 1.609375 0.375q0.703125 0.359375 1.15625 1.0625q0.453125 0.703125 0.703125 1.703125q0.265625 1.0 0.265625 2.703125q0 2.015625 -0.421875 3.265625q-0.40625 1.234375 -1.234375 1.921875q-0.828125 0.671875 -2.078125 0.671875q-1.65625 0 -2.609375 -1.203125q-1.125 -1.421875 -1.125 -4.65625zm1.4375 0q0 2.828125 0.65625 3.765625q0.671875 0.921875 1.640625 0.921875q0.96875 0 1.625 -0.9375q0.65625 -0.9375 0.65625 -3.75q0 -2.828125 -0.65625 -3.75q-0.65625 -0.9375 -1.640625 -0.9375q-0.96875 0 -1.546875 0.828125q-0.734375 1.046875 -0.734375 3.859375z" fill-rule="nonzero"></path><path fill="#ff0000" d="m307.20654 385.83737l0 -21.953125l4.65625 0l0 1.75l-2.546875 0l0 18.46875l2.546875 0l0 1.734375l-4.65625 0z" fill-rule="nonzero"></path><path fill="#ff0000" d="m312.21826 381.07175l5.40625 -6.3125l-3.09375 -6.140625l2.34375 0l1.046875 2.21875q0.59375 1.25 1.0625 2.375l3.578125 -4.59375l2.59375 0l-5.234375 6.296875l3.140625 6.15625l-2.34375 0l-1.234375 -2.53125q-0.40625 -0.8125 -0.90625 -2.0l-3.703125 4.53125l-2.65625 0z" fill-rule="nonzero"></path><path fill="#ff0000" d="m329.3589 385.83737l-4.65625 0l0 -1.734375l2.546875 0l0 -18.46875l-2.546875 0l0 -1.75l4.65625 0l0 21.953125zm4.5273438 0.28125l-1.515625 0q3.5 -5.625 3.5 -11.265625q0 -2.203125 -0.5 -4.359375q-0.390625 -1.765625 -1.109375 -3.375q-0.453125 -1.0625 -1.890625 -3.515625l1.515625 0q2.203125 2.9375 3.25 5.90625q0.90625 2.546875 0.90625 5.34375q0 3.15625 -1.21875 6.109375q-1.203125 2.953125 -2.9375 5.15625zm23.242188 -15.3125q1.5625 1.703125 2.703125 2.59375q1.140625 0.875 2.140625 1.3125l0 0.515625q-1.15625 0.5625 -2.25 1.4375q-1.09375 0.875 -2.59375 2.5625l-0.90625 0q1.09375 -2.359375 2.3125 -3.625l-18.703125 0l0 -1.171875l18.703125 0q-0.890625 -1.140625 -1.25 -1.6875q-0.34375 -0.5625 -1.046875 -1.9375l0.890625 0zm6.78125 1.796875q0 -3.046875 0.625 -4.90625q0.625 -1.859375 1.859375 -2.859375q1.234375 -1.015625 3.109375 -1.015625q1.390625 0 2.421875 0.5625q1.046875 0.546875 1.71875 1.59375q0.6875 1.046875 1.078125 2.5625q0.390625 1.5 0.390625 4.0625q0 3.015625 -0.625 4.875q-0.625 1.859375 -1.859375 2.875q-1.234375 1.015625 -3.125 1.015625q-2.484375 0 -3.890625 -1.78125q-1.703125 -2.15625 -1.703125 -6.984375zm2.171875 0q0 4.21875 0.984375 5.625q0.984375 1.40625 2.4375 1.40625q1.453125 0 2.4375 -1.40625q1.0 -1.40625 1.0 -5.625q0 -4.25 -1.0 -5.640625q-0.984375 -1.390625 -2.453125 -1.390625q-1.453125 0 -2.328125 1.21875q-1.078125 1.578125 -1.078125 5.8125z" fill-rule="nonzero"></path><path fill="#000000" fill-opacity="0.0" d="m401.9338 390.01944l0 0c0 -53.402008 45.645813 -96.6929 101.95276 -96.6929l0 0c27.039581 0 52.97165 10.187256 72.09152 28.32071c19.119812 18.133423 29.861267 42.72766 29.861267 68.37219l0 0c0 53.40204 -45.645813 96.69293 -101.95279 96.69293l0 0c-56.306946 0 -101.95276 -43.290894 -101.95276 -96.69293z" fill-rule="nonzero"></path><path stroke="#000000" stroke-width="2.0" stroke-linejoin="round" stroke-linecap="butt" d="m401.9338 390.01944l0 0c0 -53.402008 45.645813 -96.6929 101.95276 -96.6929l0 0c27.039581 0 52.97165 10.187256 72.09152 28.32071c19.119812 18.133423 29.861267 42.72766 29.861267 68.37219l0 0c0 53.40204 -45.645813 96.69293 -101.95279 96.69293l0 0c-56.306946 0 -101.95276 -43.290894 -101.95276 -96.69293z" fill-rule="nonzero"></path><path fill="#000000" fill-opacity="0.0" d="m26.703484 390.01944l0 0c0 -53.402008 45.645805 -96.6929 101.95275 -96.6929l0 0c27.03955 0 52.971634 10.187256 72.09149 28.32071c19.119843 18.133423 29.861267 42.72766 29.861267 68.37219l0 0c0 53.40204 -45.645798 96.69293 -101.95276 96.69293l0 0c-56.306946 0 -101.95275 -43.290894 -101.95275 -96.69293z" fill-rule="nonzero"></path><path stroke="#000000" stroke-width="2.0" stroke-linejoin="round" stroke-linecap="butt" d="m26.703484 390.01944l0 0c0 -53.402008 45.645805 -96.6929 101.95275 -96.6929l0 0c27.03955 0 52.971634 10.187256 72.09149 28.32071c19.119843 18.133423 29.861267 42.72766 29.861267 68.37219l0 0c0 53.40204 -45.645798 96.69293 -101.95276 96.69293l0 0c-56.306946 0 -101.95275 -43.290894 -101.95275 -96.69293z" fill-rule="nonzero"></path><path fill="#000000" fill-opacity="0.0" d="m19.398579 289.14923l592.9134 0l0 208.37796l-592.9134 0z" fill-rule="nonzero"></path><path stroke="#00ff00" stroke-width="3.0" stroke-linejoin="round" stroke-linecap="butt" d="m19.398579 289.14923l592.9134 0l0 208.37796l-592.9134 0z" fill-rule="nonzero"></path></g></svg>

