<?xml version="1.0" standalone="yes"?>

<svg version="1.1" viewBox="0.0 0.0 616.0551181102362 234.10236220472441" fill="none" stroke="none" stroke-linecap="square" stroke-miterlimit="10" xmlns="http://www.w3.org/2000/svg" xmlns:xlink="http://www.w3.org/1999/xlink"><clipPath id="p.0"><path d="m0 0l616.0551 0l0 234.10236l-616.0551 0l0 -234.10236z" clip-rule="nonzero"></path></clipPath><g clip-path="url(#p.0)"><path fill="#000000" fill-opacity="0.0" d="m0 0l616.0551 0l0 234.10236l-616.0551 0z" fill-rule="nonzero"></path><path fill="#cfe2f3" d="m9.270341 151.41486l0 0c0 -4.3168945 3.4995346 -7.816437 7.81643 -7.816437l45.028557 0c2.0730476 0 4.061184 0.82351685 5.52705 2.289383c1.4658661 1.4658661 2.2893753 3.45401 2.2893753 5.527054l0 31.264786c0 4.3168945 -3.4995346 7.8164215 -7.8164253 7.8164215l-45.028557 0l0 0c-4.3168955 0 -7.81643 -3.499527 -7.81643 -7.8164215z" fill-rule="nonzero"></path><path stroke="#000000" stroke-width="4.0" stroke-linejoin="round" stroke-linecap="butt" d="m9.270341 151.41486l0 0c0 -4.3168945 3.4995346 -7.816437 7.81643 -7.816437l45.028557 0c2.0730476 0 4.061184 0.82351685 5.52705 2.289383c1.4658661 1.4658661 2.2893753 3.45401 2.2893753 5.527054l0 31.264786c0 4.3168945 -3.4995346 7.8164215 -7.8164253 7.8164215l-45.028557 0l0 0c-4.3168955 0 -7.81643 -3.499527 -7.81643 -7.8164215z" fill-rule="nonzero"></path><path fill="#000000" d="m35.19444 167.26411q0 -2.421875 0.5 -3.890625q0.5 -1.46875 1.46875 -2.265625q0.984375 -0.796875 2.46875 -0.796875q1.09375 0 1.921875 0.4375q0.828125 0.4375 1.359375 1.28125q0.546875 0.828125 0.84375 2.015625q0.3125 1.1875 0.3125 3.21875q0 2.390625 -0.5 3.859375q-0.484375 1.46875 -1.46875 2.28125q-0.96875 0.796875 -2.46875 0.796875q-1.96875 0 -3.078125 -1.40625q-1.359375 -1.703125 -1.359375 -5.53125zm1.71875 0q0 3.34375 0.78125 4.453125q0.796875 1.109375 1.9375 1.109375q1.15625 0 1.9375 -1.109375q0.78125 -1.125 0.78125 -4.453125q0 -3.359375 -0.78125 -4.46875q-0.78125 -1.109375 -1.953125 -1.109375q-1.15625 0 -1.828125 0.984375q-0.875 1.234375 -0.875 4.59375z" fill-rule="nonzero"></path><path fill="#cfe2f3" d="m161.13123 99.98108l0 0c0 -4.3168945 3.499527 -7.816429 7.8164215 -7.816429l45.028564 0c2.0730438 0 4.0611877 0.8235092 5.527054 2.2893753c1.4658661 1.4658661 2.2893677 3.4540024 2.2893677 5.527054l0 31.26477c0 4.3168945 -3.499527 7.816437 -7.8164215 7.816437l-45.028564 0l0 0c-4.3168945 0 -7.8164215 -3.4995422 -7.8164215 -7.816437z" fill-rule="nonzero"></path><path stroke="#000000" stroke-width="2.0" stroke-linejoin="round" stroke-linecap="butt" d="m161.13123 99.98108l0 0c0 -4.3168945 3.499527 -7.816429 7.8164215 -7.816429l45.028564 0c2.0730438 0 4.0611877 0.8235092 5.527054 2.2893753c1.4658661 1.4658661 2.2893677 3.4540024 2.2893677 5.527054l0 31.26477c0 4.3168945 -3.499527 7.816437 -7.8164215 7.816437l-45.028564 0l0 0c-4.3168945 0 -7.8164215 -3.4995422 -7.8164215 -7.816437z" fill-rule="nonzero"></path><path fill="#000000" d="m193.3522 122.53346l-1.671875 0l0 -10.640625q-0.59375 0.578125 -1.578125 1.15625q-0.984375 0.5625 -1.765625 0.859375l0 -1.625q1.40625 -0.65625 2.453125 -1.59375q1.046875 -0.9375 1.484375 -1.8125l1.078125 0l0 13.65625z" fill-rule="nonzero"></path><path fill="#000000" fill-opacity="0.0" d="m39.601048 143.59842c0 -14.0 60.771656 -27.999992 121.54332 -27.999992" fill-rule="nonzero"></path><path stroke="#ff0000" stroke-width="2.0" stroke-linejoin="round" stroke-linecap="butt" d="m39.60105 143.59842c0 -7.0 15.192913 -14.0 37.982285 -19.249992c11.394684 -2.625 24.688484 -4.8125 38.93184 -6.34375c7.1216736 -0.765625 14.480751 -1.3671875 21.958504 -1.7773438c1.8694458 -0.10253906 3.7463074 -0.19312286 5.628723 -0.2713089c0.9412079 -0.039093018 1.8838196 -0.07508087 2.8275757 -0.107925415c0.47187805 -0.016426086 0.944046 -0.032058716 1.4164734 -0.04689789l0.7992401 -0.023742676" fill-rule="evenodd"></path><path fill="#ff0000" stroke="#ff0000" stroke-width="2.0" stroke-linecap="butt" d="m149.19498 119.08055l9.025894 -3.438507l-9.124466 -3.1676865z" fill-rule="evenodd"></path><path fill="#000000" fill-opacity="0.0" d="m325.3596 190.49667c0 12.5 -71.44095 24.992126 -142.8819 25.0c-71.44095 0.007873535 -142.8819 -12.468506 -142.8819 -24.937012" fill-rule="nonzero"></path><path stroke="#000000" stroke-width="2.0" stroke-linejoin="round" stroke-linecap="butt" d="m325.3596 190.49667c0 12.5 -71.44095 24.992126 -142.8819 25.0c-35.720474 0.0039367676 -71.44095 -3.1131897 -98.2313 -7.789856c-13.39518 -2.3383331 -24.557823 -5.066559 -32.371677 -7.9894867c-0.97673416 -0.36535645 -1.9011383 -0.7337799 -2.771038 -1.1048431l-0.44137573 -0.19161987" fill-rule="evenodd"></path><path fill="#000000" stroke="#000000" stroke-width="2.0" stroke-linecap="butt" d="m50.8264 195.92497l-9.021545 -3.4499207l4.693344 8.441727z" fill-rule="evenodd"></path><path fill="#000000" fill-opacity="0.0" d="m125.55643 8.207349l131.81104 0l0 48.188976l-131.81104 0z" fill-rule="nonzero"></path><path fill="#000000" d="m144.49393 36.012974l2.0625 0.21875q-0.4375 1.53125 -2.046875 2.921875q-1.59375 1.375 -3.8125 1.375q-1.375 0 -2.53125 -0.640625q-1.15625 -0.640625 -1.765625 -1.859375q-0.59375 -1.21875 -0.59375 -2.78125q0 -2.03125 0.9375 -3.937498q0.9375 -1.921875 2.4375 -2.859375q1.5 -0.9375 3.25 -0.9375q2.234375 0 3.5625 1.390625q1.328125 1.375 1.328125 3.765623q0 0.921875 -0.171875 1.875l-9.15625 0q-0.046875 0.375 -0.046875 0.65625q0 1.75 0.796875 2.671875q0.8125 0.921875 1.96875 0.921875q1.09375 0 2.140625 -0.71875q1.0625 -0.71875 1.640625 -2.0625zm-6.15625 -3.078125l6.984375 0q0 -0.328125 0 -0.46875q0 -1.5937481 -0.796875 -2.437498q-0.796875 -0.859375 -2.046875 -0.859375q-1.359375 0 -2.484375 0.9375q-1.109375 0.9375 -1.65625 2.828123z" fill-rule="nonzero"></path><path fill="#000000" d="m153.87283 49.24735l-1.40625 0l0 -8.96875q-0.515625 0.484375 -1.34375 0.96875q-0.8125 0.484375 -1.46875 0.734375l0 -1.359375q1.171875 -0.5625 2.046875 -1.34375q0.890625 -0.796875 1.265625 -1.53125l0.90625 0l0 11.5z" fill-rule="nonzero"></path><path fill="#000000" d="m158.42752 45.012974l0 -21.953123l4.65625 0l0 1.75l-2.546875 0l0 18.468748l2.546875 0l0 1.734375l-4.65625 0z" fill-rule="nonzero"></path><path fill="#000000" d="m163.43924 40.24735l5.40625 -6.3125l-3.09375 -6.140623l2.34375 0l1.046875 2.21875q0.59375 1.25 1.0625 2.374998l3.578125 -4.593748l2.59375 0l-5.234375 6.296873l3.140625 6.15625l-2.34375 0l-1.234375 -2.53125q-0.40625 -0.8125 -0.90625 -2.0l-3.703125 4.53125l-2.65625 0z" fill-rule="nonzero"></path><path fill="#000000" d="m180.57986 45.012974l-4.65625 0l0 -1.734375l2.546875 0l0 -18.468748l-2.546875 0l0 -1.75l4.65625 0l0 21.953123zm1.5585938 -4.46875l4.984375 -17.765623l1.6875 0l-4.96875 17.765623l-1.703125 0z" fill-rule="nonzero"></path><path fill="#000000" d="m189.27518 40.24735l0.34375 -1.640625l6.6875 -7.531248q0.71875 -0.796875 1.59375 -1.65625q-1.515625 0.15625 -2.171875 0.15625l-4.625 0l0.375 -1.78125l9.625 0l-0.28125 1.34375l-6.75 7.578123q-0.578125 0.640625 -1.71875 1.765625q1.78125 -0.09375 2.4375 -0.09375l4.890625 0l-0.390625 1.859375l-10.015625 0z" fill-rule="nonzero"></path><path fill="#000000" d="m201.4783 43.5911q0 -2.03125 0.40625 -3.265625q0.421875 -1.234375 1.25 -1.90625q0.828125 -0.671875 2.078125 -0.671875q0.921875 0 1.609375 0.375q0.703125 0.359375 1.15625 1.0625q0.453125 0.703125 0.703125 1.703125q0.265625 1.0 0.265625 2.703125q0 2.015625 -0.421875 3.265625q-0.40625 1.234375 -1.234375 1.921875q-0.828125 0.671875 -2.078125 0.671875q-1.65625 0 -2.609375 -1.203125q-1.125 -1.421875 -1.125 -4.65625zm1.4375 0q0 2.828125 0.65625 3.765625q0.671875 0.921875 1.640625 0.921875q0.96875 0 1.625 -0.9375q0.65625 -0.9375 0.65625 -3.75q0 -2.828125 -0.65625 -3.75q-0.65625 -0.9375 -1.640625 -0.9375q-0.96875 0 -1.546875 0.828125q-0.734375 1.046875 -0.734375 3.859375z" fill-rule="nonzero"></path><path fill="#000000" d="m211.84549 40.24735l0 -2.40625l2.390625 0l0 2.40625q0 1.328125 -0.46875 2.140625q-0.46875 0.8125 -1.484375 1.265625l-0.578125 -0.90625q0.65625 -0.296875 0.96875 -0.875q0.328125 -0.5625 0.359375 -1.625l-1.1875 0z" fill-rule="nonzero"></path><path fill="#000000" d="m216.84158 40.24735l0.34375 -1.640625l6.6875 -7.531248q0.71875 -0.796875 1.59375 -1.65625q-1.515625 0.15625 -2.171875 0.15625l-4.625 0l0.375 -1.78125l9.625 0l-0.28125 1.34375l-6.75 7.578123q-0.578125 0.640625 -1.71875 1.765625q1.78125 -0.09375 2.4375 -0.09375l4.890625 0l-0.390625 1.859375l-10.015625 0z" fill-rule="nonzero"></path><path fill="#000000" d="m234.34158 49.24735l-1.40625 0l0 -8.96875q-0.515625 0.484375 -1.34375 0.96875q-0.8125 0.484375 -1.46875 0.734375l0 -1.359375q1.171875 -0.5625 2.046875 -1.34375q0.890625 -0.796875 1.265625 -1.53125l0.90625 0l0 11.5z" fill-rule="nonzero"></path><path fill="#000000" fill-opacity="0.0" d="m239.9029 74.41732l140.8504 0l0 44.125984l-140.8504 0z" fill-rule="nonzero"></path><path fill="#000000" d="m258.8404 100.78594l2.0625 0.21875q-0.4375 1.53125 -2.046875 2.921875q-1.59375 1.375 -3.8125 1.375q-1.375 0 -2.53125 -0.640625q-1.15625 -0.640625 -1.765625 -1.859375q-0.59375 -1.21875 -0.59375 -2.78125q0 -2.03125 0.9375 -3.9375q0.9375 -1.921875 2.4375 -2.859375q1.5 -0.9375 3.25 -0.9375q2.234375 0 3.5625 1.390625q1.328125 1.375 1.328125 3.765625q0 0.921875 -0.171875 1.875l-9.15625 0q-0.046875 0.375 -0.046875 0.65625q0 1.75 0.796875 2.671875q0.8125 0.921875 1.96875 0.921875q1.09375 0 2.140625 -0.71875q1.0625 -0.71875 1.640625 -2.0625zm-6.15625 -3.078125l6.984375 0q0 -0.328125 0 -0.46875q0 -1.59375 -0.796875 -2.4375q-0.796875 -0.859375 -2.046875 -0.859375q-1.359375 0 -2.484375 0.9375q-1.109375 0.9375 -1.65625 2.828125z" fill-rule="nonzero"></path><path fill="#000000" d="m262.92242 108.36406q0 -2.03125 0.40625 -3.265625q0.421875 -1.234375 1.25 -1.90625q0.828125 -0.671875 2.078125 -0.671875q0.921875 0 1.609375 0.375q0.703125 0.359375 1.15625 1.0625q0.453125 0.703125 0.703125 1.703125q0.265625 1.0 0.265625 2.703125q0 2.015625 -0.421875 3.265625q-0.40625 1.234375 -1.234375 1.921875q-0.828125 0.671875 -2.078125 0.671875q-1.65625 0 -2.609375 -1.203125q-1.125 -1.421875 -1.125 -4.65625zm1.4375 0q0 2.828125 0.65625 3.765625q0.671875 0.921875 1.640625 0.921875q0.96875 0 1.625 -0.9375q0.65625 -0.9375 0.65625 -3.75q0 -2.828125 -0.65625 -3.75q-0.65625 -0.9375 -1.640625 -0.9375q-0.96875 0 -1.546875 0.828125q-0.734375 1.046875 -0.734375 3.859375z" fill-rule="nonzero"></path><path fill="#000000" d="m272.774 109.785934l0 -21.953117l4.65625 0l0 1.75l-2.546875 0l0 18.468742l2.546875 0l0 1.734375l-4.65625 0zm17.730469 -9.734367l-2.0 0l0 -5.140625l-9.34375 0l0 -1.96875l11.34375 0l0 7.109375z" fill-rule="nonzero"></path><path fill="#000000" d="m291.80133 105.02032l5.40625 -6.3125l-3.09375 -6.140625l2.34375 0l1.046875 2.21875q0.59375 1.25 1.0625 2.375l3.578125 -4.59375l2.59375 0l-5.234375 6.296875l3.140625 6.15625l-2.34375 0l-1.234375 -2.53125q-0.40625 -0.8125 -0.90625 -2.0l-3.703125 4.53125l-2.65625 0z" fill-rule="nonzero"></path><path fill="#000000" d="m308.94196 109.785934l-4.65625 0l0 -1.734375l2.546875 0l0 -18.468742l-2.546875 0l0 -1.75l4.65625 0l0 21.953117zm1.5585938 -4.4687424l4.984375 -17.765625l1.6875 0l-4.96875 17.765625l-1.703125 0z" fill-rule="nonzero"></path><path fill="#000000" d="m317.63727 105.02032l0.34375 -1.640625l6.6875 -7.53125q0.71875 -0.796875 1.59375 -1.65625q-1.515625 0.15625 -2.171875 0.15625l-4.625 0l0.375 -1.78125l9.625 0l-0.28125 1.34375l-6.75 7.578125q-0.578125 0.640625 -1.71875 1.765625q1.78125 -0.09375 2.4375 -0.09375l4.890625 0l-0.390625 1.859375l-10.015625 0z" fill-rule="nonzero"></path><path fill="#000000" d="m335.13727 114.02031l-1.40625 0l0 -8.96875q-0.515625 0.484375 -1.34375 0.96875q-0.8125 0.484375 -1.46875 0.734375l0 -1.359375q1.171875 -0.5625 2.046875 -1.34375q0.890625 -0.796875 1.265625 -1.53125l0.90625 0l0 11.5z" fill-rule="nonzero"></path><path fill="#cfe2f3" d="m295.02887 151.41547l0 0c0 -4.3168945 3.4995422 -7.816437 7.816437 -7.816437l45.028564 0c2.0730286 0 4.0611877 0.82351685 5.5270386 2.289383c1.4658508 1.4658661 2.2893677 3.4539948 2.2893677 5.527054l0 31.26477c0 4.3168945 -3.4995117 7.816437 -7.8164062 7.816437l-45.028564 0l0 0c-4.3168945 0 -7.816437 -3.4995422 -7.816437 -7.816437z" fill-rule="nonzero"></path><path stroke="#000000" stroke-width="2.0" stroke-linejoin="round" stroke-linecap="butt" d="m295.02887 151.41547l0 0c0 -4.3168945 3.4995422 -7.816437 7.816437 -7.816437l45.028564 0c2.0730286 0 4.0611877 0.82351685 5.5270386 2.289383c1.4658508 1.4658661 2.2893677 3.4539948 2.2893677 5.527054l0 31.26477c0 4.3168945 -3.4995117 7.816437 -7.8164062 7.816437l-45.028564 0l0 0c-4.3168945 0 -7.816437 -3.4995422 -7.816437 -7.816437z" fill-rule="nonzero"></path><path fill="#000000" d="m329.73422 172.35847l0 1.609375l-8.984375 0q-0.015625 -0.609375 0.1875 -1.15625q0.34375 -0.921875 1.09375 -1.8125q0.765625 -0.890625 2.1875 -2.0625q2.21875 -1.8125 3.0 -2.875q0.78125 -1.0625 0.78125 -2.015625q0 -0.984375 -0.71875 -1.671875q-0.703125 -0.6875 -1.84375 -0.6875q-1.203125 0 -1.9375 0.734375q-0.71875 0.71875 -0.71875 2.0l-1.71875 -0.171875q0.171875 -1.921875 1.328125 -2.921875q1.15625 -1.015625 3.09375 -1.015625q1.953125 0 3.09375 1.09375q1.140625 1.078125 1.140625 2.6875q0 0.8125 -0.34375 1.609375q-0.328125 0.78125 -1.109375 1.65625q-0.765625 0.859375 -2.5625 2.390625q-1.5 1.265625 -1.9375 1.71875q-0.421875 0.4375 -0.703125 0.890625l6.671875 0z" fill-rule="nonzero"></path><path fill="#000000" fill-opacity="0.0" d="m182.96478 91.22521c-1.9505768 -3.1916046 -13.140854 -12.262032 -11.703415 -19.149612c1.4374542 -6.8875732 13.5516205 -22.278648 20.32808 -22.17585c6.776474 0.10279846 19.304031 15.708221 20.330719 22.792648c1.0266876 7.084427 -11.808838 16.42826 -14.1706085 19.713913" fill-rule="nonzero"></path><path stroke="#ff0000" stroke-width="2.0" stroke-linejoin="round" stroke-linecap="butt" d="m182.96477 91.22521c-1.9505615 -3.1916046 -13.140839 -12.262032 -11.7034 -19.149612c1.4374542 -6.8875732 13.5516205 -22.278648 20.32808 -22.17585c6.776474 0.10279846 19.304031 15.708229 20.330704 22.792648c0.25668335 1.7711105 -0.3530426 3.683426 -1.4488983 5.6070023c-0.54792786 0.96177673 -1.2173767 1.9263763 -1.9608612 2.8775482c-0.37171936 0.4755783 -0.76194763 0.9478073 -1.1647491 1.4146347c-0.2013855 0.23342133 -0.40592957 0.46549225 -0.61286926 0.695961c-0.10346985 0.115234375 -0.20753479 0.23007202 -0.31210327 0.3444748l-0.2278595 0.24719238" fill-rule="evenodd"></path><path fill="#ff0000" stroke="#ff0000" stroke-width="2.0" stroke-linecap="butt" d="m203.8454 81.55488l-4.0386505 8.773804l8.733475 -4.1251373z" fill-rule="evenodd"></path><path fill="#000000" fill-opacity="0.0" d="m221.79263 115.613464c51.77954 0 103.55905 14.0 103.55905 28.0" fill-rule="nonzero"></path><path stroke="#ff0000" stroke-width="2.0" stroke-linejoin="round" stroke-linecap="butt" d="m221.79263 115.613464c25.889755 0 51.77951 3.5 71.19684 8.75c9.708679 2.625 17.799225 5.6875 23.462616 8.96875c0.35394287 0.20507812 0.6984558 0.41101074 1.0332336 0.6177368l0.41271973 0.25909424" fill-rule="evenodd"></path><path fill="#ff0000" stroke="#ff0000" stroke-width="2.0" stroke-linecap="butt" d="m315.3091 136.26096l8.226501 5.0611267l-3.048645 -9.1649475z" fill-rule="evenodd"></path><path fill="#000000" fill-opacity="0.0" d="m135.99997 171.37007l111.11812 0l0 44.12599l-111.11812 0z" fill-rule="nonzero"></path><path fill="#000000" d="m154.93747 197.7387l2.0625 0.21875q-0.4375 1.53125 -2.046875 2.921875q-1.59375 1.375 -3.8125 1.375q-1.375 0 -2.53125 -0.640625q-1.15625 -0.640625 -1.765625 -1.859375q-0.59375 -1.21875 -0.59375 -2.78125q0 -2.03125 0.9375 -3.9375q0.9375 -1.921875 2.4375 -2.859375q1.5 -0.9375 3.25 -0.9375q2.234375 0 3.5625 1.390625q1.328125 1.375 1.328125 3.765625q0 0.921875 -0.171875 1.875l-9.15625 0q-0.046875 0.375 -0.046875 0.65625q0 1.75 0.796875 2.671875q0.8125 0.921875 1.96875 0.921875q1.09375 0 2.140625 -0.71875q1.0625 -0.71875 1.640625 -2.0625zm-6.15625 -3.078125l6.984375 0q0 -0.328125 0 -0.46875q0 -1.59375 -0.796875 -2.4375q-0.796875 -0.859375 -2.046875 -0.859375q-1.359375 0 -2.484375 0.9375q-1.109375 0.9375 -1.65625 2.828125z" fill-rule="nonzero"></path><path fill="#000000" d="m164.31638 210.97307l-1.40625 0l0 -8.96875q-0.515625 0.484375 -1.34375 0.96875q-0.8125 0.484375 -1.46875 0.734375l0 -1.359375q1.171875 -0.5625 2.046875 -1.34375q0.890625 -0.796875 1.265625 -1.53125l0.90625 0l0 11.5z" fill-rule="nonzero"></path><path fill="#000000" d="m168.87106 206.7387l0 -21.953125l4.65625 0l0 1.75l-2.546875 0l0 18.46875l2.546875 0l0 1.734375l-4.65625 0zm13.980469 -4.765625l-2.109375 0l0 -13.4375q-0.75 0.71875 -2.0 1.453125q-1.234375 0.71875 -2.21875 1.078125l0 -2.03125q1.78125 -0.828125 3.09375 -2.015625q1.328125 -1.1875 1.875 -2.296875l1.359375 0l0 17.25zm9.519531 4.765625l-4.65625 0l0 -1.734375l2.546875 0l0 -18.46875l-2.546875 0l0 -1.75l4.65625 0l0 21.953125zm1.5585938 -4.46875l4.984375 -17.765625l1.6875 0l-4.96875 17.765625l-1.703125 0z" fill-rule="nonzero"></path><path fill="#000000" d="m201.06638 201.97307l0.34375 -1.640625l6.6875 -7.53125q0.71875 -0.796875 1.59375 -1.65625q-1.515625 0.15625 -2.171875 0.15625l-4.625 0l0.375 -1.78125l9.625 0l-0.28125 1.34375l-6.75 7.578125q-0.578125 0.640625 -1.71875 1.765625q1.78125 -0.09375 2.4375 -0.09375l4.890625 0l-0.390625 1.859375l-10.015625 0z" fill-rule="nonzero"></path><path fill="#000000" d="m220.66013 209.6137l0 1.359375l-7.578125 0q-0.015625 -0.515625 0.171875 -0.984375q0.28125 -0.765625 0.921875 -1.515625q0.640625 -0.75 1.84375 -1.734375q1.859375 -1.53125 2.515625 -2.421875q0.65625 -0.90625 0.65625 -1.703125q0 -0.828125 -0.59375 -1.40625q-0.59375 -0.578125 -1.5625 -0.578125q-1.015625 0 -1.625 0.609375q-0.609375 0.609375 -0.609375 1.6875l-1.453125 -0.140625q0.15625 -1.625 1.125 -2.46875q0.96875 -0.84375 2.59375 -0.84375q1.65625 0 2.609375 0.921875q0.96875 0.90625 0.96875 2.25q0 0.6875 -0.28125 1.359375q-0.28125 0.65625 -0.9375 1.390625q-0.65625 0.734375 -2.171875 2.015625q-1.265625 1.0625 -1.625 1.453125q-0.359375 0.375 -0.59375 0.75l5.625 0z" fill-rule="nonzero"></path><path fill="#000000" fill-opacity="0.0" d="m25.270342 74.41732l140.85039 0l0 44.125984l-140.85039 0z" fill-rule="nonzero"></path><path fill="#000000" d="m44.20784 100.78594l2.0625 0.21875q-0.4375 1.53125 -2.046875 2.921875q-1.59375 1.375 -3.8125 1.375q-1.375 0 -2.53125 -0.640625q-1.15625 -0.640625 -1.765625 -1.859375q-0.59375 -1.21875 -0.59375 -2.78125q0 -2.03125 0.9375 -3.9375q0.9375 -1.921875 2.4375 -2.859375q1.5 -0.9375 3.25 -0.9375q2.234375 0 3.5625 1.390625q1.328125 1.375 1.328125 3.765625q0 0.921875 -0.171875 1.875l-9.15625 0q-0.046875 0.375 -0.046875 0.65625q0 1.75 0.796875 2.671875q0.8125 0.921875 1.96875 0.921875q1.09375 0 2.140625 -0.71875q1.0625 -0.71875 1.640625 -2.0625zm-6.15625 -3.078125l6.984375 0q0 -0.328125 0 -0.46875q0 -1.59375 -0.796875 -2.4375q-0.796875 -0.859375 -2.046875 -0.859375q-1.359375 0 -2.484375 0.9375q-1.109375 0.9375 -1.65625 2.828125z" fill-rule="nonzero"></path><path fill="#000000" d="m55.680496 112.660934l0 1.359375l-7.578125 0q-0.015625 -0.515625 0.171875 -0.984375q0.28125 -0.765625 0.921875 -1.515625q0.640625 -0.75 1.84375 -1.734375q1.859375 -1.53125 2.515625 -2.421875q0.65625 -0.90625 0.65625 -1.703125q0 -0.828125 -0.59375 -1.40625q-0.59375 -0.578125 -1.5625 -0.578125q-1.015625 0 -1.625 0.609375q-0.609375 0.609375 -0.609375 1.6875l-1.453125 -0.140625q0.15625 -1.625 1.125 -2.46875q0.96875 -0.84375 2.59375 -0.84375q1.65625 0 2.609375 0.921875q0.96875 0.90625 0.96875 2.25q0 0.6875 -0.28125 1.359375q-0.28125 0.65625 -0.9375 1.390625q-0.65625 0.734375 -2.171875 2.015625q-1.265625 1.0625 -1.625 1.453125q-0.359375 0.375 -0.59375 0.75l5.625 0z" fill-rule="nonzero"></path><path fill="#000000" d="m58.141434 109.785934l0 -21.953117l4.65625 0l0 1.75l-2.546875 0l0 18.468742l2.546875 0l0 1.734375l-4.65625 0zm13.980469 -4.7656174l-2.109375 0l0 -13.4375q-0.75 0.71875 -2.0 1.453125q-1.234375 0.71875 -2.21875 1.078125l0 -2.03125q1.78125 -0.828125 3.09375 -2.015625q1.328125 -1.1875 1.875 -2.296875l1.359375 0l0 17.25zm9.519531 4.7656174l-4.65625 0l0 -1.734375l2.546875 0l0 -18.468742l-2.546875 0l0 -1.75l4.65625 0l0 21.953117zm1.5585938 -4.4687424l4.984375 -17.765625l1.6875 0l-4.96875 17.765625l-1.703125 0z" fill-rule="nonzero"></path><path fill="#000000" d="m90.33675 105.02032l0.34375 -1.640625l6.6875 -7.53125q0.71875 -0.796875 1.59375 -1.65625q-1.515625 0.15625 -2.171875 0.15625l-4.625 0l0.375 -1.78125l9.625 0l-0.28125 1.34375l-6.75 7.578125q-0.578125 0.640625 -1.71875 1.765625q1.78125 -0.09375 2.4375 -0.09375l4.890625 0l-0.390625 1.859375l-10.015625 0z" fill-rule="nonzero"></path><path fill="#000000" d="m109.9305 112.660934l0 1.359375l-7.578125 0q-0.015625 -0.515625 0.171875 -0.984375q0.28125 -0.765625 0.921875 -1.515625q0.640625 -0.75 1.84375 -1.734375q1.859375 -1.53125 2.515625 -2.421875q0.65625 -0.90625 0.65625 -1.703125q0 -0.828125 -0.59375 -1.40625q-0.59375 -0.578125 -1.5625 -0.578125q-1.015625 0 -1.625 0.609375q-0.609375 0.609375 -0.609375 1.6875l-1.453125 -0.140625q0.15625 -1.625 1.125 -2.46875q0.96875 -0.84375 2.59375 -0.84375q1.65625 0 2.609375 0.921875q0.96875 0.90625 0.96875 2.25q0 0.6875 -0.28125 1.359375q-0.28125 0.65625 -0.9375 1.390625q-0.65625 0.734375 -2.171875 2.015625q-1.265625 1.0625 -1.625 1.453125q-0.359375 0.375 -0.59375 0.75l5.625 0z" fill-rule="nonzero"></path><path fill="#000000" fill-opacity="0.0" d="m418.78217 91.519684l168.94489 0l0 48.18898l-168.94489 0z" fill-rule="nonzero"></path><path fill="#ff0000" d="m441.03217 125.59906l2.75 0.28125q-0.59375 2.046875 -2.734375 3.890625q-2.125 1.84375 -5.078125 1.84375q-1.84375 0 -3.390625 -0.84375q-1.53125 -0.859375 -2.34375 -2.484375q-0.796875 -1.625 -0.796875 -3.703125q0 -2.71875 1.25 -5.265625q1.265625 -2.5625 3.265625 -3.796875q2.0 -1.25 4.328125 -1.25q2.96875 0 4.734375 1.84375q1.78125 1.84375 1.78125 5.03125q0 1.21875 -0.21875 2.5l-12.21875 0q-0.0625 0.484375 -0.0625 0.875q0 2.328125 1.0625 3.5625q1.078125 1.21875 2.625 1.21875q1.453125 0 2.859375 -0.953125q1.40625 -0.953125 2.1875 -2.75zm-8.21875 -4.109375l9.3125 0q0.015625 -0.4375 0.015625 -0.625q0 -2.125 -1.0625 -3.25q-1.0625 -1.140625 -2.734375 -1.140625q-1.8125 0 -3.3125 1.25q-1.484375 1.25 -2.21875 3.765625z" fill-rule="nonzero"></path><path fill="#ff0000" d="m453.40717 143.23969l-1.84375 0l0 -11.765625q-0.671875 0.640625 -1.765625 1.28125q-1.078125 0.625 -1.9375 0.953125l0 -1.796875q1.546875 -0.71875 2.703125 -1.75q1.171875 -1.046875 1.65625 -2.015625l1.1875 0l0 15.09375z" fill-rule="nonzero"></path><path fill="#000000" d="m459.6126 137.59906l0 -29.265625l6.203125 0l0 2.328125l-3.390625 0l0 24.609375l3.390625 0l0 2.328125l-6.203125 0z" fill-rule="nonzero"></path><path fill="#6aa84f" d="m466.2845 131.23969l7.21875 -8.421875l-4.140625 -8.171875l3.125 0l1.40625 2.953125q0.78125 1.65625 1.40625 3.171875l4.78125 -6.125l3.453125 0l-6.96875 8.390625l4.1875 8.203125l-3.125 0l-1.65625 -3.375q-0.53125 -1.078125 -1.203125 -2.671875l-4.9375 6.046875l-3.546875 0z" fill-rule="nonzero"></path><path fill="#000000" d="m489.14386 137.59906l-6.203125 0l0 -2.328125l3.390625 0l0 -24.609375l-3.390625 0l0 -2.328125l6.203125 0l0 29.265625zm2.078125 -5.96875l6.640625 -23.6875l2.25 0l-6.625 23.6875l-2.265625 0z" fill-rule="nonzero"></path><path fill="#0000ff" d="m500.7376 131.23969l0.453125 -2.1875l8.921875 -10.046875q0.953125 -1.0625 2.125 -2.203125q-2.015625 0.203125 -2.890625 0.203125l-6.171875 0l0.5 -2.359375l12.828125 0l-0.375 1.78125l-9.0 10.109375q-0.765625 0.859375 -2.28125 2.359375q2.359375 -0.140625 3.234375 -0.140625l6.53125 0l-0.515625 2.484375l-13.359375 0z" fill-rule="nonzero"></path><path fill="#0000ff" d="m516.9876 135.83344q0 -2.671875 0.546875 -4.296875q0.546875 -1.625 1.625 -2.5q1.078125 -0.890625 2.71875 -0.890625q1.21875 0 2.125 0.484375q0.921875 0.484375 1.515625 1.40625q0.59375 0.921875 0.921875 2.234375q0.34375 1.3125 0.34375 3.5625q0 2.640625 -0.546875 4.265625q-0.53125 1.625 -1.625 2.515625q-1.078125 0.875 -2.734375 0.875q-2.171875 0 -3.40625 -1.546875q-1.484375 -1.875 -1.484375 -6.109375zm1.890625 0q0 3.6875 0.859375 4.921875q0.875 1.21875 2.140625 1.21875q1.28125 0 2.140625 -1.21875q0.875 -1.234375 0.875 -4.921875q0 -3.71875 -0.875 -4.9375q-0.859375 -1.21875 -2.15625 -1.21875q-1.265625 0 -2.03125 1.078125q-0.953125 1.375 -0.953125 5.078125z" fill-rule="nonzero"></path><path fill="#0000ff" d="m530.81805 131.23969l0 -3.203125l3.203125 0l0 3.203125q0 1.765625 -0.625 2.84375q-0.625 1.09375 -1.984375 1.6875l-0.78125 -1.203125q0.890625 -0.390625 1.3125 -1.15625q0.421875 -0.75 0.46875 -2.171875l-1.59375 0z" fill-rule="nonzero"></path><path fill="#0000ff" d="m537.4899 131.23969l0.453125 -2.1875l8.921875 -10.046875q0.953125 -1.0625 2.125 -2.203125q-2.015625 0.203125 -2.890625 0.203125l-6.171875 0l0.5 -2.359375l12.828125 0l-0.375 1.78125l-9.0 10.109375q-0.765625 0.859375 -2.28125 2.359375q2.359375 -0.140625 3.234375 -0.140625l6.53125 0l-0.515625 2.484375l-13.359375 0z" fill-rule="nonzero"></path><path fill="#0000ff" d="m560.69305 143.23969l-1.84375 0l0 -11.765625q-0.671875 0.640625 -1.765625 1.28125q-1.078125 0.625 -1.9375 0.953125l0 -1.796875q1.546875 -0.71875 2.703125 -1.75q1.171875 -1.046875 1.65625 -2.015625l1.1875 0l0 15.09375z" fill-rule="nonzero"></path><path fill="#000000" fill-opacity="0.0" d="m364.08923 38.144356l111.11813 0l0 28.0l-111.11813 0z" fill-rule="nonzero"></path><path fill="#ff0000" d="m380.77673 61.45498l1.640625 0.21875q-0.265625 1.6875 -1.375 2.65625q-1.109375 0.953125 -2.734375 0.953125q-2.015625 0 -3.25 -1.3125q-1.21875 -1.328125 -1.21875 -3.796875q0 -1.59375 0.515625 -2.78125q0.53125 -1.203125 1.609375 -1.796875q1.09375 -0.609375 2.359375 -0.609375q1.609375 0 2.625 0.8125q1.015625 0.8125 1.3125 2.3125l-1.625 0.25q-0.234375 -1.0 -0.828125 -1.5q-0.59375 -0.5 -1.421875 -0.5q-1.265625 0 -2.0625 0.90625q-0.78125 0.90625 -0.78125 2.859375q0 1.984375 0.765625 2.890625q0.765625 0.890625 1.984375 0.890625q0.984375 0 1.640625 -0.59375q0.65625 -0.609375 0.84375 -1.859375zm2.265625 -1.3125q0 -2.734375 1.53125 -4.0625q1.265625 -1.09375 3.09375 -1.09375q2.03125 0 3.3125 1.34375q1.296875 1.328125 1.296875 3.671875q0 1.90625 -0.578125 3.0q-0.5625 1.078125 -1.65625 1.6875q-1.078125 0.59375 -2.375 0.59375q-2.0625 0 -3.34375 -1.328125q-1.28125 -1.328125 -1.28125 -3.8125zm1.71875 0q0 1.890625 0.828125 2.828125q0.828125 0.9375 2.078125 0.9375q1.25 0 2.0625 -0.9375q0.828125 -0.953125 0.828125 -2.890625q0 -1.828125 -0.828125 -2.765625q-0.828125 -0.9375 -2.0625 -0.9375q-1.25 0 -2.078125 0.9375q-0.828125 0.9375 -0.828125 2.828125zm16.500732 -9.0l1.484375 0.015625q-0.109375 0.984375 -0.453125 1.375q-0.328125 0.390625 -0.875 0.515625q-0.53125 0.109375 -2.078125 0.109375q-2.078125 0 -2.828125 0.40625q-0.75 0.390625 -1.078125 1.265625q-0.328125 0.875 -0.375 2.25q0.640625 -0.9375 1.484375 -1.40625q0.84375 -0.46875 1.90625 -0.46875q1.9375 0 3.203125 1.34375q1.265625 1.328125 1.265625 3.59375q0 1.734375 -0.640625 2.84375q-0.640625 1.09375 -1.515625 1.703125q-0.875 0.59375 -2.390625 0.59375q-1.75 0 -2.71875 -0.796875q-0.96875 -0.796875 -1.5 -2.046875q-0.515625 -1.265625 -0.515625 -4.375q0 -3.90625 1.3125 -5.25q1.328125 -1.359375 4.078125 -1.359375q1.703125 0 1.9375 -0.046875q0.234375 -0.0625 0.296875 -0.265625zm-0.078125 8.953125q0 -1.53125 -0.734375 -2.515625q-0.71875 -0.984375 -2.046875 -0.984375q-1.390625 0 -2.140625 1.046875q-0.75 1.03125 -0.75 2.765625q0 1.71875 0.828125 2.625q0.828125 0.90625 2.046875 0.90625q1.25 0 2.015625 -1.046875q0.78125 -1.0625 0.78125 -2.796875zm12.9198 -4.890625l1.671875 0l0 9.859375l-1.671875 0l0 -9.859375zm-9.328125 0l1.65625 0l0 3.859375l2.125 0q2.0625 0 3.171875 0.8125q1.125 0.796875 1.125 2.203125q0 1.234375 -0.9375 2.109375q-0.921875 0.875 -2.96875 0.875l-4.171875 0l0 -9.859375zm1.65625 8.484375l1.765625 0q1.578125 0 2.25 -0.390625q0.6875 -0.390625 0.6875 -1.21875q0 -0.640625 -0.5 -1.140625q-0.5 -0.5 -2.21875 -0.5l-1.984375 0l0 3.25zm10.81543 -8.484375l8.0 0l0 1.390625l-3.171875 0l0 8.46875l-1.65625 0l0 -8.46875l-3.171875 0l0 -1.390625zm9.435333 0l1.671875 0l0 7.515625l4.625 -7.515625l1.8125 0l0 9.859375l-1.671875 0l0 -7.46875l-4.640625 7.46875l-1.796875 0l0 -9.859375zm17.171265 6.6875l1.71875 0.21875q-0.40625 1.5 -1.515625 2.34375q-1.09375 0.828125 -2.8125 0.828125q-2.15625 0 -3.421875 -1.328125q-1.265625 -1.328125 -1.265625 -3.734375q0 -2.484375 1.265625 -3.859375q1.28125 -1.375 3.328125 -1.375q1.984375 0 3.234375 1.34375q1.25 1.34375 1.25 3.796875q0 0.140625 -0.015625 0.4375l-7.34375 0q0.09375 1.625 0.921875 2.484375q0.828125 0.859375 2.0625 0.859375q0.90625 0 1.546875 -0.46875q0.65625 -0.484375 1.046875 -1.546875zm-5.484375 -2.703125l5.5 0q-0.109375 -1.234375 -0.625 -1.859375q-0.796875 -0.96875 -2.078125 -0.96875q-1.140625 0 -1.9375 0.78125q-0.78125 0.765625 -0.859375 2.046875z" fill-rule="nonzero"></path><path fill="#000000" fill-opacity="0.0" d="m431.83728 171.37007l111.1181 0l0 28.0l-111.1181 0z" fill-rule="nonzero"></path><path fill="#6aa84f" d="m447.11514 193.3682q0 -2.734375 1.53125 -4.0625q1.265625 -1.09375 3.09375 -1.09375q2.03125 0 3.3125 1.34375q1.296875 1.328125 1.296875 3.671875q0 1.90625 -0.578125 3.0q-0.5625 1.078125 -1.65625 1.6875q-1.078125 0.59375 -2.375 0.59375q-2.0625 0 -3.34375 -1.328125q-1.28125 -1.328125 -1.28125 -3.8125zm1.71875 0q0 1.890625 0.828125 2.828125q0.828125 0.9375 2.078125 0.9375q1.25 0 2.0625 -0.9375q0.828125 -0.953125 0.828125 -2.890625q0 -1.828125 -0.828125 -2.765625q-0.828125 -0.9375 -2.0625 -0.9375q-1.25 0 -2.078125 0.9375q-0.828125 0.9375 -0.828125 2.828125zm8.172577 4.921875l3.59375 -5.125l-3.328125 -4.734375l2.09375 0l1.515625 2.3125q0.421875 0.65625 0.671875 1.109375q0.421875 -0.609375 0.765625 -1.09375l1.65625 -2.328125l1.984375 0l-3.390625 4.640625l3.65625 5.21875l-2.046875 0l-2.03125 -3.0625l-0.53125 -0.828125l-2.59375 3.890625l-2.015625 0zm10.4375 3.78125l0 -13.640625l1.53125 0l0 1.28125q0.53125 -0.75 1.203125 -1.125q0.6875 -0.375 1.640625 -0.375q1.265625 0 2.234375 0.65625q0.96875 0.640625 1.453125 1.828125q0.5 1.1875 0.5 2.59375q0 1.515625 -0.546875 2.734375q-0.546875 1.203125 -1.578125 1.84375q-1.03125 0.640625 -2.171875 0.640625q-0.84375 0 -1.515625 -0.34375q-0.65625 -0.359375 -1.078125 -0.890625l0 4.796875l-1.671875 0zm1.515625 -8.65625q0 1.90625 0.765625 2.8125q0.78125 0.90625 1.875 0.90625q1.109375 0 1.890625 -0.9375q0.796875 -0.9375 0.796875 -2.921875q0 -1.875 -0.78125 -2.8125q-0.765625 -0.9375 -1.84375 -0.9375q-1.0625 0 -1.890625 1.0q-0.8125 1.0 -0.8125 2.890625zm15.297607 3.65625q-0.9375 0.796875 -1.796875 1.125q-0.859375 0.3125 -1.84375 0.3125q-1.609375 0 -2.484375 -0.78125q-0.875 -0.796875 -0.875 -2.03125q0 -0.734375 0.328125 -1.328125q0.328125 -0.59375 0.859375 -0.953125q0.53125 -0.359375 1.203125 -0.546875q0.5 -0.140625 1.484375 -0.25q2.03125 -0.25 2.984375 -0.578125q0 -0.34375 0 -0.4375q0 -1.015625 -0.46875 -1.4375q-0.640625 -0.5625 -1.90625 -0.5625q-1.171875 0 -1.734375 0.40625q-0.5625 0.40625 -0.828125 1.46875l-1.640625 -0.234375q0.234375 -1.046875 0.734375 -1.6875q0.515625 -0.640625 1.46875 -0.984375q0.96875 -0.359375 2.25 -0.359375q1.265625 0 2.046875 0.296875q0.78125 0.296875 1.15625 0.75q0.375 0.453125 0.515625 1.140625q0.09375 0.421875 0.09375 1.53125l0 2.234375q0 2.328125 0.09375 2.953125q0.109375 0.609375 0.4375 1.171875l-1.75 0q-0.265625 -0.515625 -0.328125 -1.21875zm-0.140625 -3.71875q-0.90625 0.359375 -2.734375 0.625q-1.03125 0.140625 -1.453125 0.328125q-0.421875 0.1875 -0.65625 0.546875q-0.234375 0.359375 -0.234375 0.796875q0 0.671875 0.5 1.125q0.515625 0.4375 1.484375 0.4375q0.96875 0 1.71875 -0.421875q0.75 -0.4375 1.109375 -1.15625q0.265625 -0.578125 0.265625 -1.671875l0 -0.609375zm4.094452 -4.921875l1.671875 0l0 4.109375l4.625 0l0 -4.109375l1.671875 0l0 9.859375l-1.671875 0l0 -4.375l-4.625 0l0 4.375l-1.671875 0l0 -9.859375zm10.302856 0l1.671875 0l0 4.109375l4.625 0l0 -4.109375l1.671875 0l0 9.859375l-1.671875 0l0 -4.375l-4.625 0l0 4.375l-1.671875 0l0 -9.859375zm9.662201 4.9375q0 -2.734375 1.53125 -4.0625q1.265625 -1.09375 3.09375 -1.09375q2.03125 0 3.3125 1.34375q1.296875 1.328125 1.296875 3.671875q0 1.90625 -0.578125 3.0q-0.5625 1.078125 -1.65625 1.6875q-1.078125 0.59375 -2.375 0.59375q-2.0625 0 -3.34375 -1.328125q-1.28125 -1.328125 -1.28125 -3.8125zm1.71875 0q0 1.890625 0.828125 2.828125q0.828125 0.9375 2.078125 0.9375q1.25 0 2.0625 -0.9375q0.828125 -0.953125 0.828125 -2.890625q0 -1.828125 -0.828125 -2.765625q-0.828125 -0.9375 -2.0625 -0.9375q-1.25 0 -2.078125 0.9375q-0.828125 0.9375 -0.828125 2.828125zm16.031982 1.75l1.71875 0.21875q-0.40625 1.5 -1.515625 2.34375q-1.09375 0.828125 -2.8125 0.828125q-2.15625 0 -3.421875 -1.328125q-1.265625 -1.328125 -1.265625 -3.734375q0 -2.484375 1.265625 -3.859375q1.28125 -1.375 3.328125 -1.375q1.984375 0 3.234375 1.34375q1.25 1.34375 1.25 3.796875q0 0.140625 -0.015625 0.4375l-7.34375 0q0.09375 1.625 0.921875 2.484375q0.828125 0.859375 2.0625 0.859375q0.90625 0 1.546875 -0.46875q0.65625 -0.484375 1.046875 -1.546875zm-5.484375 -2.703125l5.5 0q-0.109375 -1.234375 -0.625 -1.859375q-0.796875 -0.96875 -2.078125 -0.96875q-1.140625 0 -1.9375 0.78125q-0.78125 0.765625 -0.859375 2.046875z" fill-rule="nonzero"></path><path fill="#6aa84f" d="m453.25525 224.08694l-0.171875 -1.5625q0.546875 0.140625 0.953125 0.140625q0.546875 0 0.875 -0.1875q0.34375 -0.1875 0.5625 -0.515625q0.15625 -0.25 0.5 -1.25q0.046875 -0.140625 0.15625 -0.40625l-3.734375 -9.875l1.796875 0l2.046875 5.71875q0.40625 1.078125 0.71875 2.28125q0.28125 -1.15625 0.6875 -2.25l2.09375 -5.75l1.671875 0l-3.75 10.03125q-0.59375 1.625 -0.9375 2.234375q-0.4375 0.828125 -1.015625 1.203125q-0.578125 0.390625 -1.375 0.390625q-0.484375 0 -1.078125 -0.203125zm15.84375 -7.40625l1.640625 0.21875q-0.265625 1.6875 -1.375 2.65625q-1.109375 0.953125 -2.734375 0.953125q-2.015625 0 -3.25 -1.3125q-1.21875 -1.328125 -1.21875 -3.796875q0 -1.59375 0.515625 -2.78125q0.53125 -1.203125 1.609375 -1.796875q1.09375 -0.609375 2.359375 -0.609375q1.609375 0 2.625 0.8125q1.015625 0.8125 1.3125 2.3125l-1.625 0.25q-0.234375 -1.0 -0.828125 -1.5q-0.59375 -0.5 -1.421875 -0.5q-1.265625 0 -2.0625 0.90625q-0.78125 0.90625 -0.78125 2.859375q0 1.984375 0.765625 2.890625q0.765625 0.890625 1.984375 0.890625q0.984375 0 1.640625 -0.59375q0.65625 -0.609375 0.84375 -1.859375zm3.703125 -6.25l7.765625 0l0 9.859375l-1.65625 0l0 -8.46875l-4.4375 0l0 4.90625q0 1.71875 -0.109375 2.265625q-0.109375 0.546875 -0.609375 0.953125q-0.5 0.40625 -1.453125 0.40625q-0.578125 0 -1.34375 -0.078125l0 -1.390625l0.734375 0q0.515625 0 0.734375 -0.09375q0.234375 -0.109375 0.296875 -0.34375q0.078125 -0.234375 0.078125 -1.515625l0 -6.5zm9.448334 4.9375q0 -2.734375 1.53125 -4.0625q1.265625 -1.09375 3.09375 -1.09375q2.03125 0 3.3125 1.34375q1.296875 1.328125 1.296875 3.671875q0 1.90625 -0.578125 3.0q-0.5625 1.078125 -1.65625 1.6875q-1.078125 0.59375 -2.375 0.59375q-2.0625 0 -3.34375 -1.328125q-1.28125 -1.328125 -1.28125 -3.8125zm1.71875 0q0 1.890625 0.828125 2.828125q0.828125 0.9375 2.078125 0.9375q1.25 0 2.0625 -0.9375q0.828125 -0.953125 0.828125 -2.890625q0 -1.828125 -0.828125 -2.765625q-0.828125 -0.9375 -2.0625 -0.9375q-1.25 0 -2.078125 0.9375q-0.828125 0.9375 -0.828125 2.828125zm9.297607 -4.9375l3.84375 0q1.421875 0 2.109375 0.25q0.6875 0.234375 1.1875 0.859375q0.5 0.625 0.5 1.515625q0 0.703125 -0.296875 1.234375q-0.28125 0.515625 -0.875 0.875q0.703125 0.21875 1.15625 0.859375q0.46875 0.640625 0.46875 1.515625q-0.09375 1.390625 -1.015625 2.078125q-0.90625 0.671875 -2.640625 0.671875l-4.4375 0l0 -9.859375zm1.671875 4.15625l1.78125 0q1.0625 0 1.453125 -0.109375q0.40625 -0.109375 0.71875 -0.453125q0.3125 -0.34375 0.3125 -0.8125q0 -0.78125 -0.546875 -1.078125q-0.546875 -0.3125 -1.890625 -0.3125l-1.828125 0l0 2.765625zm0 4.328125l2.1875 0q1.421875 0 1.953125 -0.328125q0.53125 -0.328125 0.5625 -1.140625q0 -0.46875 -0.3125 -0.875q-0.3125 -0.40625 -0.796875 -0.5q-0.484375 -0.109375 -1.578125 -0.109375l-2.015625 0l0 2.953125zm8.223633 -8.484375l1.671875 0l0 7.515625l4.625 -7.515625l1.8125 0l0 9.859375l-1.671875 0l0 -7.46875l-4.640625 7.46875l-1.796875 0l0 -9.859375zm17.171234 6.6875l1.71875 0.21875q-0.40625 1.5 -1.515625 2.34375q-1.09375 0.828125 -2.8125 0.828125q-2.15625 0 -3.421875 -1.328125q-1.265625 -1.328125 -1.265625 -3.734375q0 -2.484375 1.265625 -3.859375q1.28125 -1.375 3.328125 -1.375q1.984375 0 3.234375 1.34375q1.25 1.34375 1.25 3.796875q0 0.140625 -0.015625 0.4375l-7.34375 0q0.09375 1.625 0.921875 2.484375q0.828125 0.859375 2.0625 0.859375q0.90625 0 1.546875 -0.46875q0.65625 -0.484375 1.046875 -1.546875zm-5.484375 -2.703125l5.5 0q-0.109375 -1.234375 -0.625 -1.859375q-0.796875 -0.96875 -2.078125 -0.96875q-1.140625 0 -1.9375 0.78125q-0.78125 0.765625 -0.859375 2.046875z" fill-rule="nonzero"></path><path fill="#000000" fill-opacity="0.0" d="m488.49606 21.900263l131.811 0l0 27.999998l-131.811 0z" fill-rule="nonzero"></path><path fill="#0000ff" d="m511.66833 38.960884l3.84375 0q1.421875 0 2.109375 0.25q0.6875 0.234375 1.1875 0.859375q0.5 0.625 0.5 1.515625q0 0.703125 -0.296875 1.234375q-0.28125 0.515625 -0.875 0.875q0.703125 0.21875 1.15625 0.859375q0.46875 0.640625 0.46875 1.515625q-0.09375 1.390625 -1.015625 2.078125q-0.90625 0.671875 -2.640625 0.671875l-4.4375 0l0 -9.859375zm1.671875 4.15625l1.78125 0q1.0625 0 1.453125 -0.109375q0.40625 -0.109375 0.71875 -0.453125q0.3125 -0.34375 0.3125 -0.8125q0 -0.78125 -0.546875 -1.078125q-0.546875 -0.3125 -1.890625 -0.3125l-1.828125 0l0 2.765625zm0 4.328125l2.1875 0q1.421875 0 1.953125 -0.328125q0.53125 -0.328125 0.5625 -1.140625q0 -0.46875 -0.3125 -0.875q-0.3125 -0.40625 -0.796875 -0.5q-0.484375 -0.109375 -1.578125 -0.109375l-2.015625 0l0 2.953125zm17.598633 -8.484375l1.671875 0l0 9.859375l-1.671875 0l0 -9.859375zm-9.328125 0l1.65625 0l0 3.859375l2.125 0q2.0625 0 3.171875 0.8125q1.125 0.796875 1.125 2.203125q0 1.234375 -0.9375 2.109375q-0.921875 0.875 -2.96875 0.875l-4.171875 0l0 -9.859375zm1.65625 8.484375l1.765625 0q1.578125 0 2.25 -0.390625q0.6875 -0.390625 0.6875 -1.21875q0 -0.640625 -0.5 -1.140625q-0.5 -0.5 -2.21875 -0.5l-1.984375 0l0 3.25zm10.59668 1.375l3.59375 -5.125l-3.328125 -4.734375l2.09375 0l1.515625 2.3125q0.421875 0.65625 0.671875 1.109375q0.421875 -0.609375 0.765625 -1.09375l1.65625 -2.328125l1.984375 0l-3.390625 4.640625l3.65625 5.21875l-2.046875 0l-2.03125 -3.0625l-0.53125 -0.828125l-2.59375 3.890625l-2.015625 0zm9.8125 -4.921875q0 -2.734375 1.53125 -4.0625q1.265625 -1.09375 3.09375 -1.09375q2.03125 0 3.3125 1.34375q1.296875 1.328125 1.296875 3.671875q0 1.90625 -0.578125 3.0q-0.5625 1.078125 -1.65625 1.6875q-1.078125 0.59375 -2.375 0.59375q-2.0625 0 -3.34375 -1.328125q-1.28125 -1.328125 -1.28125 -3.8125zm1.71875 0q0 1.890625 0.828125 2.828125q0.828125 0.9375 2.078125 0.9375q1.25 0 2.0625 -0.9375q0.828125 -0.953125 0.828125 -2.890625q0 -1.828125 -0.828125 -2.765625q-0.828125 -0.9375 -2.0625 -0.9375q-1.25 0 -2.078125 0.9375q-0.828125 0.9375 -0.828125 2.828125zm10.594482 -4.9375l6.875 0l0 8.484375l1.0625 0l0 4.171875l-1.375 0l0 -2.796875l-7.75 0l0 2.796875l-1.375 0l0 -4.171875l0.875 0q1.765625 -2.390625 1.6875 -8.484375zm1.40625 1.390625q-0.1875 4.796875 -1.484375 7.09375l5.296875 0l0 -7.09375l-3.8125 0zm8.182678 -1.390625l1.671875 0l0 4.109375l4.625 0l0 -4.109375l1.671875 0l0 9.859375l-1.671875 0l0 -4.375l-4.625 0l0 4.375l-1.671875 0l0 -9.859375zm19.662231 0l1.671875 0l0 9.859375l-1.671875 0l0 -9.859375zm-9.328125 0l1.65625 0l0 3.859375l2.125 0q2.0625 0 3.171875 0.8125q1.125 0.796875 1.125 2.203125q0 1.234375 -0.9375 2.109375q-0.921875 0.875 -2.96875 0.875l-4.171875 0l0 -9.859375zm1.65625 8.484375l1.765625 0q1.578125 0 2.25 -0.390625q0.6875 -0.390625 0.6875 -1.21875q0 -0.640625 -0.5 -1.140625q-0.5 -0.5 -2.21875 -0.5l-1.984375 0l0 3.25zm18.456055 -1.796875l1.71875 0.21875q-0.40625 1.5 -1.515625 2.34375q-1.09375 0.828125 -2.8125 0.828125q-2.15625 0 -3.421875 -1.328125q-1.265625 -1.328125 -1.265625 -3.734375q0 -2.484375 1.265625 -3.859375q1.28125 -1.375 3.328125 -1.375q1.984375 0 3.234375 1.34375q1.25 1.34375 1.25 3.796875q0 0.140625 -0.015625 0.4375l-7.34375 0q0.09375 1.625 0.921875 2.484375q0.828125 0.859375 2.0625 0.859375q0.90625 0 1.546875 -0.46875q0.65625 -0.484375 1.046875 -1.546875zm-5.484375 -2.703125l5.5 0q-0.109375 -1.234375 -0.625 -1.859375q-0.796875 -0.96875 -2.078125 -0.96875q-1.140625 0 -1.9375 0.78125q-0.78125 0.765625 -0.859375 2.046875z" fill-rule="nonzero"></path><path fill="#0000ff" d="m501.25162 60.960884l3.84375 0q1.421875 0 2.109375 0.25q0.6875 0.234375 1.1875 0.859375q0.5 0.625 0.5 1.515625q0 0.703125 -0.296875 1.234375q-0.28125 0.515625 -0.875 0.875q0.703125 0.21875 1.15625 0.859375q0.46875 0.640625 0.46875 1.515625q-0.09375 1.390625 -1.015625 2.078125q-0.90625 0.671875 -2.640625 0.671875l-4.4375 0l0 -9.859375zm1.671875 4.15625l1.78125 0q1.0625 0 1.453125 -0.109375q0.40625 -0.109375 0.71875 -0.453125q0.3125 -0.34375 0.3125 -0.8125q0 -0.78125 -0.546875 -1.078125q-0.546875 -0.3125 -1.890625 -0.3125l-1.828125 0l0 2.765625zm0 4.328125l2.1875 0q1.421875 0 1.953125 -0.328125q0.53125 -0.328125 0.5625 -1.140625q0 -0.46875 -0.3125 -0.875q-0.3125 -0.40625 -0.796875 -0.5q-0.484375 -0.109375 -1.578125 -0.109375l-2.015625 0l0 2.953125zm7.598633 -3.546875q0 -2.734375 1.5312805 -4.0625q1.265625 -1.09375 3.09375 -1.09375q2.03125 0 3.3125 1.34375q1.296875 1.328125 1.296875 3.671875q0 1.90625 -0.578125 3.0q-0.5625 1.078125 -1.65625 1.6875q-1.078125 0.59375 -2.375 0.59375q-2.0625 0 -3.3437805 -1.328125q-1.28125 -1.328125 -1.28125 -3.8125zm1.7187805 0q0 1.890625 0.828125 2.828125q0.828125 0.9375 2.078125 0.9375q1.25 0 2.0625 -0.9375q0.828125 -0.953125 0.828125 -2.890625q0 -1.828125 -0.828125 -2.765625q-0.828125 -0.9375 -2.0625 -0.9375q-1.25 0 -2.078125 0.9375q-0.828125 0.9375 -0.828125 2.828125zm11.469421 0.46875l0 -1.3125q1.046875 0 1.4375 -0.078125q0.390625 -0.078125 0.734375 -0.4375q0.34375 -0.375 0.34375 -0.9375q0 -0.671875 -0.453125 -1.078125q-0.453125 -0.40625 -1.171875 -0.40625q-1.40625 0 -1.96875 1.65625l-1.59375 -0.25q0.75 -2.78125 3.578125 -2.78125q1.578125 0 2.46875 0.875q0.90625 0.859375 0.90625 2.046875q0 1.203125 -1.171875 1.921875q0.75 0.40625 1.109375 1.03125q0.375 0.609375 0.375 1.453125q0 1.328125 -0.96875 2.15625q-0.953125 0.8125 -2.6875 0.8125q-3.375 0 -3.90625 -3.0l1.5625 -0.328125q0.21875 0.953125 0.859375 1.46875q0.65625 0.515625 1.5 0.515625q0.84375 0 1.40625 -0.46875q0.5625 -0.484375 0.5625 -1.234375q0 -0.5625 -0.359375 -0.984375q-0.34375 -0.4375 -0.75 -0.546875q-0.390625 -0.109375 -1.4375 -0.109375q-0.078125 0 -0.375 0.015625zm7.678833 -5.40625l6.875 0l0 8.484375l1.0625 0l0 4.171875l-1.375 0l0 -2.796875l-7.75 0l0 2.796875l-1.375 0l0 -4.171875l0.875 0q1.765625 -2.390625 1.6875 -8.484375zm1.40625 1.390625q-0.1875 4.796875 -1.484375 7.09375l5.296875 0l0 -7.09375l-3.8125 0zm14.917114 5.296875l1.71875 0.21875q-0.40625 1.5 -1.515625 2.34375q-1.09375 0.828125 -2.8125 0.828125q-2.15625 0 -3.421875 -1.328125q-1.265625 -1.328125 -1.265625 -3.734375q0 -2.484375 1.265625 -3.859375q1.28125 -1.375 3.328125 -1.375q1.984375 0 3.234375 1.34375q1.25 1.34375 1.25 3.796875q0 0.140625 -0.015625 0.4375l-7.34375 0q0.09375 1.625 0.921875 2.484375q0.828125 0.859375 2.0625 0.859375q0.90625 0 1.546875 -0.46875q0.65625 -0.484375 1.046875 -1.546875zm-5.484375 -2.703125l5.5 0q-0.109375 -1.234375 -0.625 -1.859375q-0.796875 -0.96875 -2.078125 -0.96875q-1.140625 0 -1.9375 0.78125q-0.78125 0.765625 -0.859375 2.046875zm9.110107 -3.984375l1.671814 0l0 7.515625l4.625 -7.515625l1.8125 0l0 9.859375l-1.671875 0l0 -7.46875l-4.640625 7.46875l-1.796814 0l0 -9.859375zm5.515564 -3.71875l1.140625 0q-0.140625 1.15625 -0.859375 1.78125q-0.703125 0.625 -1.875 0.625q-1.1875 0 -1.90625 -0.609375q-0.703125 -0.625 -0.84375 -1.796875l1.140625 0q0.140625 0.625 0.515625 0.9375q0.390625 0.3125 1.046875 0.3125q0.75 0 1.125 -0.296875q0.390625 -0.3125 0.515625 -0.953125zm11.34314 9.96875l1.640625 0.21875q-0.265625 1.6875 -1.375 2.65625q-1.109375 0.953125 -2.734375 0.953125q-2.015625 0 -3.25 -1.3125q-1.21875 -1.328125 -1.21875 -3.796875q0 -1.59375 0.515625 -2.78125q0.53125 -1.203125 1.609375 -1.796875q1.09375 -0.609375 2.359375 -0.609375q1.609375 0 2.625 0.8125q1.015625 0.8125 1.3125 2.3125l-1.625 0.25q-0.234375 -1.0 -0.828125 -1.5q-0.59375 -0.5 -1.421875 -0.5q-1.265625 0 -2.0625 0.90625q-0.78125 0.90625 -0.78125 2.859375q0 1.984375 0.765625 2.890625q0.765625 0.890625 1.984375 0.890625q0.984375 0 1.640625 -0.59375q0.65625 -0.609375 0.84375 -1.859375zm2.0 -6.25l8.0 0l0 1.390625l-3.171875 0l0 8.46875l-1.65625 0l0 -8.46875l-3.171875 0l0 -1.390625zm9.450989 0l3.84375 0q1.421875 0 2.109375 0.25q0.6875 0.234375 1.1875 0.859375q0.5 0.625 0.5 1.515625q0 0.703125 -0.296875 1.234375q-0.28125 0.515625 -0.875 0.875q0.703125 0.21875 1.15625 0.859375q0.46875 0.640625 0.46875 1.515625q-0.09375 1.390625 -1.015625 2.078125q-0.90625 0.671875 -2.640625 0.671875l-4.4375 0l0 -9.859375zm1.671875 4.15625l1.78125 0q1.0625 0 1.453125 -0.109375q0.40625 -0.109375 0.71875 -0.453125q0.3125 -0.34375 0.3125 -0.8125q0 -0.78125 -0.546875 -1.078125q-0.546875 -0.3125 -1.890625 -0.3125l-1.828125 0l0 2.765625zm0 4.328125l2.1875 0q1.421875 0 1.953125 -0.328125q0.53125 -0.328125 0.5625 -1.140625q0 -0.46875 -0.3125 -0.875q-0.3125 -0.40625 -0.796875 -0.5q-0.484375 -0.109375 -1.578125 -0.109375l-2.015625 0l0 2.953125zm8.223633 -8.484375l1.671875 0l0 7.515625l4.625 -7.515625l1.8125 0l0 9.859375l-1.671875 0l0 -7.46875l-4.640625 7.46875l-1.796875 0l0 -9.859375zm18.18689 0l0 9.859375l-1.671875 0l0 -3.84375l-0.953125 0q-0.890625 0 -1.328125 0.234375q-0.421875 0.21875 -1.25 1.453125l-1.453125 2.15625l-2.078125 0l1.8125 -2.65625q0.8125 -1.21875 1.640625 -1.375q-1.4375 -0.1875 -2.125 -1.015625q-0.6875 -0.84375 -0.6875 -1.9375q0 -1.265625 0.90625 -2.0625q0.90625 -0.8125 2.609375 -0.8125l4.578125 0zm-1.671875 1.390625l-2.375 0q-1.484375 0 -1.921875 0.46875q-0.4375 0.453125 -0.4375 1.078125q0 0.875 0.640625 1.296875q0.640625 0.40625 2.25 0.40625l1.84375 0l0 -3.25z" fill-rule="nonzero"></path><path fill="#000000" fill-opacity="0.0" d="m411.6483 74.144356l17.13388 41.039368" fill-rule="nonzero"></path><path stroke="#ff0000" stroke-width="2.0" stroke-linejoin="round" stroke-linecap="butt" d="m411.6483 74.144356l12.51062 29.965714" fill-rule="evenodd"></path><path fill="#ff0000" stroke="#ff0000" stroke-width="2.0" stroke-linecap="butt" d="m421.11047 105.3828l6.545227 7.102829l-0.44833374 -9.64827z" fill-rule="evenodd"></path><path fill="#000000" fill-opacity="0.0" d="m531.65356 81.419945l-16.0 26.48819" fill-rule="nonzero"></path><path stroke="#0000ff" stroke-width="2.0" stroke-linejoin="round" stroke-linecap="butt" d="m531.65356 81.419945l-9.795593 16.216644" fill-rule="evenodd"></path><path fill="#0000ff" stroke="#0000ff" stroke-width="2.0" stroke-linecap="butt" d="m519.03033 95.92857l-1.8650513 9.476898l7.5203857 -6.0608673z" fill-rule="evenodd"></path><path fill="#000000" fill-opacity="0.0" d="m539.04987 81.93438l9.2283325 27.716537" fill-rule="nonzero"></path><path stroke="#0000ff" stroke-width="2.0" stroke-linejoin="round" stroke-linecap="butt" d="m539.04987 81.93438l5.4375 16.331047" fill-rule="evenodd"></path><path fill="#0000ff" stroke="#0000ff" stroke-width="2.0" stroke-linecap="butt" d="m541.3531 99.309006l6.001465 7.567833l0.26708984 -9.654991z" fill-rule="evenodd"></path><path fill="#000000" fill-opacity="0.0" d="m488.49606 180.03937l-14.141724 -32.818893" fill-rule="nonzero"></path><path stroke="#6aa84f" stroke-width="2.0" stroke-linejoin="round" stroke-linecap="butt" d="m488.49606 180.03937l-9.393005 -21.798477" fill-rule="evenodd"></path><path fill="#6aa84f" stroke="#6aa84f" stroke-width="2.0" stroke-linecap="butt" d="m482.13684 156.93362l-6.6254883 -7.028015l0.55789185 9.642548z" fill-rule="evenodd"></path></g></svg>

