<?xml version="1.0" standalone="yes"?>

<svg version="1.1" viewBox="0.0 0.0 357.3937007874016 198.35958005249344" fill="none" stroke="none" stroke-linecap="square" stroke-miterlimit="10" xmlns="http://www.w3.org/2000/svg" xmlns:xlink="http://www.w3.org/1999/xlink"><clipPath id="p.0"><path d="m0 0l357.3937 0l0 198.35957l-357.3937 0l0 -198.35957z" clip-rule="nonzero"></path></clipPath><g clip-path="url(#p.0)"><path fill="#000000" fill-opacity="0.0" d="m0 0l357.3937 0l0 198.35957l-357.3937 0z" fill-rule="nonzero"></path><path fill="#cfe2f3" d="m4.74019 130.8847l0 0c0 -4.3168945 3.499535 -7.816429 7.8164296 -7.816429l45.028557 0c2.0730438 0 4.061184 0.8235092 5.52705 2.2893753c1.4658661 1.4658661 2.2893753 3.45401 2.2893753 5.527054l0 31.26477c0 4.3168945 -3.4995308 7.816437 -7.8164253 7.816437l-45.028557 0l0 0c-4.3168945 0 -7.8164296 -3.4995422 -7.8164296 -7.816437z" fill-rule="nonzero"></path><path stroke="#000000" stroke-width="4.0" stroke-linejoin="round" stroke-linecap="butt" d="m4.74019 130.8847l0 0c0 -4.3168945 3.499535 -7.816429 7.8164296 -7.816429l45.028557 0c2.0730438 0 4.061184 0.8235092 5.52705 2.2893753c1.4658661 1.4658661 2.2893753 3.45401 2.2893753 5.527054l0 31.26477c0 4.3168945 -3.4995308 7.816437 -7.8164253 7.816437l-45.028557 0l0 0c-4.3168945 0 -7.8164296 -3.4995422 -7.8164296 -7.816437z" fill-rule="nonzero"></path><path fill="#000000" d="m30.66429 146.73396q0 -2.421875 0.5 -3.890625q0.5 -1.46875 1.4687481 -2.265625q0.984375 -0.796875 2.46875 -0.796875q1.09375 0 1.921875 0.4375q0.828125 0.4375 1.359375 1.28125q0.546875 0.828125 0.84375 2.015625q0.3125 1.1875 0.3125 3.21875q0 2.390625 -0.5 3.859375q-0.484375 1.46875 -1.46875 2.28125q-0.96875 0.796875 -2.46875 0.796875q-1.96875 0 -3.078125 -1.40625q-1.3593731 -1.703125 -1.3593731 -5.53125zm1.7187481 0q0 3.34375 0.78125 4.453125q0.796875 1.109375 1.9375 1.109375q1.15625 0 1.9375 -1.109375q0.78125 -1.125 0.78125 -4.453125q0 -3.359375 -0.78125 -4.46875q-0.78125 -1.109375 -1.953125 -1.109375q-1.15625 0 -1.828125 0.984375q-0.875 1.234375 -0.875 4.59375z" fill-rule="nonzero"></path><path fill="#cfe2f3" d="m156.60107 79.45092l0 0c0 -4.3168945 3.499527 -7.816429 7.8164215 -7.816429l45.028564 0c2.0730438 0 4.0611877 0.82351685 5.527054 2.289383c1.4658508 1.4658661 2.2893677 3.4540024 2.2893677 5.527046l0 31.264786c0 4.3168945 -3.499527 7.816429 -7.8164215 7.816429l-45.028564 0l0 0c-4.3168945 0 -7.8164215 -3.4995346 -7.8164215 -7.816429z" fill-rule="nonzero"></path><path stroke="#000000" stroke-width="2.0" stroke-linejoin="round" stroke-linecap="butt" d="m156.60107 79.45092l0 0c0 -4.3168945 3.499527 -7.816429 7.8164215 -7.816429l45.028564 0c2.0730438 0 4.0611877 0.82351685 5.527054 2.289383c1.4658508 1.4658661 2.2893677 3.4540024 2.2893677 5.527046l0 31.264786c0 4.3168945 -3.499527 7.816429 -7.8164215 7.816429l-45.028564 0l0 0c-4.3168945 0 -7.8164215 -3.4995346 -7.8164215 -7.816429z" fill-rule="nonzero"></path><path fill="#000000" d="m188.82204 102.00331l-1.671875 0l0 -10.640625q-0.59375 0.578125 -1.578125 1.15625q-0.984375 0.5625 -1.765625 0.859375l0 -1.625q1.40625 -0.65625 2.453125 -1.59375q1.046875 -0.9375 1.484375 -1.8125l1.078125 0l0 13.65625z" fill-rule="nonzero"></path><path fill="#000000" fill-opacity="0.0" d="m35.0709 123.068275c0 -14.0 60.771652 -28.0 121.54331 -28.0" fill-rule="nonzero"></path><path stroke="#ff0000" stroke-width="2.0" stroke-linejoin="round" stroke-linecap="butt" d="m35.0709 123.068275c0 -7.0 15.192909 -14.0 37.982277 -19.25c11.394691 -2.625 24.688484 -4.8125 38.931847 -6.34375c7.1216736 -0.765625 14.480743 -1.3671875 21.958504 -1.7773438c1.8694458 -0.10253906 3.7463074 -0.19312286 5.628723 -0.2713089c0.9412079 -0.039093018 1.8838196 -0.07508087 2.8275757 -0.107925415c0.47187805 -0.016426086 0.944046 -0.032066345 1.4164734 -0.04689789l0.7992401 -0.023742676" fill-rule="evenodd"></path><path fill="#ff0000" stroke="#ff0000" stroke-width="2.0" stroke-linecap="butt" d="m144.66483 98.5504l9.025894 -3.438507l-9.124466 -3.1676865z" fill-rule="evenodd"></path><path fill="#000000" fill-opacity="0.0" d="m320.82944 169.96652c0 12.5 -71.44095 24.992126 -142.8819 25.0c-71.44094 0.007873535 -142.88188 -12.468506 -142.88188 -24.937012" fill-rule="nonzero"></path><path stroke="#000000" stroke-width="2.0" stroke-linejoin="round" stroke-linecap="butt" d="m320.82944 169.96652c0 12.5 -71.44095 24.992111 -142.8819 25.0c-35.72046 0.0039367676 -71.44094 -3.1131897 -98.23129 -7.789871c-13.39518 -2.3383331 -24.557823 -5.066559 -32.371677 -7.9894867c-0.97673035 -0.36535645 -1.9011383 -0.7337799 -2.771038 -1.1048431l-0.44137573 -0.19161987" fill-rule="evenodd"></path><path fill="#000000" stroke="#000000" stroke-width="2.0" stroke-linecap="butt" d="m46.29626 175.3948l-9.021545 -3.4499054l4.6933403 8.441711z" fill-rule="evenodd"></path><path fill="#000000" fill-opacity="0.0" d="m121.026276 -12.322803l131.81102 0l0 48.188976l-131.81102 0z" fill-rule="nonzero"></path><path fill="#000000" d="m139.96378 15.482823l2.0625 0.21875q-0.4375 1.531249 -2.046875 2.921874q-1.59375 1.375 -3.8125 1.375q-1.375 0 -2.53125 -0.640625q-1.15625 -0.640625 -1.765625 -1.859375q-0.59375 -1.21875 -0.59375 -2.781249q0 -2.03125 0.9375 -3.9375q0.9375 -1.921875 2.4375 -2.859375q1.5 -0.9375 3.25 -0.9375q2.234375 0 3.5625 1.390625q1.328125 1.375 1.328125 3.765625q0 0.921875 -0.171875 1.875l-9.15625 0q-0.046875 0.375 -0.046875 0.65625q0 1.749999 0.796875 2.671874q0.8125 0.921875 1.96875 0.921875q1.09375 0 2.140625 -0.71875q1.0625 -0.71875 1.640625 -2.062499zm-6.15625 -3.078125l6.984375 0q0 -0.328125 0 -0.46875q0 -1.59375 -0.796875 -2.4375q-0.796875 -0.859375 -2.046875 -0.859375q-1.359375 0 -2.484375 0.9375q-1.109375 0.9375 -1.65625 2.828125z" fill-rule="nonzero"></path><path fill="#000000" d="m149.34268 28.717197l-1.40625 0l0 -8.96875q-0.515625 0.484375 -1.34375 0.96875q-0.8125 0.484375 -1.46875 0.734375l0 -1.359375q1.171875 -0.5625 2.046875 -1.34375q0.890625 -0.796875 1.265625 -1.53125l0.90625 0l0 11.5z" fill-rule="nonzero"></path><path fill="#000000" d="m153.89737 24.482822l0 -21.953125l4.65625 0l0 1.75l-2.546875 0l0 18.46875l2.546875 0l0 1.734375l-4.65625 0z" fill-rule="nonzero"></path><path fill="#000000" d="m158.90909 19.717197l5.40625 -6.312499l-3.09375 -6.140625l2.34375 0l1.046875 2.21875q0.59375 1.25 1.0625 2.375l3.578125 -4.59375l2.59375 0l-5.234375 6.296875l3.140625 6.156249l-2.34375 0l-1.234375 -2.53125q-0.40625 -0.8125 -0.90625 -1.999999l-3.703125 4.531249l-2.65625 0z" fill-rule="nonzero"></path><path fill="#000000" d="m176.04971 24.482822l-4.65625 0l0 -1.734375l2.546875 0l0 -18.46875l-2.546875 0l0 -1.75l4.65625 0l0 21.953125zm1.5585938 -4.46875l4.984375 -17.765625l1.6875 0l-4.96875 17.765625l-1.703125 0z" fill-rule="nonzero"></path><path fill="#000000" d="m184.74503 19.717197l0.34375 -1.640625l6.6875 -7.531249q0.71875 -0.796875 1.59375 -1.65625q-1.515625 0.15625 -2.171875 0.15625l-4.625 0l0.375 -1.78125l9.625 0l-0.28125 1.34375l-6.75 7.578124q-0.578125 0.640625 -1.71875 1.765625q1.78125 -0.09375 2.4375 -0.09375l4.890625 0l-0.390625 1.859375l-10.015625 0z" fill-rule="nonzero"></path><path fill="#000000" d="m196.94815 23.060947q0 -2.03125 0.40625 -3.265625q0.421875 -1.234375 1.25 -1.90625q0.828125 -0.671875 2.078125 -0.671875q0.921875 0 1.609375 0.375q0.703125 0.359375 1.15625 1.0625q0.453125 0.703125 0.703125 1.703125q0.265625 1.0 0.265625 2.703125q0 2.015625 -0.421875 3.265625q-0.40625 1.234375 -1.234375 1.921875q-0.828125 0.671875 -2.078125 0.671875q-1.65625 0 -2.609375 -1.203125q-1.125 -1.421875 -1.125 -4.65625zm1.4375 0q0 2.828125 0.65625 3.765625q0.671875 0.921875 1.640625 0.921875q0.96875 0 1.625 -0.9375q0.65625 -0.9375 0.65625 -3.75q0 -2.828125 -0.65625 -3.75q-0.65625 -0.9375 -1.640625 -0.9375q-0.96875 0 -1.546875 0.828125q-0.734375 1.046875 -0.734375 3.859375z" fill-rule="nonzero"></path><path fill="#000000" d="m207.31534 19.717197l0 -2.40625l2.390625 0l0 2.40625q0 1.328125 -0.46875 2.140625q-0.46875 0.8125 -1.484375 1.265625l-0.578125 -0.90625q0.65625 -0.296875 0.96875 -0.875q0.328125 -0.5625 0.359375 -1.625l-1.1875 0z" fill-rule="nonzero"></path><path fill="#000000" d="m212.31143 19.717197l0.34375 -1.640625l6.6875 -7.531249q0.71875 -0.796875 1.59375 -1.65625q-1.515625 0.15625 -2.171875 0.15625l-4.625 0l0.375 -1.78125l9.625 0l-0.28125 1.34375l-6.75 7.578124q-0.578125 0.640625 -1.71875 1.765625q1.78125 -0.09375 2.4375 -0.09375l4.890625 0l-0.390625 1.859375l-10.015625 0z" fill-rule="nonzero"></path><path fill="#000000" d="m229.81143 28.717197l-1.40625 0l0 -8.96875q-0.515625 0.484375 -1.34375 0.96875q-0.8125 0.484375 -1.46875 0.734375l0 -1.359375q1.171875 -0.5625 2.046875 -1.34375q0.890625 -0.796875 1.265625 -1.53125l0.90625 0l0 11.5z" fill-rule="nonzero"></path><path fill="#000000" fill-opacity="0.0" d="m235.37274 53.88717l140.8504 0l0 44.125984l-140.8504 0z" fill-rule="nonzero"></path><path fill="#000000" d="m254.31024 80.25578l2.0625 0.21875q-0.4375 1.53125 -2.046875 2.921875q-1.59375 1.375 -3.8125 1.375q-1.375 0 -2.53125 -0.640625q-1.15625 -0.640625 -1.765625 -1.859375q-0.59375 -1.21875 -0.59375 -2.78125q0 -2.03125 0.9375 -3.9375q0.9375 -1.921875 2.4375 -2.859375q1.5 -0.9375 3.25 -0.9375q2.234375 0 3.5625 1.390625q1.328125 1.375 1.328125 3.765625q0 0.921875 -0.171875 1.875l-9.15625 0q-0.046875 0.375 -0.046875 0.65625q0 1.75 0.796875 2.671875q0.8125 0.921875 1.96875 0.921875q1.09375 0 2.140625 -0.71875q1.0625 -0.71875 1.640625 -2.0625zm-6.15625 -3.078125l6.984375 0q0 -0.328125 0 -0.46875q0 -1.59375 -0.796875 -2.4375q-0.796875 -0.859375 -2.046875 -0.859375q-1.359375 0 -2.484375 0.9375q-1.109375 0.9375 -1.65625 2.828125z" fill-rule="nonzero"></path><path fill="#000000" d="m258.39227 87.83391q0 -2.03125 0.40625 -3.265625q0.421875 -1.234375 1.25 -1.90625q0.828125 -0.671875 2.078125 -0.671875q0.921875 0 1.609375 0.375q0.703125 0.359375 1.15625 1.0625q0.453125 0.703125 0.703125 1.703125q0.265625 1.0 0.265625 2.703125q0 2.015625 -0.421875 3.265625q-0.40625 1.234375 -1.234375 1.921875q-0.828125 0.671875 -2.078125 0.671875q-1.65625 0 -2.609375 -1.203125q-1.125 -1.421875 -1.125 -4.65625zm1.4375 0q0 2.828125 0.65625 3.765625q0.671875 0.921875 1.640625 0.921875q0.96875 0 1.625 -0.9375q0.65625 -0.9375 0.65625 -3.75q0 -2.828125 -0.65625 -3.75q-0.65625 -0.9375 -1.640625 -0.9375q-0.96875 0 -1.546875 0.828125q-0.734375 1.046875 -0.734375 3.859375z" fill-rule="nonzero"></path><path fill="#000000" d="m268.24384 89.25578l0 -21.953125l4.65625 0l0 1.75l-2.546875 0l0 18.46875l2.546875 0l0 1.734375l-4.65625 0zm17.730469 -9.734375l-2.0 0l0 -5.140625l-9.34375 0l0 -1.96875l11.34375 0l0 7.109375z" fill-rule="nonzero"></path><path fill="#000000" d="m287.27118 84.49016l5.40625 -6.3125l-3.09375 -6.140625l2.34375 0l1.046875 2.21875q0.59375 1.25 1.0625 2.375l3.578125 -4.59375l2.59375 0l-5.234375 6.296875l3.140625 6.15625l-2.34375 0l-1.234375 -2.53125q-0.40625 -0.8125 -0.90625 -2.0l-3.703125 4.53125l-2.65625 0z" fill-rule="nonzero"></path><path fill="#000000" d="m304.4118 89.25578l-4.65625 0l0 -1.734375l2.546875 0l0 -18.46875l-2.546875 0l0 -1.75l4.65625 0l0 21.953125zm1.5585938 -4.46875l4.984375 -17.765625l1.6875 0l-4.96875 17.765625l-1.703125 0z" fill-rule="nonzero"></path><path fill="#000000" d="m313.10712 84.49016l0.34375 -1.640625l6.6875 -7.53125q0.71875 -0.796875 1.59375 -1.65625q-1.515625 0.15625 -2.171875 0.15625l-4.625 0l0.375 -1.78125l9.625 0l-0.28125 1.34375l-6.75 7.578125q-0.578125 0.640625 -1.71875 1.765625q1.78125 -0.09375 2.4375 -0.09375l4.890625 0l-0.390625 1.859375l-10.015625 0z" fill-rule="nonzero"></path><path fill="#000000" d="m330.60712 93.49016l-1.40625 0l0 -8.96875q-0.515625 0.484375 -1.34375 0.96875q-0.8125 0.484375 -1.46875 0.734375l0 -1.359375q1.171875 -0.5625 2.046875 -1.34375q0.890625 -0.796875 1.265625 -1.53125l0.90625 0l0 11.5z" fill-rule="nonzero"></path><path fill="#cfe2f3" d="m290.49872 130.8853l0 0c0 -4.316887 3.4995422 -7.8164215 7.816437 -7.8164215l45.028564 0c2.0730286 0 4.0611877 0.82351685 5.5270386 2.2893753c1.4658813 1.4658661 2.2893982 3.4540024 2.2893982 5.527046l0 31.264786c0 4.3168945 -3.4995422 7.816437 -7.816437 7.816437l-45.028564 0l0 0c-4.3168945 0 -7.816437 -3.4995422 -7.816437 -7.816437z" fill-rule="nonzero"></path><path stroke="#000000" stroke-width="2.0" stroke-linejoin="round" stroke-linecap="butt" d="m290.49872 130.8853l0 0c0 -4.316887 3.4995422 -7.8164215 7.816437 -7.8164215l45.028564 0c2.0730286 0 4.0611877 0.82351685 5.5270386 2.2893753c1.4658813 1.4658661 2.2893982 3.4540024 2.2893982 5.527046l0 31.264786c0 4.3168945 -3.4995422 7.816437 -7.816437 7.816437l-45.028564 0l0 0c-4.3168945 0 -7.816437 -3.4995422 -7.816437 -7.816437z" fill-rule="nonzero"></path><path fill="#000000" d="m325.20407 151.82832l0 1.609375l-8.984375 0q-0.015625 -0.609375 0.1875 -1.15625q0.34375 -0.921875 1.09375 -1.8125q0.765625 -0.890625 2.1875 -2.0625q2.21875 -1.8125 3.0 -2.875q0.78125 -1.0625 0.78125 -2.015625q0 -0.984375 -0.71875 -1.671875q-0.703125 -0.6875 -1.84375 -0.6875q-1.203125 0 -1.9375 0.734375q-0.71875 0.71875 -0.71875 2.0l-1.71875 -0.171875q0.171875 -1.921875 1.328125 -2.921875q1.15625 -1.015625 3.09375 -1.015625q1.953125 0 3.09375 1.09375q1.140625 1.078125 1.140625 2.6875q0 0.8125 -0.34375 1.609375q-0.328125 0.78125 -1.109375 1.65625q-0.765625 0.859375 -2.5625 2.390625q-1.5 1.265625 -1.9375 1.71875q-0.421875 0.4375 -0.703125 0.890625l6.671875 0z" fill-rule="nonzero"></path><path fill="#000000" fill-opacity="0.0" d="m178.43463 70.69506c-1.9505768 -3.1916046 -13.140854 -12.262032 -11.703415 -19.149609c1.437439 -6.887577 13.5516205 -22.278652 20.32808 -22.175852c6.776474 0.10279846 19.304031 15.708223 20.330719 22.79265c1.0266724 7.084427 -11.808838 16.428257 -14.1706085 19.71391" fill-rule="nonzero"></path><path stroke="#000000" stroke-width="2.0" stroke-linejoin="round" stroke-linecap="butt" d="m178.43463 70.69505c-1.9505615 -3.191597 -13.140869 -12.262024 -11.703415 -19.149605c1.4374542 -6.8875732 13.551605 -22.27865 20.32808 -22.175848c6.776474 0.10280037 19.304031 15.708223 20.330719 22.792646c0.25665283 1.7711105 -0.3530426 3.6834297 -1.4488983 5.6069984c-0.54792786 0.9617882 -1.2174072 1.926384 -1.9608612 2.8775482c-0.37173462 0.47558212 -0.76197815 0.9478073 -1.1647644 1.4146461c-0.20140076 0.23341751 -0.40594482 0.46548462 -0.612854 0.6959572c-0.10346985 0.115234375 -0.20753479 0.2300682 -0.31211853 0.34446716l-0.22784424 0.24719238" fill-rule="evenodd"></path><path fill="#000000" stroke="#000000" stroke-width="2.0" stroke-linecap="butt" d="m199.31525 61.024727l-4.0386353 8.773804l8.733459 -4.1251373z" fill-rule="evenodd"></path><path fill="#000000" fill-opacity="0.0" d="m217.26248 95.08331c51.77954 0 103.55905 14.0 103.55905 28.0" fill-rule="nonzero"></path><path stroke="#000000" stroke-width="2.0" stroke-linejoin="round" stroke-linecap="butt" d="m217.26248 95.08331c25.88977 0 51.77954 3.5 71.19687 8.75c9.708649 2.625 17.799194 5.6875 23.462585 8.96875c0.3539734 0.2050705 0.6984558 0.41101074 1.0332336 0.61774445l0.41271973 0.25909424" fill-rule="evenodd"></path><path fill="#000000" stroke="#000000" stroke-width="2.0" stroke-linecap="butt" d="m310.77896 115.730804l8.226501 5.061119l-3.048645 -9.164932z" fill-rule="evenodd"></path><path fill="#000000" fill-opacity="0.0" d="m131.46982 150.83992l111.11812 0l0 44.12599l-111.11812 0z" fill-rule="nonzero"></path><path fill="#000000" d="m150.40732 177.20854l2.0625 0.21875q-0.4375 1.53125 -2.046875 2.921875q-1.59375 1.375 -3.8125 1.375q-1.375 0 -2.53125 -0.640625q-1.15625 -0.640625 -1.765625 -1.859375q-0.59375 -1.21875 -0.59375 -2.78125q0 -2.03125 0.9375 -3.9375q0.9375 -1.921875 2.4375 -2.859375q1.5 -0.9375 3.25 -0.9375q2.234375 0 3.5625 1.390625q1.328125 1.375 1.328125 3.765625q0 0.921875 -0.171875 1.875l-9.15625 0q-0.046875 0.375 -0.046875 0.65625q0 1.75 0.796875 2.671875q0.8125 0.921875 1.96875 0.921875q1.09375 0 2.140625 -0.71875q1.0625 -0.71875 1.640625 -2.0625zm-6.15625 -3.078125l6.984375 0q0 -0.328125 0 -0.46875q0 -1.59375 -0.796875 -2.4375q-0.796875 -0.859375 -2.046875 -0.859375q-1.359375 0 -2.484375 0.9375q-1.109375 0.9375 -1.65625 2.828125z" fill-rule="nonzero"></path><path fill="#000000" d="m159.78622 190.44292l-1.40625 0l0 -8.96875q-0.515625 0.484375 -1.34375 0.96875q-0.8125 0.484375 -1.46875 0.734375l0 -1.359375q1.171875 -0.5625 2.046875 -1.34375q0.890625 -0.796875 1.265625 -1.53125l0.90625 0l0 11.5z" fill-rule="nonzero"></path><path fill="#000000" d="m164.34091 186.20854l0 -21.953125l4.65625 0l0 1.75l-2.546875 0l0 18.46875l2.546875 0l0 1.734375l-4.65625 0zm13.980469 -4.765625l-2.109375 0l0 -13.4375q-0.75 0.71875 -2.0 1.453125q-1.234375 0.71875 -2.21875 1.078125l0 -2.03125q1.78125 -0.828125 3.09375 -2.015625q1.328125 -1.1875 1.875 -2.296875l1.359375 0l0 17.25zm9.519531 4.765625l-4.65625 0l0 -1.734375l2.546875 0l0 -18.46875l-2.546875 0l0 -1.75l4.65625 0l0 21.953125zm1.5585938 -4.46875l4.984375 -17.765625l1.6875 0l-4.96875 17.765625l-1.703125 0z" fill-rule="nonzero"></path><path fill="#000000" d="m196.53622 181.44292l0.34375 -1.640625l6.6875 -7.53125q0.71875 -0.796875 1.59375 -1.65625q-1.515625 0.15625 -2.171875 0.15625l-4.625 0l0.375 -1.78125l9.625 0l-0.28125 1.34375l-6.75 7.578125q-0.578125 0.640625 -1.71875 1.765625q1.78125 -0.09375 2.4375 -0.09375l4.890625 0l-0.390625 1.859375l-10.015625 0z" fill-rule="nonzero"></path><path fill="#000000" d="m216.12997 189.08354l0 1.359375l-7.578125 0q-0.015625 -0.515625 0.171875 -0.984375q0.28125 -0.765625 0.921875 -1.515625q0.640625 -0.75 1.84375 -1.734375q1.859375 -1.53125 2.515625 -2.421875q0.65625 -0.90625 0.65625 -1.703125q0 -0.828125 -0.59375 -1.40625q-0.59375 -0.578125 -1.5625 -0.578125q-1.015625 0 -1.625 0.609375q-0.609375 0.609375 -0.609375 1.6875l-1.453125 -0.140625q0.15625 -1.625 1.125 -2.46875q0.96875 -0.84375 2.59375 -0.84375q1.65625 0 2.609375 0.921875q0.96875 0.90625 0.96875 2.25q0 0.6875 -0.28125 1.359375q-0.28125 0.65625 -0.9375 1.390625q-0.65625 0.734375 -2.171875 2.015625q-1.265625 1.0625 -1.625 1.453125q-0.359375 0.375 -0.59375 0.75l5.625 0z" fill-rule="nonzero"></path><path fill="#000000" fill-opacity="0.0" d="m20.740189 53.88717l140.85039 0l0 44.125984l-140.85039 0z" fill-rule="nonzero"></path><path fill="#ff0000" d="m39.67769 80.25578l2.0625 0.21875q-0.4375 1.53125 -2.046875 2.921875q-1.59375 1.375 -3.8125 1.375q-1.375 0 -2.53125 -0.640625q-1.15625 -0.640625 -1.765625 -1.859375q-0.59375 -1.21875 -0.59375 -2.78125q0 -2.03125 0.9375 -3.9375q0.9375 -1.921875 2.4375 -2.859375q1.5 -0.9375 3.25 -0.9375q2.234375 0 3.5625 1.390625q1.328125 1.375 1.328125 3.765625q0 0.921875 -0.171875 1.875l-9.15625 0q-0.046875 0.375 -0.046875 0.65625q0 1.75 0.796875 2.671875q0.8125 0.921875 1.96875 0.921875q1.09375 0 2.140625 -0.71875q1.0625 -0.71875 1.640625 -2.0625zm-6.15625 -3.078125l6.984375 0q0 -0.328125 0 -0.46875q0 -1.59375 -0.796875 -2.4375q-0.796875 -0.859375 -2.046875 -0.859375q-1.359375 0 -2.484375 0.9375q-1.109375 0.9375 -1.65625 2.828125z" fill-rule="nonzero"></path><path fill="#ff0000" d="m51.150345 92.13078l0 1.359375l-7.578125 0q-0.015625 -0.515625 0.171875 -0.984375q0.28125 -0.765625 0.921875 -1.515625q0.640625 -0.75 1.84375 -1.734375q1.859375 -1.53125 2.515625 -2.421875q0.65625 -0.90625 0.65625 -1.703125q0 -0.828125 -0.59375 -1.40625q-0.59375 -0.578125 -1.5625 -0.578125q-1.015625 0 -1.625 0.609375q-0.609375 0.609375 -0.609375 1.6875l-1.453125 -0.140625q0.15625 -1.625 1.125 -2.46875q0.96875 -0.84375 2.59375 -0.84375q1.65625 0 2.609375 0.921875q0.96875 0.90625 0.96875 2.25q0 0.6875 -0.28125 1.359375q-0.28125 0.65625 -0.9375 1.390625q-0.65625 0.734375 -2.171875 2.015625q-1.265625 1.0625 -1.625 1.453125q-0.359375 0.375 -0.59375 0.75l5.625 0z" fill-rule="nonzero"></path><path fill="#ff0000" d="m53.611282 89.25578l0 -21.953125l4.65625 0l0 1.75l-2.546875 0l0 18.46875l2.546875 0l0 1.734375l-4.65625 0zm13.980469 -4.765625l-2.109375 0l0 -13.4375q-0.75 0.71875 -2.0 1.453125q-1.234375 0.71875 -2.21875 1.078125l0 -2.03125q1.78125 -0.828125 3.09375 -2.015625q1.328125 -1.1875 1.875 -2.296875l1.359375 0l0 17.25zm9.519531 4.765625l-4.65625 0l0 -1.734375l2.546875 0l0 -18.46875l-2.546875 0l0 -1.75l4.65625 0l0 21.953125zm1.5585938 -4.46875l4.984375 -17.765625l1.6875 0l-4.96875 17.765625l-1.703125 0z" fill-rule="nonzero"></path><path fill="#ff0000" d="m85.806595 84.49016l0.34375 -1.640625l6.6875 -7.53125q0.71875 -0.796875 1.59375 -1.65625q-1.515625 0.15625 -2.171875 0.15625l-4.625 0l0.375 -1.78125l9.625 0l-0.28125 1.34375l-6.75 7.578125q-0.578125 0.640625 -1.71875 1.765625q1.78125 -0.09375 2.4375 -0.09375l4.890625 0l-0.390625 1.859375l-10.015625 0z" fill-rule="nonzero"></path><path fill="#ff0000" d="m105.400345 92.13078l0 1.359375l-7.578125 0q-0.015625 -0.515625 0.171875 -0.984375q0.28125 -0.765625 0.921875 -1.515625q0.640625 -0.75 1.84375 -1.734375q1.859375 -1.53125 2.515625 -2.421875q0.65625 -0.90625 0.65625 -1.703125q0 -0.828125 -0.59375 -1.40625q-0.59375 -0.578125 -1.5625 -0.578125q-1.015625 0 -1.625 0.609375q-0.609375 0.609375 -0.609375 1.6875l-1.453125 -0.140625q0.15625 -1.625 1.125 -2.46875q0.96875 -0.84375 2.59375 -0.84375q1.65625 0 2.609375 0.921875q0.96875 0.90625 0.96875 2.25q0 0.6875 -0.28125 1.359375q-0.28125 0.65625 -0.9375 1.390625q-0.65625 0.734375 -2.171875 2.015625q-1.265625 1.0625 -1.625 1.453125q-0.359375 0.375 -0.59375 0.75l5.625 0z" fill-rule="nonzero"></path></g></svg>

