<?xml version="1.0" standalone="yes"?>

<svg version="1.1" viewBox="0.0 0.0 635.8792650918635 286.98950131233596" fill="none" stroke="none" stroke-linecap="square" stroke-miterlimit="10" xmlns="http://www.w3.org/2000/svg" xmlns:xlink="http://www.w3.org/1999/xlink"><clipPath id="p.0"><path d="m0 0l635.8793 0l0 286.9895l-635.8793 0l0 -286.9895z" clip-rule="nonzero"></path></clipPath><g clip-path="url(#p.0)"><path fill="#000000" fill-opacity="0.0" d="m0 0l635.8793 0l0 286.9895l-635.8793 0z" fill-rule="nonzero"></path><path fill="#cfe2f3" d="m114.797844 56.486572l0 0c0 -11.29792 9.899094 -20.456692 22.110237 -20.456692l0 0c12.211151 0 22.11023 9.1587715 22.11023 20.456692l0 0c0 11.29792 -9.899078 20.456696 -22.11023 20.456696l0 0c-12.2111435 0 -22.110237 -9.158775 -22.110237 -20.456696z" fill-rule="nonzero"></path><path stroke="#000000" stroke-width="2.0" stroke-linejoin="round" stroke-linecap="butt" d="m114.797844 56.486572l0 0c0 -11.29792 9.899094 -20.456692 22.110237 -20.456692l0 0c12.211151 0 22.11023 9.1587715 22.11023 20.456692l0 0c0 11.29792 -9.899078 20.456696 -22.11023 20.456696l0 0c-12.2111435 0 -22.110237 -9.158775 -22.110237 -20.456696z" fill-rule="nonzero"></path><path fill="#cfe2f3" d="m67.106094 119.0132l0 0c0 -11.29792 9.899086 -20.456696 22.110237 -20.456696l0 0c12.2111435 0 22.11023 9.158775 22.11023 20.456696l0 0c0 11.297913 -9.899086 20.456696 -22.11023 20.456696l0 0c-12.211151 0 -22.110237 -9.158783 -22.110237 -20.456696z" fill-rule="nonzero"></path><path stroke="#000000" stroke-width="2.0" stroke-linejoin="round" stroke-linecap="butt" d="m67.106094 119.0132l0 0c0 -11.29792 9.899086 -20.456696 22.110237 -20.456696l0 0c12.2111435 0 22.11023 9.158775 22.11023 20.456696l0 0c0 11.297913 -9.899086 20.456696 -22.11023 20.456696l0 0c-12.211151 0 -22.110237 -9.158783 -22.110237 -20.456696z" fill-rule="nonzero"></path><path fill="#cfe2f3" d="m86.47696 228.43478l0 0c0 -11.297913 9.899086 -20.456696 22.110237 -20.456696l0 0c12.2111435 0 22.110237 9.158783 22.110237 20.456696l0 0c0 11.297928 -9.899094 20.456696 -22.110237 20.456696l0 0c-12.211151 0 -22.110237 -9.158768 -22.110237 -20.456696z" fill-rule="nonzero"></path><path stroke="#000000" stroke-width="2.0" stroke-linejoin="round" stroke-linecap="butt" d="m86.47696 228.43478l0 0c0 -11.297913 9.899086 -20.456696 22.110237 -20.456696l0 0c12.2111435 0 22.110237 9.158783 22.110237 20.456696l0 0c0 11.297928 -9.899094 20.456696 -22.110237 20.456696l0 0c-12.211151 0 -22.110237 -9.158768 -22.110237 -20.456696z" fill-rule="nonzero"></path><path fill="#ff0000" d="m376.7217 141.01189l0 0c0 -11.297928 9.899109 -20.456696 22.11026 -20.456696l0 0c12.211121 0 22.11023 9.158768 22.11023 20.456696l0 0c0 11.297913 -9.899109 20.456696 -22.11023 20.456696l0 0c-12.211151 0 -22.11026 -9.158783 -22.11026 -20.456696z" fill-rule="nonzero"></path><path stroke="#000000" stroke-width="2.0" stroke-linejoin="round" stroke-linecap="butt" d="m376.7217 141.01189l0 0c0 -11.297928 9.899109 -20.456696 22.11026 -20.456696l0 0c12.211121 0 22.11023 9.158768 22.11023 20.456696l0 0c0 11.297913 -9.899109 20.456696 -22.11023 20.456696l0 0c-12.211151 0 -22.11026 -9.158783 -22.11026 -20.456696z" fill-rule="nonzero"></path><path fill="#000000" d="m399.9008 147.93188l0 -1.453125q-1.140625 1.671875 -3.125 1.671875q-0.859375 0 -1.625 -0.328125q-0.75 -0.34375 -1.125 -0.84375q-0.359375 -0.5 -0.515625 -1.234375q-0.09375 -0.5 -0.09375 -1.5625l0 -6.109375l1.671875 0l0 5.46875q0 1.3125 0.09375 1.765625q0.15625 0.65625 0.671875 1.03125q0.515625 0.375 1.265625 0.375q0.75 0 1.40625 -0.375q0.65625 -0.390625 0.921875 -1.046875q0.28125 -0.671875 0.28125 -1.9375l0 -5.28125l1.671875 0l0 9.859375l-1.5 0z" fill-rule="nonzero"></path><path fill="#cfe2f3" d="m164.2264 172.3034l0 0c0 -11.297928 9.899094 -20.456696 22.110245 -20.456696l0 0c12.211136 0 22.11023 9.158768 22.11023 20.456696l0 0c0 11.297913 -9.899094 20.45668 -22.11023 20.45668l0 0c-12.211151 0 -22.110245 -9.158768 -22.110245 -20.45668z" fill-rule="nonzero"></path><path stroke="#000000" stroke-width="2.0" stroke-linejoin="round" stroke-linecap="butt" d="m164.2264 172.3034l0 0c0 -11.297928 9.899094 -20.456696 22.110245 -20.456696l0 0c12.211136 0 22.11023 9.158768 22.11023 20.456696l0 0c0 11.297913 -9.899094 20.45668 -22.11023 20.45668l0 0c-12.211151 0 -22.110245 -9.158768 -22.110245 -20.45668z" fill-rule="nonzero"></path><path fill="#cfe2f3" d="m253.05646 220.83693l0 0c0 -11.297928 9.899078 -20.456696 22.11023 -20.456696l0 0c12.211151 0 22.11023 9.158768 22.11023 20.456696l0 0c0 11.297913 -9.899078 20.45668 -22.11023 20.45668l0 0c-12.211151 0 -22.11023 -9.158768 -22.11023 -20.45668z" fill-rule="nonzero"></path><path stroke="#000000" stroke-width="2.0" stroke-linejoin="round" stroke-linecap="butt" d="m253.05646 220.83693l0 0c0 -11.297928 9.899078 -20.456696 22.11023 -20.456696l0 0c12.211151 0 22.11023 9.158768 22.11023 20.456696l0 0c0 11.297913 -9.899078 20.45668 -22.11023 20.45668l0 0c-12.211151 0 -22.11023 -9.158768 -22.11023 -20.45668z" fill-rule="nonzero"></path><path fill="#00ff00" d="m509.29007 261.76233l0 0c0 -11.297928 9.899078 -20.456696 22.11026 -20.456696l0 0c12.211121 0 22.11023 9.158768 22.11023 20.456696l0 0c0 11.297913 -9.899109 20.456696 -22.11023 20.456696l0 0c-12.211182 0 -22.11026 -9.158783 -22.11026 -20.456696z" fill-rule="nonzero"></path><path stroke="#000000" stroke-width="2.0" stroke-linejoin="round" stroke-linecap="butt" d="m509.29007 261.76233l0 0c0 -11.297928 9.899078 -20.456696 22.11026 -20.456696l0 0c12.211121 0 22.11023 9.158768 22.11023 20.456696l0 0c0 11.297913 -9.899109 20.456696 -22.11023 20.456696l0 0c-12.211182 0 -22.11026 -9.158783 -22.11026 -20.456696z" fill-rule="nonzero"></path><path fill="#000000" d="m527.46246 268.6823l0 -13.59375l1.671875 0l0 4.875q1.171875 -1.359375 2.953125 -1.359375q1.09375 0 1.890625 0.4375q0.8125 0.421875 1.15625 1.1875q0.359375 0.765625 0.359375 2.203125l0 6.25l-1.671875 0l0 -6.25q0 -1.25 -0.546875 -1.8125q-0.546875 -0.578125 -1.53125 -0.578125q-0.75 0 -1.40625 0.390625q-0.640625 0.375 -0.921875 1.046875q-0.28125 0.65625 -0.28125 1.8125l0 5.390625l-1.671875 0z" fill-rule="nonzero"></path><path fill="#cfe2f3" d="m341.16937 240.04826l0 0c0 -11.297913 9.899078 -20.456696 22.11023 -20.456696l0 0c12.211151 0 22.11023 9.158783 22.11023 20.456696l0 0c0 11.297928 -9.899078 20.45671 -22.11023 20.45671l0 0c-12.211151 0 -22.11023 -9.158783 -22.11023 -20.45671z" fill-rule="nonzero"></path><path stroke="#000000" stroke-width="2.0" stroke-linejoin="round" stroke-linecap="butt" d="m341.16937 240.04826l0 0c0 -11.297913 9.899078 -20.456696 22.11023 -20.456696l0 0c12.211151 0 22.11023 9.158783 22.11023 20.456696l0 0c0 11.297928 -9.899078 20.45671 -22.11023 20.45671l0 0c-12.211151 0 -22.11023 -9.158783 -22.11023 -20.45671z" fill-rule="nonzero"></path><path fill="#cfe2f3" d="m273.77036 26.787455l0 0c0 -11.29792 9.899078 -20.456694 22.11023 -20.456694l0 0c12.211151 0 22.11023 9.158773 22.11023 20.456694l0 0c0 11.297918 -9.899078 20.456694 -22.11023 20.456694l0 0c-12.211151 0 -22.11023 -9.158775 -22.11023 -20.456694z" fill-rule="nonzero"></path><path stroke="#000000" stroke-width="2.0" stroke-linejoin="round" stroke-linecap="butt" d="m273.77036 26.787455l0 0c0 -11.29792 9.899078 -20.456694 22.11023 -20.456694l0 0c12.211151 0 22.11023 9.158773 22.11023 20.456694l0 0c0 11.297918 -9.899078 20.456694 -22.11023 20.456694l0 0c-12.211151 0 -22.11023 -9.158775 -22.11023 -20.456694z" fill-rule="nonzero"></path><path fill="#000000" fill-opacity="0.0" d="m47.737568 56.486572c16.765118 0 25.14835 0.01574707 33.53024 0.03149414c8.381889 0.015750885 16.762444 0.031497955 33.52488 0.031497955" fill-rule="nonzero"></path><path stroke="#000000" stroke-width="2.0" stroke-linejoin="round" stroke-linecap="butt" d="m47.737568 56.486576c16.765118 0 25.14835 0.01574707 33.53024 0.03149414c4.1909485 0.007873535 8.381554 0.01574707 13.619736 0.021652222l7.905136 0.0064315796" fill-rule="evenodd"></path><path fill="#000000" stroke="#000000" stroke-width="2.0" stroke-linecap="butt" d="m102.79174 59.849617l9.077133 -3.3008804l-9.075249 -3.3060493z" fill-rule="evenodd"></path><path fill="#000000" fill-opacity="0.0" d="m41.26163 70.95164c0 8.3990555 8.078739 12.597321 16.157478 16.798111c8.078739 4.200783 16.157482 8.404091 16.157482 16.80819" fill-rule="nonzero"></path><path stroke="#000000" stroke-width="2.0" stroke-linejoin="round" stroke-linecap="butt" d="m41.261627 70.95164c0 8.3990555 8.078743 12.597321 16.157486 16.798103c2.0196838 1.0502014 4.0393677 2.1005478 5.932823 3.2166595c0.94672394 0.5580597 1.8619003 1.1325607 2.7297287 1.7316895c0.4339218 0.29956055 0.8560028 0.60528564 1.2642822 0.91819763c0.10206604 0.07822418 0.20326996 0.15690613 0.30358124 0.23604584l0.20018768 0.16033173" fill-rule="evenodd"></path><path fill="#000000" stroke="#000000" stroke-width="2.0" stroke-linecap="butt" d="m64.946724 95.5892l7.2345123 6.399376l-1.4285202 -9.552467z" fill-rule="evenodd"></path><path fill="#000000" fill-opacity="0.0" d="m89.21633 139.4699c0 17.12706 0.9370041 24.943115 1.8740158 34.254135c0.9370041 9.31102 1.8740158 20.11702 1.8740158 40.234055" fill-rule="nonzero"></path><path stroke="#000000" stroke-width="2.0" stroke-linejoin="round" stroke-linecap="butt" d="m89.21633 139.4699c0 17.12706 0.9370041 24.943115 1.8740158 34.25415c0.46850586 4.6555023 0.9370041 9.684769 1.2883835 16.064774c0.1756897 3.1900024 0.32209778 6.717682 0.42458344 10.7052l0.035095215 1.4647217" fill-rule="evenodd"></path><path fill="#000000" stroke="#000000" stroke-width="2.0" stroke-linecap="butt" d="m89.53512 201.99342l3.398552 9.041016l3.2080154 -9.110367z" fill-rule="evenodd"></path><path fill="#000000" fill-opacity="0.0" d="m152.54237 42.021507c0 -7.6220474 60.61418 -15.244097 121.22835 -15.244097" fill-rule="nonzero"></path><path stroke="#000000" stroke-width="2.0" stroke-linejoin="round" stroke-linecap="butt" d="m152.54237 42.021503c0 -3.8110237 15.153549 -7.6220474 37.883865 -10.480314c11.365158 -1.4291325 24.624512 -2.6200771 38.830963 -3.4537392c7.1032257 -0.41683006 14.443222 -0.7443409 21.901596 -0.96764374c1.8645935 -0.05582428 3.7366028 -0.10513687 5.614151 -0.14770317c0.93878174 -0.021284103 1.8789062 -0.04088211 2.8202515 -0.058763504l2.177948 -0.037338257" fill-rule="evenodd"></path><path fill="#000000" stroke="#000000" stroke-width="2.0" stroke-linecap="butt" d="m261.79828 30.179354l9.048737 -3.377922l-9.103027 -3.2287846z" fill-rule="evenodd"></path><path fill="#000000" fill-opacity="0.0" d="m152.54237 70.95164c0 21.721802 4.5433197 32.581398 9.086624 43.443604c4.5433044 10.8622055 9.086609 21.727013 9.086609 43.454033" fill-rule="nonzero"></path><path stroke="#000000" stroke-width="2.0" stroke-linejoin="round" stroke-linecap="butt" d="m152.54237 70.95164c0 21.72181 4.5433044 32.581398 9.086609 43.443604c2.2716522 5.431099 4.5433197 10.862862 6.247055 17.652718c0.8518677 3.394928 1.5617523 7.1293793 2.0586853 11.373032c0.06211853 0.53045654 0.120895386 1.0688782 0.17622375 1.6155853l0.08016968 0.824173" fill-rule="evenodd"></path><path fill="#000000" stroke="#000000" stroke-width="2.0" stroke-linecap="butt" d="m166.8908 146.00513l3.6970215 8.9231415l2.903595 -9.211914z" fill-rule="evenodd"></path><path fill="#000000" fill-opacity="0.0" d="m104.850624 133.47827c0 19.417313 29.685036 38.83464 59.37008 38.83464" fill-rule="nonzero"></path><path stroke="#000000" stroke-width="2.0" stroke-linejoin="round" stroke-linecap="butt" d="m104.85063 133.47827c0 9.708649 7.421257 19.417313 18.553146 26.698807c5.5659485 3.640747 12.059555 6.674713 19.016983 8.798477c1.7393494 0.5309448 3.5076904 1.0050049 5.2977905 1.4174347c0.89505005 0.20620728 1.7955322 0.39701843 2.700531 0.5718231c0.4524994 0.087402344 0.9061432 0.17080688 1.3608093 0.25013733l0.48388672 0.08216858" fill-rule="evenodd"></path><path fill="#000000" stroke="#000000" stroke-width="2.0" stroke-linecap="butt" d="m151.98415 174.58873l9.323257 -2.5233154l-8.763992 -4.059906z" fill-rule="evenodd"></path><path fill="#000000" fill-opacity="0.0" d="m201.97093 157.83833c0 -13.8346405 6.7795258 -20.751968 13.5590515 -27.669296c6.7795258 -6.9173203 13.559067 -13.8346405 13.559067 -27.669289" fill-rule="nonzero"></path><path stroke="#000000" stroke-width="2.0" stroke-linejoin="round" stroke-linecap="butt" d="m201.97092 157.83833c0 -13.8346405 6.779541 -20.751968 13.559067 -27.669281c3.3897552 -3.4586716 6.7795258 -6.917328 9.321838 -11.240654c0.6355896 -1.0808334 1.2182007 -2.2157059 1.7346039 -3.4181366c0.12910461 -0.30060577 0.25408936 -0.605423 0.37469482 -0.91469574l0.10192871 -0.26807404" fill-rule="evenodd"></path><path fill="#000000" stroke="#000000" stroke-width="2.0" stroke-linecap="butt" d="m230.31909 114.88522l-1.7236938 -9.503639l-4.788391 8.388176z" fill-rule="evenodd"></path><path fill="#000000" fill-opacity="0.0" d="m311.51486 41.25252c0 21.323689 17.921265 31.985958 35.84253 42.647373c17.921265 10.661415 35.84253 21.321983 35.84253 42.643967" fill-rule="nonzero"></path><path stroke="#000000" stroke-width="2.0" stroke-linejoin="round" stroke-linecap="butt" d="m311.51486 41.252518c0 21.323689 17.921265 31.985962 35.84253 42.647377c8.960632 5.3307037 17.921265 10.6612015 24.641754 17.324272c3.3602295 3.3315353 6.160431 6.9962006 8.120575 11.160622c0.24502563 0.5205612 0.4768982 1.0489197 0.6951294 1.5854034c0.054534912 0.13412476 0.10824585 0.2687683 0.16107178 0.40390778l0.13522339 0.35295868" fill-rule="evenodd"></path><path fill="#000000" stroke="#000000" stroke-width="2.0" stroke-linecap="butt" d="m377.85812 115.30207l4.832855 8.3626175l1.6731873 -9.512657z" fill-rule="evenodd"></path><path fill="#000000" fill-opacity="0.0" d="m201.97093 186.76846c0 4.900879 14.393707 7.3529205 28.7874 9.801743c14.393707 2.448822 28.787415 4.894409 28.787415 9.788818" fill-rule="nonzero"></path><path stroke="#000000" stroke-width="2.0" stroke-linejoin="round" stroke-linecap="butt" d="m201.97092 186.76848c0 4.9008484 14.393707 7.3529053 28.787415 9.801727c3.5984192 0.61221313 7.1968384 1.2242126 10.570374 1.8743286c1.6867523 0.32504272 3.3172913 0.65963745 4.863495 1.0085297c0.7731018 0.17445374 1.525116 0.35247803 2.2525177 0.5346985c0.18185425 0.045562744 0.36218262 0.09136963 0.5409088 0.13743591l0.26455688 0.06925964" fill-rule="evenodd"></path><path fill="#000000" stroke="#000000" stroke-width="2.0" stroke-linecap="butt" d="m247.55315 203.0287l9.484055 1.8283234l-6.089981 -7.496811z" fill-rule="evenodd"></path><path fill="#000000" fill-opacity="0.0" d="m414.46625 155.47694c0 22.955063 25.322845 34.43373 50.64569 45.91011c25.322815 11.476379 50.64563 22.950455 50.64563 45.900925" fill-rule="nonzero"></path><path stroke="#000000" stroke-width="2.0" stroke-linejoin="round" stroke-linecap="butt" d="m414.46625 155.47696c0 22.955048 25.322845 34.433716 50.64566 45.910095c12.661438 5.7381897 25.322845 11.4758 34.81891 18.647675c4.7480164 3.5859375 8.704712 7.5304413 11.474396 12.012863c0.69244385 1.1206055 1.310669 2.274826 1.8485107 3.4654846l0.01574707 0.035690308" fill-rule="evenodd"></path><path fill="#000000" stroke="#000000" stroke-width="2.0" stroke-linecap="butt" d="m510.0378 236.23369l5.113556 8.1940155l1.3497925 -9.563889z" fill-rule="evenodd"></path><path fill="#000000" fill-opacity="0.0" d="m290.801 235.30199c0 15.495789 8.120758 31.685898 14.211182 30.991592c6.090393 -0.69433594 10.150421 -18.273102 14.211151 -35.851013c4.0607605 -17.577927 8.122223 -35.155014 14.21402 -35.851013c6.0918274 -0.69599915 14.21402 15.489075 14.21402 30.97815" fill-rule="nonzero"></path><path stroke="#000000" stroke-width="2.0" stroke-linejoin="round" stroke-linecap="butt" d="m290.801 235.30199c0 15.495789 8.120758 31.685928 14.211151 30.991592c6.0904236 -0.69433594 10.150452 -18.273102 14.211212 -35.851013c4.06073 -17.577927 8.122162 -35.155 14.213989 -35.851013c3.045929 -0.34799194 6.5994263 3.5242615 9.391449 9.419662c0.69799805 1.4738617 1.3484192 3.0741425 1.931427 4.766571c0.2915039 0.84620667 0.5661316 1.7154236 0.82144165 2.6034088c0.12765503 0.44396973 0.25048828 0.8926544 0.36813354 1.3454742c0.05886841 0.22640991 0.11639404 0.45385742 0.17260742 0.68226624l0.06008911 0.25100708" fill-rule="evenodd"></path><path fill="#000000" stroke="#000000" stroke-width="2.0" stroke-linecap="butt" d="m342.90387 214.0643l4.389618 8.603577l2.167633 -9.412308z" fill-rule="evenodd"></path><path fill="#000000" fill-opacity="0.0" d="m420.9422 141.01189c28.566345 0 42.849243 13.740158 57.13272 27.480316c14.283447 13.740158 28.567474 27.480316 57.13498 27.480316" fill-rule="nonzero"></path><path stroke="#ff0000" stroke-width="3.0" stroke-linejoin="round" stroke-linecap="butt" d="m420.94217 141.01189c28.566406 0 42.849304 13.740158 57.13275 27.480316c7.1417236 6.870056 14.2836 13.740143 23.210999 18.8927c4.463684 2.5762787 9.373749 4.723175 14.953339 6.226013c0.34875488 0.093933105 0.70007324 0.18534851 1.0540771 0.27416992l0.03692627 0.009109497" fill-rule="evenodd"></path><path fill="#ff0000" stroke="#ff0000" stroke-width="3.0" stroke-linecap="butt" d="m516.7581 198.81625l14.095398 -3.3501282l-12.951111 -6.493988z" fill-rule="evenodd"></path><path fill="#cfe2f3" d="m222.60498 88.03452l0 0c0 -11.29792 9.899094 -20.456696 22.11023 -20.456696l0 0c12.211151 0 22.11023 9.158775 22.11023 20.456696l0 0c0 11.297913 -9.899078 20.456688 -22.11023 20.456688l0 0c-12.211136 0 -22.11023 -9.158775 -22.11023 -20.456688z" fill-rule="nonzero"></path><path stroke="#000000" stroke-width="2.0" stroke-linejoin="round" stroke-linecap="butt" d="m222.60498 88.03452l0 0c0 -11.29792 9.899094 -20.456696 22.11023 -20.456696l0 0c12.211151 0 22.11023 9.158775 22.11023 20.456696l0 0c0 11.297913 -9.899078 20.456688 -22.11023 20.456688l0 0c-12.211136 0 -22.11023 -9.158775 -22.11023 -20.456688z" fill-rule="nonzero"></path><path fill="#00ff00" d="m535.20654 195.96628l0 0c0 -11.297913 9.899109 -20.456696 22.11023 -20.456696l0 0c12.211182 0 22.11023 9.158783 22.11023 20.456696l0 0c0 11.297928 -9.899048 20.456696 -22.11023 20.456696l0 0c-12.211121 0 -22.11023 -9.158768 -22.11023 -20.456696z" fill-rule="nonzero"></path><path stroke="#000000" stroke-width="2.0" stroke-linejoin="round" stroke-linecap="butt" d="m535.20654 195.96628l0 0c0 -11.297913 9.899109 -20.456696 22.11023 -20.456696l0 0c12.211182 0 22.11023 9.158783 22.11023 20.456696l0 0c0 11.297928 -9.899048 20.456696 -22.11023 20.456696l0 0c-12.211121 0 -22.11023 -9.158768 -22.11023 -20.456696z" fill-rule="nonzero"></path><path fill="#000000" d="m554.6669 202.88628l-3.75 -9.859375l1.765625 0l2.125 5.90625q0.34375 0.953125 0.625 1.984375q0.21875 -0.78125 0.625 -1.875l2.1875 -6.015625l1.71875 0l-3.734375 9.859375l-1.5625 0z" fill-rule="nonzero"></path><path fill="#00ff00" d="m522.0032 130.17024l0 0c0 -11.29792 9.899109 -20.456696 22.11023 -20.456696l0 0c12.211182 0 22.11023 9.158775 22.11023 20.456696l0 0c0 11.297913 -9.899048 20.456696 -22.11023 20.456696l0 0c-12.211121 0 -22.11023 -9.158783 -22.11023 -20.456696z" fill-rule="nonzero"></path><path stroke="#000000" stroke-width="2.0" stroke-linejoin="round" stroke-linecap="butt" d="m522.0032 130.17024l0 0c0 -11.29792 9.899109 -20.456696 22.11023 -20.456696l0 0c12.211182 0 22.11023 9.158775 22.11023 20.456696l0 0c0 11.297913 -9.899048 20.456696 -22.11023 20.456696l0 0c-12.211121 0 -22.11023 -9.158783 -22.11023 -20.456696z" fill-rule="nonzero"></path><path fill="#000000" d="m543.25977 137.09024l0 -13.59375l1.671875 0l0 13.59375l-1.671875 0z" fill-rule="nonzero"></path><path fill="#00ff00" d="m477.78503 71.08484l0 0c0 -11.297916 9.899109 -20.456692 22.11023 -20.456692l0 0c12.211182 0 22.11023 9.158775 22.11023 20.456692l0 0c0 11.29792 -9.899048 20.456696 -22.11023 20.456696l0 0c-12.211121 0 -22.11023 -9.158775 -22.11023 -20.456696z" fill-rule="nonzero"></path><path stroke="#000000" stroke-width="2.0" stroke-linejoin="round" stroke-linecap="butt" d="m477.78503 71.08484l0 0c0 -11.297916 9.899109 -20.456692 22.11023 -20.456692l0 0c12.211182 0 22.11023 9.158775 22.11023 20.456692l0 0c0 11.29792 -9.899048 20.456696 -22.11023 20.456696l0 0c-12.211121 0 -22.11023 -9.158775 -22.11023 -20.456696z" fill-rule="nonzero"></path><path fill="#000000" d="m502.20987 76.50484l0.234375 1.484375q-0.703125 0.140625 -1.265625 0.140625q-0.90625 0 -1.40625 -0.28125q-0.5 -0.296875 -0.703125 -0.75q-0.203125 -0.46875 -0.203125 -1.984375l0 -5.65625l-1.234375 0l0 -1.3125l1.234375 0l0 -2.4375l1.65625 -1.0l0 3.4375l1.6875 0l0 1.3125l-1.6875 0l0 5.75q0 0.71875 0.078125 0.921875q0.09375 0.203125 0.296875 0.328125q0.203125 0.125 0.578125 0.125q0.265625 0 0.734375 -0.078125z" fill-rule="nonzero"></path><path fill="#000000" fill-opacity="0.0" d="m414.46625 126.546814c0 -15.495804 16.885834 -29.16697 28.503418 -30.991608c11.617554 -1.8246384 17.966858 8.19725 28.503387 17.306824c10.53656 9.109581 25.260376 17.306839 50.520782 17.306839" fill-rule="nonzero"></path><path stroke="#000000" stroke-width="2.0" stroke-linejoin="round" stroke-linecap="butt" d="m414.46625 126.546814c0 -15.495804 16.885864 -29.166977 28.503418 -30.991615c11.617554 -1.8246384 17.966858 8.197266 28.503387 17.306831c5.26828 4.5547867 11.583374 8.8815 19.738983 12.069504c4.077759 1.5940018 8.615692 2.9033356 13.71286 3.8141632c1.2743225 0.22772217 2.5835876 0.43051147 3.9293823 0.6066284c0.33642578 0.044036865 0.6751709 0.08639526 1.0162048 0.12705994l0.14224243 0.01612854" fill-rule="evenodd"></path><path fill="#000000" stroke="#000000" stroke-width="2.0" stroke-linecap="butt" d="m509.82736 132.79378l9.247223 -2.788971l-8.876495 -3.807541z" fill-rule="evenodd"></path><path fill="#000000" fill-opacity="0.0" d="m398.83197 120.55519c0 -24.740158 39.480316 -49.480316 78.9606 -49.480316" fill-rule="nonzero"></path><path stroke="#000000" stroke-width="2.0" stroke-linejoin="round" stroke-linecap="butt" d="m398.83194 120.55519c0 -12.370079 9.870087 -24.740158 24.675201 -34.017715c7.4025574 -4.6387787 16.03888 -8.504433 25.292084 -11.210388c4.626587 -1.3529739 9.407379 -2.416031 14.26532 -3.1408386c0.60723877 -0.09059906 1.2157288 -0.17591858 1.8252258 -0.25585175c0.30474854 -0.039970398 0.6097412 -0.07859039 0.91500854 -0.115859985l0.010559082 -0.0012359619" fill-rule="evenodd"></path><path fill="#000000" stroke="#000000" stroke-width="2.0" stroke-linecap="butt" d="m466.0186 75.110504l8.855713 -3.855713l-9.262268 -2.7387009z" fill-rule="evenodd"></path><path fill="#cfe2f3" d="m3.517095 56.486572l0 0c0 -11.29792 9.89909 -20.456692 22.110235 -20.456692l0 0c12.211147 0 22.110237 9.1587715 22.110237 20.456692l0 0c0 11.29792 -9.89909 20.456696 -22.110237 20.456696l0 0c-12.211145 0 -22.110235 -9.158775 -22.110235 -20.456696z" fill-rule="nonzero"></path><path stroke="#000000" stroke-width="2.0" stroke-linejoin="round" stroke-linecap="butt" d="m3.517095 56.486572l0 0c0 -11.29792 9.89909 -20.456692 22.110235 -20.456692l0 0c12.211147 0 22.110237 9.1587715 22.110237 20.456692l0 0c0 11.29792 -9.89909 20.456696 -22.110237 20.456696l0 0c-12.211145 0 -22.110235 -9.158775 -22.110235 -20.456696z" fill-rule="nonzero"></path><path fill="#000000" fill-opacity="0.0" d="m519.52216 31.61604l67.055115 0l0 19.590553l-67.055115 0z" fill-rule="nonzero"></path><path fill="#000000" fill-opacity="0.0" d="m541.91547 222.92946l87.1181 0l0 34.23622l-87.1181 0z" fill-rule="nonzero"></path><path fill="#000000" d="m552.16547 253.6307l0 -13.640625l1.53125 0l0 1.28125q0.53125 -0.75 1.203125 -1.125q0.6875 -0.375 1.640625 -0.375q1.265625 0 2.234375 0.65625q0.96875 0.640625 1.453125 1.828125q0.5 1.1875 0.5 2.59375q0 1.515625 -0.546875 2.734375q-0.546875 1.203125 -1.578125 1.84375q-1.03125 0.640625 -2.171875 0.640625q-0.84375 0 -1.515625 -0.34375q-0.65625 -0.359375 -1.078125 -0.890625l0 4.796875l-1.671875 0zm1.515625 -8.65625q0 1.90625 0.765625 2.8125q0.78125 0.90625 1.875 0.90625q1.109375 0 1.890625 -0.9375q0.796875 -0.9375 0.796875 -2.921875q0 -1.875 -0.78125 -2.8125q-0.765625 -0.9375 -1.84375 -0.9375q-1.0625 0 -1.890625 1.0q-0.8125 1.0 -0.8125 2.890625z" fill-rule="nonzero"></path><path fill="#000000" d="m566.1662 256.84946l0 -0.921875q-0.734375 1.0625 -1.984375 1.0625q-0.546875 0 -1.03125 -0.203125q-0.46875 -0.21875 -0.703125 -0.53125q-0.234375 -0.328125 -0.328125 -0.796875q-0.0625 -0.296875 -0.0625 -0.984375l0 -3.84375l1.0625 0l0 3.453125q0 0.8125 0.0625 1.109375q0.09375 0.40625 0.40625 0.65625q0.328125 0.234375 0.8125 0.234375q0.46875 0 0.875 -0.234375q0.421875 -0.25 0.59375 -0.671875q0.1875 -0.421875 0.1875 -1.21875l0 -3.328125l1.046875 0l0 6.21875l-0.9375 0zm2.8389282 0l0 -8.59375l1.046875 0l0 3.078125q0.734375 -0.84375 1.859375 -0.84375q0.703125 0 1.203125 0.28125q0.515625 0.265625 0.734375 0.75q0.21875 0.46875 0.21875 1.390625l0 3.9375l-1.046875 0l0 -3.9375q0 -0.796875 -0.34375 -1.15625q-0.34375 -0.359375 -0.96875 -0.359375q-0.46875 0 -0.890625 0.25q-0.40625 0.234375 -0.59375 0.65625q-0.171875 0.40625 -0.171875 1.140625l0 3.40625l-1.046875 0z" fill-rule="nonzero"></path><path fill="#000000" d="m585.1565 241.84946l-8.96875 0l0 -1.5625l8.96875 0l0 1.5625zm0 4.125l-8.96875 0l0 -1.546875l8.96875 0l0 1.546875zm1.6449585 -2.828125q0 -2.421875 0.5 -3.890625q0.5 -1.46875 1.46875 -2.265625q0.984375 -0.796875 2.46875 -0.796875q1.09375 0 1.921875 0.4375q0.828125 0.4375 1.359375 1.28125q0.546875 0.828125 0.84375 2.015625q0.3125 1.1875 0.3125 3.21875q0 2.390625 -0.5 3.859375q-0.484375 1.46875 -1.46875 2.28125q-0.96875 0.796875 -2.46875 0.796875q-1.96875 0 -3.078125 -1.40625q-1.359375 -1.703125 -1.359375 -5.53125zm1.71875 0q0 3.34375 0.78125 4.453125q0.796875 1.109375 1.9375 1.109375q1.15625 0 1.9375 -1.109375q0.78125 -1.125 0.78125 -4.453125q0 -3.359375 -0.78125 -4.46875q-0.78125 -1.109375 -1.953125 -1.109375q-1.15625 0 -1.828125 0.984375q-0.875 1.234375 -0.875 4.59375zm9.594482 6.703125l0 -1.90625l1.90625 0l0 1.90625l-1.90625 0zm13.027039 -1.609375l0 1.609375l-8.984375 0q-0.015625 -0.609375 0.1875 -1.15625q0.34375 -0.921875 1.09375 -1.8125q0.765625 -0.890625 2.1875 -2.0625q2.21875 -1.8125 3.0 -2.875q0.78125 -1.0625 0.78125 -2.015625q0 -0.984375 -0.71875 -1.671875q-0.703125 -0.6875 -1.84375 -0.6875q-1.203125 0 -1.9375 0.734375q-0.71875 0.71875 -0.71875 2.0l-1.71875 -0.171875q0.171875 -1.921875 1.328125 -2.921875q1.15625 -1.015625 3.09375 -1.015625q1.953125 0 3.09375 1.09375q1.140625 1.078125 1.140625 2.6875q0 0.8125 -0.34375 1.609375q-0.328125 0.78125 -1.109375 1.65625q-0.765625 0.859375 -2.5625 2.390625q-1.5 1.265625 -1.9375 1.71875q-0.421875 0.4375 -0.703125 0.890625l6.671875 0z" fill-rule="nonzero"></path><path fill="#000000" fill-opacity="0.0" d="m559.88074 147.2431l87.1181 0l0 34.23622l-87.1181 0z" fill-rule="nonzero"></path><path fill="#000000" d="m570.1776 164.30373l2.421875 0l0 1.453125q0.46875 -0.734375 1.28125 -1.203125q0.8125 -0.46875 1.796875 -0.46875q1.703125 0 2.90625 1.34375q1.203125 1.34375 1.203125 3.75q0 2.46875 -1.21875 3.84375q-1.203125 1.359375 -2.921875 1.359375q-0.8125 0 -1.484375 -0.3125q-0.65625 -0.328125 -1.390625 -1.125l0 4.96875l-2.59375 0l0 -13.609375zm2.578125 4.765625q0 1.65625 0.65625 2.453125q0.65625 0.796875 1.59375 0.796875q0.921875 0 1.515625 -0.71875q0.609375 -0.734375 0.609375 -2.40625q0 -1.546875 -0.625 -2.296875q-0.625 -0.75 -1.53125 -0.75q-0.96875 0 -1.59375 0.734375q-0.625 0.734375 -0.625 2.1875z" fill-rule="nonzero"></path><path fill="#000000" d="m585.22986 181.1631l0 -0.9375q-0.328125 0.5 -0.890625 0.796875q-0.546875 0.28125 -1.171875 0.28125q-0.625 0 -1.125 -0.265625q-0.5 -0.28125 -0.71875 -0.78125q-0.21875 -0.5 -0.21875 -1.375l0 -3.9375l1.640625 0l0 2.859375q0 1.3125 0.09375 1.609375q0.09375 0.296875 0.328125 0.46875q0.25 0.171875 0.609375 0.171875q0.421875 0 0.75 -0.234375q0.34375 -0.234375 0.46875 -0.578125q0.125 -0.34375 0.125 -1.671875l0 -2.625l1.640625 0l0 6.21875l-1.53125 0zm5.222168 0l-2.515625 -6.21875l1.734375 0l1.171875 3.171875l0.34375 1.0625q0.125 -0.40625 0.15625 -0.53125q0.09375 -0.265625 0.1875 -0.53125l1.171875 -3.171875l1.703125 0l-2.46875 6.21875l-1.484375 0z" fill-rule="nonzero"></path><path fill="#000000" d="m595.5722 166.58498l0 -2.390625l9.515625 0l0 2.390625l-9.515625 0zm0 4.125l0 -2.40625l9.515625 0l0 2.40625l-9.515625 0zm15.3324585 -10.203125q1.96875 0 3.078125 1.40625q1.328125 1.671875 1.328125 5.546875q0 3.859375 -1.328125 5.546875q-1.109375 1.390625 -3.078125 1.390625q-1.984375 0 -3.203125 -1.53125q-1.21875 -1.53125 -1.21875 -5.4375q0 -3.84375 1.34375 -5.53125q1.09375 -1.390625 3.078125 -1.390625zm0 2.15625q-0.484375 0 -0.859375 0.3125q-0.359375 0.296875 -0.5625 1.078125q-0.265625 1.015625 -0.265625 3.40625q0 2.390625 0.234375 3.28125q0.25 0.890625 0.609375 1.1875q0.359375 0.296875 0.84375 0.296875q0.46875 0 0.828125 -0.296875q0.375 -0.296875 0.59375 -1.078125q0.265625 -1.0 0.265625 -3.390625q0 -2.390625 -0.25 -3.28125q-0.234375 -0.90625 -0.609375 -1.203125q-0.359375 -0.3125 -0.828125 -0.3125zm6.5163574 11.5l0 -2.609375l2.609375 0l0 2.609375l-2.609375 0zm13.464539 -10.265625l-2.53125 0.28125q-0.09375 -0.78125 -0.484375 -1.15625q-0.375 -0.375 -1.0 -0.375q-0.828125 0 -1.40625 0.75q-0.5625 0.734375 -0.71875 3.078125q0.984375 -1.140625 2.421875 -1.140625q1.640625 0 2.796875 1.25q1.171875 1.234375 1.171875 3.203125q0 2.078125 -1.234375 3.34375q-1.21875 1.265625 -3.140625 1.265625q-2.0625 0 -3.390625 -1.59375q-1.3125 -1.609375 -1.3125 -5.25q0 -3.75 1.375 -5.390625q1.390625 -1.65625 3.59375 -1.65625q1.546875 0 2.5625 0.875q1.015625 0.859375 1.296875 2.515625zm-5.90625 5.6875q0 1.265625 0.578125 1.953125q0.59375 0.6875 1.34375 0.6875q0.71875 0 1.203125 -0.5625q0.484375 -0.5625 0.484375 -1.84375q0 -1.328125 -0.53125 -1.9375q-0.515625 -0.625 -1.296875 -0.625q-0.75 0 -1.265625 0.59375q-0.515625 0.578125 -0.515625 1.734375z" fill-rule="nonzero"></path><path fill="#000000" fill-opacity="0.0" d="m545.37085 79.813644l87.1181 0l0 34.23622l-87.1181 0z" fill-rule="nonzero"></path><path fill="#000000" d="m555.62085 110.51489l0 -13.640625l1.53125 0l0 1.28125q0.53125 -0.75 1.203125 -1.125q0.6875 -0.375 1.640625 -0.375q1.265625 0 2.234375 0.65625q0.96875 0.640625 1.453125 1.828125q0.5 1.1875 0.5 2.59375q0 1.515625 -0.546875 2.734375q-0.546875 1.203125 -1.578125 1.84375q-1.03125 0.640625 -2.171875 0.640625q-0.84375 0 -1.515625 -0.34375q-0.65625 -0.359375 -1.078125 -0.890625l0 4.796875l-1.671875 0zm1.515625 -8.65625q0 1.90625 0.765625 2.8125q0.78125 0.90625 1.875 0.90625q1.109375 0 1.890625 -0.9375q0.796875 -0.9375 0.796875 -2.921875q0 -1.875 -0.78125 -2.8125q-0.765625 -0.9375 -1.84375 -0.9375q-1.0625 0 -1.890625 1.0q-0.8125 1.0 -0.8125 2.890625z" fill-rule="nonzero"></path><path fill="#000000" d="m569.6215 113.73364l0 -0.921875q-0.734375 1.0625 -1.984375 1.0625q-0.546875 0 -1.03125 -0.203125q-0.46875 -0.21875 -0.703125 -0.53125q-0.234375 -0.328125 -0.328125 -0.796875q-0.0625 -0.296875 -0.0625 -0.984375l0 -3.84375l1.0625 0l0 3.453125q0 0.8125 0.0625 1.109375q0.09375 0.40625 0.40625 0.65625q0.328125 0.234375 0.8125 0.234375q0.46875 0 0.875 -0.234375q0.421875 -0.25 0.59375 -0.671875q0.1875 -0.421875 0.1875 -1.21875l0 -3.328125l1.046875 0l0 6.21875l-0.9375 0zm2.8076782 0l0 -8.59375l1.0625 0l0 8.59375l-1.0625 0z" fill-rule="nonzero"></path><path fill="#000000" d="m584.458 98.73364l-8.96875 0l0 -1.5625l8.96875 0l0 1.5625zm0 4.125l-8.96875 0l0 -1.546875l8.96875 0l0 1.546875zm1.6449585 -2.828125q0 -2.421875 0.5 -3.890625q0.5 -1.46875 1.46875 -2.265625q0.984375 -0.796875 2.46875 -0.796875q1.09375 0 1.921875 0.4375q0.828125 0.4375 1.359375 1.28125q0.546875 0.828125 0.84375 2.015625q0.3125 1.1875 0.3125 3.21875q0 2.390625 -0.5 3.859375q-0.484375 1.46875 -1.46875 2.28125q-0.96875 0.796875 -2.46875 0.796875q-1.96875 0 -3.078125 -1.40625q-1.359375 -1.703125 -1.359375 -5.53125zm1.71875 0q0 3.34375 0.78125 4.453125q0.796875 1.109375 1.9375 1.109375q1.15625 0 1.9375 -1.109375q0.78125 -1.125 0.78125 -4.453125q0 -3.359375 -0.78125 -4.46875q-0.78125 -1.109375 -1.953125 -1.109375q-1.15625 0 -1.828125 0.984375q-0.875 1.234375 -0.875 4.59375zm9.594482 6.703125l0 -1.90625l1.90625 0l0 1.90625l-1.90625 0zm10.542664 0l-1.671875 0l0 -10.640625q-0.59375 0.578125 -1.578125 1.15625q-0.984375 0.5625 -1.765625 0.859375l0 -1.625q1.40625 -0.65625 2.453125 -1.59375q1.046875 -0.9375 1.484375 -1.8125l1.078125 0l0 13.65625z" fill-rule="nonzero"></path><path fill="#000000" fill-opacity="0.0" d="m509.4925 28.969736l87.1181 0l0 34.23622l-87.1181 0z" fill-rule="nonzero"></path><path fill="#000000" d="m519.7425 59.670986l0 -13.640625l1.53125 0l0 1.28125q0.53125 -0.75 1.203125 -1.125q0.6875 -0.375 1.640625 -0.375q1.265625 0 2.234375 0.65625q0.96875 0.640625 1.453125 1.828125q0.5 1.1875 0.5 2.59375q0 1.515625 -0.546875 2.734375q-0.546875 1.203125 -1.578125 1.84375q-1.03125 0.640625 -2.171875 0.640625q-0.84375 0 -1.515625 -0.34375q-0.65625 -0.359375 -1.078125 -0.890625l0 4.796875l-1.671875 0zm1.515625 -8.65625q0 1.90625 0.765625 2.8125q0.78125 0.90625 1.875 0.90625q1.109375 0 1.890625 -0.9375q0.796875 -0.9375 0.796875 -2.921875q0 -1.875 -0.78125 -2.8125q-0.765625 -0.9375 -1.84375 -0.9375q-1.0625 0 -1.890625 1.0q-0.8125 1.0 -0.8125 2.890625z" fill-rule="nonzero"></path><path fill="#000000" d="m533.7432 62.889736l0 -0.921875q-0.734375 1.0625 -1.984375 1.0625q-0.546875 0 -1.03125 -0.203125q-0.46875 -0.21875 -0.703125 -0.53125q-0.234375 -0.328125 -0.328125 -0.796875q-0.0625 -0.296875 -0.0625 -0.984375l0 -3.84375l1.0625 0l0 3.453125q0 0.8125 0.0625 1.109375q0.09375 0.40625 0.40625 0.65625q0.328125 0.234375 0.8125 0.234375q0.46875 0 0.875 -0.234375q0.421875 -0.25 0.59375 -0.671875q0.1875 -0.421875 0.1875 -1.21875l0 -3.328125l1.046875 0l0 6.21875l-0.9375 0zm5.135803 -0.9375l0.15625 0.921875q-0.453125 0.09375 -0.796875 0.09375q-0.578125 0 -0.890625 -0.171875q-0.3125 -0.1875 -0.453125 -0.484375q-0.125 -0.296875 -0.125 -1.25l0 -3.578125l-0.765625 0l0 -0.8125l0.765625 0l0 -1.546875l1.046875 -0.625l0 2.171875l1.0625 0l0 0.8125l-1.0625 0l0 3.640625q0 0.453125 0.046875 0.578125q0.0625 0.125 0.1875 0.203125q0.125 0.078125 0.359375 0.078125q0.1875 0 0.46875 -0.03125z" fill-rule="nonzero"></path><path fill="#000000" d="m549.272 47.889736l-8.96875 0l0 -1.5625l8.96875 0l0 1.5625zm0 4.125l-8.96875 0l0 -1.546875l8.96875 0l0 1.546875zm1.6449585 -2.828125q0 -2.421875 0.5 -3.890625q0.5 -1.46875 1.46875 -2.265625q0.984375 -0.796875 2.46875 -0.796875q1.09375 0 1.921875 0.4375q0.828125 0.4375 1.359375 1.28125q0.546875 0.828125 0.84375 2.015625q0.3125 1.1875 0.3125 3.21875q0 2.390625 -0.5 3.859375q-0.484375 1.46875 -1.46875 2.28125q-0.96875 0.796875 -2.46875 0.796875q-1.96875 0 -3.078125 -1.40625q-1.359375 -1.703125 -1.359375 -5.53125zm1.71875 0q0 3.34375 0.78125 4.453125q0.796875 1.109375 1.9375 1.109375q1.15625 0 1.9375 -1.109375q0.78125 -1.125 0.78125 -4.453125q0 -3.359375 -0.78125 -4.46875q-0.78125 -1.109375 -1.953125 -1.109375q-1.15625 0 -1.828125 0.984375q-0.875 1.234375 -0.875 4.59375zm9.594482 6.703125l0 -1.90625l1.90625 0l0 1.90625l-1.90625 0zm10.542664 0l-1.671875 0l0 -10.640625q-0.59375 0.578125 -1.578125 1.15625q-0.984375 0.5625 -1.765625 0.859375l0 -1.625q1.40625 -0.65625 2.453125 -1.59375q1.046875 -0.9375 1.484375 -1.8125l1.078125 0l0 13.65625z" fill-rule="nonzero"></path></g></svg>

